<?xml version="1.0" encoding="UTF-8"?>
<svg id="Layer_2" data-name="Layer 2" xmlns="http://www.w3.org/2000/svg" viewBox="0 0 64 96.32">
  <g id="Cards">
    <g id="Cups">
      <g id="ElevenOfCups">
        <g>
          <path d="M3.46,7.91h-1.51V2.22c-.55.52-1.2.9-1.95,1.14v-1.37c.39-.13.82-.37,1.28-.73.46-.36.78-.78.95-1.26h1.22v7.91Z" fill="#e03e3e"/>
          <path d="M7.29,7.91h-1.51V2.22c-.55.52-1.2.9-1.95,1.14v-1.37c.39-.13.82-.37,1.28-.73.46-.36.78-.78.95-1.26h1.22v7.91Z" fill="#e03e3e"/>
        </g>
        <g>
          <path d="M60.54,88.09h1.51v5.69c.55-.52,1.2-.9,1.95-1.14v1.37c-.39.13-.82.37-1.28.73-.46.36-.78.78-.95,1.26h-1.22v-7.91Z" fill="#e03e3e"/>
          <path d="M56.71,88.09h1.51v5.69c.55-.52,1.2-.9,1.95-1.14v1.37c-.39.13-.82.37-1.28.73-.46.36-.78.78-.95,1.26h-1.22v-7.91Z" fill="#e03e3e"/>
        </g>
        <g>
          <path d="M22.33,33.64c.1-.88,2.91-.54,3.28-.09l-.06.55c.3.58-.6,1.49-1.09,1.95-2.86,2.68-10.07,4.39-13.96,4.99-.87.13-4.96.57-5.51.29-.09-.04-.13-.17-.16-.32-.67-.63-.35-.74.46-.69.18-.76-.8-1.21-1.15-1.84-.06-.63,1.4-1.02,2.05-1.18,4.85-.37,9.07-1.2,13.59-3.08.87-.72,1.72-.91,2.54-.57Z" fill="#ed4a2b"/>
          <path d="M10.36,64.02l.49.13c.38,2.21.75,4.39,1.12,6.55.38-.65.51-.78.46,0,.72.34.24,1.77,0,2.44l-1.98,3.89c-.2.75-.53,1.29-1.02,1.62.18.02.44.07.46.2.09.61.06,4.56-.21,4.83-.07.07-.16.11-.25.15.48-.85,1.46-1.31,2.93-1.39-.76-2.59-.52-4.81.17-7.4,1.09-4.1,2.35-7.76,6.73-9.25.85-.29,2.62-.81,3.29-.38.59-.21.96.53.23.69-.61-.02-3.72.81-4.31,1.1-.78.38-.97,1.15-1.56,1.67-.28.25-.96.42-1.01.49-.19.29.02,3.67-.04,4.45-.22,2.84-.99,5.86-1.38,8.63-.14,4,.2,8,.69,11.97.08.39.28,1.11.23,1.38-.63.48-1.48.55-2.53.23-.31,0-.62.01-.92,0-.84.22-1.74.11-2.53-.23-.27-.31-.28-.31-.19-.74.34-1.6,1.78-3.94,2.49-5.47.35-.87.67-2.02-.23-1.61-1.37.47-3.25.95-3.46-1.03-.18-1.64.73-2.3.9-3.71.23-1.88-.42-3.07.09-5.2.54-2.26,2.45-4.17,2.17-6.45-.29-2.35-1.49-5.02-1.32-7.54.11-.44.32-.43.46,0Z" fill="#624a37"/>
          <path d="M42.12,5.78c.16-.04.3-.06.35,0,.3.31.37,2.95.29,3.69-.06.54-.5,2.83-1.11,2.29q-.63-.26,0,0c.4.4-.41,1.7-.92,1.61-.56.3.14,1.58.56,1.51.52.19.64.29.36.79-.12.68-1.37,1.69-2.1,1.95-.23.08-4.55-.16-4.77-.26-.13-.06-.61-2.68-.04-2.61-.1-.24-.07-.45.1-.65-.99.08-1.86,0-2.63-.27-.08-.07-.4-.02-.58-.22-.1-.11.13-.22.12-.24l.37-.34c1.17,0,2.36-.04,3.56-.12.08-.85.38-1.31.9-1.38.6-1.14,1.06-2.37,1.38-3.68-.57-.38-.39-1.37,0-1.84,1.05-.67,2.9-.43,4.14-.23Z" fill="#e5b387"/>
          <path d="M50.18,69.55c.37.06.67.21.92.46.77-.55.71.27.23.69l.46.39c1.58,6.28,2.28,12.28,1.24,18.9-.08.47.2.64.85.49.32-2.25.62-4.52.91-6.79-.63-3.77-.61-7.44.32-11.21l.59-.63c.27-.44.53-.28.46.23-.02,1.77-.61,3.66-.7,5.4-.11,2.17.5,4.39.49,6.45-.01,2.35-1.09,4.62-.94,7.13.07,1.09.89,3.51.7,4.34-.08.33-1.21.43-1.52.41-.69-.04-.9-.38-1.19-.44-.33-.06-.66.36-1.09.38-.37.02-1.52-.26-1.77-.54-.44-.48,1.29-3.51,1.52-4.28.81-2.75.81-9.11.59-12.09-.2-2.63-1.27-5.32-1.62-7.93l-1.61.46c-.08-.4.21-.8.23-1.15-.19-.06-.18-.13,0-.23.3-.33.61-.48.92-.46Z" fill="#674d3b"/>
          <path d="M7.59,43.07c.35.61.35.99,0,1.15.37.53.5,1.23.39,2.09,1.06,3.86.36,6.7-1.96,9.96-1.13,2.49-1.55,5.15,1.98,5.05,1.06.9,2.14,1.41,3.23,1.52,1.93-.62,3.76-1.55,5.49-2.78,4.92-2.5,5.66-.44,6.67,4.11.36,1.58,3.28,3.62,4.79,2.77,2.14-2.01,5-3.68,8-3.9,1.13-.08,2.63-.15,3.18.98.61-.1.66.01.23.46.16.86-1.73.81-1.84,0-.43.24-.77-.04-.92-.46-1.85,0-4.76,1.3-6.29,2.34-1.65,1.12-1.92,2.39-4.54,1.69-1.24-.33-2.15-1.94-3.21-1.96.12-.33-.17-.53-.23-.69l-.57-.28c-.25-1.98-.9-3.66-1.97-5.02-.2.2-.5.28-.92.23-1.06.92-2.57,1.59-3.91,1.84.27.59-.92,1.24-1.38.92-.74,1.01-2.54,2.12-3.45.92-.15-.01-.35.03-.46,0-.26-.08-1.62-1.42-2.36-1.67-1.22-.4-2.85-.02-3.15-1.91-.81-5.15,3.3-6.52,2.95-10.78-.21-2.47-.66-3.39-.43-6.13l.45-1.24c.27-.11.86.8.24.78Z" fill="#ad2f27"/>
          <path d="M37.98,6.01c.32.65.09,1.19,0,1.84-.34,1.34-.8,2.56-1.38,3.68-.2.79-.61,1.46-.46,2.3-.61.23-.36-.39-.61-.46-1.03-.28-2.58.59-3.76,0-.14-.24-.6-.65-.44-.9.01-.02.31,0,.44-.18.2-.28.53-.71.69-.99.43-1.23.89-2.46,1.38-3.68.27-.38.92-.7.92-1.38l.12-.24c.9.13,1.87.03,2.92-.28l.18.29Z" fill="#db9e2d"/>
          <path d="M43.04,2.33c-1.09.23-2.87.34-3.91,0l-.31.24c-1.79.06-3.65.23-5.21,1.14.12.31-.13.67-.46.46.13-.96-1.26-.21-1.71-.24-.94-.06-.95-.74-1.35-1.07s-1.79-.67-1.1-1.57c1.37-1.78,7.42-1.49,9.24-.47.64.36.87,1.11,1.29,1.24,1,.31,2.55-.33,3.53.27Z" fill="#97b244"/>
          <path d="M26.93,35.02c.13-.82,1.6.46.46.69.33.37.28.55-.23.69-.03,2.49-.69,4.06-2.24,6.03-1.94,2.97-4.61,5.38-7.79,6.86l-.29.48c4.9,7.37-8.44,7.38-4.2-.11l-.22-.74c-1.52-1.67-3.05-3.32-4.58-4.97l-.25-.88c-.06-.1.12-.47-.11-.46l-.58.92c.06-.77.54-1.55-.23-1.84.16-.49,1.01-.52,1.15,0,1.88,2.44,3.89,4.87,6.14,7.02.61.58,2.61-.41,3.21-.79,4.53-2.87,8.71-7.2,9.16-12.79l.59-.12Z" fill="#e79c2c"/>
          <path d="M36.83,64.02c.87,0,.78.43.92.46l.5.32c1.34,4.43,2.27,8.94-2.48,11.68l-3.72,2.5c-1.98,1.46-2.7,3.67-2.16,6.62l-.43.29c1.23-.04,1.5.3.65,1.29-.49,1.37-.56,2.2,1.09,1.9,2.28-.41,2.36-1.92,2.18-3.88-.45-.17-.57-.81,0-.69,2.04.69,1.23,3.97-.24,4.94-.83.55-3.72,1.2-4.25.13-.45-.9.14-2.07.12-2.88-.04-1.98-.7-4.05.19-6.02,1.75-3.85,8.53-4.75,9.02-9.17.28-2.55-.93-5.01-1.38-7.48Z" fill="#634c3b"/>
          <path d="M51.33,37.78c.62-.56,2.99.82,2.99,1.61l.45.13c.48-.37.95-.1,1.39.79,3.39,2.01,4.92,3.73,5.83,7.64,1.19,5.08,1.66,10.84-3.07,14.23-.6.1-.63,0-.23-.46.15-.64.54-1.22,1.18-1.76,3.27-4.66,2.02-15.7-3.69-18.38-1.69-.85-3.31-1.82-4.86-2.88-.24-.06-.39-.22-.46-.46-.61-.07-.58-.29,0-.46.04-.5.23-.43.46,0Z" fill="#5e4c39"/>
          <path d="M2.53,16.14c.68-2.19.17-1.29-.18-2.93-.21-1-.1-2.05.45-2.9,1.28-1.99,1.29.06,1.76,1.15.99,2.29.77,1.31,2.24,1.24.68-.03,1.55.61,2.16.34.57-.25,2.36-3.33,3.01-3.01.43.21.93,1.6.92,2.09,0,.85-.93,1.73-.93,1.84,0,.26.6.29.69.34.54.08.69.24.46.46-.46.55-.77.55-.92,0l-.16.29c-1.81-.42-3.66-.81-5.54-1.17-.93.73-1.26.79-1.44-.49-.34.29-.47.16-.23-.23l-.63-.18c-1.02-2.83-1.37-.58-.48.69l-.04.64.34.44-.8,2.73c.65,1.37.49,2.08-.46,2.12-.2-.17-.35-.48-.46-.92-.12-.84-.04-1.68.23-2.53Z" fill="#624b3a"/>
          <path d="M2.3,18.68c.14.61.3,1.07.46,1.38.67.43.66,1.17,0,1.61.65.61.66,1.7,0,2.3l.44.37-.72,2.94c-1.16,2.98,4.02,3.62,3.31.42.13-.77.52-1.78,1.34-1.89.54-.35.68-.14.46.46.31.6-.28,2.63-.92,2.88l.46.26v4.25l-.46.32c.76,0,1.1,2.52.46,2.88.03.51-.6.5-.69,0l-.57-6.23c-.21-.36-1.09.19-1.62.2-1.83.03-2.98-1.07-3.05-2.89-.05-1.39.87-2.79,1.01-4.12.31-2.79-.61-4.71.31-7.68-.21.86-.24,1.65-.23,2.53Z" fill="#684d3b"/>
          <path d="M20.48,4.17c2.4.22,4.33,1.47.92,2.3-.37.01-.33-.34,0-.46-1.03.09-2.2.08-3.48-.03l-3.94.19-.41-.39c-.1.29-.25.44-.46.46-.26-.24-.69-.14-.92-.23-.24-.26-.36-1-.2-1.29.53-.95,7.23-.98,8.49-.55Z" fill="#f5c13e"/>
          <path d="M26.01,34.1c.52.03.52.33,0,.46.66.52-.93,2.51-1.61,2.07-.31.71-.62.94-.92.69l-.78.92c-3.84,1.73-7.96,2.96-12.12,3.61l-.68-.39-.08.31c-.69-.24-1.35-.27-2-.08-.38-.02-.77.01-1.15,0-.72-.02-3.03.28-2.3-.69.07-.6.24-.55.46,0,4.7.46,16.56-2.07,19.8-5.63.36-.39.64-.82.92-1.27.13-.44.34-.45.46,0Z" fill="#b13122"/>
          <path d="M57.77,61.72c-.22.02-.35-.05-.29-.23.37-1.23.87-.51,1.21.23.02.02.22.44.23.46.8,2.88,2.07,7.45,2.47,10.3.08.56.08,1.11.06,1.67-1.69.41-2.35-.8-3.52-1.43-.69-.37-1.16-.41-1.77-.65-.13-.05-.26-.16-.46-.23-1.28.31-3.03-.18-3.91-1.15-.61-.22-.12-1.28.46-.92,2.97.33,5.73,1.59,8.05,3.26-.57-3.38-1.44-6.81-2.58-10.15l.06-1.17Z" fill="#af352c"/>
          <path d="M22.33,33.64c-1.71.16-3.73,1.57-5.53,2.18-2.02.68-4.46,1.15-6.57,1.48-1.97.31-4.41-.09-6.08,1.17-.11-.19-.37-.29-.23-.69.75-.11,1.89-.79,2.53-.93.21-.04.49.04.69,0,.12-.66,1.21-1.03,1.61-.46.01-.63.25-.6.46,0l.62-.52c3.49-.38,7.44-.82,10.35-2.84l.54.14c.1-1,2.29-.46,1.61.46Z" fill="#b03024"/>
          <path d="M44.19,68.63c-.02.45-1.62,2.26-2.03,2.92-2.35,3.85-4.69,8.22-9.02,10.2-.49.14-.35.98,0,1.84.03.28.18.61.23.92,0,.04-.3.1,0,.69-.19.85-1.23.2-.69-.46-.45-.77-1.17-2.47-.7-3.29,4.39-2.57,7.56-6.6,9.76-11.17.55-1.26,1.28-1.97,2.22-2.11.56-.22.74.14.23.46Z" fill="#654e3e"/>
          <path d="M56.16,40.31c-.6-.35-1.22-.6-1.84-.92.02-.5-.17-.97-.57-1.41l-3.47-3.82c-1.84-2.09-1.34-6.03-.79-8.6l.46-.44c-.04-.36.37-.69.69-.46.1,3.28-1.56,6.16.7,9.09,1.59,2.06,4.16,3.71,4.83,6.57Z" fill="#7e954d"/>
          <path d="M27.16,16.37c.34.33-.11,2.53-.35,2.81-.04.05-.17,0-.34-.05-.49-.36-.54-.86-.42-1.42-1.82.17-3.61-.18-5.26-.84-2.21-.66-1.71.65-.35,1.61.4.28,4.74,1.45,5.15,1.36.26-.44.56-.52.88-.25l.27.18c-.13.51-.1.95-.04,1.43-.6.64-2.15.33-2.53-.46-1.17-.25-2.24-.56-3.22-.92-.33.59-1.08.16-.92-.46-1.02-.27-2-1.3-1.84-2.3-.52-.02-1.06-.44-.69-.92.04-.21.12-.2.23,0l.11-.23,3.81-.13c.1-.51.29-.37.45.13.03,0,.12.34.4.4,1.49.3,3.18.56,4.67.06Z" fill="#d9b04c"/>
          <path d="M43.04,2.33c.63.07,1.24.2,1.16,1.03-.08.89-1.63.73-1.39,2.2.11.68-.23.73-.69.23-1.38.12-2.78.1-4.14.23-.75.07-2.86.54-3.22.23-.19-.17-.19-.53-.29-.62-.46-.39-1.95-.34-1.32-1.46.08-.14.33-.32.46-.46.32-.3.45-.17.23.23.33.62.89.78,1.7.49.31.18.42.5.34.96,1.89-.52,3.87-.69,5.93-.51.27-.69.69-1.25,1.26-1.69l-3.86.05-.3-.45c-.49-.23-.19-.33.23-.46,1.15-.04,2.81-.13,3.91,0Z" fill="#be5133"/>
          <path d="M44.42,11.08c.79,2.71-.47,4.54-3.22,3.22-.05.21-.13.2-.23,0l-.17-.29c.46-.89.96-1.76,1.51-2.6.09-1.85.57-2.58,1.42-2.18.17,1.03.11.95.69,1.84Z" fill="#d39b3a"/>
          <path d="M47.65,16.6c1.3.04,4.81,1.35,5.31,2.63.84,2.14-.67,4.22-2.32,5.43-.22.16-.46.32-.69.46-.07.43-.13.55-.46.23-.65-.11-.55-.17,0-.46l.04-.57c3.74-3.37,3.45-6.19-2.08-6.57l-.26-.46c-.65.21-.95.13-.92-.23.26-.84.53-.84,1.38-.46Z" fill="#a6392d"/>
          <path d="M43.73,9.24c-1.3.44-.81,1.29-1.22,2.35-.35.9-1.14,1.82-1.54,2.72-.12.14-.23.24-.29.22-.12-.05-1.02-1.19.06-1.14.28-.55.6-.95.92-1.61-.27.47-1.37-.11-1.38-.35-.02-.43,1.73-.27,1.38.35.02-.04.3-.12.4-.4.49-1.39.08-2.4.29-3.75-1.7-.08-.22-.51-.11-.68.24-.38.09-.82-.12-1.16.25-.02.48-.11.69-.23.06.34.51.85.63,1.33.21.83.17,1.6.29,2.35Z" fill="#ba884a"/>
          <path d="M27.85,16.37c.06.34.14.34.23,0-.11-.47.9-.55,1.15-.23l.3.45c-.55,1.33-1.11,2.76-.86,4.22l-.37.39c-.28.09-.66.09-1.15,0-.09.64-.3.62-.46,0-.76-.29-.24-.85-.23-1.61-.44-.13-.44-.33,0-.46.58-.78.34-1.92.69-2.76.03-.08.16-.15.23-.23.36-.24.64-.22.46.23Z" fill="#c13b18"/>
          <path d="M14.5,13.84c.23.02.48-.05.73-.21,1.63.1,3.14.14,4.55.14l.24.08c.48.24.89.27,1.15.92-.16.32-.54.34-.69,0-2.25.3-4.91.47-7.14,0-.03.16-.11.15-.23,0-.15-.15-.29-.34-.46-.46.65.11,1.27-.17,1.84-.46Z" fill="#f2a04e"/>
          <path d="M43.96,67.24c.71-.27,1.38.38,1.38,1.15.64-.28.95-.2.92.23.4-.54,1.67-.26,1.61.46.75.04,1.13.19,1.15.46.63-.11.71.04.23.46.01.07,0,.16,0,.23l-5.06-1.61c.01-.31-.07-.29-.23-.46-.93.65-2.39-1.27-.92-1.38.06-.2.14-.2.23,0,.67-.07.9.08.69.46Z" fill="#a3352b"/>
          <path d="M19.56,10.16s-.22.28-.16.53.33.45.38.75.25,2.26.24,2.41c-.67.2-1.39-.15-.92-.92-.62-.15-.83-.8-.92-1.38-.57-.03-.39-1.22,0-1.38.07-.63.83-.79,1.15-.23.34-.3.47-.17.23.23Z" fill="#ba894e"/>
          <path d="M32.22,13.84l3.22-.23c.11.48-.23,1.04-.69,1.15.04.76-1.09.45-1.38,0-.92.59-1.53.59-1.84,0-.36.47-1.92,1.35-2.53.92,1.3-1.36,3.12-1.19,4.83-1.15-.11-.5-1.07-.12-1.46-.22-.26-.07-.12-.44-.15-.47Z" fill="#f8eedf"/>
          <path d="M20.48,4.17c-1.63-.15-4.9-.16-6.51.05-.22.03-1.71.35-1.77.42-.11.11.05,1.07,0,1.37-.61-.23-.62-1.06-.25-1.52.45-.56,5.15-.81,6.12-.78.63.02,1.81.23,2.42.46Z" fill="#dcc894"/>
          <path d="M14.96,9.47c.13-.12.31-.27.49-.24.09.01,1.41.8,1.35.93.32.59.62.59.92,0,.13-.44.33-.44.46,0-.16.47-.33.95,0,1.38-.07.67-1.68.62-1.84,0l-.2-.22c-.32.64-.71,1.1-1.18,1.37-.83-.62.43-1.65.41-1.96,0-.08-.66-.93-.87-1.26-.05-.46.26-.36.46,0Z" fill="#c9a269"/>
          <path d="M15.19,94.41c-.74-3.8-1.22-8.16-.69-11.97l.69,11.97Z" fill="#6b523f"/>
          <path d="M21.18,14.76c.31,0,.62,0,.92,0v1.15c-.22-.05-3.57.24-4.37.23-.61-.07-.58-.29,0-.46l.65-.25c2.44.12,3.14.05,2.11-.21-.61-.07-.58-.29,0-.46.23,0,.46,0,.69,0Z" fill="#bb5312"/>
          <path d="M21.41,6.01c.04.08-.01.32,0,.46.11,1.24-.56,3.26-1.84,3.68,0-.02-.21-.23-.23-.23-.46-.43-.39-.56.23-.46l-.2-.49c.62-.64,1.08-1.28,1.12-2.19-.12-.79.11-1.13.92-.77Z" fill="#bb573e"/>
          <path d="M44.42,11.08c.07.11.37.06.46.57.11.59.06,1.78-.25,2.29-.16.25-.57.33-.61.4-.43.73.67.83,1.33,1.11-.1.12-.25.12-.46,0-.25.39-1.06.1-1.38-.23l-1.42-.12c-.63.08-1.65-.11-.89-.8.38.04,2.76-.11,2.89-.21.44-.33-.02-2.25.33-3.01Z" fill="#f9efdc"/>
          <path d="M13.58,5.78c.46.31.75.89.85,1.75.46.62.64,1.19.54,1.71.2.07.2.14,0,.23-.12-.04-.32.03-.46,0-.63-1.01-1.47-1.77-1.38-3.22,0-.15-.04-.3.01-.45.14-.06.33.02.45-.01Z" fill="#b85134"/>
          <path d="M31.53,14.76c.64.12.64.54,0,.69-.35.06-.63.27-.83.63l-.32-.17c-.19.69-.81.9-1.15.23-.28.05-.99.21-1.15.23-.08.2-.15.2-.23,0-.04,0-.29-.26-.46-.23.56-.65.72-.29,1.61-.46,1.05-.2,1.59-.8,2.53-.92Z" fill="#b54b40"/>
          <path d="M16.34,11.54c.44.65-.36,1.1-.92,1.38.64.64-.29,1.16-.92.92-.02-.19.34-.86.46-1.15.43-1.04.26-.43.7-1.01.23-.3.25-1.26.56-1.28.33-.02.45.86.12,1.15Z" fill="#c28c48"/>
          <path d="M45.34,15.45c.78.33,1.67.53,2.3,1.15-.6-.02-.85.34-1.38.46-.08.2-.15.2-.23,0-.28-.28-.51-.59-.69-.92-.54.09-.58-.24-.46-.69.15.02.31-.01.46,0Z" fill="#496b8f"/>
          <path d="M32.45,11.31c-.25-1.07.36-1.55.74-2.37.29-.62.19-.68.64-1.32-.19.51-.17,1.11-.34,1.62-.2.6-.74,1.58-1.04,2.07Z" fill="#f1e3ba"/>
          <path d="M4.14,39.62c.38.41.56.85,1.15.69-.03.12-.63.3-.46.69-.14-.01-.43.03-.46,0-.04-.04.06-.33-.03-.41-.11-.1-.29.4-.89-.28-.34-.57.11-1.04.69-.69Z" fill="#cc736b"/>
          <path d="M3.45,40.31c-1.01-1.15-.25-2.22.22-1.44.2.32.05.29.47.75l-.69.69Z" fill="#b78a89"/>
          <path d="M11.97,96.02c-.49.47-2.08.28-2.53-.23.85.13,1.67.2,2.53.23Z" fill="#6b523f"/>
          <path d="M15.42,95.79c-.03.16.13.4-.15.47-.48.11-2,.08-2.38-.24.84,0,1.78.15,2.53-.23Z" fill="#6b523f"/>
          <path d="M11.51,87.96c.12-.04.29-.39.69-.23.23.91-.18,1.24-.46,1.84,0-.65.69-1.79-.23-1.61Z" fill="#6b523f"/>
          <path d="M33.15,81.75c-.34.52-.07,1.21,0,1.84-.37-.26-.62-1.61-.44-1.83.06-.08.35.03.44,0Z" fill="#705440"/>
          <path d="M5.06,13.38c.21.3.21.67.23.69.08.08.84-.57,1.09-.64,1.09-.28,4.42,1.13,5.81,1.33l.29.16c-.02,1.44,1.2,1.93,3.64,1.45l.21.23.48.26c1.21,2.36,2.65,4.45,4.33,6.27,2.34,1.29,3.86,3.41,4.56,6.34.49.63.82,1.24.98,1.86.2.16.2.49,0,.99.09.73.01,1.32-.22,1.77,0,.3-.36.3-.46,0-.13-.03-.32.03-.46,0-.05-.01-.33-.38-.81-.45-.6-.09-1.78-.07-2.41-.01-.1-.54-1.22-.59-1.61-.46-.94.62-1.72-.96-2.1-1.76-.32-1.48-.89-2.77-1.69-3.87-2.3-1.52-2.78-3.06-2.84-5.75-1.11-.48-2.1-.96-2.92-1.89l.11-.55c-.29-.03-.45-.41-.46-1.15-.52.4-.7.13-.69-.46-.16.62-.46.61-.69,0-1.1.32-1.96.01-2.91-.75-.7-.57-2.55-3.04-1.47-3.62Z" fill="#6f533f"/>
          <path d="M22.56,65.4c-1.35.55-3.29.65-4.54,1.33-.16.09-2.52,2.16-2.71,2.36-.74.78-2.72,6.95-2.86,8.19-.18,1.61-.19,3.86.66,5.27-.02.32-1.99.57-2.48.73s-.72.53-1.2.53v-5.18c0-1.24,2.15-4.47,2.64-5.88.27-.78.21-1.37.35-2.07,0-1.51.07-3.4.38-4.95.26-1.29,1.22-2.6,2.44-3.1,1.63-.21,3.71-.55,4.29-2.37l.49-.16c.18.06.43-.02.67.12.99.6,1.41,3.91,1.86,5.17Z" fill="#92674d"/>
          <path d="M13.58,83.59c.44,3.51-1.77,4.26-4.84,3.92-.71-3.16,2.24-4.08,4.84-3.92Z" fill="#70543f"/>
          <path d="M14.24,91.91c.14.12.64,3.5.49,3.65-.75.34-1.55-.43-1.96-.45-.48-.02-.98.58-1.43.64s-.96-.26-1.45-.19c-.16-.16,1.25-3.75,1.48-3.94.29-.23,2.75.19,2.86.29Z" fill="#6b523f"/>
          <path d="M14.04,82.44c-.37.47-.8-.93-.85-1.1-.71-2.44-.03-4.69.69-7l1.31-3.17c.34,3.83-1.01,7.5-1.15,11.28Z" fill="#8f674e"/>
          <path d="M13.81,63.1l.22.26c-1.23,1.98-1.81,4.31-1.75,6.99l-.32.35c-.15.01-.31,0-.46,0l-1.15-6.68c.43.04,1.07.06,1.48-.02.25-.04,1.68-.75,1.98-.91Z" fill="#90664f"/>
          <path d="M20.02,60.11c-1.2,3.88-5.84,1.27-6.85,5.46-.36,1.5-.4,3.42-.74,5.13l-.11-.17c-.14-.02-.27.16-.35.17.52-1.57.26-3.37.52-4.89.18-1.09.95-1.75,1.33-2.7.31-.16,1.08-.75,1.38-.92,1.4-.23,2.77-.97,3.91-1.84.13-.27-.02-.45,0-.46.37-.19.7.16.92.23Z" fill="#6f4731"/>
          <path d="M14.04,86.81v3.57c0,.09.32.34.23.57-.42.22-2.49.27-2.54-.12-.03-.28,1.28-4.31,2.31-4.03Z" fill="#90674e"/>
          <path d="M34.76,14.76l.23,2.3c1.37-.32,3.25.47,4.49.22.47-.1,1.58-1.21,2.19-1.61-.16-.59-.13-.81.09-.64l1.75.18c.19.22.52.35.99.39l-.07.3c-.54.97-1.31,1.69-2.09.55-1.62,1.98-3.84,2.54-6.66,1.69-1.55.3-2.16-.45-1.83-2.25-.3.01-.6.09-.92.25-.4-.1-.32-.7,0-.92-.15-.22,0-.38.46-.46.42-.03,1.03.08,1.38,0Z" fill="#b43425"/>
          <path d="M40.74,13.38c-.22.43-.38.73.23.92.06.02.15,0,.23,0-.15.64,1.61.79,2.3.92-.06-.04-1.23-.04-1.44.01-.23.05-.29.38-.4.45.16-.98-.73.1-1.04-.45-.2-.36-.03-1.05-.12-1.15-.04-.04-.73-.03-1.07-.19-.8-.38-1.65-1.23-2.37-1.78,1.36-.24,2.23,1.59,3.68,1.27Z" fill="#bc8c68"/>
          <path d="M37.98,7.86c-.13.94-.25,3.38-1.38,3.68.1-.41.36-.68.45-1.04.24-.94-.28-1.83.93-2.64Z" fill="#e5ac62"/>
          <path d="M40.51,10.39c-.16-.74.5-.4.92-.46.3-.31-.66-1.7.11-1.61.86,1.33.9,2.37-1.03,2.07Z" fill="#c7946a"/>
          <path d="M40.97,7.63c-.05-.25-3.07.27-2.3-.46.15-.14,2.55-.62,2.3.46Z" fill="#c99468"/>
          <path d="M58.7,61.72c-.24-.45-.67-1.19-1.15-.44-.9,2.53-2.31,4.79-3.92,6.89-.81.6-1.55,1.27-2.23,2.01l-.31-.17c-.15.08-.86.29-.92.23-.02-.23.02-.46,0-.69-.17-.07-.31-.15-.32-.24-.46-3.86.71-7.43,2.1-10.91.51-2.7,1.52-5.22,2.62-7.75.2-.63.31-1.23-.02-1.82-.63-.3-.64-.86,0-1.15l-.24-.21c.33-2.19-.21-3.88-1.14-5.55h-.31c-.45-1.05-1.03-2.03-1.74-2.92l.21-.3c1.14.5,2.32.94,3.43,1.52,1.88.99,4.34,2.6,5.42,4.48,1.59,2.75,2.26,8.66,1.67,11.77-.42,2.21-1.3,3.9-3.15,5.25Z" fill="#70533f"/>
          <path d="M51.79,70.7c1.34.39,2.66.72,3.91,1.15-.49,2.49-1.03,5.16-.92,7.71.07,1.57.54,3.21.47,4.85-.07,1.6-.67,3.46-.9,5.08-.05.35.02,1.42-.03,1.47-.08.08-1.51-.06-1.84,0,.36-3.81.75-8.04.47-11.86-.2-2.68-1.68-6.03-1.62-8.39.14-.45.34-.45.46,0Z" fill="#92674e"/>
          <path d="M50.18,69.55c-.36.36-.44.9-.92.46-.01-.07-.2-.44-.23-.46.03-.28.11-.54.25-.79-.34-2.25,0-4.43.67-6.11l-.25-.4c1.13-2.69,1.99-5.48,2.6-8.37l1.24-2.59.56-.15c.03-.75.07-1.48.15-2.2l.31-.1c.64.23.51.93.41,1.44-.42,2.15-1.75,3.85-2.23,6.29-.52,2.65-.92,2.87-1.72,5.18s-1.01,5.46-.83,7.8Z" fill="#7f412b"/>
          <path d="M53.63,68.16v.23c.32.67-.72,1.63-1.38,1.38-.2.24-.61.3-.46.92-.12-.04-.32.02-.46,0,0-.23.07-.64-.23-.69.66-.34,1.47-1.97,2.53-1.84Z" fill="#7c3e25"/>
          <path d="M7.59,44.23c.03-.24.15-.36.31-.24.46.35,4.57,4.83,4.66,5.17.02.09.06.18.1.27-1.17,1.97-1.51,4.75,1.08,5.67,3.74,1.33,5.65-2.77,2.99-5.37.67-.64,1.51-1.13,2.51-1.47l.72-.86c2.79-1.38,4.66-4.39,6.18-7.04.56-.06.95.33,1.04.87-.23,3.58.45,6.88,2.04,9.91l.36-.07c2.06,2.97,4.35,6.08,8.37,5.87.66.27.8.65.94,1.34.2.08.2.15,0,.23.52,1.08.54,1.97.15,3.08l.08,1.75c.66-.05.73.26.23.69-2.62-1.33-6.23-.02-8.59,1.43-2.14,1.31-2.32,3.1-5.21,1.67-.44-.22-1.98-1.39-2.22-1.8-.9-1.55-.83-5.41-2.79-5.85-3.04-.68-7.41,4.67-10.43,3.76-.69-.21-1.36-1.1-2.06-1.39-1.62-.67-2.93.3-3.2-2.09-.47-4.14,3.58-6.1,3.18-10.08-.23-2.25-.75-2.88-.44-5.43Z" fill="#ef4b29"/>
          <path d="M39.59,64.48c.68-.02.7.91.46,1.38,1.08.21,2.08.52,2.99.92-.66.83.52.96.92,1.38-1.84,1.69-2.54,3.99-3.82,5.96-1.05,1.62-3.57,4.56-5.05,5.77-.53.43-2.64,1.61-2.77,1.85-.4.77.91,2.2.36,2.99-.42.8-2.37,1.55-3.22,1.15-.1-.3-.05-4,.05-4.44.7-3.14,6.84-4.83,8.66-7.91s-.12-5.96-.42-9.06c.39.09,1.5.2,1.84,0Z" fill="#92674d"/>
          <path d="M28.08,39.16c-.28,3.84-.43,7.93,1.29,11.52l-.14.45c-.89-.93-2.01-3.73-2.25-5.23-.18-1.12.36-4.77-.63-5.12-.48-.17-.29.77-.77.88-.54,1.4-3.49,5.06-4.7,5.72-.25.14-.66,0-.81.11-.11.08-.09.8-.6,1.13-.47.3-1.59.4-2.18.7-.47.78.87,1.87.89,1.98.4,1.83-.34,2.56-1.2,3.93-1.4.91-4.49.14-5.12-1.33-.23-.54-.2-1.52-.59-2.16.31-.88,1.19-1.74.93-2.74-.04-.15-1.96-1.78-2.3-2.18-.3-.34-.61-1.12-1.01-1.59-.18-.21-.97-.99-1.3-1,.05-.37-.03-.77,0-1.15.83,1.37,5.35,5.66,5.49,6.39.16.83-2.1,2.18-.53,4.42,1.77,2.53,6.55.8,4.84-2.77l-1.28-1.48c4.02-2.12,7.92-5.27,9.82-9.51.6-1.33.84-2.35,1.22-3.73.31.28.43.81.36,1.59.35.46.53.85.56,1.17Z" fill="#e25521"/>
          <path d="M37.98,54.81c.7.03,1.51,1.24,1.87,1.92s.58,1.46.77,2.23c1.07-.12,2.51.7,2.65,1.83.3-.15.53.16.69.92.65-.06.86,1.57.46,1.84-.59.7-1.05.24-1.38-1.38-.24.54-.65.42-1.22-.35-.61-.02-.97-.22-1.08-.57-.64.91-.3,2.46.88,3.22.18.66.07,1.23-.65,1.39-.13.3-.44.3-.92,0-.55-.64-.3-.95-.46-1.38-.06-.16-.19-.31-.23-.46-.07-.26-.19-.53-.23-.69-.24-1.11-.15-2.09.28-2.91l-.51-1.92c0-.08,0-.15,0-.23-.17-.65-.3-1.16-1-1.33l.07-.28-.56-.15c-.22-.54-.49-1.03-.82-1.46.04-.27.19-.43.46-.46-.57-.27-.57-.5,0-.69-.51-.37-.39-.55.23-.46.62.17.92.78.69,1.38Z" fill="#cca431"/>
          <path d="M19.1,60.34c-.74,1.52-1.32,1.42-2.88,1.84-.3.08-.82.45-1.04,0,1.2-.66,2.63-1.67,3.91-1.84Z" fill="#9e5c4c"/>
          <path d="M39.13,2.33l-.23.46c-.64.5-1.51.75-2.61.76-.9.4-1.71.53-2.45.39,0-.02-.19-.15-.23-.23.03-.03-.13-.28.16-.46,1.36-.85,3.81-.87,5.36-.92Z" fill="#ad561c"/>
          <path d="M26.01,34.56c.28-.62,1.65.09.92.46-.41.47-.18,1.22-.33,1.86-1,4.27-4.51,8.4-8.12,10.76-1.24.81-3.35,2.27-4.8,1.44-2.1-2.21-4.34-4.36-5.98-6.9-.05-.15.02-.37.12-.48.64-.22,1.38-.18,1.99.14l4.01,4.43c1.18,1.59,4.44-.96,5.41-1.95,2.38-2.43,3.72-4.65,5.16-7.68.38-.34,1.45-1.63,1.61-2.07Z" fill="#f2c82f"/>
          <path d="M14.21,50.02c2.9-.64,4.55,4.43.85,4.54-2.84.08-3.41-3.97-.85-4.54Z" fill="#f1c92d"/>
          <path d="M28.08,35.94l.28.75c-.18.7-.18,1.61.68,1.75,1.61-.4,2.48.21,3.7,1.15,2.52-.19,4.64.49,6.95,1.41,1.03-.13,1.83-.8,2.13-1.77l1.22.16c.69-.12.39.41,0,.69.52.27.39.59-.23.46-.04.38-.7.78-1.15.92-.74,1.34-2.06,1.48-3.97.45-1.17.13-1.91-.11-2.76-.88-1.17.32-2,.15-2.48-.49-.02.58-.25.54-.46,0-.21.33-.35.14-.42-.21-.23.2-.98-.4-1.27-.65-.08-.07-.12-.18-.16-.29-.15.82-.86.7-1.38.23-.17.38-.32.31-.46-.23-.34.3-.46.17-.23-.23-1.19-.92-.96-1.28-.92-2.76.06-.21-.08-.53.23-.69.23-.62.67-.38.69.23Z" fill="#ab321c"/>
          <path d="M26.47,34.1c.29-.36.39-.18.46.23.55-.38,1.56.63,1.84,1.15.49.04.49.36,0,.46-.09.42-.28.38-.46,0-.08.2-.15.2-.23,0-.1-.02-.67-.2-.69-.23-.04-.07.11-.44-.06-.63-.11-.12-.37-.03-.4-.06-.09-.09.15-.73-.92-.46.04-.11-.03-.32,0-.46.14.03.34-.04.46,0Z" fill="#a28f67"/>
          <path d="M32.68,84.74s.3.58.69.46c.03.07.37.08.46.57.46,2.51-1.16,3.89-3.57,3.82-1.31-.04-1.05-2.54-.12-3.13.19-.55-.56-.21-.69-.57.72,0,2.65-1.33,3.22-1.15Z" fill="#705440"/>
          <path d="M49.95,25.12c.09,2.3-.84,4.34-.36,6.69.54,2.65,4.27,4.57,5.25,7.18.28.76-.06.33-.52.4-.91-.47-2.19-1.26-2.99-1.61l-.35-.17c-.3-.55-.8-.72-1.49-.52-.23.4-.57.21-.46-.23-.11.01-.22.01-.29-.04-.03-.02-.49-.41-.51-.45-.52-1.45-.26-7.88-.13-9.75l.47-.36c-.84-.48,0-1.34.92-.92.15-.08.31-.14.46-.23Z" fill="#9ab342"/>
          <path d="M50.87,38.24c.14.02.42-.04.46,0,.05.05-.04.34,0,.46.25.78.62.62.85.99.3.5.6,1.53,1,2.23.4.39.45.8,0,1.15-.55.3-.96-.18-1.23-1.42l-2.12-2.87.13-.55c.08-.57.7-.44.92,0Z" fill="#ac3327"/>
          <path d="M51.33,37.78c-.11-.05-.35.05-.46,0-.43.44-1.42-.1-1.38-.69l.46-.34-.46-.8c1.01-.07,1.57.99,1.84,1.84Z" fill="#8b953f"/>
          <path d="M49.03,36.86s.29.17.46.23c.32.12.88.48,1.38.69v.46c-.3-.04-.62.03-.92,0-.61.4-1.24-.29-1.38-.92-.42.35-.62-.16-.23-.46.06-.55.44-.35.69,0Z" fill="#963c14"/>
          <path d="M5.06,13.38c-.18,1.16,1.84,3.7,2.77,4.02.47.16,1.02.19,1.6.35.44.13.44.33,0,.46-.14.45-.34.45-.46,0l-.43.33c-1.24-.42-1.94,1.66-.26,1.29-.29-.33-.16-.46.23-.23-.06-.63.04-.69.46-.23.14.08.25.15.24.2-.14.66-1.58,3.2-2.1,3.43-.2.09-3.53-.76-3.97-.94l-.38-.39c0-.53.02-1.08,0-1.61-.33-.15-.34-.34,0-.46.82-.85.1-1.37,0-1.97-.08-.51.69-2.62.92-3.32-.61-.92.4-1.98,1.15-1.15.05.09.17.15.23.23Z" fill="#93674c"/>
          <path d="M11.97,10.85c.73,2.01-.19,3.34-2.3,2.76-.37-.35,1.88-3.07,2.3-2.76Z" fill="#7f5f49"/>
          <path d="M3.68,14.3c-1.12-1.08-1.11-2.35-.46-3.68.6-.13.36.13.48.33.43.7.71,1.49,1.13,2.2-.95.21-.88.32-1.15,1.15Z" fill="#775842"/>
          <path d="M13.12,14.76c.08,0,.15,0,.23,0,.2.07.2.14,0,.23l-.46.69c1.22.27,2.47.35,3.74.23l.17.23c.55.04.54.32,0,.46-.01.3-.16.3-.46,0-2.04-.21-4.41,1.09-4.14-1.84.29.04.62-.02.92,0Z" fill="#7f4334"/>
          <path d="M2.76,19.6c.02.15,0,.31,0,.46-.72.2-.45-.74-.46-1.38.5.15.42.51.46.92Z" fill="#3f2817"/>
          <path d="M11.28,19.37c.04.09,1.23,1.14,1.39,1.26.46.31,1.6.56,1.84.98.43.72.09,1.72.23,2.48.36,1.99,2.12,2.48,2.99,3.68,1.01,1.41.87,4.41,2.99,5.42-.07.02-.64.65-1.1.85-3.73,1.64-6.44,2-10.41,2.37-.36-.05-.13-1.06-.12-1,.03.31-.05.89-.34,1-.71.25-.69.26-1.61.46l-.46-2.88v-4.83c0-.56.53-2.43.92-2.88-.34-.69.72-1.41,1.38-1.15.95-1.14,1.41-2.31,1.36-3.52l.25-.85c-.47-.3.16-1.76.69-1.38Z" fill="#93674c"/>
          <path d="M7.13,25.81c-.12.65-.66.91-.82,1.59-.34,1.42.42,2.71-1.83,2.79-4.54.15-1.7-4.36-1.72-6.22.74-1.02,3.55.56,4.4,1.28l-.02.56Z" fill="#91674e"/>
          <path d="M10.13,17.75c.2.74.43.9.69.46.69.69.28.72.46,1.15-.51.3-.48,1.03-.69,1.38.05.84-.18,1.14-.69.92-.48.94-.79,1.87-.92,2.76.38-.09.38.14,0,.69-.45.44-1.13.87-1.38,1.15-.16-.14-.29-.33-.46-.46-1.12-.88-2.94-1.84-4.37-1.84,0-.78-.01-1.51,0-2.3,1.08-.42,3.48,1.11,4.21.89.86-.25,1.61-2.52,2-3.19.14-.39.3-.77.46-1.15,0-.15,0-.31,0-.46.19.05.52-.06.69,0Z" fill="#af2c23"/>
          <path d="M21.41,6.01c-.73-.13-.4.37-.46.8-.19,1.51-.51,1.55-1.38,2.65l-.54.08c-1.03-1.19-2.22-1.19-3.6,0l-.47-.31c-.95-1.07-1.24-2.08-1.38-3.45,1.03-.29,7.5-.49,7.83.23Z" fill="#e75225"/>
          <path d="M23.48,37.32c.15.12.26.22.24.3-.6,2.51-6.18,9.85-9.07,9.2-.79-.18-4.16-4.15-4.88-5.04-.03-.04.03-.17.13-.31,3.48-.3,10.46-2.37,13.58-4.14Z" fill="#94674c"/>
          <path d="M24.4,36.63c-.9,3.05-2.93,6.24-5.42,8.28-.81.67-3.37,2.55-4.31,2.27-1.67-.49-4.16-4.79-5.47-5.36-.48-.21-.9-.09-1.38-.12.46-.45,1.42-.17,2.07-.23.83.87,4.06,4.95,4.96,5.07s3.18-1.64,3.95-2.24c.39-.31,1.34-1.25,1.66-1.63,1.22-1.52,2.56-3.49,3.01-5.34.28-.16.68-.47.92-.69Z" fill="#d4a534"/>
          <path d="M57.77,61.72c.9,2.35,1.6,4.89,2.2,7.36.13.52.96,4.23.8,4.38-1.15.37-1.55-.7-2.16-1.06-1.78-1.05-3.64-1.58-5.63-2.1-.4-.11-.87.14-.73-.52.41-.49.94-.89,1.38-1.38,1.46-2.09,2.71-4.29,3.75-6.61l.39-.07Z" fill="#eb4a30"/>
          <path d="M53.63,68.16c.32-1.35,1.5-2.26,2.16-3.48.78-1.45,1.14-3.03,2-4.33.43-.27,1.19.99.91,1.36-.03-.04-.27.07-.33,0-.2-.19-.06-.43-.25-.47-.57-.12-.25.3-.34.46-1.53,2.68-1.96,4.24-4.14,6.68v-.23Z" fill="#833e2b"/>
          <path d="M9.21,36.4c-.15.01-.36-.04-.46,0-.26-.74.71-5.02,1.27-5.06.78-.06-.27,2-.32,2.21-.2.93-.19,1.93-.49,2.85Z" fill="#6e4933"/>
          <path d="M20.02,19.37s.86.42.92.46c.83.34,1.9.64,3.22.92.83.15,1.7.37,2.53.46.33.04.17.04.46,0,.49.09.99.14,1.51.15l.1.54c.42,0,.42.23.33.57-.13,1.13-1.38,7.34-1.77,7.9-.09.13-.24.21-.41.28-.4.11-.75-.17-1.03-.83-.66-2.11-1.64-3.93-2.91-5.48-2.13-1.16-3.14-2.25-4.26-4.33-.09-.16-.04-.29.15-.41-.4-.98-.02-1.06,1.15-.23Z" fill="#fcfcfb"/>
          <path d="M26.47,19.6c-.34.08-.38.63-.62.69-.62.17-4.87-1.05-5.63-1.41-.37-.18-1.5-1.78-1.57-2.16-.11-.58,1.55-.39,1.96-.34.9.1,1.45.55,2.1.67,1.23.23,2.53.28,3.78.25-.01.61.02,1.23,0,1.84,0,.15,0,.31,0,.46Z" fill="#f0c92f"/>
          <path d="M17.72,15.68v.46c-.08,0-.15,0-.23,0-.2.44-.47.44-.69,0-1-.02-3.4.33-3.91-.46,1.55-.36,3.28-.36,4.83,0Z" fill="#af482f"/>
          <path d="M18.18,17.06c.54.8,1.04,1.66,1.84,2.3-.42-.14-1.49-.36-1.15.23-.62-.04-1.41-1.51-1.15-2.07-.43-.78-.26-1.07.46-.46Z" fill="#efebd8"/>
          <path d="M24.17,20.75c-.89-.16-2.2-.24-3.07-.46-.26-.07-.13-.45-.15-.46,1.02.16,2.44.32,3.22.92Z" fill="#efebd8"/>
          <path d="M17.49,16.14c.21.33.47.6.69.92-.49-.06-.52-.03-.46.46-.43.23-.87-.52-.92-.92v-.46c.23,0,.46,0,.69,0Z" fill="#e7d3b4"/>
          <path d="M38.9,2.79c.63-.03,4.45-.17,4.6,0,.03.04.04.71-.05.87-.06.1-.57.24-.77.49-.28.35-.34,1.02-.7,1.14-.77.27-3.06-.07-4.11.03-.59.06-2.34.7-2.51.67-.93-.2,0-.83.32-1.13-.61,0-.93.35-1.55.06-.84-.39-.36-.58-.3-.99,1.65-.85,3.26-1.06,5.06-1.15Z" fill="#ef622f"/>
          <path d="M47.19,17.29c1.41-.07,3.84.65,4.9,1.6,1.58,1.41-1.16,5.23-2.6,6,.01.22-.85.64-.91.64-.28.03-3.75-3.31-3.93-3.87-.11-.54-.03-.85.23-.92.46-.52.46-.75,0-.69-.74-1.59.55-3.06,2.3-2.76Z" fill="#f0612e"/>
          <path d="M44.65,21.67c1,.48,2.97,3.03,3.69,3.35.32.14.86.03,1.14-.12v.46c-.72.39-.85-.23-.92.92-.15.78-.48.9-.92.23-.25.72-1.21.11-1.21-.53-.68-.63-2-1.63-2.84-1.88l-.1-.59c-.31-.24-.3-.7,0-.92.45-.05.76-.2.92-.46-1.17-.16.7-2.18.23-.46Z" fill="#b83311"/>
          <path d="M46.04,17.06c.08,0,.16,0,.23,0,.13.01.56.42.92.23-.11,0-.95.38-1.32.3-1.04,1.05-.93.99-.98,2.46.48.17.48.53,0,.69,0,.3.12.76-.23.92v-.46s-.23,0-.23,0c.04.28-.07.68,0,.92.06.36-.25.51-.92.46-.01.31.01.61,0,.92-.29.34-.4.19-.46-.23-.72-.31-.25-1.55.46-1.61.89-.56.88-1.88.48-2.8.02-.47,1.02-2.15,1.59-1.8,0-.58.29-.55.46,0Z" fill="#9a4040"/>
          <path d="M30.38,17.52c.46.05.44.28,0,.46-.3.3-.53.76-.69,1.38.42.43.14,1.27-.46,1.38-.18.5-.48,1.05-.92.46-.51-1.52.3-3.65.92-5.06.44-.08.64-.04,1.15-.23.71-.46.45.16.14.73l-.14.88Z" fill="#ee6237"/>
          <path d="M28.08,16.37c.37,1.22-.25,3.49-1.15,4.37.07-1.45.51-2.97.92-4.37.08,0,.16,0,.23,0Z" fill="#eb5a3d"/>
          <path d="M29.23,20.75c.48.19.4.7,0,.92.08.61,0,.62-.46.23l-1.61-.69s.12-.26.34-.24c.38.04.32.32.81.24.61-.1.37-.5.92-.46Z" fill="#af675e"/>
          <path d="M15.42,12.92c.72-.74,1.49-1.07,1.67.25.96-.88,1.63-.96,2.01-.25.32.52.49.71.92.92-.03.35-.32.21-.57.23-1.1.11-3.27.11-4.38,0-.26-.02-.54.12-.57-.23.7-.36.43-.24.92-.92Z" fill="#d67821"/>
          <path d="M20.48,14.76v.46c-.99.23-6.88.46-7.2.13-.05-.05,0-.19.07-.36v-.23c2.26.12,4.79-.06,7.14,0Z" fill="#c05311"/>
          <path d="M49.03,64.25c.19.02.33.09.32.25-.11,1.61-.18,3.17-.17,4.76-.43.04-.87-.02-1.3-.18-.47-.17-1.03-.24-1.61-.46l-.35-.25c-.13-1.04-.19-2.08-.19-3.14l-.38-.07c-.55-1.38-.94-2.88-1.18-4.5l.26-.1.29-.11c1.3,1.88,2.09,2.45,4.11,3.34.18.08.23.25.2.46Z" fill="#ec4a2e"/>
          <path d="M44.42,60.57c-.35.7.44.99.46,1.08.08.42-.08.91.01,1.33.15.67.74,1.26.45,2.2.53.11.52,1.03,0,1.15-.12.7-.65,1.5-1.38.92-.13-.09-.65-.45-.69-.46,1.37-.51,1.78-1.63,1.15-2.76-.46-.06-.44-.28,0-.46-.08-.78-.42-1.32-.46-1.84-.27-.45-.6-1.18,0-1.38.29-.38.59-.23.46.23Z" fill="#c76131"/>
          <path d="M49.95,62.64c.24,1.05-.38,1.94-.46,2.88-.09,1.03.04,2.18,0,3.23-.02.44.24.92-.46.8-.05-.03-.97-.39-1.15-.46,1.97.36.94-1.06.97-2.19,0-.37.1-2.54.18-2.65-.2-.33-.28-.63-.23-.92.26-.74.7-1.61,1.15-.69Z" fill="#d85237"/>
          <path d="M45.34,65.17s.18-.18.21-.37c.14-.83-.37-1.44.71-1.25-.2,1.75-.32,3.31,0,5.06-.21-.08-.42.01-.92-.23-.39-.93-.39-1.62,0-2.07-.03-.35-.03-.8,0-1.15Z" fill="#c72817"/>
          <path d="M45.34,66.32c.05.6.34,1.34.46,1.95l-.46.12c-.57-.28-1.04-.93-1.38-1.15.65.08.73-1.01,1.38-.92Z" fill="#ec4a2e"/>
          <path d="M44.42,64.02c.7-.13.45.36.46.8,0,.31.08,1.07-.03,1.24-.05.07-1.32.79-1.58.72-.07-.02-.16.02-.23,0-.91-.22-2.3-.1-2.99-.92.31.01.62-.02.92,0,.33-.59.56-.59.69,0l.42-.24c.88.48,2.04.61,1.85-.73l.49-.4c-.43-.07-.41-.25,0-.46Z" fill="#97843c"/>
          <path d="M14.96,9.24c.6-.15,1.89-1.15,2.42-1.14.6,0,1.81.85,2.19,1.38-.1.12-.14.32-.23.46-.09,0-.71.24-1.15.23-.15,0-.31,0-.46,0-.19.67-.67.63-.92,0-1.91-.04-1.18-.47-1.84-.69v-.23Z" fill="#e79f36"/>
          <path d="M18.18,11.54c.85.19.76,1.11.92,1.38-.85-.4-1.55.7-1.95.7-.69,0-.51-.86-.58-.93-.08-.08-.88.29-1.15.23.16-.22.65-1.28.92-1.38.14-.05,1.64-.05,1.84,0Z" fill="#edb53b"/>
          <path d="M33.38,14.76c-.15.15-.29.35-.46.46-.08.39-.19.59-.46.23l-1.12,2.85-.49.14c.07.52.14,1.64-.46,1.61.21,1.01-.02,1.55-.69,1.61-.16.41-.36.43-.46,0,.02-.3-.03-.62,0-.92.04-.36.19-1.18.46-1.38.13-.6.36-1.06.69-1.38,0-.15-.01-.31,0-.46.07-.78.28-1.96,1.15-2.07.06-.13-.04-.5,0-.69.32-.04,1.29.04,1.84,0Z" fill="#5d6b8f"/>
          <path d="M17.72,10.16c.34,1.75-1.06,1.51-.92,0,.21,0,.67,0,.92,0Z" fill="#dbcaad"/>
          <path d="M13.35,14.99s.06.23.56.24c2.18.05,4.4-.12,6.58,0,.48.02,1.34-.27,1.15.46-1.3.01-2.61-.01-3.91,0-1.61.02-3.23-.01-4.83,0-.3-.46-.15-.71.46-.69Z" fill="#e46231"/>
          <path d="M32.91,15.22c-.01.31.02.62,0,.92.18.09.33.21.42.4.08.16-.8,3.27-.88,3.43l-.46.31c0-.18.04-.45.16-.46,1.05-.06,8.32-.27,8.66,0l.27.46-.06-.51c1.21-1.28,2.34-2.57,3.4-3.86-.09-.35-.64-.12-.86-.3-.12-.09-.04-.38-.06-.39.45.09.92.18,1.38.23.45.21.38.31.46.69-.35,1.28-1.23,2.5-2.3,3.22-.6,1.31-1.29,1.79-2.74,2-1.05.15-8.42.13-8.98-.29-.46-.35-.91-.7-.25-1.02.18-1.62.64-3.15,1.38-4.6.16-.16.35-.16.46-.23Z" fill="#98393b"/>
          <path d="M31.53,15.45c-.03.07-.31.15-.38.3-.24.51-.4,1.25-.77,1.77.01-.19-.48-.82.23-1.49l-.23-.12c.23-.08.6-.64,1.15-.46Z" fill="#cb6654"/>
          <path d="M45.34,16.14c.29-.04,1.03.32,1.15.58l-.46.34c-.13,0-.41-.03-.46,0-.67.26-.75-.04-.23-.92Z" fill="#879ac7"/>
          <path d="M16.8,16.6c.3.09.74.65.92.92.39.58.74,1.4,1.15,2.07.45.74.75,1.74,1.38,2.42.91.98,2.76,1.76,3.65,2.8,1.36,1.59,1.38,4.32,3.03,5.83.2.06.19.14,0,.23.45.21.24.59-.23.46-1.98-1.85-1.92-5.07-3.9-6.8-.53-.46-1.26-.71-1.83-1.16-2.2-1.76-3.02-4.55-4.62-6.77.15.02.35-.03.46,0Z" fill="#5b4839"/>
          <path d="M10.82,18.21c-.05.83-.75,2.12-1.19,2.84-.18.29-1.47,2.34-1.8,1.99.63-1.83,2.1-3.28,2.3-5.29.3.1.47.24.69.46Z" fill="#dc4739"/>
          <path d="M26.93,30.87c.47-.62.85-.44.65.34-.45.89-.82,1.96-.24,2.89l-.41.22c-.19-.06-.35-.2-.46-.23-.05-1.05-.05-1.78.23-2.76.02-.07.16-.25.23-.46Z" fill="#4a5f6c"/>
          <path d="M10.82,82.66c1.66-1.61-.4-3.49-.24-5.18.13-.29.35-1.89.81-1.72.53.19-.16,1.73-.1,2.39.12,1.33,2.07,4.19-.47,4.51Z" fill="#6c4b34"/>
          <path d="M15.88,67.24c-.66.11-.38-.14-.49-.53-.18-.66-.25-1.31-.2-2,1.17.06.55,1.76.69,2.53Z" fill="#6f4a31"/>
          <path d="M32.91,16.14c.28-.86.51-.75,1.38-.69v2.3c1.52-.39,4.5.64,5.75.11.57-.24,2.49-2.62,3-2.18l-.23.92.92-.11-.23-.35.92-.23c.21.83-3.06,4.37-3.34,4.37h-9.09c-.07-1.45.82-2.7.92-4.14Z" fill="#f06032"/>
          <path d="M53.17,43.3c.36-.55,1.11.69,1.15,1-.12,1.44-.04,2.56.23,3.37,0,.38.02.77,0,1.15-.06,1.2-.05,1.21-.46,2.3-1.18-2.19-1.55-5.42-.92-7.83Z" fill="#ac3327"/>
          <path d="M53.17,41.92s.32-.06.39.06c.09.16.95,2.06.98,2.18.17.72.02,2.63,0,3.52-.7.13-.44-.35-.46-.8-.03-.83.04-1.67,0-2.5l-.91-1.08c-.21-.04-.2-.12,0-.23,0-.38,0-.77,0-1.15Z" fill="#803c31"/>
          <path d="M52.71,71.62c-.17.84.19,1.66.23,2.42.02.39-.24.56-.46.34s-.65-2.58-.46-2.76h.69Z" fill="#6e4c34"/>
          <path d="M49.95,38.24c.55.58,2.11,2.67,2.5,3.37.28.5.13,1.21.72,1.47,0,.08,0,.15,0,.23.13,2.64.43,5.24.92,7.83-.35.93-1.05,1.98-1.37,2.89-.64,1.86-.59,3.1-1.37,5.12-.29.74-.94,3.11-1.4,3.5-.13.11-.69-.3-.46.92-.23-.09-.44-.18-.69-.23-.5.59-1.58-.19-2.13-.6-1.02-1.05-1.92-2.16-2.71-3.31-.65-.39-.68-2.6,0-2.99l.1-.31c1.89-.13,3.77-.21,5.64-.24-.09-.96-.52-1.89-1.3-2.78-1.41-4.06-2.89-8.09-4.44-12.09-.63.07-.89-.46-.46-.92-.39-.05-.33-.83.1-.81,3.1,1.03,4.66.43,4.68-1.78l.29-.17c.44.21,1.05.58,1.38.92Z" fill="#ef4b29"/>
          <path d="M34.06,58.96c.03.52.13.49-.28.75-.64.4-4.01,1.8-4.66,1.8-3.29,0-2.71-4.96-5.81-5.49-3.85-.66-7.07,2.99-10.94,2.19-1.45-.3-3.69-2.82-4.43-4.08-.58-.99-.45-1.33.4-.4.9.98,1.61,2.16,2.71,3.04,4.15,3.32,9.68-4,14.04-.46,1.43,1.16,1.22,2.25,2.07,3.46,1.78,2.53,4.8-.31,6.91-.81Z" fill="#c72415"/>
          <path d="M28.08,39.16c.08.07.16.19.23.23.3,1.88.36,4.3.28,6.3,0,.13-.13.25-.28.37l.24.16c1.1,4.23,3.98,9.61,9.02,9.98l.41.45c.61.65.78-.24.92,1.61-.74-1.66-1.43-.96-2.82-1.21-3.66-.64-4.7-3.69-6.85-5.93-1.66-3.67-1.74-7.19-1.61-11.17.01-.44-.23-.92.46-.8Z" fill="#e8942d"/>
          <path d="M25.32,47.22c.08.08-.6,1.64-.66,2.22-.07.67-.05,1.37-.03,2.04.01.43.67,1.93-.11,1.96-.49-.83-.61-2.37-.58-3.33.01-.35.43-3.81,1.38-2.88Z" fill="#c82617"/>
          <path d="M28.08,64.25c-.53.47-2.04-1.61-2.26-1.99-.61-1.03-1.21-2.56-1.19-3.76,1.05.06.7,1.61,1.06,2.28l2.39,3.47Z" fill="#c92517"/>
          <path d="M8.28,55.51c.19.22-.98,3.67-.69,4.37-.19-.03-.64.04-.69,0-.1-.1.25-2.42.33-2.77.04-.18.61-2.12,1.04-1.6Z" fill="#c92718"/>
          <path d="M38.9,58.5c.41.46.93,1.36.94,1.97,0,.35-.42.29-.57.82-.19.68-.17,1.36-.15,2.05-.42-1.62-.15-3.16-.23-4.83Z" fill="#b67831"/>
          <path d="M38.67,59.65c.37.34-1.08,1.13-1.26,1.38-.22.3-.43,1.36-.69,1.37-.67.04.06-1.6.23-1.83.22-.29,1.44-1.18,1.72-.92Z" fill="#c82615"/>
          <path d="M11.51,58.96l.23,2.99c-.61.18-.66-.63-.69-1.03-.02-.24-.12-2.74.46-1.96Z" fill="#c82612"/>
          <path d="M32.41,61.08c.09.05,1.2,1.54.96,1.79-.54.56-2.53-2.74-.96-1.79Z" fill="#c92614"/>
          <path d="M33.84,78.76l-2.76,2.07c-.42-.43,1.95-2.75,2.76-2.07Z" fill="#775136"/>
          <path d="M41.66,41.46c.35.05.32.35,0,.46-.99,2.36-.95,4.8.29,6.99.72,2.39,1.14,4.82,1.1,7.29l.45.56c.16,1.14.27,3.15-.22,4.05-.61-.81-.74-.68-1.54-1-.08-.03-.08-.34-.24-.38-.34-.08-1.1.09-1.21-.02-.08-.08-.43-1.7-.69-2.19-.36-.68-1.18-1.53-1.62-2.4l.11-.46c-1.6-2.67-2.56-5.44-2.87-8.29-.71-1.78-1.7-3.53-2.96-5.24l.2-.29c1.22.34,1.97-.08,2.59.04.39.08.82.71,1.26.82.53.13,1.1-.05,1.55.07,1.47.38,2.09,1.31,3.81-.01Z" fill="#96b53f"/>
          <path d="M30.15,39.39c.72.42,1.02.96.92,1.61.18.09.36.2.51.32,1.01.82,2.73,4.91,2.93,6.36.02-.31.1-.23.24.23.23.08.38.23.46.46.76,1.33,1.54,3.03,2.24,4.54.09.2,0,.38-.16.53-.05.15-.21.33-.23.46-.34.52-.85.12-.92-.46l-.57.02c-1.13-2.51-2.29-4.92-3.81-7.24l.23-.61c-.63-.65-1.12-1.87-1.38-2.76-.73,0-1.11-.61-1.15-1.84-.25-.08-.48-.38-.69-.92-.33-.01-.33-.37,0-.46.54.05.99-.23,1.38-.23Z" fill="#aba86f"/>
          <path d="M28.31,46.07c.23-.71.5-.39.8.94l.12.22.37.02c1.35,3.21,3.1,6.93,6.92,7.46l.07.34c1.58.44.9,1.09,1.38,1.61-5,.34-9.34-6.19-9.67-10.59Z" fill="#e8c444"/>
          <path d="M28.77,40.08c1.11-.16.53.3.69.92l.46,1.62c-.41,4.28,1.91,9.5,5.99,11.2l.22.52c.2-.58.87-.31.92.23-.06.42.19.53-.46.46-2.1-.58-2.49-.49-4.15-2.18-1.82-1.85-2.04-3.71-3.21-5.64-1.02-2.02-.84-4.92-.46-7.14Z" fill="#4a7e7d"/>
          <path d="M40.74,61.26l.39.35c-.39,1.58,1.38,3.35,1.46.88l.45-.31c.87.17.21.2.53.85.03.07.64.64.85.53.02.15,0,.31,0,.46s.01.31,0,.46l-.21.55c-.11.09-2.35,1.01-2.55.83-.19-.04-.47.01-.69,0,.2-.35.32-.83.23-1.22-.02-.09-.91-1.18-.94-1.41-.08-.6.09-1.35.02-1.97.15-.01.31.01.46,0Z" fill="#b6ac36"/>
          <path d="M40.74,61.26c1.97-.12,1.29.72,2.3.92.23,3.45-3.07,1.96-2.3-.92Z" fill="#9fb23b"/>
          <path d="M35.22,46.07c.36.66.23,1.41.45,2.2.49,1.75,2.07,3.88,2.67,5.85.13.45.34.8-.35.7-.23-.45-.46-.93-.69-1.38-.52-1.04-1.98-4.13-2.07-5.06-.42-.5-.34-1.76,0-2.3Z" fill="#7f9747"/>
          <path d="M43.5,55.97c.39-.02.55.08.46.46.08.13-.01,2.49,0,2.99.44.51.44.82,0,.92.02.46-.04.93,0,1.38-.4-.16-.45-.61-.69-.92-.01-1.57-.31-3.01-.23-4.6-.16-.7-.08-1.16.23-1.38.6.13.67.75.23,1.15Z" fill="#a28034"/>
          <path d="M36.14,53.43s.78.46.92.46c-.03.22.03.47,0,.69-.28-.22-.61-.17-.92-.23-.63-.24-.66-.73,0-.92Z" fill="#93aa96"/>
          <path d="M28.31,35.94c.56.22.86.53.92.92,1.33.86,2.24,1.27,4.15,1.27,2.3-.38,7.63-.3,9.62.94.06.04.06.17.04.32-1.19-.25-.77.38-1.25.93-.57.66-1.79,1.43-2.66,1.02s-2.64-1-3.63-1.21c-.93-.19-1.99.1-2.89-.1-.76-.17-1.14-1.05-1.77-1.24-.89-.26-1.76.6-2.67-.31-.63-.63-.31-1.77-.1-2.54.07.02.16-.02.23,0Z" fill="#eb4d29"/>
          <path d="M29.69,36.86c.13-.32.31-.31.46,0,1.28.57,2.73.59,4.09.43l.4.26c.02-.17.04-.3.07-.3,1.01-.06,2.56-.04,3.38.3,1-.13,2.03.1,3.11.69.03-.46.49-.4.69,0,.98.26,4.65,1.01,5.34.48.03-.95.25-1.57.64-1.86.07-.61.29-.58.46,0-.02.17.22.39.23.46.2,1.68-.36,2.79-2.19,2.78-.89,0-1.66-.6-2.54-.5-.53.06-.28.44-.33.49-.09.62-.27.59-.46,0,.03-.09.03-.62,0-.69-.09-.21-3.9-.9-4.49-1.15-3.31-.34-6.19,1.17-9.17-.91-.22-.16-.14-.45-.16-.47-.02-.46.34-.42.46,0Z" fill="#e5952c"/>
          <path d="M32.45,40.54c.13.36.28.88.49,1.19.26.4,1.17.99,1.29,1.18.44.67.95,2.37.99,3.16s-.07,1.57,0,2.3c-.59.16-.4-.39-.46-.46-.34-.64-.48-1.41-.42-2.32-.84-1.35-1.68-2.71-2.52-4.09l.18-.49c-.32-.09-.37-.4,0-.46.1.04.33-.04.46,0Z" fill="#719962"/>
          <path d="M28.77,39.62v.46c0,2.44-.14,4.75.46,7.14-.01-.02-.4.11-.47-.15-.14-.53.35-1.16-.45-1-.16-2.16.12-4.5,0-6.68.13.07.36.22.46.23Z" fill="#cdc671"/>
          <path d="M43.5,40.08c.08.35.28.62.46.92.63,1.37,1.18,2.76,1.64,4.17l-.25.2c.12.35.12.65,0,.92-.15,0-.28-.02-.4-.09-.23-.13-1.86-4.27-2.04-4.83-.03-.1.04-.23.14-.38-.54.05-.62-.11-.23-.46.02-.01.22-.44.23-.46.13-.03.41.04.46,0Z" fill="#c9af68"/>
          <path d="M31.99,40.54v.46c-.3.95-.94-.24-.62-.59.04-.04.13.64-.3.59-.03-.05-.28-.38-.54-.85-.07-.13-.62-.15-.38-.76,1.06,0,1.31.91,1.84,1.15Z" fill="#979b9d"/>
          <path d="M42.81,40.54c.19.1.16.34.23.46-.05.31-.2.46-.46.46.03,1.38-.28,1.84-.92,1.38-.27-.11-.27-.41,0-.92.02-.15-.03-.33,0-.46.24-1.03.9-.77,1.15-.92Z" fill="#7a857e"/>
          <path d="M46.04,28.11c.31,3.03.27,6.17,0,9.21.46.43.39.51-.23.46-.9.39-2.51.34-3.6.24-.74-.07-1.78-.4-2.38-.7-3.22-.73-6.56-.96-10.03-.68l-.1-.24c-.17.44-.97-.04-.92-.46v-.46c0-.36.21-.2.46,0,.13-.15.31-.29.49-.23,1.06.35,2.08.51,3.2.46.35-.62,1.96-.56,2.71-.51,1.84.13,4.03.72,5.77,1.38l.27.51c.64.16,1.28.14,1.93-.08.16.43.59.53,1.29.31.27-2.64.33-5.29.18-7.96l.28-.33c-.45-.29-.45-.63,0-.92-.2-.71.73-.83.69,0Z" fill="#377688"/>
          <path d="M29.69,21.67l.24.79c-.69,3.06-1.33,6.11-1.9,9.16-.84,1.26-.39,2.36,1.37,3.31l-.16.56c-.13-.04-.35.04-.46,0-.83-.35-.76-.79-1.84-1.15.1-.72-.15-1.72,0-2.37.02-.07,1.27-.97,0-1.08.02-.07-.02-.16,0-.23.78-2.42,1.06-5.2,1.79-7.78.09-.33,0-.8.06-.97,0-.02.37-.21.46-.23.12-.04.32.02.46,0Z" fill="#3678a6"/>
          <path d="M28.77,35.94c.46.12.87.45.92.46.61.1.59.28,0,.46h-.46c-.22-.19-1.06-.35-.92-.92.14.03.33-.03.46,0Z" fill="#caa35d"/>
          <path d="M48.57,26.27c-.16,2.52-.3,7.4-.02,9.8.05.47.6.27.48.79-.17-.04-.48,0-.69,0h-.46l-.47-.42c-.43-1.77-.49-7.94-.06-9.26.08-.23.18-.46.3-.68.32.03.65-.07.92-.23Z" fill="#c3ad2c"/>
          <path d="M8.98,18.21c.36.16.32.92,0,1.15-.02.05-.36.13-.46.23-.41-.13-.51-.09-.23.23-1.64.87-1.73-1.39-.29-1.81.47-.14.65.11.98.2Z" fill="#734f39"/>
          <path d="M8.52,19.6c-.08.07-.16.19-.23.23-1.6.23-.1-1.92.23-.23Z" fill="#422510"/>
          <path d="M9.44,18.21c.03,1.58-.37,1-.46,1.15.09-.24-.06-.84,0-1.15.12.03.31-.02.46,0Z" fill="#9b4c3f"/>
          <path d="M13.12,26.04c.08.08.39,1.68.65,2.23.23.5,1.67,2.33,1.42,2.6-.42.07-.68-.29-.92-.57-.58-.7-1.9-3.29-1.84-4.14.01-.21.67-.14.69-.12Z" fill="#6d4a33"/>
          <path d="M8.98,25.12c-.04-.19.06-.56,0-.69l-.18-.26c.43-.81.8-1.64,1.1-2.5.25-.4.52-.62.69-.92.69,2.09-.27,3.06-1.61,4.37Z" fill="#734834"/>
          <path d="M17.26,29.72c-.32.36-1.42-1.32-1.15-1.61.34-.36,1.4,1.13,1.15,1.61Z" fill="#704a31"/>
          <path d="M5.75,26.96c.22.42-.86,1.95-1.15,1.61-.11-.88.1-1.71,1.15-1.61Z" fill="#694830"/>
          <path d="M2.76,28.57c-.07-.05-.72-1.48-.11-1.61,1.01.03.82,2.16.11,1.61Z" fill="#6e4b36"/>
          <path d="M2.76,22.36c.55-.54,5.9,1.23,5.52,2.64-.24.89-2.39-.69-2.95-.96-.43-.2-3.34-.93-2.57-1.68Z" fill="#e84a33"/>
          <path d="M8.98,24.43s-.35-.12-.43-.39c-.22-.79.92-1.68,1.35-2.37.36.81-.33,2.09-.92,2.76Z" fill="#a15b4a"/>
          <path d="M17.95,6.48c.51.67-.67,1.55-1.14.91-.37-.5.72-1.48,1.14-.91Z" fill="#f8a343"/>
          <path d="M55.47,67.47c-.26-.26-.01-.46.35-.47.45,0,3.55,1.09,3.56,1.28.01.38-.64.3-.93.24-.3-.06-2.87-.94-2.98-1.05Z" fill="#c82616"/>
          <path d="M57.54,68.63c.06.08-.05,1.23.06,1.67.09.37,1.09,1.32.86,1.55-1.26-.33-1.87-1.7-1.41-2.9.08-.22.16-.74.48-.32Z" fill="#c82518"/>
          <path d="M59.85,72.31c-1.36.19-1.06-2.11-1.15-2.99,1.11.13.58,2.15,1.15,2.99Z" fill="#cb291a"/>
          <path d="M55.47,68.17c-.3.64.08,2.08-.92,2.07-.03-.83-.2-2,.92-2.07Z" fill="#cc2916"/>
          <path d="M44.88,20.06c.72-.77,1.54-1.75,2.7-1.21.91.42.52,1.33.06.98-.2-.15-.03-.97-1.28-.48s-.25,1.57-1.49,1.4c0-.23,0-.46,0-.69Z" fill="#cf3c1c"/>
          <path d="M50.86,20.98s.47.56.47.59c.03.87-.78,1.48-1.61,1.47-.07-.07.55-1.52.67-1.75.11-.22.03-.62.48-.32Z" fill="#d84521"/>
          <path d="M43.5,23.51c1.14.56,3.43,2.92,4.14,2.99.05,2.49-.06,5,0,7.49.02.92.24,1.82.24,2.87,0,1.92.21,2.64-2.12,2.48-.97-.06-3.14-.47-3.87-1.1l.1-.24c1.34.16,2.61.09,3.81-.22.06-.14.22-.44.23-.46.28-3.02.32-6.19,0-9.21-.26-.27-.5-.02-.69,0-.14.63-.41.57-.69,0-1.58,0-.03-1.42,1.03-1.53l.24-.33c-.8-.33-1.54-.68-2.02-1.46-.56.37-1.01.4-1.33.1-.31-.47-.16-.93.46-1.38-.2-.06-.2-.13,0-.23.15.07.31.15.46.23Z" fill="#e8c73a"/>
          <path d="M44.42,22.13c.24.92,3.5,2.38,3.68,3.68-.45.41-3.98-2.84-4.6-3.22,0-.15-.01-.31,0-.46h.92Z" fill="#ef5f3f"/>
          <path d="M45.58,17.06c-.09.05-.99,1.18-1.05,1.37-.31.99.35,2.91-1.02,3.24-.44-.04-.31-.22,0-.46.42-.22.44-1.21-.46-1.84.3-.45,2.11-3.2,2.3-3.22.06.27-.15.76.23.92Z" fill="#a188a4"/>
          <path d="M31.07,20.06c.05.83.05.83,1.03.92,1.22.11,8.84.13,9.45-.22.45-.26.89-1.17,1.48-1.39l.92-.46c-.09.42.12,2.14,0,2.3-.04.05-.34-.05-.46,0-.01.15.03.32,0,.46-.08.4-.34.81-.46,1.61-.01.07.01.16,0,.23-.26.72-.57.87-.92.46-.86-1.08-.08-3.47,1.38-2.76-.36-.07-.49-.23-.41-.56-1.14,1.48-2.81,2.02-5.02,1.62-.21-.55-.57-.54-.83-.02-.34.13-3.35.05-3.41-.58-.04.21-.12.2-.23,0-.99,1.2-3.98-.03-3.22-1.61.18-.5.27-1.14.46-1.61.59-.28.66.26.23,1.61Z" fill="#7ea8d2"/>
          <path d="M30.38,17.98c-.04.99-.26,1.06-.69,1.38.07-.85-.38-1.6.69-1.38Z" fill="#ad6f61"/>
          <path d="M48.8,63.33c1.4,1.07.31.82.23.92-.87-.33-1.66-.58-2.41-1.16-.92-.71-1.35-1.88-2.19-2.52-.12-.1-.32-.14-.46-.23-.02-.31,0-.61,0-.92,2.06,1.53,2.05,3.34,4.83,3.91Z" fill="#c42516"/>
          <path d="M48.8,65.17c0,.73-.16,1.45-.24,2.18-.04.36.26.92-.33.81-.93-.33,0-3.66.57-2.99Z" fill="#cc291a"/>
          <path d="M44.42,64.48c-.1,1.51,0,2.12-1.95,1.83-.52-.08-.77-.44-.82-.45l1-.84,1.76-.54Z" fill="#9cb042"/>
          <path d="M30.38,20.06c-.12.67.18.66.54.97,1.05.89,1.36.61,2.68.64.08.02.15.05.17.1.18.46-3.56,8-4.31,8.88.21.35-.07.66-.46.69l.1.21c-1.25.96-1.45,1.68.37,1.4.93.19,1.98.66,2.75,1.15.1.39.18.85.23,1.38.43-.42.49-.36.46.23-.83.54-2.13.35-3.06.17-.26-.05-.46-.34-.63-.4-.36-.71-2.02-1.39-2.06-2.18-.02-.42.72-2.75.84-3.53.48-2.96.76-5.2,1.68-8.1.2-.63.51-1.1.69-1.61Z" fill="#64afdf"/>
          <path d="M31.07,20.06c-.03-.51.19-1.29-.23-1.61.5-1.23.64-2.08,1.61-2.99-.1,1.55-.81,3.16-1.38,4.6Z" fill="#8a93c2"/>
          <path d="M33.6,17.76c.32.43-.72,1.51,1.15,1.15v.69s-1.84,0-1.84,0c-.16-.16.21-2.47.69-1.84Z" fill="#cb3516"/>
          <path d="M43.96,41c2.33,3.78,2.82,7.4,4.42,11.34.37.91,1.1,1.76,1.38,2.53.17.45.5,1.22-.16,1.32-1.73.26-3.95-.39-5.65.23-.03-.04-.17.25-.46-.46.49-.62,1.29-.85,2.43-.71l3.01.03c-.61-.69-.88-1.38-.83-2.08-1.54-2.14-2.21-5.18-2.76-7.83-.21-.56-.34-1.42-.51-1.9-.3-.83-.98-1.52-.87-2.47Z" fill="#e18c31"/>
          <path d="M41.66,42.84c.44.07.41.25,0,.46-.7,1.72,0,3.79.46,5.06.72-.35,1.14,1.56.46,1.84.22.34.37.8.46,1.38.65.24.64.91,0,1.15l.26.92c.73.28.79.51.2.69.31.33.23.48-.23.46-.3.63-.2.73-.23,1.38l-.94-6.09c-1.23-2.52-2.24-5.69-.45-8.19-.04.29.01.62,0,.92Z" fill="#729a59"/>
          <path d="M37.06,44.69c-.66.95,1.8,4.66,1.61,4.83-.2.19-.54.05-.75-.29-.51-.81-2.48-4.35-.86-4.54Z" fill="#7c9b34"/>
          <path d="M42.12,57.81c-.28.36-.42,0-.46-.34-.17-1.41-.13-2.87-.46-4.26.51-.08.55.21.68.59.41,1.2.18,2.75.24,4.01Z" fill="#7a9a35"/>
          <path d="M29.46,41c.16.6.77,1.34,1.15,1.84.27,1.05.73,1.97,1.38,2.76.74,1.71,1.57,2.59,2.28,3.87.6,1.08,1,2.96,1.86,3.96v.92c-3.47-.65-6.4-6.09-6.67-9.33-.11-1.3.07-2.71,0-4.02Z" fill="#67b1e1"/>
          <path d="M31.07,41c.02-.3.12-.64.46-.69-.2.84.43.65.46.69.79,1,1.91,2.92,2.38,4.07.03.08.34.08.38.24.17.7-.1,1.83,0,2.6-.02-.02-.31.07-.4-.05-.13-.18,0-.54-.08-.68-1.19-2.11-2.17-4.18-3.2-6.18Z" fill="#77afbc"/>
          <path d="M30.61,42.84c.89,1.17.81,1.44,1.38,2.76-.82-.01-.77-.81-.94-1.19s-.77-.56-.44-1.57Z" fill="#86acad"/>
          <path d="M48.11,53.2c.17.36,1.73,2.19,1.38,2.53-1.99.07-4.03-.2-5.98.23-.16-.39-.3-.71-.23-1.15.06-.12-.04-.39.23-.46-.06-.22,0-.39.21-.38l3.47.17c.23-.22.46-.38.69-.48-.12-.4-.04-.56.23-.46Z" fill="#e0b43e"/>
          <path d="M30.15,36.86c3.14-.32,6.61-.57,9.67.46.42.07.61.15.23.26.64,0,2.09.13,1.15.66-.92-.08-2.39-.69-3.11-.69h-3.45c-.09,0-.38.23-.68.24-1.28.04-2.96.25-3.81-.93Z" fill="#efc639"/>
          <path d="M39.82,37.32c-3.27-.35-6.13-.46-9.67-.46h-.46v-.46c2.4.4,8.3-1,10.13.92Z" fill="#bbbe6c"/>
          <path d="M45.81,37.78c-.04.1.07.4,0,.45-.16.12-3.37.04-3.91,0-.23-.01-.46.02-.69,0,.18-.83-.67-.31-1.25-.45-.27-.06-.09-.42-.13-.47.98.1,1.62.37,2.41.47,1.11.13,2.44-.11,3.58,0Z" fill="#beba6a"/>
          <path d="M43.04,41c1.05,1.78,1.3,3.55,2.3,5.29.84,2.47,1.68,4.93,2.53,7.37-.07.14.03.35-.23.57-.63.52-3.18-.14-4.14.12v-.31c-.7-.27-.42-.69-.46-1.31.37-.13.64.04.81.49l2.74.11c-1.46-3.06-2.61-6.32-3.47-9.79-.49-.73-.67-1.42-.55-2.09.07-.08-.13-.62.46-.46Z" fill="#578783"/>
          <path d="M48.11,53.2c0,.2-.16.32-.23.46-1.15-2.16-2.29-4.91-2.53-7.37-.03-.3.02-.62,0-.92.88,2.4,1.75,5.65,2.76,7.83Z" fill="#d9bd59"/>
          <path d="M42.58,41.46c1.78,2.85,2.23,6.55,3.34,9.66.28.78,1.06,1.76,1.26,2.43.1.35-.01.38-.33.33-.8-.11-2.86-.12-3.21-.25s-.35-.65-.6-.89c-.02-.38.01-.77,0-1.15-.11-.62-.27-1.08-.46-1.38-.08-.36-.29-1.62-.46-1.84-.53-1.53-1.14-3.38-.46-5.06,0-.15,0-.31,0-.46.68-.13.31-1.07.52-1.34.09-.11.38-.02.41-.04Z" fill="#65b1df"/>
          <path d="M42.35,31.34c.16.06.28.14.3.23.14.77.88,5.46.62,5.71-.06.06-1.39-.12-1.61-.18-1.4-.18-3.24-1.07-4.78-1.32s-2.56.03-3.97-.06c-.22-.01-.35-.2-.46-.23-.45-.46.07-1.65.69-1.84-.35-.34.11-.74.46-.46.53-.17,1.07-.32,1.61-.46.19-.38,1-.37,1.15,0,.3.5.51.39.6-.34l.32-.12.22-.25c1.58.3,2.96.08,4.15-.67.08-.2.15-.2.23,0,.17-.56.29-.56.46,0Z" fill="#65b1e1"/>
          <path d="M45.34,29.03c0,1.33.65,7.63,0,8.18-.13.11-.35.06-.46.11-.26.06-1.33.18-1.41-.02-.21-.54-.92-5.48-.84-5.95.03-.16.1-.32.19-.47-.36-.29-.17-.36.23-.46.75-.35,1.23-.96,1.72-1.6l.58.22Z" fill="#64b1e2"/>
          <path d="M42.81,30.87c.48,2.07.62,4.2.92,6.31.04.3.88.07,1.15.14-1.09.45-1.9-.11-3.07-.04l-.15-.19c.43.06.94-.04,1.38,0,.06-1.96-.8-3.81-.69-5.76-.27-.39,0-.69.46-.46Z" fill="#2d7eb7"/>
          <path d="M46.04,37.32v-9.21c.23.24.2.22.24.55.21,1.78.17,6.05,0,7.87-.05.49-.19.57-.25.78Z" fill="#82acab"/>
          <path d="M45.34,28.11c0,.31,0,.61,0,.92-1.23.51-.82,1.28-2.3,1.38-.13-.61.33-1.23,1.38-1.84-.42-.42-.37-.52.23-.46.23-.02.47.03.69,0Z" fill="#82acab"/>
          <path d="M42.58,24.89c2-1.09,1.37-.33,2.48.45.55.39,1.92.45,1,1.53-.24.29-1.37.39-1.6.83-.11.23.2.38.19.41-.07.28-.2.38-.23.46-.72.7-1.49,1.32-2.3,1.84-.21.42-1.3,1.01-1.76,1.11l-3.6.03c-.39.22-2.07.92-2.41.77-.79-.33-1.36-2.07-.51-2.38-.15-.62.51-.85.92-.46.89-.49,1.97-.8,3.22-.92-.02-.17.02-.33.16-.45.29-.26,2.3-1.83,2.59-2,.13-.08.33.04.48.15l.2-.54c.26-.47,1.08-1.79,1.18-.84Z" fill="#f0ca2e"/>
          <path d="M43.04,23.51c-.11.68-.02.74-.46,1.38-.01.02-.31-.08-.41.05-.43.59.3.47-.98,1.33-.52-.26-.41-.55,0-.92.14-.5.37-.96.69-1.38.07-.2.14-.2.23,0l.92-.46Z" fill="#a7a364"/>
          <path d="M33.84,21.67c1.86.04,6.09.31,7.66,0,.18-.04,1.14-1.47,1.67-1.6s.37.8.34,1.15c-1.2.45-1.61,1.42-1.38,2.76h-.23c-.38-.21-.52.18-.44,1.2l-.26.18c.05.69-3.38,3.3-3.64,2.95l-.04-.65c-.2-1.29-.32-1.18-.37.33l-.32.13c-.05.1-.1.19-.17.22-.27.1-1.69.53-1.79.5-.06-.02-.09-.12-.12-.25l-.34-.26c-.06.46-.25.7-.58.72-.32.54-.98.83-1.97.86-.51.32-1.74.95-1.48.06l-.06-.54c1.28-2.57,2.45-5.15,3.51-7.75Z" fill="#65b1e2"/>
          <path d="M30.38,29.95c.35.39.29.53-.23.46-.11.38-.49.65-.69.23l4.14-8.98c.08,0,.15,0,.23,0,.33.4.13.62-.02,1-.98,2.41-2.39,4.85-3.43,7.29Z" fill="#2779b5"/>
          <path d="M29.69,31.34c.12.42-.03.66-.33.9.92.45,3.08,1.12,3.7-.03l.54.05c.07-.85,1.44.2.46.46.1.21-.05.37-.46.46-.11.11-.41.38-.46.46-.27.35-.58.5-.92.46-1.03.37-1.73-.84-2.43-.92-.51-.06-1.09.38-1.48.13-1.25-.79.4-1.57.69-1.97.21-.39.59-.51.69,0Z" fill="#82888b"/>
          <path d="M33.15,33.64c-.24.4-.49,1.36-.69,1.84-.18-.05-.48.04-.69,0-.05-.05.37-1.22.46-1.38.23-.41.42-.56.92-.46Z" fill="#327cb1"/>
          <path d="M30.15,30.41c.51.05.39.19,0,.46.22.57.13.69-.46.46h-.69c.11-.15.05-.6.46-.69l.69-.23Z" fill="#547992"/>
          <path d="M41.66,43.3c-.03.96-.13,2.47-.02,3.35.04.28.88.8.48,1.71-.02-.02-.39.1-.46-.16-.08-.29.05-.7-.05-1.06-.32-1.19-.93-2.75.05-3.85Z" fill="#6ea7a3"/>
          <path d="M42.58,50.21c.72-.2.44.74.46,1.38-.57-.32-.36-.93-.46-1.38Z" fill="#6da59d"/>
          <path d="M33.84,29.95c-.29,3.28,1.41,1.65,2.89,1.39,1.04-.18,2.29.13,3.39-.07,1.01-.19.74-.79,2.01-.87.5.28.25.79-.23.92-.07.01-.16-.01-.23,0l-1.27.69c-1.34-.07-2.6,0-3.79.23-.49.12-.95.28-1.38.46-.06.39-.98.33-1.15,0,.16-.67-.36-.38-.46-.46-.2.12-.39.13-.57,0l-.58-2.08c-.01-.65,1.1-.78,1.38-.23Z" fill="#c6ad50"/>
          <path d="M41.66,31.34c-.67,1.42-2.95.9-4.37.92-.26.59-.43.59-.69,0,.43.37.33.53-.23.46h-1.15c.11-.79.46-.43,1.38-.46.04-.1-.05-.31,0-.45.21-.16,3.16.09,3.81,0,.23-.03.37-.33,1.25-.48Z" fill="#8aaa9b"/>
          <path d="M37.29,32.26l-.23,2.53c-.92.08-.76-1.42-.69-2.07,0-.03.17-.32.23-.46.23,0,.46,0,.69,0Z" fill="#3382b7"/>
          <path d="M43.04,30.41c-.04.05-.08.26-.23.46-.08.11-.38.43-.46.46-.11.04-.32-.03-.46,0,.09-.3.14-.62.23-.92.4-.42.74-.68.92,0Z" fill="#688c82"/>
          <path d="M35.22,32.72c-.02.14.04.43,0,.46-.14.1-1.27-.07-1.61,0,.13-.13.15-.39.46-.46.26-.06.82,0,1.15,0Z" fill="#86a7a7"/>
          <path d="M44.42,28.57c-.17.49-1,1.33-1.38,1.84-.3.02-.62-.02-.92,0,.24-.79,1.43-1.65,2.3-1.84Z" fill="#bead55"/>
          <path d="M41.2,25.35c0,.31,0,.61,0,.92-1.27.86-1.6,1.57-3.22,2.3-1.03.18-2.06.4-3.08.66l-.15-.2c-.08.2-.15.2-.23,0-.44-.3-.28-.59.23-.46.75.32.94-.41,1.09-.45.3-.08.67.02.98,0,.22-.26.45-.41.69-.46.47.94.42.09.51.06,1.69-.65,1.86-1.74,3.17-2.36Z" fill="#89a99c"/>
          <path d="M34.53,29.03c.08,0,.15,0,.23,0,.63.09.57.23,0,.46-.35.09-.72.41-.92.46-.37.1-.79.06-1.38.23-.12.75-1.71,1.09-2.3.69.01-.15-.02-.31,0-.46.04-.28.18-.33.23-.46l.23.17c.59.02,1.02-.61,1.08-.62.98-.23,1.06-.08,2.14-.47.26-.64.46-.63.69,0Z" fill="#859296"/>
          <path d="M37.98,28.57c-1.48.67-1.91.57-3.22.92v-.46c1.26-.1,1.25-.39,1.54-.46.49-.12,1.16.06,1.68,0Z" fill="#c6ad50"/>
          <path d="M41.89,23.97c.03.34-.04.97-.21,1.25-.16.26-.37.08-.48.13-.02-.95-.32-1.81-.23-2.76.56-.19.89,1.08.92,1.38Z" fill="#327daf"/>
          <path d="M37.52,27.65c-.02.14.04.43,0,.46-.05.05-.51-.01-.69,0,.09-.78.19-6.2.81-6.21.44,0,.25.7.24.92-.09,1.6-.15,3.24-.35,4.83Z" fill="#277cb6"/>
          <path d="M33.84,29.03l1.27-5.06c.57-.13.36.73.34,1.03-.09,1.04-.47,2.49-.69,3.57-.02.09-.24.28-.23.46-.21.02-.55-.05-.69,0Z" fill="#2e7fb5"/>
          <path d="M33.61,32.26c-1.74,2.42-3.06.03-5.29.46.31-.46.94-1.04,1.38-1.38.11-.09.15-.28.46-.46.54-.31,1.64-.5,2.3-.69,1.08-.05.56,1.64,1.15,2.07Z" fill="#e0b28e"/>
        </g>
      </g>
    </g>
  </g>
</svg>