<?xml version="1.0" encoding="UTF-8"?>
<svg id="Layer_2" data-name="Layer 2" xmlns="http://www.w3.org/2000/svg" viewBox="0 0 64.02 96">
  <g id="Cards">
    <g id="Cups">
      <g id="FiveOfCups">
        <path d="M0,5.74l1.5-.16c.04.34.17.61.38.81.21.2.45.3.73.3.31,0,.58-.13.8-.38s.33-.64.33-1.16c0-.48-.11-.85-.33-1.09-.22-.24-.5-.36-.85-.36-.43,0-.82.19-1.17.58l-1.22-.18L.96,0h3.99v1.41h-2.85l-.24,1.34c.34-.17.68-.25,1.03-.25.67,0,1.24.24,1.7.73.47.49.7,1.12.7,1.9,0,.65-.19,1.23-.56,1.73-.51.7-1.22,1.04-2.13,1.04-.73,0-1.32-.2-1.78-.59s-.73-.92-.82-1.57Z" fill="#e03e3e"/>
        <path d="M64.02,90.26l-1.5.16c-.04-.34-.17-.61-.38-.81-.21-.2-.45-.3-.73-.3-.31,0-.58.13-.8.38s-.33.64-.33,1.16c0,.48.11.85.33,1.09.22.24.5.36.85.36.43,0,.82-.19,1.17-.58l1.22.18-.77,4.1h-3.99v-1.41h2.85l.24-1.34c-.34.17-.68.25-1.03.25-.67,0-1.24-.24-1.7-.73-.47-.49-.7-1.12-.7-1.9,0-.65.19-1.23.56-1.73.51-.7,1.22-1.04,2.13-1.04.73,0,1.32.2,1.78.59s.73.92.82,1.57Z" fill="#e03e3e"/>
        <g>
          <path d="M15.48,3.19c.07-.05.16-.3.33-.41.64-.41,1.98-.43,2.52.16.21.23.3.73.5.84.22.13,1.23.19,1.68.33,1.92.61,3.48,1.94,4.66,3.54.4.54,1.16,2.12,1.46,2.39.64.58,1.47.14,1.59,1.6.21,2.58-1.67,1.39-3.19,1.76-.4,0-.41-.02-.17-.33-.47-.14-.46-.36,0-.5l.23-.3c1.95.6,2.61.27,1.98-.98-1.73-.39-3.48-.69-5.27-.89-.3-.03-.45-.17-.46-.5l.05-.21,2.56.13c.25-.06.12-1.12-.44-1.6-.31.34-.38.28-.34-.17-.49-.08-.45-.38,0-.5.46-.41.99.32,1.26.72.42,1.63,1.82,2.16.34.24-1.3-1.68-3.14-3.21-5.22-3.77-1.11-.3-1,.63.35.17.59.09,2.26.94,1.93,1.63.01.5.12.87.31,1.13-.34.52-.56.31-.65-.63-.3.06-.57-.14-.8-.6-.55-.06-.73-.25-.54-.57-1-.23-3.05-.62-4.53-.46l-.16-.21c-1.77-1.3-4.74,1.38-5.87,2.81-.54.69-1.36,2.26-.26.75l.44-.05.22.07c-.22.94.16,1.02,1.01.88l.1.22.02.23c-1.39.33-2.83.63-4.32.9-.46,1.19.34,1.5,2.38.91l.24.31c.45.25.17.47-.84.67.37.07.37.59,0,.67-.36-1.07-.87-.38-1.77-.49-1.32-.16-1.48-2.35-.4-2.93.29-.16.69-.1.95-.31.24-.19,1.25-2.14,1.73-2.71,1.07-1.29,2.5-2.24,4.02-2.93,1.02-.08,1.8-.42,2.35-1Z" fill="#cf942d"/>
          <path d="M12.97,26.13c.39-.46,1.99-.84,2.47-.42.61,2.07,1.33,2.31,2.41.23.59-.61,2.16-.16,2.82.19.47-.04.49.22.17.5,0,.35-.17.27-.34,0l-.2.34c-1.12-.29-1.93.04-2.43.99,1.14.06,2.29.08,3.44.04l.36.3c0-.43.22-.48.5-.17.16,0,1.14.23,1.27.32.56.39.14,1.23.74,1.52-.1.26-.23.26-.34,0-.64.22-1.3.23-1.97.24-3.32,0-6.64,0-9.95,0-.67,0-1.33-.02-1.97-.23-.38.14-.89.29-1.17,0,1.19-.17.4-.77.71-1.3.11-.19,1.38-.53,1.64-.54.26-.36.38-.25.34.17,1.16-.35,2.4-.47,3.72-.36-.28-.98-1-1.3-2.18-.96l-.21-.35c-.14-.05-.14-.1,0-.17-.54-.18-.31-.62.17-.33Z" fill="#dd8725"/>
          <path d="M8.78,29.98c.39-.02.78,0,1.17,0,.09.2.06.32-.13.34l-1.88.17c.33.27.19,1.1.08,1.51l.12-.33h17.27l.2.33c-.22-.67-.19-1.17.08-1.51-.66-.07-1.37-.11-2.13-.11-.18-.15.06-.34.29-.39.11,0,.22,0,.34,0,.55.01,1.84-.19,2.09.33.21.44.28,2.14-.51,2.17l-18.17-.08c-.76-.34-.74-2.13.12-2.39.33-.1.71-.02,1.05-.04Z" fill="#cf9433"/>
          <path d="M17.66,20.27c.28-.14.43-.18.34.17.41-.25.55.04.17.33.36.08.3.17,0,.33.46.14.19.55.09.29-.05-.13.1-.13.25.04.54.2,1.36-.29,1.83-.67h.35c.24-.24.39-.17.34.17.23-.24.33-.13.17.17-.13.44-.97,1.02-1.47,1.22-1.49.1-1.35.66-.06,1.14l.19.48c.48,1.56,1.79,1.36,2,1.68.24.35-.53.91-.83,1-.05.15-.11.15-.17,0-.12-.15-.12-.33-.17-.5-.91-.41-1.48-.91-1.77-1.9-.12-.18-.64-.28-.62-.26,1.44,1.44-.78,1.61-1.39.33l-.4.12c-.73.62-2.13,1.35-1.79-.19.87-.65.43-.59-.17-.13-.41.86-.88,1.48-1.58,2.03-.23.02-.13.24-.17.33-.18.34-.36.41-.5,0-.2-.06-.71-.52-.66-.74.42-.54,1.03-.47,1.51-1.01.38-.43.51-.9,1-1.43.17-.24.87-.6,1.01-.33.14-.24.36-.13.67.33.08-.13.2-.25.34-.22,1.38.22,1.65-.11,1.41-1.55-.3-.34-.38-.64-.24-.9-.37-.11-.42-.22-.17-.33.14-.47.38-.48.5,0Z" fill="#cf9433"/>
          <path d="M9.11,12.9c.54.07.43,1.18.08,1.44l.08.56c.39.2.7,1.01.34,1.34l.44.21c.45.92.96,1.81,1.53,2.67l-.12.47c.31.06.19.58-.17.33-1.66-2.05-2.82-3.48-2.68-6.36,0-.2-.04-.52,0-.67.18-.16.4-.23.5,0Z" fill="#a42f28"/>
          <path d="M24.36,17.09c-.42,1.32-1.56,2.84-2.51,3.85-.29.24-.52.3-.67.17-.06-.04-.11-.13-.17-.17-.25-.18-.14-.44.17-.33l.19-.58c.94-.93,1.7-2.01,2.28-3.23l.38-.04c.25-.33.36-.21.34.33Z" fill="#ae2c28"/>
          <path d="M11.79,19.6c.05.68.32,1.13.84,1.34l.13-.19c.71.38,1.45.61,2.21.69-.49-.43.21-1.16.5-.5.19.08.19.25,0,.5.44.19.56,1.46.34,1.84-.11-.05-.65-.3-.67-.33-.22.05-.29-.09-.21-.43-.65-.4-1.36-.7-2.14-.91-1.03-.66-.86-.87-1.51-1.67.21-.02.14-.31.17-.33.06-.15.11-.15.17,0,.04-.15.1-.15.17,0Z" fill="#ca943e"/>
          <path d="M24.86,13.07s.17.15.17.33c-.02.79-.42,2.89-.67,3.68l-.34-.33c-.28,0-.28-.1,0-.33-.49-.26-.31-1.4.17-1.67-.49-.32-.24-1.58.34-1.67,0-.36.23-.35.34,0Z" fill="#a1351f"/>
          <path d="M21.84,20.94c-.3.32-1.89,1.61-2.13,1.67-.27.07-.6-.02-.89,0-.4.31.91.6.98.7.11.16-.02.48.03.64-.2-.42-1.75-.92-1.67-1.25.09-.4,1.33-.53,1.79-.73s.86-.68,1.23-.87c.17-.09.47-.09.67-.17Z" fill="#f9f3db"/>
          <path d="M12.8,26.46s.02.12,0,.17c.39.65-.7,1.52-1.34,1.67-.14,0-.31-.17-.34-.17l1.17-1.67c.13.04.35-.03.5,0Z" fill="#a63c29"/>
          <path d="M20.84,26.63c.06,0,.12.01.17,0l1.17,1.51s-.22.17-.5.17c-.58-.24-1.69-1.09-1.17-1.67.11,0,.23.02.34,0Z" fill="#a73c24"/>
          <path d="M15.14,22.95l-1.01.33s-.05-.2.04-.29c.14-.12.71-.07.63-.46-.02-.11-1.57-.64-2.01-.92.5.09,2.05.49,2.26.85.1.17.06.45.09.49Z" fill="#efdbad"/>
          <path d="M15.48,3.19c-.02,1.09-1.54.79-2.35,1,.85-.39,1.53-.45,2.35-1Z" fill="#f3e6c3"/>
          <path d="M17.66,9.55l3.09.16.09.17c.31-.29.48-.29.5,0,1.08.52,5.25.57,5.96,1.16.33.27.37,1.58.08,1.78-.21.15-2.08-.19-2.52-.26-.19.19-.4.19-.64.15-4.27-.67-8.27-1.09-12.6-.48l-.33-.17c-.57-.02-1.13.04-1.68.17-.06.15-.11.15-.17,0-.52.05-2.4.39-2.68.26-.45-.22-.47-1.35-.19-1.7.36-.45,3.81-.6,4.54-.9,2.01-.64,4.46-.65,6.53-.33Z" fill="#f2c92e"/>
          <path d="M15.48,5.2c1.39-.11,2.07.12,3.27.33.42.07.97-.08,1.32,0,.2.05.06.3.1.34l-.27.35-2.33-.51c-.9-.1-1.66-.14-2.33.55-1.44-.04-2.97.18-2.29,1.93l-.14.2c-.48,1.02,1.83.7,2.7.45,1.59-.04,3.13.1,4.67.38.1-.24.24-.24.34,0,.74.12,1.49.17,2.25.16l.09.18c.18-.34.39-.3.7-.18-.29-.52-.3-.9-.03-1.16.9.39.68.66.67,1.67h-2.85s-.5,0-.5,0c.12-.26.03-.32-.25-.18l-2.94-.16c-2.19.04-4.35.21-6.53.33h-1.34s0-1.17,0-1.17c-.37-.73,1.05-2.09,1.9-1.8.34-.88,1.17-1.51,2.05-1.78.47-.14,1.54-.41,1.74.06Z" fill="#cc9437"/>
          <path d="M24.86,12.57c.02.16-.03.36,0,.5-.1-.02-.25.03-.34,0l-.52.2c-4.79-1.11-9.84-.9-14.6-.05-.13.02-.25-.16-.29-.31-.17,0-.34,0-.5,0,.16-.57.99-.06.84-.67.06,0,.11,0,.17,0,.55-.13,1.11-.18,1.68-.17,5.57-.59,8.09-.39,13.57.5Z" fill="#e37e26"/>
          <path d="M15.48,5.2c-.23.02-1.03.15-1.38.2-.94.13-2.41,1.2-2.14,2.31-.28.04-.16-.41-.43-.5-.7-.22-1.45,1.09-1.74,1.5-.45.62-.55,1.18-1.51,1,.52-1.61,2.28-3.52,3.76-4.36.72-.41,3.54-1.72,3.44-.16Z" fill="#f5c536"/>
          <path d="M21.84,6.54c-.31-.49-1.42-1.21-1.97-1.3-.36-.06-.93.28-1.19.11-.24-.15-.38-.99.39-.99,2.3,0,6.16,3.32,6.79,5.45.13.44-.71.27-.93.09-.52-.4-.37-1.61-1.74-2.36-.2.29-.38.2-.6,0-.47.42-.71.09-.74-1.01Z" fill="#f7c537"/>
          <path d="M16.43,3.06c2.27-.69,2.29,2.64,0,1.94-.78-.24-.79-1.7,0-1.94Z" fill="#f3c732"/>
          <path d="M12.97,26.13c-.86-.54-.1-.42.15-.6.84-.61.79-1.3,1.27-1.75.37-.34,1.15-.6,1.26.09-.04.2-1.04.55-.67.92s1.29-1.03,2.07-.8c.33.1.54,1.15,1.44.8.12-.49-.75-.52-.67-.92.1-.5,1.08-.18,1.35.16.2.25.22.63.42.92.32.46.81.61,1.1.93.17.18-.03.24-.02.25-.65.22-1.93-.29-2.4-.18-.12.03-1.03,1.86-1.7,1.86-.21,0-.98-.74-1.09-.92-.17-.28-.29-1.06-.34-1.09-.17-.12-1.74.53-2.17.33Z" fill="#f3c731"/>
          <path d="M10.12,28.97c.42-.43.85,0,1.27-.02,3.49-.07,7.35-.42,10.86-.15.68.05,1.11.08.93.84l-12.94.08c-.36-.03-.23-.47-.13-.75Z" fill="#c5cfd4"/>
          <path d="M23.85,29.98c.01.09-.03.31,0,.33.13.1,1.66-.07,2.01,0,.04.12-.17.15-.17.17l-.12.33H8.14l-.2-.33c.54-.4,1.47.07,2.01-.5,4.57-.1,9.33-.08,13.9,0Z" fill="#dd8725"/>
          <path d="M20.5,26.63c.13.69.98.95,1.17,1.67-1.18-.02-2.65.13-3.78,0-.25-.03-.42-.02-.58-.26.19-.15,1.16-1.39,1.29-1.42.52-.11,1.31.03,1.89,0Z" fill="#ec652b"/>
          <path d="M12.8,26.63c.46.09,1.67-.15,1.98.03.08.05,1.01,1.51.87,1.64-1.39.02-2.79-.02-4.19,0,.43-.59,1-1,1.34-1.67Z" fill="#eb652b"/>
          <path d="M10.12,28.97c.07.26-.23.64.25.67,4.16.28,8.63-.21,12.82,0l-13.23.17c0-.35-.09-.58.17-.84Z" fill="#cfd0c8"/>
          <path d="M25.7,30.48c0,.17.45,1.51-.08,1.51H8.02c-.34,0-.33-1.27-.08-1.51h17.76Z" fill="#f4c332"/>
          <path d="M15.98,17.92c1-.36,1.22-.27,1.19.77.05-.38.21-.63.48-.77.3-.27.61-.01.67.33,1.3.89.43,1.59-.67,2.01-.13-.03-.35,0-.5,0-.57.15-1.13.38-1.68.67-.02.02-.17-.04-.28.05-.08.07-.08.32-.22.45-.77-.07-1.52-.31-2.24-.72l-.1.22c-.07-.03-.24.05-.37,0-.48-.21-.54-.86-.46-1.33.12-.42.58-.63,1.4-.61.19-.33.4-.46.61-.39q.5.13,0,0c-.43.05-.34-.36.01-.53.77.08,1.48.01,2.17-.14Z" fill="#d79328"/>
          <path d="M17.66,17.25c.32-.09,1.64-.05,1.98.14.56.3.82.75.92,1.35.73.52,1.36.99.62,1.85,0,.09-.14.23-.17.33-.1-.07-.23-.11-.34-.17l-.21-.08c-.1-.51-.16-.8-.63-1.09-.27,0-.33-.23-.17-.66l-.16-.51c-.34.27-1.05.33-1.17-.17-.69-.1-.38-.16-.67-.33-.21.24-.51.17-.87-.23-.06.05-.65.41-.8.23-.08.05-.12.29-.29.33-.52.11-1.31-.12-1.78,0-.21.05-.07.28-.1.34-.65,1.13-.59.45-1.56.67-.03,0-.19.2-.45.33-.04.02-.11-.02-.17,0-.6-.85.48-.99,1.17-1.03.32-.95,1.03-1.26,2.15-.94.37-.33.72-.5,1.04-.54.51-.82,1.24-.59,1.68.17Z" fill="#e38627"/>
          <path d="M17.32,20.6c.59.6.89,1.28.54,2.13-.46,1.12-1.19.9-2.05.54-.38-.65-.34-1.12-.34-1.84.17-.74,1.19-1.38,1.84-.84Z" fill="#c5cfd4"/>
          <path d="M19.83,19.6c.75-.3.96.58.84,1.17-.11.53-1.19.71-1.55.85-.13.05-.66.96-.63-.18.25-.3,1.23-.83,1.68-1,.11-.04-1.88,1.16-2.01.67-.02-.11.02-.24,0-.33.27-.39,1.23-1.33,1.68-1.17Z" fill="#f5bd38"/>
          <path d="M19.5,18.43c.61.88-.67,2.05-1.51,2.01-.04-.04-.28-.15-.34-.17.62-.47,2.09-1.87.34-1.01l.33-1c.4.06.74-.09,1.17.17Z" fill="#f5bb38"/>
          <path d="M19.83,19.6c-.23.09-1.08,1.22-1.68,1.17-.01-.06-.13-.3-.17-.33.64-.65,1.65-.84,1.51-2.01.49.29.33.66.34,1.17Z" fill="#d79328"/>
          <path d="M18.16,21.1l2.01-.67c-.3.55-1.1.77-1.68,1-.1.04-.3.21-.33.17-.02-.16.02-.34,0-.5Z" fill="#d79328"/>
          <path d="M17.15,20.27c.07.09.1.26.17.33-1.05-.19-1.21.17-1.84.84,0-.17,0-.33,0-.5.73-.62.61-.67,1.68-.67Z" fill="#d4b285"/>
          <path d="M24.52,13.07c-.17.59-.25,1.06-.34,1.67l-.23.45c-.76.26-.47.86.06,1.22-.02.1.03.24,0,.33-.1.34-1.32,2.3-1.6,2.67-.33.43-.81.86-1.25,1.18.16-1.46-.51-1.07-.91-1.68-.12-.18-.08-.47-.19-.65-.63-.99-1.1-.53-1.96-.73-.18-.04-.32-.25-.45-.29-.68-.39-.58-.67-.32-1.31,2.23-2.21-2.09-3.84-1.47-.67.92.8.96,1.4.11,1.81-.94,1.62-1.68.41-2.48.87-.12.07-.3.75-.54.89-.42.24-1.29-.15-1.34.75-.06.02-.14-.02-.17,0-.64-1.19-1.39-2.04-1.84-3.35.49-.96.38-1.4-.34-1.34-.37-.51-.08-1.37-.17-2.01.62-.01.84-.27,1.27-.33,3.96-.5,10.41-.67,14.14.49Z" fill="#ee4c28"/>
          <path d="M9.28,14.91c0-.19-.08-.57.08-.67.66.8,1.19.42.73,1.58-.1.25-.12.51-.48.43-.2-.57-.33-.61-.34-1.34Z" fill="#f9ab47"/>
          <path d="M12.63,20.94c-.87-.87-.91-1.66.55-1.47l1.79,1.3c-.62.02-.97-.45-1.59-.51-.34-.03-.49-.08-.42.34l2.01.84c-.43.41-1.82-.29-2.35-.5Z" fill="#f5bf38"/>
          <path d="M24.19,14.74c-.07.5-.06,1.21-.17,1.67-.32.17-.31.3-.55-.04-.66-.93-.18-1.31.72-1.64Z" fill="#fab34a"/>
          <path d="M17.66,9.55c1.14-.02,2.29.01,3.43,0l-.25.34-3.18-.33Z" fill="#cf942d"/>
          <path d="M11.29,12.06c-.52.06-1.12.11-1.68.17.4-.36,1.15-.1,1.68-.17Z" fill="#cf942d"/>
          <path d="M20.17,5.87c.34.42.92.47,1.34,1.17.13.43.24.84.3,1.21.6-.7,1.06-.77,1.37-.21.02,0,.23.12.34.17l.5,1.51c-.41.1-.82-.14-1.17-.17-.34-.11-.46-.21-.14-.18-.74.02-1.48-.03-2.21-.15-.11,0-.22,0-.34,0-.44-.05-.43-.21,0-.33,1.19-.42.81-2.15-.47-2.02l-2.08-.66c-1.07-.15-1.53-.13-2.23.66-1.8-.31-2.4.27-1.8,1.75l-.28.27c-.52.45-1.3-.06-.5-.5-.23-.71-.66-1.06.06-1.78.65-.65,1.53-.46,2.3-.63.38-.08.61-.38,1.07-.44,1.47-.2,2.53.47,3.94.34Z" fill="#cfd0c8"/>
          <path d="M12.8,8.38c.04.12-.05.45,0,.5.03.03.37,0,.5,0,0-.15.07-.26.2-.32l1.45.02c.76-.62,2.66-.61,3.42,0l1.5-.02.29.32v.33c-2.7-.07-5.26-.17-7.95,0-.35.02-2.02.41-2.09.33-.1-.48.36-1.31.83-1.44.53-.15,1.12.87,1.85.27Z" fill="#d2c9b8"/>
          <path d="M20.5,9.22c.38,0,2.25-.07,2.35,0,.03.02-.02.24,0,.33-.75-.06-1.64.04-2.35-.33Z" fill="#d2c9b8"/>
          <path d="M21.84,6.54c.23.36.2.56.17,1,.65-.56.65-.28,1.17,0v.5c-.99-.22-.86.43-1.12.5-.95.24-.44-.8-.55-1.5.14.24.22.37.17.67h.16s0-1.17,0-1.17Z" fill="#e0a032"/>
          <path d="M16.57,24.79c.59-.12.55,1.59.16,1.67-.59.12-.55-1.59-.16-1.67Z" fill="#d89e19"/>
          <path d="M17.66,17.92c.04.62-.28,1.36-.84,1.67v-1.67c-.72-.01-.48.84-.51,1.34l-.33-1.34c.21-.14.57-.45.78-.47.3-.03.64.31.9.47Z" fill="#f6c037"/>
          <path d="M13.8,18.59c.26-.56,2.11.02,1.84,1l-1.01-.42.67.92c-.4.31-1.59-1.33-1.51-1.5Z" fill="#f4ba38"/>
          <path d="M15.98,17.09c.76-1.31-.26-.95-.46-1.8-.08-.34-.11-.93-.04-1.26.07-.31,1.12-.97,1.55-.92.27.03,1.36,1.12,1.38,1.39.07,1.04-1.46,1.6-.77,2.76-.62-.22-.92-.54-1.68-.17Z" fill="#e15e20"/>
          <path d="M13.3,8.88c-.1-.47-.28-1.06-.24-1.54.1-1.21,1.57-.66,2.3-.81.15-.03.43-.63.58-.66.31-.06,1.32-.06,1.65-.02.28.04,1.69.55,2.18.68.26.07.75-.07.89.03.07.05.08.38.19.53.08.11.3.1.33.23.1.44-.06,1.08,0,1.56-.33,0-.67-.01-1.01,0-.52.02-1.64.1-2.06,0-.14-.03-.05-.3-.36-.34-.44-.06-1.76-.06-2.2,0-.31.04-.22.31-.36.34-.36.08-1.46.04-1.89,0Z" fill="#c1d3df"/>
          <path d="M16.76,13.42c.31-.05,1.22,1.04,1.22,1.41s-.95,1.5-1.24,1.42c-.16-.39-1.1-1.11-1.1-1.42,0-.19.94-1.38,1.12-1.41Z" fill="#f5c433"/>
        </g>
        <g>
          <path d="M45.58,3.19c.07-.05.16-.3.33-.41.64-.41,1.98-.43,2.52.16.21.23.3.73.5.84.22.13,1.23.19,1.68.33,1.92.61,3.48,1.94,4.66,3.54.4.54,1.16,2.12,1.46,2.39.64.58,1.47.14,1.59,1.6.21,2.58-1.67,1.39-3.19,1.76-.4,0-.41-.02-.17-.33-.47-.14-.46-.36,0-.5l.23-.3c1.95.6,2.61.27,1.98-.98-1.73-.39-3.48-.69-5.27-.89-.3-.03-.45-.17-.46-.5l.05-.21,2.56.13c.25-.06.12-1.12-.44-1.6-.31.34-.38.28-.34-.17-.49-.08-.45-.38,0-.5.46-.41.99.32,1.26.72.42,1.63,1.82,2.16.34.24-1.3-1.68-3.14-3.21-5.22-3.77-1.11-.3-1,.63.35.17.59.09,2.26.94,1.93,1.63.01.5.12.87.31,1.13-.34.52-.56.31-.65-.63-.3.06-.57-.14-.8-.6-.55-.06-.73-.25-.54-.57-1-.23-3.05-.62-4.53-.46l-.16-.21c-1.77-1.3-4.74,1.38-5.87,2.81-.54.69-1.36,2.26-.26.75l.44-.05.22.07c-.22.94.16,1.02,1.01.88l.1.22.02.23c-1.39.33-2.83.63-4.32.9-.46,1.19.34,1.5,2.38.91l.24.31c.45.25.17.47-.84.67.37.07.37.59,0,.67-.36-1.07-.87-.38-1.77-.49-1.32-.16-1.48-2.35-.4-2.93.29-.16.69-.1.95-.31.24-.19,1.25-2.14,1.73-2.71,1.07-1.29,2.5-2.24,4.02-2.93,1.02-.08,1.8-.42,2.35-1Z" fill="#cf942d"/>
          <path d="M43.06,26.13c.39-.46,1.99-.84,2.47-.42.61,2.07,1.33,2.31,2.41.23.59-.61,2.16-.16,2.82.19.47-.04.49.22.17.5,0,.35-.17.27-.34,0l-.2.34c-1.12-.29-1.93.04-2.43.99,1.14.06,2.29.08,3.44.04l.36.3c0-.43.22-.48.5-.17.16,0,1.14.23,1.27.32.56.39.14,1.23.74,1.52-.1.26-.23.26-.34,0-.64.22-1.3.23-1.97.24-3.32,0-6.64,0-9.95,0-.67,0-1.33-.02-1.97-.23-.38.14-.89.29-1.17,0,1.19-.17.4-.77.71-1.3.11-.19,1.38-.53,1.64-.54.26-.36.38-.25.34.17,1.16-.35,2.4-.47,3.72-.36-.28-.98-1-1.3-2.18-.96l-.21-.35c-.14-.05-.14-.1,0-.17-.54-.18-.31-.62.17-.33Z" fill="#dd8725"/>
          <path d="M38.88,29.98c.39-.02.78,0,1.17,0,.09.2.06.32-.13.34l-1.88.17c.33.27.19,1.1.08,1.51l.12-.33h17.27l.2.33c-.22-.67-.19-1.17.08-1.51-.66-.07-1.37-.11-2.13-.11-.18-.15.06-.34.29-.39.11,0,.22,0,.34,0,.55.01,1.84-.19,2.09.33.21.44.28,2.14-.51,2.17l-18.17-.08c-.76-.34-.74-2.13.12-2.39.33-.1.71-.02,1.05-.04Z" fill="#cf9433"/>
          <path d="M47.75,20.27c.28-.14.43-.18.34.17.41-.25.55.04.17.33.36.08.3.17,0,.33.46.14.19.55.09.29-.05-.13.1-.13.25.04.54.2,1.36-.29,1.83-.67h.35c.24-.24.39-.17.34.17.23-.24.33-.13.17.17-.13.44-.97,1.02-1.47,1.22-1.49.1-1.35.66-.06,1.14l.19.48c.48,1.56,1.79,1.36,2,1.68.24.35-.53.91-.83,1-.05.15-.11.15-.17,0-.12-.15-.12-.33-.17-.5-.91-.41-1.48-.91-1.77-1.9-.12-.18-.64-.28-.62-.26,1.44,1.44-.78,1.61-1.39.33l-.4.12c-.73.62-2.13,1.35-1.79-.19.87-.65.43-.59-.17-.13-.41.86-.88,1.48-1.58,2.03-.23.02-.13.24-.17.33-.18.34-.36.41-.5,0-.2-.06-.71-.52-.66-.74.42-.54,1.03-.47,1.51-1.01.38-.43.51-.9,1-1.43.17-.24.87-.6,1.01-.33.14-.24.36-.13.67.33.08-.13.2-.25.34-.22,1.38.22,1.65-.11,1.41-1.55-.3-.34-.38-.64-.24-.9-.37-.11-.42-.22-.17-.33.14-.47.38-.48.5,0Z" fill="#cf9433"/>
          <path d="M39.21,12.9c.54.07.43,1.18.08,1.44l.08.56c.39.2.7,1.01.34,1.34l.44.21c.45.92.96,1.81,1.53,2.67l-.12.47c.31.06.19.58-.17.33-1.66-2.05-2.82-3.48-2.68-6.36,0-.2-.04-.52,0-.67.18-.16.4-.23.5,0Z" fill="#a42f28"/>
          <path d="M54.45,17.09c-.42,1.32-1.56,2.84-2.51,3.85-.29.24-.52.3-.67.17-.06-.04-.11-.13-.17-.17-.25-.18-.14-.44.17-.33l.19-.58c.94-.93,1.7-2.01,2.28-3.23l.38-.04c.25-.33.36-.21.34.33Z" fill="#ae2c28"/>
          <path d="M41.89,19.6c.05.68.32,1.13.84,1.34l.13-.19c.71.38,1.45.61,2.21.69-.49-.43.21-1.16.5-.5.19.08.19.25,0,.5.44.19.56,1.46.34,1.84-.11-.05-.65-.3-.67-.33-.22.05-.29-.09-.21-.43-.65-.4-1.36-.7-2.14-.91-1.03-.66-.86-.87-1.51-1.67.21-.02.14-.31.17-.33.06-.15.11-.15.17,0,.04-.15.1-.15.17,0Z" fill="#ca943e"/>
          <path d="M54.96,13.07s.17.15.17.33c-.02.79-.42,2.89-.67,3.68l-.34-.33c-.28,0-.28-.1,0-.33-.49-.26-.31-1.4.17-1.67-.49-.32-.24-1.58.34-1.67,0-.36.23-.35.34,0Z" fill="#a1351f"/>
          <path d="M51.94,20.94c-.3.32-1.89,1.61-2.13,1.67-.27.07-.6-.02-.89,0-.4.31.91.6.98.7.11.16-.02.48.03.64-.2-.42-1.75-.92-1.67-1.25.09-.4,1.33-.53,1.79-.73s.86-.68,1.23-.87c.17-.09.47-.09.67-.17Z" fill="#f9f3db"/>
          <path d="M42.9,26.46s.02.12,0,.17c.39.65-.7,1.52-1.34,1.67-.14,0-.31-.17-.34-.17l1.17-1.67c.13.04.35-.03.5,0Z" fill="#a63c29"/>
          <path d="M50.94,26.63c.06,0,.12.01.17,0l1.17,1.51s-.22.17-.5.17c-.58-.24-1.69-1.09-1.17-1.67.11,0,.23.02.34,0Z" fill="#a73c24"/>
          <path d="M45.24,22.95l-1.01.33s-.05-.2.04-.29c.14-.12.71-.07.63-.46-.02-.11-1.57-.64-2.01-.92.5.09,2.05.49,2.26.85.1.17.06.45.09.49Z" fill="#efdbad"/>
          <path d="M45.58,3.19c-.02,1.09-1.54.79-2.35,1,.85-.39,1.53-.45,2.35-1Z" fill="#f3e6c3"/>
          <path d="M47.75,9.55l3.09.16.09.17c.31-.29.48-.29.5,0,1.08.52,5.25.57,5.96,1.16.33.27.37,1.58.08,1.78-.21.15-2.08-.19-2.52-.26-.19.19-.4.19-.64.15-4.27-.67-8.27-1.09-12.6-.48l-.33-.17c-.57-.02-1.13.04-1.68.17-.06.15-.11.15-.17,0-.52.05-2.4.39-2.68.26-.45-.22-.47-1.35-.19-1.7.36-.45,3.81-.6,4.54-.9,2.01-.64,4.46-.65,6.53-.33Z" fill="#f2c92e"/>
          <path d="M45.58,5.2c1.39-.11,2.07.12,3.27.33.42.07.97-.08,1.32,0,.2.05.06.3.1.34l-.27.35-2.33-.51c-.9-.1-1.66-.14-2.33.55-1.44-.04-2.97.18-2.29,1.93l-.14.2c-.48,1.02,1.83.7,2.7.45,1.59-.04,3.13.1,4.67.38.1-.24.24-.24.34,0,.74.12,1.49.17,2.25.16l.09.18c.18-.34.39-.3.7-.18-.29-.52-.3-.9-.03-1.16.9.39.68.66.67,1.67h-2.85s-.5,0-.5,0c.12-.26.03-.32-.25-.18l-2.94-.16c-2.19.04-4.35.21-6.53.33h-1.34s0-1.17,0-1.17c-.37-.73,1.05-2.09,1.9-1.8.34-.88,1.17-1.51,2.05-1.78.47-.14,1.54-.41,1.74.06Z" fill="#cc9437"/>
          <path d="M54.96,12.57c.02.16-.03.36,0,.5-.1-.02-.25.03-.34,0l-.52.2c-4.79-1.11-9.84-.9-14.6-.05-.13.02-.25-.16-.29-.31-.17,0-.34,0-.5,0,.16-.57.99-.06.84-.67.06,0,.11,0,.17,0,.55-.13,1.11-.18,1.68-.17,5.57-.59,8.09-.39,13.57.5Z" fill="#e37e26"/>
          <path d="M45.58,5.2c-.23.02-1.03.15-1.38.2-.94.13-2.41,1.2-2.14,2.31-.28.04-.16-.41-.43-.5-.7-.22-1.45,1.09-1.74,1.5-.45.62-.55,1.18-1.51,1,.52-1.61,2.28-3.52,3.76-4.36.72-.41,3.54-1.72,3.44-.16Z" fill="#f5c536"/>
          <path d="M51.94,6.54c-.31-.49-1.42-1.21-1.97-1.3-.36-.06-.93.28-1.19.11-.24-.15-.38-.99.39-.99,2.3,0,6.16,3.32,6.79,5.45.13.44-.71.27-.93.09-.52-.4-.37-1.61-1.74-2.36-.2.29-.38.2-.6,0-.47.42-.71.09-.74-1.01Z" fill="#f7c537"/>
          <path d="M46.53,3.06c2.27-.69,2.29,2.64,0,1.94-.78-.24-.79-1.7,0-1.94Z" fill="#f3c732"/>
          <path d="M43.06,26.13c-.86-.54-.1-.42.15-.6.84-.61.79-1.3,1.27-1.75.37-.34,1.15-.6,1.26.09-.04.2-1.04.55-.67.92s1.29-1.03,2.07-.8c.33.1.54,1.15,1.44.8.12-.49-.75-.52-.67-.92.1-.5,1.08-.18,1.35.16.2.25.22.63.42.92.32.46.81.61,1.1.93.17.18-.03.24-.02.25-.65.22-1.93-.29-2.4-.18-.12.03-1.03,1.86-1.7,1.86-.21,0-.98-.74-1.09-.92-.17-.28-.29-1.06-.34-1.09-.17-.12-1.74.53-2.17.33Z" fill="#f3c731"/>
          <path d="M40.22,28.97c.42-.43.85,0,1.27-.02,3.49-.07,7.35-.42,10.86-.15.68.05,1.11.08.93.84l-12.94.08c-.36-.03-.23-.47-.13-.75Z" fill="#c5cfd4"/>
          <path d="M53.95,29.98c.01.09-.03.31,0,.33.13.1,1.66-.07,2.01,0,.04.12-.17.15-.17.17l-.12.33h-17.44l-.2-.33c.54-.4,1.47.07,2.01-.5,4.57-.1,9.33-.08,13.9,0Z" fill="#dd8725"/>
          <path d="M50.6,26.63c.13.69.98.95,1.17,1.67-1.18-.02-2.65.13-3.78,0-.25-.03-.42-.02-.58-.26.19-.15,1.16-1.39,1.29-1.42.52-.11,1.31.03,1.89,0Z" fill="#ec652b"/>
          <path d="M42.9,26.63c.46.09,1.67-.15,1.98.03.08.05,1.01,1.51.87,1.64-1.39.02-2.79-.02-4.19,0,.43-.59,1-1,1.34-1.67Z" fill="#eb652b"/>
          <path d="M40.22,28.97c.07.26-.23.64.25.67,4.16.28,8.63-.21,12.82,0l-13.23.17c0-.35-.09-.58.17-.84Z" fill="#cfd0c8"/>
          <path d="M55.79,30.48c0,.17.45,1.51-.08,1.51h-17.59c-.34,0-.33-1.27-.08-1.51h17.76Z" fill="#f4c332"/>
          <path d="M46.08,17.92c1-.36,1.22-.27,1.19.77.05-.38.21-.63.48-.77.3-.27.61-.01.67.33,1.3.89.43,1.59-.67,2.01-.13-.03-.35,0-.5,0-.57.15-1.13.38-1.68.67-.02.02-.17-.04-.28.05-.08.07-.08.32-.22.45-.77-.07-1.52-.31-2.24-.72l-.1.22c-.07-.03-.24.05-.37,0-.48-.21-.54-.86-.46-1.33.12-.42.58-.63,1.4-.61.19-.33.4-.46.61-.39q.5.13,0,0c-.43.05-.34-.36.01-.53.77.08,1.48.01,2.17-.14Z" fill="#d79328"/>
          <path d="M47.75,17.25c.32-.09,1.64-.05,1.98.14.56.3.82.75.92,1.35.73.52,1.36.99.62,1.85,0,.09-.14.23-.17.33-.1-.07-.23-.11-.34-.17l-.21-.08c-.1-.51-.16-.8-.63-1.09-.27,0-.33-.23-.17-.66l-.16-.51c-.34.27-1.05.33-1.17-.17-.69-.1-.38-.16-.67-.33-.21.24-.51.17-.87-.23-.06.05-.65.41-.8.23-.08.05-.12.29-.29.33-.52.11-1.31-.12-1.78,0-.21.05-.07.28-.1.34-.65,1.13-.59.45-1.56.67-.03,0-.19.2-.45.33-.04.02-.11-.02-.17,0-.6-.85.48-.99,1.17-1.03.32-.95,1.03-1.26,2.15-.94.37-.33.72-.5,1.04-.54.51-.82,1.24-.59,1.68.17Z" fill="#e38627"/>
          <path d="M47.42,20.6c.59.6.89,1.28.54,2.13-.46,1.12-1.19.9-2.05.54-.38-.65-.34-1.12-.34-1.84.17-.74,1.19-1.38,1.84-.84Z" fill="#c5cfd4"/>
          <path d="M49.93,19.6c.75-.3.96.58.84,1.17-.11.53-1.19.71-1.55.85-.13.05-.66.96-.63-.18.25-.3,1.23-.83,1.68-1,.11-.04-1.88,1.16-2.01.67-.02-.11.02-.24,0-.33.27-.39,1.23-1.33,1.68-1.17Z" fill="#f5bd38"/>
          <path d="M49.6,18.43c.61.88-.67,2.05-1.51,2.01-.04-.04-.28-.15-.34-.17.62-.47,2.09-1.87.34-1.01l.33-1c.4.06.74-.09,1.17.17Z" fill="#f5bb38"/>
          <path d="M49.93,19.6c-.23.09-1.08,1.22-1.68,1.17-.01-.06-.13-.3-.17-.33.64-.65,1.65-.84,1.51-2.01.49.29.33.66.34,1.17Z" fill="#d79328"/>
          <path d="M48.26,21.1l2.01-.67c-.3.55-1.1.77-1.68,1-.1.04-.3.21-.33.17-.02-.16.02-.34,0-.5Z" fill="#d79328"/>
          <path d="M47.25,20.27c.07.09.1.26.17.33-1.05-.19-1.21.17-1.84.84,0-.17,0-.33,0-.5.73-.62.61-.67,1.68-.67Z" fill="#d4b285"/>
          <path d="M54.62,13.07c-.17.59-.25,1.06-.34,1.67l-.23.45c-.76.26-.47.86.06,1.22-.02.1.03.24,0,.33-.1.34-1.32,2.3-1.6,2.67-.33.43-.81.86-1.25,1.18.16-1.46-.51-1.07-.91-1.68-.12-.18-.08-.47-.19-.65-.63-.99-1.1-.53-1.96-.73-.18-.04-.32-.25-.45-.29-.68-.39-.58-.67-.32-1.31,2.23-2.21-2.09-3.84-1.47-.67.92.8.96,1.4.11,1.81-.94,1.62-1.68.41-2.48.87-.12.07-.3.75-.54.89-.42.24-1.29-.15-1.34.75-.06.02-.14-.02-.17,0-.64-1.19-1.39-2.04-1.84-3.35.49-.96.38-1.4-.34-1.34-.37-.51-.08-1.37-.17-2.01.62-.01.84-.27,1.27-.33,3.96-.5,10.41-.67,14.14.49Z" fill="#ee4c28"/>
          <path d="M39.38,14.91c0-.19-.08-.57.08-.67.66.8,1.19.42.73,1.58-.1.25-.12.51-.48.43-.2-.57-.33-.61-.34-1.34Z" fill="#f9ab47"/>
          <path d="M42.73,20.94c-.87-.87-.91-1.66.55-1.47l1.79,1.3c-.62.02-.97-.45-1.59-.51-.34-.03-.49-.08-.42.34l2.01.84c-.43.41-1.82-.29-2.35-.5Z" fill="#f5bf38"/>
          <path d="M54.29,14.74c-.07.5-.06,1.21-.17,1.67-.32.17-.31.3-.55-.04-.66-.93-.18-1.31.72-1.64Z" fill="#fab34a"/>
          <path d="M47.75,9.55c1.14-.02,2.29.01,3.43,0l-.25.34-3.18-.33Z" fill="#cf942d"/>
          <path d="M41.39,12.06c-.52.06-1.12.11-1.68.17.4-.36,1.15-.1,1.68-.17Z" fill="#cf942d"/>
          <path d="M50.27,5.87c.34.42.92.47,1.34,1.17.13.43.24.84.3,1.21.6-.7,1.06-.77,1.37-.21.02,0,.23.12.34.17l.5,1.51c-.41.1-.82-.14-1.17-.17-.34-.11-.46-.21-.14-.18-.74.02-1.48-.03-2.21-.15-.11,0-.22,0-.34,0-.44-.05-.43-.21,0-.33,1.19-.42.81-2.15-.47-2.02l-2.08-.66c-1.07-.15-1.53-.13-2.23.66-1.8-.31-2.4.27-1.8,1.75l-.28.27c-.52.45-1.3-.06-.5-.5-.23-.71-.66-1.06.06-1.78.65-.65,1.53-.46,2.3-.63.38-.08.61-.38,1.07-.44,1.47-.2,2.53.47,3.94.34Z" fill="#cfd0c8"/>
          <path d="M42.9,8.38c.04.12-.05.45,0,.5.03.03.37,0,.5,0,0-.15.07-.26.2-.32l1.45.02c.76-.62,2.66-.61,3.42,0l1.5-.02.29.32v.33c-2.7-.07-5.26-.17-7.95,0-.35.02-2.02.41-2.09.33-.1-.48.36-1.31.83-1.44.53-.15,1.12.87,1.85.27Z" fill="#d2c9b8"/>
          <path d="M50.6,9.22c.38,0,2.25-.07,2.35,0,.03.02-.02.24,0,.33-.75-.06-1.64.04-2.35-.33Z" fill="#d2c9b8"/>
          <path d="M51.94,6.54c.23.36.2.56.17,1,.65-.56.65-.28,1.17,0v.5c-.99-.22-.86.43-1.12.5-.95.24-.44-.8-.55-1.5.14.24.22.37.17.67h.16s0-1.17,0-1.17Z" fill="#e0a032"/>
          <path d="M46.67,24.79c.59-.12.55,1.59.16,1.67-.59.12-.55-1.59-.16-1.67Z" fill="#d89e19"/>
          <path d="M47.75,17.92c.04.62-.28,1.36-.84,1.67v-1.67c-.72-.01-.48.84-.51,1.34l-.33-1.34c.21-.14.57-.45.78-.47.3-.03.64.31.9.47Z" fill="#f6c037"/>
          <path d="M43.9,18.59c.26-.56,2.11.02,1.84,1l-1.01-.42.67.92c-.4.31-1.59-1.33-1.51-1.5Z" fill="#f4ba38"/>
          <path d="M46.08,17.09c.76-1.31-.26-.95-.46-1.8-.08-.34-.11-.93-.04-1.26.07-.31,1.12-.97,1.55-.92.27.03,1.36,1.12,1.38,1.39.07,1.04-1.46,1.6-.77,2.76-.62-.22-.92-.54-1.68-.17Z" fill="#e15e20"/>
          <path d="M43.4,8.88c-.1-.47-.28-1.06-.24-1.54.1-1.21,1.57-.66,2.3-.81.15-.03.43-.63.58-.66.31-.06,1.32-.06,1.65-.02.28.04,1.69.55,2.18.68.26.07.75-.07.89.03.07.05.08.38.19.53.08.11.3.1.33.23.1.44-.06,1.08,0,1.56-.33,0-.67-.01-1.01,0-.52.02-1.64.1-2.06,0-.14-.03-.05-.3-.36-.34-.44-.06-1.76-.06-2.2,0-.31.04-.22.31-.36.34-.36.08-1.46.04-1.89,0Z" fill="#c1d3df"/>
          <path d="M46.85,13.42c.31-.05,1.22,1.04,1.22,1.41s-.95,1.5-1.24,1.42c-.16-.39-1.1-1.11-1.1-1.42,0-.19.94-1.38,1.12-1.41Z" fill="#f5c433"/>
        </g>
        <g>
          <path d="M15.48,64.33c.07-.05.16-.3.33-.41.64-.41,1.98-.43,2.52.16.21.23.3.73.5.84.22.13,1.23.19,1.68.33,1.92.61,3.48,1.94,4.66,3.54.4.54,1.16,2.12,1.46,2.39.64.58,1.47.14,1.59,1.6.21,2.58-1.67,1.39-3.19,1.76-.4,0-.41-.02-.17-.33-.47-.14-.46-.36,0-.5l.23-.3c1.95.6,2.61.27,1.98-.98-1.73-.39-3.48-.69-5.27-.89-.3-.03-.45-.17-.46-.5l.05-.21,2.56.13c.25-.06.12-1.12-.44-1.6-.31.34-.38.28-.34-.17-.49-.08-.45-.38,0-.5.46-.41.99.32,1.26.72.42,1.63,1.82,2.16.34.24-1.3-1.68-3.14-3.21-5.22-3.77-1.11-.3-1,.63.35.17.59.09,2.26.94,1.93,1.63.01.5.12.87.31,1.13-.34.52-.56.31-.65-.63-.3.06-.57-.14-.8-.6-.55-.06-.73-.25-.54-.57-1-.23-3.05-.62-4.53-.46l-.16-.21c-1.77-1.3-4.74,1.38-5.87,2.81-.54.69-1.36,2.26-.26.75l.44-.05.22.07c-.22.94.16,1.02,1.01.88l.1.22.02.23c-1.39.33-2.83.63-4.32.9-.46,1.19.34,1.5,2.38.91l.24.31c.45.25.17.47-.84.67.37.07.37.59,0,.67-.36-1.07-.87-.38-1.77-.49-1.32-.16-1.48-2.35-.4-2.93.29-.16.69-.1.95-.31.24-.19,1.25-2.14,1.73-2.71,1.07-1.29,2.5-2.24,4.02-2.93,1.02-.08,1.8-.42,2.35-1Z" fill="#cf942d"/>
          <path d="M12.97,87.26c.39-.46,1.99-.84,2.47-.42.61,2.07,1.33,2.31,2.41.23.59-.61,2.16-.16,2.82.19.47-.04.49.22.17.5,0,.35-.17.27-.34,0l-.2.34c-1.12-.29-1.93.04-2.43.99,1.14.06,2.29.08,3.44.04l.36.3c0-.43.22-.48.5-.17.16,0,1.14.23,1.27.32.56.39.14,1.23.74,1.52-.1.26-.23.26-.34,0-.64.22-1.3.23-1.97.24-3.32,0-6.64,0-9.95,0-.67,0-1.33-.02-1.97-.23-.38.14-.89.29-1.17,0,1.19-.17.4-.77.71-1.3.11-.19,1.38-.53,1.64-.54.26-.36.38-.25.34.17,1.16-.35,2.4-.47,3.72-.36-.28-.98-1-1.3-2.18-.96l-.21-.35c-.14-.05-.14-.1,0-.17-.54-.18-.31-.62.17-.33Z" fill="#dd8725"/>
          <path d="M8.78,91.11c.39-.02.78,0,1.17,0,.09.2.06.32-.13.34l-1.88.17c.33.27.19,1.1.08,1.51l.12-.33h17.27l.2.33c-.22-.67-.19-1.17.08-1.51-.66-.07-1.37-.11-2.13-.11-.18-.15.06-.34.29-.39.11,0,.22,0,.34,0,.55.01,1.84-.19,2.09.33.21.44.28,2.14-.51,2.17l-18.17-.08c-.76-.34-.74-2.13.12-2.39.33-.1.71-.02,1.05-.04Z" fill="#cf9433"/>
          <path d="M17.66,81.41c.28-.14.43-.18.34.17.41-.25.55.04.17.33.36.08.3.17,0,.33.46.14.19.55.09.29-.05-.13.1-.13.25.04.54.2,1.36-.29,1.83-.67h.35c.24-.24.39-.17.34.17.23-.24.33-.13.17.17-.13.44-.97,1.02-1.47,1.22-1.49.1-1.35.66-.06,1.14l.19.48c.48,1.56,1.79,1.36,2,1.68.24.35-.53.91-.83,1-.05.15-.11.15-.17,0-.12-.15-.12-.33-.17-.5-.91-.41-1.48-.91-1.77-1.9-.12-.18-.64-.28-.62-.26,1.44,1.44-.78,1.61-1.39.33l-.4.12c-.73.62-2.13,1.35-1.79-.19.87-.65.43-.59-.17-.13-.41.86-.88,1.48-1.58,2.03-.23.02-.13.24-.17.33-.18.34-.36.41-.5,0-.2-.06-.71-.52-.66-.74.42-.54,1.03-.47,1.51-1.01.38-.43.51-.9,1-1.43.17-.24.87-.6,1.01-.33.14-.24.36-.13.67.33.08-.13.2-.25.34-.22,1.38.22,1.65-.11,1.41-1.55-.3-.34-.38-.64-.24-.9-.37-.11-.42-.22-.17-.33.14-.47.38-.48.5,0Z" fill="#cf9433"/>
          <path d="M9.11,74.04c.54.07.43,1.18.08,1.44l.08.56c.39.2.7,1.01.34,1.34l.44.21c.45.92.96,1.81,1.53,2.67l-.12.47c.31.06.19.58-.17.33-1.66-2.05-2.82-3.48-2.68-6.36,0-.2-.04-.52,0-.67.18-.16.4-.23.5,0Z" fill="#a42f28"/>
          <path d="M24.36,78.22c-.42,1.32-1.56,2.84-2.51,3.85-.29.24-.52.3-.67.17-.06-.04-.11-.13-.17-.17-.25-.18-.14-.44.17-.33l.19-.58c.94-.93,1.7-2.01,2.28-3.23l.38-.04c.25-.33.36-.21.34.33Z" fill="#ae2c28"/>
          <path d="M11.79,80.74c.05.68.32,1.13.84,1.34l.13-.19c.71.38,1.45.61,2.21.69-.49-.43.21-1.16.5-.5.19.08.19.25,0,.5.44.19.56,1.46.34,1.84-.11-.05-.65-.3-.67-.33-.22.05-.29-.09-.21-.43-.65-.4-1.36-.7-2.14-.91-1.03-.66-.86-.87-1.51-1.67.21-.02.14-.31.17-.33.06-.15.11-.15.17,0,.04-.15.1-.15.17,0Z" fill="#ca943e"/>
          <path d="M24.86,74.21s.17.15.17.33c-.02.79-.42,2.89-.67,3.68l-.34-.33c-.28,0-.28-.1,0-.33-.49-.26-.31-1.4.17-1.67-.49-.32-.24-1.58.34-1.67,0-.36.23-.35.34,0Z" fill="#a1351f"/>
          <path d="M21.84,82.07c-.3.32-1.89,1.61-2.13,1.67-.27.07-.6-.02-.89,0-.4.31.91.6.98.7.11.16-.02.48.03.64-.2-.42-1.75-.92-1.67-1.25.09-.4,1.33-.53,1.79-.73s.86-.68,1.23-.87c.17-.09.47-.09.67-.17Z" fill="#f9f3db"/>
          <path d="M12.8,87.6s.02.12,0,.17c.39.65-.7,1.52-1.34,1.67-.14,0-.31-.17-.34-.17l1.17-1.67c.13.04.35-.03.5,0Z" fill="#a63c29"/>
          <path d="M20.84,87.77c.06,0,.12.01.17,0l1.17,1.51s-.22.17-.5.17c-.58-.24-1.69-1.09-1.17-1.67.11,0,.23.02.34,0Z" fill="#a73c24"/>
          <path d="M15.14,84.08l-1.01.33s-.05-.2.04-.29c.14-.12.71-.07.63-.46-.02-.11-1.57-.64-2.01-.92.5.09,2.05.49,2.26.85.1.17.06.45.09.49Z" fill="#efdbad"/>
          <path d="M15.48,64.33c-.02,1.09-1.54.79-2.35,1,.85-.39,1.53-.45,2.35-1Z" fill="#f3e6c3"/>
          <path d="M17.66,70.69l3.09.16.09.17c.31-.29.48-.29.5,0,1.08.52,5.25.57,5.96,1.16.33.27.37,1.58.08,1.78-.21.15-2.08-.19-2.52-.26-.19.19-.4.19-.64.15-4.27-.67-8.27-1.09-12.6-.48l-.33-.17c-.57-.02-1.13.04-1.68.17-.06.15-.11.15-.17,0-.52.05-2.4.39-2.68.26-.45-.22-.47-1.35-.19-1.7.36-.45,3.81-.6,4.54-.9,2.01-.64,4.46-.65,6.53-.33Z" fill="#f2c92e"/>
          <path d="M15.48,66.34c1.39-.11,2.07.12,3.27.33.42.07.97-.08,1.32,0,.2.05.06.3.1.34l-.27.35-2.33-.51c-.9-.1-1.66-.14-2.33.55-1.44-.04-2.97.18-2.29,1.93l-.14.2c-.48,1.02,1.83.7,2.7.45,1.59-.04,3.13.1,4.67.38.1-.24.24-.24.34,0,.74.12,1.49.17,2.25.16l.09.18c.18-.34.39-.3.7-.18-.29-.52-.3-.9-.03-1.16.9.39.68.66.67,1.67h-2.85s-.5,0-.5,0c.12-.26.03-.32-.25-.18l-2.94-.16c-2.19.04-4.35.21-6.53.33h-1.34s0-1.17,0-1.17c-.37-.73,1.05-2.09,1.9-1.8.34-.88,1.17-1.51,2.05-1.78.47-.14,1.54-.41,1.74.06Z" fill="#cc9437"/>
          <path d="M24.86,73.7c.02.16-.03.36,0,.5-.1-.02-.25.03-.34,0l-.52.2c-4.79-1.11-9.84-.9-14.6-.05-.13.02-.25-.16-.29-.31-.17,0-.34,0-.5,0,.16-.57.99-.06.84-.67.06,0,.11,0,.17,0,.55-.13,1.11-.18,1.68-.17,5.57-.59,8.09-.39,13.57.5Z" fill="#e37e26"/>
          <path d="M15.48,66.34c-.23.02-1.03.15-1.38.2-.94.13-2.41,1.2-2.14,2.31-.28.04-.16-.41-.43-.5-.7-.22-1.45,1.09-1.74,1.5-.45.62-.55,1.18-1.51,1,.52-1.61,2.28-3.52,3.76-4.36.72-.41,3.54-1.72,3.44-.16Z" fill="#f5c536"/>
          <path d="M21.84,67.68c-.31-.49-1.42-1.21-1.97-1.3-.36-.06-.93.28-1.19.11-.24-.15-.38-.99.39-.99,2.3,0,6.16,3.32,6.79,5.45.13.44-.71.27-.93.09-.52-.4-.37-1.61-1.74-2.36-.2.29-.38.2-.6,0-.47.42-.71.09-.74-1.01Z" fill="#f7c537"/>
          <path d="M16.43,64.19c2.27-.69,2.29,2.64,0,1.94-.78-.24-.79-1.7,0-1.94Z" fill="#f3c732"/>
          <path d="M12.97,87.26c-.86-.54-.1-.42.15-.6.84-.61.79-1.3,1.27-1.75.37-.34,1.15-.6,1.26.09-.04.2-1.04.55-.67.92s1.29-1.03,2.07-.8c.33.1.54,1.15,1.44.8.12-.49-.75-.52-.67-.92.1-.5,1.08-.18,1.35.16.2.25.22.63.42.92.32.46.81.61,1.1.93.17.18-.03.24-.02.25-.65.22-1.93-.29-2.4-.18-.12.03-1.03,1.86-1.7,1.86-.21,0-.98-.74-1.09-.92-.17-.28-.29-1.06-.34-1.09-.17-.12-1.74.53-2.17.33Z" fill="#f3c731"/>
          <path d="M10.12,90.11c.42-.43.85,0,1.27-.02,3.49-.07,7.35-.42,10.86-.15.68.05,1.11.08.93.84l-12.94.08c-.36-.03-.23-.47-.13-.75Z" fill="#c5cfd4"/>
          <path d="M23.85,91.11c.01.09-.03.31,0,.33.13.1,1.66-.07,2.01,0,.04.12-.17.15-.17.17l-.12.33H8.14l-.2-.33c.54-.4,1.47.07,2.01-.5,4.57-.1,9.33-.08,13.9,0Z" fill="#dd8725"/>
          <path d="M20.5,87.77c.13.69.98.95,1.17,1.67-1.18-.02-2.65.13-3.78,0-.25-.03-.42-.02-.58-.26.19-.15,1.16-1.39,1.29-1.42.52-.11,1.31.03,1.89,0Z" fill="#ec652b"/>
          <path d="M12.8,87.77c.46.09,1.67-.15,1.98.03.08.05,1.01,1.51.87,1.64-1.39.02-2.79-.02-4.19,0,.43-.59,1-1,1.34-1.67Z" fill="#eb652b"/>
          <path d="M10.12,90.11c.07.26-.23.64.25.67,4.16.28,8.63-.21,12.82,0l-13.23.17c0-.35-.09-.58.17-.84Z" fill="#cfd0c8"/>
          <path d="M25.7,91.62c0,.17.45,1.51-.08,1.51H8.02c-.34,0-.33-1.27-.08-1.51h17.76Z" fill="#f4c332"/>
          <path d="M15.98,79.06c1-.36,1.22-.27,1.19.77.05-.38.21-.63.48-.77.3-.27.61-.01.67.33,1.3.89.43,1.59-.67,2.01-.13-.03-.35,0-.5,0-.57.15-1.13.38-1.68.67-.02.02-.17-.04-.28.05-.08.07-.08.32-.22.45-.77-.07-1.52-.31-2.24-.72l-.1.22c-.07-.03-.24.05-.37,0-.48-.21-.54-.86-.46-1.33.12-.42.58-.63,1.4-.61.19-.33.4-.46.61-.39q.5.13,0,0c-.43.05-.34-.36.01-.53.77.08,1.48.01,2.17-.14Z" fill="#d79328"/>
          <path d="M17.66,78.39c.32-.09,1.64-.05,1.98.14.56.3.82.75.92,1.35.73.52,1.36.99.62,1.85,0,.09-.14.23-.17.33-.1-.07-.23-.11-.34-.17l-.21-.08c-.1-.51-.16-.8-.63-1.09-.27,0-.33-.23-.17-.66l-.16-.51c-.34.27-1.05.33-1.17-.17-.69-.1-.38-.16-.67-.33-.21.24-.51.17-.87-.23-.06.05-.65.41-.8.23-.08.05-.12.29-.29.33-.52.11-1.31-.12-1.78,0-.21.05-.07.28-.1.34-.65,1.13-.59.45-1.56.67-.03,0-.19.2-.45.33-.04.02-.11-.02-.17,0-.6-.85.48-.99,1.17-1.03.32-.95,1.03-1.26,2.15-.94.37-.33.72-.5,1.04-.54.51-.82,1.24-.59,1.68.17Z" fill="#e38627"/>
          <path d="M17.32,81.74c.59.6.89,1.28.54,2.13-.46,1.12-1.19.9-2.05.54-.38-.65-.34-1.12-.34-1.84.17-.74,1.19-1.38,1.84-.84Z" fill="#c5cfd4"/>
          <path d="M19.83,80.74c.75-.3.96.58.84,1.17-.11.53-1.19.71-1.55.85-.13.05-.66.96-.63-.18.25-.3,1.23-.83,1.68-1,.11-.04-1.88,1.16-2.01.67-.02-.11.02-.24,0-.33.27-.39,1.23-1.33,1.68-1.17Z" fill="#f5bd38"/>
          <path d="M19.5,79.56c.61.88-.67,2.05-1.51,2.01-.04-.04-.28-.15-.34-.17.62-.47,2.09-1.87.34-1.01l.33-1c.4.06.74-.09,1.17.17Z" fill="#f5bb38"/>
          <path d="M19.83,80.74c-.23.09-1.08,1.22-1.68,1.17-.01-.06-.13-.3-.17-.33.64-.65,1.65-.84,1.51-2.01.49.29.33.66.34,1.17Z" fill="#d79328"/>
          <path d="M18.16,82.24l2.01-.67c-.3.55-1.1.77-1.68,1-.1.04-.3.21-.33.17-.02-.16.02-.34,0-.5Z" fill="#d79328"/>
          <path d="M17.15,81.41c.07.09.1.26.17.33-1.05-.19-1.21.17-1.84.84,0-.17,0-.33,0-.5.73-.62.61-.67,1.68-.67Z" fill="#d4b285"/>
          <path d="M24.52,74.21c-.17.59-.25,1.06-.34,1.67l-.23.45c-.76.26-.47.86.06,1.22-.02.1.03.24,0,.33-.1.34-1.32,2.3-1.6,2.67-.33.43-.81.86-1.25,1.18.16-1.46-.51-1.07-.91-1.68-.12-.18-.08-.47-.19-.65-.63-.99-1.1-.53-1.96-.73-.18-.04-.32-.25-.45-.29-.68-.39-.58-.67-.32-1.31,2.23-2.21-2.09-3.84-1.47-.67.92.8.96,1.4.11,1.81-.94,1.62-1.68.41-2.48.87-.12.07-.3.75-.54.89-.42.24-1.29-.15-1.34.75-.06.02-.14-.02-.17,0-.64-1.19-1.39-2.04-1.84-3.35.49-.96.38-1.4-.34-1.34-.37-.51-.08-1.37-.17-2.01.62-.01.84-.27,1.27-.33,3.96-.5,10.41-.67,14.14.49Z" fill="#ee4c28"/>
          <path d="M9.28,76.05c0-.19-.08-.57.08-.67.66.8,1.19.42.73,1.58-.1.25-.12.51-.48.43-.2-.57-.33-.61-.34-1.34Z" fill="#f9ab47"/>
          <path d="M12.63,82.07c-.87-.87-.91-1.66.55-1.47l1.79,1.3c-.62.02-.97-.45-1.59-.51-.34-.03-.49-.08-.42.34l2.01.84c-.43.41-1.82-.29-2.35-.5Z" fill="#f5bf38"/>
          <path d="M24.19,75.88c-.07.5-.06,1.21-.17,1.67-.32.17-.31.3-.55-.04-.66-.93-.18-1.31.72-1.64Z" fill="#fab34a"/>
          <path d="M17.66,70.69c1.14-.02,2.29.01,3.43,0l-.25.34-3.18-.33Z" fill="#cf942d"/>
          <path d="M11.29,73.2c-.52.06-1.12.11-1.68.17.4-.36,1.15-.1,1.68-.17Z" fill="#cf942d"/>
          <path d="M20.17,67.01c.34.42.92.47,1.34,1.17.13.43.24.84.3,1.21.6-.7,1.06-.77,1.37-.21.02,0,.23.12.34.17l.5,1.51c-.41.1-.82-.14-1.17-.17-.34-.11-.46-.21-.14-.18-.74.02-1.48-.03-2.21-.15-.11,0-.22,0-.34,0-.44-.05-.43-.21,0-.33,1.19-.42.81-2.15-.47-2.02l-2.08-.66c-1.07-.15-1.53-.13-2.23.66-1.8-.31-2.4.27-1.8,1.75l-.28.27c-.52.45-1.3-.06-.5-.5-.23-.71-.66-1.06.06-1.78.65-.65,1.53-.46,2.3-.63.38-.08.61-.38,1.07-.44,1.47-.2,2.53.47,3.94.34Z" fill="#cfd0c8"/>
          <path d="M12.8,69.52c.04.12-.05.45,0,.5.03.03.37,0,.5,0,0-.15.07-.26.2-.32l1.45.02c.76-.62,2.66-.61,3.42,0l1.5-.02.29.32v.33c-2.7-.07-5.26-.17-7.95,0-.35.02-2.02.41-2.09.33-.1-.48.36-1.31.83-1.44.53-.15,1.12.87,1.85.27Z" fill="#d2c9b8"/>
          <path d="M20.5,70.36c.38,0,2.25-.07,2.35,0,.03.02-.02.24,0,.33-.75-.06-1.64.04-2.35-.33Z" fill="#d2c9b8"/>
          <path d="M21.84,67.68c.23.36.2.56.17,1,.65-.56.65-.28,1.17,0v.5c-.99-.22-.86.43-1.12.5-.95.24-.44-.8-.55-1.5.14.24.22.37.17.67h.16s0-1.17,0-1.17Z" fill="#e0a032"/>
          <path d="M16.57,85.93c.59-.12.55,1.59.16,1.67-.59.12-.55-1.59-.16-1.67Z" fill="#d89e19"/>
          <path d="M17.66,79.06c.04.62-.28,1.36-.84,1.67v-1.67c-.72-.01-.48.84-.51,1.34l-.33-1.34c.21-.14.57-.45.78-.47.3-.03.64.31.9.47Z" fill="#f6c037"/>
          <path d="M13.8,79.73c.26-.56,2.11.02,1.84,1l-1.01-.42.67.92c-.4.31-1.59-1.33-1.51-1.5Z" fill="#f4ba38"/>
          <path d="M15.98,78.22c.76-1.31-.26-.95-.46-1.8-.08-.34-.11-.93-.04-1.26.07-.31,1.12-.97,1.55-.92.27.03,1.36,1.12,1.38,1.39.07,1.04-1.46,1.6-.77,2.76-.62-.22-.92-.54-1.68-.17Z" fill="#e15e20"/>
          <path d="M13.3,70.02c-.1-.47-.28-1.06-.24-1.54.1-1.21,1.57-.66,2.3-.81.15-.03.43-.63.58-.66.31-.06,1.32-.06,1.65-.02.28.04,1.69.55,2.18.68.26.07.75-.07.89.03.07.05.08.38.19.53.08.11.3.1.33.23.1.44-.06,1.08,0,1.56-.33,0-.67-.01-1.01,0-.52.02-1.64.1-2.06,0-.14-.03-.05-.3-.36-.34-.44-.06-1.76-.06-2.2,0-.31.04-.22.31-.36.34-.36.08-1.46.04-1.89,0Z" fill="#c1d3df"/>
          <path d="M16.76,74.55c.31-.05,1.22,1.04,1.22,1.41s-.95,1.5-1.24,1.42c-.16-.39-1.1-1.11-1.1-1.42,0-.19.94-1.38,1.12-1.41Z" fill="#f5c433"/>
        </g>
        <g>
          <path d="M45.58,64.33c.07-.05.16-.3.33-.41.64-.41,1.98-.43,2.52.16.21.23.3.73.5.84.22.13,1.23.19,1.68.33,1.92.61,3.48,1.94,4.66,3.54.4.54,1.16,2.12,1.46,2.39.64.58,1.47.14,1.59,1.6.21,2.58-1.67,1.39-3.19,1.76-.4,0-.41-.02-.17-.33-.47-.14-.46-.36,0-.5l.23-.3c1.95.6,2.61.27,1.98-.98-1.73-.39-3.48-.69-5.27-.89-.3-.03-.45-.17-.46-.5l.05-.21,2.56.13c.25-.06.12-1.12-.44-1.6-.31.34-.38.28-.34-.17-.49-.08-.45-.38,0-.5.46-.41.99.32,1.26.72.42,1.63,1.82,2.16.34.24-1.3-1.68-3.14-3.21-5.22-3.77-1.11-.3-1,.63.35.17.59.09,2.26.94,1.93,1.63.01.5.12.87.31,1.13-.34.52-.56.31-.65-.63-.3.06-.57-.14-.8-.6-.55-.06-.73-.25-.54-.57-1-.23-3.05-.62-4.53-.46l-.16-.21c-1.77-1.3-4.74,1.38-5.87,2.81-.54.69-1.36,2.26-.26.75l.44-.05.22.07c-.22.94.16,1.02,1.01.88l.1.22.02.23c-1.39.33-2.83.63-4.32.9-.46,1.19.34,1.5,2.38.91l.24.31c.45.25.17.47-.84.67.37.07.37.59,0,.67-.36-1.07-.87-.38-1.77-.49-1.32-.16-1.48-2.35-.4-2.93.29-.16.69-.1.95-.31.24-.19,1.25-2.14,1.73-2.71,1.07-1.29,2.5-2.24,4.02-2.93,1.02-.08,1.8-.42,2.35-1Z" fill="#cf942d"/>
          <path d="M43.06,87.26c.39-.46,1.99-.84,2.47-.42.61,2.07,1.33,2.31,2.41.23.59-.61,2.16-.16,2.82.19.47-.04.49.22.17.5,0,.35-.17.27-.34,0l-.2.34c-1.12-.29-1.93.04-2.43.99,1.14.06,2.29.08,3.44.04l.36.3c0-.43.22-.48.5-.17.16,0,1.14.23,1.27.32.56.39.14,1.23.74,1.52-.1.26-.23.26-.34,0-.64.22-1.3.23-1.97.24-3.32,0-6.64,0-9.95,0-.67,0-1.33-.02-1.97-.23-.38.14-.89.29-1.17,0,1.19-.17.4-.77.71-1.3.11-.19,1.38-.53,1.64-.54.26-.36.38-.25.34.17,1.16-.35,2.4-.47,3.72-.36-.28-.98-1-1.3-2.18-.96l-.21-.35c-.14-.05-.14-.1,0-.17-.54-.18-.31-.62.17-.33Z" fill="#dd8725"/>
          <path d="M38.88,91.11c.39-.02.78,0,1.17,0,.09.2.06.32-.13.34l-1.88.17c.33.27.19,1.1.08,1.51l.12-.33h17.27l.2.33c-.22-.67-.19-1.17.08-1.51-.66-.07-1.37-.11-2.13-.11-.18-.15.06-.34.29-.39.11,0,.22,0,.34,0,.55.01,1.84-.19,2.09.33.21.44.28,2.14-.51,2.17l-18.17-.08c-.76-.34-.74-2.13.12-2.39.33-.1.71-.02,1.05-.04Z" fill="#cf9433"/>
          <path d="M47.75,81.41c.28-.14.43-.18.34.17.41-.25.55.04.17.33.36.08.3.17,0,.33.46.14.19.55.09.29-.05-.13.1-.13.25.04.54.2,1.36-.29,1.83-.67h.35c.24-.24.39-.17.34.17.23-.24.33-.13.17.17-.13.44-.97,1.02-1.47,1.22-1.49.1-1.35.66-.06,1.14l.19.48c.48,1.56,1.79,1.36,2,1.68.24.35-.53.91-.83,1-.05.15-.11.15-.17,0-.12-.15-.12-.33-.17-.5-.91-.41-1.48-.91-1.77-1.9-.12-.18-.64-.28-.62-.26,1.44,1.44-.78,1.61-1.39.33l-.4.12c-.73.62-2.13,1.35-1.79-.19.87-.65.43-.59-.17-.13-.41.86-.88,1.48-1.58,2.03-.23.02-.13.24-.17.33-.18.34-.36.41-.5,0-.2-.06-.71-.52-.66-.74.42-.54,1.03-.47,1.51-1.01.38-.43.51-.9,1-1.43.17-.24.87-.6,1.01-.33.14-.24.36-.13.67.33.08-.13.2-.25.34-.22,1.38.22,1.65-.11,1.41-1.55-.3-.34-.38-.64-.24-.9-.37-.11-.42-.22-.17-.33.14-.47.38-.48.5,0Z" fill="#cf9433"/>
          <path d="M39.21,74.04c.54.07.43,1.18.08,1.44l.08.56c.39.2.7,1.01.34,1.34l.44.21c.45.92.96,1.81,1.53,2.67l-.12.47c.31.06.19.58-.17.33-1.66-2.05-2.82-3.48-2.68-6.36,0-.2-.04-.52,0-.67.18-.16.4-.23.5,0Z" fill="#a42f28"/>
          <path d="M54.45,78.22c-.42,1.32-1.56,2.84-2.51,3.85-.29.24-.52.3-.67.17-.06-.04-.11-.13-.17-.17-.25-.18-.14-.44.17-.33l.19-.58c.94-.93,1.7-2.01,2.28-3.23l.38-.04c.25-.33.36-.21.34.33Z" fill="#ae2c28"/>
          <path d="M41.89,80.74c.05.68.32,1.13.84,1.34l.13-.19c.71.38,1.45.61,2.21.69-.49-.43.21-1.16.5-.5.19.08.19.25,0,.5.44.19.56,1.46.34,1.84-.11-.05-.65-.3-.67-.33-.22.05-.29-.09-.21-.43-.65-.4-1.36-.7-2.14-.91-1.03-.66-.86-.87-1.51-1.67.21-.02.14-.31.17-.33.06-.15.11-.15.17,0,.04-.15.1-.15.17,0Z" fill="#ca943e"/>
          <path d="M54.96,74.21s.17.15.17.33c-.02.79-.42,2.89-.67,3.68l-.34-.33c-.28,0-.28-.1,0-.33-.49-.26-.31-1.4.17-1.67-.49-.32-.24-1.58.34-1.67,0-.36.23-.35.34,0Z" fill="#a1351f"/>
          <path d="M51.94,82.07c-.3.32-1.89,1.61-2.13,1.67-.27.07-.6-.02-.89,0-.4.31.91.6.98.7.11.16-.02.48.03.64-.2-.42-1.75-.92-1.67-1.25.09-.4,1.33-.53,1.79-.73s.86-.68,1.23-.87c.17-.09.47-.09.67-.17Z" fill="#f9f3db"/>
          <path d="M42.9,87.6s.02.12,0,.17c.39.65-.7,1.52-1.34,1.67-.14,0-.31-.17-.34-.17l1.17-1.67c.13.04.35-.03.5,0Z" fill="#a63c29"/>
          <path d="M50.94,87.77c.06,0,.12.01.17,0l1.17,1.51s-.22.17-.5.17c-.58-.24-1.69-1.09-1.17-1.67.11,0,.23.02.34,0Z" fill="#a73c24"/>
          <path d="M45.24,84.08l-1.01.33s-.05-.2.04-.29c.14-.12.71-.07.63-.46-.02-.11-1.57-.64-2.01-.92.5.09,2.05.49,2.26.85.1.17.06.45.09.49Z" fill="#efdbad"/>
          <path d="M45.58,64.33c-.02,1.09-1.54.79-2.35,1,.85-.39,1.53-.45,2.35-1Z" fill="#f3e6c3"/>
          <path d="M47.75,70.69l3.09.16.09.17c.31-.29.48-.29.5,0,1.08.52,5.25.57,5.96,1.16.33.27.37,1.58.08,1.78-.21.15-2.08-.19-2.52-.26-.19.19-.4.19-.64.15-4.27-.67-8.27-1.09-12.6-.48l-.33-.17c-.57-.02-1.13.04-1.68.17-.06.15-.11.15-.17,0-.52.05-2.4.39-2.68.26-.45-.22-.47-1.35-.19-1.7.36-.45,3.81-.6,4.54-.9,2.01-.64,4.46-.65,6.53-.33Z" fill="#f2c92e"/>
          <path d="M45.58,66.34c1.39-.11,2.07.12,3.27.33.42.07.97-.08,1.32,0,.2.05.06.3.1.34l-.27.35-2.33-.51c-.9-.1-1.66-.14-2.33.55-1.44-.04-2.97.18-2.29,1.93l-.14.2c-.48,1.02,1.83.7,2.7.45,1.59-.04,3.13.1,4.67.38.1-.24.24-.24.34,0,.74.12,1.49.17,2.25.16l.09.18c.18-.34.39-.3.7-.18-.29-.52-.3-.9-.03-1.16.9.39.68.66.67,1.67h-2.85s-.5,0-.5,0c.12-.26.03-.32-.25-.18l-2.94-.16c-2.19.04-4.35.21-6.53.33h-1.34s0-1.17,0-1.17c-.37-.73,1.05-2.09,1.9-1.8.34-.88,1.17-1.51,2.05-1.78.47-.14,1.54-.41,1.74.06Z" fill="#cc9437"/>
          <path d="M54.96,73.7c.02.16-.03.36,0,.5-.1-.02-.25.03-.34,0l-.52.2c-4.79-1.11-9.84-.9-14.6-.05-.13.02-.25-.16-.29-.31-.17,0-.34,0-.5,0,.16-.57.99-.06.84-.67.06,0,.11,0,.17,0,.55-.13,1.11-.18,1.68-.17,5.57-.59,8.09-.39,13.57.5Z" fill="#e37e26"/>
          <path d="M45.58,66.34c-.23.02-1.03.15-1.38.2-.94.13-2.41,1.2-2.14,2.31-.28.04-.16-.41-.43-.5-.7-.22-1.45,1.09-1.74,1.5-.45.62-.55,1.18-1.51,1,.52-1.61,2.28-3.52,3.76-4.36.72-.41,3.54-1.72,3.44-.16Z" fill="#f5c536"/>
          <path d="M51.94,67.68c-.31-.49-1.42-1.21-1.97-1.3-.36-.06-.93.28-1.19.11-.24-.15-.38-.99.39-.99,2.3,0,6.16,3.32,6.79,5.45.13.44-.71.27-.93.09-.52-.4-.37-1.61-1.74-2.36-.2.29-.38.2-.6,0-.47.42-.71.09-.74-1.01Z" fill="#f7c537"/>
          <path d="M46.53,64.19c2.27-.69,2.29,2.64,0,1.94-.78-.24-.79-1.7,0-1.94Z" fill="#f3c732"/>
          <path d="M43.06,87.26c-.86-.54-.1-.42.15-.6.84-.61.79-1.3,1.27-1.75.37-.34,1.15-.6,1.26.09-.04.2-1.04.55-.67.92s1.29-1.03,2.07-.8c.33.1.54,1.15,1.44.8.12-.49-.75-.52-.67-.92.1-.5,1.08-.18,1.35.16.2.25.22.63.42.92.32.46.81.61,1.1.93.17.18-.03.24-.02.25-.65.22-1.93-.29-2.4-.18-.12.03-1.03,1.86-1.7,1.86-.21,0-.98-.74-1.09-.92-.17-.28-.29-1.06-.34-1.09-.17-.12-1.74.53-2.17.33Z" fill="#f3c731"/>
          <path d="M40.22,90.11c.42-.43.85,0,1.27-.02,3.49-.07,7.35-.42,10.86-.15.68.05,1.11.08.93.84l-12.94.08c-.36-.03-.23-.47-.13-.75Z" fill="#c5cfd4"/>
          <path d="M53.95,91.11c.01.09-.03.31,0,.33.13.1,1.66-.07,2.01,0,.04.12-.17.15-.17.17l-.12.33h-17.44l-.2-.33c.54-.4,1.47.07,2.01-.5,4.57-.1,9.33-.08,13.9,0Z" fill="#dd8725"/>
          <path d="M50.6,87.77c.13.69.98.95,1.17,1.67-1.18-.02-2.65.13-3.78,0-.25-.03-.42-.02-.58-.26.19-.15,1.16-1.39,1.29-1.42.52-.11,1.31.03,1.89,0Z" fill="#ec652b"/>
          <path d="M42.9,87.77c.46.09,1.67-.15,1.98.03.08.05,1.01,1.51.87,1.64-1.39.02-2.79-.02-4.19,0,.43-.59,1-1,1.34-1.67Z" fill="#eb652b"/>
          <path d="M40.22,90.11c.07.26-.23.64.25.67,4.16.28,8.63-.21,12.82,0l-13.23.17c0-.35-.09-.58.17-.84Z" fill="#cfd0c8"/>
          <path d="M55.79,91.62c0,.17.45,1.51-.08,1.51h-17.59c-.34,0-.33-1.27-.08-1.51h17.76Z" fill="#f4c332"/>
          <path d="M46.08,79.06c1-.36,1.22-.27,1.19.77.05-.38.21-.63.48-.77.3-.27.61-.01.67.33,1.3.89.43,1.59-.67,2.01-.13-.03-.35,0-.5,0-.57.15-1.13.38-1.68.67-.02.02-.17-.04-.28.05-.08.07-.08.32-.22.45-.77-.07-1.52-.31-2.24-.72l-.1.22c-.07-.03-.24.05-.37,0-.48-.21-.54-.86-.46-1.33.12-.42.58-.63,1.4-.61.19-.33.4-.46.61-.39q.5.13,0,0c-.43.05-.34-.36.01-.53.77.08,1.48.01,2.17-.14Z" fill="#d79328"/>
          <path d="M47.75,78.39c.32-.09,1.64-.05,1.98.14.56.3.82.75.92,1.35.73.52,1.36.99.62,1.85,0,.09-.14.23-.17.33-.1-.07-.23-.11-.34-.17l-.21-.08c-.1-.51-.16-.8-.63-1.09-.27,0-.33-.23-.17-.66l-.16-.51c-.34.27-1.05.33-1.17-.17-.69-.1-.38-.16-.67-.33-.21.24-.51.17-.87-.23-.06.05-.65.41-.8.23-.08.05-.12.29-.29.33-.52.11-1.31-.12-1.78,0-.21.05-.07.28-.1.34-.65,1.13-.59.45-1.56.67-.03,0-.19.2-.45.33-.04.02-.11-.02-.17,0-.6-.85.48-.99,1.17-1.03.32-.95,1.03-1.26,2.15-.94.37-.33.72-.5,1.04-.54.51-.82,1.24-.59,1.68.17Z" fill="#e38627"/>
          <path d="M47.42,81.74c.59.6.89,1.28.54,2.13-.46,1.12-1.19.9-2.05.54-.38-.65-.34-1.12-.34-1.84.17-.74,1.19-1.38,1.84-.84Z" fill="#c5cfd4"/>
          <path d="M49.93,80.74c.75-.3.96.58.84,1.17-.11.53-1.19.71-1.55.85-.13.05-.66.96-.63-.18.25-.3,1.23-.83,1.68-1,.11-.04-1.88,1.16-2.01.67-.02-.11.02-.24,0-.33.27-.39,1.23-1.33,1.68-1.17Z" fill="#f5bd38"/>
          <path d="M49.6,79.56c.61.88-.67,2.05-1.51,2.01-.04-.04-.28-.15-.34-.17.62-.47,2.09-1.87.34-1.01l.33-1c.4.06.74-.09,1.17.17Z" fill="#f5bb38"/>
          <path d="M49.93,80.74c-.23.09-1.08,1.22-1.68,1.17-.01-.06-.13-.3-.17-.33.64-.65,1.65-.84,1.51-2.01.49.29.33.66.34,1.17Z" fill="#d79328"/>
          <path d="M48.26,82.24l2.01-.67c-.3.55-1.1.77-1.68,1-.1.04-.3.21-.33.17-.02-.16.02-.34,0-.5Z" fill="#d79328"/>
          <path d="M47.25,81.41c.07.09.1.26.17.33-1.05-.19-1.21.17-1.84.84,0-.17,0-.33,0-.5.73-.62.61-.67,1.68-.67Z" fill="#d4b285"/>
          <path d="M54.62,74.21c-.17.59-.25,1.06-.34,1.67l-.23.45c-.76.26-.47.86.06,1.22-.02.1.03.24,0,.33-.1.34-1.32,2.3-1.6,2.67-.33.43-.81.86-1.25,1.18.16-1.46-.51-1.07-.91-1.68-.12-.18-.08-.47-.19-.65-.63-.99-1.1-.53-1.96-.73-.18-.04-.32-.25-.45-.29-.68-.39-.58-.67-.32-1.31,2.23-2.21-2.09-3.84-1.47-.67.92.8.96,1.4.11,1.81-.94,1.62-1.68.41-2.48.87-.12.07-.3.75-.54.89-.42.24-1.29-.15-1.34.75-.06.02-.14-.02-.17,0-.64-1.19-1.39-2.04-1.84-3.35.49-.96.38-1.4-.34-1.34-.37-.51-.08-1.37-.17-2.01.62-.01.84-.27,1.27-.33,3.96-.5,10.41-.67,14.14.49Z" fill="#ee4c28"/>
          <path d="M39.38,76.05c0-.19-.08-.57.08-.67.66.8,1.19.42.73,1.58-.1.25-.12.51-.48.43-.2-.57-.33-.61-.34-1.34Z" fill="#f9ab47"/>
          <path d="M42.73,82.07c-.87-.87-.91-1.66.55-1.47l1.79,1.3c-.62.02-.97-.45-1.59-.51-.34-.03-.49-.08-.42.34l2.01.84c-.43.41-1.82-.29-2.35-.5Z" fill="#f5bf38"/>
          <path d="M54.29,75.88c-.07.5-.06,1.21-.17,1.67-.32.17-.31.3-.55-.04-.66-.93-.18-1.31.72-1.64Z" fill="#fab34a"/>
          <path d="M47.75,70.69c1.14-.02,2.29.01,3.43,0l-.25.34-3.18-.33Z" fill="#cf942d"/>
          <path d="M41.39,73.2c-.52.06-1.12.11-1.68.17.4-.36,1.15-.1,1.68-.17Z" fill="#cf942d"/>
          <path d="M50.27,67.01c.34.42.92.47,1.34,1.17.13.43.24.84.3,1.21.6-.7,1.06-.77,1.37-.21.02,0,.23.12.34.17l.5,1.51c-.41.1-.82-.14-1.17-.17-.34-.11-.46-.21-.14-.18-.74.02-1.48-.03-2.21-.15-.11,0-.22,0-.34,0-.44-.05-.43-.21,0-.33,1.19-.42.81-2.15-.47-2.02l-2.08-.66c-1.07-.15-1.53-.13-2.23.66-1.8-.31-2.4.27-1.8,1.75l-.28.27c-.52.45-1.3-.06-.5-.5-.23-.71-.66-1.06.06-1.78.65-.65,1.53-.46,2.3-.63.38-.08.61-.38,1.07-.44,1.47-.2,2.53.47,3.94.34Z" fill="#cfd0c8"/>
          <path d="M42.9,69.52c.04.12-.05.45,0,.5.03.03.37,0,.5,0,0-.15.07-.26.2-.32l1.45.02c.76-.62,2.66-.61,3.42,0l1.5-.02.29.32v.33c-2.7-.07-5.26-.17-7.95,0-.35.02-2.02.41-2.09.33-.1-.48.36-1.31.83-1.44.53-.15,1.12.87,1.85.27Z" fill="#d2c9b8"/>
          <path d="M50.6,70.36c.38,0,2.25-.07,2.35,0,.03.02-.02.24,0,.33-.75-.06-1.64.04-2.35-.33Z" fill="#d2c9b8"/>
          <path d="M51.94,67.68c.23.36.2.56.17,1,.65-.56.65-.28,1.17,0v.5c-.99-.22-.86.43-1.12.5-.95.24-.44-.8-.55-1.5.14.24.22.37.17.67h.16s0-1.17,0-1.17Z" fill="#e0a032"/>
          <path d="M46.67,85.93c.59-.12.55,1.59.16,1.67-.59.12-.55-1.59-.16-1.67Z" fill="#d89e19"/>
          <path d="M47.75,79.06c.04.62-.28,1.36-.84,1.67v-1.67c-.72-.01-.48.84-.51,1.34l-.33-1.34c.21-.14.57-.45.78-.47.3-.03.64.31.9.47Z" fill="#f6c037"/>
          <path d="M43.9,79.73c.26-.56,2.11.02,1.84,1l-1.01-.42.67.92c-.4.31-1.59-1.33-1.51-1.5Z" fill="#f4ba38"/>
          <path d="M46.08,78.22c.76-1.31-.26-.95-.46-1.8-.08-.34-.11-.93-.04-1.26.07-.31,1.12-.97,1.55-.92.27.03,1.36,1.12,1.38,1.39.07,1.04-1.46,1.6-.77,2.76-.62-.22-.92-.54-1.68-.17Z" fill="#e15e20"/>
          <path d="M43.4,70.02c-.1-.47-.28-1.06-.24-1.54.1-1.21,1.57-.66,2.3-.81.15-.03.43-.63.58-.66.31-.06,1.32-.06,1.65-.02.28.04,1.69.55,2.18.68.26.07.75-.07.89.03.07.05.08.38.19.53.08.11.3.1.33.23.1.44-.06,1.08,0,1.56-.33,0-.67-.01-1.01,0-.52.02-1.64.1-2.06,0-.14-.03-.05-.3-.36-.34-.44-.06-1.76-.06-2.2,0-.31.04-.22.31-.36.34-.36.08-1.46.04-1.89,0Z" fill="#c1d3df"/>
          <path d="M46.85,74.55c.31-.05,1.22,1.04,1.22,1.41s-.95,1.5-1.24,1.42c-.16-.39-1.1-1.11-1.1-1.42,0-.19.94-1.38,1.12-1.41Z" fill="#f5c433"/>
        </g>
        <g>
          <path d="M30.5,33.71c.07-.05.16-.3.33-.41.64-.41,1.98-.43,2.52.16.21.23.3.73.5.84.22.13,1.23.19,1.68.33,1.92.61,3.48,1.94,4.66,3.54.4.54,1.16,2.12,1.46,2.39.64.58,1.47.14,1.59,1.6.21,2.58-1.67,1.39-3.19,1.76-.4,0-.41-.02-.17-.33-.47-.14-.46-.36,0-.5l.23-.3c1.95.6,2.61.27,1.98-.98-1.73-.39-3.48-.69-5.27-.89-.3-.03-.45-.17-.46-.5l.05-.21,2.56.13c.25-.06.12-1.12-.44-1.6-.31.34-.38.28-.34-.17-.49-.08-.45-.38,0-.5.46-.41.99.32,1.26.72.42,1.63,1.82,2.16.34.24-1.3-1.68-3.14-3.21-5.22-3.77-1.11-.3-1,.63.35.17.59.09,2.26.94,1.93,1.63.01.5.12.87.31,1.13-.34.52-.56.31-.65-.63-.3.06-.57-.14-.8-.6-.55-.06-.73-.25-.54-.57-1-.23-3.05-.62-4.53-.46l-.16-.21c-1.77-1.3-4.74,1.38-5.87,2.81-.54.69-1.36,2.26-.26.75l.44-.05.22.07c-.22.94.16,1.02,1.01.88l.1.22.02.23c-1.39.33-2.83.63-4.32.9-.46,1.19.34,1.5,2.38.91l.24.31c.45.25.17.47-.84.67.37.07.37.59,0,.67-.36-1.07-.87-.38-1.77-.49-1.32-.16-1.48-2.35-.4-2.93.29-.16.69-.1.95-.31.24-.19,1.25-2.14,1.73-2.71,1.07-1.29,2.5-2.24,4.02-2.93,1.02-.08,1.8-.42,2.35-1Z" fill="#cf942d"/>
          <path d="M27.98,56.64c.39-.46,1.99-.84,2.47-.42.61,2.07,1.33,2.31,2.41.23.59-.61,2.16-.16,2.82.19.47-.04.49.22.17.5,0,.35-.17.27-.34,0l-.2.34c-1.12-.29-1.93.04-2.43.99,1.14.06,2.29.08,3.44.04l.36.3c0-.43.22-.48.5-.17.16,0,1.14.23,1.27.32.56.39.14,1.23.74,1.52-.1.26-.23.26-.34,0-.64.22-1.3.23-1.97.24-3.32,0-6.64,0-9.95,0-.67,0-1.33-.02-1.97-.23-.38.14-.89.29-1.17,0,1.19-.17.4-.77.71-1.3.11-.19,1.38-.53,1.64-.54.26-.36.38-.25.34.17,1.16-.35,2.4-.47,3.72-.36-.28-.98-1-1.3-2.18-.96l-.21-.35c-.14-.05-.14-.1,0-.17-.54-.18-.31-.62.17-.33Z" fill="#dd8725"/>
          <path d="M23.8,60.49c.39-.02.78,0,1.17,0,.09.2.06.32-.13.34l-1.88.17c.33.27.19,1.1.08,1.51l.12-.33h17.27l.2.33c-.22-.67-.19-1.17.08-1.51-.66-.07-1.37-.11-2.13-.11-.18-.15.06-.34.29-.39.11,0,.22,0,.34,0,.55.01,1.84-.19,2.09.33.21.44.28,2.14-.51,2.17l-18.17-.08c-.76-.34-.74-2.13.12-2.39.33-.1.71-.02,1.05-.04Z" fill="#cf9433"/>
          <path d="M32.67,50.78c.28-.14.43-.18.34.17.41-.25.55.04.17.33.36.08.3.17,0,.33.46.14.19.55.09.29-.05-.13.1-.13.25.04.54.2,1.36-.29,1.83-.67h.35c.24-.24.39-.17.34.17.23-.24.33-.13.17.17-.13.44-.97,1.02-1.47,1.22-1.49.1-1.35.66-.06,1.14l.19.48c.48,1.56,1.79,1.36,2,1.68.24.35-.53.91-.83,1-.05.15-.11.15-.17,0-.12-.15-.12-.33-.17-.5-.91-.41-1.48-.91-1.77-1.9-.12-.18-.64-.28-.62-.26,1.44,1.44-.78,1.61-1.39.33l-.4.12c-.73.62-2.13,1.35-1.79-.19.87-.65.43-.59-.17-.13-.41.86-.88,1.48-1.58,2.03-.23.02-.13.24-.17.33-.18.34-.36.41-.5,0-.2-.06-.71-.52-.66-.74.42-.54,1.03-.47,1.51-1.01.38-.43.51-.9,1-1.43.17-.24.87-.6,1.01-.33.14-.24.36-.13.67.33.08-.13.2-.25.34-.22,1.38.22,1.65-.11,1.41-1.55-.3-.34-.38-.64-.24-.9-.37-.11-.42-.22-.17-.33.14-.47.38-.48.5,0Z" fill="#cf9433"/>
          <path d="M24.13,43.42c.54.07.43,1.18.08,1.44l.08.56c.39.2.7,1.01.34,1.34l.44.21c.45.92.96,1.81,1.53,2.67l-.12.47c.31.06.19.58-.17.33-1.66-2.05-2.82-3.48-2.68-6.36,0-.2-.04-.52,0-.67.18-.16.4-.23.5,0Z" fill="#a42f28"/>
          <path d="M39.37,47.6c-.42,1.32-1.56,2.84-2.51,3.85-.29.24-.52.3-.67.17-.06-.04-.11-.13-.17-.17-.25-.18-.14-.44.17-.33l.19-.58c.94-.93,1.7-2.01,2.28-3.23l.38-.04c.25-.33.36-.21.34.33Z" fill="#ae2c28"/>
          <path d="M26.81,50.11c.05.68.32,1.13.84,1.34l.13-.19c.71.38,1.45.61,2.21.69-.49-.43.21-1.16.5-.5.19.08.19.25,0,.5.44.19.56,1.46.34,1.84-.11-.05-.65-.3-.67-.33-.22.05-.29-.09-.21-.43-.65-.4-1.36-.7-2.14-.91-1.03-.66-.86-.87-1.51-1.67.21-.02.14-.31.17-.33.06-.15.11-.15.17,0,.04-.15.1-.15.17,0Z" fill="#ca943e"/>
          <path d="M39.88,43.59s.17.15.17.33c-.02.79-.42,2.89-.67,3.68l-.34-.33c-.28,0-.28-.1,0-.33-.49-.26-.31-1.4.17-1.67-.49-.32-.24-1.58.34-1.67,0-.36.23-.35.34,0Z" fill="#a1351f"/>
          <path d="M36.86,51.45c-.3.32-1.89,1.61-2.13,1.67-.27.07-.6-.02-.89,0-.4.31.91.6.98.7.11.16-.02.48.03.64-.2-.42-1.75-.92-1.67-1.25.09-.4,1.33-.53,1.79-.73s.86-.68,1.23-.87c.17-.09.47-.09.67-.17Z" fill="#f9f3db"/>
          <path d="M27.82,56.98s.02.12,0,.17c.39.65-.7,1.52-1.34,1.67-.14,0-.31-.17-.34-.17l1.17-1.67c.13.04.35-.03.5,0Z" fill="#a63c29"/>
          <path d="M35.86,57.15c.06,0,.12.01.17,0l1.17,1.51s-.22.17-.5.17c-.58-.24-1.69-1.09-1.17-1.67.11,0,.23.02.34,0Z" fill="#a73c24"/>
          <path d="M30.16,53.46l-1.01.33s-.05-.2.04-.29c.14-.12.71-.07.63-.46-.02-.11-1.57-.64-2.01-.92.5.09,2.05.49,2.26.85.1.17.06.45.09.49Z" fill="#efdbad"/>
          <path d="M30.5,33.71c-.02,1.09-1.54.79-2.35,1,.85-.39,1.53-.45,2.35-1Z" fill="#f3e6c3"/>
          <path d="M32.67,40.07l3.09.16.09.17c.31-.29.48-.29.5,0,1.08.52,5.25.57,5.96,1.16.33.27.37,1.58.08,1.78-.21.15-2.08-.19-2.52-.26-.19.19-.4.19-.64.15-4.27-.67-8.27-1.09-12.6-.48l-.33-.17c-.57-.02-1.13.04-1.68.17-.06.15-.11.15-.17,0-.52.05-2.4.39-2.68.26-.45-.22-.47-1.35-.19-1.7.36-.45,3.81-.6,4.54-.9,2.01-.64,4.46-.65,6.53-.33Z" fill="#f2c92e"/>
          <path d="M30.5,35.72c1.39-.11,2.07.12,3.27.33.42.07.97-.08,1.32,0,.2.05.06.3.1.34l-.27.35-2.33-.51c-.9-.1-1.66-.14-2.33.55-1.44-.04-2.97.18-2.29,1.93l-.14.2c-.48,1.02,1.83.7,2.7.45,1.59-.04,3.13.1,4.67.38.1-.24.24-.24.34,0,.74.12,1.49.17,2.25.16l.09.18c.18-.34.39-.3.7-.18-.29-.52-.3-.9-.03-1.16.9.39.68.66.67,1.67h-2.85s-.5,0-.5,0c.12-.26.03-.32-.25-.18l-2.94-.16c-2.19.04-4.35.21-6.53.33h-1.34s0-1.17,0-1.17c-.37-.73,1.05-2.09,1.9-1.8.34-.88,1.17-1.51,2.05-1.78.47-.14,1.54-.41,1.74.06Z" fill="#cc9437"/>
          <path d="M39.88,43.08c.02.16-.03.36,0,.5-.1-.02-.25.03-.34,0l-.52.2c-4.79-1.11-9.84-.9-14.6-.05-.13.02-.25-.16-.29-.31-.17,0-.34,0-.5,0,.16-.57.99-.06.84-.67.06,0,.11,0,.17,0,.55-.13,1.11-.18,1.68-.17,5.57-.59,8.09-.39,13.57.5Z" fill="#e37e26"/>
          <path d="M30.5,35.72c-.23.02-1.03.15-1.38.2-.94.13-2.41,1.2-2.14,2.31-.28.04-.16-.41-.43-.5-.7-.22-1.45,1.09-1.74,1.5-.45.62-.55,1.18-1.51,1,.52-1.61,2.28-3.52,3.76-4.36.72-.41,3.54-1.72,3.44-.16Z" fill="#f5c536"/>
          <path d="M36.86,37.06c-.31-.49-1.42-1.21-1.97-1.3-.36-.06-.93.28-1.19.11-.24-.15-.38-.99.39-.99,2.3,0,6.16,3.32,6.79,5.45.13.44-.71.27-.93.09-.52-.4-.37-1.61-1.74-2.36-.2.29-.38.2-.6,0-.47.42-.71.09-.74-1.01Z" fill="#f7c537"/>
          <path d="M31.45,33.57c2.27-.69,2.29,2.64,0,1.94-.78-.24-.79-1.7,0-1.94Z" fill="#f3c732"/>
          <path d="M27.98,56.64c-.86-.54-.1-.42.15-.6.84-.61.79-1.3,1.27-1.75.37-.34,1.15-.6,1.26.09-.04.2-1.04.55-.67.92s1.29-1.03,2.07-.8c.33.1.54,1.15,1.44.8.12-.49-.75-.52-.67-.92.1-.5,1.08-.18,1.35.16.2.25.22.63.42.92.32.46.81.61,1.1.93.17.18-.03.24-.02.25-.65.22-1.93-.29-2.4-.18-.12.03-1.03,1.86-1.7,1.86-.21,0-.98-.74-1.09-.92-.17-.28-.29-1.06-.34-1.09-.17-.12-1.74.53-2.17.33Z" fill="#f3c731"/>
          <path d="M25.14,59.49c.42-.43.85,0,1.27-.02,3.49-.07,7.35-.42,10.86-.15.68.05,1.11.08.93.84l-12.94.08c-.36-.03-.23-.47-.13-.75Z" fill="#c5cfd4"/>
          <path d="M38.87,60.49c.01.09-.03.31,0,.33.13.1,1.66-.07,2.01,0,.04.12-.17.15-.17.17l-.12.33h-17.44l-.2-.33c.54-.4,1.47.07,2.01-.5,4.57-.1,9.33-.08,13.9,0Z" fill="#dd8725"/>
          <path d="M35.52,57.15c.13.69.98.95,1.17,1.67-1.18-.02-2.65.13-3.78,0-.25-.03-.42-.02-.58-.26.19-.15,1.16-1.39,1.29-1.42.52-.11,1.31.03,1.89,0Z" fill="#ec652b"/>
          <path d="M27.82,57.15c.46.09,1.67-.15,1.98.03.08.05,1.01,1.51.87,1.64-1.39.02-2.79-.02-4.19,0,.43-.59,1-1,1.34-1.67Z" fill="#eb652b"/>
          <path d="M25.14,59.49c.07.26-.23.64.25.67,4.16.28,8.63-.21,12.82,0l-13.23.17c0-.35-.09-.58.17-.84Z" fill="#cfd0c8"/>
          <path d="M40.71,61c0,.17.45,1.51-.08,1.51h-17.59c-.34,0-.33-1.27-.08-1.51h17.76Z" fill="#f4c332"/>
          <path d="M31,48.44c1-.36,1.22-.27,1.19.77.05-.38.21-.63.48-.77.3-.27.61-.01.67.33,1.3.89.43,1.59-.67,2.01-.13-.03-.35,0-.5,0-.57.15-1.13.38-1.68.67-.02.02-.17-.04-.28.05-.08.07-.08.32-.22.45-.77-.07-1.52-.31-2.24-.72l-.1.22c-.07-.03-.24.05-.37,0-.48-.21-.54-.86-.46-1.33.12-.42.58-.63,1.4-.61.19-.33.4-.46.61-.39q.5.13,0,0c-.43.05-.34-.36.01-.53.77.08,1.48.01,2.17-.14Z" fill="#d79328"/>
          <path d="M32.67,47.77c.32-.09,1.64-.05,1.98.14.56.3.82.75.92,1.35.73.52,1.36.99.62,1.85,0,.09-.14.23-.17.33-.1-.07-.23-.11-.34-.17l-.21-.08c-.1-.51-.16-.8-.63-1.09-.27,0-.33-.23-.17-.66l-.16-.51c-.34.27-1.05.33-1.17-.17-.69-.1-.38-.16-.67-.33-.21.24-.51.17-.87-.23-.06.05-.65.41-.8.23-.08.05-.12.29-.29.33-.52.11-1.31-.12-1.78,0-.21.05-.07.28-.1.34-.65,1.13-.59.45-1.56.67-.03,0-.19.2-.45.33-.04.02-.11-.02-.17,0-.6-.85.48-.99,1.17-1.03.32-.95,1.03-1.26,2.15-.94.37-.33.72-.5,1.04-.54.51-.82,1.24-.59,1.68.17Z" fill="#e38627"/>
          <path d="M32.34,51.12c.59.6.89,1.28.54,2.13-.46,1.12-1.19.9-2.05.54-.38-.65-.34-1.12-.34-1.84.17-.74,1.19-1.38,1.84-.84Z" fill="#c5cfd4"/>
          <path d="M34.85,50.11c.75-.3.96.58.84,1.17-.11.53-1.19.71-1.55.85-.13.05-.66.96-.63-.18.25-.3,1.23-.83,1.68-1,.11-.04-1.88,1.16-2.01.67-.02-.11.02-.24,0-.33.27-.39,1.23-1.33,1.68-1.17Z" fill="#f5bd38"/>
          <path d="M34.52,48.94c.61.88-.67,2.05-1.51,2.01-.04-.04-.28-.15-.34-.17.62-.47,2.09-1.87.34-1.01l.33-1c.4.06.74-.09,1.17.17Z" fill="#f5bb38"/>
          <path d="M34.85,50.11c-.23.09-1.08,1.22-1.68,1.17-.01-.06-.13-.3-.17-.33.64-.65,1.65-.84,1.51-2.01.49.29.33.66.34,1.17Z" fill="#d79328"/>
          <path d="M33.18,51.62l2.01-.67c-.3.55-1.1.77-1.68,1-.1.04-.3.21-.33.17-.02-.16.02-.34,0-.5Z" fill="#d79328"/>
          <path d="M32.17,50.78c.07.09.1.26.17.33-1.05-.19-1.21.17-1.84.84,0-.17,0-.33,0-.5.73-.62.61-.67,1.68-.67Z" fill="#d4b285"/>
          <path d="M39.54,43.59c-.17.59-.25,1.06-.34,1.67l-.23.45c-.76.26-.47.86.06,1.22-.02.1.03.24,0,.33-.1.34-1.32,2.3-1.6,2.67-.33.43-.81.86-1.25,1.18.16-1.46-.51-1.07-.91-1.68-.12-.18-.08-.47-.19-.65-.63-.99-1.1-.53-1.96-.73-.18-.04-.32-.25-.45-.29-.68-.39-.58-.67-.32-1.31,2.23-2.21-2.09-3.84-1.47-.67.92.8.96,1.4.11,1.81-.94,1.62-1.68.41-2.48.87-.12.07-.3.75-.54.89-.42.24-1.29-.15-1.34.75-.06.02-.14-.02-.17,0-.64-1.19-1.39-2.04-1.84-3.35.49-.96.38-1.4-.34-1.34-.37-.51-.08-1.37-.17-2.01.62-.01.84-.27,1.27-.33,3.96-.5,10.41-.67,14.14.49Z" fill="#ee4c28"/>
          <path d="M24.3,45.43c0-.19-.08-.57.08-.67.66.8,1.19.42.73,1.58-.1.25-.12.51-.48.43-.2-.57-.33-.61-.34-1.34Z" fill="#f9ab47"/>
          <path d="M27.65,51.45c-.87-.87-.91-1.66.55-1.47l1.79,1.3c-.62.02-.97-.45-1.59-.51-.34-.03-.49-.08-.42.34l2.01.84c-.43.41-1.82-.29-2.35-.5Z" fill="#f5bf38"/>
          <path d="M39.21,45.26c-.07.5-.06,1.21-.17,1.67-.32.17-.31.3-.55-.04-.66-.93-.18-1.31.72-1.64Z" fill="#fab34a"/>
          <path d="M32.67,40.07c1.14-.02,2.29.01,3.43,0l-.25.34-3.18-.33Z" fill="#cf942d"/>
          <path d="M26.31,42.58c-.52.06-1.12.11-1.68.17.4-.36,1.15-.1,1.68-.17Z" fill="#cf942d"/>
          <path d="M35.19,36.39c.34.42.92.47,1.34,1.17.13.43.24.84.3,1.21.6-.7,1.06-.77,1.37-.21.02,0,.23.12.34.17l.5,1.51c-.41.1-.82-.14-1.17-.17-.34-.11-.46-.21-.14-.18-.74.02-1.48-.03-2.21-.15-.11,0-.22,0-.34,0-.44-.05-.43-.21,0-.33,1.19-.42.81-2.15-.47-2.02l-2.08-.66c-1.07-.15-1.53-.13-2.23.66-1.8-.31-2.4.27-1.8,1.75l-.28.27c-.52.45-1.3-.06-.5-.5-.23-.71-.66-1.06.06-1.78.65-.65,1.53-.46,2.3-.63.38-.08.61-.38,1.07-.44,1.47-.2,2.53.47,3.94.34Z" fill="#cfd0c8"/>
          <path d="M27.82,38.9c.04.12-.05.45,0,.5.03.03.37,0,.5,0,0-.15.07-.26.2-.32l1.45.02c.76-.62,2.66-.61,3.42,0l1.5-.02.29.32v.33c-2.7-.07-5.26-.17-7.95,0-.35.02-2.02.41-2.09.33-.1-.48.36-1.31.83-1.44.53-.15,1.12.87,1.85.27Z" fill="#d2c9b8"/>
          <path d="M35.52,39.74c.38,0,2.25-.07,2.35,0,.03.02-.02.24,0,.33-.75-.06-1.64.04-2.35-.33Z" fill="#d2c9b8"/>
          <path d="M36.86,37.06c.23.36.2.56.17,1,.65-.56.65-.28,1.17,0v.5c-.99-.22-.86.43-1.12.5-.95.24-.44-.8-.55-1.5.14.24.22.37.17.67h.16s0-1.17,0-1.17Z" fill="#e0a032"/>
          <path d="M31.59,55.3c.59-.12.55,1.59.16,1.67-.59.12-.55-1.59-.16-1.67Z" fill="#d89e19"/>
          <path d="M32.67,48.44c.04.62-.28,1.36-.84,1.67v-1.67c-.72-.01-.48.84-.51,1.34l-.33-1.34c.21-.14.57-.45.78-.47.3-.03.64.31.9.47Z" fill="#f6c037"/>
          <path d="M28.82,49.11c.26-.56,2.11.02,1.84,1l-1.01-.42.67.92c-.4.31-1.59-1.33-1.51-1.5Z" fill="#f4ba38"/>
          <path d="M31,47.6c.76-1.31-.26-.95-.46-1.8-.08-.34-.11-.93-.04-1.26.07-.31,1.12-.97,1.55-.92.27.03,1.36,1.12,1.38,1.39.07,1.04-1.46,1.6-.77,2.76-.62-.22-.92-.54-1.68-.17Z" fill="#e15e20"/>
          <path d="M28.32,39.4c-.1-.47-.28-1.06-.24-1.54.1-1.21,1.57-.66,2.3-.81.15-.03.43-.63.58-.66.31-.06,1.32-.06,1.65-.02.28.04,1.69.55,2.18.68.26.07.75-.07.89.03.07.05.08.38.19.53.08.11.3.1.33.23.1.44-.06,1.08,0,1.56-.33,0-.67-.01-1.01,0-.52.02-1.64.1-2.06,0-.14-.03-.05-.3-.36-.34-.44-.06-1.76-.06-2.2,0-.31.04-.22.31-.36.34-.36.08-1.46.04-1.89,0Z" fill="#c1d3df"/>
          <path d="M31.78,43.93c.31-.05,1.22,1.04,1.22,1.41s-.95,1.5-1.24,1.42c-.16-.39-1.1-1.11-1.1-1.42,0-.19.94-1.38,1.12-1.41Z" fill="#f5c433"/>
        </g>
      </g>
    </g>
  </g>
</svg>