<?xml version="1.0" encoding="UTF-8"?>
<svg id="Layer_2" data-name="Layer 2" xmlns="http://www.w3.org/2000/svg" viewBox="0 0 64 96">
  <g id="Cards">
    <g id="Cups">
      <g id="FourOfCups">
        <path d="M60.78,88.09v1.58h3.22v1.32l-3.42,5h-1.27v-5h-.98v-1.33h.98v-1.58h1.46ZM60.78,91v2.69l1.81-2.69h-1.81Z" fill="#e03e3e"/>
        <path d="M3.22,7.91v-1.58H0v-1.32L3.42,0h1.27v5h.98v1.33h-.98v1.58h-1.46ZM3.22,5v-2.69l-1.81,2.69h1.81Z" fill="#e03e3e"/>
        <g>
          <path d="M13.73,4.47c.07-.05.16-.3.33-.41.64-.41,1.98-.43,2.52.16.21.23.3.73.5.84.22.13,1.23.19,1.68.33,1.92.61,3.48,1.94,4.66,3.54.4.54,1.16,2.12,1.46,2.39.64.58,1.47.14,1.59,1.6.21,2.58-1.67,1.39-3.19,1.76-.4,0-.41-.02-.17-.33-.47-.14-.46-.36,0-.5l.23-.3c1.95.6,2.61.27,1.98-.98-1.73-.39-3.48-.69-5.27-.89-.3-.03-.45-.17-.46-.5l.05-.21,2.56.13c.25-.06.12-1.12-.44-1.6-.31.34-.38.28-.34-.17-.49-.08-.45-.38,0-.5.46-.41.99.32,1.26.72.42,1.63,1.82,2.16.34.24-1.3-1.68-3.14-3.21-5.22-3.77-1.11-.3-1,.63.35.17.59.09,2.26.94,1.93,1.63.01.5.12.87.31,1.13-.34.52-.56.31-.65-.63-.3.06-.57-.14-.8-.6-.55-.06-.73-.25-.54-.57-1-.23-3.05-.62-4.53-.46l-.16-.21c-1.77-1.3-4.74,1.38-5.87,2.81-.54.69-1.36,2.26-.26.75l.44-.05.22.07c-.22.94.16,1.02,1.01.88l.1.22.02.23c-1.39.33-2.83.63-4.32.9-.46,1.19.34,1.5,2.38.91l.24.31c.45.25.17.47-.84.67.37.07.37.59,0,.67-.36-1.07-.87-.38-1.77-.49-1.32-.16-1.48-2.35-.4-2.93.29-.16.69-.1.95-.31.24-.19,1.25-2.14,1.73-2.71,1.07-1.29,2.5-2.24,4.02-2.93,1.02-.08,1.8-.42,2.35-1Z" fill="#cf942d"/>
          <path d="M11.22,27.4c.39-.46,1.99-.84,2.47-.42.61,2.07,1.33,2.31,2.41.23.59-.61,2.16-.16,2.82.19.47-.04.49.22.17.5,0,.35-.17.27-.34,0l-.2.34c-1.12-.29-1.93.04-2.43.99,1.14.06,2.29.08,3.44.04l.36.3c0-.43.22-.48.5-.17.16,0,1.14.23,1.27.32.56.39.14,1.23.74,1.52-.1.26-.23.26-.34,0-.64.22-1.3.23-1.97.24-3.32,0-6.64,0-9.95,0-.67,0-1.33-.02-1.97-.23-.38.14-.89.29-1.17,0,1.19-.17.4-.77.71-1.3.11-.19,1.38-.53,1.64-.54.26-.36.38-.25.34.17,1.16-.35,2.4-.47,3.72-.36-.28-.98-1-1.3-2.18-.96l-.21-.35c-.14-.05-.14-.1,0-.17-.54-.18-.31-.62.17-.33Z" fill="#dd8725"/>
          <path d="M7.03,31.25c.39-.02.78,0,1.17,0,.09.2.06.32-.13.34l-1.88.17c.33.27.19,1.1.08,1.51l.12-.33h17.27l.2.33c-.22-.67-.19-1.17.08-1.51-.66-.07-1.37-.11-2.13-.11-.18-.15.06-.34.29-.39.11,0,.22,0,.34,0,.55.01,1.84-.19,2.09.33.21.44.28,2.14-.51,2.17l-18.17-.08c-.76-.34-.74-2.13.12-2.39.33-.1.71-.02,1.05-.04Z" fill="#cf9433"/>
          <path d="M15.91,21.54c.28-.14.43-.18.34.17.41-.25.55.04.17.33.36.08.3.17,0,.33.46.14.19.55.09.29-.05-.13.1-.13.25.04.54.2,1.36-.29,1.83-.67h.35c.24-.24.39-.17.34.17.23-.24.33-.13.17.17-.13.44-.97,1.02-1.47,1.22-1.49.1-1.35.66-.06,1.14l.19.48c.48,1.56,1.79,1.36,2,1.68.24.35-.53.91-.83,1-.05.15-.11.15-.17,0-.12-.15-.12-.33-.17-.5-.91-.41-1.48-.91-1.77-1.9-.12-.18-.64-.28-.62-.26,1.44,1.44-.78,1.61-1.39.33l-.4.12c-.73.62-2.13,1.35-1.79-.19.87-.65.43-.59-.17-.13-.41.86-.88,1.48-1.58,2.03-.23.02-.13.24-.17.33-.18.34-.36.41-.5,0-.2-.06-.71-.52-.66-.74.42-.54,1.03-.47,1.51-1.01.38-.43.51-.9,1-1.43.17-.24.87-.6,1.01-.33.14-.24.36-.13.67.33.08-.13.2-.25.34-.22,1.38.22,1.65-.11,1.41-1.55-.3-.34-.38-.64-.24-.9-.37-.11-.42-.22-.17-.33.14-.47.38-.48.5,0Z" fill="#cf9433"/>
          <path d="M7.37,14.18c.54.07.43,1.18.08,1.44l.08.56c.39.2.7,1.01.34,1.34l.44.21c.45.92.96,1.81,1.53,2.67l-.12.47c.31.06.19.58-.17.33-1.66-2.05-2.82-3.48-2.68-6.36,0-.2-.04-.52,0-.67.18-.16.4-.23.5,0Z" fill="#a42f28"/>
          <path d="M22.61,18.36c-.42,1.32-1.56,2.84-2.51,3.85-.29.24-.52.3-.67.17-.06-.04-.11-.13-.17-.17-.25-.18-.14-.44.17-.33l.19-.58c.94-.93,1.7-2.01,2.28-3.23l.38-.04c.25-.33.36-.21.34.33Z" fill="#ae2c28"/>
          <path d="M10.05,20.87c.05.68.32,1.13.84,1.34l.13-.19c.71.38,1.45.61,2.21.69-.49-.43.21-1.16.5-.5.19.08.19.25,0,.5.44.19.56,1.46.34,1.84-.11-.05-.65-.3-.67-.33-.22.05-.29-.09-.21-.43-.65-.4-1.36-.7-2.14-.91-1.03-.66-.86-.87-1.51-1.67.21-.02.14-.31.17-.33.06-.15.11-.15.17,0,.04-.15.1-.15.17,0Z" fill="#ca943e"/>
          <path d="M23.11,14.34s.17.15.17.33c-.02.79-.42,2.89-.67,3.68l-.34-.33c-.28,0-.28-.1,0-.33-.49-.26-.31-1.4.17-1.67-.49-.32-.24-1.58.34-1.67,0-.36.23-.35.34,0Z" fill="#a1351f"/>
          <path d="M20.1,22.21c-.3.32-1.89,1.61-2.13,1.67-.27.07-.6-.02-.89,0-.4.31.91.6.98.7.11.16-.02.48.03.64-.2-.42-1.75-.92-1.67-1.25.09-.4,1.33-.53,1.79-.73s.86-.68,1.23-.87c.17-.09.47-.09.67-.17Z" fill="#f9f3db"/>
          <path d="M11.05,27.74s.02.12,0,.17c.39.65-.7,1.52-1.34,1.67-.14,0-.31-.17-.34-.17l1.17-1.67c.13.04.35-.03.5,0Z" fill="#a63c29"/>
          <path d="M19.09,27.9c.06,0,.12.01.17,0l1.17,1.51s-.22.17-.5.17c-.58-.24-1.69-1.09-1.17-1.67.11,0,.23.02.34,0Z" fill="#a73c24"/>
          <path d="M13.4,24.22l-1.01.33s-.05-.2.04-.29c.14-.12.71-.07.63-.46-.02-.11-1.57-.64-2.01-.92.5.09,2.05.49,2.26.85.1.17.06.45.09.49Z" fill="#efdbad"/>
          <path d="M13.73,4.47c-.02,1.09-1.54.79-2.35,1,.85-.39,1.53-.45,2.35-1Z" fill="#f3e6c3"/>
          <path d="M15.91,10.83l3.09.16.09.17c.31-.29.48-.29.5,0,1.08.52,5.25.57,5.96,1.16.33.27.37,1.58.08,1.78-.21.15-2.08-.19-2.52-.26-.19.19-.4.19-.64.15-4.27-.67-8.27-1.09-12.6-.48l-.33-.17c-.57-.02-1.13.04-1.68.17-.06.15-.11.15-.17,0-.52.05-2.4.39-2.68.26-.45-.22-.47-1.35-.19-1.7.36-.45,3.81-.6,4.54-.9,2.01-.64,4.46-.65,6.53-.33Z" fill="#f2c92e"/>
          <path d="M13.73,6.48c1.39-.11,2.07.12,3.27.33.42.07.97-.08,1.32,0,.2.05.06.3.1.34l-.27.35-2.33-.51c-.9-.1-1.66-.14-2.33.55-1.44-.04-2.97.18-2.29,1.93l-.14.2c-.48,1.02,1.83.7,2.7.45,1.59-.04,3.13.1,4.67.38.1-.24.24-.24.34,0,.74.12,1.49.17,2.25.16l.09.18c.18-.34.39-.3.7-.18-.29-.52-.3-.9-.03-1.16.9.39.68.66.67,1.67h-2.85s-.5,0-.5,0c.12-.26.03-.32-.25-.18l-2.94-.16c-2.19.04-4.35.21-6.53.33h-1.34s0-1.17,0-1.17c-.37-.73,1.05-2.09,1.9-1.8.34-.88,1.17-1.51,2.05-1.78.47-.14,1.54-.41,1.74.06Z" fill="#cc9437"/>
          <path d="M23.11,13.84c.02.16-.03.36,0,.5-.1-.02-.25.03-.34,0l-.52.2c-4.79-1.11-9.84-.9-14.6-.05-.13.02-.25-.16-.29-.31-.17,0-.34,0-.5,0,.16-.57.99-.06.84-.67.06,0,.11,0,.17,0,.55-.13,1.11-.18,1.68-.17,5.57-.59,8.09-.39,13.57.5Z" fill="#e37e26"/>
          <path d="M13.73,6.48c-.23.02-1.03.15-1.38.2-.94.13-2.41,1.2-2.14,2.31-.28.04-.16-.41-.43-.5-.7-.22-1.45,1.09-1.74,1.5-.45.62-.55,1.18-1.51,1,.52-1.61,2.28-3.52,3.76-4.36.72-.41,3.54-1.72,3.44-.16Z" fill="#f5c536"/>
          <path d="M20.1,7.81c-.31-.49-1.42-1.21-1.97-1.3-.36-.06-.93.28-1.19.11-.24-.15-.38-.99.39-.99,2.3,0,6.16,3.32,6.79,5.45.13.44-.71.27-.93.09-.52-.4-.37-1.61-1.74-2.36-.2.29-.38.2-.6,0-.47.42-.71.09-.74-1.01Z" fill="#f7c537"/>
          <path d="M14.69,4.33c2.27-.69,2.29,2.64,0,1.94-.78-.24-.79-1.7,0-1.94Z" fill="#f3c732"/>
          <path d="M11.22,27.4c-.86-.54-.1-.42.15-.6.84-.61.79-1.3,1.27-1.75.37-.34,1.15-.6,1.26.09-.04.2-1.04.55-.67.92s1.29-1.03,2.07-.8c.33.1.54,1.15,1.44.8.12-.49-.75-.52-.67-.92.1-.5,1.08-.18,1.35.16.2.25.22.63.42.92.32.46.81.61,1.1.93.17.18-.03.24-.02.25-.65.22-1.93-.29-2.4-.18-.12.03-1.03,1.86-1.7,1.86-.21,0-.98-.74-1.09-.92-.17-.28-.29-1.06-.34-1.09-.17-.12-1.74.53-2.17.33Z" fill="#f3c731"/>
          <path d="M8.37,30.25c.42-.43.85,0,1.27-.02,3.49-.07,7.35-.42,10.86-.15.68.05,1.11.08.93.84l-12.94.08c-.36-.03-.23-.47-.13-.75Z" fill="#c5cfd4"/>
          <path d="M22.11,31.25c.01.09-.03.31,0,.33.13.1,1.66-.07,2.01,0,.04.12-.17.15-.17.17l-.12.33H6.4l-.2-.33c.54-.4,1.47.07,2.01-.5,4.57-.1,9.33-.08,13.9,0Z" fill="#dd8725"/>
          <path d="M18.76,27.9c.13.69.98.95,1.17,1.67-1.18-.02-2.65.13-3.78,0-.25-.03-.42-.02-.58-.26.19-.15,1.16-1.39,1.29-1.42.52-.11,1.31.03,1.89,0Z" fill="#ec652b"/>
          <path d="M11.05,27.9c.46.09,1.67-.15,1.98.03.08.05,1.01,1.51.87,1.64-1.39.02-2.79-.02-4.19,0,.43-.59,1-1,1.34-1.67Z" fill="#eb652b"/>
          <path d="M8.37,30.25c.07.26-.23.64.25.67,4.16.28,8.63-.21,12.82,0l-13.23.17c0-.35-.09-.58.17-.84Z" fill="#cfd0c8"/>
          <path d="M23.95,31.75c0,.17.45,1.51-.08,1.51H6.28c-.34,0-.33-1.27-.08-1.51h17.76Z" fill="#f4c332"/>
          <path d="M14.24,19.2c1-.36,1.22-.27,1.19.77.05-.38.21-.63.48-.77.3-.27.61-.01.67.33,1.3.89.43,1.59-.67,2.01-.13-.03-.35,0-.5,0-.57.15-1.13.38-1.68.67-.02.02-.17-.04-.28.05-.08.07-.08.32-.22.45-.77-.07-1.52-.31-2.24-.72l-.1.22c-.07-.03-.24.05-.37,0-.48-.21-.54-.86-.46-1.33.12-.42.58-.63,1.4-.61.19-.33.4-.46.61-.39q.5.13,0,0c-.43.05-.34-.36.01-.53.77.08,1.48.01,2.17-.14Z" fill="#d79328"/>
          <path d="M15.91,18.53c.32-.09,1.64-.05,1.98.14.56.3.82.75.92,1.35.73.52,1.36.99.62,1.85,0,.09-.14.23-.17.33-.1-.07-.23-.11-.34-.17l-.21-.08c-.1-.51-.16-.8-.63-1.09-.27,0-.33-.23-.17-.66l-.16-.51c-.34.27-1.05.33-1.17-.17-.69-.1-.38-.16-.67-.33-.21.24-.51.17-.87-.23-.06.05-.65.41-.8.23-.08.05-.12.29-.29.33-.52.11-1.31-.12-1.78,0-.21.05-.07.28-.1.34-.65,1.13-.59.45-1.56.67-.03,0-.19.2-.45.33-.04.02-.11-.02-.17,0-.6-.85.48-.99,1.17-1.03.32-.95,1.03-1.26,2.15-.94.37-.33.72-.5,1.04-.54.51-.82,1.24-.59,1.68.17Z" fill="#e38627"/>
          <path d="M15.58,21.88c.59.6.89,1.28.54,2.13-.46,1.12-1.19.9-2.05.54-.38-.65-.34-1.12-.34-1.84.17-.74,1.19-1.38,1.84-.84Z" fill="#c5cfd4"/>
          <path d="M18.09,20.87c.75-.3.96.58.84,1.17-.11.53-1.19.71-1.55.85-.13.05-.66.96-.63-.18.25-.3,1.23-.83,1.68-1,.11-.04-1.88,1.16-2.01.67-.02-.11.02-.24,0-.33.27-.39,1.23-1.33,1.68-1.17Z" fill="#f5bd38"/>
          <path d="M17.75,19.7c.61.88-.67,2.05-1.51,2.01-.04-.04-.28-.15-.34-.17.62-.47,2.09-1.87.34-1.01l.33-1c.4.06.74-.09,1.17.17Z" fill="#f5bb38"/>
          <path d="M18.09,20.87c-.23.09-1.08,1.22-1.68,1.17-.01-.06-.13-.3-.17-.33.64-.65,1.65-.84,1.51-2.01.49.29.33.66.34,1.17Z" fill="#d79328"/>
          <path d="M16.41,22.38l2.01-.67c-.3.55-1.1.77-1.68,1-.1.04-.3.21-.33.17-.02-.16.02-.34,0-.5Z" fill="#d79328"/>
          <path d="M15.41,21.54c.07.09.1.26.17.33-1.05-.19-1.21.17-1.84.84,0-.17,0-.33,0-.5.73-.62.61-.67,1.68-.67Z" fill="#d4b285"/>
          <path d="M22.78,14.34c-.17.59-.25,1.06-.34,1.67l-.23.45c-.76.26-.47.86.06,1.22-.02.1.03.24,0,.33-.1.34-1.32,2.3-1.6,2.67-.33.43-.81.86-1.25,1.18.16-1.46-.51-1.07-.91-1.68-.12-.18-.08-.47-.19-.65-.63-.99-1.1-.53-1.96-.73-.18-.04-.32-.25-.45-.29-.68-.39-.58-.67-.32-1.31,2.23-2.21-2.09-3.84-1.47-.67.92.8.96,1.4.11,1.81-.94,1.62-1.68.41-2.48.87-.12.07-.3.75-.54.89-.42.24-1.29-.15-1.34.75-.06.02-.14-.02-.17,0-.64-1.19-1.39-2.04-1.84-3.35.49-.96.38-1.4-.34-1.34-.37-.51-.08-1.37-.17-2.01.62-.01.84-.27,1.27-.33,3.96-.5,10.41-.67,14.14.49Z" fill="#ee4c28"/>
          <path d="M7.54,16.18c0-.19-.08-.57.08-.67.66.8,1.19.42.73,1.58-.1.25-.12.51-.48.43-.2-.57-.33-.61-.34-1.34Z" fill="#f9ab47"/>
          <path d="M10.89,22.21c-.87-.87-.91-1.66.55-1.47l1.79,1.3c-.62.02-.97-.45-1.59-.51-.34-.03-.49-.08-.42.34l2.01.84c-.43.41-1.82-.29-2.35-.5Z" fill="#f5bf38"/>
          <path d="M22.44,16.02c-.07.5-.06,1.21-.17,1.67-.32.17-.31.3-.55-.04-.66-.93-.18-1.31.72-1.64Z" fill="#fab34a"/>
          <path d="M15.91,10.83c1.14-.02,2.29.01,3.43,0l-.25.34-3.18-.33Z" fill="#cf942d"/>
          <path d="M9.55,13.34c-.52.06-1.12.11-1.68.17.4-.36,1.15-.1,1.68-.17Z" fill="#cf942d"/>
          <path d="M18.42,7.14c.34.42.92.47,1.34,1.17.13.43.24.84.3,1.21.6-.7,1.06-.77,1.37-.21.02,0,.23.12.34.17l.5,1.51c-.41.1-.82-.14-1.17-.17-.34-.11-.46-.21-.14-.18-.74.02-1.48-.03-2.21-.15-.11,0-.22,0-.34,0-.44-.05-.43-.21,0-.33,1.19-.42.81-2.15-.47-2.02l-2.08-.66c-1.07-.15-1.53-.13-2.23.66-1.8-.31-2.4.27-1.8,1.75l-.28.27c-.52.45-1.3-.06-.5-.5-.23-.71-.66-1.06.06-1.78.65-.65,1.53-.46,2.3-.63.38-.08.61-.38,1.07-.44,1.47-.2,2.53.47,3.94.34Z" fill="#cfd0c8"/>
          <path d="M11.05,9.66c.04.12-.05.45,0,.5.03.03.37,0,.5,0,0-.15.07-.26.2-.32l1.45.02c.76-.62,2.66-.61,3.42,0l1.5-.02.29.32v.33c-2.7-.07-5.26-.17-7.95,0-.35.02-2.02.41-2.09.33-.1-.48.36-1.31.83-1.44.53-.15,1.12.87,1.85.27Z" fill="#d2c9b8"/>
          <path d="M18.76,10.49c.38,0,2.25-.07,2.35,0,.03.02-.02.24,0,.33-.75-.06-1.64.04-2.35-.33Z" fill="#d2c9b8"/>
          <path d="M20.1,7.81c.23.36.2.56.17,1,.65-.56.65-.28,1.17,0v.5c-.99-.22-.86.43-1.12.5-.95.24-.44-.8-.55-1.5.14.24.22.37.17.67h.16s0-1.17,0-1.17Z" fill="#e0a032"/>
          <path d="M14.83,26.06c.59-.12.55,1.59.16,1.67-.59.12-.55-1.59-.16-1.67Z" fill="#d89e19"/>
          <path d="M15.91,19.2c.04.62-.28,1.36-.84,1.67v-1.67c-.72-.01-.48.84-.51,1.34l-.33-1.34c.21-.14.57-.45.78-.47.3-.03.64.31.9.47Z" fill="#f6c037"/>
          <path d="M12.06,19.87c.26-.56,2.11.02,1.84,1l-1.01-.42.67.92c-.4.31-1.59-1.33-1.51-1.5Z" fill="#f4ba38"/>
          <path d="M14.24,18.36c.76-1.31-.26-.95-.46-1.8-.08-.34-.11-.93-.04-1.26.07-.31,1.12-.97,1.55-.92.27.03,1.36,1.12,1.38,1.39.07,1.04-1.46,1.6-.77,2.76-.62-.22-.92-.54-1.68-.17Z" fill="#e15e20"/>
          <path d="M11.56,10.16c-.1-.47-.28-1.06-.24-1.54.1-1.21,1.57-.66,2.3-.81.15-.03.43-.63.58-.66.31-.06,1.32-.06,1.65-.02.28.04,1.69.55,2.18.68.26.07.75-.07.89.03.07.05.08.38.19.53.08.11.3.1.33.23.1.44-.06,1.08,0,1.56-.33,0-.67-.01-1.01,0-.52.02-1.64.1-2.06,0-.14-.03-.05-.3-.36-.34-.44-.06-1.76-.06-2.2,0-.31.04-.22.31-.36.34-.36.08-1.46.04-1.89,0Z" fill="#c1d3df"/>
          <path d="M15.01,14.69c.31-.05,1.22,1.04,1.22,1.41s-.95,1.5-1.24,1.42c-.16-.39-1.1-1.11-1.1-1.42,0-.19.94-1.38,1.12-1.41Z" fill="#f5c433"/>
        </g>
        <g>
          <path d="M45.51,4.47c.07-.05.16-.3.33-.41.64-.41,1.98-.43,2.52.16.21.23.3.73.5.84.22.13,1.23.19,1.68.33,1.92.61,3.48,1.94,4.66,3.54.4.54,1.16,2.12,1.46,2.39.64.58,1.47.14,1.59,1.6.21,2.58-1.67,1.39-3.19,1.76-.4,0-.41-.02-.17-.33-.47-.14-.46-.36,0-.5l.23-.3c1.95.6,2.61.27,1.98-.98-1.73-.39-3.48-.69-5.27-.89-.3-.03-.45-.17-.46-.5l.05-.21,2.56.13c.25-.06.12-1.12-.44-1.6-.31.34-.38.28-.34-.17-.49-.08-.45-.38,0-.5.46-.41.99.32,1.26.72.42,1.63,1.82,2.16.34.24-1.3-1.68-3.14-3.21-5.22-3.77-1.11-.3-1,.63.35.17.59.09,2.26.94,1.93,1.63.01.5.12.87.31,1.13-.34.52-.56.31-.65-.63-.3.06-.57-.14-.8-.6-.55-.06-.73-.25-.54-.57-1-.23-3.05-.62-4.53-.46l-.16-.21c-1.77-1.3-4.74,1.38-5.87,2.81-.54.69-1.36,2.26-.26.75l.44-.05.22.07c-.22.94.16,1.02,1.01.88l.1.22.02.23c-1.39.33-2.83.63-4.32.9-.46,1.19.34,1.5,2.38.91l.24.31c.45.25.17.47-.84.67.37.07.37.59,0,.67-.36-1.07-.87-.38-1.77-.49-1.32-.16-1.48-2.35-.4-2.93.29-.16.69-.1.95-.31.24-.19,1.25-2.14,1.73-2.71,1.07-1.29,2.5-2.24,4.02-2.93,1.02-.08,1.8-.42,2.35-1Z" fill="#cf942d"/>
          <path d="M42.99,27.4c.39-.46,1.99-.84,2.47-.42.61,2.07,1.33,2.31,2.41.23.59-.61,2.16-.16,2.82.19.47-.04.49.22.17.5,0,.35-.17.27-.34,0l-.2.34c-1.12-.29-1.93.04-2.43.99,1.14.06,2.29.08,3.44.04l.36.3c0-.43.22-.48.5-.17.16,0,1.14.23,1.27.32.56.39.14,1.23.74,1.52-.1.26-.23.26-.34,0-.64.22-1.3.23-1.97.24-3.32,0-6.64,0-9.95,0-.67,0-1.33-.02-1.97-.23-.38.14-.89.29-1.17,0,1.19-.17.4-.77.71-1.3.11-.19,1.38-.53,1.64-.54.26-.36.38-.25.34.17,1.16-.35,2.4-.47,3.72-.36-.28-.98-1-1.3-2.18-.96l-.21-.35c-.14-.05-.14-.1,0-.17-.54-.18-.31-.62.17-.33Z" fill="#dd8725"/>
          <path d="M38.81,31.25c.39-.02.78,0,1.17,0,.09.2.06.32-.13.34l-1.88.17c.33.27.19,1.1.08,1.51l.12-.33h17.27l.2.33c-.22-.67-.19-1.17.08-1.51-.66-.07-1.37-.11-2.13-.11-.18-.15.06-.34.29-.39.11,0,.22,0,.34,0,.55.01,1.84-.19,2.09.33.21.44.28,2.14-.51,2.17l-18.17-.08c-.76-.34-.74-2.13.12-2.39.33-.1.71-.02,1.05-.04Z" fill="#cf9433"/>
          <path d="M47.68,21.54c.28-.14.43-.18.34.17.41-.25.55.04.17.33.36.08.3.17,0,.33.46.14.19.55.09.29-.05-.13.1-.13.25.04.54.2,1.36-.29,1.83-.67h.35c.24-.24.39-.17.34.17.23-.24.33-.13.17.17-.13.44-.97,1.02-1.47,1.22-1.49.1-1.35.66-.06,1.14l.19.48c.48,1.56,1.79,1.36,2,1.68.24.35-.53.91-.83,1-.05.15-.11.15-.17,0-.12-.15-.12-.33-.17-.5-.91-.41-1.48-.91-1.77-1.9-.12-.18-.64-.28-.62-.26,1.44,1.44-.78,1.61-1.39.33l-.4.12c-.73.62-2.13,1.35-1.79-.19.87-.65.43-.59-.17-.13-.41.86-.88,1.48-1.58,2.03-.23.02-.13.24-.17.33-.18.34-.36.41-.5,0-.2-.06-.71-.52-.66-.74.42-.54,1.03-.47,1.51-1.01.38-.43.51-.9,1-1.43.17-.24.87-.6,1.01-.33.14-.24.36-.13.67.33.08-.13.2-.25.34-.22,1.38.22,1.65-.11,1.41-1.55-.3-.34-.38-.64-.24-.9-.37-.11-.42-.22-.17-.33.14-.47.38-.48.5,0Z" fill="#cf9433"/>
          <path d="M39.14,14.18c.54.07.43,1.18.08,1.44l.08.56c.39.2.7,1.01.34,1.34l.44.21c.45.92.96,1.81,1.53,2.67l-.12.47c.31.06.19.58-.17.33-1.66-2.05-2.82-3.48-2.68-6.36,0-.2-.04-.52,0-.67.18-.16.4-.23.5,0Z" fill="#a42f28"/>
          <path d="M54.38,18.36c-.42,1.32-1.56,2.84-2.51,3.85-.29.24-.52.3-.67.17-.06-.04-.11-.13-.17-.17-.25-.18-.14-.44.17-.33l.19-.58c.94-.93,1.7-2.01,2.28-3.23l.38-.04c.25-.33.36-.21.34.33Z" fill="#ae2c28"/>
          <path d="M41.82,20.87c.05.68.32,1.13.84,1.34l.13-.19c.71.38,1.45.61,2.21.69-.49-.43.21-1.16.5-.5.19.08.19.25,0,.5.44.19.56,1.46.34,1.84-.11-.05-.65-.3-.67-.33-.22.05-.29-.09-.21-.43-.65-.4-1.36-.7-2.14-.91-1.03-.66-.86-.87-1.51-1.67.21-.02.14-.31.17-.33.06-.15.11-.15.17,0,.04-.15.1-.15.17,0Z" fill="#ca943e"/>
          <path d="M54.89,14.34s.17.15.17.33c-.02.79-.42,2.89-.67,3.68l-.34-.33c-.28,0-.28-.1,0-.33-.49-.26-.31-1.4.17-1.67-.49-.32-.24-1.58.34-1.67,0-.36.23-.35.34,0Z" fill="#a1351f"/>
          <path d="M51.87,22.21c-.3.32-1.89,1.61-2.13,1.67-.27.07-.6-.02-.89,0-.4.31.91.6.98.7.11.16-.02.48.03.64-.2-.42-1.75-.92-1.67-1.25.09-.4,1.33-.53,1.79-.73s.86-.68,1.23-.87c.17-.09.47-.09.67-.17Z" fill="#f9f3db"/>
          <path d="M42.83,27.74s.02.12,0,.17c.39.65-.7,1.52-1.34,1.67-.14,0-.31-.17-.34-.17l1.17-1.67c.13.04.35-.03.5,0Z" fill="#a63c29"/>
          <path d="M50.87,27.9c.06,0,.12.01.17,0l1.17,1.51s-.22.17-.5.17c-.58-.24-1.69-1.09-1.17-1.67.11,0,.23.02.34,0Z" fill="#a73c24"/>
          <path d="M45.17,24.22l-1.01.33s-.05-.2.04-.29c.14-.12.71-.07.63-.46-.02-.11-1.57-.64-2.01-.92.5.09,2.05.49,2.26.85.1.17.06.45.09.49Z" fill="#efdbad"/>
          <path d="M45.51,4.47c-.02,1.09-1.54.79-2.35,1,.85-.39,1.53-.45,2.35-1Z" fill="#f3e6c3"/>
          <path d="M47.68,10.83l3.09.16.09.17c.31-.29.48-.29.5,0,1.08.52,5.25.57,5.96,1.16.33.27.37,1.58.08,1.78-.21.15-2.08-.19-2.52-.26-.19.19-.4.19-.64.15-4.27-.67-8.27-1.09-12.6-.48l-.33-.17c-.57-.02-1.13.04-1.68.17-.06.15-.11.15-.17,0-.52.05-2.4.39-2.68.26-.45-.22-.47-1.35-.19-1.7.36-.45,3.81-.6,4.54-.9,2.01-.64,4.46-.65,6.53-.33Z" fill="#f2c92e"/>
          <path d="M45.51,6.48c1.39-.11,2.07.12,3.27.33.42.07.97-.08,1.32,0,.2.05.06.3.1.34l-.27.35-2.33-.51c-.9-.1-1.66-.14-2.33.55-1.44-.04-2.97.18-2.29,1.93l-.14.2c-.48,1.02,1.83.7,2.7.45,1.59-.04,3.13.1,4.67.38.1-.24.24-.24.34,0,.74.12,1.49.17,2.25.16l.09.18c.18-.34.39-.3.7-.18-.29-.52-.3-.9-.03-1.16.9.39.68.66.67,1.67h-2.85s-.5,0-.5,0c.12-.26.03-.32-.25-.18l-2.94-.16c-2.19.04-4.35.21-6.53.33h-1.34s0-1.17,0-1.17c-.37-.73,1.05-2.09,1.9-1.8.34-.88,1.17-1.51,2.05-1.78.47-.14,1.54-.41,1.74.06Z" fill="#cc9437"/>
          <path d="M54.89,13.84c.02.16-.03.36,0,.5-.1-.02-.25.03-.34,0l-.52.2c-4.79-1.11-9.84-.9-14.6-.05-.13.02-.25-.16-.29-.31-.17,0-.34,0-.5,0,.16-.57.99-.06.84-.67.06,0,.11,0,.17,0,.55-.13,1.11-.18,1.68-.17,5.57-.59,8.09-.39,13.57.5Z" fill="#e37e26"/>
          <path d="M45.51,6.48c-.23.02-1.03.15-1.38.2-.94.13-2.41,1.2-2.14,2.31-.28.04-.16-.41-.43-.5-.7-.22-1.45,1.09-1.74,1.5-.45.62-.55,1.18-1.51,1,.52-1.61,2.28-3.52,3.76-4.36.72-.41,3.54-1.72,3.44-.16Z" fill="#f5c536"/>
          <path d="M51.87,7.81c-.31-.49-1.42-1.21-1.97-1.3-.36-.06-.93.28-1.19.11-.24-.15-.38-.99.39-.99,2.3,0,6.16,3.32,6.79,5.45.13.44-.71.27-.93.09-.52-.4-.37-1.61-1.74-2.36-.2.29-.38.2-.6,0-.47.42-.71.09-.74-1.01Z" fill="#f7c537"/>
          <path d="M46.46,4.33c2.27-.69,2.29,2.64,0,1.94-.78-.24-.79-1.7,0-1.94Z" fill="#f3c732"/>
          <path d="M42.99,27.4c-.86-.54-.1-.42.15-.6.84-.61.79-1.3,1.27-1.75.37-.34,1.15-.6,1.26.09-.04.2-1.04.55-.67.92s1.29-1.03,2.07-.8c.33.1.54,1.15,1.44.8.12-.49-.75-.52-.67-.92.1-.5,1.08-.18,1.35.16.2.25.22.63.42.92.32.46.81.61,1.1.93.17.18-.03.24-.02.25-.65.22-1.93-.29-2.4-.18-.12.03-1.03,1.86-1.7,1.86-.21,0-.98-.74-1.09-.92-.17-.28-.29-1.06-.34-1.09-.17-.12-1.74.53-2.17.33Z" fill="#f3c731"/>
          <path d="M40.15,30.25c.42-.43.85,0,1.27-.02,3.49-.07,7.35-.42,10.86-.15.68.05,1.11.08.93.84l-12.94.08c-.36-.03-.23-.47-.13-.75Z" fill="#c5cfd4"/>
          <path d="M53.88,31.25c.01.09-.03.31,0,.33.13.1,1.66-.07,2.01,0,.04.12-.17.15-.17.17l-.12.33h-17.44l-.2-.33c.54-.4,1.47.07,2.01-.5,4.57-.1,9.33-.08,13.9,0Z" fill="#dd8725"/>
          <path d="M50.53,27.9c.13.69.98.95,1.17,1.67-1.18-.02-2.65.13-3.78,0-.25-.03-.42-.02-.58-.26.19-.15,1.16-1.39,1.29-1.42.52-.11,1.31.03,1.89,0Z" fill="#ec652b"/>
          <path d="M42.83,27.9c.46.09,1.67-.15,1.98.03.08.05,1.01,1.51.87,1.64-1.39.02-2.79-.02-4.19,0,.43-.59,1-1,1.34-1.67Z" fill="#eb652b"/>
          <path d="M40.15,30.25c.07.26-.23.64.25.67,4.16.28,8.63-.21,12.82,0l-13.23.17c0-.35-.09-.58.17-.84Z" fill="#cfd0c8"/>
          <path d="M55.72,31.75c0,.17.45,1.51-.08,1.51h-17.59c-.34,0-.33-1.27-.08-1.51h17.76Z" fill="#f4c332"/>
          <path d="M46.01,19.2c1-.36,1.22-.27,1.19.77.05-.38.21-.63.48-.77.3-.27.61-.01.67.33,1.3.89.43,1.59-.67,2.01-.13-.03-.35,0-.5,0-.57.15-1.13.38-1.68.67-.02.02-.17-.04-.28.05-.08.07-.08.32-.22.45-.77-.07-1.52-.31-2.24-.72l-.1.22c-.07-.03-.24.05-.37,0-.48-.21-.54-.86-.46-1.33.12-.42.58-.63,1.4-.61.19-.33.4-.46.61-.39q.5.13,0,0c-.43.05-.34-.36.01-.53.77.08,1.48.01,2.17-.14Z" fill="#d79328"/>
          <path d="M47.68,18.53c.32-.09,1.64-.05,1.98.14.56.3.82.75.92,1.35.73.52,1.36.99.62,1.85,0,.09-.14.23-.17.33-.1-.07-.23-.11-.34-.17l-.21-.08c-.1-.51-.16-.8-.63-1.09-.27,0-.33-.23-.17-.66l-.16-.51c-.34.27-1.05.33-1.17-.17-.69-.1-.38-.16-.67-.33-.21.24-.51.17-.87-.23-.06.05-.65.41-.8.23-.08.05-.12.29-.29.33-.52.11-1.31-.12-1.78,0-.21.05-.07.28-.1.34-.65,1.13-.59.45-1.56.67-.03,0-.19.2-.45.33-.04.02-.11-.02-.17,0-.6-.85.48-.99,1.17-1.03.32-.95,1.03-1.26,2.15-.94.37-.33.72-.5,1.04-.54.51-.82,1.24-.59,1.68.17Z" fill="#e38627"/>
          <path d="M47.35,21.88c.59.6.89,1.28.54,2.13-.46,1.12-1.19.9-2.05.54-.38-.65-.34-1.12-.34-1.84.17-.74,1.19-1.38,1.84-.84Z" fill="#c5cfd4"/>
          <path d="M49.86,20.87c.75-.3.96.58.84,1.17-.11.53-1.19.71-1.55.85-.13.05-.66.96-.63-.18.25-.3,1.23-.83,1.68-1,.11-.04-1.88,1.16-2.01.67-.02-.11.02-.24,0-.33.27-.39,1.23-1.33,1.68-1.17Z" fill="#f5bd38"/>
          <path d="M49.53,19.7c.61.88-.67,2.05-1.51,2.01-.04-.04-.28-.15-.34-.17.62-.47,2.09-1.87.34-1.01l.33-1c.4.06.74-.09,1.17.17Z" fill="#f5bb38"/>
          <path d="M49.86,20.87c-.23.09-1.08,1.22-1.68,1.17-.01-.06-.13-.3-.17-.33.64-.65,1.65-.84,1.51-2.01.49.29.33.66.34,1.17Z" fill="#d79328"/>
          <path d="M48.19,22.38l2.01-.67c-.3.55-1.1.77-1.68,1-.1.04-.3.21-.33.17-.02-.16.02-.34,0-.5Z" fill="#d79328"/>
          <path d="M47.18,21.54c.07.09.1.26.17.33-1.05-.19-1.21.17-1.84.84,0-.17,0-.33,0-.5.73-.62.61-.67,1.68-.67Z" fill="#d4b285"/>
          <path d="M54.55,14.34c-.17.59-.25,1.06-.34,1.67l-.23.45c-.76.26-.47.86.06,1.22-.02.1.03.24,0,.33-.1.34-1.32,2.3-1.6,2.67-.33.43-.81.86-1.25,1.18.16-1.46-.51-1.07-.91-1.68-.12-.18-.08-.47-.19-.65-.63-.99-1.1-.53-1.96-.73-.18-.04-.32-.25-.45-.29-.68-.39-.58-.67-.32-1.31,2.23-2.21-2.09-3.84-1.47-.67.92.8.96,1.4.11,1.81-.94,1.62-1.68.41-2.48.87-.12.07-.3.75-.54.89-.42.24-1.29-.15-1.34.75-.06.02-.14-.02-.17,0-.64-1.19-1.39-2.04-1.84-3.35.49-.96.38-1.4-.34-1.34-.37-.51-.08-1.37-.17-2.01.62-.01.84-.27,1.27-.33,3.96-.5,10.41-.67,14.14.49Z" fill="#ee4c28"/>
          <path d="M39.31,16.18c0-.19-.08-.57.08-.67.66.8,1.19.42.73,1.58-.1.25-.12.51-.48.43-.2-.57-.33-.61-.34-1.34Z" fill="#f9ab47"/>
          <path d="M42.66,22.21c-.87-.87-.91-1.66.55-1.47l1.79,1.3c-.62.02-.97-.45-1.59-.51-.34-.03-.49-.08-.42.34l2.01.84c-.43.41-1.82-.29-2.35-.5Z" fill="#f5bf38"/>
          <path d="M54.22,16.02c-.07.5-.06,1.21-.17,1.67-.32.17-.31.3-.55-.04-.66-.93-.18-1.31.72-1.64Z" fill="#fab34a"/>
          <path d="M47.68,10.83c1.14-.02,2.29.01,3.43,0l-.25.34-3.18-.33Z" fill="#cf942d"/>
          <path d="M41.32,13.34c-.52.06-1.12.11-1.68.17.4-.36,1.15-.1,1.68-.17Z" fill="#cf942d"/>
          <path d="M50.2,7.14c.34.42.92.47,1.34,1.17.13.43.24.84.3,1.21.6-.7,1.06-.77,1.37-.21.02,0,.23.12.34.17l.5,1.51c-.41.1-.82-.14-1.17-.17-.34-.11-.46-.21-.14-.18-.74.02-1.48-.03-2.21-.15-.11,0-.22,0-.34,0-.44-.05-.43-.21,0-.33,1.19-.42.81-2.15-.47-2.02l-2.08-.66c-1.07-.15-1.53-.13-2.23.66-1.8-.31-2.4.27-1.8,1.75l-.28.27c-.52.45-1.3-.06-.5-.5-.23-.71-.66-1.06.06-1.78.65-.65,1.53-.46,2.3-.63.38-.08.61-.38,1.07-.44,1.47-.2,2.53.47,3.94.34Z" fill="#cfd0c8"/>
          <path d="M42.83,9.66c.04.12-.05.45,0,.5.03.03.37,0,.5,0,0-.15.07-.26.2-.32l1.45.02c.76-.62,2.66-.61,3.42,0l1.5-.02.29.32v.33c-2.7-.07-5.26-.17-7.95,0-.35.02-2.02.41-2.09.33-.1-.48.36-1.31.83-1.44.53-.15,1.12.87,1.85.27Z" fill="#d2c9b8"/>
          <path d="M50.53,10.49c.38,0,2.25-.07,2.35,0,.03.02-.02.24,0,.33-.75-.06-1.64.04-2.35-.33Z" fill="#d2c9b8"/>
          <path d="M51.87,7.81c.23.36.2.56.17,1,.65-.56.65-.28,1.17,0v.5c-.99-.22-.86.43-1.12.5-.95.24-.44-.8-.55-1.5.14.24.22.37.17.67h.16s0-1.17,0-1.17Z" fill="#e0a032"/>
          <path d="M46.6,26.06c.59-.12.55,1.59.16,1.67-.59.12-.55-1.59-.16-1.67Z" fill="#d89e19"/>
          <path d="M47.68,19.2c.04.62-.28,1.36-.84,1.67v-1.67c-.72-.01-.48.84-.51,1.34l-.33-1.34c.21-.14.57-.45.78-.47.3-.03.64.31.9.47Z" fill="#f6c037"/>
          <path d="M43.83,19.87c.26-.56,2.11.02,1.84,1l-1.01-.42.67.92c-.4.31-1.59-1.33-1.51-1.5Z" fill="#f4ba38"/>
          <path d="M46.01,18.36c.76-1.31-.26-.95-.46-1.8-.08-.34-.11-.93-.04-1.26.07-.31,1.12-.97,1.55-.92.27.03,1.36,1.12,1.38,1.39.07,1.04-1.46,1.6-.77,2.76-.62-.22-.92-.54-1.68-.17Z" fill="#e15e20"/>
          <path d="M43.33,10.16c-.1-.47-.28-1.06-.24-1.54.1-1.21,1.57-.66,2.3-.81.15-.03.43-.63.58-.66.31-.06,1.32-.06,1.65-.02.28.04,1.69.55,2.18.68.26.07.75-.07.89.03.07.05.08.38.19.53.08.11.3.1.33.23.1.44-.06,1.08,0,1.56-.33,0-.67-.01-1.01,0-.52.02-1.64.1-2.06,0-.14-.03-.05-.3-.36-.34-.44-.06-1.76-.06-2.2,0-.31.04-.22.31-.36.34-.36.08-1.46.04-1.89,0Z" fill="#c1d3df"/>
          <path d="M46.79,14.69c.31-.05,1.22,1.04,1.22,1.41s-.95,1.5-1.24,1.42c-.16-.39-1.1-1.11-1.1-1.42,0-.19.94-1.38,1.12-1.41Z" fill="#f5c433"/>
        </g>
        <g>
          <path d="M13.73,62.03c.07-.05.16-.3.33-.41.64-.41,1.98-.43,2.52.16.21.23.3.73.5.84.22.13,1.23.19,1.68.33,1.92.61,3.48,1.94,4.66,3.54.4.54,1.16,2.12,1.46,2.39.64.58,1.47.14,1.59,1.6.21,2.58-1.67,1.39-3.19,1.76-.4,0-.41-.02-.17-.33-.47-.14-.46-.36,0-.5l.23-.3c1.95.6,2.61.27,1.98-.98-1.73-.39-3.48-.69-5.27-.89-.3-.03-.45-.17-.46-.5l.05-.21,2.56.13c.25-.06.12-1.12-.44-1.6-.31.34-.38.28-.34-.17-.49-.08-.45-.38,0-.5.46-.41.99.32,1.26.72.42,1.63,1.82,2.16.34.24-1.3-1.68-3.14-3.21-5.22-3.77-1.11-.3-1,.63.35.17.59.09,2.26.94,1.93,1.63.01.5.12.87.31,1.13-.34.52-.56.31-.65-.63-.3.06-.57-.14-.8-.6-.55-.06-.73-.25-.54-.57-1-.23-3.05-.62-4.53-.46l-.16-.21c-1.77-1.3-4.74,1.38-5.87,2.81-.54.69-1.36,2.26-.26.75l.44-.05.22.07c-.22.94.16,1.02,1.01.88l.1.22.02.23c-1.39.33-2.83.63-4.32.9-.46,1.19.34,1.5,2.38.91l.24.31c.45.25.17.47-.84.67.37.07.37.59,0,.67-.36-1.07-.87-.38-1.77-.49-1.32-.16-1.48-2.35-.4-2.93.29-.16.69-.1.95-.31.24-.19,1.25-2.14,1.73-2.71,1.07-1.29,2.5-2.24,4.02-2.93,1.02-.08,1.8-.42,2.35-1Z" fill="#cf942d"/>
          <path d="M11.22,84.97c.39-.46,1.99-.84,2.47-.42.61,2.07,1.33,2.31,2.41.23.59-.61,2.16-.16,2.82.19.47-.04.49.22.17.5,0,.35-.17.27-.34,0l-.2.34c-1.12-.29-1.93.04-2.43.99,1.14.06,2.29.08,3.44.04l.36.3c0-.43.22-.48.5-.17.16,0,1.14.23,1.27.32.56.39.14,1.23.74,1.52-.1.26-.23.26-.34,0-.64.22-1.3.23-1.97.24-3.32,0-6.64,0-9.95,0-.67,0-1.33-.02-1.97-.23-.38.14-.89.29-1.17,0,1.19-.17.4-.77.71-1.3.11-.19,1.38-.53,1.64-.54.26-.36.38-.25.34.17,1.16-.35,2.4-.47,3.72-.36-.28-.98-1-1.3-2.18-.96l-.21-.35c-.14-.05-.14-.1,0-.17-.54-.18-.31-.62.17-.33Z" fill="#dd8725"/>
          <path d="M7.03,88.82c.39-.02.78,0,1.17,0,.09.2.06.32-.13.34l-1.88.17c.33.27.19,1.1.08,1.51l.12-.33h17.27l.2.33c-.22-.67-.19-1.17.08-1.51-.66-.07-1.37-.11-2.13-.11-.18-.15.06-.34.29-.39.11,0,.22,0,.34,0,.55.01,1.84-.19,2.09.33.21.44.28,2.14-.51,2.17l-18.17-.08c-.76-.34-.74-2.13.12-2.39.33-.1.71-.02,1.05-.04Z" fill="#cf9433"/>
          <path d="M15.91,79.11c.28-.14.43-.18.34.17.41-.25.55.04.17.33.36.08.3.17,0,.33.46.14.19.55.09.29-.05-.13.1-.13.25.04.54.2,1.36-.29,1.83-.67h.35c.24-.24.39-.17.34.17.23-.24.33-.13.17.17-.13.44-.97,1.02-1.47,1.22-1.49.1-1.35.66-.06,1.14l.19.48c.48,1.56,1.79,1.36,2,1.68.24.35-.53.91-.83,1-.05.15-.11.15-.17,0-.12-.15-.12-.33-.17-.5-.91-.41-1.48-.91-1.77-1.9-.12-.18-.64-.28-.62-.26,1.44,1.44-.78,1.61-1.39.33l-.4.12c-.73.62-2.13,1.35-1.79-.19.87-.65.43-.59-.17-.13-.41.86-.88,1.48-1.58,2.03-.23.02-.13.24-.17.33-.18.34-.36.41-.5,0-.2-.06-.71-.52-.66-.74.42-.54,1.03-.47,1.51-1.01.38-.43.51-.9,1-1.43.17-.24.87-.6,1.01-.33.14-.24.36-.13.67.33.08-.13.2-.25.34-.22,1.38.22,1.65-.11,1.41-1.55-.3-.34-.38-.64-.24-.9-.37-.11-.42-.22-.17-.33.14-.47.38-.48.5,0Z" fill="#cf9433"/>
          <path d="M7.37,71.74c.54.07.43,1.18.08,1.44l.08.56c.39.2.7,1.01.34,1.34l.44.21c.45.92.96,1.81,1.53,2.67l-.12.47c.31.06.19.58-.17.33-1.66-2.05-2.82-3.48-2.68-6.36,0-.2-.04-.52,0-.67.18-.16.4-.23.5,0Z" fill="#a42f28"/>
          <path d="M22.61,75.93c-.42,1.32-1.56,2.84-2.51,3.85-.29.24-.52.3-.67.17-.06-.04-.11-.13-.17-.17-.25-.18-.14-.44.17-.33l.19-.58c.94-.93,1.7-2.01,2.28-3.23l.38-.04c.25-.33.36-.21.34.33Z" fill="#ae2c28"/>
          <path d="M10.05,78.44c.05.68.32,1.13.84,1.34l.13-.19c.71.38,1.45.61,2.21.69-.49-.43.21-1.16.5-.5.19.08.19.25,0,.5.44.19.56,1.46.34,1.84-.11-.05-.65-.3-.67-.33-.22.05-.29-.09-.21-.43-.65-.4-1.36-.7-2.14-.91-1.03-.66-.86-.87-1.51-1.67.21-.02.14-.31.17-.33.06-.15.11-.15.17,0,.04-.15.1-.15.17,0Z" fill="#ca943e"/>
          <path d="M23.11,71.91s.17.15.17.33c-.02.79-.42,2.89-.67,3.68l-.34-.33c-.28,0-.28-.1,0-.33-.49-.26-.31-1.4.17-1.67-.49-.32-.24-1.58.34-1.67,0-.36.23-.35.34,0Z" fill="#a1351f"/>
          <path d="M20.1,79.78c-.3.32-1.89,1.61-2.13,1.67-.27.07-.6-.02-.89,0-.4.31.91.6.98.7.11.16-.02.48.03.64-.2-.42-1.75-.92-1.67-1.25.09-.4,1.33-.53,1.79-.73s.86-.68,1.23-.87c.17-.09.47-.09.67-.17Z" fill="#f9f3db"/>
          <path d="M11.05,85.3s.02.12,0,.17c.39.65-.7,1.52-1.34,1.67-.14,0-.31-.17-.34-.17l1.17-1.67c.13.04.35-.03.5,0Z" fill="#a63c29"/>
          <path d="M19.09,85.47c.06,0,.12.01.17,0l1.17,1.51s-.22.17-.5.17c-.58-.24-1.69-1.09-1.17-1.67.11,0,.23.02.34,0Z" fill="#a73c24"/>
          <path d="M13.4,81.79l-1.01.33s-.05-.2.04-.29c.14-.12.71-.07.63-.46-.02-.11-1.57-.64-2.01-.92.5.09,2.05.49,2.26.85.1.17.06.45.09.49Z" fill="#efdbad"/>
          <path d="M13.73,62.03c-.02,1.09-1.54.79-2.35,1,.85-.39,1.53-.45,2.35-1Z" fill="#f3e6c3"/>
          <path d="M15.91,68.39l3.09.16.09.17c.31-.29.48-.29.5,0,1.08.52,5.25.57,5.96,1.16.33.27.37,1.58.08,1.78-.21.15-2.08-.19-2.52-.26-.19.19-.4.19-.64.15-4.27-.67-8.27-1.09-12.6-.48l-.33-.17c-.57-.02-1.13.04-1.68.17-.06.15-.11.15-.17,0-.52.05-2.4.39-2.68.26-.45-.22-.47-1.35-.19-1.7.36-.45,3.81-.6,4.54-.9,2.01-.64,4.46-.65,6.53-.33Z" fill="#f2c92e"/>
          <path d="M13.73,64.04c1.39-.11,2.07.12,3.27.33.42.07.97-.08,1.32,0,.2.05.06.3.1.34l-.27.35-2.33-.51c-.9-.1-1.66-.14-2.33.55-1.44-.04-2.97.18-2.29,1.93l-.14.2c-.48,1.02,1.83.7,2.7.45,1.59-.04,3.13.1,4.67.38.1-.24.24-.24.34,0,.74.12,1.49.17,2.25.16l.09.18c.18-.34.39-.3.7-.18-.29-.52-.3-.9-.03-1.16.9.39.68.66.67,1.67h-2.85s-.5,0-.5,0c.12-.26.03-.32-.25-.18l-2.94-.16c-2.19.04-4.35.21-6.53.33h-1.34s0-1.17,0-1.17c-.37-.73,1.05-2.09,1.9-1.8.34-.88,1.17-1.51,2.05-1.78.47-.14,1.54-.41,1.74.06Z" fill="#cc9437"/>
          <path d="M23.11,71.41c.02.16-.03.36,0,.5-.1-.02-.25.03-.34,0l-.52.2c-4.79-1.11-9.84-.9-14.6-.05-.13.02-.25-.16-.29-.31-.17,0-.34,0-.5,0,.16-.57.99-.06.84-.67.06,0,.11,0,.17,0,.55-.13,1.11-.18,1.68-.17,5.57-.59,8.09-.39,13.57.5Z" fill="#e37e26"/>
          <path d="M13.73,64.04c-.23.02-1.03.15-1.38.2-.94.13-2.41,1.2-2.14,2.31-.28.04-.16-.41-.43-.5-.7-.22-1.45,1.09-1.74,1.5-.45.62-.55,1.18-1.51,1,.52-1.61,2.28-3.52,3.76-4.36.72-.41,3.54-1.72,3.44-.16Z" fill="#f5c536"/>
          <path d="M20.1,65.38c-.31-.49-1.42-1.21-1.97-1.3-.36-.06-.93.28-1.19.11-.24-.15-.38-.99.39-.99,2.3,0,6.16,3.32,6.79,5.45.13.44-.71.27-.93.09-.52-.4-.37-1.61-1.74-2.36-.2.29-.38.2-.6,0-.47.42-.71.09-.74-1.01Z" fill="#f7c537"/>
          <path d="M14.69,61.9c2.27-.69,2.29,2.64,0,1.94-.78-.24-.79-1.7,0-1.94Z" fill="#f3c732"/>
          <path d="M11.22,84.97c-.86-.54-.1-.42.15-.6.84-.61.79-1.3,1.27-1.75.37-.34,1.15-.6,1.26.09-.04.2-1.04.55-.67.92s1.29-1.03,2.07-.8c.33.1.54,1.15,1.44.8.12-.49-.75-.52-.67-.92.1-.5,1.08-.18,1.35.16.2.25.22.63.42.92.32.46.81.61,1.1.93.17.18-.03.24-.02.25-.65.22-1.93-.29-2.4-.18-.12.03-1.03,1.86-1.7,1.86-.21,0-.98-.74-1.09-.92-.17-.28-.29-1.06-.34-1.09-.17-.12-1.74.53-2.17.33Z" fill="#f3c731"/>
          <path d="M8.37,87.81c.42-.43.85,0,1.27-.02,3.49-.07,7.35-.42,10.86-.15.68.05,1.11.08.93.84l-12.94.08c-.36-.03-.23-.47-.13-.75Z" fill="#c5cfd4"/>
          <path d="M22.11,88.82c.01.09-.03.31,0,.33.13.1,1.66-.07,2.01,0,.04.12-.17.15-.17.17l-.12.33H6.4l-.2-.33c.54-.4,1.47.07,2.01-.5,4.57-.1,9.33-.08,13.9,0Z" fill="#dd8725"/>
          <path d="M18.76,85.47c.13.69.98.95,1.17,1.67-1.18-.02-2.65.13-3.78,0-.25-.03-.42-.02-.58-.26.19-.15,1.16-1.39,1.29-1.42.52-.11,1.31.03,1.89,0Z" fill="#ec652b"/>
          <path d="M11.05,85.47c.46.09,1.67-.15,1.98.03.08.05,1.01,1.51.87,1.64-1.39.02-2.79-.02-4.19,0,.43-.59,1-1,1.34-1.67Z" fill="#eb652b"/>
          <path d="M8.37,87.81c.07.26-.23.64.25.67,4.16.28,8.63-.21,12.82,0l-13.23.17c0-.35-.09-.58.17-.84Z" fill="#cfd0c8"/>
          <path d="M23.95,89.32c0,.17.45,1.51-.08,1.51H6.28c-.34,0-.33-1.27-.08-1.51h17.76Z" fill="#f4c332"/>
          <path d="M14.24,76.76c1-.36,1.22-.27,1.19.77.05-.38.21-.63.48-.77.3-.27.61-.01.67.33,1.3.89.43,1.59-.67,2.01-.13-.03-.35,0-.5,0-.57.15-1.13.38-1.68.67-.02.02-.17-.04-.28.05-.08.07-.08.32-.22.45-.77-.07-1.52-.31-2.24-.72l-.1.22c-.07-.03-.24.05-.37,0-.48-.21-.54-.86-.46-1.33.12-.42.58-.63,1.4-.61.19-.33.4-.46.61-.39q.5.13,0,0c-.43.05-.34-.36.01-.53.77.08,1.48.01,2.17-.14Z" fill="#d79328"/>
          <path d="M15.91,76.1c.32-.09,1.64-.05,1.98.14.56.3.82.75.92,1.35.73.52,1.36.99.62,1.85,0,.09-.14.23-.17.33-.1-.07-.23-.11-.34-.17l-.21-.08c-.1-.51-.16-.8-.63-1.09-.27,0-.33-.23-.17-.66l-.16-.51c-.34.27-1.05.33-1.17-.17-.69-.1-.38-.16-.67-.33-.21.24-.51.17-.87-.23-.06.05-.65.41-.8.23-.08.05-.12.29-.29.33-.52.11-1.31-.12-1.78,0-.21.05-.07.28-.1.34-.65,1.13-.59.45-1.56.67-.03,0-.19.2-.45.33-.04.02-.11-.02-.17,0-.6-.85.48-.99,1.17-1.03.32-.95,1.03-1.26,2.15-.94.37-.33.72-.5,1.04-.54.51-.82,1.24-.59,1.68.17Z" fill="#e38627"/>
          <path d="M15.58,79.44c.59.6.89,1.28.54,2.13-.46,1.12-1.19.9-2.05.54-.38-.65-.34-1.12-.34-1.84.17-.74,1.19-1.38,1.84-.84Z" fill="#c5cfd4"/>
          <path d="M18.09,78.44c.75-.3.96.58.84,1.17-.11.53-1.19.71-1.55.85-.13.05-.66.96-.63-.18.25-.3,1.23-.83,1.68-1,.11-.04-1.88,1.16-2.01.67-.02-.11.02-.24,0-.33.27-.39,1.23-1.33,1.68-1.17Z" fill="#f5bd38"/>
          <path d="M17.75,77.27c.61.88-.67,2.05-1.51,2.01-.04-.04-.28-.15-.34-.17.62-.47,2.09-1.87.34-1.01l.33-1c.4.06.74-.09,1.17.17Z" fill="#f5bb38"/>
          <path d="M18.09,78.44c-.23.09-1.08,1.22-1.68,1.17-.01-.06-.13-.3-.17-.33.64-.65,1.65-.84,1.51-2.01.49.29.33.66.34,1.17Z" fill="#d79328"/>
          <path d="M16.41,79.95l2.01-.67c-.3.55-1.1.77-1.68,1-.1.04-.3.21-.33.17-.02-.16.02-.34,0-.5Z" fill="#d79328"/>
          <path d="M15.41,79.11c.07.09.1.26.17.33-1.05-.19-1.21.17-1.84.84,0-.17,0-.33,0-.5.73-.62.61-.67,1.68-.67Z" fill="#d4b285"/>
          <path d="M22.78,71.91c-.17.59-.25,1.06-.34,1.67l-.23.45c-.76.26-.47.86.06,1.22-.02.1.03.24,0,.33-.1.34-1.32,2.3-1.6,2.67-.33.43-.81.86-1.25,1.18.16-1.46-.51-1.07-.91-1.68-.12-.18-.08-.47-.19-.65-.63-.99-1.1-.53-1.96-.73-.18-.04-.32-.25-.45-.29-.68-.39-.58-.67-.32-1.31,2.23-2.21-2.09-3.84-1.47-.67.92.8.96,1.4.11,1.81-.94,1.62-1.68.41-2.48.87-.12.07-.3.75-.54.89-.42.24-1.29-.15-1.34.75-.06.02-.14-.02-.17,0-.64-1.19-1.39-2.04-1.84-3.35.49-.96.38-1.4-.34-1.34-.37-.51-.08-1.37-.17-2.01.62-.01.84-.27,1.27-.33,3.96-.5,10.41-.67,14.14.49Z" fill="#ee4c28"/>
          <path d="M7.54,73.75c0-.19-.08-.57.08-.67.66.8,1.19.42.73,1.58-.1.25-.12.51-.48.43-.2-.57-.33-.61-.34-1.34Z" fill="#f9ab47"/>
          <path d="M10.89,79.78c-.87-.87-.91-1.66.55-1.47l1.79,1.3c-.62.02-.97-.45-1.59-.51-.34-.03-.49-.08-.42.34l2.01.84c-.43.41-1.82-.29-2.35-.5Z" fill="#f5bf38"/>
          <path d="M22.44,73.58c-.07.5-.06,1.21-.17,1.67-.32.17-.31.3-.55-.04-.66-.93-.18-1.31.72-1.64Z" fill="#fab34a"/>
          <path d="M15.91,68.39c1.14-.02,2.29.01,3.43,0l-.25.34-3.18-.33Z" fill="#cf942d"/>
          <path d="M9.55,70.91c-.52.06-1.12.11-1.68.17.4-.36,1.15-.1,1.68-.17Z" fill="#cf942d"/>
          <path d="M18.42,64.71c.34.42.92.47,1.34,1.17.13.43.24.84.3,1.21.6-.7,1.06-.77,1.37-.21.02,0,.23.12.34.17l.5,1.51c-.41.1-.82-.14-1.17-.17-.34-.11-.46-.21-.14-.18-.74.02-1.48-.03-2.21-.15-.11,0-.22,0-.34,0-.44-.05-.43-.21,0-.33,1.19-.42.81-2.15-.47-2.02l-2.08-.66c-1.07-.15-1.53-.13-2.23.66-1.8-.31-2.4.27-1.8,1.75l-.28.27c-.52.45-1.3-.06-.5-.5-.23-.71-.66-1.06.06-1.78.65-.65,1.53-.46,2.3-.63.38-.08.61-.38,1.07-.44,1.47-.2,2.53.47,3.94.34Z" fill="#cfd0c8"/>
          <path d="M11.05,67.22c.04.12-.05.45,0,.5.03.03.37,0,.5,0,0-.15.07-.26.2-.32l1.45.02c.76-.62,2.66-.61,3.42,0l1.5-.02.29.32v.33c-2.7-.07-5.26-.17-7.95,0-.35.02-2.02.41-2.09.33-.1-.48.36-1.31.83-1.44.53-.15,1.12.87,1.85.27Z" fill="#d2c9b8"/>
          <path d="M18.76,68.06c.38,0,2.25-.07,2.35,0,.03.02-.02.24,0,.33-.75-.06-1.64.04-2.35-.33Z" fill="#d2c9b8"/>
          <path d="M20.1,65.38c.23.36.2.56.17,1,.65-.56.65-.28,1.17,0v.5c-.99-.22-.86.43-1.12.5-.95.24-.44-.8-.55-1.5.14.24.22.37.17.67h.16s0-1.17,0-1.17Z" fill="#e0a032"/>
          <path d="M14.83,83.63c.59-.12.55,1.59.16,1.67-.59.12-.55-1.59-.16-1.67Z" fill="#d89e19"/>
          <path d="M15.91,76.76c.04.62-.28,1.36-.84,1.67v-1.67c-.72-.01-.48.84-.51,1.34l-.33-1.34c.21-.14.57-.45.78-.47.3-.03.64.31.9.47Z" fill="#f6c037"/>
          <path d="M12.06,77.43c.26-.56,2.11.02,1.84,1l-1.01-.42.67.92c-.4.31-1.59-1.33-1.51-1.5Z" fill="#f4ba38"/>
          <path d="M14.24,75.93c.76-1.31-.26-.95-.46-1.8-.08-.34-.11-.93-.04-1.26.07-.31,1.12-.97,1.55-.92.27.03,1.36,1.12,1.38,1.39.07,1.04-1.46,1.6-.77,2.76-.62-.22-.92-.54-1.68-.17Z" fill="#e15e20"/>
          <path d="M11.56,67.72c-.1-.47-.28-1.06-.24-1.54.1-1.21,1.57-.66,2.3-.81.15-.03.43-.63.58-.66.31-.06,1.32-.06,1.65-.02.28.04,1.69.55,2.18.68.26.07.75-.07.89.03.07.05.08.38.19.53.08.11.3.1.33.23.1.44-.06,1.08,0,1.56-.33,0-.67-.01-1.01,0-.52.02-1.64.1-2.06,0-.14-.03-.05-.3-.36-.34-.44-.06-1.76-.06-2.2,0-.31.04-.22.31-.36.34-.36.08-1.46.04-1.89,0Z" fill="#c1d3df"/>
          <path d="M15.01,72.26c.31-.05,1.22,1.04,1.22,1.41s-.95,1.5-1.24,1.42c-.16-.39-1.1-1.11-1.1-1.42,0-.19.94-1.38,1.12-1.41Z" fill="#f5c433"/>
        </g>
        <g>
          <path d="M45.51,62.03c.07-.05.16-.3.33-.41.64-.41,1.98-.43,2.52.16.21.23.3.73.5.84.22.13,1.23.19,1.68.33,1.92.61,3.48,1.94,4.66,3.54.4.54,1.16,2.12,1.46,2.39.64.58,1.47.14,1.59,1.6.21,2.58-1.67,1.39-3.19,1.76-.4,0-.41-.02-.17-.33-.47-.14-.46-.36,0-.5l.23-.3c1.95.6,2.61.27,1.98-.98-1.73-.39-3.48-.69-5.27-.89-.3-.03-.45-.17-.46-.5l.05-.21,2.56.13c.25-.06.12-1.12-.44-1.6-.31.34-.38.28-.34-.17-.49-.08-.45-.38,0-.5.46-.41.99.32,1.26.72.42,1.63,1.82,2.16.34.24-1.3-1.68-3.14-3.21-5.22-3.77-1.11-.3-1,.63.35.17.59.09,2.26.94,1.93,1.63.01.5.12.87.31,1.13-.34.52-.56.31-.65-.63-.3.06-.57-.14-.8-.6-.55-.06-.73-.25-.54-.57-1-.23-3.05-.62-4.53-.46l-.16-.21c-1.77-1.3-4.74,1.38-5.87,2.81-.54.69-1.36,2.26-.26.75l.44-.05.22.07c-.22.94.16,1.02,1.01.88l.1.22.02.23c-1.39.33-2.83.63-4.32.9-.46,1.19.34,1.5,2.38.91l.24.31c.45.25.17.47-.84.67.37.07.37.59,0,.67-.36-1.07-.87-.38-1.77-.49-1.32-.16-1.48-2.35-.4-2.93.29-.16.69-.1.95-.31.24-.19,1.25-2.14,1.73-2.71,1.07-1.29,2.5-2.24,4.02-2.93,1.02-.08,1.8-.42,2.35-1Z" fill="#cf942d"/>
          <path d="M42.99,84.97c.39-.46,1.99-.84,2.47-.42.61,2.07,1.33,2.31,2.41.23.59-.61,2.16-.16,2.82.19.47-.04.49.22.17.5,0,.35-.17.27-.34,0l-.2.34c-1.12-.29-1.93.04-2.43.99,1.14.06,2.29.08,3.44.04l.36.3c0-.43.22-.48.5-.17.16,0,1.14.23,1.27.32.56.39.14,1.23.74,1.52-.1.26-.23.26-.34,0-.64.22-1.3.23-1.97.24-3.32,0-6.64,0-9.95,0-.67,0-1.33-.02-1.97-.23-.38.14-.89.29-1.17,0,1.19-.17.4-.77.71-1.3.11-.19,1.38-.53,1.64-.54.26-.36.38-.25.34.17,1.16-.35,2.4-.47,3.72-.36-.28-.98-1-1.3-2.18-.96l-.21-.35c-.14-.05-.14-.1,0-.17-.54-.18-.31-.62.17-.33Z" fill="#dd8725"/>
          <path d="M38.81,88.82c.39-.02.78,0,1.17,0,.09.2.06.32-.13.34l-1.88.17c.33.27.19,1.1.08,1.51l.12-.33h17.27l.2.33c-.22-.67-.19-1.17.08-1.51-.66-.07-1.37-.11-2.13-.11-.18-.15.06-.34.29-.39.11,0,.22,0,.34,0,.55.01,1.84-.19,2.09.33.21.44.28,2.14-.51,2.17l-18.17-.08c-.76-.34-.74-2.13.12-2.39.33-.1.71-.02,1.05-.04Z" fill="#cf9433"/>
          <path d="M47.68,79.11c.28-.14.43-.18.34.17.41-.25.55.04.17.33.36.08.3.17,0,.33.46.14.19.55.09.29-.05-.13.1-.13.25.04.54.2,1.36-.29,1.83-.67h.35c.24-.24.39-.17.34.17.23-.24.33-.13.17.17-.13.44-.97,1.02-1.47,1.22-1.49.1-1.35.66-.06,1.14l.19.48c.48,1.56,1.79,1.36,2,1.68.24.35-.53.91-.83,1-.05.15-.11.15-.17,0-.12-.15-.12-.33-.17-.5-.91-.41-1.48-.91-1.77-1.9-.12-.18-.64-.28-.62-.26,1.44,1.44-.78,1.61-1.39.33l-.4.12c-.73.62-2.13,1.35-1.79-.19.87-.65.43-.59-.17-.13-.41.86-.88,1.48-1.58,2.03-.23.02-.13.24-.17.33-.18.34-.36.41-.5,0-.2-.06-.71-.52-.66-.74.42-.54,1.03-.47,1.51-1.01.38-.43.51-.9,1-1.43.17-.24.87-.6,1.01-.33.14-.24.36-.13.67.33.08-.13.2-.25.34-.22,1.38.22,1.65-.11,1.41-1.55-.3-.34-.38-.64-.24-.9-.37-.11-.42-.22-.17-.33.14-.47.38-.48.5,0Z" fill="#cf9433"/>
          <path d="M39.14,71.74c.54.07.43,1.18.08,1.44l.08.56c.39.2.7,1.01.34,1.34l.44.21c.45.92.96,1.81,1.53,2.67l-.12.47c.31.06.19.58-.17.33-1.66-2.05-2.82-3.48-2.68-6.36,0-.2-.04-.52,0-.67.18-.16.4-.23.5,0Z" fill="#a42f28"/>
          <path d="M54.38,75.93c-.42,1.32-1.56,2.84-2.51,3.85-.29.24-.52.3-.67.17-.06-.04-.11-.13-.17-.17-.25-.18-.14-.44.17-.33l.19-.58c.94-.93,1.7-2.01,2.28-3.23l.38-.04c.25-.33.36-.21.34.33Z" fill="#ae2c28"/>
          <path d="M41.82,78.44c.05.68.32,1.13.84,1.34l.13-.19c.71.38,1.45.61,2.21.69-.49-.43.21-1.16.5-.5.19.08.19.25,0,.5.44.19.56,1.46.34,1.84-.11-.05-.65-.3-.67-.33-.22.05-.29-.09-.21-.43-.65-.4-1.36-.7-2.14-.91-1.03-.66-.86-.87-1.51-1.67.21-.02.14-.31.17-.33.06-.15.11-.15.17,0,.04-.15.1-.15.17,0Z" fill="#ca943e"/>
          <path d="M54.89,71.91s.17.15.17.33c-.02.79-.42,2.89-.67,3.68l-.34-.33c-.28,0-.28-.1,0-.33-.49-.26-.31-1.4.17-1.67-.49-.32-.24-1.58.34-1.67,0-.36.23-.35.34,0Z" fill="#a1351f"/>
          <path d="M51.87,79.78c-.3.32-1.89,1.61-2.13,1.67-.27.07-.6-.02-.89,0-.4.31.91.6.98.7.11.16-.02.48.03.64-.2-.42-1.75-.92-1.67-1.25.09-.4,1.33-.53,1.79-.73s.86-.68,1.23-.87c.17-.09.47-.09.67-.17Z" fill="#f9f3db"/>
          <path d="M42.83,85.3s.02.12,0,.17c.39.65-.7,1.52-1.34,1.67-.14,0-.31-.17-.34-.17l1.17-1.67c.13.04.35-.03.5,0Z" fill="#a63c29"/>
          <path d="M50.87,85.47c.06,0,.12.01.17,0l1.17,1.51s-.22.17-.5.17c-.58-.24-1.69-1.09-1.17-1.67.11,0,.23.02.34,0Z" fill="#a73c24"/>
          <path d="M45.17,81.79l-1.01.33s-.05-.2.04-.29c.14-.12.71-.07.63-.46-.02-.11-1.57-.64-2.01-.92.5.09,2.05.49,2.26.85.1.17.06.45.09.49Z" fill="#efdbad"/>
          <path d="M45.51,62.03c-.02,1.09-1.54.79-2.35,1,.85-.39,1.53-.45,2.35-1Z" fill="#f3e6c3"/>
          <path d="M47.68,68.39l3.09.16.09.17c.31-.29.48-.29.5,0,1.08.52,5.25.57,5.96,1.16.33.27.37,1.58.08,1.78-.21.15-2.08-.19-2.52-.26-.19.19-.4.19-.64.15-4.27-.67-8.27-1.09-12.6-.48l-.33-.17c-.57-.02-1.13.04-1.68.17-.06.15-.11.15-.17,0-.52.05-2.4.39-2.68.26-.45-.22-.47-1.35-.19-1.7.36-.45,3.81-.6,4.54-.9,2.01-.64,4.46-.65,6.53-.33Z" fill="#f2c92e"/>
          <path d="M45.51,64.04c1.39-.11,2.07.12,3.27.33.42.07.97-.08,1.32,0,.2.05.06.3.1.34l-.27.35-2.33-.51c-.9-.1-1.66-.14-2.33.55-1.44-.04-2.97.18-2.29,1.93l-.14.2c-.48,1.02,1.83.7,2.7.45,1.59-.04,3.13.1,4.67.38.1-.24.24-.24.34,0,.74.12,1.49.17,2.25.16l.09.18c.18-.34.39-.3.7-.18-.29-.52-.3-.9-.03-1.16.9.39.68.66.67,1.67h-2.85s-.5,0-.5,0c.12-.26.03-.32-.25-.18l-2.94-.16c-2.19.04-4.35.21-6.53.33h-1.34s0-1.17,0-1.17c-.37-.73,1.05-2.09,1.9-1.8.34-.88,1.17-1.51,2.05-1.78.47-.14,1.54-.41,1.74.06Z" fill="#cc9437"/>
          <path d="M54.89,71.41c.02.16-.03.36,0,.5-.1-.02-.25.03-.34,0l-.52.2c-4.79-1.11-9.84-.9-14.6-.05-.13.02-.25-.16-.29-.31-.17,0-.34,0-.5,0,.16-.57.99-.06.84-.67.06,0,.11,0,.17,0,.55-.13,1.11-.18,1.68-.17,5.57-.59,8.09-.39,13.57.5Z" fill="#e37e26"/>
          <path d="M45.51,64.04c-.23.02-1.03.15-1.38.2-.94.13-2.41,1.2-2.14,2.31-.28.04-.16-.41-.43-.5-.7-.22-1.45,1.09-1.74,1.5-.45.62-.55,1.18-1.51,1,.52-1.61,2.28-3.52,3.76-4.36.72-.41,3.54-1.72,3.44-.16Z" fill="#f5c536"/>
          <path d="M51.87,65.38c-.31-.49-1.42-1.21-1.97-1.3-.36-.06-.93.28-1.19.11-.24-.15-.38-.99.39-.99,2.3,0,6.16,3.32,6.79,5.45.13.44-.71.27-.93.09-.52-.4-.37-1.61-1.74-2.36-.2.29-.38.2-.6,0-.47.42-.71.09-.74-1.01Z" fill="#f7c537"/>
          <path d="M46.46,61.9c2.27-.69,2.29,2.64,0,1.94-.78-.24-.79-1.7,0-1.94Z" fill="#f3c732"/>
          <path d="M42.99,84.97c-.86-.54-.1-.42.15-.6.84-.61.79-1.3,1.27-1.75.37-.34,1.15-.6,1.26.09-.04.2-1.04.55-.67.92s1.29-1.03,2.07-.8c.33.1.54,1.15,1.44.8.12-.49-.75-.52-.67-.92.1-.5,1.08-.18,1.35.16.2.25.22.63.42.92.32.46.81.61,1.1.93.17.18-.03.24-.02.25-.65.22-1.93-.29-2.4-.18-.12.03-1.03,1.86-1.7,1.86-.21,0-.98-.74-1.09-.92-.17-.28-.29-1.06-.34-1.09-.17-.12-1.74.53-2.17.33Z" fill="#f3c731"/>
          <path d="M40.15,87.81c.42-.43.85,0,1.27-.02,3.49-.07,7.35-.42,10.86-.15.68.05,1.11.08.93.84l-12.94.08c-.36-.03-.23-.47-.13-.75Z" fill="#c5cfd4"/>
          <path d="M53.88,88.82c.01.09-.03.31,0,.33.13.1,1.66-.07,2.01,0,.04.12-.17.15-.17.17l-.12.33h-17.44l-.2-.33c.54-.4,1.47.07,2.01-.5,4.57-.1,9.33-.08,13.9,0Z" fill="#dd8725"/>
          <path d="M50.53,85.47c.13.69.98.95,1.17,1.67-1.18-.02-2.65.13-3.78,0-.25-.03-.42-.02-.58-.26.19-.15,1.16-1.39,1.29-1.42.52-.11,1.31.03,1.89,0Z" fill="#ec652b"/>
          <path d="M42.83,85.47c.46.09,1.67-.15,1.98.03.08.05,1.01,1.51.87,1.64-1.39.02-2.79-.02-4.19,0,.43-.59,1-1,1.34-1.67Z" fill="#eb652b"/>
          <path d="M40.15,87.81c.07.26-.23.64.25.67,4.16.28,8.63-.21,12.82,0l-13.23.17c0-.35-.09-.58.17-.84Z" fill="#cfd0c8"/>
          <path d="M55.72,89.32c0,.17.45,1.51-.08,1.51h-17.59c-.34,0-.33-1.27-.08-1.51h17.76Z" fill="#f4c332"/>
          <path d="M46.01,76.76c1-.36,1.22-.27,1.19.77.05-.38.21-.63.48-.77.3-.27.61-.01.67.33,1.3.89.43,1.59-.67,2.01-.13-.03-.35,0-.5,0-.57.15-1.13.38-1.68.67-.02.02-.17-.04-.28.05-.08.07-.08.32-.22.45-.77-.07-1.52-.31-2.24-.72l-.1.22c-.07-.03-.24.05-.37,0-.48-.21-.54-.86-.46-1.33.12-.42.58-.63,1.4-.61.19-.33.4-.46.61-.39q.5.13,0,0c-.43.05-.34-.36.01-.53.77.08,1.48.01,2.17-.14Z" fill="#d79328"/>
          <path d="M47.68,76.1c.32-.09,1.64-.05,1.98.14.56.3.82.75.92,1.35.73.52,1.36.99.62,1.85,0,.09-.14.23-.17.33-.1-.07-.23-.11-.34-.17l-.21-.08c-.1-.51-.16-.8-.63-1.09-.27,0-.33-.23-.17-.66l-.16-.51c-.34.27-1.05.33-1.17-.17-.69-.1-.38-.16-.67-.33-.21.24-.51.17-.87-.23-.06.05-.65.41-.8.23-.08.05-.12.29-.29.33-.52.11-1.31-.12-1.78,0-.21.05-.07.28-.1.34-.65,1.13-.59.45-1.56.67-.03,0-.19.2-.45.33-.04.02-.11-.02-.17,0-.6-.85.48-.99,1.17-1.03.32-.95,1.03-1.26,2.15-.94.37-.33.72-.5,1.04-.54.51-.82,1.24-.59,1.68.17Z" fill="#e38627"/>
          <path d="M47.35,79.44c.59.6.89,1.28.54,2.13-.46,1.12-1.19.9-2.05.54-.38-.65-.34-1.12-.34-1.84.17-.74,1.19-1.38,1.84-.84Z" fill="#c5cfd4"/>
          <path d="M49.86,78.44c.75-.3.96.58.84,1.17-.11.53-1.19.71-1.55.85-.13.05-.66.96-.63-.18.25-.3,1.23-.83,1.68-1,.11-.04-1.88,1.16-2.01.67-.02-.11.02-.24,0-.33.27-.39,1.23-1.33,1.68-1.17Z" fill="#f5bd38"/>
          <path d="M49.53,77.27c.61.88-.67,2.05-1.51,2.01-.04-.04-.28-.15-.34-.17.62-.47,2.09-1.87.34-1.01l.33-1c.4.06.74-.09,1.17.17Z" fill="#f5bb38"/>
          <path d="M49.86,78.44c-.23.09-1.08,1.22-1.68,1.17-.01-.06-.13-.3-.17-.33.64-.65,1.65-.84,1.51-2.01.49.29.33.66.34,1.17Z" fill="#d79328"/>
          <path d="M48.19,79.95l2.01-.67c-.3.55-1.1.77-1.68,1-.1.04-.3.21-.33.17-.02-.16.02-.34,0-.5Z" fill="#d79328"/>
          <path d="M47.18,79.11c.07.09.1.26.17.33-1.05-.19-1.21.17-1.84.84,0-.17,0-.33,0-.5.73-.62.61-.67,1.68-.67Z" fill="#d4b285"/>
          <path d="M54.55,71.91c-.17.59-.25,1.06-.34,1.67l-.23.45c-.76.26-.47.86.06,1.22-.02.1.03.24,0,.33-.1.34-1.32,2.3-1.6,2.67-.33.43-.81.86-1.25,1.18.16-1.46-.51-1.07-.91-1.68-.12-.18-.08-.47-.19-.65-.63-.99-1.1-.53-1.96-.73-.18-.04-.32-.25-.45-.29-.68-.39-.58-.67-.32-1.31,2.23-2.21-2.09-3.84-1.47-.67.92.8.96,1.4.11,1.81-.94,1.62-1.68.41-2.48.87-.12.07-.3.75-.54.89-.42.24-1.29-.15-1.34.75-.06.02-.14-.02-.17,0-.64-1.19-1.39-2.04-1.84-3.35.49-.96.38-1.4-.34-1.34-.37-.51-.08-1.37-.17-2.01.62-.01.84-.27,1.27-.33,3.96-.5,10.41-.67,14.14.49Z" fill="#ee4c28"/>
          <path d="M39.31,73.75c0-.19-.08-.57.08-.67.66.8,1.19.42.73,1.58-.1.25-.12.51-.48.43-.2-.57-.33-.61-.34-1.34Z" fill="#f9ab47"/>
          <path d="M42.66,79.78c-.87-.87-.91-1.66.55-1.47l1.79,1.3c-.62.02-.97-.45-1.59-.51-.34-.03-.49-.08-.42.34l2.01.84c-.43.41-1.82-.29-2.35-.5Z" fill="#f5bf38"/>
          <path d="M54.22,73.58c-.07.5-.06,1.21-.17,1.67-.32.17-.31.3-.55-.04-.66-.93-.18-1.31.72-1.64Z" fill="#fab34a"/>
          <path d="M47.68,68.39c1.14-.02,2.29.01,3.43,0l-.25.34-3.18-.33Z" fill="#cf942d"/>
          <path d="M41.32,70.91c-.52.06-1.12.11-1.68.17.4-.36,1.15-.1,1.68-.17Z" fill="#cf942d"/>
          <path d="M50.2,64.71c.34.42.92.47,1.34,1.17.13.43.24.84.3,1.21.6-.7,1.06-.77,1.37-.21.02,0,.23.12.34.17l.5,1.51c-.41.1-.82-.14-1.17-.17-.34-.11-.46-.21-.14-.18-.74.02-1.48-.03-2.21-.15-.11,0-.22,0-.34,0-.44-.05-.43-.21,0-.33,1.19-.42.81-2.15-.47-2.02l-2.08-.66c-1.07-.15-1.53-.13-2.23.66-1.8-.31-2.4.27-1.8,1.75l-.28.27c-.52.45-1.3-.06-.5-.5-.23-.71-.66-1.06.06-1.78.65-.65,1.53-.46,2.3-.63.38-.08.61-.38,1.07-.44,1.47-.2,2.53.47,3.94.34Z" fill="#cfd0c8"/>
          <path d="M42.83,67.22c.04.12-.05.45,0,.5.03.03.37,0,.5,0,0-.15.07-.26.2-.32l1.45.02c.76-.62,2.66-.61,3.42,0l1.5-.02.29.32v.33c-2.7-.07-5.26-.17-7.95,0-.35.02-2.02.41-2.09.33-.1-.48.36-1.31.83-1.44.53-.15,1.12.87,1.85.27Z" fill="#d2c9b8"/>
          <path d="M50.53,68.06c.38,0,2.25-.07,2.35,0,.03.02-.02.24,0,.33-.75-.06-1.64.04-2.35-.33Z" fill="#d2c9b8"/>
          <path d="M51.87,65.38c.23.36.2.56.17,1,.65-.56.65-.28,1.17,0v.5c-.99-.22-.86.43-1.12.5-.95.24-.44-.8-.55-1.5.14.24.22.37.17.67h.16s0-1.17,0-1.17Z" fill="#e0a032"/>
          <path d="M46.6,83.63c.59-.12.55,1.59.16,1.67-.59.12-.55-1.59-.16-1.67Z" fill="#d89e19"/>
          <path d="M47.68,76.76c.04.62-.28,1.36-.84,1.67v-1.67c-.72-.01-.48.84-.51,1.34l-.33-1.34c.21-.14.57-.45.78-.47.3-.03.64.31.9.47Z" fill="#f6c037"/>
          <path d="M43.83,77.43c.26-.56,2.11.02,1.84,1l-1.01-.42.67.92c-.4.31-1.59-1.33-1.51-1.5Z" fill="#f4ba38"/>
          <path d="M46.01,75.93c.76-1.31-.26-.95-.46-1.8-.08-.34-.11-.93-.04-1.26.07-.31,1.12-.97,1.55-.92.27.03,1.36,1.12,1.38,1.39.07,1.04-1.46,1.6-.77,2.76-.62-.22-.92-.54-1.68-.17Z" fill="#e15e20"/>
          <path d="M43.33,67.72c-.1-.47-.28-1.06-.24-1.54.1-1.21,1.57-.66,2.3-.81.15-.03.43-.63.58-.66.31-.06,1.32-.06,1.65-.02.28.04,1.69.55,2.18.68.26.07.75-.07.89.03.07.05.08.38.19.53.08.11.3.1.33.23.1.44-.06,1.08,0,1.56-.33,0-.67-.01-1.01,0-.52.02-1.64.1-2.06,0-.14-.03-.05-.3-.36-.34-.44-.06-1.76-.06-2.2,0-.31.04-.22.31-.36.34-.36.08-1.46.04-1.89,0Z" fill="#c1d3df"/>
          <path d="M46.79,72.26c.31-.05,1.22,1.04,1.22,1.41s-.95,1.5-1.24,1.42c-.16-.39-1.1-1.11-1.1-1.42,0-.19.94-1.38,1.12-1.41Z" fill="#f5c433"/>
        </g>
        <g opacity=".26">
          <path d="M25.04,49.35v-3.34c0-.12-.04-.2-.13-.25s-.23-.08-.43-.11c-.06,0-.09-.05-.09-.14,0-.03,0-.07.02-.13.13.01.27.02.41.03s.27.01.39.01.24,0,.37-.01.25-.02.38-.03c.01.05.02.1.02.13,0,.09-.03.13-.08.14-.18.03-.31.06-.37.11-.07.05-.1.13-.1.23v4.71s-.03,0-.06.01c-.03,0-.05,0-.06,0-.04,0-.07,0-.1-.03-.03-.02-.07-.06-.11-.12l-3.25-4.28v3.77c0,.11.04.18.11.22.07.04.22.08.43.12.05.01.08.05.08.13,0,.03,0,.07-.02.13-.13-.01-.27-.02-.4-.03s-.26-.01-.38-.01c-.11,0-.23,0-.38.01s-.27.02-.39.03c-.01-.05-.02-.1-.02-.13,0-.08.03-.12.09-.13.19-.04.32-.08.39-.12.07-.04.1-.12.1-.22v-4.11c0-.08-.03-.15-.09-.2-.06-.04-.19-.08-.38-.11-.06-.01-.09-.06-.09-.14,0-.03,0-.05,0-.07,0-.02,0-.04,0-.06.11.01.21.02.3.02.09,0,.18,0,.27.01.1,0,.18,0,.26,0,.15,0,.26,0,.31.02s.09.04.12.08l2.87,3.83Z" fill="#6bb0de"/>
          <path d="M29.29,48.71h-1.78l-.51,1.29c-.03.06-.04.12-.04.16,0,.11.16.19.49.24.04,0,.06.02.08.04.01.02.02.05.02.08s0,.07-.02.13c-.14-.01-.3-.02-.46-.03s-.32-.01-.47-.01c-.11,0-.22,0-.33,0-.11,0-.23.02-.35.03-.01-.04-.02-.08-.02-.13,0-.04,0-.07.02-.1.01-.03.04-.04.08-.05.17-.03.29-.06.37-.1.08-.04.14-.1.18-.19l1.93-4.64c.04-.09.09-.14.15-.14.02,0,.05,0,.1.02l1.94,4.78c.03.08.1.13.22.18.11.04.22.07.33.09.03.01.06.03.08.04.02.02.03.05.03.1,0,.03,0,.07-.02.13-.17-.01-.34-.02-.5-.03-.17,0-.32-.01-.46-.01s-.32,0-.51.01-.37.02-.52.03c-.01-.05-.02-.1-.02-.13,0-.05,0-.08.03-.1.02-.02.04-.03.05-.03.14-.03.25-.06.34-.09.09-.04.13-.09.13-.16,0-.03-.01-.07-.03-.12l-.5-1.32ZM29.17,48.39l-.74-1.96-.78,1.96h1.52Z" fill="#6bb0de"/>
          <path d="M33.09,50.06c0,.11.04.18.11.22s.21.08.42.12c.05.01.08.05.08.13,0,.03,0,.07-.02.13-.17-.01-.33-.02-.5-.03-.17,0-.32-.01-.47-.01s-.3,0-.48.01-.34.02-.49.03c-.01-.05-.02-.1-.02-.13,0-.08.03-.12.08-.13.2-.04.34-.08.42-.12s.11-.12.11-.22v-4.07c0-.11-.04-.18-.11-.23-.07-.04-.21-.08-.42-.12-.03,0-.05-.02-.06-.05-.01-.03-.02-.06-.02-.09s0-.07.02-.13c.16.01.33.02.5.03s.33.01.47.01.29,0,.46-.01.34-.02.51-.03c.01.05.02.1.02.13,0,.08-.03.13-.08.14-.2.03-.34.07-.42.12-.07.05-.11.12-.11.23v4.07Z" fill="#6bb0de"/>
          <path d="M35.84,48.36v1.64c0,.12.06.21.18.26.12.05.29.09.53.12.06.01.1.06.1.14,0,.04,0,.08-.02.14-.15-.01-.33-.02-.53-.03s-.41-.01-.64-.01c-.14,0-.3,0-.47.01-.18,0-.34.02-.5.03-.01-.05-.02-.1-.02-.13,0-.08.03-.12.08-.13.21-.04.36-.08.43-.12.07-.04.11-.11.11-.22v-4.07c0-.11-.04-.18-.12-.23-.08-.05-.23-.08-.44-.11-.05-.01-.08-.06-.08-.14,0-.04,0-.08.02-.12.15.01.31.02.48.03s.33.01.48.01h1.13c.58,0,1.01.14,1.3.41.29.27.43.62.43,1.06,0,.17-.04.34-.12.52-.08.18-.19.33-.34.48-.15.14-.33.26-.54.35-.22.09-.46.14-.73.14h-.7ZM36.26,48.03c.37,0,.66-.08.86-.25.2-.17.3-.45.3-.84,0-.17-.02-.32-.06-.46-.04-.14-.1-.27-.19-.38-.09-.11-.21-.2-.36-.26-.15-.06-.34-.1-.56-.1h-.42v2.29h.42Z" fill="#6bb0de"/>
          <path d="M40.3,45.75v2.05h1.25c.11,0,.18-.05.23-.16.04-.1.08-.23.11-.38.02-.07.06-.1.14-.1.02,0,.04,0,.06,0,.03,0,.05.01.06.02-.01.12-.02.25-.03.4,0,.15-.01.28-.01.39,0,.09,0,.2,0,.33,0,.13.02.28.03.44-.04.01-.08.02-.12.02-.09,0-.14-.03-.15-.1-.03-.15-.06-.28-.11-.38-.05-.1-.12-.16-.23-.16h-1.25v1.89c0,.11.07.19.22.22s.38.06.71.06h.44c.15,0,.29-.02.4-.07.11-.04.22-.11.3-.18.09-.08.17-.17.24-.28.07-.11.14-.22.2-.35.02-.04.06-.06.12-.06.03,0,.05,0,.08.02.03.02.06.03.08.05-.05.1-.09.22-.12.36s-.07.28-.1.4c-.03.13-.07.24-.1.33s-.08.14-.13.14c-.04,0-.1,0-.18,0-.08,0-.17,0-.26-.01-.09,0-.19,0-.28-.01-.1,0-.18,0-.25,0h-1.75c-.15,0-.32,0-.5.01-.18,0-.34.02-.5.03-.01-.05-.02-.1-.02-.13,0-.08.03-.12.08-.13.2-.04.35-.08.44-.12.09-.04.13-.12.13-.22v-4.07c0-.11-.04-.18-.12-.22s-.23-.08-.45-.12c-.05-.01-.08-.06-.08-.14,0-.03,0-.05,0-.07,0-.02,0-.04.01-.06.23.02.42.03.58.03.15,0,.29,0,.42,0h1.58c.24,0,.45,0,.62-.02.18-.02.29-.02.35-.02.07,0,.12.04.14.13s.04.19.06.32c.02.12.03.25.06.39.02.14.06.26.12.35-.04.03-.09.05-.14.05-.07,0-.11-.02-.14-.07-.06-.14-.13-.26-.18-.36s-.13-.18-.2-.24c-.08-.06-.17-.11-.28-.14s-.24-.05-.4-.05h-1.18Z" fill="#6bb0de"/>
        </g>
      </g>
    </g>
  </g>
</svg>