<?xml version="1.0" encoding="UTF-8"?>
<svg id="Layer_2" data-name="Layer 2" xmlns="http://www.w3.org/2000/svg" viewBox="0 0 64 96">
  <g id="Cards">
    <g id="Cups">
      <g id="ThreeOfCups">
        <path d="M0,5.82l1.46-.18c.05.37.17.66.38.85.2.2.45.29.74.29.31,0,.57-.12.79-.35.21-.24.32-.55.32-.96,0-.38-.1-.68-.31-.9s-.45-.33-.75-.33c-.19,0-.42.04-.69.11l.17-1.23c.41.01.72-.08.93-.27.21-.19.32-.44.32-.75,0-.27-.08-.48-.24-.63-.16-.16-.37-.24-.63-.24s-.48.09-.66.27c-.18.18-.29.44-.33.78l-1.39-.24c.1-.48.24-.86.44-1.14.2-.29.47-.51.82-.67.35-.16.74-.24,1.17-.24.74,0,1.34.24,1.78.71.37.39.55.82.55,1.31,0,.69-.38,1.24-1.13,1.65.45.1.81.31,1.08.65.27.34.41.74.41,1.22,0,.69-.25,1.28-.76,1.77-.5.49-1.13.73-1.89.73-.71,0-1.3-.21-1.77-.62s-.74-.95-.82-1.61Z" fill="#e03e3e"/>
        <path d="M64,90.18l-1.46.18c-.05-.37-.17-.66-.38-.85-.2-.2-.45-.29-.74-.29-.31,0-.57.12-.79.35-.21.24-.32.55-.32.96,0,.38.1.68.31.9s.45.33.75.33c.19,0,.42-.04.69-.11l-.17,1.23c-.41-.01-.72.08-.93.27-.21.19-.32.44-.32.75,0,.27.08.48.24.63.16.16.37.24.63.24s.48-.09.66-.27c.18-.18.29-.44.33-.78l1.39.24c-.1.48-.24.86-.44,1.14-.2.29-.47.51-.82.67-.35.16-.74.24-1.17.24-.74,0-1.34-.24-1.78-.71-.37-.39-.55-.82-.55-1.31,0-.69.38-1.24,1.13-1.65-.45-.1-.81-.31-1.08-.65-.27-.34-.41-.74-.41-1.22,0-.69.25-1.28.76-1.77.5-.49,1.13-.73,1.89-.73.71,0,1.3.21,1.77.62s.74.95.82,1.61Z" fill="#e03e3e"/>
        <g>
          <path d="M17.42,4.76c.08-.05.18-.35.39-.48.75-.48,2.31-.5,2.94.18.24.27.35.85.58.98.25.15,1.43.22,1.96.39,2.24.71,4.06,2.26,5.44,4.14.46.63,1.35,2.47,1.7,2.79.74.67,1.72.16,1.86,1.86.24,3.01-1.95,1.63-3.72,2.05-.46,0-.48-.02-.2-.39-.55-.16-.53-.42,0-.59l.27-.35c2.27.7,3.04.32,2.31-1.15-2.02-.45-4.06-.8-6.15-1.04-.35-.04-.53-.2-.54-.58l.06-.24,2.99.15c.29-.07.14-1.31-.51-1.86-.36.39-.44.33-.39-.2-.57-.09-.52-.44,0-.59.53-.48,1.16.37,1.47.84.49,1.9,2.12,2.52.4.28-1.52-1.97-3.66-3.75-6.09-4.39-1.3-.35-1.17.73.41.19.69.1,2.64,1.1,2.25,1.9.01.58.14,1.02.36,1.32-.4.61-.65.36-.76-.74-.36.07-.67-.16-.93-.7-.64-.07-.85-.29-.63-.67-1.16-.27-3.56-.73-5.28-.53l-.19-.25c-2.06-1.52-5.53,1.61-6.85,3.28-.63.8-1.58,2.64-.3.88l.51-.05.26.08c-.25,1.1.18,1.19,1.18,1.02l.12.26.03.27c-1.62.39-3.3.74-5.04,1.05-.53,1.39.39,1.75,2.77,1.06l.29.36c.52.29.2.55-.98.78.43.09.43.69,0,.78-.43-1.25-1.02-.45-2.06-.57-1.54-.19-1.72-2.74-.47-3.42.34-.18.8-.12,1.11-.36.28-.22,1.46-2.5,2.01-3.16,1.25-1.5,2.92-2.61,4.68-3.42,1.19-.1,2.1-.49,2.74-1.17Z" fill="#cf942d"/>
          <path d="M14.49,31.52c.45-.53,2.32-.98,2.89-.49.72,2.42,1.56,2.69,2.81.27.69-.71,2.52-.19,3.29.23.54-.05.57.26.2.59,0,.4-.2.31-.39,0l-.23.4c-1.31-.34-2.26.05-2.84,1.15,1.33.08,2.67.09,4.01.05l.43.35c0-.51.25-.56.59-.2.19,0,1.33.27,1.48.38.66.45.16,1.43.86,1.77-.11.31-.27.3-.39,0-.75.26-1.52.27-2.3.28-3.87,0-7.74,0-11.61,0-.78,0-1.55-.02-2.3-.27-.44.16-1.04.34-1.37,0,1.39-.2.47-.9.83-1.52.13-.23,1.61-.62,1.91-.63.3-.43.45-.3.39.2,1.35-.41,2.8-.55,4.34-.42-.32-1.15-1.17-1.52-2.54-1.12l-.24-.41c-.17-.05-.16-.12,0-.2-.63-.22-.37-.73.2-.39Z" fill="#dd8725"/>
          <path d="M9.6,36.01c.45-.02.91,0,1.37,0,.1.23.07.37-.15.39l-2.2.19c.38.32.22,1.28.1,1.76l.14-.39h20.15l.24.39c-.26-.78-.22-1.37.1-1.76-.77-.08-1.6-.13-2.49-.13-.21-.18.07-.4.34-.45.13,0,.26,0,.39,0,.64.02,2.15-.22,2.44.39.25.51.32,2.5-.59,2.53l-21.19-.1c-.89-.39-.87-2.49.14-2.79.38-.11.83-.02,1.23-.04Z" fill="#cf9433"/>
          <path d="M19.96,24.68c.33-.16.5-.21.39.2.48-.29.64.04.2.39.42.09.35.2,0,.39.54.17.22.64.1.34-.06-.15.12-.15.29.05.63.23,1.59-.34,2.14-.78h.4c.28-.28.45-.2.39.19.27-.28.38-.15.2.2-.16.51-1.13,1.19-1.71,1.43-1.74.12-1.57.77-.08,1.33l.23.56c.56,1.81,2.09,1.59,2.34,1.96.28.41-.62,1.06-.97,1.16-.06.17-.13.17-.2,0-.13-.17-.14-.38-.2-.59-1.06-.47-1.73-1.07-2.06-2.22-.15-.21-.75-.33-.72-.3,1.69,1.67-.92,1.87-1.62.38l-.46.14c-.85.72-2.49,1.57-2.09-.22,1.01-.76.51-.69-.19-.16-.48,1-1.03,1.73-1.84,2.37-.27.02-.15.28-.2.39-.21.4-.42.47-.59,0-.23-.06-.82-.61-.77-.86.48-.63,1.2-.55,1.76-1.18.45-.5.6-1.05,1.16-1.67.2-.28,1.01-.7,1.17-.39.16-.28.42-.15.78.39.09-.15.23-.29.39-.26,1.61.26,1.92-.13,1.65-1.81-.34-.39-.44-.74-.28-1.05-.43-.13-.49-.26-.2-.39.16-.54.45-.56.59,0Z" fill="#cf9433"/>
          <path d="M9.99,16.09c.62.09.5,1.38.1,1.68l.1.66c.45.23.81,1.17.39,1.56l.51.24c.52,1.08,1.11,2.12,1.78,3.12l-.14.55c.36.06.22.67-.2.39-1.94-2.39-3.29-4.07-3.13-7.42.01-.23-.05-.6,0-.78.21-.19.46-.27.59,0Z" fill="#a42f28"/>
          <path d="M27.77,20.97c-.49,1.54-1.81,3.31-2.93,4.49-.34.28-.6.35-.78.2-.07-.05-.13-.15-.2-.2-.3-.21-.16-.52.2-.39l.22-.68c1.09-1.09,1.98-2.35,2.66-3.77l.44-.04c.29-.38.42-.25.39.39Z" fill="#ae2c28"/>
          <path d="M13.12,23.9c.05.79.38,1.31.98,1.56l.15-.22c.83.45,1.69.72,2.58.8-.57-.5.25-1.35.59-.59.22.1.22.29,0,.59.51.22.65,1.71.39,2.15-.13-.05-.76-.36-.78-.39-.25.06-.33-.1-.24-.5-.76-.47-1.59-.82-2.49-1.06-1.21-.77-1-1.02-1.76-1.95.24-.02.17-.37.2-.39.07-.17.13-.17.2,0,.05-.17.11-.17.2,0Z" fill="#ca943e"/>
          <path d="M28.36,16.28c.01.06.2.17.2.39-.02.92-.49,3.38-.78,4.3l-.39-.39c-.33,0-.33-.12,0-.39-.57-.3-.36-1.63.2-1.95-.57-.37-.28-1.84.39-1.95,0-.42.27-.41.39,0Z" fill="#a1351f"/>
          <path d="M24.84,25.46c-.35.37-2.21,1.88-2.48,1.95-.32.08-.7-.03-1.03,0-.47.36,1.06.7,1.14.82.13.19-.02.56.03.74-.24-.49-2.04-1.08-1.95-1.46.1-.46,1.56-.61,2.09-.85s1.01-.8,1.43-1.01c.2-.1.55-.11.78-.2Z" fill="#f9f3db"/>
          <path d="M14.29,31.91c-.02.06.03.14,0,.2.46.76-.81,1.77-1.56,1.95-.17,0-.36-.2-.39-.2l1.37-1.95c.15.04.41-.03.59,0Z" fill="#a63c29"/>
          <path d="M23.67,32.1c.07-.01.14.02.2,0l1.37,1.76s-.26.2-.59.2c-.67-.29-1.97-1.28-1.37-1.95.13,0,.27.02.39,0Z" fill="#a73c24"/>
          <path d="M17.03,27.8l-1.17.39s-.06-.24.05-.34c.16-.14.83-.08.73-.54-.03-.13-1.83-.75-2.34-1.08.59.1,2.4.57,2.64.99.11.2.07.53.1.57Z" fill="#efdbad"/>
          <path d="M17.42,4.76c-.03,1.27-1.8.93-2.74,1.17.99-.46,1.78-.53,2.74-1.17Z" fill="#f3e6c3"/>
          <path d="M19.96,12.18l3.61.19.11.2c.36-.34.56-.34.59,0,1.26.6,6.12.67,6.95,1.35.39.32.43,1.84.1,2.08-.24.17-2.42-.22-2.94-.31-.22.22-.46.22-.74.18-4.98-.78-9.65-1.27-14.7-.57l-.38-.2c-.67-.02-1.32.04-1.95.2-.07.17-.13.17-.2,0-.61.06-2.8.46-3.12.3-.52-.26-.55-1.57-.22-1.98.42-.53,4.44-.7,5.3-1.05,2.34-.75,5.2-.76,7.62-.39Z" fill="#f2c92e"/>
          <path d="M17.42,7.1c1.62-.13,2.41.14,3.82.38.49.08,1.14-.09,1.54,0,.24.05.07.35.11.4l-.32.41-2.72-.6c-1.05-.12-1.93-.16-2.72.64-1.68-.05-3.46.21-2.67,2.25l-.17.23c-.56,1.19,2.13.81,3.15.53,1.86-.05,3.65.12,5.45.45.12-.28.27-.28.39,0,.87.14,1.74.2,2.63.18l.11.21c.21-.39.46-.35.82-.21-.34-.6-.35-1.05-.04-1.35,1.05.46.79.77.78,1.95h-3.32s-.59,0-.59,0c.13-.3.04-.37-.29-.21l-3.42-.18c-2.55.04-5.08.25-7.62.39h-1.56s0-1.37,0-1.37c-.43-.85,1.23-2.44,2.21-2.1.4-1.03,1.36-1.76,2.39-2.08.55-.17,1.8-.48,2.04.07Z" fill="#cc9437"/>
          <path d="M28.36,15.7c.03.18-.04.42,0,.59-.12-.02-.29.03-.39,0l-.61.23c-5.59-1.3-11.48-1.05-17.03-.06-.16.03-.29-.18-.34-.36-.2,0-.39,0-.59,0,.19-.67,1.16-.07.98-.78.06,0,.13,0,.2,0,.64-.15,1.29-.21,1.95-.2,6.5-.69,9.44-.45,15.83.59Z" fill="#e37e26"/>
          <path d="M17.42,7.1c-.27.02-1.2.17-1.61.23-1.09.15-2.81,1.4-2.5,2.7-.33.04-.19-.48-.51-.58-.81-.26-1.69,1.27-2.03,1.75-.52.72-.64,1.38-1.76,1.17.61-1.88,2.66-4.1,4.39-5.08.84-.48,4.13-2.01,4.01-.19Z" fill="#f5c536"/>
          <path d="M24.84,8.66c-.36-.57-1.65-1.41-2.3-1.52-.42-.07-1.08.32-1.39.12-.28-.18-.44-1.16.45-1.16,2.69.01,7.19,3.87,7.92,6.36.15.51-.82.31-1.09.11-.6-.47-.43-1.88-2.03-2.75-.23.33-.45.24-.7,0-.55.49-.83.1-.86-1.17Z" fill="#f7c537"/>
          <path d="M18.53,4.6c2.64-.81,2.67,3.08,0,2.27-.91-.28-.92-1.99,0-2.27Z" fill="#f3c732"/>
          <path d="M14.49,31.52c-1-.63-.12-.48.17-.7.99-.71.92-1.52,1.48-2.04.43-.4,1.34-.69,1.47.1-.05.23-1.21.64-.78,1.08s1.51-1.2,2.42-.93c.39.12.63,1.34,1.68.93.14-.57-.88-.6-.78-1.07.12-.58,1.26-.21,1.57.19.23.29.26.74.49,1.07.38.54.94.71,1.29,1.09.19.21-.03.27-.03.29-.76.26-2.25-.34-2.8-.21-.15.03-1.21,2.17-1.98,2.17-.25,0-1.14-.86-1.28-1.08-.2-.32-.34-1.23-.39-1.27-.2-.15-2.03.62-2.53.39Z" fill="#f3c731"/>
          <path d="M11.16,34.84c.49-.5,1,0,1.49-.02,4.07-.09,8.57-.49,12.67-.18.79.06,1.29.1,1.09.98l-15.09.09c-.42-.03-.27-.55-.15-.87Z" fill="#c5cfd4"/>
          <path d="M27.19,36.01c.02.11-.03.37,0,.39.15.12,1.94-.09,2.35,0,.05.14-.2.18-.2.19l-.13.39H8.86l-.24-.39c.63-.46,1.71.09,2.35-.59,5.34-.11,10.88-.09,16.22,0Z" fill="#dd8725"/>
          <path d="M23.28,32.1c.15.81,1.14,1.11,1.37,1.95-1.38-.02-3.1.15-4.41,0-.3-.03-.48-.02-.67-.3.22-.18,1.36-1.62,1.51-1.65.61-.12,1.52.03,2.2,0Z" fill="#ec652b"/>
          <path d="M14.29,32.1c.53.1,1.95-.17,2.31.04.09.06,1.18,1.76,1.02,1.91-1.62.02-3.26-.03-4.88,0,.5-.68,1.17-1.17,1.56-1.95Z" fill="#eb652b"/>
          <path d="M11.16,34.84c.08.3-.27.75.29.78,4.86.33,10.06-.25,14.96,0l-15.44.2c0-.4-.1-.67.2-.98Z" fill="#cfd0c8"/>
          <path d="M29.34,36.59c.01.19.53,1.76-.1,1.76H8.72c-.4,0-.39-1.48-.1-1.76h20.71Z" fill="#f4c332"/>
          <path d="M18,21.95c1.17-.42,1.43-.31,1.39.9.06-.44.25-.74.56-.9.35-.32.72-.01.78.39,1.51,1.04.5,1.86-.78,2.34-.15-.03-.4,0-.59,0-.67.18-1.32.44-1.95.78-.02.02-.2-.05-.33.06-.09.08-.1.37-.25.53-.9-.08-1.77-.36-2.62-.84l-.12.25c-.08-.03-.29.05-.44-.01-.56-.24-.63-1-.54-1.55.14-.49.68-.73,1.63-.71.23-.39.46-.54.71-.46q.58.15,0,0c-.5.06-.39-.42.01-.62.89.09,1.73.02,2.53-.16Z" fill="#d79328"/>
          <path d="M19.96,21.16c.38-.11,1.91-.05,2.31.16.65.35.96.88,1.07,1.58.85.6,1.58,1.16.73,2.16-.01.1-.16.26-.2.39-.12-.08-.26-.13-.39-.2l-.25-.09c-.11-.6-.19-.93-.73-1.27-.32,0-.38-.27-.2-.77l-.19-.59c-.39.32-1.22.38-1.37-.2-.8-.11-.44-.19-.78-.39-.25.29-.59.19-1.02-.27-.07.06-.76.48-.93.27-.09.06-.14.34-.34.38-.6.13-1.53-.13-2.08,0-.24.06-.08.33-.12.4-.76,1.32-.69.53-1.82.78-.04,0-.22.23-.52.39-.05.02-.13-.02-.2,0-.71-.99.56-1.16,1.36-1.2.37-1.11,1.21-1.47,2.51-1.1.43-.38.84-.59,1.21-.63.59-.96,1.45-.69,1.95.2Z" fill="#e38627"/>
          <path d="M19.57,25.07c.69.7,1.04,1.49.63,2.49-.53,1.31-1.39,1.05-2.39.64-.44-.76-.4-1.31-.39-2.15.2-.87,1.39-1.61,2.15-.98Z" fill="#c5cfd4"/>
          <path d="M22.5,23.9c.87-.35,1.12.68.98,1.37-.13.62-1.39.83-1.8.99-.15.06-.77,1.12-.74-.21.3-.35,1.43-.97,1.95-1.17.12-.05-2.2,1.36-2.35.78-.02-.13.03-.28,0-.39.32-.45,1.44-1.55,1.95-1.37Z" fill="#f5bd38"/>
          <path d="M22.11,22.53c.71,1.03-.79,2.39-1.76,2.34-.05-.04-.32-.18-.39-.2.73-.54,2.44-2.19.39-1.17l.39-1.17c.47.07.87-.1,1.37.2Z" fill="#f5bb38"/>
          <path d="M22.5,23.9c-.27.11-1.25,1.43-1.95,1.37-.02-.07-.15-.35-.2-.39.75-.75,1.92-.98,1.76-2.34.57.34.38.77.39,1.37Z" fill="#d79328"/>
          <path d="M20.54,25.66l2.35-.78c-.35.65-1.29.9-1.95,1.17-.12.05-.35.25-.39.2-.02-.19.02-.4,0-.59Z" fill="#d79328"/>
          <path d="M19.37,24.68c.08.11.12.31.2.39-1.22-.22-1.42.2-2.15.98,0-.2,0-.39,0-.59.86-.72.71-.79,1.95-.78Z" fill="#d4b285"/>
          <path d="M27.97,16.28c-.2.69-.29,1.24-.39,1.95l-.27.53c-.88.3-.55,1,.07,1.42-.03.12.03.28,0,.39-.11.4-1.53,2.68-1.87,3.11-.39.5-.95,1-1.45,1.38.18-1.7-.6-1.25-1.06-1.97-.14-.21-.1-.55-.22-.75-.73-1.15-1.28-.62-2.29-.85-.21-.05-.38-.29-.53-.34-.79-.45-.67-.78-.37-1.52,2.61-2.58-2.44-4.48-1.72-.78,1.08.93,1.12,1.63.13,2.11-1.1,1.9-1.96.48-2.89,1.02-.14.08-.35.87-.63,1.03-.49.28-1.5-.18-1.56.88-.07.02-.16-.03-.2,0-.75-1.39-1.62-2.38-2.15-3.91.57-1.12.44-1.64-.39-1.56-.43-.59-.1-1.6-.2-2.34.72-.02.98-.32,1.48-.38,4.62-.58,12.15-.79,16.5.58Z" fill="#ee4c28"/>
          <path d="M10.19,18.43c0-.22-.09-.67.1-.78.77.93,1.39.49.85,1.84-.12.29-.14.6-.56.5-.23-.67-.38-.71-.39-1.56Z" fill="#f9ab47"/>
          <path d="M14.09,25.46c-1.01-1.02-1.06-1.93.64-1.72l2.09,1.52c-.72.03-1.13-.52-1.85-.59-.4-.04-.57-.09-.49.39l2.34.98c-.51.48-2.12-.33-2.74-.59Z" fill="#f5bf38"/>
          <path d="M27.58,18.23c-.08.58-.08,1.41-.2,1.95-.37.2-.37.35-.65-.04-.77-1.09-.21-1.52.84-1.91Z" fill="#fab34a"/>
          <path d="M19.96,12.18c1.33-.02,2.67.02,4.01,0l-.29.39-3.71-.39Z" fill="#cf942d"/>
          <path d="M12.53,15.11c-.61.06-1.31.13-1.95.2.46-.42,1.34-.11,1.95-.2Z" fill="#cf942d"/>
          <path d="M22.89,7.88c.39.49,1.08.55,1.56,1.37.16.5.27.97.35,1.42.7-.81,1.24-.89,1.6-.24.02,0,.27.14.39.2l.59,1.76c-.48.12-.95-.16-1.37-.19-.39-.13-.53-.25-.16-.21-.87.02-1.73-.03-2.58-.18-.13,0-.26,0-.39,0-.52-.06-.5-.24,0-.39,1.39-.49.94-2.51-.55-2.36l-2.43-.77c-1.25-.17-1.79-.15-2.6.77-2.1-.36-2.8.32-2.1,2.04l-.33.32c-.6.53-1.51-.07-.59-.59-.27-.83-.76-1.24.07-2.08.76-.76,1.78-.54,2.68-.74.44-.1.72-.44,1.25-.51,1.71-.23,2.95.55,4.6.4Z" fill="#cfd0c8"/>
          <path d="M14.29,10.81c.05.14-.06.53,0,.59.04.04.43-.01.59,0,0-.17.08-.3.23-.38l1.7.02c.88-.72,3.11-.71,3.99,0l1.75-.02.34.38v.39c-3.14-.08-6.13-.2-9.28,0-.41.03-2.36.48-2.44.39-.12-.56.42-1.52.97-1.68.62-.18,1.3,1.01,2.16.31Z" fill="#d2c9b8"/>
          <path d="M23.28,11.79c.45,0,2.63-.08,2.74,0,.03.02-.02.28,0,.39-.87-.07-1.92.04-2.74-.39Z" fill="#d2c9b8"/>
          <path d="M24.84,8.66c.27.42.23.66.2,1.17.76-.66.76-.33,1.37,0v.59c-1.15-.25-1.01.5-1.31.58-1.1.28-.52-.94-.65-1.75.17.28.25.43.2.78h.19s0-1.37,0-1.37Z" fill="#e0a032"/>
          <path d="M18.69,29.95c.69-.14.64,1.86.19,1.95-.69.14-.64-1.86-.19-1.95Z" fill="#d89e19"/>
          <path d="M19.96,21.95c.04.73-.32,1.58-.98,1.95v-1.95c-.84-.01-.56.98-.59,1.56l-.39-1.56c.24-.16.67-.52.91-.55.35-.03.75.37,1.04.55Z" fill="#f6c037"/>
          <path d="M15.46,22.73c.31-.65,2.46.02,2.15,1.17l-1.17-.49.78,1.07c-.47.37-1.85-1.56-1.76-1.76Z" fill="#f4ba38"/>
          <path d="M18,20.97c.89-1.53-.31-1.1-.53-2.1-.09-.39-.12-1.09-.04-1.47.08-.36,1.31-1.13,1.81-1.08.31.03,1.59,1.31,1.61,1.62.09,1.22-1.7,1.87-.89,3.22-.72-.26-1.07-.63-1.95-.2Z" fill="#e15e20"/>
          <path d="M14.88,11.4c-.12-.55-.33-1.24-.28-1.8.11-1.41,1.83-.77,2.68-.95.17-.03.51-.73.68-.76.36-.07,1.54-.07,1.92-.02.33.04,1.97.64,2.54.79.3.08.87-.09,1.04.03.09.06.1.44.22.62.09.13.35.12.39.27.12.51-.07,1.26,0,1.82-.39.01-.78-.01-1.17,0-.6.02-1.91.11-2.41,0-.16-.04-.05-.35-.41-.4-.51-.07-2.06-.07-2.57,0-.36.05-.26.36-.41.4-.42.1-1.7.04-2.21,0Z" fill="#c1d3df"/>
          <path d="M18.91,16.69c.36-.06,1.43,1.21,1.43,1.65s-1.11,1.74-1.45,1.66c-.19-.45-1.29-1.29-1.28-1.66,0-.22,1.09-1.61,1.3-1.65Z" fill="#f5c433"/>
        </g>
        <g>
          <path d="M44.04,31.11c.08-.05.18-.35.39-.48.75-.48,2.31-.5,2.94.18.24.27.35.85.58.98.25.15,1.43.22,1.96.39,2.24.71,4.06,2.26,5.44,4.14.46.63,1.35,2.47,1.7,2.79.74.67,1.72.16,1.86,1.86.24,3.01-1.95,1.63-3.72,2.05-.46,0-.48-.02-.2-.39-.55-.16-.53-.42,0-.59l.27-.35c2.27.7,3.04.32,2.31-1.15-2.02-.45-4.06-.8-6.15-1.04-.35-.04-.53-.2-.54-.58l.06-.24,2.99.15c.29-.07.14-1.31-.51-1.86-.36.39-.44.33-.39-.2-.57-.09-.52-.44,0-.59.53-.48,1.16.37,1.47.84.49,1.9,2.12,2.52.4.28-1.52-1.97-3.66-3.75-6.09-4.39-1.3-.35-1.17.73.41.19.69.1,2.64,1.1,2.25,1.9.01.58.14,1.02.36,1.32-.4.61-.65.36-.76-.74-.36.07-.67-.16-.93-.7-.64-.07-.85-.29-.63-.67-1.16-.27-3.56-.73-5.28-.53l-.19-.25c-2.06-1.52-5.53,1.61-6.85,3.28-.63.8-1.58,2.64-.3.88l.51-.05.26.08c-.25,1.1.18,1.19,1.18,1.02l.12.26.03.27c-1.62.39-3.3.74-5.04,1.05-.53,1.39.39,1.75,2.77,1.06l.29.36c.52.29.2.55-.98.78.43.09.43.69,0,.78-.43-1.25-1.02-.45-2.06-.57-1.54-.19-1.72-2.74-.47-3.42.34-.18.8-.12,1.11-.36.28-.22,1.46-2.5,2.01-3.16,1.25-1.5,2.92-2.61,4.68-3.42,1.19-.1,2.1-.49,2.74-1.17Z" fill="#cf942d"/>
          <path d="M41.11,57.86c.45-.53,2.32-.98,2.89-.49.72,2.42,1.56,2.69,2.81.27.69-.71,2.52-.19,3.29.23.54-.05.57.26.2.59,0,.4-.2.31-.39,0l-.23.4c-1.31-.34-2.26.05-2.84,1.15,1.33.08,2.67.09,4.01.05l.43.35c0-.51.25-.56.59-.2.19,0,1.33.27,1.48.38.66.45.16,1.43.86,1.77-.11.31-.27.3-.39,0-.75.26-1.52.27-2.3.28-3.87,0-7.74,0-11.61,0-.78,0-1.55-.02-2.3-.27-.44.16-1.04.34-1.37,0,1.39-.2.47-.9.83-1.52.13-.23,1.61-.62,1.91-.63.3-.43.45-.3.39.2,1.35-.41,2.8-.55,4.34-.42-.32-1.15-1.17-1.52-2.54-1.12l-.24-.41c-.17-.05-.16-.12,0-.2-.63-.22-.37-.73.2-.39Z" fill="#dd8725"/>
          <path d="M36.22,62.36c.45-.02.91,0,1.37,0,.1.23.07.37-.15.39l-2.2.19c.38.32.22,1.28.1,1.76l.14-.39h20.15l.24.39c-.26-.78-.22-1.37.1-1.76-.77-.08-1.6-.13-2.49-.13-.21-.18.07-.4.34-.45.13,0,.26,0,.39,0,.64.02,2.15-.22,2.44.39.25.51.32,2.5-.59,2.53l-21.19-.1c-.89-.39-.87-2.49.14-2.79.38-.11.83-.02,1.23-.04Z" fill="#cf9433"/>
          <path d="M46.58,51.03c.33-.16.5-.21.39.2.48-.29.64.04.2.39.42.09.35.2,0,.39.54.17.22.64.1.34-.06-.15.12-.15.29.05.63.23,1.59-.34,2.14-.78h.4c.28-.28.45-.2.39.19.27-.28.38-.15.2.2-.16.51-1.13,1.19-1.71,1.43-1.74.12-1.57.77-.08,1.33l.23.56c.56,1.81,2.09,1.59,2.34,1.96.28.41-.62,1.06-.97,1.16-.06.17-.13.17-.2,0-.13-.17-.14-.38-.2-.59-1.06-.47-1.73-1.07-2.06-2.22-.15-.21-.75-.33-.72-.3,1.69,1.67-.92,1.87-1.62.38l-.46.14c-.85.72-2.49,1.57-2.09-.22,1.01-.76.51-.69-.19-.16-.48,1-1.03,1.73-1.84,2.37-.27.02-.15.28-.2.39-.21.4-.42.47-.59,0-.23-.06-.82-.61-.77-.86.48-.63,1.2-.55,1.76-1.18.45-.5.6-1.05,1.16-1.67.2-.28,1.01-.7,1.17-.39.16-.28.42-.15.78.39.09-.15.23-.29.39-.26,1.61.26,1.92-.13,1.65-1.81-.34-.39-.44-.74-.28-1.05-.43-.13-.49-.26-.2-.39.16-.54.45-.56.59,0Z" fill="#cf9433"/>
          <path d="M36.61,42.44c.62.09.5,1.38.1,1.68l.1.66c.45.23.81,1.17.39,1.56l.51.24c.52,1.08,1.11,2.12,1.78,3.12l-.14.55c.36.06.22.67-.2.39-1.94-2.39-3.29-4.07-3.13-7.42.01-.23-.05-.6,0-.78.21-.19.46-.27.59,0Z" fill="#a42f28"/>
          <path d="M54.4,47.32c-.49,1.54-1.81,3.31-2.93,4.49-.34.28-.6.35-.78.2-.07-.05-.13-.15-.2-.2-.3-.21-.16-.52.2-.39l.22-.68c1.09-1.09,1.98-2.35,2.66-3.77l.44-.04c.29-.38.42-.25.39.39Z" fill="#ae2c28"/>
          <path d="M39.74,50.25c.05.79.38,1.31.98,1.56l.15-.22c.83.45,1.69.72,2.58.8-.57-.5.25-1.35.59-.59.22.1.22.29,0,.59.51.22.65,1.71.39,2.15-.13-.05-.76-.36-.78-.39-.25.06-.33-.1-.24-.5-.76-.47-1.59-.82-2.49-1.06-1.21-.77-1-1.02-1.76-1.95.24-.02.17-.37.2-.39.07-.17.13-.17.2,0,.05-.17.11-.17.2,0Z" fill="#ca943e"/>
          <path d="M54.98,42.63c.01.06.2.17.2.39-.02.92-.49,3.38-.78,4.3l-.39-.39c-.33,0-.33-.12,0-.39-.57-.3-.36-1.63.2-1.95-.57-.37-.28-1.84.39-1.95,0-.42.27-.41.39,0Z" fill="#a1351f"/>
          <path d="M51.46,51.81c-.35.37-2.21,1.88-2.48,1.95-.32.08-.7-.03-1.03,0-.47.36,1.06.7,1.14.82.13.19-.02.56.03.74-.24-.49-2.04-1.08-1.95-1.46.1-.46,1.56-.61,2.09-.85s1.01-.8,1.43-1.01c.2-.1.55-.11.78-.2Z" fill="#f9f3db"/>
          <path d="M40.91,58.26c-.02.06.03.14,0,.2.46.76-.81,1.77-1.56,1.95-.17,0-.36-.2-.39-.2l1.37-1.95c.15.04.41-.03.59,0Z" fill="#a63c29"/>
          <path d="M50.29,58.45c.07-.01.14.02.2,0l1.37,1.76s-.26.2-.59.2c-.67-.29-1.97-1.28-1.37-1.95.13,0,.27.02.39,0Z" fill="#a73c24"/>
          <path d="M43.65,54.15l-1.17.39s-.06-.24.05-.34c.16-.14.83-.08.73-.54-.03-.13-1.83-.75-2.34-1.08.59.1,2.4.57,2.64.99.11.2.07.53.1.57Z" fill="#efdbad"/>
          <path d="M44.04,31.11c-.03,1.27-1.8.93-2.74,1.17.99-.46,1.78-.53,2.74-1.17Z" fill="#f3e6c3"/>
          <path d="M46.58,38.53l3.61.19.11.2c.36-.34.56-.34.59,0,1.26.6,6.12.67,6.95,1.35.39.32.43,1.84.1,2.08-.24.17-2.42-.22-2.94-.31-.22.22-.46.22-.74.18-4.98-.78-9.65-1.27-14.7-.57l-.38-.2c-.67-.02-1.32.04-1.95.2-.07.17-.13.17-.2,0-.61.06-2.8.46-3.12.3-.52-.26-.55-1.57-.22-1.98.42-.53,4.44-.7,5.3-1.05,2.34-.75,5.2-.76,7.62-.39Z" fill="#f2c92e"/>
          <path d="M44.04,33.45c1.62-.13,2.41.14,3.82.38.49.08,1.14-.09,1.54,0,.24.05.07.35.11.4l-.32.41-2.72-.6c-1.05-.12-1.93-.16-2.72.64-1.68-.05-3.46.21-2.67,2.25l-.17.23c-.56,1.19,2.13.81,3.15.53,1.86-.05,3.65.12,5.45.45.12-.28.27-.28.39,0,.87.14,1.74.2,2.63.18l.11.21c.21-.39.46-.35.82-.21-.34-.6-.35-1.05-.04-1.35,1.05.46.79.77.78,1.95h-3.32s-.59,0-.59,0c.13-.3.04-.37-.29-.21l-3.42-.18c-2.55.04-5.08.25-7.62.39h-1.56s0-1.37,0-1.37c-.43-.85,1.23-2.44,2.21-2.1.4-1.03,1.36-1.76,2.39-2.08.55-.17,1.8-.48,2.04.07Z" fill="#cc9437"/>
          <path d="M54.98,42.04c.03.18-.04.42,0,.59-.12-.02-.29.03-.39,0l-.61.23c-5.59-1.3-11.48-1.05-17.03-.06-.16.03-.29-.18-.34-.36-.2,0-.39,0-.59,0,.19-.67,1.16-.07.98-.78.06,0,.13,0,.2,0,.64-.15,1.29-.21,1.95-.2,6.5-.69,9.44-.45,15.83.59Z" fill="#e37e26"/>
          <path d="M44.04,33.45c-.27.02-1.2.17-1.61.23-1.09.15-2.81,1.4-2.5,2.7-.33.04-.19-.48-.51-.58-.81-.26-1.69,1.27-2.03,1.75-.52.72-.64,1.38-1.76,1.17.61-1.88,2.66-4.1,4.39-5.08.84-.48,4.13-2.01,4.01-.19Z" fill="#f5c536"/>
          <path d="M51.46,35.01c-.36-.57-1.65-1.41-2.3-1.52-.42-.07-1.08.32-1.39.12-.28-.18-.44-1.16.45-1.16,2.69.01,7.19,3.87,7.92,6.36.15.51-.82.31-1.09.11-.6-.47-.43-1.88-2.03-2.75-.23.33-.45.24-.7,0-.55.49-.83.1-.86-1.17Z" fill="#f7c537"/>
          <path d="M45.15,30.95c2.64-.81,2.67,3.08,0,2.27-.91-.28-.92-1.99,0-2.27Z" fill="#f3c732"/>
          <path d="M41.11,57.86c-1-.63-.12-.48.17-.7.99-.71.92-1.52,1.48-2.04.43-.4,1.34-.69,1.47.1-.05.23-1.21.64-.78,1.08s1.51-1.2,2.42-.93c.39.12.63,1.34,1.68.93.14-.57-.88-.6-.78-1.07.12-.58,1.26-.21,1.57.19.23.29.26.74.49,1.07.38.54.94.71,1.29,1.09.19.21-.03.27-.03.29-.76.26-2.25-.34-2.8-.21-.15.03-1.21,2.17-1.98,2.17-.25,0-1.14-.86-1.28-1.08-.2-.32-.34-1.23-.39-1.27-.2-.15-2.03.62-2.53.39Z" fill="#f3c731"/>
          <path d="M37.78,61.18c.49-.5,1,0,1.49-.02,4.07-.09,8.57-.49,12.67-.18.79.06,1.29.1,1.09.98l-15.09.09c-.42-.03-.27-.55-.15-.87Z" fill="#c5cfd4"/>
          <path d="M53.81,62.36c.02.11-.03.37,0,.39.15.12,1.94-.09,2.35,0,.05.14-.2.18-.2.19l-.13.39h-20.34l-.24-.39c.63-.46,1.71.09,2.35-.59,5.34-.11,10.88-.09,16.22,0Z" fill="#dd8725"/>
          <path d="M49.9,58.45c.15.81,1.14,1.11,1.37,1.95-1.38-.02-3.1.15-4.41,0-.3-.03-.48-.02-.67-.3.22-.18,1.36-1.62,1.51-1.65.61-.12,1.52.03,2.2,0Z" fill="#ec652b"/>
          <path d="M40.91,58.45c.53.1,1.95-.17,2.31.04.09.06,1.18,1.76,1.02,1.91-1.62.02-3.26-.03-4.88,0,.5-.68,1.17-1.17,1.56-1.95Z" fill="#eb652b"/>
          <path d="M37.78,61.18c.08.3-.27.75.29.78,4.86.33,10.06-.25,14.96,0l-15.44.2c0-.4-.1-.67.2-.98Z" fill="#cfd0c8"/>
          <path d="M55.96,62.94c.01.19.53,1.76-.1,1.76h-20.52c-.4,0-.39-1.48-.1-1.76h20.71Z" fill="#f4c332"/>
          <path d="M44.62,48.29c1.17-.42,1.43-.31,1.39.9.06-.44.25-.74.56-.9.35-.32.72-.01.78.39,1.51,1.04.5,1.86-.78,2.34-.15-.03-.4,0-.59,0-.67.18-1.32.44-1.95.78-.02.02-.2-.05-.33.06-.09.08-.1.37-.25.53-.9-.08-1.77-.36-2.62-.84l-.12.25c-.08-.03-.29.05-.44-.01-.56-.24-.63-1-.54-1.55.14-.49.68-.73,1.63-.71.23-.39.46-.54.71-.46q.58.15,0,0c-.5.06-.39-.42.01-.62.89.09,1.73.02,2.53-.16Z" fill="#d79328"/>
          <path d="M46.58,47.51c.38-.11,1.91-.05,2.31.16.65.35.96.88,1.07,1.58.85.6,1.58,1.16.73,2.16-.01.1-.16.26-.2.39-.12-.08-.26-.13-.39-.2l-.25-.09c-.11-.6-.19-.93-.73-1.27-.32,0-.38-.27-.2-.77l-.19-.59c-.39.32-1.22.38-1.37-.2-.8-.11-.44-.19-.78-.39-.25.29-.59.19-1.02-.27-.07.06-.76.48-.93.27-.09.06-.14.34-.34.38-.6.13-1.53-.13-2.08,0-.24.06-.08.33-.12.4-.76,1.32-.69.53-1.82.78-.04,0-.22.23-.52.39-.05.02-.13-.02-.2,0-.71-.99.56-1.16,1.36-1.2.37-1.11,1.21-1.47,2.51-1.1.43-.38.84-.59,1.21-.63.59-.96,1.45-.69,1.95.2Z" fill="#e38627"/>
          <path d="M46.19,51.42c.69.7,1.04,1.49.63,2.49-.53,1.31-1.39,1.05-2.39.64-.44-.76-.4-1.31-.39-2.15.2-.87,1.39-1.61,2.15-.98Z" fill="#c5cfd4"/>
          <path d="M49.12,50.25c.87-.35,1.12.68.98,1.37-.13.62-1.39.83-1.8.99-.15.06-.77,1.12-.74-.21.3-.35,1.43-.97,1.95-1.17.12-.05-2.2,1.36-2.35.78-.02-.13.03-.28,0-.39.32-.45,1.44-1.55,1.95-1.37Z" fill="#f5bd38"/>
          <path d="M48.73,48.88c.71,1.03-.79,2.39-1.76,2.34-.05-.04-.32-.18-.39-.2.73-.54,2.44-2.19.39-1.17l.39-1.17c.47.07.87-.1,1.37.2Z" fill="#f5bb38"/>
          <path d="M49.12,50.25c-.27.11-1.25,1.43-1.95,1.37-.02-.07-.15-.35-.2-.39.75-.75,1.92-.98,1.76-2.34.57.34.38.77.39,1.37Z" fill="#d79328"/>
          <path d="M47.16,52.01l2.35-.78c-.35.65-1.29.9-1.95,1.17-.12.05-.35.25-.39.2-.02-.19.02-.4,0-.59Z" fill="#d79328"/>
          <path d="M45.99,51.03c.08.11.12.31.2.39-1.22-.22-1.42.2-2.15.98,0-.2,0-.39,0-.59.86-.72.71-.79,1.95-.78Z" fill="#d4b285"/>
          <path d="M54.59,42.63c-.2.69-.29,1.24-.39,1.95l-.27.53c-.88.3-.55,1,.07,1.42-.03.12.03.28,0,.39-.11.4-1.53,2.68-1.87,3.11-.39.5-.95,1-1.45,1.38.18-1.7-.6-1.25-1.06-1.97-.14-.21-.1-.55-.22-.75-.73-1.15-1.28-.62-2.29-.85-.21-.05-.38-.29-.53-.34-.79-.45-.67-.78-.37-1.52,2.61-2.58-2.44-4.48-1.72-.78,1.08.93,1.12,1.63.13,2.11-1.1,1.9-1.96.48-2.89,1.02-.14.08-.35.87-.63,1.03-.49.28-1.5-.18-1.56.88-.07.02-.16-.03-.2,0-.75-1.39-1.62-2.38-2.15-3.91.57-1.12.44-1.64-.39-1.56-.43-.59-.1-1.6-.2-2.34.72-.02.98-.32,1.48-.38,4.62-.58,12.15-.79,16.5.58Z" fill="#ee4c28"/>
          <path d="M36.81,44.78c0-.22-.09-.67.1-.78.77.93,1.39.49.85,1.84-.12.29-.14.6-.56.5-.23-.67-.38-.71-.39-1.56Z" fill="#f9ab47"/>
          <path d="M40.72,51.81c-1.01-1.02-1.06-1.93.64-1.72l2.09,1.52c-.72.03-1.13-.52-1.85-.59-.4-.04-.57-.09-.49.39l2.34.98c-.51.48-2.12-.33-2.74-.59Z" fill="#f5bf38"/>
          <path d="M54.2,44.58c-.08.58-.08,1.41-.2,1.95-.37.2-.37.35-.65-.04-.77-1.09-.21-1.52.84-1.91Z" fill="#fab34a"/>
          <path d="M46.58,38.53c1.33-.02,2.67.02,4.01,0l-.29.39-3.71-.39Z" fill="#cf942d"/>
          <path d="M39.15,41.46c-.61.06-1.31.13-1.95.2.46-.42,1.34-.11,1.95-.2Z" fill="#cf942d"/>
          <path d="M49.51,34.23c.39.49,1.08.55,1.56,1.37.16.5.27.97.35,1.42.7-.81,1.24-.89,1.6-.24.02,0,.27.14.39.2l.59,1.76c-.48.12-.95-.16-1.37-.19-.39-.13-.53-.25-.16-.21-.87.02-1.73-.03-2.58-.18-.13,0-.26,0-.39,0-.52-.06-.5-.24,0-.39,1.39-.49.94-2.51-.55-2.36l-2.43-.77c-1.25-.17-1.79-.15-2.6.77-2.1-.36-2.8.32-2.1,2.04l-.33.32c-.6.53-1.51-.07-.59-.59-.27-.83-.76-1.24.07-2.08.76-.76,1.78-.54,2.68-.74.44-.1.72-.44,1.25-.51,1.71-.23,2.95.55,4.6.4Z" fill="#cfd0c8"/>
          <path d="M40.91,37.16c.05.14-.06.53,0,.59.04.04.43-.01.59,0,0-.17.08-.3.23-.38l1.7.02c.88-.72,3.11-.71,3.99,0l1.75-.02.34.38v.39c-3.14-.08-6.13-.2-9.28,0-.41.03-2.36.48-2.44.39-.12-.56.42-1.52.97-1.68.62-.18,1.3,1.01,2.16.31Z" fill="#d2c9b8"/>
          <path d="M49.9,38.14c.45,0,2.63-.08,2.74,0,.03.02-.02.28,0,.39-.87-.07-1.92.04-2.74-.39Z" fill="#d2c9b8"/>
          <path d="M51.46,35.01c.27.42.23.66.2,1.17.76-.66.76-.33,1.37,0v.59c-1.15-.25-1.01.5-1.31.58-1.1.28-.52-.94-.65-1.75.17.28.25.43.2.78h.19s0-1.37,0-1.37Z" fill="#e0a032"/>
          <path d="M45.31,56.3c.69-.14.64,1.86.19,1.95-.69.14-.64-1.86-.19-1.95Z" fill="#d89e19"/>
          <path d="M46.58,48.29c.04.73-.32,1.58-.98,1.95v-1.95c-.84-.01-.56.98-.59,1.56l-.39-1.56c.24-.16.67-.52.91-.55.35-.03.75.37,1.04.55Z" fill="#f6c037"/>
          <path d="M42.08,49.08c.31-.65,2.46.02,2.15,1.17l-1.17-.49.78,1.07c-.47.37-1.85-1.56-1.76-1.76Z" fill="#f4ba38"/>
          <path d="M44.62,47.32c.89-1.53-.31-1.1-.53-2.1-.09-.39-.12-1.09-.04-1.47.08-.36,1.31-1.13,1.81-1.08.31.03,1.59,1.31,1.61,1.62.09,1.22-1.7,1.87-.89,3.22-.72-.26-1.07-.63-1.95-.2Z" fill="#e15e20"/>
          <path d="M41.5,37.75c-.12-.55-.33-1.24-.28-1.8.11-1.41,1.83-.77,2.68-.95.17-.03.51-.73.68-.76.36-.07,1.54-.07,1.92-.02.33.04,1.97.64,2.54.79.3.08.87-.09,1.04.03.09.06.1.44.22.62.09.13.35.12.39.27.12.51-.07,1.26,0,1.82-.39.01-.78-.01-1.17,0-.6.02-1.91.11-2.41,0-.16-.04-.05-.35-.41-.4-.51-.07-2.06-.07-2.57,0-.36.05-.26.36-.41.4-.42.1-1.7.04-2.21,0Z" fill="#c1d3df"/>
          <path d="M45.53,43.04c.36-.06,1.43,1.21,1.43,1.65s-1.11,1.74-1.45,1.66c-.19-.45-1.29-1.29-1.28-1.66,0-.22,1.09-1.61,1.3-1.65Z" fill="#f5c433"/>
        </g>
        <g>
          <path d="M17.12,57.24c.08-.05.18-.35.39-.48.75-.48,2.31-.5,2.94.18.24.27.35.85.58.98.25.15,1.43.22,1.96.39,2.24.71,4.06,2.26,5.44,4.14.46.63,1.35,2.47,1.7,2.79.74.67,1.72.16,1.86,1.86.24,3.01-1.95,1.63-3.72,2.05-.46,0-.48-.02-.2-.39-.55-.16-.53-.42,0-.59l.27-.35c2.27.7,3.04.32,2.31-1.15-2.02-.45-4.06-.8-6.15-1.04-.35-.04-.53-.2-.54-.58l.06-.24,2.99.15c.29-.07.14-1.31-.51-1.86-.36.39-.44.33-.39-.2-.57-.09-.52-.44,0-.59.53-.48,1.16.37,1.47.84.49,1.9,2.12,2.52.4.28-1.52-1.97-3.66-3.75-6.09-4.39-1.3-.35-1.17.73.41.19.69.1,2.64,1.1,2.25,1.9.01.58.14,1.02.36,1.32-.4.61-.65.36-.76-.74-.36.07-.67-.16-.93-.7-.64-.07-.85-.29-.63-.67-1.16-.27-3.56-.73-5.28-.53l-.19-.25c-2.06-1.52-5.53,1.61-6.85,3.28-.63.8-1.58,2.64-.3.88l.51-.05.26.08c-.25,1.1.18,1.19,1.18,1.02l.12.26.03.27c-1.62.39-3.3.74-5.04,1.05-.53,1.39.39,1.75,2.77,1.06l.29.36c.52.29.2.55-.98.78.43.09.43.69,0,.78-.43-1.25-1.02-.45-2.06-.57-1.54-.19-1.72-2.74-.47-3.42.34-.18.8-.12,1.11-.36.28-.22,1.46-2.5,2.01-3.16,1.25-1.5,2.92-2.61,4.68-3.42,1.19-.1,2.1-.49,2.74-1.17Z" fill="#cf942d"/>
          <path d="M14.18,84c.45-.53,2.32-.98,2.89-.49.72,2.42,1.56,2.69,2.81.27.69-.71,2.52-.19,3.29.23.54-.05.57.26.2.59,0,.4-.2.31-.39,0l-.23.4c-1.31-.34-2.26.05-2.84,1.15,1.33.08,2.67.09,4.01.05l.43.35c0-.51.25-.56.59-.2.19,0,1.33.27,1.48.38.66.45.16,1.43.86,1.77-.11.31-.27.3-.39,0-.75.26-1.52.27-2.3.28-3.87,0-7.74,0-11.61,0-.78,0-1.55-.02-2.3-.27-.44.16-1.04.34-1.37,0,1.39-.2.47-.9.83-1.52.13-.23,1.61-.62,1.91-.63.3-.43.45-.3.39.2,1.35-.41,2.8-.55,4.34-.42-.32-1.15-1.17-1.52-2.54-1.12l-.24-.41c-.17-.05-.16-.12,0-.2-.63-.22-.37-.73.2-.39Z" fill="#dd8725"/>
          <path d="M9.3,88.49c.45-.02.91,0,1.37,0,.1.23.07.37-.15.39l-2.2.19c.38.32.22,1.28.1,1.76l.14-.39h20.15l.24.39c-.26-.78-.22-1.37.1-1.76-.77-.08-1.6-.13-2.49-.13-.21-.18.07-.4.34-.45.13,0,.26,0,.39,0,.64.02,2.15-.22,2.44.39.25.51.32,2.5-.59,2.53l-21.19-.1c-.89-.39-.87-2.49.14-2.79.38-.11.83-.02,1.23-.04Z" fill="#cf9433"/>
          <path d="M19.66,77.16c.33-.16.5-.21.39.2.48-.29.64.04.2.39.42.09.35.2,0,.39.54.17.22.64.1.34-.06-.15.12-.15.29.05.63.23,1.59-.34,2.14-.78h.4c.28-.28.45-.2.39.19.27-.28.38-.15.2.2-.16.51-1.13,1.19-1.71,1.43-1.74.12-1.57.77-.08,1.33l.23.56c.56,1.81,2.09,1.59,2.34,1.96.28.41-.62,1.06-.97,1.16-.06.17-.13.17-.2,0-.13-.17-.14-.38-.2-.59-1.06-.47-1.73-1.07-2.06-2.22-.15-.21-.75-.33-.72-.3,1.69,1.67-.92,1.87-1.62.38l-.46.14c-.85.72-2.49,1.57-2.09-.22,1.01-.76.51-.69-.19-.16-.48,1-1.03,1.73-1.84,2.37-.27.02-.15.28-.2.39-.21.4-.42.47-.59,0-.23-.06-.82-.61-.77-.86.48-.63,1.2-.55,1.76-1.18.45-.5.6-1.05,1.16-1.67.2-.28,1.01-.7,1.17-.39.16-.28.42-.15.78.39.09-.15.23-.29.39-.26,1.61.26,1.92-.13,1.65-1.81-.34-.39-.44-.74-.28-1.05-.43-.13-.49-.26-.2-.39.16-.54.45-.56.59,0Z" fill="#cf9433"/>
          <path d="M9.69,68.57c.62.09.5,1.38.1,1.68l.1.66c.45.23.81,1.17.39,1.56l.51.24c.52,1.08,1.11,2.12,1.78,3.12l-.14.55c.36.06.22.67-.2.39-1.94-2.39-3.29-4.07-3.13-7.42.01-.23-.05-.6,0-.78.21-.19.46-.27.59,0Z" fill="#a42f28"/>
          <path d="M27.47,73.45c-.49,1.54-1.81,3.31-2.93,4.49-.34.28-.6.35-.78.2-.07-.05-.13-.15-.2-.2-.3-.21-.16-.52.2-.39l.22-.68c1.09-1.09,1.98-2.35,2.66-3.77l.44-.04c.29-.38.42-.25.39.39Z" fill="#ae2c28"/>
          <path d="M12.82,76.38c.05.79.38,1.31.98,1.56l.15-.22c.83.45,1.69.72,2.58.8-.57-.5.25-1.35.59-.59.22.1.22.29,0,.59.51.22.65,1.71.39,2.15-.13-.05-.76-.36-.78-.39-.25.06-.33-.1-.24-.5-.76-.47-1.59-.82-2.49-1.06-1.21-.77-1-1.02-1.76-1.95.24-.02.17-.37.2-.39.07-.17.13-.17.2,0,.05-.17.11-.17.2,0Z" fill="#ca943e"/>
          <path d="M28.06,68.76c.01.06.2.17.2.39-.02.92-.49,3.38-.78,4.3l-.39-.39c-.33,0-.33-.12,0-.39-.57-.3-.36-1.63.2-1.95-.57-.37-.28-1.84.39-1.95,0-.42.27-.41.39,0Z" fill="#a1351f"/>
          <path d="M24.54,77.94c-.35.37-2.21,1.88-2.48,1.95-.32.08-.7-.03-1.03,0-.47.36,1.06.7,1.14.82.13.19-.02.56.03.74-.24-.49-2.04-1.08-1.95-1.46.1-.46,1.56-.61,2.09-.85s1.01-.8,1.43-1.01c.2-.1.55-.11.78-.2Z" fill="#f9f3db"/>
          <path d="M13.99,84.39c-.02.06.03.14,0,.2.46.76-.81,1.77-1.56,1.95-.17,0-.36-.2-.39-.2l1.37-1.95c.15.04.41-.03.59,0Z" fill="#a63c29"/>
          <path d="M23.37,84.58c.07-.01.14.02.2,0l1.37,1.76s-.26.2-.59.2c-.67-.29-1.97-1.28-1.37-1.95.13,0,.27.02.39,0Z" fill="#a73c24"/>
          <path d="M16.73,80.29l-1.17.39s-.06-.24.05-.34c.16-.14.83-.08.73-.54-.03-.13-1.83-.75-2.34-1.08.59.1,2.4.57,2.64.99.11.2.07.53.1.57Z" fill="#efdbad"/>
          <path d="M17.12,57.24c-.03,1.27-1.8.93-2.74,1.17.99-.46,1.78-.53,2.74-1.17Z" fill="#f3e6c3"/>
          <path d="M19.66,64.66l3.61.19.11.2c.36-.34.56-.34.59,0,1.26.6,6.12.67,6.95,1.35.39.32.43,1.84.1,2.08-.24.17-2.42-.22-2.94-.31-.22.22-.46.22-.74.18-4.98-.78-9.65-1.27-14.7-.57l-.38-.2c-.67-.02-1.32.04-1.95.2-.07.17-.13.17-.2,0-.61.06-2.8.46-3.12.3-.52-.26-.55-1.57-.22-1.98.42-.53,4.44-.7,5.3-1.05,2.34-.75,5.2-.76,7.62-.39Z" fill="#f2c92e"/>
          <path d="M17.12,59.59c1.62-.13,2.41.14,3.82.38.49.08,1.14-.09,1.54,0,.24.05.07.35.11.4l-.32.41-2.72-.6c-1.05-.12-1.93-.16-2.72.64-1.68-.05-3.46.21-2.67,2.25l-.17.23c-.56,1.19,2.13.81,3.15.53,1.86-.05,3.65.12,5.45.45.12-.28.27-.28.39,0,.87.14,1.74.2,2.63.18l.11.21c.21-.39.46-.35.82-.21-.34-.6-.35-1.05-.04-1.35,1.05.46.79.77.78,1.95h-3.32s-.59,0-.59,0c.13-.3.04-.37-.29-.21l-3.42-.18c-2.55.04-5.08.25-7.62.39h-1.56s0-1.37,0-1.37c-.43-.85,1.23-2.44,2.21-2.1.4-1.03,1.36-1.76,2.39-2.08.55-.17,1.8-.48,2.04.07Z" fill="#cc9437"/>
          <path d="M28.06,68.18c.03.18-.04.42,0,.59-.12-.02-.29.03-.39,0l-.61.23c-5.59-1.3-11.48-1.05-17.03-.06-.16.03-.29-.18-.34-.36-.2,0-.39,0-.59,0,.19-.67,1.16-.07.98-.78.06,0,.13,0,.2,0,.64-.15,1.29-.21,1.95-.2,6.5-.69,9.44-.45,15.83.59Z" fill="#e37e26"/>
          <path d="M17.12,59.59c-.27.02-1.2.17-1.61.23-1.09.15-2.81,1.4-2.5,2.7-.33.04-.19-.48-.51-.58-.81-.26-1.69,1.27-2.03,1.75-.52.72-.64,1.38-1.76,1.17.61-1.88,2.66-4.1,4.39-5.08.84-.48,4.13-2.01,4.01-.19Z" fill="#f5c536"/>
          <path d="M24.54,61.15c-.36-.57-1.65-1.41-2.3-1.52-.42-.07-1.08.32-1.39.12-.28-.18-.44-1.16.45-1.16,2.69.01,7.19,3.87,7.92,6.36.15.51-.82.31-1.09.11-.6-.47-.43-1.88-2.03-2.75-.23.33-.45.24-.7,0-.55.49-.83.1-.86-1.17Z" fill="#f7c537"/>
          <path d="M18.23,57.08c2.64-.81,2.67,3.08,0,2.27-.91-.28-.92-1.99,0-2.27Z" fill="#f3c732"/>
          <path d="M14.18,84c-1-.63-.12-.48.17-.7.99-.71.92-1.52,1.48-2.04.43-.4,1.34-.69,1.47.1-.05.23-1.21.64-.78,1.08s1.51-1.2,2.42-.93c.39.12.63,1.34,1.68.93.14-.57-.88-.6-.78-1.07.12-.58,1.26-.21,1.57.19.23.29.26.74.49,1.07.38.54.94.71,1.29,1.09.19.21-.03.27-.03.29-.76.26-2.25-.34-2.8-.21-.15.03-1.21,2.17-1.98,2.17-.25,0-1.14-.86-1.28-1.08-.2-.32-.34-1.23-.39-1.27-.2-.15-2.03.62-2.53.39Z" fill="#f3c731"/>
          <path d="M10.86,87.32c.49-.5,1,0,1.49-.02,4.07-.09,8.57-.49,12.67-.18.79.06,1.29.1,1.09.98l-15.09.09c-.42-.03-.27-.55-.15-.87Z" fill="#c5cfd4"/>
          <path d="M26.89,88.49c.02.11-.03.37,0,.39.15.12,1.94-.09,2.35,0,.05.14-.2.18-.2.19l-.13.39H8.56l-.24-.39c.63-.46,1.71.09,2.35-.59,5.34-.11,10.88-.09,16.22,0Z" fill="#dd8725"/>
          <path d="M22.98,84.58c.15.81,1.14,1.11,1.37,1.95-1.38-.02-3.1.15-4.41,0-.3-.03-.48-.02-.67-.3.22-.18,1.36-1.62,1.51-1.65.61-.12,1.52.03,2.2,0Z" fill="#ec652b"/>
          <path d="M13.99,84.58c.53.1,1.95-.17,2.31.04.09.06,1.18,1.76,1.02,1.91-1.62.02-3.26-.03-4.88,0,.5-.68,1.17-1.17,1.56-1.95Z" fill="#eb652b"/>
          <path d="M10.86,87.32c.08.3-.27.75.29.78,4.86.33,10.06-.25,14.96,0l-15.44.2c0-.4-.1-.67.2-.98Z" fill="#cfd0c8"/>
          <path d="M29.04,89.08c.01.19.53,1.76-.1,1.76H8.42c-.4,0-.39-1.48-.1-1.76h20.71Z" fill="#f4c332"/>
          <path d="M17.7,74.43c1.17-.42,1.43-.31,1.39.9.06-.44.25-.74.56-.9.35-.32.72-.01.78.39,1.51,1.04.5,1.86-.78,2.34-.15-.03-.4,0-.59,0-.67.18-1.32.44-1.95.78-.02.02-.2-.05-.33.06-.09.08-.1.37-.25.53-.9-.08-1.77-.36-2.62-.84l-.12.25c-.08-.03-.29.05-.44-.01-.56-.24-.63-1-.54-1.55.14-.49.68-.73,1.63-.71.23-.39.46-.54.71-.46q.58.15,0,0c-.5.06-.39-.42.01-.62.89.09,1.73.02,2.53-.16Z" fill="#d79328"/>
          <path d="M19.66,73.65c.38-.11,1.91-.05,2.31.16.65.35.96.88,1.07,1.58.85.6,1.58,1.16.73,2.16-.01.1-.16.26-.2.39-.12-.08-.26-.13-.39-.2l-.25-.09c-.11-.6-.19-.93-.73-1.27-.32,0-.38-.27-.2-.77l-.19-.59c-.39.32-1.22.38-1.37-.2-.8-.11-.44-.19-.78-.39-.25.29-.59.19-1.02-.27-.07.06-.76.48-.93.27-.09.06-.14.34-.34.38-.6.13-1.53-.13-2.08,0-.24.06-.08.33-.12.4-.76,1.32-.69.53-1.82.78-.04,0-.22.23-.52.39-.05.02-.13-.02-.2,0-.71-.99.56-1.16,1.36-1.2.37-1.11,1.21-1.47,2.51-1.1.43-.38.84-.59,1.21-.63.59-.96,1.45-.69,1.95.2Z" fill="#e38627"/>
          <path d="M19.27,77.55c.69.7,1.04,1.49.63,2.49-.53,1.31-1.39,1.05-2.39.64-.44-.76-.4-1.31-.39-2.15.2-.87,1.39-1.61,2.15-.98Z" fill="#c5cfd4"/>
          <path d="M22.2,76.38c.87-.35,1.12.68.98,1.37-.13.62-1.39.83-1.8.99-.15.06-.77,1.12-.74-.21.3-.35,1.43-.97,1.95-1.17.12-.05-2.2,1.36-2.35.78-.02-.13.03-.28,0-.39.32-.45,1.44-1.55,1.95-1.37Z" fill="#f5bd38"/>
          <path d="M21.81,75.01c.71,1.03-.79,2.39-1.76,2.34-.05-.04-.32-.18-.39-.2.73-.54,2.44-2.19.39-1.17l.39-1.17c.47.07.87-.1,1.37.2Z" fill="#f5bb38"/>
          <path d="M22.2,76.38c-.27.11-1.25,1.43-1.95,1.37-.02-.07-.15-.35-.2-.39.75-.75,1.92-.98,1.76-2.34.57.34.38.77.39,1.37Z" fill="#d79328"/>
          <path d="M20.24,78.14l2.35-.78c-.35.65-1.29.9-1.95,1.17-.12.05-.35.25-.39.2-.02-.19.02-.4,0-.59Z" fill="#d79328"/>
          <path d="M19.07,77.16c.08.11.12.31.2.39-1.22-.22-1.42.2-2.15.98,0-.2,0-.39,0-.59.86-.72.71-.79,1.95-.78Z" fill="#d4b285"/>
          <path d="M27.67,68.76c-.2.69-.29,1.24-.39,1.95l-.27.53c-.88.3-.55,1,.07,1.42-.03.12.03.28,0,.39-.11.4-1.53,2.68-1.87,3.11-.39.5-.95,1-1.45,1.38.18-1.7-.6-1.25-1.06-1.97-.14-.21-.1-.55-.22-.75-.73-1.15-1.28-.62-2.29-.85-.21-.05-.38-.29-.53-.34-.79-.45-.67-.78-.37-1.52,2.61-2.58-2.44-4.48-1.72-.78,1.08.93,1.12,1.63.13,2.11-1.1,1.9-1.96.48-2.89,1.02-.14.08-.35.87-.63,1.03-.49.28-1.5-.18-1.56.88-.07.02-.16-.03-.2,0-.75-1.39-1.62-2.38-2.15-3.91.57-1.12.44-1.64-.39-1.56-.43-.59-.1-1.6-.2-2.34.72-.02.98-.32,1.48-.38,4.62-.58,12.15-.79,16.5.58Z" fill="#ee4c28"/>
          <path d="M9.89,70.91c0-.22-.09-.67.1-.78.77.93,1.39.49.85,1.84-.12.29-.14.6-.56.5-.23-.67-.38-.71-.39-1.56Z" fill="#f9ab47"/>
          <path d="M13.79,77.94c-1.01-1.02-1.06-1.93.64-1.72l2.09,1.52c-.72.03-1.13-.52-1.85-.59-.4-.04-.57-.09-.49.39l2.34.98c-.51.48-2.12-.33-2.74-.59Z" fill="#f5bf38"/>
          <path d="M27.28,70.72c-.08.58-.08,1.41-.2,1.95-.37.2-.37.35-.65-.04-.77-1.09-.21-1.52.84-1.91Z" fill="#fab34a"/>
          <path d="M19.66,64.66c1.33-.02,2.67.02,4.01,0l-.29.39-3.71-.39Z" fill="#cf942d"/>
          <path d="M12.23,67.59c-.61.06-1.31.13-1.95.2.46-.42,1.34-.11,1.95-.2Z" fill="#cf942d"/>
          <path d="M22.59,60.37c.39.49,1.08.55,1.56,1.37.16.5.27.97.35,1.42.7-.81,1.24-.89,1.6-.24.02,0,.27.14.39.2l.59,1.76c-.48.12-.95-.16-1.37-.19-.39-.13-.53-.25-.16-.21-.87.02-1.73-.03-2.58-.18-.13,0-.26,0-.39,0-.52-.06-.5-.24,0-.39,1.39-.49.94-2.51-.55-2.36l-2.43-.77c-1.25-.17-1.79-.15-2.6.77-2.1-.36-2.8.32-2.1,2.04l-.33.32c-.6.53-1.51-.07-.59-.59-.27-.83-.76-1.24.07-2.08.76-.76,1.78-.54,2.68-.74.44-.1.72-.44,1.25-.51,1.71-.23,2.95.55,4.6.4Z" fill="#cfd0c8"/>
          <path d="M13.99,63.3c.05.14-.06.53,0,.59.04.04.43-.01.59,0,0-.17.08-.3.23-.38l1.7.02c.88-.72,3.11-.71,3.99,0l1.75-.02.34.38v.39c-3.14-.08-6.13-.2-9.28,0-.41.03-2.36.48-2.44.39-.12-.56.42-1.52.97-1.68.62-.18,1.3,1.01,2.16.31Z" fill="#d2c9b8"/>
          <path d="M22.98,64.27c.45,0,2.63-.08,2.74,0,.03.02-.02.28,0,.39-.87-.07-1.92.04-2.74-.39Z" fill="#d2c9b8"/>
          <path d="M24.54,61.15c.27.42.23.66.2,1.17.76-.66.76-.33,1.37,0v.59c-1.15-.25-1.01.5-1.31.58-1.1.28-.52-.94-.65-1.75.17.28.25.43.2.78h.19s0-1.37,0-1.37Z" fill="#e0a032"/>
          <path d="M18.39,82.44c.69-.14.64,1.86.19,1.95-.69.14-.64-1.86-.19-1.95Z" fill="#d89e19"/>
          <path d="M19.66,74.43c.04.73-.32,1.58-.98,1.95v-1.95c-.84-.01-.56.98-.59,1.56l-.39-1.56c.24-.16.67-.52.91-.55.35-.03.75.37,1.04.55Z" fill="#f6c037"/>
          <path d="M15.16,75.21c.31-.65,2.46.02,2.15,1.17l-1.17-.49.78,1.07c-.47.37-1.85-1.56-1.76-1.76Z" fill="#f4ba38"/>
          <path d="M17.7,73.45c.89-1.53-.31-1.1-.53-2.1-.09-.39-.12-1.09-.04-1.47.08-.36,1.31-1.13,1.81-1.08.31.03,1.59,1.31,1.61,1.62.09,1.22-1.7,1.87-.89,3.22-.72-.26-1.07-.63-1.95-.2Z" fill="#e15e20"/>
          <path d="M14.58,63.88c-.12-.55-.33-1.24-.28-1.8.11-1.41,1.83-.77,2.68-.95.17-.03.51-.73.68-.76.36-.07,1.54-.07,1.92-.02.33.04,1.97.64,2.54.79.3.08.87-.09,1.04.03.09.06.1.44.22.62.09.13.35.12.39.27.12.51-.07,1.26,0,1.82-.39.01-.78-.01-1.17,0-.6.02-1.91.11-2.41,0-.16-.04-.05-.35-.41-.4-.51-.07-2.06-.07-2.57,0-.36.05-.26.36-.41.4-.42.1-1.7.04-2.21,0Z" fill="#c1d3df"/>
          <path d="M18.61,69.17c.36-.06,1.43,1.21,1.43,1.65s-1.11,1.74-1.45,1.66c-.19-.45-1.29-1.29-1.28-1.66,0-.22,1.09-1.61,1.3-1.65Z" fill="#f5c433"/>
        </g>
      </g>
    </g>
  </g>
</svg>