<?xml version="1.0" encoding="UTF-8"?>
<svg id="Layer_2" data-name="Layer 2" xmlns="http://www.w3.org/2000/svg" viewBox="0 0 64 96.14">
  <g id="Cards">
    <g id="Cups">
      <g id="TwelveOfCups">
        <g>
          <path d="M3.46,7.91h-1.51V2.22c-.55.52-1.2.9-1.95,1.14v-1.37c.39-.13.82-.37,1.28-.73.46-.36.78-.78.95-1.26h1.22v7.91Z" fill="#e03e3e"/>
          <path d="M9.23,6.5v1.4H3.94c.06-.53.23-1.03.52-1.51s.85-1.1,1.7-1.89c.68-.63,1.1-1.06,1.25-1.29.21-.31.31-.62.31-.92,0-.34-.09-.6-.27-.78-.18-.18-.43-.27-.75-.27s-.57.09-.75.28-.29.5-.32.95l-1.5-.15c.09-.83.37-1.43.84-1.79.47-.36,1.06-.54,1.77-.54.78,0,1.39.21,1.83.63.44.42.67.94.67,1.56,0,.35-.06.69-.19,1.01-.13.32-.33.66-.6,1.01-.18.23-.51.57-.99,1-.48.44-.78.73-.91.87-.13.14-.23.28-.31.42h3Z" fill="#e03e3e"/>
        </g>
        <g>
          <path d="M60.54,88.09h1.51v5.69c.55-.52,1.2-.9,1.95-1.14v1.37c-.39.13-.82.37-1.28.73-.46.36-.78.78-.95,1.26h-1.22v-7.91Z" fill="#e03e3e"/>
          <path d="M54.77,89.5v-1.4h5.29c-.06.53-.23,1.03-.52,1.51s-.85,1.1-1.7,1.89c-.68.63-1.1,1.06-1.25,1.29-.21.31-.31.62-.31.92,0,.34.09.6.27.78.18.18.43.27.75.27s.57-.09.75-.28.29-.5.32-.95l1.5.15c-.09.83-.37,1.43-.84,1.79-.47.36-1.06.54-1.77.54-.78,0-1.39-.21-1.83-.63-.44-.42-.67-.94-.67-1.56,0-.35.06-.69.19-1.01.13-.32.33-.66.6-1.01.18-.23.51-.57.99-1,.48-.44.78-.73.91-.87.13-.14.23-.28.31-.42h-3Z" fill="#e03e3e"/>
        </g>
        <g>
          <path d="M22.7,44.15l.23.66c.72.66,1.75,2.17.25,1.79.19.54.44.86.73.98.08-.73.41-.6.73,0,.62-.19.83.39.24.74.54.2.39.48.03.84-2.7,11.44-3.12,23-3.16,34.73-.41,1.18-.58,2.23-.52,3.15.21.07.21.15,0,.25l-.12.24c-.32-.29-.72-.54-1.1-.73l-.23-.42c-4.73-2.75-5.34-8.36-2.22-12.53,1.34-2.42.06-5.74-2.43-6.83-3.6-.75-4.82-2.7-4.9-6.3-.13-5.67.11-11.3,2.51-16.5l1.72.44c.94-.1,1.5-.27,1.66-.51-.38-.5.59-1.13.97-.49.35-.59.94-1.01,1.78-1.27.44-.53.9-.92,1.38-1.18.39-.3.74.08,1.04,1.15.74.59,1.2,1.18,1.39,1.79Z" fill="#d4d4d4"/>
          <path d="M41.67,11.31c-.06,2.01,1.14,3.39,1.99,4.98,1.02,1.91.55,1.64,2.51,3.12.26.2.73.19.81.28.16.17-.03.7.04.94l-.48.37c-.48-.25-.97-.46-1.46-.61-.06.49-.3.47-.49,0-.14.47-.35.47-.49,0-.31-.12-.7-.27-1.01-.1-.17.53-.56.56-1.18.1-.05.22-.13.21-.24,0-.47.26-1.02.34-1.64.26-.48.71-1.63,1.63-2.26,1.22-.66.08-1.99.1-2.41-.26-.4.61-1.14.67-2.23.17l-.69.08c-.12.4-.28.32-.49-.25-.86.88-2.01-.24-1.7-1.23-.27.33-1.68.71-1.94.25.19-.78,1.23-.27,1.49-.63.15-.21.43-1.4.58-1.82.44-1.28.22-1.19.4-2.04.09-.4.79-.65.9-1.08.15-.58-.52-1.29.28-1.78.28.63.62.98,1.02,1.07.58-.51,1.98.06,2.54.63,1.08,2.48,2.12,1.51,3.14-2.9l.35-.02c-.46-1.08,2.05-1.18,2.46-1.04.09.03.16.16.21.31Z" fill="#f0f1f0"/>
          <path d="M47.01,57.63c.22,0,.43.07.51.25,2.06,4.86,2.52,8.25,2,13.65-.06,2.7.92,4.79,2.72,6.69l.12,1.71c-1.04,1.16-2.77,1.54-4.11,2.36-.92.56-1.83,1.72-2.95,2.06-.49-1.04-.61-3.2,0-4.17,1.11.09,1.19-.08.24-.49-.16-.07-.29-.15-.29-.24-.06-.66-.24-5.27-.05-5.46.09-.09.21-.14.34-.19l.2-.26c2.44,1.13.39-1.41-.11-.04l-.33.05c-.25.22-.71-.87-.77-1.13-.13-.6-.23-2.22.07-2.73.08-.14.36-2.19.42-2.75.29-2.7.3-5.48.27-8.3.46.02.87-.08,1.22-.29-.54-.53-.23-1.08.49-.74Z" fill="#d2d4d6"/>
          <path d="M52.36,79.93c-.83.1-.38-1.17-.67-1.9-.22-.55-1.13-1.34-1.48-1.94-1.93-3.4-.47-8.51-1.04-12.43-.4-2.74-1.48-3.86-2.16-6.03-.79.22-.72-1.47-.24-1.72-.69-1-1.46-3.59,0-3.92.4-.33.68.01.49.49.36.57.49,1.28.39,2.15.75,2.85,1.61,5.67,2.6,8.47.11,3.16.18,6.4.21,9.72-.35.65,1.6,4.62,2.04,4.37.36-.2.08-6.13-.02-7.12,0-1.37.12-9.24.52-9.7.1-.11.22-.2.35-.29.44-.9.67-1.83.02-2.54l.47-.89-.45-.45c.25-2.34.23-4.72-.06-7.12.29-.99.41-2.15.02-2.48-.47-.38.07-1.74.73-1.47.62,3.38.7,7.45.5,10.91-.16,2.76-.86,5.73-.99,8.56-.17,3.66.39,7.55.26,11.05-.05,1.47-.48,3.17-1.47,4.28Z" fill="#447da6"/>
          <path d="M16.14,44.15s.08.39-.01.46c-.18.13-.72-.05-1.04.03-.2.05-.19.47-.29.49-.49.13-1.13-1.09-2.09-.35-1.54,5.09-2.59,10.03-2.16,15.41.18,2.19.23,4.66,2.43,5.64s3.18.6,4.58,2.98c2.44,4.15-.93,5.73-1.56,8.89-.68,3.43,1.09,6.36,3.72,8.29.24.17.94.5.31.79-2.89-1.46-4.07-3.11-4.62-6.37-.1-.81-.11-1.64,0-2.45.44-2.26,1.67-3.02,2.19-4.9.16-.89.18-1.8,0-2.7-1.28-3.89-3.76-2.78-5.92-4.45-1.36-1.05-1.74-4.52-1.86-6.22-.38-5.43.81-10.69,2.43-15.8-.09-.22-.05-.42.13-.57,1.12.66,2.28.88,3.54.52l.22.29Z" fill="#cbcbcb"/>
          <path d="M44.83,57.38c.57-.5.87.01.24.49.22.09.38.27.28.36-.52.47-.58.56-.28,1.35.69,3.77.05,7.59-.64,11.25l.11,1.56c.94,2.97,1.08,6.06.4,9.27l.13,3.41c.49,1.23.49,2.29,0,3.19-.33.32-.93.49-1.22.74-.61.58-.95.61-.73-.25v-.25l1.12-1.72c-1.06-3.65-.71-6.94-.12-10.69-.56-1.96-.81-3.86-.76-5.72-.14-.97.02-2.17.17-3.19.51-3.36.73-6.03.28-9.48.17-.78.55-1.03,1-.32Z" fill="#af3d35"/>
          <path d="M51.88,26.5c1.16,2.13,4.18,7.62,3.83,9.86-.1.66-.54,1.33-.65,2.04-.36,2.35-.25,4.36-1,6.71-.11.36-.61.46-.73,1.47-.17,1-.42,1.16-.73.49-.29-.11-.51-.26-.24-.49l-.1-.49c1.02-2.49,1.56-5.13,1.6-7.92,1.38-2.32-1.06-9.05-2.54-10.69-.71-.13-1.19-.63-.42-1,.25-.36.72-.37.97,0Z" fill="#b3403a"/>
          <path d="M21.49,11.56c-.34.32-.48.17-.24-.25-.65.02-.81-.14-.49-.49l.37-.46c.88.14,2.08.15.53-.08-3.92-.59-7.8-1.16-11.62-.03.54.02.88.21,1,.57.43.28.19.36-.24.49.35.2.35.78,0,.98-.4-.12-.08-.95-.38-1-.85-.14-1.62.47-1.55-1.07.05-1.11,1.15-1.18,2.08-1.34,1.2-.21,3.93-.53,5.09-.53.95,0,6.23.76,6.91,1.12,1.32.69.26,2.92-1.45,2.08Z" fill="#d1ac50"/>
          <path d="M21.73,86.05c.39.08.61.39.67.95.37.49,1.8.72,2.46.8,5.11.62,9.85.71,14.89.5.34-.51.65-.62.95-.04.58-.1.58.23,0,.98-.45.08-.94.16-1.46.25-1.4.61-3.09.66-4.51.14l-3.76-.14c-.24,0-.49,0-.73,0-.79-.19-1.62-.19-2.43-.12-.15.67-.69.45-.97-.12-.54.73-2.7.21-3.16-.49-1.29.1-1.86-.15-1.7-.74-.19-.13-.67-.56-.73-.74-.02-.07.01-.16,0-.25-.38-.65.08-2.05.49-.98Z" fill="#b53d1b"/>
          <path d="M14.92,31.65c.11-.52.27-.6.49-.25.5.21.08,1.29-.49.74-.32.68-3.62.85-4.15.57l-.22-.57.49.22c-.17,2.27-.19,4.68-.01,7.02l-.48.35c0-.57.23-.64.66-.29.37,1.63.79,3.06,2.52,3.63l.22.57c.17-.61.75-.59.97,0,.2-.28.6-.44,1.22-.49-.09-.66.02-.71.49-.25,1.05-.41,1.53.08.49.74-.39.16-.6.03-.97.49-1.55.32-2.12.34-3.53-.36-.11-.05-.34.12-.36.11-.09-.05-1.06-1.47-1.15-1.65-1.44-2.75-1.08-6.77-1.03-9.86.1-.77.34-1.09.73-.98.44-.38,1.09-.44,1.97-.2,1-.16,1.72,0,2.17.44Z" fill="#c1933f"/>
          <path d="M39.23,89.48c.46.59.85,2.27.95,3.14.04.41.18,2.03.07,2.29-.26.61-.56.9-1.25,1.19-1.09.09-2.03.12-2.76-.8-1.4-1.76-.54-3.57-1.12-5.46l-4.15-.35c2.73-.03,5.54-.1,8.27,0Z" fill="#d2ae56"/>
          <path d="M43.12,88.75c.25.21.34.33.73.25-.07.06-.2.18-.24.25-.17,1.76-.2,3.52-.08,5.28.51,2.02-2.22,1.82-3.31.85l.05-5.27c-.46-.07-.8-.27-1.03-.62.18-.51,1.04-.13,1.46-.25.14-1.02.44-1.19.91-.51l.07,5.9h.42l.12-6.32c.57-.84.8-.37.92.44Z" fill="#b2b661"/>
          <path d="M12.73,15.72c.8-.32,1.09-.32,1.19.6l.52-.05c.52-1.08,3.84-.6,2.42.44q-.56.6,0,0c.4-.35,1.13-.68,1.7-.49.28.05.44.21.49.49-.22.19-.43.58-.73.74-.47.72-.14,1.53.97,2.45-.02.22-.34.63-.24.98-.5.44-.77.09-.73-.49-.94-1.16-3.26-2.17-4.07-.43l-.55.19c.32.36.18.49-.24.25-.1.38-.25.63-.49.25-.66-1.17,1.21-1.8,1.7-2.82-.38-.54-1.12-.48-1.59-.85-.35-.28-.39-.74-.6-.99-.3-.34-.17-.47.24-.25Z" fill="#d2ab5e"/>
          <path d="M38.99,10.82c.52-.07.52.34,0,1.23-.33.87-1.25,4.41-2.11,4.63-1.05.27-1.35-1.66-1.94-1.89-1-.38-2.06-.21-2.99.2.03-.56-.05-1.15,0-1.71.04-.52.23-1.5.49-1.96.46.05.51.4.15,1.04l.09.92c.42-.19.22.41.22.38.29-2.11,2.05-3.06,1.89-.93-.43.53-.09,1.02,1.03,1.46.59,1.62,1.21,1.27,1.87-1.04-.06-.98.13-1.59.58-1.83-.1-.56-.02-.72.24-.49.14-.36.34-.35.49,0Z" fill="#c6a68d"/>
          <path d="M43.61,89.24v6.86c-.81-.07-1.75.11-2.54-.01-.43-.07-.73-.55-1.21-.49-.14.02.11.42-.87.5,2.12-1.41-.26-5.21.24-6.62.48.02.98-.01,1.46,0,.22.22-.31,5.54.1,6.14.25.37,2.21.37,2.46,0,.55-.8-.4-5.2.35-6.39Z" fill="#f4f1d0"/>
          <path d="M34.37,6.9c-.15-.15-.14-.47.05-.95-.49-2.06.59-1.95.92-.03,1.44,1.35,1.96,1.68,3.89.49.28-2.13,1.32-1.22,1.22.49.47-.45.65,0,.73.49l.56.12c1.06-.14,1,.04.41.86.06.25-.59,2.63-.71,2.71-.11.08-2.55.17-2.45-.26-.16,0-.32,0-.49,0-.64-.1-.6-.27,0-.49l.38-.49c2.19.51,2.6-1.38.77-2.4-.72.71-1.88.89-2.86.76-.55-.08-2.4-.76-2.43-1.3,1.38.89-.78,1.18-1.71.98.52.59,1.21,1.61.25,1.96.09-.54.6-.74,1.51-.61.98-.04,3.85-.02,3.83,1.1-.04.14-.08.25-.14.26-1.61.2-3.74.19-5.21-.26-.24-.13-.15-.28,0-.49-.08.55-.25.8-.49.74,0-1.01-.61-1.81-.97-2.7-.88-.92-1.23-2.65.21-1.3l.77.32c.4.05.82-.04,1.22,0,.44-.3.68-.3.73,0Z" fill="#d5b044"/>
          <path d="M15.17,28.46c.12.78-.47.64-.97.25-.31.28-.66.24-1.05-.13,0,1.04-.86,1.17-1.7.9.06.72-.24,1.39-.66,1.92-.04.13-.58.78-.73.98.01-.93-.07-1.78.24-2.69-2.82-.05-2.73-2.17.35-1.7.54.08.82.5,1.35.48.19-.19-1.58-2.01-.36-1.97,1.01.04,1.64.96,2.43,1.48.33.22.72.25,1.09.49Z" fill="#b49881"/>
          <path d="M20.76,22.58c.46.03,1.23-.19,1.43.4.29.87.09,1.46-.81,1.57-3.35.41-7.51-.33-10.95-.01-.81-.09-.82-1.26-.36-1.72.32-.12.7-.21.97,0,.28.2.12.36-.49.49l.44.36,10.12-.12c.15-.12.19-.29.14-.49-1.41.07-1.74-.09-.97-.49.06-.49.3-.48.49,0Z" fill="#aa5246"/>
          <path d="M13.71,20.13c.66-1.26,1.61-.09,2.18.65.97-1.38,1.79-1.51,2.44-.41.67.22.48.34.73.49.09.05.16.18.24.25.71.51.71.75,0,.74l-.07.33c-2.29,0-4.59.02-6.89.03-.38-.31-.26-.79.16-.6.33-.38.66-.79.97-1.23.08-.09.17-.16.24-.25Z" fill="#d72"/>
          <path d="M30.24,20.38c.8.91-.69,1.51-1.22.74-.21.6-.46.76-.73.49-1.75,1.87-2.46,4.6-3.03,7.17l-.62.19c.15.61-.21.65-.73.49.53-2.47.92-5.1,2.55-7.11.28-.34,1.51-1.58,1.83-1.71.28-.12,1.68-.32,1.94-.25Z" fill="#4f86a9"/>
          <path d="M46.53,58.36c-.04.09.08.4-.01.47-.18.13-.87-.07-.96.02-.29.27.17,6.8.02,7.98-.06.45-.45.32-.5.52-.17.74.16,1.86-.01,2.6-.05.2-.44.07-.5.52-.05.39-.06,1.57.03,1.93.04.16.35.17.38.26.14.32.1.57.34.89.34-.31.46-.17.24.25-.21,1.79.28,4.18,0,5.88.53.41.41.57-.24.49-.17,1.8-.02,2.54,0,4.17,0,.12-.25.45-.24.74-.85-3.31-.23-4.17,0-7.23.22-2.95-.88-5.17-.74-8.09.07-1.5.62-2.98.74-4.4.15-1.85-.08-3.88,0-5.75-.73-1.3.88-2.22,1.46-1.23Z" fill="#ebc6c7"/>
          <path d="M23.67,88.75c-1.12,1.16-2.29,2.37-3.51,3.63-1.37.25-1.73.49-1.08.73l-.27.54c-.82,1.08-3.48-.1-1.46-1.23,1.64-.88,4.25-2.49,4.62-4.41.65.43,1.07.42,1.7.74Z" fill="#dfbc4b"/>
          <path d="M30.24,89.48c-.4,0-2.35-.09-2.43,0-.12.13.39,1.97-.88,2.67-.9.5-2.37.32-3.32.58-.55.15-1.3.64-1.88.92-.51-.01-.37-.2,0-.49l.1-.6c1.45-.78,3.01-1.28,4.69-1.5-.01-.72.09-1.32.31-1.81,1.09.1,2.47-.28,3.4.25Z" fill="#d6b559"/>
          <path d="M12.49,21.6s-.3.03-.24.24h7.05c.65.15.59.43,0,.74-.14.15-.28.26-.42.27-1.06.05-5.93.23-6.45.03-.16-.06-.29-.17-.42-.3-.53.05-.53-.28,0-.98.11-.09.3-.33.49-.49.51-.04.45.31,0,.49Z" fill="#f7ab3a"/>
          <path d="M51.63,26.01c-.2.41-1.38.34-1.7,0-.61.31-.81.11-.49-.49-.52-.07-.93-.55-.49-.98l.23-.3c-.73-.74-1.45-1.46-2.17-2.15-.58-.51-.12-.99.49-.49.16.12.69.15,1.1.48,1.15.94,2.36,2.7,3.03,3.93Z" fill="#608fb0"/>
          <path d="M47.01,20.62c.08.3.24.8.49.98-.28.08-.35.27-.49.49,1.09.46-.19,1.47-1.05.84l-.89-1.33c-.42-.12-.35-.96,0-1.23.05,0,.31-.34.82-.25.4.07.7.47,1.12.5Z" fill="#daca65"/>
          <path d="M23.67,29.69c.36-.31.55-.26.49.25.25,1.03-.86,1.12-1.68.98-1.21-.43-2.43-.6-3.67-.49-.11.18-.35.18-.73,0-.56.18-.69-.12-.24-.49.83-.2,1.69-.73,2.56-.74,1.06-.02,1.66.64,2.44.74.37.04.73-.24.83-.24Z" fill="#4f86a9"/>
          <path d="M15.89,29.44c.32.07,1.84.43,1.94.49.02.01.07.28.24.49.58-.04,1.07.55.49.98-.36,1.08-1.23.11-1.71-.51-.24-.24-.56-.07-.96.51-.14.32-.29.26-.49,0-.15.06-.36.23-.49.25-.75-.11-.72-2.02,0-2.21.22-.55.69-.51.97,0Z" fill="#e0b449"/>
          <path d="M31.45,7.88l-1.54-1.77c-.58-1.5,1.2-1.63,1.5-1.13.33.55-.52,1.41,1.01,1.92-.79-.09-1.97-.91-1.38.18.19.35.17.23.4.8Z" fill="#d0b56c"/>
          <path d="M44.1,7.39c-.34.92-.22.2-.9.56s-1.5,2.53-1.53,3.36c-1.25.18-2.17-.6-2.67.74v-1.23c.44,0,2.26.22,2.4-.03.24-.42-.02-1.44.76-2.42-.05-.86,1.47-2.12,1.94-.98Z" fill="#f9f1c9"/>
          <path d="M21.24,11.31c.06.08.24.19.24.25,0,.02-.23-.03-.24.36-.05,2.24-.51,3.34-2.19,4.78-.52.06-.54.03-.49-.49-.33-.47-.32-.47.24-.49.29-.64.66-1.3,1.11-1.96h.35c-.09-.4.14-1.02.49-1.22-.36-.52-.63-2.05.49-1.23Z" fill="#b55d46"/>
          <path d="M17.35,92.42l-.49.98,1.94.25c.33-.31.46-.16.24.25,1.03-.01.75.65-.24.74l-.16.26c-.73-.11-1.32-.12-1.78-.01-.6-.39-.66-1.37-.5-2.04.08-.34.74-.28.98-.41Z" fill="#f8db80"/>
          <path d="M24.65,28.95c.59-.44,1.63.32,1.22.98.52.26.95.64,1.27,1.14,2.34.61.68,2.46-1.12,1.07-.58-.78-1.2-1.52-1.85-2.21-.23-.03-.45-.24-.49-.25.07-.09.17-.16.24-.25.36-.43.71-.45.73-.49Z" fill="#3382b9"/>
          <path d="M43.12,5.92c1.18-.01,1.43.25.97,1.47-.66-.18-1.55.49-1.94.98.18-.98-.27-.6-.97-.98.86-.08,1.31-.46,1.35-1.15l.6-.32Z" fill="#cdb26b"/>
          <path d="M40.69,4.94c.9.82.33,1.8.49,1.96.03.03.94.04.97,0,.35-.36-.83-.96.97-.98-.6.97-.52,1.75-1.94,1.47-.17-.09-.63-.38-.73-.49-.4-1.16-.32-1.81.24-1.96Z" fill="#f9eec7"/>
          <path d="M11.28,11.31c.47.22.47.51,0,.74.37.41.53.99.24,1.47.65-.05,1.73,1.45,1.22,1.96.21.08.21.16,0,.25l-.24.25c-1.07-1.31-1.55-1.88-1.7-3.68-.02-.29-.03-.7,0-.98.22-.28.41-.37.49,0Z" fill="#ae5036"/>
          <path d="M35.34,5.92s-.37.09-.46-.02c-.22-.28.36-1.16-.51-.96.39.69.22,1.26,0,1.96-.24-.03-.49.02-.73,0,1.53-.97-.46-2.22.73-2.82s1.02,1.1.97,1.84Z" fill="#cdb367"/>
          <path d="M40.69,4.94l-.24,1.96c-.35-.41-.27-.69-.24-1.22-.56-.16-.61.51-.97.73-.68-1.33.27-2.56,1.46-1.47Z" fill="#cbaf62"/>
          <path d="M21.73,93.16v.49c-.69.33-1.1.66-1.94.98-.41.26-.73.26-.97,0,.81-.37.24-.47.24-.74-.2-.2-.24-.47.01-.64.11-.08,2.47-.3,2.66-.1Z" fill="#dfbc4b"/>
          <path d="M18.33,17.44c-.46,1.46,1.07,1.28.97,2.45-1.07-.32-1.35-1.43-2.19-2.08.27-.27.88-.19,1.21-.37Z" fill="#faeeca"/>
          <path d="M32.91,10.33c.8.15.87.53.49,1.23.04.54-.2,1.11-.73,1.72-.21-.8-.27-1.06-.24-1.96,0-.24-.04-.52,0-.74.02-.14.27-.69.49-.74.04.13-.03.34,0,.49Z" fill="#ac8565"/>
          <path d="M18.81,94.63c.32,0,.65,0,.97,0-.19.07-.3.39-.85.48-.67.11-1.5.13-2.06-.23-.27-.77,1.12-.25,1.94-.25Z" fill="#cdbb7f"/>
          <path d="M19.3,21.11c.72.51,1.44.37,1.46,1.47-.16-.01-.32,0-.49,0-.2.39-.78.4-.97,0,.02-.24-.03-.5,0-.74.02-.19.23-.42,0-.74Z" fill="#e4ac5b"/>
          <path d="M15.17,28.46c.4.26.72.42.73.98-.18-.04-.44.25-.97,0-.62.5-1.21-.12-.73-.74l.97-.25Z" fill="#c39f5d"/>
          <path d="M12,21.6v.98c.06.48-.73.6-.97.25-.3.05-.66-.03-.97,0,.33-.33.68-.16.9-.31.07-.05.74-.68,1.04-.91Z" fill="#d1a86c"/>
          <path d="M51.63,26.01c.09.16.16.33.24.49-.32,0-.65,0-.97,0-.48,1-1.98.08-.97-.49h1.7Z" fill="#9e5d5f"/>
          <path d="M45.07,88.26c.52-1.12.03-2.09,0-3.19.28,1.09,1.14,2.09,0,3.19Z" fill="#d2d4d6"/>
          <path d="M12.49,21.6c.04-.12-.03-.34,0-.49.21-.18.32-.33.49-.49.11-.1.4-.15.49-.25.07.68-.28,1.18-.97,1.23Z" fill="#b45b38"/>
          <path d="M17.6,73.06v-2.7c.39,1.17.33,1.51,0,2.7Z" fill="#d4d4d4"/>
          <path d="M15.41,80.42c-.22-1.3-.26-1.12,0-2.45v2.45Z" fill="#d4d4d4"/>
          <path d="M25.62,48.56c.64.15.62.29,0,.49l-.06,1.62c-2.64,10.76-3,21.81-2.81,32.71-.05.76-.34,2.46-1.02,2.68-.63-.18-.57.4-.49.98-.48-.25-.17-.85-.12-1.22.87-7.01.24-13.56.86-20.46.43-4.78,1.47-9.88,2.25-14.64.1-.59.66-1.9.67-2.39.2-.74.75-.43.73.25Z" fill="#b84f47"/>
          <path d="M26.59,48.56c-.01.49-.71.34-.97,0-.19-.03-.47-.26-.73-.25,0-.05-.19-.54-.24-.74-.57-.3-.86-1.19-.9-1.76-.49-.53-.84-1.09-1.05-1.67-.44-.49-1.31-1.01-1.71-1.58-.31-.44-.13-1.14-.72-1.36l-.46-.32c.06-1.87.27-3.66.65-5.36-.27-.75-.26-1.31.05-1.67.02-.26.1-.42.24-.49.07-.21.15-.21.24,0l.53.49c-.04,2.46,0,4.9.12,7.31,1.76,2.19,3.34,4.43,4.96,6.76v.63Z" fill="#578695"/>
          <path d="M20.27,32.88c.42.04.39.63.24.98.39,2.28.01,2.94-.24,5.03-.09.74.1,1.62,0,2.32-.08.53-.48,1.11-.89,1.43-.62.49-1.66.76-2.27,1.02l.24-.49-.73-.25c-.25-.67.15-.87.73-.49.9-1.07,1.59-2.29,2.08-3.63l.35-.04c-.76-.66-.72-2.73-.15-3.56-.26-.75-.61-1.83.15-2.32.06-.62.31-.6.49,0Z" fill="#e6c741"/>
          <path d="M19.3,46.6c-.64-.22-1.36.61-1.82.49-1.01-.26.55-2.29.95-2.2.47.1,1.07,1.17.87,1.7Z" fill="#616262"/>
          <path d="M18.81,59.83s-.01.48.14.71c.2.3,1.22,1.11.84,1.49-.12.11-2.1-.42-2.17-.5-.38-.43.58-2.26,1.2-1.7Z" fill="#5d5f5e"/>
          <path d="M15.65,50.52c-2.44.9-3.24.41-1.06-1.45.45-.08,1.25.95,1.06,1.45Z" fill="#5b5b5b"/>
          <path d="M19.79,68.9c.51-.54,1.83,2.4.84,2.69-1.37.41-1.05-1.94-.84-2.69Z" fill="#6b6f6f"/>
          <path d="M15.9,53.7s.65-.02.82.03c.96.32.07,2.01-.46,2.42-.32.08-.55-.22-.56-.55,0-.18.13-1.83.2-1.9Z" fill="#5e5e5e"/>
          <path d="M20.06,52.44c-.68-1.08,1.74-1.86,1.91-1.06s-1.42,1.85-1.91,1.06Z" fill="#717274"/>
          <path d="M21.24,80.42c.38,1.42-1.71,2-1.94.85-.14-.7,1.48-.98,1.94-.85Z" fill="#6c6c6c"/>
          <path d="M24.65,47.58c-.2.04-.6-.06-.73,0-.39-.13-.64-.46-.73-.98.14-.27.89-.16.21-1.08-.35-.47-.97-.35-.7-1.37.89.99,1.6,2.12,1.94,3.43Z" fill="#b3c9dd"/>
          <path d="M12.01,57.14c.19-.26,2.29-.59,1.94.61-.24.82-2.34-.05-1.94-.61Z" fill="#717171"/>
          <path d="M14.08,62.28c.81-.16.8,1.85.24,1.96-.81.16-.8-1.85-.24-1.96Z" fill="#595959"/>
          <path d="M20.03,76.25c.33.9-1.21,1.73-1.46.85s.86-.94,1.46-.85Z" fill="#7c7f7e"/>
          <path d="M21.37,57.14c1.08,0,.33,1.59-.24,1.47-.67-.15-.29-1.25.24-1.47Z" fill="#5c5f5d"/>
          <path d="M23.92,47.58c-.13.06-.35.74-.97.49-.05-.54,0-.98.24-1.47.63-.03.8.41.73.98Z" fill="#737378"/>
          <path d="M18.32,65.47c.67.68-1.23,2.75-1.24.86,0-.84.94-1.15,1.24-.86Z" fill="#9e9e9e"/>
          <path d="M17.84,78.95c.09.83-.07,1.37-.97,1.22-.09-.83.07-1.37.97-1.22Z" fill="#525353"/>
          <path d="M44.1,20.38c.16-.01.33.02.49,0,.4.04.34,1.07,0,1.23.48,1.1,1.16,2.04,2.02,2.82l-.32.61c-.19,1.03-.86,2.3-1.7,2.94.09.11.16.22.18.33.03.16-1.5,2.41-1.81,2.7-.16,1.56-.62,3.01-1.4,4.35l-.38-.04-.05.66c-1.22.82-1.76,2.13-1.9,3.58-.59.54-.74,1.18-.79,1.96l-.67.67c.32.42-.09.86-.43,1.13-1.53.45-2.33,1.56-2.97,2.79.3.37,0,1.38-.49,1.47-.58,1.78-1.5,4.29-3.7,3.98-.46-.06-3.06-2.14-3.58-2.62-.06-.06-.05-.21-.01-.38-1.59-1.26-1.84-2.74-2.96-4.25-1.24-1.67-2.69-1.96-2.65-4.46s.29-3.91.02-6.49c-.26-.48-.31-1.33.45-1.21,1.81.29,1.49,7.6,1.41,9.14.02.49.12,1.11.32.51-.15-.02-.27-.05-.3-.11-.1-.29-.08-5.54-.02-6.09,0-.06.14-.12.32-.16l-.33-.05c-.1-1.41-.59-2.49-1.49-3.26-.39.21-.59.05-.62-.49-.52.22-2.05-.53-1.94-1.23,1.84-1.7,3.97,1.19,5.35-.49.02,0,.15-.29.46-.14.94.45,1.18,2.2,2.57,2.36.49.05.72.09.62-.5-1.46.14-1.43-1.07-1.95-1.72.27-.34.59-.67.97-.98.44.06.85.51,1.21,1.34.58.35.91.72.98,1.11.38.11.7.43.97.98-.46.8,1.2.12,1.22-.49.45-.99,2.91-1.25,3.65-.49-.13.21-.26.42-.43.59-.19.19-.41.26-.39.25,4.35-2.3,6.88-4.08,8.27-9.32.65-.66.92-1.35.81-2.06-1.18-.45.36-.92.97-.49Z" fill="#64b2e5"/>
          <path d="M31.94,21.6c.14.07.14.16,0,.25l-.15.41c-2.31,3.01-.52,6.51,3.22,3.41l.83-.15c-.29-.44.03-.74.49-.49.33-.44.49-.44.49,0,.49-.39.55-.38.49.25,0,.18,0,.31.01.31,1.41-.53,3.05-1.5,4.33-2.33.11.03.22.08.29.15.47.45-1.15,3.23-1.57,3.86-.89,1.31-1.4,1.99-2.67,2.96-.66.5-2.14,1.48-2.81,1.18-1.22.06-2.54.17-3.65.49-.01.59-.78.9-1.22.49-1.16.2-.79-.67-.97-.98-.2-.47-.58-.91-1.16-1.31-.38-1.06-.72-1.44-1.03-1.14-.01.41,0,.82,0,1.22l-.97-.24c-.21-.27-.91-.71-1.22-.98.48-.82.76-3.48,1.42-4.82.15-.31,1.45-2.39,1.57-2.47.24-.15.58-.01.66-.06.19.22.43.06.73-.49.64-.26,1.4-.07,1.22-.74.25.07.53.78.84,1,.38.26.62.14.86.22Z" fill="#6ab4e7"/>
          <path d="M44.1,20.38c-.25.02-.87-.07-.97,0-.07.06.04.36,0,.48.44.31-.42,1.73-.77,2.07-.88.85-3.82,2.1-5.06,2.34-.19.01-.38-.22-.49-.25-.25-.59.51-1.63,1.22-1.47-.15-.33,0-.64.46-.92l2.54-1.31c.55-.32,1.18-.77.89-.96.37,0,1.64-.71,2.19,0Z" fill="#6abdf1"/>
          <path d="M35.34,21.6c.62.26,1.56.39,2.83.4-.31.46-.61.9-.88,1.31.28.39-.09.74-.49.49-.23.41-.38.48-.49,0-.9.9-3.19-.7-2.92-1.72-.35-.08-.68-.16-.97-.25.72-.45,2-.24,2.92-.25Z" fill="#f8ce42"/>
          <path d="M41.67,20.38l.15.32c-1.42.76-2.74,1.64-3.96,2.63h-.32c-.07.2-.15.2-.24,0-1.33-.03.91-.69.48-1.22-.53-.02-1.06.03-1.59,0-.47-.03-.97.26-.84-.49.87,0,2.97.19,3.54-.23.35-.26.45-1.03,1-1.2.74-.23,1.27.22,1.78.2Z" fill="#cec996"/>
          <path d="M41.91,20.38c1.06-.18-.23.89-.37.98-1.39.97-2.2.79-3.52,2.21-.37.24-.45.2-.49-.25.75-1.81,3.02-1.51,4.13-2.94.08,0,.16,0,.24,0Z" fill="#5a8e98"/>
          <path d="M32.43,21.85c.3.1.47-.15.97.25l-.5.52c.22.9-.62,2.31-1.45,1.44.66.19.7,1.32,0,1.47.21-.39.57-.38,1.08.05.83-.34,1.45-.36,1.84-.05.95,1.07-2.26,1.61-2.98,1.14-.53-.35-.7-1.13.06-1.14-.07.56-.27.66-.66.28-.36-.35.08-3.13.66-1.75l-.31-.02c.1-.74.37-1.47.8-2.18v-.25c.17.06.32.19.49.25Z" fill="#bb5d58"/>
          <path d="M34.37,16.7h-1.22s0-.73,0-.73c.6-.07,1.28-.02,1.21.73Z" fill="#b7bcc1"/>
          <path d="M45.07,20.38c.04.39-.06.85,0,1.23-.08.65-.26.59-.49,0v-1.23c.16-.02.33,0,.49,0Z" fill="#87a39a"/>
          <path d="M45.07,53.95c.74-.16,1.31.5,1.7,1.96.07.44.16,1.46.24,1.72-.27.18-.36.46-.49.74h-1.46c-.01.41.02.82,0,1.23-.68-.46-.02-1.42,0-1.72l.07-.52c.81-.56.58-1.24-.7-2.05-.4-.35-.35-.64.15-.86-.21-.35.1-.76.49-.49Z" fill="#ddb455"/>
          <path d="M48.49,79.67s-.07-.62-.2-.89c-.12-.25-.5-.58-.52-.71-.19-1.17,2.12-.15,2.4.54.09.55-1.28,1.41-1.68,1.06Z" fill="#666969"/>
          <path d="M47.99,68.65l-2.43.49c.22-1.85,2.04-2.84,2.43-.49Z" fill="#626365"/>
          <path d="M45.31,73.55c.29-2.19,2.27-.43,2.43.98-.25.23-1.9-.51-2.19-.73-.07-.05-.2-.18-.24-.25Z" fill="#696c6d"/>
          <path d="M45.56,79.68c2.36-.45.9,1.98-.24.49.01-.12.22-.33.24-.49Z" fill="#6e7070"/>
          <path d="M47.26,60.81c.07.36.06,1.63-.6,1.47-.76-.19-.21-1.62.6-1.47Z" fill="#5b5e5c"/>
          <path d="M53.34,46.6c.11-.04.52-.08.49.14-.25,2.53.28,5.12.25,7.59,0,.77-.21,1.51-.25,2.32-.08.5-.29.85-.62,1.06.95-.19.53,1.68.13,2.37-.19,2.08-.47,4.69-.5,6.73-.05,3.66.72,7.52,0,11.16-.34.24-1.6-1.41-1.8-1.73-2.01-3.14-.8-8.34-1.14-12.08-.37-4.08-3.45-7.49-2.64-11.67l.31-.16c1.2.76,1.9,0,2.61-.82-.35-.53.39-1.15.73-.49.09-.45.39-.88.97-.98.47-.25.76-.48.97-.98-.22-.77.02-1.82.49-2.45Z" fill="#65b1e2"/>
          <path d="M53.34,60.08c.06-.68.42-1.43.24-2.21-2.08,2.54-1.06,5.66-1.2,8.71-.02.51-.37,3.65-.5,3.79-.11.11-.66.06-.48-.36l.24-6.74-.73,1.71c-.59.09-.54-.08-.47-.59.14-.99,1.75-5.67,2.23-6.58.26-.49.7-.88,1.16-1.16-.06,1.05.39,2.83-.49,3.43Z" fill="#2f80ba"/>
          <path d="M46.04,51.25c.5-.9,1.53.14.73.74-.56,1.14-.2,2.71,0,3.92l-1.7-1.96c-.53-.54.3-2.57.97-2.7Z" fill="#d0c8cf"/>
          <path d="M46.53,50.03c.36-.18.69.15.97.98h.33c.08,1.08.86.83,1.59.19l.51.3c.07-.21.15-.21.24,0-.04.09.07.39-.04.57-.69,1.1-1.95,1.33-2.87.41-.16-.16-.36-.33-.49-.49-.1-.12.03-.69-.73-.74-.35-.4-.05-1.19.49-1.23Z" fill="#b8aa60"/>
          <path d="M42.4,55.42c.34-.93,1.62-.4,1.22.49-.15,3.66-.23,7.61-.06,11.39-.07,1.04-.21,2.06-.42,3.06.6,6.04.61,12.09,0,18.13v.25c-.2-.16-.16-.56-.48-.49v6.86h-1.46s0-6.37,0-6.37c-.34-.1-.26.43-.48.49v-.98c-.19-.02-.48-.09-.49-.23-.24-6.39-.13-13.28.49-19.62-.56-.09-.52-.5,0-.74-.02-3.67-.04-7.44-.06-11.3l.3-.7c.65-.5,1.14-.58,1.46-.25Z" fill="#c0bb3d"/>
          <path d="M43.12,88.5c0-6.04,0-12.09,0-18.13.07-.21.15-.21.24,0-.17,1.76,1.05,3.55,1.22,5.27.2,2.06-.77,4.51-.75,6.62.02,2.28,2.42,5.49-.71,6.25Z" fill="#df4d2e"/>
          <path d="M44.83,57.38c-.73-.14-.47.37-.49.85-.05,2.04.4,4.02.24,6.13-.15,1.91-1.04,4.25-1.21,6.01h-.24c0-4.16-.38-9.36-.01-13.37.04-.46.21-.75.5-1.09.71-.56,1.83.76,1.22,1.47Z" fill="#e24f2c"/>
          <path d="M41.18,52.48c.66-.51,1.01-1.11,1.01-1.99-.79-.46-.42-1.77-.03-2.42.02-.19.08-.47.21-.49.36-.05,3.88-.08,4.06,0s.27.3.34.49c.79-.09,1.38,2.52.73,2.94-.04-.08-.92-.91-.97-.98-.26.01-.42-.31-.49-.98-.3.65-1.87.54-2.06-.08l-.61.08c-.14,1.15-.19,2.3-.14,3.45.4.16.39.38.24.73.63.16.93.48.87.96.24-.07.32.01.24.25.03.03-.03.3.08.41.72.67,2.21,1.6,1.05,2.55l.33.23-.97.24c.02-.34-.2-.39-.24-.49-.33-.76-.57-.99-1.22-1.47-.47-.35-.26-.55-1.22-.49-.65-.04-.62-.29,0-.49-.28-.21-.35-.56-.2-1.06-.42-.02-.57-.2-.52-.65-.66.72-.92-.23-.49-.74Z" fill="#f0bc33"/>
          <path d="M47.01,25.52c-.88-1.23,1.97-.86,2.43,0,.03.01.4.4.49.49.24.25-.48.45.97.49-.11.63.53.39.74.65.76.96,3.2,6.93,3.25,8.14s-.46,2.12-.57,3.12c-.34,3.21-.18,4.21-1.33,7.23-.14.37-.21.81-.63.96-.32.02-.44-.12-.56-.36-.47-.94-.93-1.88-1.39-2.82l-.31-.09c-.58-1.18-1.21-2.3-1.88-3.34.07-.15.15-.28.27-.36.5-.36.4.1-.22.06-.1,0-.2-.09-.29-.19-.44.02-1.32-.75-1.22-1.23-.51-.45-.19-1.42.4-1.81-.36-.54-.46-1.21-.31-2l-.34.08c.33.69-.26,2.07-.97,2.26-1.22.44-3.01.26-4.13-.49-.46-.14-.46-.36,0-.49.23-.91.64-1.4,1.22-1.47.17-.31.33-.8.49-1.47-.46-.14-.47-.35,0-.49.13-.39.3-.88.49-1.47-.39-.62.81-2.36,1.46-2.45l.97-1.47c.28-.52.61-1.01.97-1.47Z" fill="#ef4e2b"/>
          <path d="M53.34,46.6c-.11.94.26,1.63-.49,2.45-.1.64-.37.83-.97.98-.38.5-.78.71-.97,0-.56-.36-.27-.96.87-1.79.1-.56.3-.95.59-1.15.06-.19.14-.19.24,0,.62,0,.54-.42.73-.49Z" fill="#b3ac64"/>
          <path d="M50.42,43.41c.85.98,1.44,2.05,1.94,3.19.07.17.17.33.24.49-.08,0-.19.02-.24,0-.82.78-2.2-1.19-1.46-1.96-.42-.28-.75-1.3-.49-1.72Z" fill="#de6820"/>
          <path d="M11.03,10.82c-.28.02-1.41.05-1.46,0-.04-.04-.1-.84.14-1,.74-.51,5.4-.74,6.56-.72,2.14.04,4.26.68,6.39.78.82,1.58-.78,1.03-1.91.94-.6.23-1.35.27-2.24.12-2.47.26-5.1.16-7.49-.12Z" fill="#f6c437"/>
          <path d="M20.76,10.82c.12.19.37.32.49.49-.78-.18-.43.57-.49,1.23-.12.55-.33.56-.49,0l-.41-.37c.56-.89-2.42-.39-2.44-.24.62.89-.14,1.87-.55.86q-.43-.1,0,0c.4.03.57.36.48.99.51.02.65.22.49.73-.05.77-.66.85-1.82.22-1.11.67-1.8.68-2.07.03-.25-.46.06-.81.93-1.04-.5-.43-.61-1.04-.33-1.82-.99-.12-1.99-.16-2.99-.12l-.28-.45h-.49c.02-.13.2-.33.24-.49,3.78-.23,5.92-.27,9.72,0Z" fill="#e0651e"/>
          <path d="M35.59,44.88c.47-.15.84.14,1.12.85l2.3,1.75-.02.34c.34.22.33.47.28.82-.3,1.99-.66,3.84-1.08,5.76-.02.09.02.18.07.28-.49.98-.88,1.92-.85,3.12.56.2.6.47.12.8.18.06.23.15.21.3-.13.78-.27,1.58-.42,2.39-.02.13.19-1.76.7-2.44-.08-.62.2-.81.73-.49-.14-.44,1.3-3.34,1.76-2.17.21.53.25,8.01.05,8.52-.07.19-.2.35-.35.51.29,1.06.29,2.21,0,3.45l.48-.26v19.85c-.49-.17-.45.44-.65.49-.69.15-1.82-.05-2.63,0-4.07.3-9.06.3-13.07-.56-1.62-.35-2.61-.3-2.62-2.14,0-1.08.39-1.46.49-2.32.36-3.08-.03-6.48-.02-9.55.03-7.88,1.26-16.13,2.87-23.59.1-.48-.04-1.01.05-1.38.07-.27.45-.13.49-.16.73-.8,3.48,1.27,2.43,1.96-.02,1.19.14,1.84.49,1.96l.29.18c-.1,2.81.01,5.46.59,8.1.31.51.85.61,1.62.33l.18.22c.21.43.29.89.21,1.37-.69,5.3-1.31,10.69-1.43,16.09,0,.02.11-.12.24-.3.42-1.01.95-1.66,1.6-1.96-.57.1-1.02.02-1.36-.24l-.26-1.12c.62-8.75,1.84-17.44,3.64-26.05l.51-1.02c-.43-.59-.04-2.01.49-2.45-.32-.55.04-1.52.73-1.23Z" fill="#f14e2b"/>
          <path d="M23.67,88.75c1.14.02,2.12.39,3.16.49.33.57.45,1.8-.1,2.23-.96.14-1.82.47-2.71.7-1.72.45-.99.35-2.29.99-.71.35-1.77.82-2.56.5-.13.02-.12.13-.12.24-.09-.06-.2-.14-.24-.25-.19-.52-.46-.58-.48-.66-.36-1.3.61-.59,1.39-.89.17-.06,2.23-2.26,2.49-2.56.59-.69-.3-.82,1.46-.8Z" fill="#f2ca2e"/>
          <path d="M15.89,31.41c.06-.36-.16-.97.12-1.23,1.5.07,1.44.94,1.89,1.15.29.14.53.03.66.07.07-.21.15-.21.24,0,.95.54,1.27,1.03.97,1.47.14,1.36-.11,1.21.49,2.57.09.2-.42.03-.49.28-.2.75.15,2.17,0,3.03l-.42.31c-.44,1.06-1.11,2.35-2.01,3.37-.18.13-.56.39-.73.49-.16.09-.33.16-.49.25-.38.3-1.22.32-1.22-.25l-.32-.46c.05-3.38.3-6.8.75-10.25l.55-.82Z" fill="#f4cd2f"/>
          <path d="M14.92,32.14c.55-.27.53.1.5.62-.49,2.99-.85,6-.82,9.01-2.46.05-2.72-1.82-2.98-3.95.07-1.96-.05-3.44-.35-4.46.29.17.48,4.21.32,4.37-.08.08-.2.13-.32.16l.33.03c.2,1.94.6,3.82,2.92,3.87.17.18.15,2.14-.58,1.85-.76-.15-1.95-.91-2.35-1.55s-.41-1.57-.56-2.22c-.06-.26-.49-.13-.49-.16v-7.6c1.51.5,2.83-.15,4.38,0Z" fill="#f1c934"/>
          <path d="M14.19,28.71c.19.14.26.52.73.74v2.21c-1.21.13-2.99.09-4.13-.25,0-.03-.22-.32-.18-.57.08-.39.53-.71.32-1.14l-1.84-1.23c1.53-.19,4.74,2.12,3.16-.98.18-.14,1.58.96,1.94,1.22Z" fill="#e7b690"/>
          <path d="M15.89,31.41c-.64,4.17-.97,7.25-.97,11.52.67.16.66.56,0,.74-.48.07-.44.1-.97,0,.6-2.19.29-1.37-.91-1.9-.64-.28-1.31-1.28-1.47-1.95-.05-.2-.3-1.79-.3-1.91v-4.53c.57-.03.43-.08.49.36.19,1.5-.09,6.43,1.23,7.34.23.16,1.33.51,1.45.38-.47-2.85.27-5.68.71-8.49.05-.34-.23-.78-.22-.82s.61-.32.49-.74c.08-.03.13-.34.49,0Z" fill="#e1b423"/>
          <path d="M16.14,43.17s-.1.32-.41.44c-.27.11-.56.01-.8.05v-.74l1.22.25Z" fill="#f1c934"/>
          <path d="M35.83,89.73c.46.08,2.82-.1,2.92,0,.1.1-.09,1.39,0,1.8.05.19.45.14.47.32.06.5.07,2.18.03,2.69-.12,1.66-2.22,1.03-2.86.02-.15-.23,0-.66-.14-.84-.1-.13-.42-.04-.42-.06v-3.92Z" fill="#f0c72e"/>
          <path d="M17.84,14.5c.6-.43,1.04.68.97,1.23-.02.01.09.22-.24.49-.1.08-.17.27-.33.41-.13.12-.38.05-.48.09-.31.14.17.4.08.48-.13.1-.91-.43-.97-.49-.03-.03.07-.33-.04-.43-.14-.12-1.45-.12-1.74-.05-.18.04-.15.43-.33.48-1.03.25-1.52.1-1.29-.97l-.36.49c-.09.02-.28-.35-.36-.49-.04-.06.04-.19,0-.25-.08-.5.32-.75,1.22-.74.81.28,1.45-.51,2.07-.52s1.13.75,1.82.27Z" fill="#e5a230"/>
          <path d="M13.71,20.13c.07-.08.07-.54.25-.8.91-1.33,4.25-.97,4.37,1.04-1.81-.58-1.1-.11-1.93.63-1.18,1.05-1.13-1.51-2.69-.87Z" fill="#f4bd2e"/>
          <path d="M16.87,16.7c.09,2.16-2.37,1.97-1.44-.23l1.44.23Z" fill="#d3cfba"/>
          <path d="M33.4,11.56c-.52-1.39,2.25-1.33,1.46-.25.87.29,1.35.21,1.46-.25.06-.73,2.54-.85,1.94.25-.07.66.08,1.24-.11,1.97-.08.3-1.3,2.93-1.47,2.93-.95-.87-.86-2.3-2.55-1.96.61-.89-.25-.68-.25-.86,0-.34.78-1.02.49-1.35-.37-.43-1.52,1.5-1.22,1.96-.78.15-.38-.34-.48-.74-.22-1.12.21-1.15.73-1.72Z" fill="#f7ca9f"/>
          <path d="M38.26,10.33c.05-.22.13-.21.24,0-.02.16.03.34,0,.49-.04.23-.24.44-.24.49.16-1.05-1.38-.32-1.94-.25.01.7-1.03.56-1.46.25-.25-.24-.23-.68-.83-.5-.05.01-.46.56-.63.75-.08-.46-.4-.76-.49-1.23,1.26.02,2.52-.02,3.78-.01.6,0,1.04.02,1.57.01Z" fill="#ebb978"/>
          <path d="M34.37,6.9c2.17.24,2.02,1.49,4.68.47.23-.09.11-.55.54-.49.47.07,1.44,1.18,2.07,1.36-.66.41-.32,1.45-.82,1.86s-1.67.19-2.34.22c-.08,0-.16,0-.24,0-1.19-.61-4.06-.73-5.35-.49-.05-.18.04-.49-.06-.79-.19-.6-.91-.99-.91-1.66.46-.1,2.23.14,2.43-.01.07-.06-.03-.36,0-.48Z" fill="#f3c833"/>
          <path d="M21.24,23.07c.48.11.55.52.49.98h-10.82c-.65-.19-.7-.26-.37-.73,3.36-.8,7.39-.52,10.7-.25Z" fill="#eb633b"/>
          <path d="M12,22.58c2.3-.14,4.96-.04,7.29,0,.32,0,.65-.01.97,0-.16.83.44.36.97.49l-10.7.25c.12-.17.35-.31.49-.49.28-.05.53-.22.97-.25Z" fill="#cc5319"/>
          <path d="M29.02,21.11l-.73,5.39c-.29.07-.63-.1-.69-.39-.14-.67.69-3.56.69-4.51.2-.12.19-.27.73-.49Z" fill="#3486bc"/>
          <path d="M45.07,21.6c.71.03.83.89,1.15.97,1.08.28.69-.29.8-.48,1.63,0,2.55,2.43,3.89,3.31-.09.93-1.17-.59-1.94-.86l-2.57-.14c-.13-.07-1.71-2.12-1.7-2.27.02-.23.21-.4.38-.54Z" fill="#6caed5"/>
          <path d="M48.96,24.54c.05.02.47.83.49.98-.17-.06-.55.09-.8,0-.26-.11.02-.46-.77-.51-1.23-.07-.76.41-.86.51-.09.66-.29.63-.49,0-.41.02-.29-.28,0-.49-.14.03-.3-.6-.28-.67.06-.12,2.33.12,2.71.18Z" fill="#9e5d5f"/>
          <path d="M18.81,30.42c.62.36,1.31.87,1.94,1.23.43.2.43.77,0,1.72-.02.21,0,.42-.24.49-.05-.32-.15-.67-.24-.98-.36-.51-.83-1.04-1.46-1.47-.07-.02-.17.02-.24,0-.05-.38-.25-.69-.49-.98l.13-.25c.23.01.41.13.6.25Z" fill="#457c82"/>
          <path d="M16.87,12.78s.5.09.49-.12c-1.86-1.69,2.46-1.58,2.88-1.32s.06.97.03,1.19c.18.26.18.67,0,1.23-.19.53-.34.82-.48,1.17-.09.23.06.7-.01.79-.08.1-.82-.09-.97,0-.6-.12-.72-.96-.97-1.23-.38-.39-.87-.17-.96-.26-.05-.05-.05-1.4-.01-1.46Z" fill="#eb4e26"/>
          <path d="M20.76,12.54c-.1,1.1-.37.91-.49,1.23-.47-.49-.04-.88,0-1.23h.49Z" fill="#f17a4e"/>
          <path d="M11.28,11.31c.72,0,3.49-.18,3.78.24.1.14-.25,1.05-.14,1.56.04.18.48.19.49.28.15.93-.84.77-1.47,1.35-.02.02.06.31-.06.41-.23.19-.85.07-1.15.32-.48-.72-.92-1.07-1.22-1.96.19-.65.11-.9-.24-1.47,0-.25,0-.49,0-.74Z" fill="#ec4d29"/>
          <path d="M11.52,13.52c-.2-.61-.24-.81-.24-1.47.76.36.97.91.24,1.47Z" fill="#f38c56"/>
          <path d="M33.89,47.58c.47.1.4.82,0,.98.34.34-.07,2-.73,1.72.04.78-.65,2.28-1.46,1.72-.66.62-2.47.57-2.67-.49-.06.21-.14.2-.24,0-.59.5-.73.2-.73-.49-.03-.03,0-.29-.1-.39-.7-.6-1.33-1.77-2.33-1.57.04-.04-.03-.35,0-.49.3.05.66-.03.97,0,.45.35,1.34.64,1.76.97,1.05.83,1.43,2.66,3.45,1.22l2.08-3.17Z" fill="#945d67"/>
          <path d="M20.76,31.65c.63.34,1.06.08,1.66,1.14.25.43.77,2.25.77,2.66v6.37c0,.1,1.88,1.8.32,1.15-1.65-.69-.74-3.77-.8-5.33s-.25-4.17-1.35-5.26c-.56-.15-.39.68-.36.98h-.24c.04-.57-.03-1.15,0-1.72Z" fill="#327fba"/>
          <path d="M19.78,38.76c-.04.24-.84,2.24-1.01,2.53-.5.83-.88.76-1.42,1.14-.34-.75.75-1.52,1.11-2.19s.26-2.23,1.32-1.49Z" fill="#e4b720"/>
          <path d="M20.27,32.88h-.49c-.08-.82-.96-.71-.97-1.47.44.14.92.19,1.24.6.28.36.14.6.22.87Z" fill="#c1c667"/>
          <path d="M18.08,65.71c.15.16-.05.86-.37.98-.84.32-.09-1.47.37-.98Z" fill="#585858"/>
          <path d="M43.12,20.87l.71.1c-1.51,2.65-2.64,6.48-4.84,8.6-1.41,1.36-6.32,3.95-8.2,4.48-.36.1-.66.19-.56-.32,1.53-.8,3.09-1.52,4.62-2.33,1.82-.96,2.84-1.25,4.26-2.94.5-.6,2.95-4.38,2.55-4.9-1.15,1.15-3.13,1.53-4.36,2.34-1.73,1.14-3.37,4.73-5.86,3.92-.37-.12-.81-.4-.72-.87,3.23,1.12,4.17-2.15,6.56-3.68.9-.58,1.93-.88,2.84-1.43,1.45-.87,2.47-1.41,3-2.98Z" fill="#3283bc"/>
          <path d="M45.07,21.6c.15.96.87,2.43,1.87,2.64.76.17,1.15-.01,2.02.3-.11-.04-2.09-.06-2.28,0-.28.07-.12.47-.16.5-.07.22-.15.21-.24,0-.09-.85-.88-1.61-1.4-2.38-.15-.22.04-.45-.54-.32-1.32,5.17-4.41,9.19-8.77,12.11-2,1.34-4.29,2.54-6.79,2.34-.31-.25,0-.43.3-.55.72-.3,1.94-.26,2.86-.54,2.93-.91,7.72-5.12,9.34-7.74,1.1-1.78,1.62-3.84,2.51-5.55.12-.22.6-.73.79-.8.09-.03.35,0,.49,0Z" fill="#3281ba"/>
          <path d="M30.24,49.54c-1.62-.23.09-2.18.23-3.08.06-.42.28-4.14.22-4.35-.47-1.56-5.74-.85-6.26-4.73-.29-2.21.36-3.46-.99-5.62-.3-.48-.38-.44.12-.85,2.7,2.35-.18,6.76,3.06,8.68,1.09.65,4.38.87,4.8,2.28.29,1-.38,1.61-.4,2.39-.02.66.32,1.3.19,2.2-.15,1.02-1.25,1.88-.96,3.08Z" fill="#3282bb"/>
          <path d="M41.42,31.65c-.17.92-1.34,1.12-1.95,1.83-1.29,1.51-2.26,4.02-3.65,5.63-1.53,1.79-2.27,1.38-3.13,3.97-.13.38.21.7-.51.57-.44-3.56,3.63-3.78,4.37-6.86-2.01.82-3.06,2.92-5.51,2.24-.42-.12-.68.17-.56-.52.67-.05,1.4.09,2.05-.02.83-.13,4.25-2.61,5.01-3.28,1.22-1.09,1.89-3.5,3.88-3.56Z" fill="#2e7eb8"/>
          <path d="M45.07,27.97c.48,0,.42.29,0,.49-.06.14-1.36,2.34-1.46,2.45-.22.25-.3.68-.24,1.29l-.24.18c0,.16,0,.33,0,.49-.21.27-.29.72-.24,1.35l-.25.12c-.42.39-.48,1.25-1.22,1.47-.72.14-.67.06-.24-.49,1.08-1.37,1.02-2.82,1.61-4.38.46-1.21,1.24-2.01,1.79-2.97.35-.42.51-.42.49,0Z" fill="#696887"/>
          <path d="M41.42,35.82c.04.13-.02.34,0,.49.32.33.17.47-.24.25,0,.48-.24.98-.73,1.5-.1.78-.35,1.34-.73,1.68.04.34-.16.46-.49.49-.14.33-.31.82-.49,1.47-.08.55-.55.96-.97.49.87-1.62,1.1-3.94,2.01-5.45.43-.72,1.03-.95,1.4-1.41-.01.2.21.38.24.49Z" fill="#5e848c"/>
          <path d="M39.23,40.23c.63-.02.63.31,0,.98.84.35.11,1.17-.49.49,1.18.3.11,1.44-.49,1.96-.12.41-.32.39-.49,0l-.05.25c-.63-.02-1.18.22-1.65.73.08.51-.09.6-.49.25-.41.34-.62.67-.73,1.23-.17.64-.27.64-.49,0,.32-1.02-.03-1.54,1.28-2.26,1.72-.95.85-.51,2.12-1.66.09-.08.78-.42.97-.49.04-.41-.1-.96,0-1.3.08-.28.46-.14.49-.17Z" fill="#a15d62"/>
          <path d="M28.54,47.58c-1.24-.21-1.49-1.78-2.08-2.68-.44-.67-1.45-1.02-1.32-1.97l1.56,1.25,1.84,3.41Z" fill="#3684bc"/>
          <path d="M25.62,31.65c.17.17,1.01,4.16,1.07,4.7.04.35.27.71-.22.93s-.37-.49-.43-.78c-.26-1.24-.72-2.85-.87-4.02-.03-.26-.07-1.36.46-.83Z" fill="#3285bb"/>
          <path d="M44.34,26.02c.08.96-.5,1.8-.96,2.58-.2.33-1.21,2.06-1.71,1.58-.36-.34,1.28-1.87,1.51-2.27.38-.68.3-1.88,1.16-1.89Z" fill="#3183bf"/>
          <path d="M31.21,31.9l.61.49c-1.19.59-2.4,1.15-3.77.97-.11-.66.12-.42.53-.56.48-.16.89-.23,1.42-.42.4-.15.89-.4,1.22-.49Z" fill="#3484c0"/>
          <path d="M26.84,28.95c0-.19-.03-.71,0-.74.74-.62.76.85,1,1.32.29.57.87.8,1.27,1.17.44.42.59.32-.08.69-.03-.06-.82-.41-1.11-.72-.49-.54-.57-1.24-1.08-1.73Z" fill="#3584bc"/>
          <path d="M46.53,25.03c-.02.16.03.34,0,.49.23.41.07.9-.49,1.47-.21.6-.53.92-.97.98h-.49c.56-.97,1-2.05,1.7-2.94.03-.04.2.04.24,0Z" fill="#616b89"/>
          <path d="M34.86,46.11c-.19.93-.32,1.59-.49,2.45-.17.64-.27.64-.49,0,.05-.3-.06-.7,0-.98.17-.79.32-.95.49-1.47h.49Z" fill="#a44c4d"/>
          <path d="M31.94,21.85c.36.98-.39,1.18-.48,1.4-.1.24.05.7,0,.8-.05.08-.42-.17-.49.14-.04.17-.03,1.27,0,1.33.04.06.37-.05.49,0,0,.24-.27.59.03.96,1.12,0,2.61.46,2.89-.96-.3-.7.39-.96.73-.25.49-.47.66-.44.73.25-1.89,1.85-5.9,2.68-5.33-1.09.09-.58.57-1.3.83-1.87.16-.36-.05-.87.61-.72Z" fill="#667495"/>
          <path d="M29.51,25.04c.06.88-.02,1.74-.24,2.59-.1.41.24.72-.49.59.06-.91-.18-2.03.18-2.88.15-.35.06-.37.55-.3Z" fill="#2f84ba"/>
          <path d="M36.8,23.81c.58.06-.08,1.08-.49,1.23-.2.28-.3.31-.49.49-.24.04-.59-.24-.73-.25-.51-.66.49-1.57,1.22-1.47.15.03.33-.02.49,0Z" fill="#9d606c"/>
          <path d="M38.02,23.56c-.43.46-.95.8-1.22,1.47-.13-.04-.33.02-.49,0,.21-.3.45-1.16.49-1.23.06-.1.42-.46.49-.49.06-.02.16.01.24,0,.21-.03.42.02.49.25Z" fill="#607776"/>
          <path d="M33.4,22.09c1.09.87,1.2,1.43,2.92,1.72l-1.22,1.47c-.45-.02-.59.22-.73.25-1.01.19-1,.44-1.14.48-1.02.26-1.12-.22-1.78-.48,0-.32-.07-1.35,0-1.47.02-.05.79-.22.9-.56.31-.94-.48-1.64,1.05-1.41Z" fill="#f35326"/>
          <path d="M46.53,50.03c-.14.41-.31.84-.49,1.23-.52,1.12-.63,1.61-.97,2.7-.04.13-.38.34-.49.49-.08-.07-.14-.16-.24-.25l-.44-.46c.49-1.49,1.02-2.96,1.6-4.42l.54-.28c.61.15.39.85.49.98Z" fill="#b3402b"/>
          <path d="M53.58,51.01c-.11,1.43-.61,3.24-1.17,4.58-.1.23-1.09,2.51-1.5,2.03l2.07-6.13.6-.49Z" fill="#3381bb"/>
          <path d="M49.93,56.89c-.49.54-1.97-2.87-1.7-3.18.3-.36.64.43.74.6.19.34,1.13,2.39.96,2.58Z" fill="#3580b5"/>
          <path d="M50.9,50.03c.67-.03.48.73,0,.98-.2.12-.44-.09-.73.49h-.24c-1.33-.18.05-2.27.97-1.47Z" fill="#b6ae57"/>
          <path d="M52.85,49.05v.98c-.32.02-.65-.02-.97,0,.53-.81.61-.59.97-.98Z" fill="#7caab8"/>
          <path d="M51.88,50.03c-.11.17-.22.71-.56.9-.19.11-.37.05-.41.08.04-.22-.06-.92,0-.98.04-.04.75.01.97,0Z" fill="#89aaa6"/>
          <path d="M41.18,36.55c1.61.29,3.26.51,4.94.66-.07.91.44,1.67,1.54,2.26,1.47,1.9,2.36,3.54,3.24,5.66.27.73.56,1.64,1.46,1.96.35,1.48-.56,1.68-1.35,2.56-.11.12-.07.35-.1.39-.29.33-1.35.36-.97,1.47-.79.28-.68.84-1.76.68s-.49-.85-.67-1.17l-.73-2.94h-4.62c.45.72-.01,1.35,0,1.82,0,.15.44.11.49.3.18.68-.4,2.95-1.46,2.29l-.25-.11.07-2.82c-.09-1.22-.27-1.35-1.28-1.96-1.22-.15-3.43-1.66-3.4-2.94.03-.53,1.11-1.08,1.46-.49.08-.12.16-.22.25-.23.38-.05,2.1,1.23,2.18,1.46l1.66.49c.96.04,1.65.22,2.47.49.27-.24.35-.48.24-.74-.38-.53-1.02-2.46-.49-2.94-.69-.23-1.01-.88-.97-1.96-.49-.2-1.05-.35-1.67-.44-.04-.54-.5-.57-1.37-.08l-.36-.46c-.16-1.23.37-2.57,1.46-3.19Z" fill="#f1c92c"/>
          <path d="M40.94,55.42c.22.05.21.13,0,.25.14,3.46.05,7.18,0,10.66,0,.41.16,1.09-.25,1.34l-.32-.14c.16-.86.1-1.63-.17-2.31.16-2.92-.11-5.9,0-8.82-1.2-.08-.87,1.77-.99,1.95-.07.09-.39-.03-.46.01-.49.09-.49-.32,0-1.23-.63-.91,1.57-2.88,2.19-1.72Z" fill="#d05e23"/>
          <path d="M40.21,65.22c.76-.29.53,1.72.49,2.45-.02.24.03.5,0,.74-.08.67-.54,1.7-.67,2.38-.18.94.13,3.31-1.03,3.5.18-3.05,1.05-6.02,1.21-9.07Z" fill="#cc2b14"/>
          <path d="M42.4,54.93c-.04.13.03.34,0,.49-.68.04-.47.93-1.46.25,0-.08,0-.16,0-.25-.73.07-.93-1.21-.24-1.47,0-.51.42-.73.73-.25.56.1,1.11.61.97,1.23Z" fill="#f1c92c"/>
          <path d="M46.04,49.05c-.23,1.84-1.57,3.29-1.7,5.15-.34-.26-1.32-.45-1.42-.88.52-1.03-.19-3.61.45-4.27q.43.63,0,0c.25-.26,2.21-.11,2.67,0Z" fill="#ea4c2c"/>
          <path d="M41.18,52.48c.05.43.04.52.49.74.41.39.33.55-.24.49-.25.18-.51.16-.73.25-.12.53-.64.92-1.57,1.15-.66.15-1.33,2.73-.96,2.12.03-.06.12-.08.22-.1.12-.02.24,0,.37,0v1.23c-.26.14-.47.35-.73.49-.34.6-.62.41-.49-.25,0-.08-.25-.51-.24-.85.05-1.46-.14-1.94.97-3.07-.21-.38.08-.77.49-.49.24-.59.75-.98,1.53-1.16.13-1.88-.05-3.62-.56-5.21-.21-.07-.21-.15,0-.25.4.24,1.19.17,1.41.91.29.96-.07,2.86.05,4Z" fill="#ed952b"/>
          <path d="M41.67,53.21c.7.35,1.12-.14.98,1.11-.04.34-.21.45-.26.61-.47-.27-.94-.64-.97-1.23.04-.03.07-.41.24-.49Z" fill="#f1ca2d"/>
          <path d="M45.56,36.8c-.09-.47.71-1.68.7-1.84-.02-.2-1.61-.94-1.18-1.34.3-.28.95.43,1.13.46.89.14.27-1.24.31-1.8.05-.75.28-3.21,1.24-3.31-.68,2.45-.22,4.68-.48,7.1,1.82-.36,3.41-1.09,5.31-.56.43.12.63-.08.53.56-1.84.1-6.29-.45-6.32,2.21-.1,1-.82-.22-.62-.97-.24-.17-.44-.33-.59-.5Z" fill="#c72d1c"/>
          <path d="M41.42,36.31c1.21-.3,1.15.46,1.56.51.78.1,1.79-.14,2.57-.02.99.16.61.67.76,1.32.13.54.43.13.45.15.28.2.98.93,1.22,1.23.62-.11.7.05.24.49,1.09,1.27,1.7,1.75,2.19,3.43.16.55.29,1.19.49,1.72-.62.14-.48-.32-.62-.71-.59-1.57-1.62-3.34-2.68-4.66-.39-.48-1.34-1.06-1.44-1.24-.24-.4-.06-1.16-.12-1.23-.17-.18-4.34.12-4.86-.73.08-.04.15-.22.24-.25Z" fill="#e37022"/>
          <path d="M47.99,39.49c1.07-.49,2.24-.55,3.4-.49.12.74-.18.39-.59.5-.84.21-1.72.33-2.57.48-.15-.18-.18-.41-.24-.49Z" fill="#cb2b14"/>
          <path d="M43.13,35.81c-.17-1.15,2.42-.83,2.43-.37,0,.54-2.01.35-2.43.37Z" fill="#d42f1c"/>
          <path d="M54.31,36.8c.24.27-.95,3-1.46,2.45-.17-.18,1.05-2.91,1.46-2.45Z" fill="#d02e17"/>
          <path d="M45.29,31.43c.32.2.44,1.67-.46,1.45-.14-.61-.54-2.1.46-1.45Z" fill="#d23121"/>
          <path d="M47.01,25.52c.23,1.07-.37,1.08-.97,1.47-.14.67.05,1.27-.97,1.47.05-.12-.05-.38,0-.49.43-.89.35-.57.97-.98.04-.21-.06-.52,0-.8.05-.18.38-.12.48-.68.14-.03.44.05.49,0Z" fill="#b75a55"/>
          <path d="M43.61,30.91c-.09.68.34,1.67-.49,1.47.01-.4-.09-.98,0-1.3.08-.29.46-.14.49-.17Z" fill="#b1595e"/>
          <path d="M43.12,32.88c-.01.4.09,1.01.01,1.32s-.45.1-.5.15c.09-.68-.34-1.67.49-1.47Z" fill="#b1595e"/>
          <path d="M16.87,12.78c-.39,1.09-2.44-.16-.85-1.22.26.28,1,.8.85,1.22Z" fill="#faab41"/>
          <path d="M34.37,48.56c-1.84,9.32-3.39,18.67-3.89,28.18.78.3.32,1.86-.24,2.21-.03,1.42-.06,2.88,0,4.3.03.81.41,1.59.26,2.44-.11.6-.43.8-.7.21-.11-5.39-.05-10.78.45-16.14.25-2.61.57-5.38.97-7.97-.23-.09-.07-.41.49-.98.12-3.63.61-7.14,1.46-10.54.29-.49.64-1.15.73-1.72h.49Z" fill="#cd2d16"/>
          <path d="M28.05,51.01s.69.47.73.49c.12.44.21,1.3-.24,1.47-.44.56-.63,1.32-.81,2-1.43,5.42-2.57,12.14-3.08,17.73-.09.96.11,5.2-.49,5.64-.66.48-.25-1.06-.24-1.23.08-4.49.54-8.98,1.29-13.4.72-4.29,2-8.44,2.85-12.69Z" fill="#cd2c17"/>
          <path d="M38.02,58.85c-.92,6.71-1.87,13.46-2.43,20.22-.09,1.03.51,3.4-.73,3.55.32-7.51,1.38-14.93,2.22-22.39.06-.55.43-1.34.45-1.63l.49.25Z" fill="#cf2b18"/>
          <path d="M29.02,51.5l.47.35c.11,3.09.32,6.18.62,9.26.59-.28,1.12-.37,1.59-.29-.12.48-.48.93-.49.98-2.77.25-1.84-.66-2.19-2.28-.04-.19-.44-.06-.5-.52-.2-1.5-.05-4.4.02-6.02.02-.51.07-.99.24-1.47.06.03.17-.03.24,0Z" fill="#de601f"/>
          <path d="M39.72,47.82c.5.67-.05,5.08-.38,5.74l-.59.63s-.39.39-.49.49c-.86.07-.31-.18-.22-.59.43-2.06.89-4.16.95-6.27-.02-.47.47-.3.73,0Z" fill="#cd2f14"/>
          <path d="M34.13,78.7c.78,1.46-1.66,3.7-2.57,2.46-.82-1.12.93-.55,1.37-.85.46-.32-.13-1.93,1.2-1.61Z" fill="#fa7e5c"/>
          <path d="M30.48,76.74c.4-.37,2.37-.46,2.19.36-.09.39-.95.31-1.21.49-.53.36-.08,1.67-1.22,1.35.02-.83.21-1.56.24-2.21Z" fill="#f97b5f"/>
          <path d="M36.07,44.64c.06-.22.15-.22.24,0,.17.09,1.07,1.28,1.46,1.6.64.51,1.25.93,1.95,1.34v.25c-.19-.06-.57.07-.73,0-.15-.06-2.49-1.68-2.6-1.78-.27-.24-.24-1.01-.8-1.16.18-.15.18-.24.49-.25Z" fill="#e06d1f"/>
          <path d="M18.32,32.39c-.08,1.44.54,3.09.47,4.49-.02.32-.8,4.08-1.44,3.35-.17-.2.67-2.23.73-2.81.15-1.55-.45-3.08-.24-4.66.06-.44-.08-.4.49-.36Z" fill="#e0b623"/>
          <path d="M36.32,11.07l.97.98c-.66-.41-1.31.05-1.79.01-.05,0-.44-.56-.64-.75.27-.45,1.01-.18,1.46-.25Z" fill="#d2a176"/>
          <path d="M40.21,9.59c-1.64-.15-3.32-.3-4.96-.52-.39-.05-1.33-.08-1.12-.71l5.47.49.61.73Z" fill="#e0b320"/>
          <path d="M31.7,51.99l.49.83c0,2.7-.16,5.34-.49,7.99-.12.36-1.44,1-1.91.7-.56-.35-.58-8.7-.76-10.01,1.16.46,1.14.4,2.32.29.19-.02.34.2.36.2Z" fill="#f5c831"/>
          <path d="M31.7,60.81c.14-.41-.02-2.16,0-2.81.03-1.05,0-1.66-.01-2.69-.02-1.1.04-2.22.01-3.32.17-.02,1.31-1.46,1.46-1.72.39.37.04,1.31-.04,1.79-.48,2.68-.79,6.34-1.41,8.74Z" fill="#e06326"/>
          <path d="M39.72,39.74c.66-.07,2.42.05,3,.29.5.21.31.56.41.69,1.09,1.68-1.32,2.24-2.19,1.47l-.26-.22c.34-.94.34-1.35.01-1.25-.34.42-.95.9-1.46.49v-.98c.12-.13-.3-.4.49-.49Z" fill="#ed4d2d"/>
          <path d="M40.69,40.72c.12,1.18-.09,3.1-.97,3.92-.42.12-1.43-.51-1.46-.98-.34-.8.43-1,.48-1.16.08-.26-.02-.54,0-.8.84-.31.34-.36.49-.49.29-.25,1.15-.86,1.46-.49Z" fill="#ef4b31"/>
          <path d="M38.26,43.66c.44.05.91.65,1.46.98.36-.3.68-.47.97-.49.46.11.62.52.49,1.23-.12.22-.44.22-.97,0-.67-.32-1.83-1.12-2.43-1.23-.65-.08-.62-.3,0-.49.15-.01.34-.02.49,0Z" fill="#e6691e"/>
          <path d="M37.78,43.66v.49c-.6-.1-.89-.07-1.14.48h-.32s-.16,0-.24,0c-.02-.84,1.03-.92,1.7-.98Z" fill="#d0b865"/>
          <path d="M44.1,42.68c.32.93.82,1.9.49,2.94-.02.53-.6.47-.73,0-.45.58-1.71.49-2.19,0-.32-.31-.9-2.05-.82-2.36.22-.89,2.72-1.52,3.25-.58Z" fill="#ecba8f"/>
          <path d="M44.1,42.68c-1.07.06-2.35-.3-3.16.62-.12.51.66.46.73.78.1.44-.07,1.07,0,1.54-.21.26-.55.08-.49-.25-.64-.29-.47-.65-.49-1.23-.66-.14-.29-1.84.24-1.96,1.21.17,2.37-.04,2.19-1.47.61.82.66,1.05.97,1.96Z" fill="#cf673f"/>
          <path d="M41.18,45.37c.08.01.26.22.49.25.71.06,1.47-.04,2.19,0,.33.2.49.45.49.74-2.05.12-2.43-.18-4.13-.98.31.04.68-.05.97,0Z" fill="#d69b3d"/>
          <path d="M44.58,45.62c.47.08.8.17.73.73-.32.02-.65-.02-.97,0l-.73-.25.24-.49c.24.01.52-.04.73,0Z" fill="#c07c20"/>
          <path d="M40.69,53.95c.02.42.22,1.14.24,1.47-1.19-.01-1.6.92-2.19,1.72-.15.2-.25.66-.29.68-.16.1-.88.1-.93.06-.09-.08.37-2.01.52-2.3.55-1.1,1.7-1.24,2.64-1.62Z" fill="#f7c034"/>
          <path d="M43.37,49.05c.2.03.68-.05.73,0,.23.22-.81,3.04-.49,3.67-.42.06-.23-.56-.24-.85-.04-.94.03-1.89,0-2.82Z" fill="#bd3e0a"/>
          <path d="M38.75,54.19l.97-6.37c1.92.64.46,3.69,1.14,5.28-.08.48-1.69.81-2.11,1.09Z" fill="#e75427"/>
          <path d="M40.69,40.72c.04-.16-.03-.4,0-.58.05-.28.7-.18.73-.15.08.08-.41,1.75-.49,2.2-.12.72-.26,1.16-.24,1.96l-.61.98c-.19-.07-.28-.43-.36-.49.38-1.29.62-2.62.97-3.92Z" fill="#cd2d19"/>
        </g>
      </g>
    </g>
  </g>
</svg>