<?xml version="1.0" encoding="UTF-8"?>
<svg id="Layer_2" data-name="Layer 2" xmlns="http://www.w3.org/2000/svg" viewBox="0 0 64.05 96.06">
  <g id="Cards">
    <g id="Cups">
      <g id="TwoOfCups">
        <path d="M58.76,89.56v-1.4h5.29c-.06.53-.23,1.03-.52,1.51s-.85,1.1-1.7,1.89c-.68.63-1.1,1.06-1.25,1.29-.21.31-.31.62-.31.92,0,.34.09.6.27.78.18.18.43.27.75.27s.57-.09.75-.28.29-.5.32-.95l1.5.15c-.09.83-.37,1.43-.84,1.79-.47.36-1.06.54-1.77.54-.78,0-1.39-.21-1.83-.63-.44-.42-.67-.94-.67-1.56,0-.35.06-.69.19-1.01.13-.32.33-.66.6-1.01.18-.23.51-.57.99-1,.48-.44.78-.73.91-.87.13-.14.23-.28.31-.42h-3Z" fill="#e03e3e"/>
        <path d="M5.29,6.5v1.4H0c.06-.53.23-1.03.52-1.51s.85-1.1,1.7-1.89c.68-.63,1.1-1.06,1.25-1.29.21-.31.31-.62.31-.92,0-.34-.09-.6-.27-.78-.18-.18-.43-.27-.75-.27s-.57.09-.75.28-.29.5-.32.95l-1.5-.15c.09-.83.37-1.43.84-1.79.47-.36,1.06-.54,1.77-.54.78,0,1.39.21,1.83.63.44.42.67.94.67,1.56,0,.35-.06.69-.19,1.01-.13.32-.33.66-.6,1.01-.18.23-.51.57-.99,1-.48.44-.78.73-.91.87-.13.14-.23.28-.31.42h3Z" fill="#e03e3e"/>
        <g>
          <path d="M29.99,3.38c.09-.06.21-.4.45-.55.85-.54,2.64-.58,3.36.21.28.31.4.97.66,1.12.29.17,1.64.25,2.24.44,2.56.82,4.64,2.59,6.21,4.73.53.72,1.54,2.82,1.95,3.19.85.77,1.96.18,2.12,2.13.28,3.44-2.22,1.86-4.25,2.34-.53,0-.55-.02-.22-.45-.62-.18-.61-.48,0-.67l.31-.4c2.6.8,3.48.36,2.64-1.31-2.3-.52-4.64-.91-7.02-1.19-.4-.04-.61-.23-.61-.67l.07-.27,3.42.17c.34-.08.16-1.49-.58-2.13-.41.45-.5.38-.45-.22-.65-.11-.6-.5,0-.67.61-.55,1.33.42,1.68.96.56,2.17,2.43,2.87.45.32-1.74-2.25-4.18-4.28-6.96-5.02-1.48-.39-1.34.84.47.22.79.12,3.02,1.26,2.57,2.17.02.66.15,1.17.42,1.51-.46.7-.74.42-.86-.84-.41.08-.76-.19-1.07-.8-.73-.08-.97-.33-.72-.77-1.33-.31-4.07-.83-6.03-.61l-.22-.28c-2.36-1.73-6.32,1.84-7.83,3.75-.72.92-1.81,3.02-.35,1l.58-.06.3.1c-.29,1.26.21,1.36,1.35,1.17l.14.3.03.31c-1.85.44-3.77.84-5.76,1.19-.61,1.59.45,2,3.17,1.21l.33.41c.6.33.23.62-1.12.89.49.1.49.79,0,.89-.49-1.43-1.16-.51-2.35-.66-1.76-.21-1.97-3.13-.53-3.9.39-.21.91-.13,1.27-.41.32-.25,1.67-2.86,2.3-3.61,1.43-1.72,3.34-2.98,5.35-3.91,1.36-.11,2.4-.56,3.13-1.34Z" fill="#cf942d"/>
          <path d="M26.64,33.96c.51-.61,2.65-1.12,3.3-.56.82,2.76,1.78,3.08,3.22.31.79-.81,2.88-.22,3.76.26.62-.06.65.29.22.67,0,.46-.22.36-.45,0l-.26.45c-1.5-.39-2.58.05-3.24,1.32,1.53.09,3.05.11,4.59.06l.49.4c0-.58.29-.64.67-.22.22,0,1.52.31,1.69.43.75.51.19,1.63.99,2.03-.13.35-.31.35-.45,0-.86.3-1.74.31-2.63.32-4.42.01-8.85,0-13.27,0-.89,0-1.77-.02-2.63-.31-.5.18-1.19.39-1.56,0,1.58-.22.54-1.02.94-1.74.15-.26,1.84-.7,2.18-.72.35-.49.51-.34.45.22,1.54-.47,3.2-.63,4.96-.48-.37-1.31-1.34-1.74-2.9-1.28l-.28-.47c-.19-.06-.19-.14,0-.22-.72-.25-.42-.83.22-.45Z" fill="#dd8725"/>
          <path d="M21.06,39.1c.52-.03,1.04.01,1.56,0,.12.26.08.43-.17.45l-2.51.22c.44.37.25,1.46.11,2.01l.15-.45h23.02l.27.45c-.29-.9-.25-1.57.11-2.01-.88-.1-1.83-.15-2.84-.15-.24-.21.08-.46.39-.52.15,0,.3,0,.45,0,.74.02,2.45-.25,2.79.45.28.58.37,2.86-.68,2.9l-24.22-.11c-1.02-.45-.99-2.84.16-3.18.44-.13.95-.02,1.4-.05Z" fill="#cf9433"/>
          <path d="M32.9,26.15c.38-.18.57-.24.45.22.55-.33.73.05.22.45.48.11.4.23,0,.45.62.19.25.73.12.39-.07-.17.14-.18.33.06.72.26,1.82-.39,2.44-.89h.46c.32-.33.51-.23.45.22.31-.32.44-.18.22.22-.18.58-1.29,1.37-1.96,1.63-1.99.13-1.79.87-.09,1.52l.26.64c.64,2.07,2.39,1.82,2.67,2.24.31.47-.71,1.21-1.11,1.33-.07.2-.14.2-.22,0-.15-.2-.16-.44-.22-.67-1.22-.54-1.97-1.22-2.36-2.53-.17-.24-.86-.37-.82-.34,1.93,1.91-1.05,2.14-1.85.43l-.53.16c-.97.83-2.84,1.8-2.38-.25,1.16-.87.58-.79-.22-.18-.54,1.15-1.18,1.98-2.1,2.71-.3.02-.17.32-.22.45-.24.46-.48.54-.67,0-.26-.07-.94-.69-.88-.98.55-.72,1.37-.63,2.01-1.35.51-.57.69-1.21,1.33-1.91.23-.32,1.16-.8,1.34-.45.19-.32.48-.17.89.45.1-.17.26-.33.45-.3,1.85.29,2.19-.14,1.88-2.07-.39-.45-.5-.85-.32-1.2-.49-.15-.56-.29-.22-.45.18-.62.51-.64.67,0Z" fill="#cf9433"/>
          <path d="M21.51,16.33c.71.1.57,1.58.11,1.93l.11.75c.52.26.93,1.34.45,1.79l.58.27c.59,1.23,1.27,2.42,2.04,3.56l-.16.63c.42.07.25.77-.22.45-2.21-2.73-3.76-4.65-3.57-8.48.01-.27-.06-.69,0-.89.24-.22.53-.31.67,0Z" fill="#a42f28"/>
          <path d="M41.83,21.91c-.56,1.77-2.07,3.79-3.35,5.13-.39.32-.69.4-.89.22-.08-.06-.15-.17-.22-.22-.34-.24-.18-.59.22-.45l.25-.78c1.25-1.24,2.26-2.68,3.04-4.31l.5-.05c.33-.43.48-.29.45.45Z" fill="#ae2c28"/>
          <path d="M25.08,25.26c.06.9.43,1.5,1.12,1.79l.18-.25c.95.51,1.93.82,2.95.92-.66-.57.28-1.55.67-.67.25.11.25.33,0,.67.59.25.74,1.95.45,2.46-.15-.06-.86-.41-.89-.45-.29.07-.38-.12-.28-.57-.87-.53-1.82-.94-2.85-1.21-1.38-.88-1.14-1.16-2.01-2.23.27-.02.19-.42.22-.45.07-.19.15-.19.22,0,.05-.2.13-.19.22,0Z" fill="#ca943e"/>
          <path d="M42.5,16.55c.01.06.23.2.22.45-.03,1.05-.56,3.86-.89,4.91l-.45-.45c-.37,0-.37-.14,0-.45-.66-.34-.41-1.87.22-2.23-.65-.42-.33-2.11.45-2.23,0-.48.3-.47.45,0Z" fill="#a1351f"/>
          <path d="M38.48,27.04c-.4.43-2.53,2.15-2.84,2.23-.36.09-.8-.03-1.18,0-.54.41,1.21.8,1.3.93.15.22-.03.65.04.85-.27-.56-2.33-1.23-2.23-1.67.12-.53,1.78-.7,2.38-.97s1.15-.91,1.64-1.16c.23-.12.63-.12.89-.22Z" fill="#f9f3db"/>
          <path d="M26.42,34.41c-.03.06.03.16,0,.22.53.87-.93,2.03-1.79,2.23-.19,0-.42-.22-.45-.22l1.56-2.23c.17.05.47-.03.67,0Z" fill="#a63c29"/>
          <path d="M37.14,34.63c.08-.01.16.02.22,0l1.56,2.01s-.3.23-.67.22c-.77-.33-2.25-1.46-1.56-2.23.15,0,.31.02.45,0Z" fill="#a73c24"/>
          <path d="M29.55,29.72l-1.34.45s-.07-.27.06-.38c.18-.16.95-.09.84-.62-.03-.14-2.1-.86-2.68-1.23.67.12,2.74.65,3.01,1.13.13.22.07.6.11.66Z" fill="#efdbad"/>
          <path d="M29.99,3.38c-.03,1.46-2.06,1.06-3.13,1.34,1.13-.52,2.04-.61,3.13-1.34Z" fill="#f3e6c3"/>
          <path d="M32.9,11.86l4.12.22.12.23c.42-.38.64-.38.67,0,1.44.69,7,.76,7.95,1.55.44.37.49,2.1.11,2.38-.28.2-2.77-.25-3.37-.35-.26.25-.53.25-.85.2-5.69-.89-11.03-1.45-16.81-.65l-.44-.23c-.76-.02-1.51.05-2.23.22-.07.19-.15.19-.22,0-.7.07-3.2.53-3.57.34-.6-.29-.63-1.8-.25-2.26.48-.6,5.07-.79,6.05-1.21,2.68-.86,5.95-.87,8.71-.45Z" fill="#f2c92e"/>
          <path d="M29.99,6.06c1.85-.15,2.76.16,4.37.44.56.1,1.3-.11,1.76,0,.27.06.08.4.13.46l-.36.46-3.11-.68c-1.2-.14-2.21-.19-3.11.73-1.92-.05-3.96.24-3.05,2.57l-.19.26c-.64,1.36,2.44.93,3.6.61,2.12-.05,4.18.14,6.23.51.13-.32.31-.33.45,0,.99.16,1.99.23,3,.21l.13.24c.24-.45.52-.4.94-.24-.39-.69-.4-1.2-.04-1.55,1.2.53.9.88.89,2.23h-3.8s-.67,0-.67,0c.15-.34.04-.42-.33-.24l-3.91-.21c-2.92.05-5.8.29-8.71.45h-1.79s0-1.56,0-1.56c-.49-.97,1.4-2.79,2.53-2.4.46-1.17,1.55-2.01,2.74-2.38.62-.19,2.06-.55,2.33.09Z" fill="#cc9437"/>
          <path d="M42.5,15.88c.03.21-.04.48,0,.67-.14-.02-.33.04-.45,0l-.7.26c-6.39-1.48-13.12-1.19-19.46-.07-.18.03-.33-.21-.39-.41-.22,0-.45,0-.67,0,.22-.76,1.32-.08,1.12-.89.07,0,.15,0,.22,0,.73-.17,1.47-.24,2.23-.22,7.43-.79,10.79-.52,18.09.67Z" fill="#e37e26"/>
          <path d="M29.99,6.06c-.31.02-1.37.2-1.84.26-1.25.17-3.21,1.6-2.85,3.08-.38.05-.22-.55-.58-.66-.93-.3-1.93,1.46-2.32,2-.6.83-.73,1.58-2.01,1.34.7-2.15,3.04-4.69,5.02-5.81.96-.55,4.72-2.3,4.59-.21Z" fill="#f5c536"/>
          <path d="M38.48,7.85c-.42-.65-1.89-1.61-2.63-1.73-.48-.08-1.23.37-1.59.14-.32-.2-.51-1.32.52-1.32,3.07.01,8.21,4.42,9.05,7.27.17.58-.94.36-1.24.13-.69-.53-.5-2.15-2.32-3.15-.26.38-.51.27-.8,0-.62.56-.95.12-.98-1.34Z" fill="#f7c537"/>
          <path d="M31.27,3.2c3.02-.92,3.06,3.52,0,2.59-1.04-.32-1.05-2.27,0-2.59Z" fill="#f3c732"/>
          <path d="M26.64,33.96c-1.15-.72-.14-.55.2-.8,1.13-.81,1.05-1.74,1.69-2.34.49-.45,1.53-.79,1.68.11-.06.26-1.39.73-.89,1.23s1.73-1.37,2.76-1.06c.45.13.72,1.54,1.92,1.06.16-.65-1-.69-.89-1.22.14-.66,1.44-.24,1.79.21.27.33.29.84.56,1.23.43.61,1.07.81,1.47,1.24.22.24-.03.31-.03.33-.87.29-2.57-.39-3.2-.24-.17.04-1.38,2.48-2.27,2.48-.28,0-1.31-.98-1.46-1.23-.22-.37-.39-1.41-.45-1.45-.23-.17-2.32.71-2.89.44Z" fill="#f3c731"/>
          <path d="M22.85,37.76c.55-.57,1.14,0,1.7-.02,4.66-.1,9.8-.56,14.48-.2.9.07,1.48.11,1.25,1.12l-17.25.1c-.48-.04-.31-.63-.17-.99Z" fill="#c5cfd4"/>
          <path d="M41.16,39.1c.02.13-.04.42,0,.45.18.13,2.22-.1,2.68,0,.05.16-.23.2-.22.22l-.15.45h-23.25l-.27-.45c.72-.53,1.96.1,2.68-.67,6.1-.13,12.44-.1,18.54,0Z" fill="#dd8725"/>
          <path d="M36.69,34.63c.17.92,1.3,1.27,1.56,2.23-1.57-.03-3.54.17-5.04.01-.34-.04-.55-.02-.77-.35.26-.2,1.55-1.85,1.72-1.89.7-.14,1.74.04,2.52,0Z" fill="#ec652b"/>
          <path d="M26.42,34.63c.61.12,2.22-.19,2.64.05.11.06,1.34,2.01,1.16,2.18-1.86.03-3.73-.03-5.58,0,.57-.78,1.34-1.34,1.79-2.23Z" fill="#eb652b"/>
          <path d="M22.85,37.76c.09.34-.31.85.33.89,5.55.38,11.5-.28,17.09,0l-17.64.22c0-.46-.11-.77.22-1.12Z" fill="#cfd0c8"/>
          <path d="M43.62,39.77c.01.22.6,2.01-.11,2.01h-23.45c-.46,0-.44-1.69-.11-2.01h23.67Z" fill="#f4c332"/>
          <path d="M30.66,23.02c1.33-.48,1.63-.36,1.59,1.03.07-.5.28-.85.64-1.03.41-.36.82-.02.89.45,1.73,1.19.57,2.12-.89,2.68-.18-.04-.46,0-.67,0-.77.2-1.51.5-2.23.89-.03.02-.23-.06-.38.07-.1.09-.11.43-.29.6-1.03-.09-2.03-.41-2.99-.96l-.14.29c-.09-.04-.33.06-.5-.01-.64-.27-.72-1.15-.62-1.77.16-.56.78-.83,1.87-.81.26-.44.53-.62.81-.53q.67.17,0,0c-.57.07-.45-.48.01-.71,1.02.11,1.98.02,2.89-.18Z" fill="#d79328"/>
          <path d="M32.9,22.13c.43-.12,2.18-.06,2.64.19.74.4,1.09,1.01,1.22,1.81.97.69,1.81,1.32.83,2.47-.01.12-.19.3-.22.45-.14-.09-.3-.14-.45-.22l-.28-.11c-.13-.68-.21-1.07-.83-1.46-.36,0-.44-.3-.23-.88l-.21-.68c-.45.37-1.4.44-1.56-.22-.91-.13-.51-.21-.89-.45-.29.33-.67.22-1.17-.31-.08.07-.86.55-1.07.31-.11.07-.16.39-.39.44-.69.15-1.75-.15-2.37,0-.28.07-.09.38-.14.46-.87,1.51-.79.6-2.08.9-.04,0-.25.26-.6.44-.05.03-.15-.02-.22,0-.81-1.13.65-1.33,1.55-1.38.42-1.27,1.38-1.69,2.87-1.25.5-.43.96-.67,1.39-.72.68-1.09,1.65-.79,2.23.22Z" fill="#e38627"/>
          <path d="M32.45,26.6c.79.8,1.19,1.7.72,2.85-.61,1.49-1.59,1.2-2.73.73-.5-.87-.46-1.49-.45-2.46.23-.99,1.59-1.84,2.46-1.12Z" fill="#c5cfd4"/>
          <path d="M35.8,25.26c.99-.4,1.28.77,1.12,1.56-.15.71-1.59.95-2.06,1.14-.17.07-.88,1.28-.84-.24.34-.4,1.64-1.11,2.23-1.34.14-.05-2.51,1.55-2.68.89-.02-.14.03-.32,0-.45.36-.52,1.64-1.77,2.23-1.56Z" fill="#f5bd38"/>
          <path d="M35.35,23.69c.81,1.18-.9,2.74-2.01,2.68-.05-.05-.37-.21-.45-.22.83-.62,2.78-2.5.45-1.34l.45-1.34c.53.08.99-.12,1.56.22Z" fill="#f5bb38"/>
          <path d="M35.8,25.26c-.31.12-1.43,1.63-2.23,1.56-.02-.08-.18-.4-.22-.45.85-.86,2.2-1.12,2.01-2.68.66.39.44.87.45,1.56Z" fill="#d79328"/>
          <path d="M33.57,27.27l2.68-.89c-.4.74-1.47,1.03-2.23,1.34-.14.05-.39.29-.44.22-.03-.22.03-.46,0-.67Z" fill="#d79328"/>
          <path d="M32.23,26.15c.09.12.13.35.22.45-1.4-.25-1.62.23-2.46,1.12,0-.22,0-.45,0-.67.98-.82.81-.9,2.23-.89Z" fill="#d4b285"/>
          <path d="M42.05,16.55c-.23.79-.33,1.42-.45,2.23l-.3.6c-1.01.34-.63,1.14.08,1.63-.03.13.03.32,0,.45-.13.45-1.75,3.07-2.14,3.56-.44.57-1.08,1.14-1.66,1.58.21-1.95-.68-1.43-1.21-2.25-.16-.24-.11-.63-.26-.86-.84-1.31-1.46-.71-2.61-.97-.24-.05-.43-.33-.61-.39-.91-.52-.77-.89-.42-1.74,2.98-2.95-2.79-5.12-1.96-.89,1.23,1.06,1.28,1.87.15,2.41-1.26,2.17-2.25.55-3.31,1.16-.16.09-.4,1-.72,1.18-.56.32-1.72-.21-1.79,1.01-.08.02-.18-.03-.22,0-.85-1.59-1.85-2.72-2.46-4.46.65-1.28.5-1.87-.45-1.79-.49-.68-.11-1.83-.22-2.68.82-.02,1.12-.36,1.69-.43,5.28-.66,13.88-.9,18.86.66Z" fill="#ee4c28"/>
          <path d="M21.73,19.01c0-.25-.1-.76.11-.89.88,1.07,1.59.56.98,2.1-.13.34-.16.68-.64.58-.26-.76-.44-.82-.45-1.79Z" fill="#f9ab47"/>
          <path d="M26.2,27.04c-1.16-1.16-1.22-2.21.73-1.96l2.39,1.74c-.83.03-1.29-.6-2.12-.67-.46-.04-.65-.1-.56.45l2.68,1.12c-.58.55-2.42-.38-3.13-.67Z" fill="#f5bf38"/>
          <path d="M41.61,18.78c-.09.66-.09,1.61-.22,2.23-.42.23-.42.4-.74-.05-.88-1.24-.25-1.74.96-2.18Z" fill="#fab34a"/>
          <path d="M32.9,11.86c1.52-.03,3.05.02,4.58,0l-.33.45-4.24-.45Z" fill="#cf942d"/>
          <path d="M24.41,15.21c-.69.07-1.49.15-2.23.22.53-.48,1.53-.13,2.23-.22Z" fill="#cf942d"/>
          <path d="M36.25,6.95c.45.56,1.23.63,1.79,1.56.18.57.31,1.11.4,1.62.8-.93,1.41-1.02,1.83-.28.02,0,.31.16.45.22l.67,2.01c-.55.13-1.09-.19-1.56-.22-.45-.15-.61-.28-.18-.24-.99.03-1.97-.04-2.94-.2-.15,0-.3,0-.45,0-.59-.07-.57-.28,0-.45,1.58-.56,1.08-2.86-.63-2.7l-2.78-.88c-1.42-.19-2.04-.18-2.97.88-2.41-.41-3.21.37-2.4,2.33l-.38.36c-.69.61-1.73-.08-.67-.67-.31-.95-.87-1.42.08-2.38.86-.87,2.04-.62,3.07-.84.5-.11.82-.5,1.42-.59,1.96-.26,3.37.63,5.26.46Z" fill="#cfd0c8"/>
          <path d="M26.42,10.3c.05.16-.07.6,0,.67.04.04.49-.01.67,0,0-.2.09-.34.26-.43l1.94.02c1.01-.83,3.55-.82,4.57,0l2-.03.39.43v.45c-3.59-.09-7.01-.23-10.61,0-.47.03-2.7.55-2.79.44-.14-.64.48-1.74,1.11-1.92.71-.2,1.49,1.16,2.46.36Z" fill="#d2c9b8"/>
          <path d="M36.69,11.42c.51,0,3-.09,3.13,0,.04.03-.02.32,0,.45-1-.08-2.19.05-3.13-.45Z" fill="#d2c9b8"/>
          <path d="M38.48,7.85c.31.49.26.75.23,1.34.87-.75.86-.38,1.56,0v.67c-1.31-.29-1.15.58-1.49.66-1.26.32-.59-1.07-.74-2,.19.32.29.49.23.89h.22s0-1.56,0-1.56Z" fill="#e0a032"/>
          <path d="M31.45,32.18c.79-.17.73,2.12.22,2.23-.79.17-.73-2.12-.22-2.23Z" fill="#d89e19"/>
          <path d="M32.9,23.02c.05.83-.37,1.81-1.11,2.23v-2.23c-.96-.01-.64,1.13-.67,1.78l-.44-1.79c.28-.18.76-.6,1.04-.63.4-.04.85.42,1.19.63Z" fill="#f6c037"/>
          <path d="M27.76,23.92c.35-.75,2.81.02,2.46,1.34l-1.34-.55.9,1.22c-.54.42-2.12-1.78-2.01-2.01Z" fill="#f4ba38"/>
          <path d="M30.66,21.91c1.02-1.75-.35-1.26-.61-2.4-.1-.45-.14-1.24-.05-1.68.09-.41,1.49-1.29,2.07-1.23.35.04,1.82,1.5,1.84,1.85.1,1.39-1.94,2.14-1.02,3.68-.82-.29-1.22-.72-2.23-.22Z" fill="#e15e20"/>
          <path d="M27.09,10.97c-.14-.63-.37-1.41-.32-2.05.13-1.61,2.09-.88,3.06-1.08.19-.04.58-.83.77-.87.41-.08,1.76-.08,2.2-.03.37.05,2.25.73,2.9.9.35.09,1-.1,1.19.04.1.07.11.5.25.71.1.15.41.13.45.31.13.59-.08,1.44,0,2.08-.45.01-.9-.02-1.34,0-.69.02-2.19.13-2.75,0-.18-.04-.06-.4-.47-.46-.58-.08-2.35-.08-2.93,0-.41.05-.29.42-.47.46-.48.11-1.94.05-2.53,0Z" fill="#c1d3df"/>
          <path d="M31.7,17.01c.41-.07,1.63,1.38,1.63,1.88s-1.26,1.99-1.65,1.9c-.21-.51-1.47-1.48-1.47-1.9,0-.25,1.25-1.84,1.49-1.88Z" fill="#f5c433"/>
        </g>
        <g>
          <path d="M29.99,54.58c.09-.06.21-.4.45-.55.85-.54,2.64-.58,3.36.21.28.31.4.97.66,1.12.29.17,1.64.25,2.24.44,2.56.82,4.64,2.59,6.21,4.73.53.72,1.54,2.82,1.95,3.19.85.77,1.96.18,2.12,2.13.28,3.44-2.22,1.86-4.25,2.34-.53,0-.55-.02-.22-.45-.62-.18-.61-.48,0-.67l.31-.4c2.6.8,3.48.36,2.64-1.31-2.3-.52-4.64-.91-7.02-1.19-.4-.04-.61-.23-.61-.67l.07-.27,3.42.17c.34-.08.16-1.49-.58-2.13-.41.45-.5.38-.45-.22-.65-.11-.6-.5,0-.67.61-.55,1.33.42,1.68.96.56,2.17,2.43,2.87.45.32-1.74-2.25-4.18-4.28-6.96-5.02-1.48-.39-1.34.84.47.22.79.12,3.02,1.26,2.57,2.17.02.66.15,1.17.42,1.51-.46.7-.74.42-.86-.84-.41.08-.76-.19-1.07-.8-.73-.08-.97-.33-.72-.77-1.33-.31-4.07-.83-6.03-.61l-.22-.28c-2.36-1.73-6.32,1.84-7.83,3.75-.72.92-1.81,3.02-.35,1l.58-.06.3.1c-.29,1.26.21,1.36,1.35,1.17l.14.3.03.31c-1.85.44-3.77.84-5.76,1.19-.61,1.59.45,2,3.17,1.21l.33.41c.6.33.23.62-1.12.89.49.1.49.79,0,.89-.49-1.43-1.16-.51-2.35-.66-1.76-.21-1.97-3.13-.53-3.9.39-.21.91-.13,1.27-.41.32-.25,1.67-2.86,2.3-3.61,1.43-1.72,3.34-2.98,5.35-3.91,1.36-.11,2.4-.56,3.13-1.34Z" fill="#cf942d"/>
          <path d="M26.64,85.16c.51-.61,2.65-1.12,3.3-.56.82,2.76,1.78,3.08,3.22.31.79-.81,2.88-.22,3.76.26.62-.06.65.29.22.67,0,.46-.22.36-.45,0l-.26.45c-1.5-.39-2.58.05-3.24,1.32,1.53.09,3.05.11,4.59.06l.49.4c0-.58.29-.64.67-.22.22,0,1.52.31,1.69.43.75.51.19,1.63.99,2.03-.13.35-.31.35-.45,0-.86.3-1.74.31-2.63.32-4.42.01-8.85,0-13.27,0-.89,0-1.77-.02-2.63-.31-.5.18-1.19.39-1.56,0,1.58-.22.54-1.02.94-1.74.15-.26,1.84-.7,2.18-.72.35-.49.51-.34.45.22,1.54-.47,3.2-.63,4.96-.48-.37-1.31-1.34-1.74-2.9-1.28l-.28-.47c-.19-.06-.19-.14,0-.22-.72-.25-.42-.83.22-.45Z" fill="#dd8725"/>
          <path d="M21.06,90.3c.52-.03,1.04.01,1.56,0,.12.26.08.43-.17.45l-2.51.22c.44.37.25,1.46.11,2.01l.15-.45h23.02l.27.45c-.29-.9-.25-1.57.11-2.01-.88-.1-1.83-.15-2.84-.15-.24-.21.08-.46.39-.52.15,0,.3,0,.45,0,.74.02,2.45-.25,2.79.45.28.58.37,2.86-.68,2.9l-24.22-.11c-1.02-.45-.99-2.84.16-3.18.44-.13.95-.02,1.4-.05Z" fill="#cf9433"/>
          <path d="M32.9,77.35c.38-.18.57-.24.45.22.55-.33.73.05.22.45.48.11.4.23,0,.45.62.19.25.73.12.39-.07-.17.14-.18.33.06.72.26,1.82-.39,2.44-.89h.46c.32-.33.51-.23.45.22.31-.32.44-.18.22.22-.18.58-1.29,1.37-1.96,1.63-1.99.13-1.79.87-.09,1.52l.26.64c.64,2.07,2.39,1.82,2.67,2.24.31.47-.71,1.21-1.11,1.33-.07.2-.14.2-.22,0-.15-.2-.16-.44-.22-.67-1.22-.54-1.97-1.22-2.36-2.53-.17-.24-.86-.37-.82-.34,1.93,1.91-1.05,2.14-1.85.43l-.53.16c-.97.83-2.84,1.8-2.38-.25,1.16-.87.58-.79-.22-.18-.54,1.15-1.18,1.98-2.1,2.71-.3.02-.17.32-.22.45-.24.46-.48.54-.67,0-.26-.07-.94-.69-.88-.98.55-.72,1.37-.63,2.01-1.35.51-.57.69-1.21,1.33-1.91.23-.32,1.16-.8,1.34-.45.19-.32.48-.17.89.45.1-.17.26-.33.45-.3,1.85.29,2.19-.14,1.88-2.07-.39-.45-.5-.85-.32-1.2-.49-.15-.56-.29-.22-.45.18-.62.51-.64.67,0Z" fill="#cf9433"/>
          <path d="M21.51,67.53c.71.1.57,1.58.11,1.93l.11.75c.52.26.93,1.34.45,1.79l.58.27c.59,1.23,1.27,2.42,2.04,3.56l-.16.63c.42.07.25.77-.22.45-2.21-2.73-3.76-4.65-3.57-8.48.01-.27-.06-.69,0-.89.24-.22.53-.31.67,0Z" fill="#a42f28"/>
          <path d="M41.83,73.11c-.56,1.77-2.07,3.79-3.35,5.13-.39.32-.69.4-.89.22-.08-.06-.15-.17-.22-.22-.34-.24-.18-.59.22-.45l.25-.78c1.25-1.24,2.26-2.68,3.04-4.31l.5-.05c.33-.43.48-.29.45.45Z" fill="#ae2c28"/>
          <path d="M25.08,76.46c.06.9.43,1.5,1.12,1.79l.18-.25c.95.51,1.93.82,2.95.92-.66-.57.28-1.55.67-.67.25.11.25.33,0,.67.59.25.74,1.95.45,2.46-.15-.06-.86-.41-.89-.45-.29.07-.38-.12-.28-.57-.87-.53-1.82-.94-2.85-1.21-1.38-.88-1.14-1.16-2.01-2.23.27-.02.19-.42.22-.45.07-.19.15-.19.22,0,.05-.2.13-.19.22,0Z" fill="#ca943e"/>
          <path d="M42.5,67.75c.01.06.23.2.22.45-.03,1.05-.56,3.86-.89,4.91l-.45-.45c-.37,0-.37-.14,0-.45-.66-.34-.41-1.87.22-2.23-.65-.42-.33-2.11.45-2.23,0-.48.3-.47.45,0Z" fill="#a1351f"/>
          <path d="M38.48,78.24c-.4.43-2.53,2.15-2.84,2.23-.36.09-.8-.03-1.18,0-.54.41,1.21.8,1.3.93.15.22-.03.65.04.85-.27-.56-2.33-1.23-2.23-1.67.12-.53,1.78-.7,2.38-.97s1.15-.91,1.64-1.16c.23-.12.63-.12.89-.22Z" fill="#f9f3db"/>
          <path d="M26.42,85.61c-.03.06.03.16,0,.22.53.87-.93,2.03-1.79,2.23-.19,0-.42-.22-.45-.22l1.56-2.23c.17.05.47-.03.67,0Z" fill="#a63c29"/>
          <path d="M37.14,85.83c.08-.01.16.02.22,0l1.56,2.01s-.3.23-.67.22c-.77-.33-2.25-1.46-1.56-2.23.15,0,.31.02.45,0Z" fill="#a73c24"/>
          <path d="M29.55,80.92l-1.34.45s-.07-.27.06-.38c.18-.16.95-.09.84-.62-.03-.14-2.1-.86-2.68-1.23.67.12,2.74.65,3.01,1.13.13.22.07.6.11.66Z" fill="#efdbad"/>
          <path d="M29.99,54.58c-.03,1.46-2.06,1.06-3.13,1.34,1.13-.52,2.04-.61,3.13-1.34Z" fill="#f3e6c3"/>
          <path d="M32.9,63.06l4.12.22.12.23c.42-.38.64-.38.67,0,1.44.69,7,.76,7.95,1.55.44.37.49,2.1.11,2.38-.28.2-2.77-.25-3.37-.35-.26.25-.53.25-.85.2-5.69-.89-11.03-1.45-16.81-.65l-.44-.23c-.76-.02-1.51.05-2.23.22-.07.19-.15.19-.22,0-.7.07-3.2.53-3.57.34-.6-.29-.63-1.8-.25-2.26.48-.6,5.07-.79,6.05-1.21,2.68-.86,5.95-.87,8.71-.45Z" fill="#f2c92e"/>
          <path d="M29.99,57.26c1.85-.15,2.76.16,4.37.44.56.1,1.3-.11,1.76,0,.27.06.08.4.13.46l-.36.46-3.11-.68c-1.2-.14-2.21-.19-3.11.73-1.92-.05-3.96.24-3.05,2.57l-.19.26c-.64,1.36,2.44.93,3.6.61,2.12-.05,4.18.14,6.23.51.13-.32.31-.33.45,0,.99.16,1.99.23,3,.21l.13.24c.24-.45.52-.4.94-.24-.39-.69-.4-1.2-.04-1.55,1.2.53.9.88.89,2.23h-3.8s-.67,0-.67,0c.15-.34.04-.42-.33-.24l-3.91-.21c-2.92.05-5.8.29-8.71.45h-1.79s0-1.56,0-1.56c-.49-.97,1.4-2.79,2.53-2.4.46-1.17,1.55-2.01,2.74-2.38.62-.19,2.06-.55,2.33.09Z" fill="#cc9437"/>
          <path d="M42.5,67.08c.03.21-.04.48,0,.67-.14-.02-.33.04-.45,0l-.7.26c-6.39-1.48-13.12-1.19-19.46-.07-.18.03-.33-.21-.39-.41-.22,0-.45,0-.67,0,.22-.76,1.32-.08,1.12-.89.07,0,.15,0,.22,0,.73-.17,1.47-.24,2.23-.22,7.43-.79,10.79-.52,18.09.67Z" fill="#e37e26"/>
          <path d="M29.99,57.26c-.31.02-1.37.2-1.84.26-1.25.17-3.21,1.6-2.85,3.08-.38.05-.22-.55-.58-.66-.93-.3-1.93,1.46-2.32,2-.6.83-.73,1.58-2.01,1.34.7-2.15,3.04-4.69,5.02-5.81.96-.55,4.72-2.3,4.59-.21Z" fill="#f5c536"/>
          <path d="M38.48,59.05c-.42-.65-1.89-1.61-2.63-1.73-.48-.08-1.23.37-1.59.14-.32-.2-.51-1.32.52-1.32,3.07.01,8.21,4.42,9.05,7.27.17.58-.94.36-1.24.13-.69-.53-.5-2.15-2.32-3.15-.26.38-.51.27-.8,0-.62.56-.95.12-.98-1.34Z" fill="#f7c537"/>
          <path d="M31.27,54.4c3.02-.92,3.06,3.52,0,2.59-1.04-.32-1.05-2.27,0-2.59Z" fill="#f3c732"/>
          <path d="M26.64,85.16c-1.15-.72-.14-.55.2-.8,1.13-.81,1.05-1.74,1.69-2.34.49-.45,1.53-.79,1.68.11-.06.26-1.39.73-.89,1.23s1.73-1.37,2.76-1.06c.45.13.72,1.54,1.92,1.06.16-.65-1-.69-.89-1.22.14-.66,1.44-.24,1.79.21.27.33.29.84.56,1.23.43.61,1.07.81,1.47,1.24.22.24-.03.31-.03.33-.87.29-2.57-.39-3.2-.24-.17.04-1.38,2.48-2.27,2.48-.28,0-1.31-.98-1.46-1.23-.22-.37-.39-1.41-.45-1.45-.23-.17-2.32.71-2.89.44Z" fill="#f3c731"/>
          <path d="M22.85,88.96c.55-.57,1.14,0,1.7-.02,4.66-.1,9.8-.56,14.48-.2.9.07,1.48.11,1.25,1.12l-17.25.1c-.48-.04-.31-.63-.17-.99Z" fill="#c5cfd4"/>
          <path d="M41.16,90.3c.02.13-.04.42,0,.45.18.13,2.22-.1,2.68,0,.05.16-.23.2-.22.22l-.15.45h-23.25l-.27-.45c.72-.53,1.96.1,2.68-.67,6.1-.13,12.44-.1,18.54,0Z" fill="#dd8725"/>
          <path d="M36.69,85.83c.17.92,1.3,1.27,1.56,2.23-1.57-.03-3.54.17-5.04.01-.34-.04-.55-.02-.77-.35.26-.2,1.55-1.85,1.72-1.89.7-.14,1.74.04,2.52,0Z" fill="#ec652b"/>
          <path d="M26.42,85.83c.61.12,2.22-.19,2.64.05.11.06,1.34,2.01,1.16,2.18-1.86.03-3.73-.03-5.58,0,.57-.78,1.34-1.34,1.79-2.23Z" fill="#eb652b"/>
          <path d="M22.85,88.96c.09.34-.31.85.33.89,5.55.38,11.5-.28,17.09,0l-17.64.22c0-.46-.11-.77.22-1.12Z" fill="#cfd0c8"/>
          <path d="M43.62,90.97c.01.22.6,2.01-.11,2.01h-23.45c-.46,0-.44-1.69-.11-2.01h23.67Z" fill="#f4c332"/>
          <path d="M30.66,74.22c1.33-.48,1.63-.36,1.59,1.03.07-.5.28-.85.64-1.03.41-.36.82-.02.89.45,1.73,1.19.57,2.12-.89,2.68-.18-.04-.46,0-.67,0-.77.2-1.51.5-2.23.89-.03.02-.23-.06-.38.07-.1.09-.11.43-.29.6-1.03-.09-2.03-.41-2.99-.96l-.14.29c-.09-.04-.33.06-.5-.01-.64-.27-.72-1.15-.62-1.77.16-.56.78-.83,1.87-.81.26-.44.53-.62.81-.53q.67.17,0,0c-.57.07-.45-.48.01-.71,1.02.11,1.98.02,2.89-.18Z" fill="#d79328"/>
          <path d="M32.9,73.33c.43-.12,2.18-.06,2.64.19.74.4,1.09,1.01,1.22,1.81.97.69,1.81,1.32.83,2.47-.01.12-.19.3-.22.45-.14-.09-.3-.14-.45-.22l-.28-.11c-.13-.68-.21-1.07-.83-1.46-.36,0-.44-.3-.23-.88l-.21-.68c-.45.37-1.4.44-1.56-.22-.91-.13-.51-.21-.89-.45-.29.33-.67.22-1.17-.31-.08.07-.86.55-1.07.31-.11.07-.16.39-.39.44-.69.15-1.75-.15-2.37,0-.28.07-.09.38-.14.46-.87,1.51-.79.6-2.08.9-.04,0-.25.26-.6.44-.05.03-.15-.02-.22,0-.81-1.13.65-1.33,1.55-1.38.42-1.27,1.38-1.69,2.87-1.25.5-.43.96-.67,1.39-.72.68-1.09,1.65-.79,2.23.22Z" fill="#e38627"/>
          <path d="M32.45,77.8c.79.8,1.19,1.7.72,2.85-.61,1.49-1.59,1.2-2.73.73-.5-.87-.46-1.49-.45-2.46.23-.99,1.59-1.84,2.46-1.12Z" fill="#c5cfd4"/>
          <path d="M35.8,76.46c.99-.4,1.28.77,1.12,1.56-.15.71-1.59.95-2.06,1.14-.17.07-.88,1.28-.84-.24.34-.4,1.64-1.11,2.23-1.34.14-.05-2.51,1.55-2.68.89-.02-.14.03-.32,0-.45.36-.52,1.64-1.77,2.23-1.56Z" fill="#f5bd38"/>
          <path d="M35.35,74.89c.81,1.18-.9,2.74-2.01,2.68-.05-.05-.37-.21-.45-.22.83-.62,2.78-2.5.45-1.34l.45-1.34c.53.08.99-.12,1.56.22Z" fill="#f5bb38"/>
          <path d="M35.8,76.46c-.31.12-1.43,1.63-2.23,1.56-.02-.08-.18-.4-.22-.45.85-.86,2.2-1.12,2.01-2.68.66.39.44.87.45,1.56Z" fill="#d79328"/>
          <path d="M33.57,78.47l2.68-.89c-.4.74-1.47,1.03-2.23,1.34-.14.05-.39.29-.44.22-.03-.22.03-.46,0-.67Z" fill="#d79328"/>
          <path d="M32.23,77.35c.09.12.13.35.22.45-1.4-.25-1.62.23-2.46,1.12,0-.22,0-.45,0-.67.98-.82.81-.9,2.23-.89Z" fill="#d4b285"/>
          <path d="M42.05,67.75c-.23.79-.33,1.42-.45,2.23l-.3.6c-1.01.34-.63,1.14.08,1.63-.03.13.03.32,0,.45-.13.45-1.75,3.07-2.14,3.56-.44.57-1.08,1.14-1.66,1.58.21-1.95-.68-1.43-1.21-2.25-.16-.24-.11-.63-.26-.86-.84-1.31-1.46-.71-2.61-.97-.24-.05-.43-.33-.61-.39-.91-.52-.77-.89-.42-1.74,2.98-2.95-2.79-5.12-1.96-.89,1.23,1.06,1.28,1.87.15,2.41-1.26,2.17-2.25.55-3.31,1.16-.16.09-.4,1-.72,1.18-.56.32-1.72-.21-1.79,1.01-.08.02-.18-.03-.22,0-.85-1.59-1.85-2.72-2.46-4.46.65-1.28.5-1.87-.45-1.79-.49-.68-.11-1.83-.22-2.68.82-.02,1.12-.36,1.69-.43,5.28-.66,13.88-.9,18.86.66Z" fill="#ee4c28"/>
          <path d="M21.73,70.21c0-.25-.1-.76.11-.89.88,1.07,1.59.56.98,2.1-.13.34-.16.68-.64.58-.26-.76-.44-.82-.45-1.79Z" fill="#f9ab47"/>
          <path d="M26.2,78.24c-1.16-1.16-1.22-2.21.73-1.96l2.39,1.74c-.83.03-1.29-.6-2.12-.67-.46-.04-.65-.1-.56.45l2.68,1.12c-.58.55-2.42-.38-3.13-.67Z" fill="#f5bf38"/>
          <path d="M41.61,69.98c-.09.66-.09,1.61-.22,2.23-.42.23-.42.4-.74-.05-.88-1.24-.25-1.74.96-2.18Z" fill="#fab34a"/>
          <path d="M32.9,63.06c1.52-.03,3.05.02,4.58,0l-.33.45-4.24-.45Z" fill="#cf942d"/>
          <path d="M24.41,66.41c-.69.07-1.49.15-2.23.22.53-.48,1.53-.13,2.23-.22Z" fill="#cf942d"/>
          <path d="M36.25,58.15c.45.56,1.23.63,1.79,1.56.18.57.31,1.11.4,1.62.8-.93,1.41-1.02,1.83-.28.02,0,.31.16.45.22l.67,2.01c-.55.13-1.09-.19-1.56-.22-.45-.15-.61-.28-.18-.24-.99.03-1.97-.04-2.94-.2-.15,0-.3,0-.45,0-.59-.07-.57-.28,0-.45,1.58-.56,1.08-2.86-.63-2.7l-2.78-.88c-1.42-.19-2.04-.18-2.97.88-2.41-.41-3.21.37-2.4,2.33l-.38.36c-.69.61-1.73-.08-.67-.67-.31-.95-.87-1.42.08-2.38.86-.87,2.04-.62,3.07-.84.5-.11.82-.5,1.42-.59,1.96-.26,3.37.63,5.26.46Z" fill="#cfd0c8"/>
          <path d="M26.42,61.5c.05.16-.07.6,0,.67.04.04.49-.01.67,0,0-.2.09-.34.26-.43l1.94.02c1.01-.83,3.55-.82,4.57,0l2-.03.39.43v.45c-3.59-.09-7.01-.23-10.61,0-.47.03-2.7.55-2.79.44-.14-.64.48-1.74,1.11-1.92.71-.2,1.49,1.16,2.46.36Z" fill="#d2c9b8"/>
          <path d="M36.69,62.62c.51,0,3-.09,3.13,0,.04.03-.02.32,0,.45-1-.08-2.19.05-3.13-.45Z" fill="#d2c9b8"/>
          <path d="M38.48,59.05c.31.49.26.75.23,1.34.87-.75.86-.38,1.56,0v.67c-1.31-.29-1.15.58-1.49.66-1.26.32-.59-1.07-.74-2,.19.32.29.49.23.89h.22s0-1.56,0-1.56Z" fill="#e0a032"/>
          <path d="M31.45,83.38c.79-.17.73,2.12.22,2.23-.79.17-.73-2.12-.22-2.23Z" fill="#d89e19"/>
          <path d="M32.9,74.22c.05.83-.37,1.81-1.11,2.23v-2.23c-.96-.01-.64,1.13-.67,1.78l-.44-1.79c.28-.18.76-.6,1.04-.63.4-.04.85.42,1.19.63Z" fill="#f6c037"/>
          <path d="M27.76,75.12c.35-.75,2.81.02,2.46,1.34l-1.34-.55.9,1.22c-.54.42-2.12-1.78-2.01-2.01Z" fill="#f4ba38"/>
          <path d="M30.66,73.11c1.02-1.75-.35-1.26-.61-2.4-.1-.45-.14-1.24-.05-1.68.09-.41,1.49-1.29,2.07-1.23.35.04,1.82,1.5,1.84,1.85.1,1.39-1.94,2.14-1.02,3.68-.82-.29-1.22-.72-2.23-.22Z" fill="#e15e20"/>
          <path d="M27.09,62.17c-.14-.63-.37-1.41-.32-2.05.13-1.61,2.09-.88,3.06-1.08.19-.04.58-.83.77-.87.41-.08,1.76-.08,2.2-.03.37.05,2.25.73,2.9.9.35.09,1-.1,1.19.04.1.07.11.5.25.71.1.15.41.13.45.31.13.59-.08,1.44,0,2.08-.45.01-.9-.02-1.34,0-.69.02-2.19.13-2.75,0-.18-.04-.06-.4-.47-.46-.58-.08-2.35-.08-2.93,0-.41.05-.29.42-.47.46-.48.11-1.94.05-2.53,0Z" fill="#c1d3df"/>
          <path d="M31.7,68.21c.41-.07,1.63,1.38,1.63,1.88s-1.26,1.99-1.65,1.9c-.21-.51-1.47-1.48-1.47-1.9,0-.25,1.25-1.84,1.49-1.88Z" fill="#f5c433"/>
        </g>
      </g>
    </g>
  </g>
</svg>