<?xml version="1.0" encoding="UTF-8"?>
<svg id="Layer_2" data-name="Layer 2" xmlns="http://www.w3.org/2000/svg" viewBox="0 0 494.13 749.36">
  <g id="Layer_1-2" data-name="Layer 1">
    <g>
      <path d="M314.93,7.64l4.51.05c36.93,10.6,72.75,25.17,108.29,39.77,1.32.54,2.52,1.41,3.74,2.29s2.35,1.87,3.46,2.9c1.37-1.48,2.2-1.02,2,1l2.06-1.3c11.37,4.24,22.38,9.22,33.02,14.94l-.09,2.36c10.92,7.89,19.29,21.52,20,35,3.67,2.49,1.87,10.2.76,14.26s-3.53,11.43-7.76,11.74c-1.84,2.98-4.05,6.01-6,9-2.65,7.77-6.68,14.97-12.11,21.59-8.84,14.27-18.81,27.41-29.89,39.41-.96,2.31-1.96,4.61-3.09,6.83s-2.27,4.42-3.66,6.44c-15.27,22.3-30.78,44.52-46.36,66.61-2.87,4.06-6.39,7.61-9.89,11.12,1.49,1.08.87,2.25-1,2-1.69,4.11-4.21,7.78-7.57,11.02.21.92.29,1.75-.07,2.27-3.79,5.39-7.86,9.84-12.36,14.71,1.51,2.95.11,4.2-3,4,.09,2.59-.57,3.59-2,3-2.03,7.07-6.01,13.1-11.39,17.79-1.06,4.03-2.46,6.92-6.61,8.21l.25,2.99c-4.59,6.08-9.73,11.66-15.25,16.91l-3,.11c-.92,1.65-2.59,2.65-5,3-.29,3.56-5.87,4.85-9,4-.74,2.52-1.15,2.48-2,0-9.01,6.46-21.62,4.16-31.74.57-21.49-7.62-50.05-22.15-69.64-34.01l-.62-2.55c-29.16-11.02-57.86-25.01-84-42-6.28.69-15.79-6.03-20.97-10.31-21.78-17.97-15.32-39.67-2.9-61.04,5.63-9.69,16.5-27.36,23.93-35.14l4.93-3.51,3.31-7.09c39.78-56.59,81.05-112.54,120.77-166.29,4.63-6.9,10.27-11.11,16.92-12.62,23.81-12.58,35.5-7.48,59,0Z" fill="#320f00"/>
      <path d="M82.93,115.64c19.74-15,53.05-33.71,77.59-37.92,1-.17,3.68-.8,3.4.91-43.42,27.84-85.98,63.12-116.22,105.29-4.29,5.98-7.88,12.5-11.77,18.73-13.47,21.57-26.32,44.19-33.01,69-1.94-.41-1.76-2.01-1.99-3.49-3.29-20.45,2.66-43.46,10.01-62.51-.21-.87-.37-1.74-.4-2.62-.25-8.71,19.23-36.28,25.57-44.36s32-37.28,40.2-39.6c.85-.24,1.73-.35,2.63-.42,1.33-1.07,2.66-1.98,4-3Z" fill="#e78e24"/>
      <path d="M58.93,214.64c7.3-10.25,21.28-26.28,31.96-32.54,1.32-.78,2.04-1.98,4.04-1.45-3.66,4.79-6.71,9.96-10,14.99l-.6,3.38c-20.21,31.58-30.24,64.16-40.16,99.77-.61,2.17-1.92,4.06-3.24,5.85,1.79,7.15-.19,18.69-4,25-3.19,28.89-3.39,57.38,2,86,4.12,3.6,5,11.32,4,16,1.2,1.67,2.32,5.33,1,7,.44.29.42.63,0,1-4.74-3.43-7.73-9.93-10.38-15.12-6.79-13.28-12.47-30.15-15.17-44.83-.9-4.88-.75-10.43-2.45-15.05.02-12.5-1.47-27.85,0-40,.41-3.36,2.2-10.8,3-15,6.45-34.01,19.96-66.86,40-95Z" fill="#e89025"/>
      <path d="M200.93,434.64c8.53.84,16.79,3.78,24.78,8.83l41.72,21.18c19.94,9,41.96,17.77,63.73,12.29,3.85,2.05,6.44,2.28,7.76.71-.87-.33-.87-.67,0-1l.96-2.23c1.4-1.06,15.05-8.17,15.83-7.72.44.25.83.59,1.21.95,27.36,51.11,55.04,102.42,81.52,153.98,6.35,12.36,15.52,28.14,20.21,40.79,3.99,10.78,3.63,20.33-7.74,25.72-58.7,11.99-117.36,25.52-176.35,35.41-12.46-1.7-23.52-6.68-30.84-17.21l-80.8-170.7c-.91-1.44-.44-2.45,1.25-2.29,5.28,1.96,10.65,3.53,16.12,4.7-4.12-2.11-8.14-4.4-12.11-6.75-2.84-1.68-12.6-7.96-13.93-10.28-.37-.64.22-1.64.67-2.38-5.29-8.93-21.37-41.21-23.3-50.2-4.03-18.8,9.25-22.75,24.27-26.32s30.5-5.32,45.03-7.47Z" fill="#fbc36d"/>
      <path d="M157.58,677.99c-6.67-7.88-17.87-15.68-25.55-22.95-8.37-7.91-16.5-16.28-24.56-24.44-3.46-3.5-13.03-10.85-14.09-14.94-.57-2.22-.81-4.48.62-6.45,2.01-2.78,19.38-5.11,23.57-5.4,16.26-1.11,35.5.72,51.86.83,1.94.01,3.8.18,5.5-1,12.93,26.85,24.99,54.22,38,81,1.4,3.93-3.75,3.75-5.75.9l-7.64-.61c-1.96,1.62-3.7,1.89-5.54-.25-9.48.54-19,.8-28.58.78l-.07,2.03" fill="#792a06"/>
      <path d="M356.93,467.64c-6.31,2.41-11.12,7.97-18,9-2.87-1.69-2.87-1.36,0,1,.77,1.96,4.68,4.94,2.49,8.01-3.37-.22-4.79-6.29-7.17-6.87-1.86-.45-10,1.7-12.83,1.85-39.16,2.15-84.35-32.96-120.49-45.99,3.51-.98,7.18-2.06,10.77-2.73,25.55-4.8,51.37-9.82,77-14,20.65-3.37,35.92-8.64,48.4,12.06,6.79,11.27,13.43,25.7,19.83,37.67Z" fill="#c97425"/>
      <path d="M73.93,328.64c1.54-3.82,4.4-9.44,6.51-13.03.76-1.29-.18-2.52,2.48-1.97-6.18,55.08-1.94,108.45,28.01,155.99,10.35,16.44,22.76,31.29,36.99,44.51l7.01,4.49c1.73,2.93,11.92,9.57,15.7,11.8s7.88,4.41,11.63,6.37c2.38,1.24,9.34,2.23,7.17,4.84-9.17-1.09-16.85-3.07-25.44-6.41-.53-.21-1,.41-1.05.39-8.3-3.41-21.59-11.67-29-17-.79.05-1.57.07-2.33-.05-8.14-1.24-35.58-34.35-41.04-42.8l-.64-4.15c-18.48-32.16-27.89-66.64-26-104-3.08-1.24-.99-9.8,2-11,1.66-9.05,4.56-19.46,8-28Z" fill="#ea9327"/>
      <path d="M216.93,692.64c10.27,20.56,16.85,37.02,40.48,45.02,20.95,7.09,31.12,2.11,51.28-1.75,44.69-8.57,94.63-16.47,138.27-27.73,9.96-2.57,19.33-7.51,25.97-15.53-.41,4.86,4.44,8.52,2.06,12.55-6.09,10.3-36.28,14.09-47.46,16.54-38,8.3-80.84,19.54-119.36,25.64-10.45,1.65-21.56.67-30.29,1.73-5.96.73-4.8-.3-5.39-.31-23.66-.21-49.99-18.33-69.01-32.19-9.11-6.63-17.49-14.29-26.53-20.97l2.45-2.02c11.96,1.42,23.21.75,34.85-2.5l2.7,1.52Z" fill="#782906"/>
      <path d="M170.93,695.64c6.96-3.72-6.66-6.02-7.1-6.59-.86-1.11-.73-5.11.76-5.46,5.94-1.38,18.1.05,24.72-.06,1.65-.03,4.94-1.18,5.96-.93.84.21.59,2.22,1.14,2.05.79-.25,1.72-1.75,3.01-1.64,1.57.13,8.38.52,8.83.64s1.52,3.73,4.68,1c1.28,2.64,2.68,5.36,4,8-7.22,1.3-15.1,3.66-22.5,3.8-5.43.1-11.44-.99-17.5-.8-1.99.06-4.08-.05-6,0Z" fill="#632104"/>
      <path d="M62.93,530.64c-.33-.03-.67.02-1,0" fill="#622004"/>
      <path d="M356.93,123.64c-4.58-7.23-11.21-13.08-19.89-17.55.62-2.06,1.76-4.01,3.41-5.84-3.54-6.36,5.29-5.64,9.5-4.79,1.35-2.32,3.73-3.35,7.13-3.09.18-3.65,1.32-8.02,5.71-7.45-4.01-7.62,3.01-12.32,7.16-4.18.4-3.74,3.42-3.76,6.52-3.46-1.74-1.23-2.87-2.98-3.4-5.25-6.78-4.36-1.18-7.87,4.79-6.57,2.94-5.69,12.08-7.12,13.54-.54.11.48-.76,10.15-2.54,7.4-5.22,2.8-6.84,3.38-4.85,1.76,1.25,1.75,4.83,4.54,7.92,4.55h3.8c8.68,4.41,18.26,10.18,26.54,15.39,14.38,9.04,18.46,12.87,11.28,29.64-5.46,12.76-12.99,25.1-20.24,36.69l.62,1.28c.08,1.88.93,3.6,2.57,5.17l-.15,1.61c-2.44.7-2.63,2.91-.58,6.66-2.35,4.8-2.07,7.17.85,7.11,1,2.38,2.72,4.17,5.15,5.38l-.83,2.07c-36.94,54.96-75.76,108.68-113.15,163.35-9.09,9.99-26.8,13.27-39.13,8.43-34.11-13.4-73.22-37.03-106.72-53.78-4.09-3.15-2.1-10.89,3.62-7.43.43-3.25,2.19-5.76,4.78-7.68-.94-1.7-.74-2.99.6-3.89l1.46-1.67-17.34-11.84-.11-2.49-4.5-4.04c3.47-3.38,5.96-7.23,7.48-11.54,3.21-.89,4.65-1.66,5.42-4.95l4.09-2.19c-2.87-4.95-2.61-7.63.77-8.04.69-4.75,5.34-4.01,6.06.55,5.54-5.92,17.02,0,7.48,4.97l1.01,1.65c-2.09,5.11,6.8,5.21,9.82,2.81l1.84.37c-1.32-3.17-2.39-6.55-2.49-9.98-4.65.4-6.89-2.51-6.73-8.72-4.87-3.15-.31-7.54,4.1-4.87,4.24-1.74,7.46-1.74,9.66-.02l3.33,1.53c59.26,74.88,197.36-8.24,159.36-95.72-2.82-3.54-4.39-7.15-4.69-10.81Z" fill="#fbc26c"/>
      <path d="M448.93,148.64c-1.46.8-2.44,1.38-4.07,3.62-4.42-1.32-5.74,2.43-1.93,4.38l-6,9c-3.02,1.53-3.75-4.47-2.93-6.99-3.97-2.8-5.26,2.14-4.6,6.04,1.61,3.04,2.31,6.59,1.53,9.95-3.33,4.99-6.66,10.03-10,15-.67-2.93-4.68-1.68-5-2-.42-.42.37-3.24-.01-4.02-.11-.22-3.84.91-4.99,0-.77-1.71,2.44-3.35,1.99-3.97-.1-.14-2.86-.54-2.98-1.52-.18-1.46,2.74-.56,2.83-.67,3.47-4.55-3.29-6.74-1.85-8.82.31-.45,4.15-.1,3.99-2l-4.99-1.51c1.17-1.36,2.77-2.23,4-3.51-.42-.86-.05-1.17,1-1,3.96.07,5.8-3.72,6-7l-.83-2.11c9.68-10.69,18.38-22.12,26.1-34.29,7.86-14.31-2.06-20.16-13.81-25.63-3.95-1.84-41.14-17.45-40.56-15.29.21.78.36,1.52.09,2.32-1.41,2.16-4.23-1.03-5.91-1.46-.96-.24-2.77.73-3.03.45-.14-.15-1.2-3.8-1.07-3.96.11-.14,2.44-.35,3.43-1.11,2.7-2.08.18-4.51,4.57-.92-.77-3.79-2.68-3.82.02-7.49-9.04-4.4-7.72,1.37-11,3.02-2.51,1.26-6.17-1.33-7,.98-.6,1.65,2.84,2.35,3.56,2.41.37.03.13-3,3.43-.91.93,3.67-4.76.39-2.97,4.46.69,1.58,7.41,3.15.97,5.11-1.88.57-3.67-1.09-4.98.93-.44,1.78,1.12,1.15,1.92,2.31.39.56-.1,1.94.08,2.18.3.38,7.27-3.84.49,4.99,2.19-6.68-7.78-4.99-7.51-10.99-6.07-1.53-2.78,5.96-.77,6.66.58.2,4.21-.5,4.79.35.14.2-.19,4.58-.3,4.79s-1.59.24-2.04,1.46c-.39,1.05.48,2.64.33,2.73-2.6,1.64-2.59-4.92-3.96-6.44-.65-.72-1.23.39-1.82.13-.28-.12-.23-1.7-.7-1.69-4,.09-2.9,6.54-3.8,7.79-.34.46-1.63.14-1.7.24-1.87,2.61,2.78,1.79,2.98,1.99s-.85,3.87-1.02,4c-1.04.84-5.39-3.21-3-6-6.24,0-2.86.86-4.05,2.96-.28.49-9.93-2.13-10.94.54-.32.85,1.83.28,2.02.99.77,2.77-1.5,2.33-1.7,2.74-.22.44.65,1.33.47,1.58-.58.8-3.3.69-2.79,2.68.12.53,8.12,5.87,8.97,6.08,2.32.57,7.24-2.13,3.03,3.42,4.58-.57,2.05,1.07,2.64,2,1,1.58,5.77,4.19,3.36,6.01-3.15-.79-5.94-2.79-8.38-6-63.51-51.64-186.04,27.43-149.29,107.54l-.33,3.47-9.48,2c-1.05.1.8,1.71.49,1.99-2.31,2.12-1.9-2.65-2.1-2.9-.09-.12-2.89.24-2.91.42-.49,2.04,1.24,1.01,1.94,2.25s-.59,4.35,3.06,4.26c.42,1.76-1.72.65-1.99.99-2.08,2.58,6.73,4.83,2.99-1.99h3c-1.94,2.91,3.48,1.4-1.01,5.98h3.01c.95,2.82-1.81,1.75-1.98,2.02-1.44,2.21,1.58,1.9,1.77,2.11.26.29-.82,1.97-.62,3.15.29,1.72,3.19,3.88-.14,5.19-1.36.53-3.49-1.86-3.02,1.01l5.99.53-4.01,2.49c3.61.49,3.9,1.94,4,5.49-2.95-1.77-7.31-7.2-10.07-8.49-1.08-.5-2.46.5-2.78.22-.35-.32,0-1.56-.16-1.71-.72-.65-1.96,3.15-3.5,1.01-1.62-2.25-.27-4.19-.54-5.38-.07-.33-3.53-1.66-1.94-3.62.25-.31,5.05.04,4.99-1.99-5.08-5.24-7.52,1.87-10.46.98-2.06-.63-.28-4.92-3.52-3.99l.99,3.99-3.99-.99c-1.19,1.21,5.49,5.51.91,8.46-.76.49-5.13.82-2.92,3.53.4.49,3.9-1.32,2.99,2l-6.99-.98,2.99,1c-1.17,3.29-2.63.95-4.99,0,1.38,3.15-4.11,9.81-7.01,11.02l3,3.98c-.32.38-.65.71-1.05.9-1.47.68-14.14-7.84-15.94-9.51-7.02-6.54-7.06-9.28-3.61-18.35,8.81-18.51,18.27-36.55,28.38-54.12-12.48,17.95-25.24,35.53-38.27,52.72-9.6,15.39-2.53,20.62,11.69,27.79,11.06,5.58,22.79,10.22,34.4,14.37l.41,2.2,1.99,4.49c-4.06,2.71-6.23,5.45-5,10.5l-5.99-2.99v7c-14.18-7.08-28.9-13.33-43.03-20.48-12.03-6.08-25.36-9.65-23.99-26.02.55-6.57,7.11-15.62,10.79-21.24,41.89-63.91,91.28-130.39,137.81-191.19,11.77-15.38,23.88-35.07,46.62-29.79,32.06,7.45,75.6,26.46,107.05,38.95,16.24,6.45,58.54,21.2,70.08,30.92,19.65,16.55-8.32,45.1-18.33,59.83Z" fill="#fcc774"/>
      <path d="M430.93,174.64c-1.51-2.46-3.27,2.03-3.48,2-1.76-.23-2.86-4.07-5.51-3.01l2.52-2.97.47,1.97h5c.61-3.06-3.18-2.17-2.99-3.98,4.13.32.87-1.81.52-3.54-.62-3.06,2.24-5.15-2.53-4.47-.93-3.46,5.14-2.13,6-4.5.32-.89-1.58-.17-1.85-.97-.48-1.37,1.6-3.37,1.85-4.03.39-1.02-2.49.28-1.99-1.49,8.95-1.43,3.41,3.72,4.18,5.84.08.22,2.24,1.07,3.31,3.16s-1.9.31-1.49,1.49c.63,1.8,2.89.32,2.99.51.77,1.42-1.46,2.52-1.75,3.67-.16.66.79,1.26.76,1.33-1.46,4.06-3.89,5.84-6,9Z" fill="#fbc26c"/>
      <path d="M448.93,148.64c-2.31,3.4-2.55,5-6,8-.25.22-3.06.98-3.99,3-1.08-1.27.63-9.64.99-10,.49-.48,3.34.98,4.38.79,1.61-.3,2.3-3.82,4.62-1.78Z" fill="#fbc26c"/>
      <path d="M324.63,492.95c2.26,2.01,4.81,9.1,4.31,12.12-.25,1.49-1.99,2.68-1.82,3.88.26,1.83,5.42,11.1,6.56,14.45,5.9,17.27,9.64,45.55-11.68,53.33-.82,1.14,6.64,16.13,8.1,18.25,7.47,10.9,16.21,6.48,26.9,9.1,12.34,3.03,30.32,22.21,12.16,28.28-24.83,3.22-52.26,12.92-76.84,15.16-11.45,1.04-18.08-4.46-17.46-16.4.66-12.64,16.61-13.89,17.92-21.21.61-3.44-6.95-20.94-9.56-22.05s-7.37-.79-10.33-1.67c-23.92-7.08-36.96-20.68-49.76-41.24-1.77-2.84-4.52-10.18-6.14-11.86-3.17-3.29-7.06-.44-10.12-7.89-1.99-4.84-3.08-9.21,1.02-13.1,4.84-4.6,31.61-8.48,39.86-10.14,23.17-4.65,46.93-9.79,70.25-11.87,1.92.91,5.11,1.51,6.63,2.87Z" fill="#7a2b08"/>
      <path d="M331.93,692.63c-20.98,2.25-56.14,19.93-73.02,1.54-7.01-7.64-21.26-42.36-26.15-53.85-.87-2.05-6.45-14.99-5.82-15.67,2.29-.09,4.17,2.47,5.43,4.06,9.88,12.4,28.59,50.49,39.66,57.34,12.58,7.8,42.39,1.53,57.4,3.6l2.5,2.98Z" fill="#cd7b22"/>
      <path d="M398.94,677.64c-.39-1.84.46-1.98,1.72-2.77,11.54-7.15,23.41-6.9,18.74-24.21-4.36-16.16-13.38-33.29-18.18-49.82-.26-.89-2.68-7.63.19-6.2,5.07,2.52,25.49,48.1,31.88,55.12,5.43,10.23,5.39,19.62-6.38,24.36-9.06,3.64-18.46,3.5-27.98,3.51Z" fill="#ce7c21"/>
      <path d="M338.93,476.64c.11.29-.11.71,0,1-1.95.1-3.86.34-5.57-.93-3.65-2.7-10.87-15.04-15.39-19.59-15.79-15.91-30.63-9.57-50.55-11.48-4-.38-7.3-1.68-1.71-3.68,8.29-2.95,32.42-9.96,40.36-9.73,21.46.61,26.43,27.98,32.86,44.41Z" fill="#8c3309"/>
      <path d="M200.93,454.63c-6.39,4.15-28.4,11.96-30.57,18.98-.65,2.09.38,10.63.69,13.42.21,1.89,5.68,29.43,2.39,28.61-1.26-.84-1.91-.9-2.82-2.26-3.13-4.7-15.21-29.66-16.88-35.03-8.02-25.67,30.39-20.47,45.13-25.28l2.06,1.56Z" fill="#cf7e22"/>
      <path d="M356.93,123.64c31.23,39.64,4.34,94.07-32.69,118.81-36.77,24.57-99.67,28.95-125.31-13.81-22.8-38.02,2.6-85.56,35.27-108.23,33.87-23.51,94.16-33.03,122.73,3.23Z" fill="#6a2506"/>
      <path d="M170.93,288.64c-8.69-2.42-35.06-13.89-42.94-18.56-22.57-13.38-1.1-31.35,8.38-44.5,7.89-10.95,17.91-27.96,26.59-37.41,1.12-1.22,2-2.87,3.96-2.53,1.59,1.67-15.53,30.12-17.52,33.97-4.19,8.15-9.96,18.47-13.22,26.78-.75,1.91-2.15,6.01-2.2,7.86-.22,7.48,15.57,14.69,20.94,18.38,3.19,2.2,20.58,13.59,21.53,14.97,2.27,3.31-3.59,1.57-5.53,1.03Z" fill="#cf7f23"/>
      <path d="M420.93,153.64c.1,3.12-2.37,7.37-6,7-.31.35-.68.66-1,1-3.09.33-2.09-.76-1.19-2.69,6.03-12.96,17.78-29.35,21.24-42.76,2.33-9.05.92-10.83-6.11-15.98-10.42-7.62-24.67-14.42-35.93-21.57-.7-.45-9.18-4.49-5.5-5,1.47-.2,3.3-.08,4.76.24,7.97,1.73,47.79,17.18,53.21,21.79,4.26,3.62,6.88,8.75,6.57,14.44-.53,9.61-22.98,35.16-30.04,43.54Z" fill="#d38429"/>
      <path d="M326.45,284.65c.89-.2,2.36.91,2.49,1.52.58,2.82-28.37,43.03-32.49,47.49-16.53,17.87-31.79,5.33-48.49-4.51,2.4-3.08,6.16-.57,9.44-.46,26.16.87,31.74-7.92,49.56-24.53,2.83-2.64,18.15-19.21,19.5-19.51Z" fill="#ce7d23"/>
      <path d="M356.94,109.64l-1.01-1.5-1,2-.99-5.5c.79-.92,7.49,3.87,3,5Z" fill="#fcc774"/>
      <path d="M348.93,105.65h-3.99c-.46.57,1.33,2.68.99,2.98-2.36,2.1-5.41-6.79,2.99-2.98Z" fill="#fcc774"/>
      <path d="M284.67,36.89c5.42-.83,11.9,1.37,16.81,3.71,1.19.57,4.62,2.09,2.46,3.56-17.05,4.16-32.83,11.34-47.97,20.06-1.07.94-2.86-.24-3.04-1.08-.36-1.71,18.65-19.33,21.52-21.46s6.67-4.24,10.21-4.78Z" fill="#d18326"/>
      <path d="M183.73,206.79c.61.42.74,2.32,1.71,2.85.97.58-.54-2.46,1.99-2,1.38.25-1.03,2.42-.49,3,2,2.15,1.65-2.55,2.99-1.99.72,8.19-7.61.55-7.98,1l-1.02,3.99c.41.33,4.09-.85,3,1.49-1.03,2.21-4.09-.94-5.99,4.02,4.4.9-.45,1.87,0,3.97.34,1.61,2.3,2.24,2.49-.48,7.42,4.07.81,3.58-.95,8.05-2.08,5.25,3.28,2.5,5.77,3.93,1.16.66.89,2.81.69,3.03-.22.25-6.14-.19-5.49-2l-6.5,3c-.78-1.71,2.43-3.36,1.99-3.98-.1-.15-3.09-.39-3-2.01l2.99-.51c-3.08-3.13-7.15-4.03-7.01,1.5-3.12-1.35-4.48-1.78-7.99-1.01-.45-1.59,1.04-3.24,1.06-4.43.01-1.11-2.51.15-2.06-1.55h3s-2.01-3-2.01-3c4.85-2.85,3.12,5.45,6.49-1.01l3.49,3c-.71-6.04,4.67-2.49,5.54-3.94,3.09-5.15-4.44-13.9-1.52-16.06.75-.55,2.97,1.51,4.31,1.76,1.2.22,3.72-1.14,4.48-.62Z" fill="#fbc26c"/>
      <path d="M424.93,168.63c-.13.17-2.57.29-3.35.91-1.26.99-.45,3.73-2.64,4.1,1.87-4-1.94-6.07,0-10,2.13-1.13,7.08,3.59,5.99,4.99Z" fill="#fbc26c"/>
      <path d="M420.93,153.64c3.7,3.53-.17,3.25-.73,5.66-.34,1.47,2.11,2.35-1.3,2.89-2.02.32-2.53-.45-3.97-1.55,2.02-2.23,4.05-4.69,6-7Z" fill="#fbc26c"/>
      <path d="M453.94,135.65c.64,1.96-1.21,2.64-2.63,2.92-2.43.49-.47-2.23-2.36-1.93l-.02,4.99c-2.02-.98-1.53-3.7-4.98-3.01,3.29-4.89,4.62-3.88,10-2.98Z" fill="#fbc26c"/>
      <path d="M440.93,144.65c-.39,8.25-2.06,2.04-2.41,2.07-2.01.19-4.47,2.5-6.57-.6-.35-2.62.86-1.05,2.07-1,2.59.1,4.28.23,6.92-.48Z" fill="#fbc26c"/>
      <path d="M421.94,174.65c1.16,1.02-3.96,5.63-3.84,3.51.22-3.99-2.08-1.63-3.16-2.53-3.46-2.87,6.75-1.11,7.01-.98Z" fill="#fbc26c"/>
      <path d="M423.93,181.65c.92.86-2.14,4.67-3.99,3.99-.45-3.02.87-4.44,3.99-3.99Z" fill="#fbc26c"/>
      <path d="M311.77,507.81c10.61,23.89,19.64,36.37,1.14,59.3-1.85,2.3-7.28,5.75-6.58,8.53,6.42,9.68,11.17,30.01,21.71,35.4,6.55,3.35,15.63,3.02,21.48,5.52,1.51.64,2.78,1.11,2.41,3.08l-58,11c5.46-7.92,14.74-11.96,12.76-23.26-.86-4.9-9.98-25.73-13.81-28.19-3.53-2.27-15.21-4.04-20.63-6.37-21.1-9.05-36.08-28.93-43.32-50.17l82.84-14.84Z" fill="#e38820"/>
      <path d="M293.63,115.07c86.38-3.55,67.92,86.36,9.98,115.75-43.92,22.28-107.46,10.64-96.38-50.38,6.89-37.97,49.9-63.87,86.4-65.37Z" fill="#e58920"/>
      <path d="M271.93,518.65c1.87,1.99-5.68,6.55-7.05,8.45-.75,1.03-2.48,5.84-3.35,7.52,1.77,7.87,15.77,23.14,21.88,29.05,2.48,2.4,9.17,4.14,9.52,9.97-2.38,2.12-24.22-8.54-27.49-11-5.32-3.99-24.03-27.1-22.9-33.03.13-.69,1.45-2.53,2.19-2.95l27.2-8.02Z" fill="#f5ae34"/>
      <path d="M328.93,161.14c-.15-1.14-1.69-5.4-2.26-6.74-16.03-38.19-99.13-9.63-94.73,38.72.79,8.73,5.37,15.83,8.97,23.52-38.23-23.58-10.31-68.08,21.48-82.03,28.23-12.38,72.03-11.28,73.26,28.24.15,4.86.29,17.14-6.73,15.79-.53-5.51.72-12.16,0-17.5Z" fill="#662306"/>
      <path d="M306.93,192.65l-16.24,2.24c-6.77,1.69-13.11,4.33-19.08,7.92-1.53.92-10.82,8.66-11.67,7.82,2.39-9.01,6.07-18.38,1.89-27.38-1.45-3.13-4.3-4.44-4.88-7.61,11.26,2.05,25.38-1.63,34.47-9.02,3.78-3.08,5.4-6.58,8.51-9.98-1.28,11.58-8.05,31.07,7,36.01Z" fill="#792b08"/>
      <path d="M321.93,203.65c.84.75-7.42,8.67-6.3,10.78-18.31,17.92-77.21,30.95-92.49,5.54-.92-1.53-4.33-11.36-4.03-12.73.25-1.16,2.2-2.16,2.81-1.6.25.23,1.17,4.63,2.27,6.29,11.9,18.08,50.5,15.78,67.98,7.45,5.84-2.78,20.14-15.35,23.72-16.32,1.84-.5,4.06.89,6.04.59Z" fill="#f5ae34"/>
      <path d="M252.93,161.64c-.11-1.41-.1-2.65.53-3.97.21-.45,6.31-6.3,7.09-6.87,6.58-4.75,34.77-17.05,37.98-5.19,2.23,8.21-20.33,10.21-25.61,11.52-6.81,1.69-12.33,6.05-20,4.5Z" fill="#f8c047"/>
    </g>
  </g>
</svg>