<?xml version="1.0" encoding="UTF-8"?>
<svg id="Layer_2" data-name="Layer 2" xmlns="http://www.w3.org/2000/svg" viewBox="0 0 64 95.84">
  <g id="Coins">
    <g id="Ace">
      <g id="Coin">
        <path d="M32.57,16.77l.47.33c-.22.47-.05.36.51-.33.13-.65,1.78-.59,1.96,0,.42.17.83.17,1.22,0,.26-.46,1.72-.11,1.71.49.32.24.36.56.11.97.23-.42.52-.58.87-.48.28-.64.65-.58.98,0,.31.23.36.55.15.96.17-.44.45-.6.83-.47.2-.65,1.3-.31,1.71,0,.38.21.46.61.24,1.2l.49-.22c.08-.99,2.14.04,1.96.74.49.19.48.57-.05,1.12.31-.41.65-.54,1.03-.39.35-.75,1.68.13,1.47.74.11.37-.04.7-.46.99.47-.47.87-.56,1.19-.26.34-.92,1.98.29,1.71.98.14.33.37.53.73.49.6,0,1.79,1.11,1.71,1.72.04.47-.25.91-.88,1.31-.06.05,1.18-1.1,1.37-.57.61-.35,2.19,1.35,1.96,1.96-.16.37-.17.55.24.49.07-.22.15-.22.24,0,.52.3,1.33,1.46.98,1.96.36.42-1.32,1.05-1.24,1.01.69-.41,1.26-.5,1.73-.28.56-.37,1.77,1.46.98,1.72-.08.34.08.67.49.98.44-.29.92.58.73.98l-.2.56c-2.32.81-.11.45.93-.07.39.85.65,1.55.98,2.45-.8.36-.97.61-.49.74.64-.1,1.01.74.49.98-.05.34.11.67.49.98.4.13.58,1.35,0,1.47-.37.26-.21.51.49.74.42.24.77,1.33.49,1.72-.09.44-.46.67-1.09.7.57-.04.93.13,1.09.52.55.17.61,1.1,0,1.23-.08.43-.46.67-1.12.71.9-.36,1.43-.27,1.61.27.36.59.4,1.64,0,2.21-.37.21-.32.46,0,.74.38.6.1,2.28-.49,2.7-.21.45-.74.49-1.59.12.68.11,1.04.4,1.1.86.48.47.42,2.65-.49,2.21-.31.14-.31.39,0,.74.39.28-.03,1.31-.49,1.47.26.43-.08,1.22-.49.74-.46.14-.63.38-.49.74.6.31-.07,1.61-.49,1.96-.3.31-.55.64-.73.98.24.56-.46,2.06-1.22,1.47-.24.34-.64.3-1.19-.12.59.3.82.67.7,1.1.8-.01-.51,1.48-.98,1.23-.36.21-.73.13-1.1-.25.56.4.77.81.61,1.23.12.62-.94,1.39-1.47,1.72l-.51.11c-1.26-1.5-.3-.05.51.38-.65.66-1.23,1.28-1.96,1.96-.32.34-.74.77-.98.25l-.26.2c-1.09-.98-1.08-.8.02.54-.24.26-.96.84-1.22.98-.4.38-.89.71-1.47.98-.07.03-.18-.03-.24,0-1.16-.7-1.24-.62-.24.25-.91.4-1.77.79-2.69,1.23h-.24c-.77-.12-1.64-1.85-.82-.58l-.16.58c1.01.27-.35.85-1.06.86l-1.39.61c-.13.16-.27.32-.47.38-2.6.86-5.61,1.23-8.35,1.34-.31-.28-.56-.28-.73,0-1.31.04-2.48-.17-3.67-.25-.19-.39-.43-.39-.73,0-1.2-.08-2.6.25-3.67-.49.55-.6.86-2.12.31-.64l-.56.15c-.36.62-1.68-.04-2.2-.49-.35-.24-.41-.61-.18-1.1-.12.46-.39.67-.8.61-.54.61-2.5-.11-2.2-.98l-.36-.39c-.14.49-.29.89-.86.63-.23.36-.8.11-.98-.25-.65-.4-1.36-.6-1.96-.98.24-.32.14-.37-.24-.25-.96-.63-1.8-1.3-2.69-1.96.28-.35.03-.52-.73-.49-.23-.18-.5-.32-.73-.49-.22-.46-.53-.69-.99-.89v-.34c.04-.48.41-.91,1.11-1.3-.52.45-.97.56-1.35.32-.32.42-1.2-.57-.98-.98l-.22-.26c.31-.37.14-.7-.51-.97-.34.37-1.07-.61-.98-.98.32-.92.32-1.16-.01-.72l-.48-.26c-.41-.09-.74-.5-.98-1.23-.5-.35-.92-1.54-1.22-2.21,0-.2.04-.42.22-.53,1.67-1.02.11-.32-.46.28-.2-.47-.4-.98-.49-1.47-.29-.41-.29-.66,0-.74.09-.51,0-.59-.24-.25-.58-.29-.87-1.93-.49-2.45.26-.46.78-.68,1.55-.66-.81.16-1.41.05-1.8-.32-.49-.07-.64-.7-.24-.98.33-1.62,2.08-.12.6-.77-.19-.08-.29-.27-.36-.46-.4-.32-.62-2,0-2.21.39-.32.23-.65-.49-.98-.37-.38-.43-1.86,0-2.21.09-.53.36-.52.8-.49-.43.05-.68,0-.8-.49-.39-.42-.34-1.03,0-1.47l.11-.52c.4.1.36-.14-.11-.71-.22-.28-.17-.67,0-.98.09-.83.48-.9,1.22-.99-.93-.59-1.05-3.18.19-3.23-.43-.7-.61-1.66.06-2.16-.38-.07-.34-.29,0-.49l.18-.34c1.07.27,1.41.14,1.04-.39-.62-.42.26-2.14.98-1.96.52-.26.34-.49-.55-.69l-.18-.54c-.39-.34.2-1.61.73-1.47.19-.51.66-.56,1.43-.15-.57-.3-.8-.66-.7-1.08-.59.07-.39-.56,0-.74.38-.48.61-.99.98-1.47.4.44,2.43,1.03,1.14.55l-.16-.55c-.54-.17-.55-.33,0-.49.23-.89.64-1.75,1.47-.98.37-.32.91-.29,1.61.09-.7-.25-1.08-.61-1.12-1.07-.03-.7.96-2.17,1.47-1.47.33-.26.79-.15,1.38.34-.64-.4-.94-.84-.89-1.32.41-.52,1.36-1.65,1.96-1.23.36-.22.56-.12.75.19-.33-.39-.6-.9-.02-1.18-.15-.23,0-.33.24-.25.99-.73,1.56-.89,1.71-.49.38-.04.74.19,1.07.7-.43-.44-.54-.84-.34-1.19.26-1.02,1.57-1.35,2.45-1.47.51-.02.66-.11.98-.49.55-.33,1.69-.85,2.2-.49.44.12.86.42,1.25.89-.69-.62-.78-1.08-.27-1.38.64-.34,1.7-.91,2.45-.49h.51c.3.66.54.66.72,0,.39-.51,2.29-.62,2.69,0,.59.6.77.63.54.09l.44-.33c.16-.62,1.89-.6,1.71.25Z" fill="#f1cb2b"/>
        <path d="M48.98,21.18c-.05.63-.29.7-.73.25-.54-.49-.57-.95-1.47-.74-.36-.23-.69-.47-.98-.74-.22-.04-.85-1.28-1.96-.74-.39-.11-.75-.54-.73-.98-.39-.06-1.57.09-1.71,0-.33.08-.66-.09-.98-.49-.31.04-.66-.03-.98,0-.34-.11-.48-.51-.26-.38.37.21-.53.55-.72-.11-.1,0-.91-.4-1.71-.49-.46.48-.97.78-1.22,0-.36,0-1.87.06-1.96,0-.39-.1-.72-.1-.98,0-.79-.63-1.26-.23-1.71-.25-.29.17-.61.25-.98.25-.22.15-2.19-.1-2.69,0-.41.66-1.01.08-.49-.49,8.26-1.24,15.43.16,22.29,4.91Z" fill="#e4bf5b"/>
        <path d="M62.94,56.03c-.32-.23-.41-1.32,0-1.47-.68-.12-.66-.81,0-.98-.01-.81.43-1.38.49-2.7-.67-.16-.65-.52,0-.74.02-.73-.02-1.48,0-2.21-.32-.08-.48-.41-.49-.98.02-.41-.04-.82,0-1.23-.69-.12-.46-.92,0-1.23-.25-.79-.38-.46-.49-1.72-.4-.07-.56-.32-.49-.74-.05-.08,0-1.19,0-1.47-.28-.27-.47-.59-.49-.98-.07-.1.12-.84-.49-.98-.04-.3.13-.54.49-.74,2.3,6.26,3.05,10.37,1.96,17.06-.07.43-.05.85-.49,1.1Z" fill="#e3bd5d"/>
        <path d="M1.71,38.85c.54,1.09.24,3-.49,3.93-.17,2.98-.29,5.95-.37,8.92.61.71.81,2.11.37,2.86.59.18.71.57.24.98.08.26.15.65.24.98.73.02.86.6.24.98.2.83.15,2,.49,2.45.35-.26.47-.12.24.25.03.24-.04.52,0,.74-.36-.33-.68-.8-.82-1.27-.75-2.61-1.28-5.3-1.65-7.92s-.02-6.97.56-9.28c.36-1.43.19-2.5.42-3.47.07-.29.46-.09.5-.14Z" fill="#f7efc9"/>
        <path d="M2.69,37.87c.02.35-.02.7.02,1.08.03.3.53,1,.4,1.25-.22.44-.75.26-.88.4-.18.19-.01,1.73.18,2.03.18.28,1.14-.08.76.76-.23.51-1.55.27-1.96.86v-1.47c.18-1.31.28-2.62.49-3.93.17-.16.44-.77.49-.98.08-.65.3-.62.49,0Z" fill="#ddb751"/>
        <path d="M48.98,21.18c3.4,2.36,5.14,3.96,7.59,7.36-.01.41-.18.41-.49,0-.09.02-.19-.03-.24,0-.61.1-.6,0-.24-.49-.44-1.09-1.62-1.5-1.96-1.96-.35-.11-.48-.37-.49-.74-.58-.45-1.16-1.19-1.71-1.72-.58.33-.91.18-.73-.49-.45-.4-.27-1.37-1.71-.98-.43-.33-.38-.63,0-.98Z" fill="#dec169"/>
        <path d="M56.57,28.55c1.75,2.42,2.69,4.17,3.92,6.87-.41.57-1.01.16-.73-.49-.2-.27-.7-.92-.73-.98-.34-.22-.43-.6-.49-.98-.05-.08.08-.57-.07-.91-.02-.06-.75-.58-.91-.81-.7.09-.83-.12-.49-.74-.39-.56-.62-1.35-.98-1.96.14-.03.33.02.49,0Z" fill="#e0bf61"/>
        <path d="M18.61,76.64c.25.02.18.34.46.47.33.16,1.66.46,1.75.51.33-.08.65.08.98.49.49-.02.98,0,1.47,0l-.25.49h.98c.45.15.45.34,0,.49-1.58-.03-4.16-.84-5.63-1.47-.46-.04-.7-.21-.73-.49.15-.35.48-.51.98-.49Z" fill="#e7c157"/>
        <path d="M19.59,18.24c.7.19.48.66-.24.49-.83.69-.63.28-1.41.56-.24.09-.32.88-1.04.91-.02.42-.27.59-.73.49-.07.05-.4-.08-.54.02-.37.26-.31.71-1.18.47-.15-.53.48-.92.98-.98,1.54-.97,2.56-1.31,4.16-1.96Z" fill="#e3c25c"/>
        <path d="M26.44,16.28c.56.57.16.92-.49.49-.37.06-.84-.05-1.23,0l.25.49c-.48.05-1.01-.06-1.47,0,.03.61-.54.81-.98.49-.51.16-1.65.4-2.2.49-.15.68-.52.65-.73,0,2.64-1.08,4.02-1.5,6.86-1.96Z" fill="#e5c361"/>
        <path d="M5.63,30.02v.74c-.16.55-.4.96-.73,1.23-.1.23-.61,1.25-.73,1.47.16.47,0,.8-.49.98,1.06.39-.05,2.35-.98,1.47.16-1.27,1.73-4.91,2.52-5.82.1-.12.39-.04.42-.07Z" fill="#ead5a1"/>
        <path d="M58.28,66.34c-.41.5-.82.99-1.22,1.47-.86,1.25-1.61,1.6-2.45,2.45-.62-.18-.59-.25,0-.49.12-.52,1-1.34,1.47-1.72-.27-.49-.12-1.02.49-.98.15-.37,1.11-.71.98-1.23.34-.25.5-.58.49-.98.88.06.9-1.21,1.22-1.47-.16-.7.35-.76.73-.25-.57,1.08-1.09,2.14-1.71,3.19Z" fill="#e2bc56"/>
        <path d="M11.02,23.64c.36.36.43.66,0,.98-1.21.04-.68,1.67-1.47,1.47-.25.32-.42.64-.49.98-1.16-.25-.88.32-1.47.98-.32.07-.32-.17,0-.74,1.29-1.56,1.99-2.4,3.43-3.68Z" fill="#e2bc55"/>
        <path d="M61.96,58.98c-.68,2-1.04,2.43-1.96,4.17-.67-.16-.66-.52,0-.74.07-.28.43-1.87.49-1.96-.59-.42-.19-.82.49-.74.07-.12.09.28.49-.74.25-.37.42-.48.49,0Z" fill="#e1c263"/>
        <path d="M32.32,79.83l-.49-2.45c1.32-.46,1.37,1.49,1.22,2.45-.32.01-.56,0-.73,0Z" fill="#d39b23"/>
        <path d="M48.49,75.17c-.07.03-.15.2-.24.25-3.61-.85-2-3.66.24-.25Z" fill="#dd9e1a"/>
        <path d="M62.94,54.56c-.04.47.06,1.02,0,1.47-.17,1.2-.68,2.06-.98,2.94h-.49c.21-.53.37-.89.49-1.47-.41-.34-.39-.41,0-.74.84-.44.4-1.38.49-2.21.15-.45.34-.45.49,0Z" fill="#e5c058"/>
        <path d="M13.95,21.43c.08-.21.16-.21.24,0-.1.61,1.63,2.06,1.22,2.45s-1.82-1.13-1.96-1.47c-.47.04-.47-.2,0-.74.19-.14.39-.18.49-.25Z" fill="#d4951e"/>
        <path d="M4.89,34.68l-.98,1.96c-.26.58-.83.29-1.22,0-.34-.05-.24-.25,0-.49,0-.08-.01-.17,0-.25.97-.17.89-.76.98-1.47.17-.75,1.32-.48,1.22.25Z" fill="#eec54d"/>
        <path d="M4.65,64.87c.29.21.81.77.98,1.23.37.19.53.52.49.98.16.13.96.91.98.98.38.04.62.45.73,1.23.22.11.74.77.98.98.55.33.4.53-.24.49-.07.21-.15.21-.24,0-.56-.85-1.6-1.43-1.66-1.52-.12-.17-.07-.7-.27-1.07-.32-.57-.82-.73-1.08-1.16-.28-.46-.57-1.56-.66-2.14Z" fill="#e3c36c"/>
        <path d="M51.67,72.47c.58.04.39.42,0,.74-.07.02-.16,0-.24,0-1.12.01-1.2-1.01-1.72-1.83.26-.28.32-.49.74-.26.08.04,1.17,1.28,1.22,1.36Z" fill="#d5991f"/>
        <path d="M24,78.61c.07-.31.52-1.47.73-1.6,1.08-.7.49,1.85.21,2.06-.15.11-.49.02-.69.03-.08,0-.16,0-.24,0,.02-.16-.03-.35,0-.49Z" fill="#d2941f"/>
        <path d="M3.42,62.66c-.04-.08-.21-.16-.24-.25.06-.55-.31-.76.36-.99,2.35-.82,1.77,1.05-.11,1.24Z" fill="#d09a24"/>
        <path d="M28.65,79.59c-.24-.02-.49.02-.73,0-.45-3.1,1.71-2.73.73,0Z" fill="#d19a23"/>
        <path d="M14.2,75.42c0-.48.92-2.26,1.47-1.72.27.27-.28,2.39-1.22,1.96-.09-.06-.16-.19-.24-.25Z" fill="#d29722"/>
        <path d="M45.3,76.64h.24c-.33.16-.84.64-1.43.9-.65.28-1.52.58-2.24.58.05-.06-.07-.44,0-.49.12-.08.58.09.79-.01.23-.11.19-.44.36-.48.37-.08.8.08,1.14,0,.26-.06.13-.46.16-.5.22-.63.67-.49.98,0Z" fill="#e5c86c"/>
        <path d="M11.51,73.45c-.21-.16-.47-.29-.73-.49,1.83-1.58,3.5-.62.73.49Z" fill="#d1961a"/>
        <path d="M13.46,21.67c.04.21-.06.59,0,.74-1.04.14-1.16,1.05-1.96,1.23-.19.61-.27.6-.49,0,.99-.88,1.36-1.19,2.45-1.96Z" fill="#e3c36d"/>
        <path d="M27.18,16.77c.24.5.48,1.41-.36,1.47l-.86-1.47c.23-.04.41-.28.49-.49.08-.01.17.01.24,0,0,.28.47.45.49.49Z" fill="#d4991d"/>
        <path d="M9.06,71.25c.59.41,1.18.45.98,1.23-.42-.31-1.23-.66-1.4-.8-.27-.23-.19-.72-.31-.92h.24c.56-.28.71-.09.49.49Z" fill="#f0e0b8"/>
        <path d="M58.28,66.34c-.26.44-.33,1.4-1.22,1.47.3-.44.36-1.5,1.22-1.47Z" fill="#f3e8b4"/>
        <path d="M50.2,74.19c-.05,1.07-1.09.83-1.47.98-.17-.65.95-.7,1.47-.98Z" fill="#f6ebb5"/>
        <path d="M15.42,20.2c-.22.14-.75.83-.98.98-.06.04-.13.17-.24.25-.06.04-.19-.04-.24,0,.25-.85.47-1.46,1.47-1.23Z" fill="#f5eab4"/>
        <path d="M2.69,36.64c.47.22.47.51,0,.74,0,.16-.01.33,0,.49h-.49c.12-.53-.31-1.47.49-1.72-.02.16,0,.33,0,.49Z" fill="#e3c685"/>
        <path d="M17.38,76.89c.35-.32.47-.18.24.25.24.13.48.38.73.49-.57.05-1.3-.23-1.77-.5-.28-.16-.17-.46-.19-.48.29.11.73.12.98.25Z" fill="#f3e2a8"/>
        <path d="M7.59,28.05v.49c-.21.62-.67.46-.98,0,.3-.38.62-.8.98-1.23v.74Z" fill="#e0c078"/>
        <path d="M52.65,72.23c-.06.06-.18.8-.98.98-.04-.2.06-.62,0-.74l.98-.25Z" fill="#ead078"/>
        <path d="M41.63,52.35c1.6.31,1.71,2.15,2.44,3.08s2.71,1.86,3.4,3.22c.57,1.1-.01,2.6.4,3.28.64,1.05,3.67,1.79,3.21,3.44-.4,1.4-4.83,3.35-6.22,3.85-5.88,2.13-20.04,3.84-26.08,2.71-2.2-.41-3.85-2.58-2.89-4.75.32-.73,2.72-2.07,3.58-2.8.7-.6,4.22-3.98,4.54-4.53.55-.94,0-2.91-.87-3.58-1.16-.9-4.26-.76-5.14-2.7-.34-.75.08-1.2.04-1.8-.08-1.13-1.32-3.4-.78-4.57.11-.23.61-.52.61-.62,0-1.03-3.53-1.36-3.67-2.97-.11-1.19,2.99-4.27,3.62-5.68.42-.95.42-2.36.87-3.55.21-.56,1.02-1.65,1.11-2.11.15-.81-2.21-2.21-1.62-4.79.21-.94,1.57-2.24,2.54-2.38.8-.11,1.41.27,2.12.19,1.68-.18,4.66-1.48,6.76-1.84,11.11-1.92,18.71,2.25,19.63,14.04.39,4.92-1.92,11.19-6.23,13.87-.5.31-1.45.14-1.36.96Z" fill="#d5961a"/>
        <path d="M1.22,44.25c0,.33,0,.65,0,.98.65.39.67.85,0,1.23,0,.49,0,.98,0,1.47.48.31.48.67,0,.98v2.21c.19.32.35.65.49.98v2.21c.38.6-.05.82-.49.25-.02-.68-.17-1.38-.27-2.06-.51-3.37-.21-6.26.27-9.72,0,.49,0,.98,0,1.47Z" fill="#e0bc5d"/>
        <path d="M61.96,56.77c.36.33.03.6,0,.74-.75.13-2.8-.51-2.94-1.35-.09-.52.2-.4.57-.32.32.07,2.23.8,2.38.93Z" fill="#d49519"/>
        <path d="M63.43,50.14c0,.23.01.42,0,.74-4.05.49-3.73-1.72,0-.74Z" fill="#d1961c"/>
        <path d="M1.95,57.5c-.07-.28-.17-.73-.24-.98,3.59-.72,4.13.86.24.98Z" fill="#d49821"/>
        <path d="M9.55,26.09c.38.07,2.07.82,1.96,1.35-.14.69-2.1-.16-2.45-.36-.95-.56-.31-1.13.49-.98Z" fill="#d4971b"/>
        <path d="M61.47,37.87c.38.89-.3.65-.49.74-.28.13-2.46,1.26-2.44.37.01-.53,2.68-1.7,2.93-1.1Z" fill="#d29620"/>
        <path d="M57.06,30.51c.15.22.34.52.49.74-2.9,1.84-3.99.21-.49-.74Z" fill="#d3951a"/>
        <path d="M60.49,35.42c.08.16.07.37-.14.51-2.05,1.31-4.31-.07-.59-1,.12.16.68.39.73.49Z" fill="#d39624"/>
        <path d="M59.02,33.94l-2.7.24c-.32-1.22,1.36-.71,2.21-1.23.02.03.48.03.63.24.2.28-.16.71-.14.74Z" fill="#d3951a"/>
        <path d="M7.59,28.55c.62.14,2.17.65,1.59,1.48-.59-.15-3.17-.57-2.57-1.48.14-.2.74-.05.98,0Z" fill="#d3951d"/>
        <path d="M11.51,23.64c.24.08,1.79,1.25,1.71,1.59-.19.9-1.96-.29-2.2-.61-.22-.29-.31-.81,0-.98.04-.02.43-.02.49,0Z" fill="#d49820"/>
        <path d="M9.06,71.25c-.2-.14-.4-.25-.49-.49.1-.14.15-.39.24-.49.31-.31,2-1.53,2.2-.61.07.33-1.52,1.54-1.96,1.59Z" fill="#d39924"/>
        <path d="M62.94,53.58c0,.45.05.43,0,.98-.16-.02-.34.03-.49,0-.42-.09-2.08-.49-1.96-1.1.14-.69,2.01.1,2.45.12Z" fill="#d3961b"/>
        <path d="M1.46,55.54c-.17-.5-.21.09-.24-.98.19.02.41-.23.49-.25.46-.07,2.11-.15,1.96.61-.12.59-1.8.21-2.2.62Z" fill="#d29725"/>
        <path d="M5.63,30.75c.18.04,1.55.96,1.47,1.35-.17.79-1.71-.26-2.2-.12.03-.08-.31-1.43.73-1.23Z" fill="#d49c2e"/>
        <path d="M2.44,59.96c-.5-1.3,2.35-1.09,2.45-.98.73.76-1.77,1.26-2.21,1.23-.16-.01-.18-.16-.24-.25Z" fill="#d2981b"/>
        <path d="M53.63,26.09c-2.07,2.41-3.06.66-.49-.74.08.06.68.05.73.37,0,.04-.28.31-.24.37Z" fill="#d3981c"/>
        <path d="M62.94,46.95c1.15.04.5.68.49.98-.83-.19-1.81.69-2.45-.13-.13-.59,1.63-.87,1.96-.86Z" fill="#d29821"/>
        <path d="M4.16,33.45c1.43.22,3.42,1.83.73,1.23-.41-.09-.8-.24-1.22-.25.19-1.52.36-.76.49-.98Z" fill="#d19722"/>
        <path d="M23.51,17.26c-.12.53,1.45,1.52.98,1.96s-2.02-.76-1.96-1.47c.09-.03.11-.38.98-.49Z" fill="#d39a1e"/>
        <path d="M20.32,18.24c-.08.54,1.62,1.94.61,2.21-.87.23-1.11-1.27-1.59-1.72.21-.17.22-.48.24-.49.12-.06.52.04.73,0Z" fill="#d39821"/>
        <path d="M58.04,64.87c.13.08.49.29.48.36-.09.61-.46.86-.97.62-.28-.14-1.54-1.02-1.47-1.35.44-.75,1.38,0,1.96.36Z" fill="#d3971a"/>
        <path d="M61.96,42.04c.09.14.39-.43.49.74-2.5,1.17-3.75-.57-.49-.74Z" fill="#d4961b"/>
        <path d="M45.3,76.64c-.26.25-.95-.04-.98,0-2.46-2.87.26-2.33.98,0Z" fill="#d3981a"/>
        <path d="M61.96,40.57c-.46-.16-2.04.91-2.2.12s1.4-.77,1.71-1.1c.03.04.61.03.72.39.07.22-.23.49-.23.59Z" fill="#d5971e"/>
        <path d="M54.61,69.77s.02.45,0,.49c-.46.91-1.95-1.16-1.96-1.59.21-1.1,1.85.84,1.96,1.1Z" fill="#d5981c"/>
        <path d="M56.57,67.07c-.29.74.34.31-.49.98-1.97-1.35-1.66-3.05.49-.98Z" fill="#d3961e"/>
        <path d="M55.59,28.05c.05.13.25.28.24.49-.06.03-.16.35-.39.45-2.83,1.26-1.97-.94.15-.95Z" fill="#d5981d"/>
        <path d="M3.91,36.64c.45.18,1.61.97.6,1.23-.5.13-1.22-.63-1.83-.49,0-.24,0-.49,0-.74.5-.38.76-.18,1.22,0Z" fill="#d19624"/>
        <path d="M60,62.41c-.05.2.07.61,0,.74-.07.14-.63.16-.73.25-.28-.4-1.6-.73-1.47-1.35.2-.96,1.63.64,2.2.36Z" fill="#d4971e"/>
        <path d="M46.77,20.69c-.17.29-.88,1.1-1.34.98-.98-.26.46-1.27.36-1.72.19.03,1.66-.42.98.74Z" fill="#d4991e"/>
        <path d="M62.94,44.5c.23.72.05.63,0,1.23-2.81.18-2.4-1.03,0-1.23Z" fill="#d3971c"/>
        <path d="M50.69,23.15c.08.07.39.16.73.49-.29.74-2.32,2.16-1.92.66.12-.46.89-.78,1.19-1.15Z" fill="#d39719"/>
        <path d="M21.79,78.12c-.1,0-.37.3-.59.23-.36-.11-.35-.7-.39-.72.82-2.35,1.88-1.7.98.49Z" fill="#d19821"/>
        <path d="M1.22,51.12c.56-.11,1.36.07,1.96,0,.32.83-.75,1-1.47.98-.31,0-.65-.23-.98-.25-.22-.26.26-.69.49-.73Z" fill="#db9c1f"/>
        <path d="M48.98,21.18c.21.09.28.77,0,.98-.39.11-1.09,1.3-1.59.49-.31-.5.53-1.05.86-1.23.18-.1.57-.32.73-.25Z" fill="#d59920"/>
        <path d="M1.22,45.23l1.96.37c-.02.82-1.46.6-1.96.86,0-.39,0-.81,0-1.23Z" fill="#d99f25"/>
        <path d="M60.98,59.71c-.24.4-.44.65-.49.74-2.73-1.11-1.93-2.26.49-.74Z" fill="#d39716"/>
        <path d="M39.43,17.75c-.79,1.94-2.06,1.37-.98-.49.56-.05,1.45-.65.98.49Z" fill="#d39821"/>
        <path d="M16.89,20.2c1.93,1.69.16,2.65-.73.49.28-.18-.41-.45.73-.49Z" fill="#d4981d"/>
        <path d="M1.22,47.93h1.82c.67,1.07-1.06,1-1.82.98,0-.33,0-.65,0-.98Z" fill="#dca01c"/>
        <path d="M41.38,18.24c-.82,1.9-2.05,1.41-.98-.49.13-.02.38-.29.59-.23.36.11.35.7.39.72Z" fill="#d49a22"/>
        <path d="M7.1,68.06l1.47-.24c.14.69-.42.96-.73,1.47-.13-.07-.64.09-.72,0-.12-.14.07-.93-.01-1.22Z" fill="#d29a25"/>
        <path d="M17.38,76.89c.5-.55.54-1.91,1.47-1.35-.03.38-.13.75-.25,1.1-.04.11.08.41-.17.49-.23.08-.55-.01-.81,0-.09-.05-.16-.2-.24-.25Z" fill="#d19620"/>
        <path d="M5.63,66.09c1.68-1.25,2.09.02.49.98-.05-.04-.36.09-.46-.03-.16-.19.04-.75-.03-.95Z" fill="#d19623"/>
        <path d="M30.85,16.52c.4,1.95-1.02,2.11-.98.25.02-.01-.09-.45.15-.51.41-.11.74.26.83.26Z" fill="#d19821"/>
        <path d="M32.57,16.77c.02-.51-.09-.6.63-.5.55.07.3.47.35.5.07.69,0,1.34-.86,1.23-.22-.03-.14-.95-.12-1.23Z" fill="#d19a22"/>
        <path d="M36.73,16.77l-.86,1.47-.36-1.47c.49,0,.52-.08,1.22,0Z" fill="#d29a19"/>
        <path d="M43.1,18.24c.1.01.66.25.69.29.11.22.05.46.04.69-.02.5-.47,1.48-.98.98-.19-.18.25-1.57.24-1.96Z" fill="#d1951b"/>
        <path d="M39.21,48.94c.27-.44,4.17-.14,4.13-1.5-.81-.17-1.43.28-2.13.44-.36.09-.66.2-.56-.32,2.52-1,5.04-2.84,6.09-5.43.15-.38.72-2.1.52-2.3-.7-.68-.81.9-.97,1.36-.84,2.37-2.73,4.57-5.15,5.26.04-.61.16-1.32.48-1.85.14-.23,3.26-2.82,1.84-2.81-.19,0-1.61,1.83-2.08,1.96-.55-2.07.12-1.15,1.11-2.2.86-.9,1.29-2.21,1.09-3.45-.85-.16-.63,1.15-.85,1.72-.31.77-.8,1.26-1.47,1.71-1.71-1.71.41-3.3.61-5.52.06-.65-.29-5.33-.49-5.52-.03-.03-.71-.02-.73,0-.15.15.49,3.64.5,4.29.02,1.12-.13,3.87-1.48,4.06.16-1.28-1.06-2.85-1.21-3.82-.19-1.18.14-2.61-.07-3.86-.08-.46-.96-2.72-1.29-2.88-.43-.21-.42.29-.35.6.41,1.77,1.58,3.42.85,5.53-.51-.57-1.81-2.04-1.99-2.7-.15-.59.19-.94.15-1.35-.09-.85-.49-3-1.22-3.44-1.48-.9-.01,1.32.16,1.8,1.13,3.07-1.47-.53-2.13-1.06-.78-.62-1.53-1.13-2.57-1.12-1.5,0-1.35-.05-2.68-.24-1.27-.18-3.08.95-3.32-.72,1.45-.19,2.94-.88,4.35-1.17,11.36-2.3,19.38,1.06,20.14,13.56.24,4.03-1.98,10.89-5.9,12.73-1.72.81-4.28-.34-3.37-1.78Z" fill="#f1ca2b"/>
        <path d="M26.68,35.67c-.52,2.08,4.97,6.35.25,5.39-.52.55,2.88,4.19,3.42,4.79.3.34.99.65,1.11.85.23.4.04.98.25,1.47.12.28.85.73.85.86,0,.07-.68.63-.84.88-.65.98-1.31,2.59-1.99,3.41-1.99,2.38-7.48,2.58-9.99.95-1.15-.74-1.55-2.17-1.1-3.48.17-.51,1.32-.61,1.18-1.39-.9,0-1.96.85-1.71-.49.75.2,1.68-.34,2.33-.26.75.1.34.93,1.1.75.16-1.2-.05-2.47-1.47-2.45l.25.98c-.88.27-1.57.12-2.45,0,.06-.66.58-.76.49-1.57-.06-.59-.49-.9-.74-1.37,3.2.96,3.19-2.56.25-2.46l1.47,1.59-3.29.38c-.54-.14-1.2-.69-1.08-1.3.27-1.31,4.01-4.34,3.91-6.29,1.23.03,2.71-.21,3.9.07.75.18,3.64,2.38,3.9,2.1.51-.54-1.68-1.81-2.04-2-1.95-1.04-3.62-1.26-5.79-.7-.2-.21,1.85-4.82,2.2-5.03,1.09-.67,2.9,1.2,3.92,1.72-.6,1.2-2.99-.04-2.9.94.13,1.41,3.5,1.74,4.61,1.64Z" fill="#f1cb2b"/>
        <path d="M24.49,63.15l.73.49c-.01-2.54.19-5.39-1.22-7.61,5.39.08,5.82-1.87,8.22-5.63.41-.65,1.82-1.7,1.44-2.47-3.11.27-.03-1.77.5-3.19.76-2.08-.38-5.45.85-6.75,1.05-1.11,1.99,1.33,1.98,1.99,0,.19-1.6,1.7-1.85,2.55-.15.5-.53,3.72-.36,3.93.55.14.58-.22.67-.67.2-1.03.01-2.18.45-3.24.13-.3,1.03-1.76,1.45-1.25.92,1.12.47,4.34.61,5.77.1,1.03.7,2.16.6,3.32.27.9,5.04,3.46,4.3,4.4-1.4-1.04-2.96-.98-4.02-2.47-.1-.14-1.75-3.56-1.85-2.07-.05.73,1.67,3.06,2.33,3.55,1.15.86,3.23.83,3.31,2.46,1.31-.68.77-.27,1.59.25s2.12,1.5,2.59,2.32.16,1.73.23,2.59c-.54-.24-1.2.22-1.47.24-1.04.55-2.4.61-3.19-.62-.59.53-1.7.78-1.95-.12l-.35-.09c-.23-.81-1.1-1.89-1.43-.69-4.84,1.66-9.63,3.15-14.39,4.46.05.53-.44.65-.77.28-.58-.64.17-2.17,1.01-1.76Z" fill="#f2ca2c"/>
        <path d="M45.55,61.67v.72c1.03-.82,4.73,2.58,4.58,2.86-1.61,3.14-13.47,4.92-16.79,5.29-5.13.56-10.77,1.1-15.71-.04-.18-.15-.18-.42-.24-.49-.15-.37-.23-.7-.24-.98-.65-1.16.91-1.21.73,0,.55-.25,1.39.04,1.96.25.33-.71.88-.68,1.22,0,.12.57.68.7,1.68.39.93-.42,1.76-.55,2.48-.39.61.35,1.27.59,1.96.74l.38-.47c.43,0,3.06-.05,3.11-.2.23-.69-2.38-.05-2.73.05l-.51-.37c-1.03.32-1.61.22-1.75-.31-.81.05-1.45-.09-1.93-.43l.03-.22c1.81-.12,2.29-.29,1.44-.52-1.31.44-1.29-.99-.24-.49,1.21-.39,1.54-.64.98-.74-.4.18-.47.15-.24-.25,5.93-2.15,5.94-2.24.03-.28-.53.21-.87.14-1.01-.21-.65-.08-.62-.3,0-.49,4.96-1.36,9.78-2.9,14.45-4.64.77.81-.17,1.72.19.92l.3-.45c.11-.69.51-.66.73,0,1.21.24,2.14.02,1.67-1.55-.07-.22-1.31-1.34-.32-1.16,1.43.26.91,1.67,1.15,2.53.29,1.05,1.77.99,2.64.91Z" fill="#d98b1c"/>
        <path d="M23.02,28.55c.75-.39,1.44-1.21,1.95-1.36.84-.26,1.84-.05,2.71-.11-.38,1.02-1.36,2.09-.36,3.19l.51-1.94c.65-1.07,2.13-1.28,3.22-.82,1.95.82-.03,4.56-1.29,5.46l-.48-1.96c-.6.51-.27,1.25-.5,1.95-.58,1.73-3.19,2.41-4.77,1.72.41-.68,1.62-.63,1.72-1.6.07-.69-1.61-3.26-.99-4.53-.73-.12-.39.18-.5.6-.24.97.04,1.65-.12,2.59-1.33-.33-1.25-2.1-1.1-3.19-.2.1-.55-.06-.7.4-.16.52.03,1.25-.04,1.81-.73-.25-2.84-.42-3.14-.9-.64-1.03-.4-3.47,1.18-3.52l-.24,2.21h.73c-.31-1.69.79-2.94,2.52-2.4,1.42.44-.18,1.43-.32,2.4Z" fill="#f3c82f"/>
        <path d="M38.94,48.18c-.9-2.11-.07-3.97-.55-6.2-.21-.97-1.46-4.39-2.04-5.07s-2.09-1.26-2.56-1.85c-.43-.55-.33-1.28-.62-1.83-.68-1.3-1.99-.78-.91-3.15.23-.51.76.02.32-1.29,1.82,1.53,2.71,3.83,4.17,5.76.42.56,1.25,1.07,1.57,1.62.16.27,2.07,5.47,2.18,5.92.39,1.66.57,5.59-1.54,6.09Z" fill="#f5b238"/>
        <path d="M28.16,42.05c3.41-.98.02-3.5-.54-5.22-.71-2.18.48-1.67,1.85-2.67.44-.33,1.61-1.72,1.96-1.66,2.24,1.38.27,2.24-.03,3.84s.07,3.27-.47,4.93c-.49,1.5-2.07,2.82-2.77.78Z" fill="#f2c92d"/>
        <path d="M24.49,63.15c-.26.45-.91.77-.73,1.47.15.04.39-.04.49,0,.34-.13.59-.17.49.25.21.07.21.15,0,.25v.49c-.17.27.15.43.98.49l.24.25c.11.29-.22.54-.98.74-.03.03-.2,0-.24.12-.09.46.07.39.49.37.18.69-2.13.48-1.24.47l-.23.26c1.16.32,2.45.36,3.67.74-.07.32-.15.65-.24.98h-2.2s.24-.74.24-.74c-.02-.13-.03-.23-.05-.23-.96-.02-2.62.31-3.59.53l-.52-.3c-.4.03-.83-.05-1.22,0-.7-.26-1.35-.35-1.96-.25-.52-.31-.81-.89-.73,0-.36.22-.59-.2-.73-.49-.01-.41.11-.63.24-.98.19-.38.38-.41.49,0l1.94-.47c.87-.2,1.04-.53.51-1,0-.69,3.51-3.84,3.79-3.81.13.02.25.07.38.12.55-.41,1.26-.15.73.74Z" fill="#e18423"/>
        <path d="M45.55,62.17c.57-.01,1.16-.09,1.71.13.17.07,2.85,2.04,2.96,2.18.75.96-1.11,1.97-1.81,2.39-5.97,3.58-20.04,5.05-26.99,4.63-1.48-.09-2.7-.11-3.79-.99l7.24.26c4.2-.39,8.45-.46,12.65-1.06,4.42-.63,8.92-1.65,12.43-4.47-.92-.27-2.54-2.36-3.11-2.53-.94-.28-2.07.09-3.01.19-.03-.99,1.07-.72,1.71-.73Z" fill="#f6b43b"/>
        <path d="M32.94,34.93c.17.91,2.17,1.45,2.06,2.05-.05.27-1.04,1.06-1.19,2.01-.23,1.49.77,7.39-2.08,6.99-.5-.07-1.89-1.75-1.84-2.06.04-.22.92-.91,1.17-1.3,1.55-2.44.26-5.43,1.88-7.69Z" fill="#f2c92e"/>
        <path d="M23.75,62.41c-1.27.93-2.7,2.6-4.16,3.68l.02.58c-.75.48-1.58.8-2.47.9-.14-.04-.33.02-.49,0,.03-.08-.06-.26.06-.42,2.67-1.55,4.78-3.78,6.92-5.96l.12,1.23Z" fill="#f8b63f"/>
        <path d="M16.4,68.55c.48-.11.51.25.73.49.27.28.57.43.73.86l-.49.12c-.32-.37-.94,0-.98-1.47Z" fill="#f6b13a"/>
        <path d="M25.22,40.81c-1.94-.6-3.66.96-5.63.74.05-.89,1.01-.45.74-1.59-.21-.9-1.22-.39-1.23-1.35,1.19-.25,2.07.56,3.18.73-.22-.83-1.94-1.05-2.2-1.6-.1-.52.2-.4.56-.32.66.14,3.55,2.15,4.17,2.69.25.22.51.24.41.69Z" fill="#d7961f"/>
        <path d="M40.4,60.94c-.22-.04-.5.03-.73,0-.18.11-.31-.03-.42-.42-4.6,1.74-9.45,3.19-14.52,4.35-.25,0-.36-.19-.49-.25,1.73-1.28,4.12-1.41,6.17-2.03,2.69-.82,5.33-1.85,8.03-2.63.11-.68-.11-.37-.37-.49-1.62-.72-3.07-1.47-4-3.11-.5-.88-1.01-4.12-.72-5.06.24-.8,1.82-1.44,2.26-2.15s.28-3.18.75-3.17c.64.01.35,2.54.14,3.08-.48,1.21-2.3,1.74-2.47,2.69-.04.21.24,3.66.29,3.87.08.27,2.07,2.25,2.42,2.49,1.46.99,3.31.52,3.66,2.84Z" fill="#d6971a"/>
        <path d="M40.89,55.3s.11.72-.12.73c-2.5-.25-5.7-.52-5.75-3.68l2.22,2.31c.76.4,3.5.45,3.65.64Z" fill="#d69918"/>
        <path d="M27.42,69.04c.71-.22,2.38-.57,3.07-.52.45.03.33.48.52.52.83.19,2.59-1.06,3.89-1.01.49.02.23.56.7.53,1.36-.11,3.75-1.2,5.19-1.46,1.22-.22,2.72.07,3.59-.06,1.21-.18,2.79-1.65,3.99-1.91.49-.11.71-.09.6.48-1.7.26-3.04,1.59-4.61,2.13-2.72.94-7.51,1.49-10.45,1.8-1.6.17-5.37.65-6.73.49-.19-.02-.71-.34-.98-.37.29-.24.88-.51,1.22-.61Z" fill="#f8c237"/>
        <path d="M25.22,67.56c1.21-.21,2.47-.32,3.69-.6,2.45-.57,7.74-1.87,9.83-2.9,1.19-.59.57-1.04.8-1.4s1.51.21,2.09,0c.14.57-.11.4-.31.56-2.2,1.72-4.24,1.76-6.75,2.55-.55.17-2.95.98-3.23,1.18-.36.25-.08.56.13.61.6.14,1.99-.81,1.83.25l-9.55.49-.24-.49c.67.22,1.26-.17,1.71-.25Z" fill="#f8ba3a"/>
        <path d="M47.75,64.62c-3.31-.04-6.48,1.28-9.8,1.47.82-1.6,6.09-1.23,6.61-1.72.36-.34-.03-.45-.37-.49-.95-.11-1.86.39-2.82.25.86-1.41,1.7-.66,2.82-.71,1.53-.06,2.9-.93,3.55,1.2Z" fill="#f9bd3b"/>
        <path d="M39.67,60.94c.14.33.32.59.24.98h-.98c-.23-.21.7-1.41-.13-1.23-1.01.22-3.03,1.42-4.29,1.84-3.17,1.05-6.54,1.79-9.79,2.58v-.25c4.8-1.56,9.69-2.76,14.38-4.62.55-.07.44.42.56.69Z" fill="#f2a537"/>
        <path d="M24.73,65.6c.24-.08.79.03,1.23-.11,4.15-1.3,8.36-2.43,12.48-3.81.27,1.18-.97.83-1.76,1.06-3.67,1.07-7.31,2.28-10.97,3.36-.89.26-1.78.56-2.69.74-.13-.65.14-.43.49-.6.26-.13,1.1-.59,1.22-.63Z" fill="#f6a83d"/>
        <path d="M25.96,66.34c2.02-.66,4.78-.89,6.78-1.43,1.58-.43,4.06-1.7,5.47-1.91.41-.06.61-.07.74.39-4.55,1.56-9.18,2.98-13.96,3.68.14-.15.86-.7.98-.74Z" fill="#f4a739"/>
        <path d="M21.06,69.28c1.59-.79,2.95-.43,4.65-.49-.01.27-.28.39-.49.49-1.02.5-2.33,1.01-3.55,1-.55,0-1.05-.25-1.59-.27.12-.36.66-.57.98-.73Z" fill="#f6bd36"/>
        <path d="M40.65,66.34c-.17.51-.96.59-1.41.67-.89.16-2.18.29-3.09.36-.37.03-.59.28-.88-.17,1.69-.59,3.59-.7,5.39-.86Z" fill="#f19f33"/>
        <path d="M19.83,69.28c-1.15.14-.8.44-1.96-.25-.16-1.03,1.5-.41,1.96.25Z" fill="#f8b53e"/>
        <path d="M46.28,65.36c-.09.29-1.12.67-1.36.72-.44.08-.89,0-1.33.01.51-.78,1.87-.72,2.69-.73Z" fill="#f4ae35"/>
        <path d="M30.36,29.53c-.36-.09-1.84-.22-1.71-.85.16-.84,2.1-.22,1.71.85Z" fill="#d79f19"/>
        <path d="M39.18,43.39c-.15-1.88-1.6-6.41-3.04-7.64-.09-.08-.92-.68-1.06-.77-.52-.33-.82.22-1.21-1.21-.07-.24.24-.62.14-.77-.12-.2-1.54-.44-.22-.9-.93-.77-.44-1.33.38-.38.97,1.12.51,2.13.6,2.22.03.03.43-.07.64.08.28.2.63.84.92,1.07.17.13.54.03.6.11.16.19-.08.76.07.93.21.23.56-.29,1.11,1.21.51,1.39,1.12,3.35,1.3,4.54.03.19.48.14.51.32.15.99-.1,3.55-.26,4.63-.06.43.13.41-.48.37-.07-1.24.1-2.57,0-3.8Z" fill="#de8b1d"/>
        <path d="M19.59,66.09l1.71.12c-1.33,1.2-2.44,1.8-4.16,1.35.67-.63,1.78-.98,2.45-1.47Z" fill="#d9631a"/>
        <path d="M22.53,67.08c.63.69-2.01.76-2.2.98-.58-.8,1.67-1.38,2.2-.98Z" fill="#f9a942"/>
      </g>
      <g id="_Numebrs" data-name="&amp;lt;Numebrs">
        <path d="M3.46,7.91h-1.51V2.22c-.55.52-1.2.9-1.95,1.14v-1.37c.39-.13.82-.37,1.28-.73.46-.36.78-.78.95-1.26h1.22v7.91Z" fill="#fdc11f"/>
        <path d="M60.54,87.94h1.51v5.69c.55-.52,1.2-.9,1.95-1.14v1.37c-.39.13-.82.37-1.28.73-.46.36-.78.78-.95,1.26h-1.22v-7.91Z" fill="#fdc11f"/>
      </g>
    </g>
  </g>
</svg>