<?xml version="1.0" encoding="UTF-8"?>
<svg id="Layer_2" data-name="Layer 2" xmlns="http://www.w3.org/2000/svg" viewBox="0 0 64 96">
  <g id="Coins">
    <g id="Three">
      <g id="Coin">
        <path d="M46.8,32.1c.2.11.36.11.49,0,.24-.25.62-.24.86,0h.49c.17-.28,1.33-.2.98.24.11.29.32.29.61,0,.17-.34,1.17-.15.86.24.1.15.31.19.61.12.31-.16.44-.04.37.37.05.18.21.1.49-.24.04-.1.08-.1.12,0,.49.11.74.27.74.49.1.03.16.09.2.18.2.4-.23.04.13-.25.13-.11.25-.09.4-.05.39.18.6.28.98.49.01.21.18.29.49.24.34.2.48.32.74.49l-.02.27c-.6.32-.56.39.14.22.28-.26,1.2.5.61.73-.12.51-.11.63.06.36h.31c.24-.64,1.31.32.86.61.08.16.01.35-.21.56.21-.16.4-.19.58-.07.28-.42,1.25.41.86.73-.08.18-.21.36-.41.53.36-.24.66-.29.9-.17.23.1.87.73.49.85-.03.24-.22.43-.57.55.33-.17.6-.19.81-.06.25-.29.78.83.49.85,0,.23-.19.33-.57.32.51-.13.87-.07,1.06.17.21.11.3.44,0,.49,0,.22-.16.37-.46.46.36-.1.59-.05.71.15.39-.1.76.49.49.73-.07.14.05.26.37.37.07.21.08.35.12.49.19.3-.05.37-.32.44.23-.12.42-.11.57.04.23.79.35,1.4.49,2.19-.15.18-.41.25-.78.23.28-.03.46.05.53.26.25.1.29.54,0,.61-.02.21-.22.34-.59.38.41-.13.69-.1.83.11.17.3.21.82,0,1.1-.22.18-.53.22-.94.13.44.02.75.14.94.36.27.27.14,1.3-.25,1.22l-.19.2c-.97-.34-1.18-.13-.07.03l.14.26c.22.27.16,1.32-.25,1.22-.24.04-.28.16-.12.37.34.22-.06,1.24-.49.97-.19.11-.47.07-.84-.11.45.13.73.33.84.6.05.32-.22,1.06-.61.85-.06.21-.28.23-.64.06.19.1.28.25.27.43.13.03.22.11.2.22-.2.78-.49,1.12-1.2.59.25.15.34.32.27.53-.05.21-.21.28-.13.16.23-.35.02,1-.36.45-.18.09-.38-.02-.61-.31.18.21.22.39.12.55.53.28-.17,1.05-.61.97-.2.08-.4-.06-.59-.42.19.24.27.46.22.67.5.36-.87,1.47-1.23.97-.35-.15-.52-.07-.49.24.25.32.25.48,0,.49-.05.35-.9.98-1.1.49-.17.05-.38-.02-.61-.2.2.2.28.39.24.56.03.29-.75.65-.98.49-.23.04-.39.16-.49.37-.18.36-1.42.7-1.59.24-.51-.3-.63-.3-.34.02l-.15.22c.3.47-1.08.7-1.23.24-.17,0-.29-.1-.35-.31.06.26.02.45-.14.55-.23.57-1.42.43-1.84.24-.18-.13-.31-.36-.4-.69.05.33-.02.56-.22.69-.38.18-1.56.33-1.59-.24-.17-.24-.33-.24-.49,0-.19.37-1.69.23-1.35-.24-.13-.38-.2-.41-.23-.09l-.26.09c-.2.33-1.19.09-1.23-.24-.03-.35-.19-.35-.49,0-.31.05-.84-.07-1.1-.24l-.2-.28c.16-.24.02-.31-.42-.21-.29.31-.94-.2-1.1-.49-.15-.15-.26-.22-.49-.24-.23.19-1.12-.55-.98-.85,0-.32-.08-.4-.24-.24l-.25-.12c-.19.3-1.04-.49-.74-.73-.13-.15-.09-.33.13-.54-.24.18-.44.19-.62.06-.2.34-.8-.32-.49-.49.04-.26-.04-.42-.25-.49l-.22.13c-.34-.17-1.15-1.53-.76-1.83-.1-.16-.04-.32.17-.46l-.54.17c-.26-.04-.84-.97-.3-1.14-.82-.11-.74-1.08.08-1.24-.96.08-1.02-.09-1.07-1.03,1-.28,1.09-.34.3-.19-.15,0-.37,0-.47-.12-.57-.63-.02-.77.47-.89.3-.07-.26-.13-.44-.08-.39.12-.41-1.36-.32-1.49.05-.08.15-.11.24-.11-.68.2-.57-1.02-.32-1.33.05-.23.26-.31.62-.24l-.13-.25c-.64.02-.82-.23-.48-.73.23.09.51.13.72,0,0-.24-.16-.45-.49-.61-.35-.01-.26-.63,0-.73.05-.17.05-.34,0-.49-.19-.41.04-1.23.49-1.22.18-.21.17-.27,0-.49-.39.02-.18-.7-.02-.89.09.02.18,0,.27-.08.03-.15-.01-.35-.12-.61.12-.33.25-.57.37-.85.04-.31.36-.32.95-.02-.3-.09-.46-.25-.46-.46-.34.11.1-.83.15-.84l.34.11c.33-.08.41-.25.25-.49-.32-.42.25-1.22.74-.73.11-.16.31-.18.6-.06-.33-.13-.48-.31-.47-.55-.25-.28.38-1.01.61-.61.18-.25.49-.25.91-.03-.17-.04-.2-.16-.18-.34l-.15-.12c-.58-.34.02-.98.52-.73l.31-.1c.23.25.33.16.31-.27-.71-.26.34-1.17.61-.61.16-.12.37-.07.63.17-.3-.28-.34-.5-.14-.66-.25-.37.51-.57.86-.49.55.22.68.23.4.02l.09-.26c-.35-.5.85-.76,1.23-.73.19.05.38.21.55.47-.11-.19-.09-.34.06-.47-.44-.49.57-.88.86-.49l.26-.09c.34.4.46.39.35-.03.06-.44,1.01-.72,1.23-.37.23.16.4.16.49,0-.04-.47,1.09-.5,1.35-.24Z" fill="#e9ca1a"/>
        <path d="M32.33,48.3c0,.18-.04,1.06,0,1.1.04.04.8-.03.98,0,.23.83-.59.34-.74.49-.04.04-.04,1.06,0,1.1.04.04.75-.03.92,0,.18.02.02.45-.18.55-.24.12-.67-.07-.61.24.15.73,1.24-.1,1.35.37.03.16-.19.36-.33.4-.61.18-.73-.32-.65.76.24.03,1.16-.11,1.23.18-.23.63-.96.11-.74,1.03,1.58-.06.37.41.25.68-.06.15.22.5.26.51.1.03.86-.47.96-.04.03.15-.42.53-.49.55-.15.47-.53.23-.74-.12-.57-1.15-.98-2.37-1.23-3.65-.06-.63-.3-.77-.35-1.06-.04-.23.12-.53.07-.92-.04-.32-.28-.61-.3-.79-.04-.3.08-1.31.08-1.74.07-.28.15-.32.25-.12.36,0,.34.41,0,.49Z" fill="#cea531"/>
        <path d="M51.71,32.35c-.06.23-.26.31-.61.24-.12-.43-.71-.15-.86-.24-.17-.02-.38-.02-.61,0-.17-.39-.61-.22-.98-.24-.17.31-.36.35-.49,0-.28,0-.57,0-.86,0-.04.35-.4.33-.49,0-.47.02-.98-.12-1.35.24-.14-.07-.31-.07-.49,0-.07.04-.47-.04-.65,0-.03,0-.32.41-.58.36l-.61.12c-.27.17-.75-.36-.86.49-.23-.07-.43-.07-.61,0,0,.02-.31.24-.33.24-.35.08-.79-.11-.89.49-.18.13-.35.05-.49-.24,3.24-1.77,5.9-2.24,9.63-1.95.32.03,2.08.32,2.15.49Z" fill="#dcc157"/>
        <path d="M61.28,56.7c-1.15,1.66-2.08,2.69-3.68,3.9-.27.16-.43.16-.49,0v-.49c.29.03.45-.06.49-.24l.94-.29.29-.69c.04-.11.29-.29.37-.16.09.15-.25.22,0-.09.25-.35.75-.46.61-.97.19-.05.35-.13.49-.24.4.09.21-.28.25-.61.08,0,.16,0,.24,0,.13-.22.27-.24.49-.12Z" fill="#d8b949"/>
        <path d="M54.16,62.3c.12-.29.25-.29.37,0,.04-.07.08-.07.12,0-1.58.7-3.29,1.33-4.97,1.46-.42.03-.86,0-1.29,0-.3-.17-.2-.28.12-.24.41-.04.9.06,1.3,0,.23-.03.18-.38.54-.25.18.01.35-.07.49-.24.43-.06,1.02.2,1.23-.24.24,0,.36-.03.49-.24h1.35s-.12-.24-.12-.24c.12,0,.25,0,.37,0Z" fill="#dec157"/>
        <path d="M43.98,63.03c.12.04.29.04.49,0,.15.5,1.13.1,1.35.24.2.1.36.1.49,0,.26.49,1.09.15,1.59.24.21-.31.45-.04.49.24-2.4.05-3.68-.1-6.01-.73.06-.17.2-.23.37-.24.42.2.75.31,1.23.24Z" fill="#d8bd51"/>
        <path d="M63.73,46.23c.58,3.17.22,5.75-1.24,8.67-.11.22-.45.55-.48.59-.32-.02-.33-.3-.12-.49.38-.25.29-.38.41-.69.03-.08.19-.13.2-.16-.32-.13-.34-.39,0-.49.56-.35.38-.54.49-.97-.27-.22-.24-.38.12-.37,0-.01.1-.07.12-.18.06-.32-.1-.72.13-1.03.13-.12.17-.28.12-.49v-.16c.41-.15.23-.65.25-1.06-.32-.17-.34-.34,0-.49,0-.36-.01-.73,0-1.1-.13-.13-.21-.29-.25-.49.03-.18-.04-.45,0-.61-.32-.19-.05-.45.25-.49Z" fill="#d9bf4f"/>
        <path d="M32.58,43.55c.24.14.4.3.49.49v.16c-.35.21-.22.57-.49,1.06-.04.2-.04.36,0,.49.05.08-.04.57,0,.73-.2.31-.11.45.25.4l.24.2c-.08.24-.68.07-.74.12-.08.5.04.49.49.61-.08.35-.33.31-.49,0-.07,0-.17.1-.25.12.02-1.54.12-2.88.49-4.38Z" fill="#dfc045"/>
        <path d="M56.62,34.54c1.08.72,1.37,1.09,2.21,1.95.51.53.7.65,1.23,1.34v.12c-.34.56-.63-.32-.26-.03.08.06-.12.04-.23-.09.06-.56-.46-.57-.86-.73-.27-.19-.14-.49.12-.61-.07.38-.29.47-.49.12.05-.47-.41-.71-.86-.61-.07-.17-.2-.29-.37-.37.09-.39-.33-.56-.61-.73-.27-.18-.2-.34.12-.37Z" fill="#dcbc46"/>
        <path d="M62.01,55.48c-.27.46-.4.73-.74,1.22-.28.31-.34.14-.49.12-1.28-.92-.49-1.13.49-.37.22-.36.33-.51.25-.97.12-.33.37-.34.49,0Z" fill="#cba536"/>
        <path d="M61.77,40.5c-.24.11-.36.15-.49-.12v-.16c-.32-.12-.2-.3-.29-.53-.03-.07-.2-.12-.2-.16-.18-.09-.26-.25-.25-.49-.02-.03.04-.22-.04-.32-.19-.24-.37-.16-.45-.53-.23-.07-.23-.17,0-.24v-.12c.76,1,1.13,1.6,1.72,2.68Z" fill="#dac159"/>
        <path d="M35.15,38.19c.27-.03.48.23.37.49-.59-.15-.54.29-.74.73-.18.13-.26.3-.25.49-.46-.09-.04.43-.49.57v.16c-.11.3-.34.23-.49,0,.28-.67,1.02-1.82,1.47-2.44h.12Z" fill="#dab945"/>
        <path d="M37.97,60.48l.79.8c.06.06.18.04.19.05.18-.12.35-.04.49.24.38-.02.47.75,1.1.49.25.22.21.24-.12.24-1.42-.66-1.78-.74-3.07-1.83.15-.26.47-.26.61,0Z" fill="#e0c862"/>
        <path d="M34.54,56.21l.53,1.42.45.28.25.49c-.02.19.27.5.49.49.14.19.3.35.49.49.04.25.49.69.74.73.27.17.16.32-.12.37-1.53-1.29-2.54-2.55-3.56-4.26v-.12c.19.11.53.17.74.12Z" fill="#d3b95c"/>
        <path d="M32.58,52.44c.21.12.21.34.25.54.16.73.35,1.34.49,2.05.01.06.75.6.49,1.06v.12c-.75-1.25-1.08-2.3-1.23-3.77Z" fill="#eee4b0"/>
        <path d="M34.05,40.63c.18.05,1.19.4.86.73-.19.19-1.05-.34-1.35-.24.04-.11-.04-.38,0-.49.21-.1.3-.06.49,0Z" fill="#c79920"/>
        <path d="M62.5,42.7c.05-.3.11-.25.25,0,.04.12.08.25.12.37l-1.47.49c-.12-.51.72-.8,1.1-.85Z" fill="#c59515"/>
        <path d="M39.93,33.81c.3.04.33.41,0,.49-.13.37-.41.18-.64.25-.12.04-.17.23-.22.24-.08.33-.43.21-.61,0,.56-.41.77-.59,1.47-.97Z" fill="#e0c34a"/>
        <path d="M38.46,34.78c.35-.05.39.3.12.49h-.61s0,.61,0,.61c-.09.33-.7.21-.74-.12.45-.43.7-.59,1.23-.97Z" fill="#dbbf55"/>
        <path d="M40.55,62.06c.81-.97.8-.45.61.49-.14.08-.3.08-.49,0-.15-.07-.23-.24-.25-.24.05-.07.07-.18.12-.24Z" fill="#c9a52c"/>
        <path d="M37.24,35.76c.17.11.21.27.12.49-.11-.09-.59.22-.61.25-.16.25.43.25.24.61l-.1.14c-.34-.11-.55-.03-.63.23-.32.01-.46.37-.61.61-.04.34-.28.42-.49.12h-.12c.67-.92,1.39-1.66,2.21-2.44Z" fill="#dab94c"/>
        <path d="M62.99,43.55s.14.14.25.49c-.39.2-.79.29-1.23.24-.15-.61.65-.36.98-.73Z" fill="#c0951d"/>
        <path d="M55.63,33.93c-.29.1-.66.91-.92.85-.49-.11.28-.97.43-1.1.16.09.33.15.49.24Z" fill="#c89614"/>
        <path d="M53.43,32.83c-.11.31-.53.15-.74,0-.04,0-.11.01-.12,0l-.21-.09c.08.19-.06.36-.28.34-.07-.14-.31-.26-.37-.37-.35-.08-.32-.25,0-.37.8-.02,1.05.22,1.72.49Z" fill="#debb5d"/>
        <path d="M56.12,61.57c-.54.31-.91.48-1.47.73h-.12c-.25-.21-.22-.35.12-.37.03-.04.93-.48.98-.49.17-.3.4-.14.49.12Z" fill="#dcc152"/>
        <path d="M33.19,41.97l.98.55c.18.36-.75.09-.86.06-.36.4-.44.24-.25-.49.02-.04.11-.08.12-.12Z" fill="#c5931a"/>
        <path d="M56.62,34.54c-.02.12-.05.27-.12.37-.76.9-1.3-.09-.12-.49.08.05.17.07.25.12Z" fill="#c6951a"/>
        <path d="M53.92,33.08c.08.04.16.08.25.12-.34.07-.29.8-.37.85-.45.3-.48-.44-.37-.73-.35-.39.13-.4.49-.24Z" fill="#c79613"/>
        <path d="M57.6,60.6c-.49.37-.95.68-1.47.97-.26-.06-.37-.3-.12-.49.5.23.82-.39,1.1-.49.11-.04.35.03.49,0Z" fill="#d7bf54"/>
        <path d="M33.07,42.09c.02.12-.04.42,0,.48.03.04.18-.02.24,0v.16c-.39.14-.23.46-.25.81-.09.31-.37.28-.49,0,.12-.49.32-.99.49-1.46Z" fill="#dcc250"/>
        <path d="M41.16,62.55c.42,0,.78.07,1.1.24.31-.16.38.03.12.24-.64-.17-1.11-.2-1.72-.49.16,0,.33,0,.49,0Z" fill="#dec45f"/>
        <path d="M62.5,41.97c-.14.19-.27.09-.25-.12-.19-.12-.36-.3-.49-.49,0-.16.01-.33,0-.49-.35-.04-.32-.24,0-.37.32.6.47.78.74,1.46Z" fill="#ddc97a"/>
        <path d="M53.43,32.83c.27.11.35.18.49.24-.23-.06-.41.03-.49.24h-.16c-.14-.45-.67-.04-.57-.49.22.04.5-.02.74,0Z" fill="#dec150"/>
        <path d="M62.26,41.84s.18.1.25.12c.1.26.16.5.25.73-.08,0-.17-.01-.25,0v-.37s-.24.12-.24.12c.03-.24-.03-.39-.25-.49-.11-.33.02-.39.25-.12Z" fill="#dcc258"/>
        <path d="M43.86,53.78c.28-.41.03-1.39-.3-1.71-.47-.46-2.14-.35-2.63-1.29l-.51-3.04c-.01-.3.36-.52.24-.83-.13-.37-1.64-.46-1.71-1.11-.09-.87,1.59-2.29,1.87-3.13.12-.36.07-.69.18-1.04.15-.48.87-1.51.78-1.89-.02-.1-.26-.14-.36-.28-.64-.94-.84-2.05.22-2.79.74-.52.96-.15,1.63-.2.74-.05,2-.58,2.82-.75,5.85-1.2,10.14.69,10.53,7.04.16,2.68-1.16,6.04-3.81,7.07,0,.24.48.43.67.68.25.34.33.92.63,1.2.24.23.52.2.73.37.15.12,1,1.35,1.03,1.53.06.36-.02.78,0,1.15-.09.2-1.88.13-1.95.06-.03-.03-.03-.1-.01-.18.15-.24.48-.32.99-.22,1.35-.16-.97-2.6-1.72-2.31-.46-.6-1.09-1.04-1.89-1.3-.67-.35-1.75-2.2-.44-2.06,0-.29.04-.54.36-.56.08-.4.46-.27.37.12.13.14.22.35.27.62,2.62,1.18,4.27-4.1,4.15-5.97-.36-5.74-3.47-7.44-8.9-6.77-.89.11-2.38.35-3.01.92.16-.39,1.59-.38,1.78,0,.05-.05.09-.08.14-.09.37-.05,1.38-.05,1.74.09.34.13,1.14.74.88,1.1-.22.48-.83.34-.86-.24-.71-.27-1.32-.19-1.8.23-.02,1.84-1.42.93-.68-.47-.61-.04-1.52-.05-.75.58l.08,1.14c.45.71.42,1.26-.09,1.64,1.19.11,1.51-.66,1.65-1.71.42-.47.79-.09.79.44l.32-.02c.38-.48.76.2.25.37.05.03.09.07.12.12.17.27-1.57,1.25-1.86,1.41.14.59.43,1.14.86,1.66.35.62.41,1.44-.32,1.79.54,0,.83-.39.87-1.18l.17-2.02c.1-.46.31-.73.65-.8.21-.5.73.04.25.24.14.27.13.61-.03,1.01.06,1.4-.32,2.57-1.14,3.49,1.09,1.32,1.56.65,1.43-2,.02-.49.22-1.72.84-1.41.2-.3.49-.09.37.24l.03.28c-.41.47-.53,1.08-.37,1.81.04,1.12-.28,1.99-.95,2.62-.22.8-.83.69-1.06-.05-.65-.56-1.24-1.17-1.79-1.83-.61-.91-.91-1.42.51-1.34-.53-.69-.9-1.43-1.11-2.22-.59.05-2.5-.31-2.29-1.11.06-.24.1-.39.38-.43,1.99.23.03-.49-.64-.7-.34.68-.61,1.41-.8,2.15l-.25.09c.16-.39,1.59-.38,1.78,0,.06-.08.14-.2.22-.18.39.09,1.59.7,1.81,1.04.93,1.43-1.06.52-1.58-.02-.21-.22-2-.32-2.09-.26-.37.9-.91,1.72-1.62,2.46-.74.96-.19.9.69.74l.55.09c-1.14-.48-.37-1.52.51-.76.71.62.45,1.56-.51,1.65l.13.48c-.38.76.59.73.46,0,1.26-.66,1.75,2.55.34,1.23-.07.44-.3.63-.69.9l.1.48c-.47.92.86,1.3,1.58,1.38,2.8.32,3.49-.55,4.71-2.88.25-.43.95-1.08,1.19-.36.05.16-1.31,2.31-1.51,2.58-.96,1.2-1.68,1.49-3.24,1.57.43.46.67,3.17.39,3.52-.05.07-.18.03-.28-.02-.22-.2-.15-.7,0-.97-.11-.28-.27-.57-.49-.85Z" fill="#c89810"/>
        <path d="M53.92,54.63c.63.3,1.35-.02,1.96.12.08.02,1.14.78,1.3.9,1.65,1.23-2.25,2.68-3.12,2.96-2.94.96-9.57,1.71-12.59,1.24-1.18-.18-2-.81-1.78-2.11.11-.64,1.87-1.67,2.45-2.2.44-.39,1.41-1.32,1.72-1.77.67.06.48.32.49.85-.04.26-.12.34-.25.24-.14-.03-.27-.08-.23-.21-1.08,1.1-2.22,2.12-3.43,3.05l-.26-.03c.32.23.32.4,0,.49.19.05.28.21.27.49.75-.25,1.5-.49,2.27-.72,1.01.5-.81,1.13-1.28,1.25,4.19.42,11.4,0,14.98-2.28,1.24-.79-.61-1.46-1.39-1.67-.46.08-.79,0-.99-.22-.33.19-.53.19-.61,0-.26-.07-.53-.07-.83,0l-.15-.24c-.29.16-.5.16-.61,0-.2.04-.32-.07-.36-.35-2.14.7-4.32,1.35-6.54,1.94l-.34-.13c-.26-.03-.37-.08-.25-.37.22-.17.45-.34.73-.42,1.96-.58,3.9-1.19,5.76-1.78-.04.12,0,.08.14-.11.26-.15.59-.07.98.24l.26.08c.03.54.8.45.6-.19-.78-.88.1-1.47.69-.44.13.48.26.95.41,1.4Z" fill="#d68321"/>
        <path d="M61.77,40.5c.03.06,0,.26,0,.37l-1.59.12c-.14-.55.67-.55,1.1-.61.12-.02.39-.12.49.12Z" fill="#c89716"/>
        <path d="M63.73,48.91c0,.16,0,.29,0,.49-1.95-.02-1.95-.92,0-.49Z" fill="#c99412"/>
        <path d="M63.48,50.61c.34.09.33.53.06.59-.06.01-.14-.1-.18-.1-.27-.02-1.29-.1-1.1-.55.07-.17.23-.19.4-.16.13.02.64.17.83.22Z" fill="#c69514"/>
        <path d="M36.99,37.1c.27.1,1.02.41.41.6-.29.09-.69-.25-1.14-.23-.3-.79.17-.58.74-.37Z" fill="#c99518"/>
        <path d="M63.12,52.32s-.09.23-.12.37c-2-.39-1.78-1.37.12-.37Z" fill="#c9960d"/>
        <path d="M39.08,34.78c.02.22.68.79.49.97s-.88-.33-.98-.49c-.03-.05-.14-.46-.12-.49.19-.16.58,0,.61,0Z" fill="#c99a19"/>
        <path d="M62.26,41.84c-.14.01-.22.12-.25.12-.24.04-1.04.24-1.1-.06-.05-.22.73-.53.86-.55.38-.05.53.11.49.49Z" fill="#c89619"/>
        <path d="M60.54,39.04s.24.02.31.11c.08.11-.08.29-.07.37-1.47.78-1.76.08-.25-.49Z" fill="#c79515"/>
        <path d="M35.64,38.07c.08.01.93.45.86.67-.07.33-.8.05-.98-.06s-.38-.27-.37-.49c.14-.01.38-.14.49-.12Z" fill="#c99612"/>
        <path d="M59.56,37.83c.08-.02.16-.12.19-.12.08,0,.05.2.14.24h.17c.01.08-.02.17,0,.24-.28.17-1.37.81-1.16.12.1-.32.39-.4.67-.49Z" fill="#c89e1f"/>
        <path d="M63.36,44.89c.24.6-1.28.74-1.35.42-.09-.4,1.1-.48,1.35-.42Z" fill="#cb9510"/>
        <path d="M37.97,35.88c.16.08.5.68.37.85-.33-.14-.68-.29-.98-.49-.06-.04-.25-.15-.24-.18,0-.02.11-.3.12-.31.03-.02.69.1.74.12Z" fill="#c4961b"/>
        <path d="M54.65,61.94s-.04.28-.12.37c-.12,0-.25,0-.37,0,.07-.29-1.02-.94-.43-1.1.44-.12.56.6.92.73Z" fill="#c79418"/>
        <path d="M63.73,47.81c-.41.02-.9.32-1.23-.06-.06-.28.79-.42.98-.42.59-.03.25.42.25.49Z" fill="#c99616"/>
        <path d="M33.07,47.08c-.85.22-1.22-.51-.49-.61.36-.05.64,0,.86.3,0,.02-.34.3-.37.3Z" fill="#c99919"/>
        <path d="M43.74,32.71c.22.19.57.62.18.85l-.8-.73c.1-.06-.03-.67.61-.12Z" fill="#c99713"/>
        <path d="M62.5,53.66s.02.44,0,.49c-.25-.06-1.05-.33-1.1-.55,0-.25.2-.33.43-.31.04,0,.66.34.68.37Z" fill="#c8980c"/>
        <path d="M36.26,58.89c.11-.09.86-.49.98-.36.15.15-.43.83-.49.85-.43.17-.75-.26-.49-.49Z" fill="#bf8f10"/>
        <path d="M58.7,37.1c-.09.12-.75.48-.86.36-.12-.31.25-.74.49-.85.09-.04.35,0,.49-.12,0,.21,0,.43-.12.61Z" fill="#c5980f"/>
        <path d="M60.29,57.43c.1.21.05.27,0,.49-.1.07-.41-.17-.49-.24-.23-.2-.57-.61-.18-.85.17-.04.6.45.67.61Z" fill="#c9960f"/>
        <path d="M48.52,63.52s-.11.24-.12.24c-.14.09-.39-.22-.49-.24-.27-1.57.71-1.05.61,0Z" fill="#c69517"/>
        <path d="M59.19,58.65c.03.06.15.21.12.24-.21.03-.28.11-.49,0-.28-.15-.74-.88-.3-.97.22-.05.57.55.67.73Z" fill="#c89415"/>
        <path d="M42.27,33.32c.62,1.02-.44.93-.61,0,0-.02-.14-.22-.12-.24.41-.12.49-.15.73.24Z" fill="#c49518"/>
        <path d="M56,61.08c.07.11.19.42.12.49-.08.09-.44-.12-.49-.12-.99-.56-.27-1.28.37-.37Z" fill="#c59414"/>
        <path d="M52.57,62.55c.22.55-.2.7-.49.24-.57-.89.09-1.21.49-.24Z" fill="#c79514"/>
        <path d="M57.6,59.87c.52.76-.12.73-.49.24-.48-.62-.09-1.1.49-.24Z" fill="#c79411"/>
        <path d="M63.73,46.23c.05.18-.21.37-.25.49-1.72.08-.87-.75.25-.49Z" fill="#ca9418"/>
        <path d="M61.89,55c.12.1.13.34.12.49-.15-.02-.35.03-.49,0-.51-.11-.92-.8-.24-.68.08.01.58.17.61.19Z" fill="#c69714"/>
        <path d="M33.07,43.55c.86.03,1.15.63,0,.49-.26-.03-.74-.22-.49-.49.02-.02.4,0,.49,0Z" fill="#c29519"/>
        <path d="M39.93,33.81c.2-.2.39.15.49.24.9.91-.29.91-.49.24-.02-.06-.02-.47,0-.49Z" fill="#c79813"/>
        <path d="M42.76,62.79c-.05.12.08.42-.37.24-.04-.01-.08-.22-.12-.24.17-1.01,1.02-1.27.49,0Z" fill="#c49514"/>
        <path d="M50.85,63.03c.08.64-.29.69-.49.24-.4-.91.37-1.22.49-.24Z" fill="#c4941d"/>
        <path d="M32.58,45.25l.86.06-.86.43s-.34.1-.25-.29c.02-.09.21-.14.25-.2Z" fill="#c69618"/>
        <path d="M44.47,63.03c-.13.3-.54.53-.61.18,0-.03.11-.12.12-.18.17-1.15.83-.78.49,0Z" fill="#c79314"/>
        <path d="M34.78,39.41c.17.03.79.45.61.61-.27,0-.62,0-.86-.12-.45-.21-.37-.61.25-.49Z" fill="#c89116"/>
        <path d="M39.44,61.57c-.7.04-.23,0-.49-.24.27-.14.28-.76.67-.61.44.17-.13.61-.18.85Z" fill="#ca9912"/>
        <path d="M51.71,32.35c.03.08-.04.3,0,.37-.23.2-.37.63-.74.61-.05-.06.06-.61.12-.73.15-.33.3-.24.61-.24Z" fill="#c29516"/>
        <path d="M32.82,47.81c.21.05.8-.12.44.37-.15.2-.68.09-.93.11v-.49c.16-.02.33.01.49,0Z" fill="#c7941a"/>
        <path d="M45.82,63.28c-.05-.76.6-.99.49,0-.01.12.06.35-.06.37-.46.06-.38-.33-.43-.37Z" fill="#c69519"/>
        <path d="M57.11,35.63c.45-.31.68-.08.37.37-.55.79-1.17.18-.37-.37Z" fill="#c59514"/>
        <path d="M37.97,60.48c-.15.07-.55.09-.61,0-.05-.06.06-.3.12-.37.18-.17.88-.41.86.06,0,.02-.32.28-.37.31Z" fill="#c79713"/>
        <path d="M49.62,32.35c.02-.1.17-.24.31-.25.43-.03.28.24.3.25-.14.75-.81.94-.61,0Z" fill="#c59719"/>
        <path d="M44.96,32.35s-.1-.21.18-.25c.45-.06.26.1.31.25.38,1-.38.74-.49,0Z" fill="#c59615"/>
        <path d="M48.64,32.1l-.31.85-.18-.85c.16,0,.27-.01.49,0Z" fill="#c89614"/>
        <path d="M52.08,33.08c.07-.29.07-.61.43-.49.1.03.04.23.06.25.12.4-.48,1.05-.61.54-.02-.09.1-.22.12-.3Z" fill="#c5971a"/>
        <path d="M47.29,32.1c-.03.53.22.85-.49.73v-.73c.22,0,.36,0,.49,0Z" fill="#c59712"/>
        <path d="M35.52,57.92c.32-.16.76-.28.62.18,0,.02-.35.3-.37.3-.12.04-.34-.02-.49,0-.04-.26.01-.37.24-.49Z" fill="#c1960d"/>
        <path d="M44.35,55.6c.2-.13.12-.46.12-.67.01-.94.03-2.18-.61-2.92,0-.2,1.61-.28,1.94-.39.59-.19,1.08-.77,1.47-1.22.11-.43,1.54-2.19,1.49-2.41-.03-.15-.16-.2-.31-.07-1,.89-1.36,2.87-2.78,3.33-.87.28-2.65.32-3.5-.02-.11-.05-.86-.5-.91-.56-.25-.33-.02-.55-.01-.86,0-.18-.15-.39-.09-.59.04-.15.82-.5.6-.69-.19-.16-.91.7-.86-.24.31.13,1.12-.15,1.28-.11.17.04.14.51.56.35,0-.34-.23-1.08-.57-1.2-.52-.18-.14.25-.18.4-.07.32-.94.16-1.21.19.04-.32.28-.4.26-.79-.02-.42-.37-.43-.38-.79,1.37.51,1.59-1.07.31-1.34-.62.49.64.48.55.91-.07.33-.68.05-.91.06-.5.02-1.34.42-1.27-.51.54-1.11,1.91-1.99,1.94-3.25.62.26,1.3.03,1.97.18s1.27.88,1.96,1.04c.2-.21-.52-.75-.67-.85-.14-.09-1.27-.61-1.35-.61h-1.78c-.03-.31.77-2.35.88-2.42.46-.29.9.21,1.17.33.24.11,1.22.34.78.68-.54.42-1.59-.32-1.16.55.32.65,2.05.55,2.13.62.04.04.24.88.33,1.07.33.67,1.83,1.96-.2,1.6-.11.11.48.99.61,1.16.41.51,1.17,1.16,1.65,1.65.14.14.14.45.25.48.42.14.26-.24.42-.43.32-.37.68-.6.83-1.13.35-1.21-.49-2.66.65-3.44.5-.25,1.15.98.89,1.46.39.41.57.94.54,1.59l.05,1.84c.17.27.17.47,0,.59,0,.13-.13.34-.12.54.07.84,2.01,1.59,2.33,2.32.06.15-.03.23-.18.18-.11-.03-1.44-.72-1.53-.8-.37-.31-.78-1.4-1.05-1.51-.3-.12-.17.36-.13.49.54,1.47,1.5,1.33,2.34,1.94.2.15.3.48.43.56.16.1.34-.05.49,0,.35.13,1.54,1.27,1.66,1.63.44,1.41-.53,1.1-1.54,1.1-.8-.38-.22-1.35-1.04-1.7-.45-.19.17.59.18.67.13.66-.22,1.04-.86.73-.29-.14-.19-.45-.24-.55l-.51-.27c-.44-.22-.59-.21-.47.02.2.24.05.28-.16.39-.42.22-1.3.47-1.81.64-1.53.52-3.09.92-4.66,1.28-.21.04-.19-.17,0-.24Z" fill="#e8ca1b"/>
        <path d="M51.59,48.3c.07-.24.3-.36.72-.36-.27-.32-.19-.58.21-.68-.38-.34-.26-1.19.3-1.16.12-.06.72-.92.69-.97-.5-.19-.5-.64.02-1.35-.62,1.24-1.71.69-1.08-.48l-.11-.12c-.41.58-.75.19-.89-.37l-.37-1.73c-.89.4-1.66-1.24-1.59-2.06-.4.05-.96-.43-.84-.84-.33-.34-.58-.78-1.1-.92-.57-.15-.98.04-1.42.01-.13,0-.22-.19-.24-.19h-1.78s-.12-.29-.12-.31c0-.23,1.62-.56,1.94-.63,5.67-1.28,9.95.35,10.32,6.6.12,1.95-1.09,5.78-3.1,6.54-.77.29-1.94-.03-1.56-1Z" fill="#e9ca1c"/>
        <path d="M48.64,38.19c.24.24.51.47.73.73,0-.3-.06-.6-.15-.88-.07-.23-.62-.83-.15-.82.93.7.49,1.79.77,2.65.06.17.83,1.33,1.01,1.13.26-1.1-.34-1.85-.61-2.74-.06-.2.01-.19.18-.18.38.02.72,1.3.77,1.68.13,1.07.03,1.24.36,2.32.13.42.05.95.47,1.24.88-.49.16-4.1.31-4.26.15-.02.22,0,.3.12.15.24.34,2.23.31,2.62-.03.6-.23,1.01-.49,1.52-.3.44-.23.89.19,1.35l.11.78c.6.13.53.38.06.67-.21.35-.33.49-.24.97,1.57-.5,2.33-1.85,2.88-3.29.28-.05.17.09.15.27-.15,1.52-1.8,3.17-3.28,3.5.22.51.73-.1,1.16,0,.11.03.25.18.07.3-.16.11-1.72.43-1.96.43-.03,0-.23-.19-.37-.12,0-.12-.22-.33-.24-.55-.04-.46.06-3.1-.44-3.22-.69-.16-.77,1.77-.86,2.08-.06.22-.04.28-.31.24-.03-.74-.04-1.56.44-2.18.18-.24.54-.38.61-.49.23-.35-.42-1.09-.68-1.34-.11-.11-.36-.22-.37-.24-.65-.25-1.02-.61-1.1-1.1-.03-.03.07-.33-.25-.24-.15-.09-.2-.27-.18-.54-.28-.09-.38-.23-.31-.43-.06-.1.15-.46-.25-.37-.1-.26-.03-.57.19-.93,0-.4.11-.7.3-.9.07.07.09.21.22.24.19.04.44-.02.64,0Z" fill="#d38d1b"/>
        <path d="M47.29,39.77c-.07.11-.45.79-.61.61.09-.07.12-1.33-.24-.97-.2.2.02,1.16-.74,1.64-.62.39-1.16.26-1.83.19.11-.31.58-.31.75-.54.31-.41-.15-.82-.23-1.26-.06-.33.05-.92-.09-1.13-.22-.34-.41,0-.41.3,0,.11.31,1.19-.08,1.04-.54-.22-.45-.99-.43-1.46-.58-.08-.29.89-.37.97-.37.03-.71-.14-1.06-.2-.26-.05-.53.24-.65-.47s.11-1.43.85-1.64c.07.07-.66,1.55.25,1.58-.1-.72-.02-1.84.99-1.53s-.11.92.12,1.17c.41-.03.52-.49.95-.58.39-.09.86,0,1.26-.02-.22.45-.63,1.14-.18,1.58.32-.25.1-.64.25-.97.23-.53,1.42-.65,1.85-.37.09.06.12.2.17.25.09.74-.11,1.23-.49,1.83Z" fill="#e9c620"/>
        <path d="M48.03,41.11c-.14.38-.38.57-.46,1.07-.11.7.11,3.2-1.07,3.21-.16,0-.36-.04-.43-.2-.16-.37.4-.23.54-.67.36-1.15-1.31-2.03-1.02-2.96.04-.12,1.77-1,1.95-1.42.1.17.84.04.49.97Z" fill="#e9c81d"/>
        <path d="M48.28,41.36c.13.12.44.38.62.54.17.14.58.29.6.32.04.05-.14.19-.12.24-1.25.79.03,3.75-1.23,4.32-.47.21-1.34-.71-1.32-.98,0-.11.41-.39.51-.55.84-1.3.34-2.53.93-3.89Z" fill="#eac722"/>
        <path d="M44.35,55.6c0,.08-.02.19,0,.24.02.06.33.15.25.37l-.07.3c-.67.5-2.22,1.47-2.97,1.78-.43.17-1.3.5-1.38-.12,0-.13-.03-.38,0-.49.77-.09,1.61-.23,2.15-.89.24-.69.94-2.1,1.52-1.06-.06-.47.03-.75.26-.85l.25-.24c0,.32-.03.67,0,.97Z" fill="#e0742f"/>
        <path d="M51.83,54.75c-.12.21.08.21.61,0,.36,0,1.11-.14.98.24-.11.22.09.22.61,0,.43-.02,1.2-.06,1.59.07.09.03,1.35.93,1.43,1.02.44.52-.52,1.03-.94,1.28-2.83,1.62-11.75,2.81-14.91,2.04-.09-.02-.41.03-.29-.2.12-.22,1.23-.5,1.54-.67.09-.05.48-.22.3-.37-.13-.11-1.84.73-2.28.73-.39,0-.29-.47-.3-.73.21.14.4.13.64.1,1.18-.18,2.65-1.58,3.78-2.04,1.02-.42,2.5-.65,3.61-.98.54-.16,3.07-1.22,3.38-1.03.15.09.21.39.25.56Z" fill="#d84227"/>
        <path d="M40.18,57.67c.07-.27,1.61-1.32,1.96-1.64.62-.55,1.16-1.21,1.78-1.77.29-.12.18.47.18.61.03.79.1,1.4-.86,1.58-.06-.05.79-1.14.08-.84-.46.19-.62,1.17-.9,1.45-.34.35-1.79,1.15-2.24.6Z" fill="#d0491e"/>
        <path d="M50.97,53.53c-.66-.21-1.02-.31-1.54-.85-.69-.72-1.12-2.48-.7-3.39.17-.35.84-.51,1.02-.81.21-.34.2-1.12.24-1.53h.37c.02.49,0,1.1-.22,1.55-.24.49-1,.76-1.1,1.1-.08.26.04,1.87.12,2.14.04.13.92,1,1.09,1.11.62.42,1.3.23,1.71.92-.34,0-.67-.15-.98-.24Z" fill="#c79c0e"/>
        <path d="M54.04,55c-2,1.48-4.34,2.44-6.56,3.53l-.18-.18c.12-.29,3.45-1.78,4.03-2.09.48-.25,1.69-1.18,2.1-1.27.16-.03.42,0,.61,0Z" fill="#e26f37"/>
        <path d="M51.83,54.75c.18-.02.42,0,.61,0-.9.69-2.05.89-3.09,1.23-.09.03-.1.19-.19.22-.37.11-1.32.36-1.68.38-.14,0-.27-.01-.18-.18.13-.27,1.42-.5,1.81-.64.73-.26,2.06-.92,2.73-1.01Z" fill="#e46f36"/>
        <path d="M44.47,44.28c-1.01-.29-1.81.5-2.82.37-.09-.32.32-.28.37-.45.26-1-.51-.35-.61-1.01l1.47.24c-.09-.41-.86-.44-.98-.67-.14-.27.39-.2.52-.15.11.04,1.66,1.18,1.85,1.33.13.11.26.12.2.34Z" fill="#cb9418"/>
        <path d="M49.74,50.01c.06.05.18.88.82,1.2.57.29,1.68-.05,1.89.62-1.33-.06-3-.15-3.07-1.83.1.01.33-.03.36,0Z" fill="#c79a0f"/>
        <path d="M52.45,43.31c-.5,1.78,1.15.8.98-.36.56,0,.39.83.25,1.17-.08.21-.37.44-.38.48-.07.32.47.28.49.3.17.18-.62,1.26-.98,1.22.05-.09.28-.33.25-.36-.78,0-.5-.48-.62-.91-.13-.47-.4-.72-.21-1.33.05-.15.21-.18.22-.2Z" fill="#ddac16"/>
        <path d="M51.76,43.75s.17.03.19.13c.2.85.41,2.52.25,3.38-.04.19-.42.64-.57.66-.68.12-.34-2.35-.42-2.84-.08-.52-.84-2.45-1.21-2.82-.93-.9-.77-.52-1.55-1.75-.11-.18-.65-.66-.66-.71-.1-.4.41-.85.37-1.37.45-.32,1.66,2.09,1.91,2.42.95,1.27,1.11,1.27,1.69,2.89Z" fill="#d76221"/>
        <path d="M54.04,56.46c.15.13-.19.33-.28.39-1.02.65-3.05,1.08-4.26,1.19-.04-.26.1-.3.31-.36.45-.13,1.03-.16,1.53-.31.37-.11,2.59-1.01,2.7-.91Z" fill="#e57137"/>
        <path d="M56.49,55.97c.23.21-1.31,1-1.45,1.06-.13.06-1.39.65-1.37.22,0-.15,2.46-1.16,2.82-1.28Z" fill="#e57038"/>
        <path d="M45.7,58.16c.05.28-.13.27-.31.36-.39.18-.98.4-1.41.37-.34-.28,1.49-.88,1.72-.73Z" fill="#e56e38"/>
      </g>
      <path d="M0,5.82l1.46-.18c.05.37.17.66.38.85.2.2.45.29.74.29.31,0,.57-.12.79-.35.21-.24.32-.55.32-.96,0-.38-.1-.68-.31-.9s-.45-.33-.75-.33c-.19,0-.42.04-.69.11l.17-1.23c.41.01.72-.08.93-.27.21-.19.32-.44.32-.75,0-.27-.08-.48-.24-.63-.16-.16-.37-.24-.63-.24s-.48.09-.66.27c-.18.18-.29.44-.33.78l-1.39-.24c.1-.48.24-.86.44-1.14.2-.29.47-.51.82-.67.35-.16.74-.24,1.17-.24.74,0,1.34.24,1.78.71.37.39.55.82.55,1.31,0,.69-.38,1.24-1.13,1.65.45.1.81.31,1.08.65.27.34.41.74.41,1.22,0,.69-.25,1.28-.76,1.77-.5.49-1.13.73-1.89.73-.71,0-1.3-.21-1.77-.62s-.74-.95-.82-1.61Z" fill="#fdc11f"/>
      <path d="M64,90.18l-1.46.18c-.05-.37-.17-.66-.38-.85-.2-.2-.45-.29-.74-.29-.31,0-.57.12-.79.35-.21.24-.32.55-.32.96,0,.38.1.68.31.9s.45.33.75.33c.19,0,.42-.04.69-.11l-.17,1.23c-.41-.01-.72.08-.93.27-.21.19-.32.44-.32.75,0,.27.08.48.24.63.16.16.37.24.63.24s.48-.09.66-.27c.18-.18.29-.44.33-.78l1.39.24c-.1.48-.24.86-.44,1.14-.2.29-.47.51-.82.67-.35.16-.74.24-1.17.24-.74,0-1.34-.24-1.78-.71-.37-.39-.55-.82-.55-1.31,0-.69.38-1.24,1.13-1.65-.45-.1-.81-.31-1.08-.65-.27-.34-.41-.74-.41-1.22,0-.69.25-1.28.76-1.77.5-.49,1.13-.73,1.89-.73.71,0,1.3.21,1.77.62s.74.95.82,1.61Z" fill="#fdc11f"/>
      <g id="Coin-2" data-name="Coin">
        <path d="M17.35,6.11c.2.11.36.11.49,0,.24-.25.62-.24.86,0h.49c.17-.28,1.33-.2.98.24.11.29.32.29.61,0,.17-.34,1.17-.15.86.24.1.15.31.19.61.12.31-.16.44-.04.37.37.05.18.21.1.49-.24.04-.1.08-.1.12,0,.49.11.74.27.74.49.1.03.16.09.2.18.2.4-.23.04.13-.25.13-.11.25-.09.4-.05.39.18.6.28.98.49.01.21.18.29.49.24.34.2.48.32.74.49l-.02.27c-.6.32-.56.39.14.22.28-.26,1.2.5.61.73-.12.51-.11.63.06.36h.31c.24-.64,1.31.32.86.61.08.16.01.35-.21.56.21-.16.4-.19.58-.07.28-.42,1.25.41.86.73-.08.18-.21.36-.41.53.36-.24.66-.29.9-.17.23.1.87.73.49.85-.03.24-.22.43-.57.55.33-.17.6-.19.81-.06.25-.29.78.83.49.85,0,.23-.19.33-.57.32.51-.13.87-.07,1.06.17.21.11.3.44,0,.49,0,.22-.16.37-.46.46.36-.1.59-.05.71.15.39-.1.76.49.49.73-.07.14.05.26.37.37.07.21.08.35.12.49.19.3-.05.37-.32.44.23-.12.42-.11.57.04.23.79.35,1.4.49,2.19-.15.18-.41.25-.78.23.28-.03.46.05.53.26.25.1.29.54,0,.61-.02.21-.22.34-.59.38.41-.13.69-.1.83.11.17.3.21.82,0,1.1-.22.18-.53.22-.94.13.44.02.75.14.94.36.27.27.14,1.3-.25,1.22l-.19.2c-.97-.34-1.18-.13-.07.03l.14.26c.22.27.16,1.32-.25,1.22-.24.04-.28.16-.12.37.34.22-.06,1.24-.49.97-.19.11-.47.07-.84-.11.45.13.73.33.84.6.05.32-.22,1.06-.61.85-.06.21-.28.23-.64.06.19.1.28.25.27.43.13.03.22.11.2.22-.2.78-.49,1.12-1.2.59.25.15.34.32.27.53-.05.21-.21.28-.13.16.23-.35.02,1-.36.45-.18.09-.38-.02-.61-.31.18.21.22.39.12.55.53.28-.17,1.05-.61.97-.2.08-.4-.06-.59-.42.19.24.27.46.22.67.5.36-.87,1.47-1.23.97-.35-.15-.52-.07-.49.24.25.32.25.48,0,.49-.05.35-.9.98-1.1.49-.17.05-.38-.02-.61-.2.2.2.28.39.24.56.03.29-.75.65-.98.49-.23.04-.39.16-.49.37-.18.36-1.42.7-1.59.24-.51-.3-.63-.3-.34.02l-.15.22c.3.47-1.08.7-1.23.24-.17,0-.29-.1-.35-.31.06.26.02.45-.14.55-.23.57-1.42.43-1.84.24-.18-.13-.31-.36-.4-.69.05.33-.02.56-.22.69-.38.18-1.56.33-1.59-.24-.17-.24-.33-.24-.49,0-.19.37-1.69.23-1.35-.24-.13-.38-.2-.41-.23-.09l-.26.09c-.2.33-1.19.09-1.23-.24-.03-.35-.19-.35-.49,0-.31.05-.84-.07-1.1-.24l-.2-.28c.16-.24.02-.31-.42-.21-.29.31-.94-.2-1.1-.49-.15-.15-.26-.22-.49-.24-.23.19-1.12-.55-.98-.85,0-.32-.08-.4-.24-.24l-.25-.12c-.19.3-1.04-.49-.74-.73-.13-.15-.09-.33.13-.54-.24.18-.44.19-.62.06-.2.34-.8-.32-.49-.49.04-.26-.04-.42-.25-.49l-.22.13c-.34-.17-1.15-1.53-.76-1.83-.1-.16-.04-.32.17-.46l-.54.17c-.26-.04-.84-.97-.3-1.14-.82-.11-.74-1.08.08-1.24-.96.08-1.02-.09-1.07-1.03,1-.28,1.09-.34.3-.19-.15,0-.37,0-.47-.12-.57-.63-.02-.77.47-.89.3-.07-.26-.13-.44-.08-.39.12-.41-1.36-.32-1.49.05-.08.15-.11.24-.11-.68.2-.57-1.02-.32-1.33.05-.23.26-.31.62-.24l-.13-.25c-.64.02-.82-.23-.48-.73.23.09.51.13.72,0,0-.24-.16-.45-.49-.61-.35-.01-.26-.63,0-.73.05-.17.05-.34,0-.49-.19-.41.04-1.23.49-1.22.18-.21.17-.27,0-.49-.39.02-.18-.7-.02-.89.09.02.18,0,.27-.08.03-.15-.01-.35-.12-.61.12-.33.25-.57.37-.85.04-.31.36-.32.95-.02-.3-.09-.46-.25-.46-.46-.34.11.1-.83.15-.84l.34.11c.33-.08.41-.25.25-.49-.32-.42.25-1.22.74-.73.11-.16.31-.18.6-.06-.33-.13-.48-.31-.47-.55-.25-.28.38-1.01.61-.61.18-.25.49-.25.91-.03-.17-.04-.2-.16-.18-.34l-.15-.12c-.58-.34.02-.98.52-.73l.31-.1c.23.25.33.16.31-.27-.71-.26.34-1.17.61-.61.16-.12.37-.07.63.17-.3-.28-.34-.5-.14-.66-.25-.37.51-.57.86-.49.55.22.68.23.4.02l.09-.26c-.35-.5.85-.76,1.23-.73.19.05.38.21.55.47-.11-.19-.09-.34.06-.47-.44-.49.57-.88.86-.49l.26-.09c.34.4.46.39.35-.03.06-.44,1.01-.72,1.23-.37.23.16.4.16.49,0-.04-.47,1.09-.5,1.35-.24Z" fill="#e9ca1a"/>
        <path d="M2.88,22.3c0,.18-.04,1.06,0,1.1.04.04.8-.03.98,0,.23.83-.59.34-.74.49-.04.04-.04,1.06,0,1.1.04.04.75-.03.92,0,.18.02.02.45-.18.55-.24.12-.67-.07-.61.24.15.73,1.24-.1,1.35.37.03.16-.19.36-.33.4-.61.18-.73-.32-.65.76.24.03,1.16-.11,1.23.18-.23.63-.96.11-.74,1.03,1.58-.06.37.41.25.68-.06.15.22.5.26.51.1.03.86-.47.96-.04.03.15-.42.53-.49.55-.15.47-.53.23-.74-.12-.57-1.15-.98-2.37-1.23-3.65-.06-.63-.3-.77-.35-1.06-.04-.23.12-.53.07-.92-.04-.32-.28-.61-.3-.79-.04-.3.08-1.31.08-1.74.07-.28.15-.32.25-.12.36,0,.34.41,0,.49Z" fill="#cea531"/>
        <path d="M22.26,6.35c-.06.23-.26.31-.61.24-.12-.43-.71-.15-.86-.24-.17-.02-.38-.02-.61,0-.17-.39-.61-.22-.98-.24-.17.31-.36.35-.49,0-.28,0-.57,0-.86,0-.04.35-.4.33-.49,0-.47.02-.98-.12-1.35.24-.14-.07-.31-.07-.49,0-.07.04-.47-.04-.65,0-.03,0-.32.41-.58.36l-.61.12c-.27.17-.75-.36-.86.49-.23-.07-.43-.07-.61,0,0,.02-.31.24-.33.24-.35.08-.79-.11-.89.49-.18.13-.35.05-.49-.24,3.24-1.77,5.9-2.24,9.63-1.95.32.03,2.08.32,2.15.49Z" fill="#dcc157"/>
        <path d="M31.82,30.71c-1.15,1.66-2.08,2.69-3.68,3.9-.27.16-.43.16-.49,0v-.49c.29.03.45-.06.49-.24l.94-.29.29-.69c.04-.11.29-.29.37-.16.09.15-.25.22,0-.09.25-.35.75-.46.61-.97.19-.05.35-.13.49-.24.4.09.21-.28.25-.61.08,0,.16,0,.24,0,.13-.22.27-.24.49-.12Z" fill="#d8b949"/>
        <path d="M24.71,36.31c.12-.29.25-.29.37,0,.04-.07.08-.07.12,0-1.58.7-3.29,1.33-4.97,1.46-.42.03-.86,0-1.29,0-.3-.17-.2-.28.12-.24.41-.04.9.06,1.3,0,.23-.03.18-.38.54-.25.18.01.35-.07.49-.24.43-.06,1.02.2,1.23-.24.24,0,.36-.03.49-.24h1.35s-.12-.24-.12-.24c.12,0,.25,0,.37,0Z" fill="#dec157"/>
        <path d="M14.53,37.04c.12.04.29.04.49,0,.15.5,1.13.1,1.35.24.2.1.36.1.49,0,.26.49,1.09.15,1.59.24.21-.31.45-.04.49.24-2.4.05-3.68-.1-6.01-.73.06-.17.2-.23.37-.24.42.2.75.31,1.23.24Z" fill="#d8bd51"/>
        <path d="M34.28,20.23c.58,3.17.22,5.75-1.24,8.67-.11.22-.45.55-.48.59-.32-.02-.33-.3-.12-.49.38-.25.29-.38.41-.69.03-.08.19-.13.2-.16-.32-.13-.34-.39,0-.49.56-.35.38-.54.49-.97-.27-.22-.24-.38.12-.37,0-.01.1-.07.12-.18.06-.32-.1-.72.13-1.03.13-.12.17-.28.12-.49v-.16c.41-.15.23-.65.25-1.06-.32-.17-.34-.34,0-.49,0-.36-.01-.73,0-1.1-.13-.13-.21-.29-.25-.49.03-.18-.04-.45,0-.61-.32-.19-.05-.45.25-.49Z" fill="#d9bf4f"/>
        <path d="M3.12,17.56c.24.14.4.3.49.49v.16c-.35.21-.22.57-.49,1.06-.04.2-.04.36,0,.49.05.08-.04.57,0,.73-.2.31-.11.45.25.4l.24.2c-.08.24-.68.07-.74.12-.08.5.04.49.49.61-.08.35-.33.31-.49,0-.07,0-.17.1-.25.12.02-1.54.12-2.88.49-4.38Z" fill="#dfc045"/>
        <path d="M27.16,8.54c1.08.72,1.37,1.09,2.21,1.95.51.53.7.65,1.23,1.34v.12c-.34.56-.63-.32-.26-.03.08.06-.12.04-.23-.09.06-.56-.46-.57-.86-.73-.27-.19-.14-.49.12-.61-.07.38-.29.47-.49.12.05-.47-.41-.71-.86-.61-.07-.17-.2-.29-.37-.37.09-.39-.33-.56-.61-.73-.27-.18-.2-.34.12-.37Z" fill="#dcbc46"/>
        <path d="M32.56,29.49c-.27.46-.4.73-.74,1.22-.28.31-.34.14-.49.12-1.28-.92-.49-1.13.49-.37.22-.36.33-.51.25-.97.12-.33.37-.34.49,0Z" fill="#cba536"/>
        <path d="M32.31,14.51c-.24.11-.36.15-.49-.12v-.16c-.32-.12-.2-.3-.29-.53-.03-.07-.2-.12-.2-.16-.18-.09-.26-.25-.25-.49-.02-.03.04-.22-.04-.32-.19-.24-.37-.16-.45-.53-.23-.07-.23-.17,0-.24v-.12c.76,1,1.13,1.6,1.72,2.68Z" fill="#dac159"/>
        <path d="M5.7,12.2c.27-.03.48.23.37.49-.59-.15-.54.29-.74.73-.18.13-.26.3-.25.49-.46-.09-.04.43-.49.57v.16c-.11.3-.34.23-.49,0,.28-.67,1.02-1.82,1.47-2.44h.12Z" fill="#dab945"/>
        <path d="M8.52,34.48l.79.8c.06.06.18.04.19.05.18-.12.35-.04.49.24.38-.02.47.75,1.1.49.25.22.21.24-.12.24-1.42-.66-1.78-.74-3.07-1.83.15-.26.47-.26.61,0Z" fill="#e0c862"/>
        <path d="M5.09,30.22l.53,1.42.45.28.25.49c-.02.19.27.5.49.49.14.19.3.35.49.49.04.25.49.69.74.73.27.17.16.32-.12.37-1.53-1.29-2.54-2.55-3.56-4.26v-.12c.19.11.53.17.74.12Z" fill="#d3b95c"/>
        <path d="M3.12,26.44c.21.12.21.34.25.54.16.73.35,1.34.49,2.05.01.06.75.6.49,1.06v.12c-.75-1.25-1.08-2.3-1.23-3.77Z" fill="#eee4b0"/>
        <path d="M4.6,14.63c.18.05,1.19.4.86.73-.19.19-1.05-.34-1.35-.24.04-.11-.04-.38,0-.49.21-.1.3-.06.49,0Z" fill="#c79920"/>
        <path d="M33.05,16.7c.05-.3.11-.25.25,0,.04.12.08.25.12.37l-1.47.49c-.12-.51.72-.8,1.1-.85Z" fill="#c59515"/>
        <path d="M10.48,7.81c.3.04.33.41,0,.49-.13.37-.41.18-.64.25-.12.04-.17.23-.22.24-.08.33-.43.21-.61,0,.56-.41.77-.59,1.47-.97Z" fill="#e0c34a"/>
        <path d="M9.01,8.79c.35-.05.39.3.12.49h-.61s0,.61,0,.61c-.09.33-.7.21-.74-.12.45-.43.7-.59,1.23-.97Z" fill="#dbbf55"/>
        <path d="M11.1,36.06c.81-.97.8-.45.61.49-.14.08-.3.08-.49,0-.15-.07-.23-.24-.25-.24.05-.07.07-.18.12-.24Z" fill="#c9a52c"/>
        <path d="M7.78,9.76c.17.11.21.27.12.49-.11-.09-.59.22-.61.25-.16.25.43.25.24.61l-.1.14c-.34-.11-.55-.03-.63.23-.32.01-.46.37-.61.61-.04.34-.28.42-.49.12h-.12c.67-.92,1.39-1.66,2.21-2.44Z" fill="#dab94c"/>
        <path d="M33.54,17.56s.14.14.25.49c-.39.2-.79.29-1.23.24-.15-.61.65-.36.98-.73Z" fill="#c0951d"/>
        <path d="M26.18,7.94c-.29.1-.66.91-.92.85-.49-.11.28-.97.43-1.1.16.09.33.15.49.24Z" fill="#c89614"/>
        <path d="M23.97,6.84c-.11.31-.53.15-.74,0-.04,0-.11.01-.12,0l-.21-.09c.08.19-.06.36-.28.34-.07-.14-.31-.26-.37-.37-.35-.08-.32-.25,0-.37.8-.02,1.05.22,1.72.49Z" fill="#debb5d"/>
        <path d="M26.67,35.58c-.54.31-.91.48-1.47.73h-.12c-.25-.21-.22-.35.12-.37.03-.04.93-.48.98-.49.17-.3.4-.14.49.12Z" fill="#dcc152"/>
        <path d="M3.74,15.97l.98.55c.18.36-.75.09-.86.06-.36.4-.44.24-.25-.49.02-.04.11-.08.12-.12Z" fill="#c5931a"/>
        <path d="M27.16,8.54c-.02.12-.05.27-.12.37-.76.9-1.3-.09-.12-.49.08.05.17.07.25.12Z" fill="#c6951a"/>
        <path d="M24.46,7.08c.08.04.16.08.25.12-.34.07-.29.8-.37.85-.45.3-.48-.44-.37-.73-.35-.39.13-.4.49-.24Z" fill="#c79613"/>
        <path d="M28.14,34.6c-.49.37-.95.68-1.47.97-.26-.06-.37-.3-.12-.49.5.23.82-.39,1.1-.49.11-.04.35.03.49,0Z" fill="#d7bf54"/>
        <path d="M3.61,16.09c.02.12-.04.42,0,.48.03.04.18-.02.24,0v.16c-.39.14-.23.46-.25.81-.09.31-.37.28-.49,0,.12-.49.32-.99.49-1.46Z" fill="#dcc250"/>
        <path d="M11.71,36.55c.42,0,.78.07,1.1.24.31-.16.38.03.12.24-.64-.17-1.11-.2-1.72-.49.16,0,.33,0,.49,0Z" fill="#dec45f"/>
        <path d="M33.05,15.97c-.14.19-.27.09-.25-.12-.19-.12-.36-.3-.49-.49,0-.16.01-.33,0-.49-.35-.04-.32-.24,0-.37.32.6.47.78.74,1.46Z" fill="#ddc97a"/>
        <path d="M23.97,6.84c.27.11.35.18.49.24-.23-.06-.41.03-.49.24h-.16c-.14-.45-.67-.04-.57-.49.22.04.5-.02.74,0Z" fill="#dec150"/>
        <path d="M32.81,15.85s.18.1.25.12c.1.26.16.5.25.73-.08,0-.17-.01-.25,0v-.37s-.24.12-.24.12c.03-.24-.03-.39-.25-.49-.11-.33.02-.39.25-.12Z" fill="#dcc258"/>
        <path d="M14.41,27.78c.28-.41.03-1.39-.3-1.71-.47-.46-2.14-.35-2.63-1.29l-.51-3.04c-.01-.3.36-.52.24-.83-.13-.37-1.64-.46-1.71-1.11-.09-.87,1.59-2.29,1.87-3.13.12-.36.07-.69.18-1.04.15-.48.87-1.51.78-1.89-.02-.1-.26-.14-.36-.28-.64-.94-.84-2.05.22-2.79.74-.52.96-.15,1.63-.2.74-.05,2-.58,2.82-.75,5.85-1.2,10.14.69,10.53,7.04.16,2.68-1.16,6.04-3.81,7.07,0,.24.48.43.67.68.25.34.33.92.63,1.2.24.23.52.2.73.37.15.12,1,1.35,1.03,1.53.06.36-.02.78,0,1.15-.09.2-1.88.13-1.95.06-.03-.03-.03-.1-.01-.18.15-.24.48-.32.99-.22,1.35-.16-.97-2.6-1.72-2.31-.46-.6-1.09-1.04-1.89-1.3-.67-.35-1.75-2.2-.44-2.06,0-.29.04-.54.36-.56.08-.4.46-.27.37.12.13.14.22.35.27.62,2.62,1.18,4.27-4.1,4.15-5.97-.36-5.74-3.47-7.44-8.9-6.77-.89.11-2.38.35-3.01.92.16-.39,1.59-.38,1.78,0,.05-.05.09-.08.14-.09.37-.05,1.38-.05,1.74.09.34.13,1.14.74.88,1.1-.22.48-.83.34-.86-.24-.71-.27-1.32-.19-1.8.23-.02,1.84-1.42.93-.68-.47-.61-.04-1.52-.05-.75.58l.08,1.14c.45.71.42,1.26-.09,1.64,1.19.11,1.51-.66,1.65-1.71.42-.47.79-.09.79.44l.32-.02c.38-.48.76.2.25.37.05.03.09.07.12.12.17.27-1.57,1.25-1.86,1.41.14.59.43,1.14.86,1.66.35.62.41,1.44-.32,1.79.54,0,.83-.39.87-1.18l.17-2.02c.1-.46.31-.73.65-.8.21-.5.73.04.25.24.14.27.13.61-.03,1.01.06,1.4-.32,2.57-1.14,3.49,1.09,1.32,1.56.65,1.43-2,.02-.49.22-1.72.84-1.41.2-.3.49-.09.37.24l.03.28c-.41.47-.53,1.08-.37,1.81.04,1.12-.28,1.99-.95,2.62-.22.8-.83.69-1.06-.05-.65-.56-1.24-1.17-1.79-1.83-.61-.91-.91-1.42.51-1.34-.53-.69-.9-1.43-1.11-2.22-.59.05-2.5-.31-2.29-1.11.06-.24.1-.39.38-.43,1.99.23.03-.49-.64-.7-.34.68-.61,1.41-.8,2.15l-.25.09c.16-.39,1.59-.38,1.78,0,.06-.08.14-.2.22-.18.39.09,1.59.7,1.81,1.04.93,1.43-1.06.52-1.58-.02-.21-.22-2-.32-2.09-.26-.37.9-.91,1.72-1.62,2.46-.74.96-.19.9.69.74l.55.09c-1.14-.48-.37-1.52.51-.76.71.62.45,1.56-.51,1.65l.13.48c-.38.76.59.73.46,0,1.26-.66,1.75,2.55.34,1.23-.07.44-.3.63-.69.9l.1.48c-.47.92.86,1.3,1.58,1.38,2.8.32,3.49-.55,4.71-2.88.25-.43.95-1.08,1.19-.36.05.16-1.31,2.31-1.51,2.58-.96,1.2-1.68,1.49-3.24,1.57.43.46.67,3.17.39,3.52-.05.07-.18.03-.28-.02-.22-.2-.15-.7,0-.97-.11-.28-.27-.57-.49-.85Z" fill="#c89810"/>
        <path d="M24.46,28.64c.63.3,1.35-.02,1.96.12.08.02,1.14.78,1.3.9,1.65,1.23-2.25,2.68-3.12,2.96-2.94.96-9.57,1.71-12.59,1.24-1.18-.18-2-.81-1.78-2.11.11-.64,1.87-1.67,2.45-2.2.44-.39,1.41-1.32,1.72-1.77.67.06.48.32.49.85-.04.26-.12.34-.25.24-.14-.03-.27-.08-.23-.21-1.08,1.1-2.22,2.12-3.43,3.05l-.26-.03c.32.23.32.4,0,.49.19.05.28.21.27.49.75-.25,1.5-.49,2.27-.72,1.01.5-.81,1.13-1.28,1.25,4.19.42,11.4,0,14.98-2.28,1.24-.79-.61-1.46-1.39-1.67-.46.08-.79,0-.99-.22-.33.19-.53.19-.61,0-.26-.07-.53-.07-.83,0l-.15-.24c-.29.16-.5.16-.61,0-.2.04-.32-.07-.36-.35-2.14.7-4.32,1.35-6.54,1.94l-.34-.13c-.26-.03-.37-.08-.25-.37.22-.17.45-.34.73-.42,1.96-.58,3.9-1.19,5.76-1.78-.04.12,0,.08.14-.11.26-.15.59-.07.98.24l.26.08c.03.54.8.45.6-.19-.78-.88.1-1.47.69-.44.13.48.26.95.41,1.4Z" fill="#d68321"/>
        <path d="M32.31,14.51c.03.06,0,.26,0,.37l-1.59.12c-.14-.55.67-.55,1.1-.61.12-.02.39-.12.49.12Z" fill="#c89716"/>
        <path d="M34.28,22.91c0,.16,0,.29,0,.49-1.95-.02-1.95-.92,0-.49Z" fill="#c99412"/>
        <path d="M34.03,24.62c.34.09.33.53.06.59-.06.01-.14-.1-.18-.1-.27-.02-1.29-.1-1.1-.55.07-.17.23-.19.4-.16.13.02.64.17.83.22Z" fill="#c69514"/>
        <path d="M7.54,11.1c.27.1,1.02.41.41.6-.29.09-.69-.25-1.14-.23-.3-.79.17-.58.74-.37Z" fill="#c99518"/>
        <path d="M33.66,26.32s-.09.23-.12.37c-2-.39-1.78-1.37.12-.37Z" fill="#c9960d"/>
        <path d="M9.62,8.79c.02.22.68.79.49.97s-.88-.33-.98-.49c-.03-.05-.14-.46-.12-.49.19-.16.58,0,.61,0Z" fill="#c99a19"/>
        <path d="M32.81,15.85c-.14.01-.22.12-.25.12-.24.04-1.04.24-1.1-.06-.05-.22.73-.53.86-.55.38-.05.53.11.49.49Z" fill="#c89619"/>
        <path d="M31.09,13.05s.24.02.31.11c.08.11-.08.29-.07.37-1.47.78-1.76.08-.25-.49Z" fill="#c79515"/>
        <path d="M6.19,12.08c.08.01.93.45.86.67-.07.33-.8.05-.98-.06s-.38-.27-.37-.49c.14-.01.38-.14.49-.12Z" fill="#c99612"/>
        <path d="M30.11,11.83c.08-.02.16-.12.19-.12.08,0,.05.2.14.24h.17c.01.08-.02.17,0,.24-.28.17-1.37.81-1.16.12.1-.32.39-.4.67-.49Z" fill="#c89e1f"/>
        <path d="M33.91,18.9c.24.6-1.28.74-1.35.42-.09-.4,1.1-.48,1.35-.42Z" fill="#cb9510"/>
        <path d="M8.52,9.88c.16.08.5.68.37.85-.33-.14-.68-.29-.98-.49-.06-.04-.25-.15-.24-.18,0-.02.11-.3.12-.31.03-.02.69.1.74.12Z" fill="#c4961b"/>
        <path d="M25.2,35.94s-.04.28-.12.37c-.12,0-.25,0-.37,0,.07-.29-1.02-.94-.43-1.1.44-.12.56.6.92.73Z" fill="#c79418"/>
        <path d="M34.28,21.82c-.41.02-.9.32-1.23-.06-.06-.28.79-.42.98-.42.59-.03.25.42.25.49Z" fill="#c99616"/>
        <path d="M3.61,21.09c-.85.22-1.22-.51-.49-.61.36-.05.64,0,.86.3,0,.02-.34.3-.37.3Z" fill="#c99919"/>
        <path d="M14.28,6.72c.22.19.57.62.18.85l-.8-.73c.1-.06-.03-.67.61-.12Z" fill="#c99713"/>
        <path d="M33.05,27.66s.02.44,0,.49c-.25-.06-1.05-.33-1.1-.55,0-.25.2-.33.43-.31.04,0,.66.34.68.37Z" fill="#c8980c"/>
        <path d="M6.8,32.9c.11-.09.86-.49.98-.36.15.15-.43.83-.49.85-.43.17-.75-.26-.49-.49Z" fill="#bf8f10"/>
        <path d="M29.25,11.1c-.09.12-.75.48-.86.36-.12-.31.25-.74.49-.85.09-.04.35,0,.49-.12,0,.21,0,.43-.12.61Z" fill="#c5980f"/>
        <path d="M30.84,31.44c.1.21.05.27,0,.49-.1.07-.41-.17-.49-.24-.23-.2-.57-.61-.18-.85.17-.04.6.45.67.61Z" fill="#c9960f"/>
        <path d="M19.07,37.53s-.11.24-.12.24c-.14.09-.39-.22-.49-.24-.27-1.57.71-1.05.61,0Z" fill="#c69517"/>
        <path d="M29.74,32.65c.03.06.15.21.12.24-.21.03-.28.11-.49,0-.28-.15-.74-.88-.3-.97.22-.05.57.55.67.73Z" fill="#c89415"/>
        <path d="M12.81,7.33c.62,1.02-.44.93-.61,0,0-.02-.14-.22-.12-.24.41-.12.49-.15.73.24Z" fill="#c49518"/>
        <path d="M26.55,35.09c.07.11.19.42.12.49-.08.09-.44-.12-.49-.12-.99-.56-.27-1.28.37-.37Z" fill="#c59414"/>
        <path d="M23.12,36.55c.22.55-.2.7-.49.24-.57-.89.09-1.21.49-.24Z" fill="#c79514"/>
        <path d="M28.14,33.87c.52.76-.12.73-.49.24-.48-.62-.09-1.1.49-.24Z" fill="#c79411"/>
        <path d="M34.28,20.23c.05.18-.21.37-.25.49-1.72.08-.87-.75.25-.49Z" fill="#ca9418"/>
        <path d="M32.44,29c.12.1.13.34.12.49-.15-.02-.35.03-.49,0-.51-.11-.92-.8-.24-.68.08.01.58.17.61.19Z" fill="#c69714"/>
        <path d="M3.61,17.56c.86.03,1.15.63,0,.49-.26-.03-.74-.22-.49-.49.02-.02.4,0,.49,0Z" fill="#c29519"/>
        <path d="M10.48,7.81c.2-.2.39.15.49.24.9.91-.29.91-.49.24-.02-.06-.02-.47,0-.49Z" fill="#c79813"/>
        <path d="M13.3,36.79c-.05.12.08.42-.37.24-.04-.01-.08-.22-.12-.24.17-1.01,1.02-1.27.49,0Z" fill="#c49514"/>
        <path d="M21.4,37.04c.08.64-.29.69-.49.24-.4-.91.37-1.22.49-.24Z" fill="#c4941d"/>
        <path d="M3.12,19.26l.86.06-.86.43s-.34.1-.25-.29c.02-.09.21-.14.25-.2Z" fill="#c69618"/>
        <path d="M15.02,37.04c-.13.3-.54.53-.61.18,0-.03.11-.12.12-.18.17-1.15.83-.78.49,0Z" fill="#c79314"/>
        <path d="M5.33,13.41c.17.03.79.45.61.61-.27,0-.62,0-.86-.12-.45-.21-.37-.61.25-.49Z" fill="#c89116"/>
        <path d="M9.99,35.58c-.7.04-.23,0-.49-.24.27-.14.28-.76.67-.61.44.17-.13.61-.18.85Z" fill="#ca9912"/>
        <path d="M22.26,6.35c.03.08-.04.3,0,.37-.23.2-.37.63-.74.61-.05-.06.06-.61.12-.73.15-.33.3-.24.61-.24Z" fill="#c29516"/>
        <path d="M3.37,21.82c.21.05.8-.12.44.37-.15.2-.68.09-.93.11v-.49c.16-.02.33.01.49,0Z" fill="#c7941a"/>
        <path d="M16.37,37.28c-.05-.76.6-.99.49,0-.01.12.06.35-.06.37-.46.06-.38-.33-.43-.37Z" fill="#c69519"/>
        <path d="M27.65,9.64c.45-.31.68-.08.37.37-.55.79-1.17.18-.37-.37Z" fill="#c59514"/>
        <path d="M8.52,34.48c-.15.07-.55.09-.61,0-.05-.06.06-.3.12-.37.18-.17.88-.41.86.06,0,.02-.32.28-.37.31Z" fill="#c79713"/>
        <path d="M20.17,6.35c.02-.1.17-.24.31-.25.43-.03.28.24.3.25-.14.75-.81.94-.61,0Z" fill="#c59719"/>
        <path d="M15.51,6.35s-.1-.21.18-.25c.45-.06.26.1.31.25.38,1-.38.74-.49,0Z" fill="#c59615"/>
        <path d="M19.19,6.11l-.31.85-.18-.85c.16,0,.27-.01.49,0Z" fill="#c89614"/>
        <path d="M22.62,7.08c.07-.29.07-.61.43-.49.1.03.04.23.06.25.12.4-.48,1.05-.61.54-.02-.09.1-.22.12-.3Z" fill="#c5971a"/>
        <path d="M17.84,6.11c-.03.53.22.85-.49.73v-.73c.22,0,.36,0,.49,0Z" fill="#c59712"/>
        <path d="M6.07,31.92c.32-.16.76-.28.62.18,0,.02-.35.3-.37.3-.12.04-.34-.02-.49,0-.04-.26.01-.37.24-.49Z" fill="#c1960d"/>
        <path d="M14.9,29.61c.2-.13.12-.46.12-.67.01-.94.03-2.18-.61-2.92,0-.2,1.61-.28,1.94-.39.59-.19,1.08-.77,1.47-1.22.11-.43,1.54-2.19,1.49-2.41-.03-.15-.16-.2-.31-.07-1,.89-1.36,2.87-2.78,3.33-.87.28-2.65.32-3.5-.02-.11-.05-.86-.5-.91-.56-.25-.33-.02-.55-.01-.86,0-.18-.15-.39-.09-.59.04-.15.82-.5.6-.69-.19-.16-.91.7-.86-.24.31.13,1.12-.15,1.28-.11.17.04.14.51.56.35,0-.34-.23-1.08-.57-1.2-.52-.18-.14.25-.18.4-.07.32-.94.16-1.21.19.04-.32.28-.4.26-.79-.02-.42-.37-.43-.38-.79,1.37.51,1.59-1.07.31-1.34-.62.49.64.48.55.91-.07.33-.68.05-.91.06-.5.02-1.34.42-1.27-.51.54-1.11,1.91-1.99,1.94-3.25.62.26,1.3.03,1.97.18s1.27.88,1.96,1.04c.2-.21-.52-.75-.67-.85-.14-.09-1.27-.61-1.35-.61h-1.78c-.03-.31.77-2.35.88-2.42.46-.29.9.21,1.17.33.24.11,1.22.34.78.68-.54.42-1.59-.32-1.16.55.32.65,2.05.55,2.13.62.04.04.24.88.33,1.07.33.67,1.83,1.96-.2,1.6-.11.11.48.99.61,1.16.41.51,1.17,1.16,1.65,1.65.14.14.14.45.25.48.42.14.26-.24.42-.43.32-.37.68-.6.83-1.13.35-1.21-.49-2.66.65-3.44.5-.25,1.15.98.89,1.46.39.41.57.94.54,1.59l.05,1.84c.17.27.17.47,0,.59,0,.13-.13.34-.12.54.07.84,2.01,1.59,2.33,2.32.06.15-.03.23-.18.18-.11-.03-1.44-.72-1.53-.8-.37-.31-.78-1.4-1.05-1.51-.3-.12-.17.36-.13.49.54,1.47,1.5,1.33,2.34,1.94.2.15.3.48.43.56.16.1.34-.05.49,0,.35.13,1.54,1.27,1.66,1.63.44,1.41-.53,1.1-1.54,1.1-.8-.38-.22-1.35-1.04-1.7-.45-.19.17.59.18.67.13.66-.22,1.04-.86.73-.29-.14-.19-.45-.24-.55l-.51-.27c-.44-.22-.59-.21-.47.02.2.24.05.28-.16.39-.42.22-1.3.47-1.81.64-1.53.52-3.09.92-4.66,1.28-.21.04-.19-.17,0-.24Z" fill="#e8ca1b"/>
        <path d="M22.13,22.3c.07-.24.3-.36.72-.36-.27-.32-.19-.58.21-.68-.38-.34-.26-1.19.3-1.16.12-.06.72-.92.69-.97-.5-.19-.5-.64.02-1.35-.62,1.24-1.71.69-1.08-.48l-.11-.12c-.41.58-.75.19-.89-.37l-.37-1.73c-.89.4-1.66-1.24-1.59-2.06-.4.05-.96-.43-.84-.84-.33-.34-.58-.78-1.1-.92-.57-.15-.98.04-1.42.01-.13,0-.22-.19-.24-.19h-1.78s-.12-.29-.12-.31c0-.23,1.62-.56,1.94-.63,5.67-1.28,9.95.35,10.32,6.6.12,1.95-1.09,5.78-3.1,6.54-.77.29-1.94-.03-1.56-1Z" fill="#e9ca1c"/>
        <path d="M19.19,12.2c.24.24.51.47.73.73,0-.3-.06-.6-.15-.88-.07-.23-.62-.83-.15-.82.93.7.49,1.79.77,2.65.06.17.83,1.33,1.01,1.13.26-1.1-.34-1.85-.61-2.74-.06-.2.01-.19.18-.18.38.02.72,1.3.77,1.68.13,1.07.03,1.24.36,2.32.13.42.05.95.47,1.24.88-.49.16-4.1.31-4.26.15-.02.22,0,.3.12.15.24.34,2.23.31,2.62-.03.6-.23,1.01-.49,1.52-.3.44-.23.89.19,1.35l.11.78c.6.13.53.38.06.67-.21.35-.33.49-.24.97,1.57-.5,2.33-1.85,2.88-3.29.28-.05.17.09.15.27-.15,1.52-1.8,3.17-3.28,3.5.22.51.73-.1,1.16,0,.11.03.25.18.07.3-.16.11-1.72.43-1.96.43-.03,0-.23-.19-.37-.12,0-.12-.22-.33-.24-.55-.04-.46.06-3.1-.44-3.22-.69-.16-.77,1.77-.86,2.08-.06.22-.04.28-.31.24-.03-.74-.04-1.56.44-2.18.18-.24.54-.38.61-.49.23-.35-.42-1.09-.68-1.34-.11-.11-.36-.22-.37-.24-.65-.25-1.02-.61-1.1-1.1-.03-.03.07-.33-.25-.24-.15-.09-.2-.27-.18-.54-.28-.09-.38-.23-.31-.43-.06-.1.15-.46-.25-.37-.1-.26-.03-.57.19-.93,0-.4.11-.7.3-.9.07.07.09.21.22.24.19.04.44-.02.64,0Z" fill="#d38d1b"/>
        <path d="M17.84,13.78c-.07.11-.45.79-.61.61.09-.07.12-1.33-.24-.97-.2.2.02,1.16-.74,1.64-.62.39-1.16.26-1.83.19.11-.31.58-.31.75-.54.31-.41-.15-.82-.23-1.26-.06-.33.05-.92-.09-1.13-.22-.34-.41,0-.41.3,0,.11.31,1.19-.08,1.04-.54-.22-.45-.99-.43-1.46-.58-.08-.29.89-.37.97-.37.03-.71-.14-1.06-.2-.26-.05-.53.24-.65-.47s.11-1.43.85-1.64c.07.07-.66,1.55.25,1.58-.1-.72-.02-1.84.99-1.53s-.11.92.12,1.17c.41-.03.52-.49.95-.58.39-.09.86,0,1.26-.02-.22.45-.63,1.14-.18,1.58.32-.25.1-.64.25-.97.23-.53,1.42-.65,1.85-.37.09.06.12.2.17.25.09.74-.11,1.23-.49,1.83Z" fill="#e9c620"/>
        <path d="M18.58,15.12c-.14.38-.38.57-.46,1.07-.11.7.11,3.2-1.07,3.21-.16,0-.36-.04-.43-.2-.16-.37.4-.23.54-.67.36-1.15-1.31-2.03-1.02-2.96.04-.12,1.77-1,1.95-1.42.1.17.84.04.49.97Z" fill="#e9c81d"/>
        <path d="M18.82,15.36c.13.12.44.38.62.54.17.14.58.29.6.32.04.05-.14.19-.12.24-1.25.79.03,3.75-1.23,4.32-.47.21-1.34-.71-1.32-.98,0-.11.41-.39.51-.55.84-1.3.34-2.53.93-3.89Z" fill="#eac722"/>
        <path d="M14.9,29.61c0,.08-.02.19,0,.24.02.06.33.15.25.37l-.07.3c-.67.5-2.22,1.47-2.97,1.78-.43.17-1.3.5-1.38-.12,0-.13-.03-.38,0-.49.77-.09,1.61-.23,2.15-.89.24-.69.94-2.1,1.52-1.06-.06-.47.03-.75.26-.85l.25-.24c0,.32-.03.67,0,.97Z" fill="#e0742f"/>
        <path d="M22.38,28.76c-.12.21.08.21.61,0,.36,0,1.11-.14.98.24-.11.22.09.22.61,0,.43-.02,1.2-.06,1.59.07.09.03,1.35.93,1.43,1.02.44.52-.52,1.03-.94,1.28-2.83,1.62-11.75,2.81-14.91,2.04-.09-.02-.41.03-.29-.2.12-.22,1.23-.5,1.54-.67.09-.05.48-.22.3-.37-.13-.11-1.84.73-2.28.73-.39,0-.29-.47-.3-.73.21.14.4.13.64.1,1.18-.18,2.65-1.58,3.78-2.04,1.02-.42,2.5-.65,3.61-.98.54-.16,3.07-1.22,3.38-1.03.15.09.21.39.25.56Z" fill="#d84227"/>
        <path d="M10.73,31.68c.07-.27,1.61-1.32,1.96-1.64.62-.55,1.16-1.21,1.78-1.77.29-.12.18.47.18.61.03.79.1,1.4-.86,1.58-.06-.05.79-1.14.08-.84-.46.19-.62,1.17-.9,1.45-.34.35-1.79,1.15-2.24.6Z" fill="#d0491e"/>
        <path d="M21.52,27.54c-.66-.21-1.02-.31-1.54-.85-.69-.72-1.12-2.48-.7-3.39.17-.35.84-.51,1.02-.81.21-.34.2-1.12.24-1.53h.37c.02.49,0,1.1-.22,1.55-.24.49-1,.76-1.1,1.1-.08.26.04,1.87.12,2.14.04.13.92,1,1.09,1.11.62.42,1.3.23,1.71.92-.34,0-.67-.15-.98-.24Z" fill="#c79c0e"/>
        <path d="M24.59,29c-2,1.48-4.34,2.44-6.56,3.53l-.18-.18c.12-.29,3.45-1.78,4.03-2.09.48-.25,1.69-1.18,2.1-1.27.16-.03.42,0,.61,0Z" fill="#e26f37"/>
        <path d="M22.38,28.76c.18-.02.42,0,.61,0-.9.69-2.05.89-3.09,1.23-.09.03-.1.19-.19.22-.37.11-1.32.36-1.68.38-.14,0-.27-.01-.18-.18.13-.27,1.42-.5,1.81-.64.73-.26,2.06-.92,2.73-1.01Z" fill="#e46f36"/>
        <path d="M15.02,18.29c-1.01-.29-1.81.5-2.82.37-.09-.32.32-.28.37-.45.26-1-.51-.35-.61-1.01l1.47.24c-.09-.41-.86-.44-.98-.67-.14-.27.39-.2.52-.15.11.04,1.66,1.18,1.85,1.33.13.11.26.12.2.34Z" fill="#cb9418"/>
        <path d="M20.29,24.01c.06.05.18.88.82,1.2.57.29,1.68-.05,1.89.62-1.33-.06-3-.15-3.07-1.83.1.01.33-.03.36,0Z" fill="#c79a0f"/>
        <path d="M22.99,17.31c-.5,1.78,1.15.8.98-.36.56,0,.39.83.25,1.17-.08.21-.37.44-.38.48-.07.32.47.28.49.3.17.18-.62,1.26-.98,1.22.05-.09.28-.33.25-.36-.78,0-.5-.48-.62-.91-.13-.47-.4-.72-.21-1.33.05-.15.21-.18.22-.2Z" fill="#ddac16"/>
        <path d="M22.31,17.75s.17.03.19.13c.2.85.41,2.52.25,3.38-.04.19-.42.64-.57.66-.68.12-.34-2.35-.42-2.84-.08-.52-.84-2.45-1.21-2.82-.93-.9-.77-.52-1.55-1.75-.11-.18-.65-.66-.66-.71-.1-.4.41-.85.37-1.37.45-.32,1.66,2.09,1.91,2.42.95,1.27,1.11,1.27,1.69,2.89Z" fill="#d76221"/>
        <path d="M24.59,30.46c.15.13-.19.33-.28.39-1.02.65-3.05,1.08-4.26,1.19-.04-.26.1-.3.31-.36.45-.13,1.03-.16,1.53-.31.37-.11,2.59-1.01,2.7-.91Z" fill="#e57137"/>
        <path d="M27.04,29.98c.23.21-1.31,1-1.45,1.06-.13.06-1.39.65-1.37.22,0-.15,2.46-1.16,2.82-1.28Z" fill="#e57038"/>
        <path d="M16.25,32.17c.05.28-.13.27-.31.36-.39.18-.98.4-1.41.37-.34-.28,1.49-.88,1.72-.73Z" fill="#e56e38"/>
      </g>
      <g id="Coin-3" data-name="Coin">
        <path d="M17.76,58.71c.2.11.36.11.49,0,.24-.25.62-.24.86,0h.49c.17-.28,1.33-.2.98.24.11.29.32.29.61,0,.17-.34,1.17-.15.86.24.1.15.31.19.61.12.31-.16.44-.04.37.37.05.18.21.1.49-.24.04-.1.08-.1.12,0,.49.11.74.27.74.49.1.03.16.09.2.18.2.4-.23.04.13-.25.13-.11.25-.09.4-.05.39.18.6.28.98.49.01.21.18.29.49.24.34.2.48.32.74.49l-.02.27c-.6.32-.56.39.14.22.28-.26,1.2.5.61.73-.12.51-.11.63.06.36h.31c.24-.64,1.31.32.86.61.08.16.01.35-.21.56.21-.16.4-.19.58-.07.28-.42,1.25.41.86.73-.08.18-.21.36-.41.53.36-.24.66-.29.9-.17.23.1.87.73.49.85-.03.24-.22.43-.57.55.33-.17.6-.19.81-.06.25-.29.78.83.49.85,0,.23-.19.33-.57.32.51-.13.87-.07,1.06.17.21.11.3.44,0,.49,0,.22-.16.37-.46.46.36-.1.59-.05.71.15.39-.1.76.49.49.73-.07.14.05.26.37.37.07.21.08.35.12.49.19.3-.05.37-.32.44.23-.12.42-.11.57.04.23.79.35,1.4.49,2.19-.15.18-.41.25-.78.23.28-.03.46.05.53.26.25.1.29.54,0,.61-.02.21-.22.34-.59.38.41-.13.69-.1.83.11.17.3.21.82,0,1.1-.22.18-.53.22-.94.13.44.02.75.14.94.36.27.27.14,1.3-.25,1.22l-.19.2c-.97-.34-1.18-.13-.07.03l.14.26c.22.27.16,1.32-.25,1.22-.24.04-.28.16-.12.37.34.22-.06,1.24-.49.97-.19.11-.47.07-.84-.11.45.13.73.33.84.6.05.32-.22,1.06-.61.85-.06.21-.28.23-.64.06.19.1.28.25.27.43.13.03.22.11.2.22-.2.78-.49,1.12-1.2.59.25.15.34.32.27.53-.05.21-.21.28-.13.16.23-.35.02,1-.36.45-.18.09-.38-.02-.61-.31.18.21.22.39.12.55.53.28-.17,1.05-.61.97-.2.08-.4-.06-.59-.42.19.24.27.46.22.67.5.36-.87,1.47-1.23.97-.35-.15-.52-.07-.49.24.25.32.25.48,0,.49-.05.35-.9.98-1.1.49-.17.05-.38-.02-.61-.2.2.2.28.39.24.56.03.29-.75.65-.98.49-.23.04-.39.16-.49.37-.18.36-1.42.7-1.59.24-.51-.3-.63-.3-.34.02l-.15.22c.3.47-1.08.7-1.23.24-.17,0-.29-.1-.35-.31.06.26.02.45-.14.55-.23.57-1.42.43-1.84.24-.18-.13-.31-.36-.4-.69.05.33-.02.56-.22.69-.38.18-1.56.33-1.59-.24-.17-.24-.33-.24-.49,0-.19.37-1.69.23-1.35-.24-.13-.38-.2-.41-.23-.09l-.26.09c-.2.33-1.19.09-1.23-.24-.03-.35-.19-.35-.49,0-.31.05-.84-.07-1.1-.24l-.2-.28c.16-.24.02-.31-.42-.21-.29.31-.94-.2-1.1-.49-.15-.15-.26-.22-.49-.24-.23.19-1.12-.55-.98-.85,0-.32-.08-.4-.24-.24l-.25-.12c-.19.3-1.04-.49-.74-.73-.13-.15-.09-.33.13-.54-.24.18-.44.19-.62.06-.2.34-.8-.32-.49-.49.04-.26-.04-.42-.25-.49l-.22.13c-.34-.17-1.15-1.53-.76-1.83-.1-.16-.04-.32.17-.46l-.54.17c-.26-.04-.84-.97-.3-1.14-.82-.11-.74-1.08.08-1.24-.96.08-1.02-.09-1.07-1.03,1-.28,1.09-.34.3-.19-.15,0-.37,0-.47-.12-.57-.63-.02-.77.47-.89.3-.07-.26-.13-.44-.08-.39.12-.41-1.36-.32-1.49.05-.08.15-.11.24-.11-.68.2-.57-1.02-.32-1.33.05-.23.26-.31.62-.24l-.13-.25c-.64.02-.82-.23-.48-.73.23.09.51.13.72,0,0-.24-.16-.45-.49-.61-.35-.01-.26-.63,0-.73.05-.17.05-.34,0-.49-.19-.41.04-1.23.49-1.22.18-.21.17-.27,0-.49-.39.02-.18-.7-.02-.89.09.02.18,0,.27-.08.03-.15-.01-.35-.12-.61.12-.33.25-.57.37-.85.04-.31.36-.32.95-.02-.3-.09-.46-.25-.46-.46-.34.11.1-.83.15-.84l.34.11c.33-.08.41-.25.25-.49-.32-.42.25-1.22.74-.73.11-.16.31-.18.6-.06-.33-.13-.48-.31-.47-.55-.25-.28.38-1.01.61-.61.18-.25.49-.25.91-.03-.17-.04-.2-.16-.18-.34l-.15-.12c-.58-.34.02-.98.52-.73l.31-.1c.23.25.33.16.31-.27-.71-.26.34-1.17.61-.61.16-.12.37-.07.63.17-.3-.28-.34-.5-.14-.66-.25-.37.51-.57.86-.49.55.22.68.23.4.02l.09-.26c-.35-.5.85-.76,1.23-.73.19.05.38.21.55.47-.11-.19-.09-.34.06-.47-.44-.49.57-.88.86-.49l.26-.09c.34.4.46.39.35-.03.06-.44,1.01-.72,1.23-.37.23.16.4.16.49,0-.04-.47,1.09-.5,1.35-.24Z" fill="#e9ca1a"/>
        <path d="M3.28,74.9c0,.18-.04,1.06,0,1.1.04.04.8-.03.98,0,.23.83-.59.34-.74.49-.04.04-.04,1.06,0,1.1.04.04.75-.03.92,0,.18.02.02.45-.18.55-.24.12-.67-.07-.61.24.15.73,1.24-.1,1.35.37.03.16-.19.36-.33.4-.61.18-.73-.32-.65.76.24.03,1.16-.11,1.23.18-.23.63-.96.11-.74,1.03,1.58-.06.37.41.25.68-.06.15.22.5.26.51.1.03.86-.47.96-.04.03.15-.42.53-.49.55-.15.47-.53.23-.74-.12-.57-1.15-.98-2.37-1.23-3.65-.06-.63-.3-.77-.35-1.06-.04-.23.12-.53.07-.92-.04-.32-.28-.61-.3-.79-.04-.3.08-1.31.08-1.74.07-.28.15-.32.25-.12.36,0,.34.41,0,.49Z" fill="#cea531"/>
        <path d="M22.66,58.95c-.06.23-.26.31-.61.24-.12-.43-.71-.15-.86-.24-.17-.02-.38-.02-.61,0-.17-.39-.61-.22-.98-.24-.17.31-.36.35-.49,0-.28,0-.57,0-.86,0-.04.35-.4.33-.49,0-.47.02-.98-.12-1.35.24-.14-.07-.31-.07-.49,0-.07.04-.47-.04-.65,0-.03,0-.32.41-.58.36l-.61.12c-.27.17-.75-.36-.86.49-.23-.07-.43-.07-.61,0,0,.02-.31.24-.33.24-.35.08-.79-.11-.89.49-.18.13-.35.05-.49-.24,3.24-1.77,5.9-2.24,9.63-1.95.32.03,2.08.32,2.15.49Z" fill="#dcc157"/>
        <path d="M32.23,83.3c-1.15,1.66-2.08,2.69-3.68,3.9-.27.16-.43.16-.49,0v-.49c.29.03.45-.06.49-.24l.94-.29.29-.69c.04-.11.29-.29.37-.16.09.15-.25.22,0-.09.25-.35.75-.46.61-.97.19-.05.35-.13.49-.24.4.09.21-.28.25-.61.08,0,.16,0,.24,0,.13-.22.27-.24.49-.12Z" fill="#d8b949"/>
        <path d="M25.12,88.91c.12-.29.25-.29.37,0,.04-.07.08-.07.12,0-1.58.7-3.29,1.33-4.97,1.46-.42.03-.86,0-1.29,0-.3-.17-.2-.28.12-.24.41-.04.9.06,1.3,0,.23-.03.18-.38.54-.25.18.01.35-.07.49-.24.43-.06,1.02.2,1.23-.24.24,0,.36-.03.49-.24h1.35s-.12-.24-.12-.24c.12,0,.25,0,.37,0Z" fill="#dec157"/>
        <path d="M14.93,89.64c.12.04.29.04.49,0,.15.5,1.13.1,1.35.24.2.1.36.1.49,0,.26.49,1.09.15,1.59.24.21-.31.45-.04.49.24-2.4.05-3.68-.1-6.01-.73.06-.17.2-.23.37-.24.42.2.75.31,1.23.24Z" fill="#d8bd51"/>
        <path d="M34.68,72.83c.58,3.17.22,5.75-1.24,8.67-.11.22-.45.55-.48.59-.32-.02-.33-.3-.12-.49.38-.25.29-.38.41-.69.03-.08.19-.13.2-.16-.32-.13-.34-.39,0-.49.56-.35.38-.54.49-.97-.27-.22-.24-.38.12-.37,0-.01.1-.07.12-.18.06-.32-.1-.72.13-1.03.13-.12.17-.28.12-.49v-.16c.41-.15.23-.65.25-1.06-.32-.17-.34-.34,0-.49,0-.36-.01-.73,0-1.1-.13-.13-.21-.29-.25-.49.03-.18-.04-.45,0-.61-.32-.19-.05-.45.25-.49Z" fill="#d9bf4f"/>
        <path d="M3.53,70.15c.24.14.4.3.49.49v.16c-.35.21-.22.57-.49,1.06-.04.2-.04.36,0,.49.05.08-.04.57,0,.73-.2.31-.11.45.25.4l.24.2c-.08.24-.68.07-.74.12-.08.5.04.49.49.61-.08.35-.33.31-.49,0-.07,0-.17.1-.25.12.02-1.54.12-2.88.49-4.38Z" fill="#dfc045"/>
        <path d="M27.57,61.14c1.08.72,1.37,1.09,2.21,1.95.51.53.7.65,1.23,1.34v.12c-.34.56-.63-.32-.26-.03.08.06-.12.04-.23-.09.06-.56-.46-.57-.86-.73-.27-.19-.14-.49.12-.61-.07.38-.29.47-.49.12.05-.47-.41-.71-.86-.61-.07-.17-.2-.29-.37-.37.09-.39-.33-.56-.61-.73-.27-.18-.2-.34.12-.37Z" fill="#dcbc46"/>
        <path d="M32.96,82.09c-.27.46-.4.73-.74,1.22-.28.31-.34.14-.49.12-1.28-.92-.49-1.13.49-.37.22-.36.33-.51.25-.97.12-.33.37-.34.49,0Z" fill="#cba536"/>
        <path d="M32.72,67.11c-.24.11-.36.15-.49-.12v-.16c-.32-.12-.2-.3-.29-.53-.03-.07-.2-.12-.2-.16-.18-.09-.26-.25-.25-.49-.02-.03.04-.22-.04-.32-.19-.24-.37-.16-.45-.53-.23-.07-.23-.17,0-.24v-.12c.76,1,1.13,1.6,1.72,2.68Z" fill="#dac159"/>
        <path d="M6.1,64.8c.27-.03.48.23.37.49-.59-.15-.54.29-.74.73-.18.13-.26.3-.25.49-.46-.09-.04.43-.49.57v.16c-.11.3-.34.23-.49,0,.28-.67,1.02-1.82,1.47-2.44h.12Z" fill="#dab945"/>
        <path d="M8.93,87.08l.79.8c.06.06.18.04.19.05.18-.12.35-.04.49.24.38-.02.47.75,1.1.49.25.22.21.24-.12.24-1.42-.66-1.78-.74-3.07-1.83.15-.26.47-.26.61,0Z" fill="#e0c862"/>
        <path d="M5.49,82.82l.53,1.42.45.28.25.49c-.02.19.27.5.49.49.14.19.3.35.49.49.04.25.49.69.74.73.27.17.16.32-.12.37-1.53-1.29-2.54-2.55-3.56-4.26v-.12c.19.11.53.17.74.12Z" fill="#d3b95c"/>
        <path d="M3.53,79.04c.21.12.21.34.25.54.16.73.35,1.34.49,2.05.01.06.75.6.49,1.06v.12c-.75-1.25-1.08-2.3-1.23-3.77Z" fill="#eee4b0"/>
        <path d="M5,67.23c.18.05,1.19.4.86.73-.19.19-1.05-.34-1.35-.24.04-.11-.04-.38,0-.49.21-.1.3-.06.49,0Z" fill="#c79920"/>
        <path d="M33.46,69.3c.05-.3.11-.25.25,0,.04.12.08.25.12.37l-1.47.49c-.12-.51.72-.8,1.1-.85Z" fill="#c59515"/>
        <path d="M10.89,60.41c.3.04.33.41,0,.49-.13.37-.41.18-.64.25-.12.04-.17.23-.22.24-.08.33-.43.21-.61,0,.56-.41.77-.59,1.47-.97Z" fill="#e0c34a"/>
        <path d="M9.42,61.39c.35-.05.39.3.12.49h-.61s0,.61,0,.61c-.09.33-.7.21-.74-.12.45-.43.7-.59,1.23-.97Z" fill="#dbbf55"/>
        <path d="M11.5,88.66c.81-.97.8-.45.61.49-.14.08-.3.08-.49,0-.15-.07-.23-.24-.25-.24.05-.07.07-.18.12-.24Z" fill="#c9a52c"/>
        <path d="M8.19,62.36c.17.11.21.27.12.49-.11-.09-.59.22-.61.25-.16.25.43.25.24.61l-.1.14c-.34-.11-.55-.03-.63.23-.32.01-.46.37-.61.61-.04.34-.28.42-.49.12h-.12c.67-.92,1.39-1.66,2.21-2.44Z" fill="#dab94c"/>
        <path d="M33.95,70.15s.14.14.25.49c-.39.2-.79.29-1.23.24-.15-.61.65-.36.98-.73Z" fill="#c0951d"/>
        <path d="M26.59,60.53c-.29.1-.66.91-.92.85-.49-.11.28-.97.43-1.1.16.09.33.15.49.24Z" fill="#c89614"/>
        <path d="M24.38,59.44c-.11.31-.53.15-.74,0-.04,0-.11.01-.12,0l-.21-.09c.08.19-.06.36-.28.34-.07-.14-.31-.26-.37-.37-.35-.08-.32-.25,0-.37.8-.02,1.05.22,1.72.49Z" fill="#debb5d"/>
        <path d="M27.08,88.18c-.54.31-.91.48-1.47.73h-.12c-.25-.21-.22-.35.12-.37.03-.04.93-.48.98-.49.17-.3.4-.14.49.12Z" fill="#dcc152"/>
        <path d="M4.14,68.57l.98.55c.18.36-.75.09-.86.06-.36.4-.44.24-.25-.49.02-.04.11-.08.12-.12Z" fill="#c5931a"/>
        <path d="M27.57,61.14c-.02.12-.05.27-.12.37-.76.9-1.3-.09-.12-.49.08.05.17.07.25.12Z" fill="#c6951a"/>
        <path d="M24.87,59.68c.08.04.16.08.25.12-.34.07-.29.8-.37.85-.45.3-.48-.44-.37-.73-.35-.39.13-.4.49-.24Z" fill="#c79613"/>
        <path d="M28.55,87.2c-.49.37-.95.68-1.47.97-.26-.06-.37-.3-.12-.49.5.23.82-.39,1.1-.49.11-.04.35.03.49,0Z" fill="#d7bf54"/>
        <path d="M4.02,68.69c.02.12-.04.42,0,.48.03.04.18-.02.24,0v.16c-.39.14-.23.46-.25.81-.09.31-.37.28-.49,0,.12-.49.32-.99.49-1.46Z" fill="#dcc250"/>
        <path d="M12.11,89.15c.42,0,.78.07,1.1.24.31-.16.38.03.12.24-.64-.17-1.11-.2-1.72-.49.16,0,.33,0,.49,0Z" fill="#dec45f"/>
        <path d="M33.46,68.57c-.14.19-.27.09-.25-.12-.19-.12-.36-.3-.49-.49,0-.16.01-.33,0-.49-.35-.04-.32-.24,0-.37.32.6.47.78.74,1.46Z" fill="#ddc97a"/>
        <path d="M24.38,59.44c.27.11.35.18.49.24-.23-.06-.41.03-.49.24h-.16c-.14-.45-.67-.04-.57-.49.22.04.5-.02.74,0Z" fill="#dec150"/>
        <path d="M33.21,68.45s.18.1.25.12c.1.26.16.5.25.73-.08,0-.17-.01-.25,0v-.37s-.24.12-.24.12c.03-.24-.03-.39-.25-.49-.11-.33.02-.39.25-.12Z" fill="#dcc258"/>
        <path d="M14.81,80.38c.28-.41.03-1.39-.3-1.71-.47-.46-2.14-.35-2.63-1.29l-.51-3.04c-.01-.3.36-.52.24-.83-.13-.37-1.64-.46-1.71-1.11-.09-.87,1.59-2.29,1.87-3.13.12-.36.07-.69.18-1.04.15-.48.87-1.51.78-1.89-.02-.1-.26-.14-.36-.28-.64-.94-.84-2.05.22-2.79.74-.52.96-.15,1.63-.2.74-.05,2-.58,2.82-.75,5.85-1.2,10.14.69,10.53,7.04.16,2.68-1.16,6.04-3.81,7.07,0,.24.48.43.67.68.25.34.33.92.63,1.2.24.23.52.2.73.37.15.12,1,1.35,1.03,1.53.06.36-.02.78,0,1.15-.09.2-1.88.13-1.95.06-.03-.03-.03-.1-.01-.18.15-.24.48-.32.99-.22,1.35-.16-.97-2.6-1.72-2.31-.46-.6-1.09-1.04-1.89-1.3-.67-.35-1.75-2.2-.44-2.06,0-.29.04-.54.36-.56.08-.4.46-.27.37.12.13.14.22.35.27.62,2.62,1.18,4.27-4.1,4.15-5.97-.36-5.74-3.47-7.44-8.9-6.77-.89.11-2.38.35-3.01.92.16-.39,1.59-.38,1.78,0,.05-.05.09-.08.14-.09.37-.05,1.38-.05,1.74.09.34.13,1.14.74.88,1.1-.22.48-.83.34-.86-.24-.71-.27-1.32-.19-1.8.23-.02,1.84-1.42.93-.68-.47-.61-.04-1.52-.05-.75.58l.08,1.14c.45.71.42,1.26-.09,1.64,1.19.11,1.51-.66,1.65-1.71.42-.47.79-.09.79.44l.32-.02c.38-.48.76.2.25.37.05.03.09.07.12.12.17.27-1.57,1.25-1.86,1.41.14.59.43,1.14.86,1.66.35.62.41,1.44-.32,1.79.54,0,.83-.39.87-1.18l.17-2.02c.1-.46.31-.73.65-.8.21-.5.73.04.25.24.14.27.13.61-.03,1.01.06,1.4-.32,2.57-1.14,3.49,1.09,1.32,1.56.65,1.43-2,.02-.49.22-1.72.84-1.41.2-.3.49-.09.37.24l.03.28c-.41.47-.53,1.08-.37,1.81.04,1.12-.28,1.99-.95,2.62-.22.8-.83.69-1.06-.05-.65-.56-1.24-1.17-1.79-1.83-.61-.91-.91-1.42.51-1.34-.53-.69-.9-1.43-1.11-2.22-.59.05-2.5-.31-2.29-1.11.06-.24.1-.39.38-.43,1.99.23.03-.49-.64-.7-.34.68-.61,1.41-.8,2.15l-.25.09c.16-.39,1.59-.38,1.78,0,.06-.08.14-.2.22-.18.39.09,1.59.7,1.81,1.04.93,1.43-1.06.52-1.58-.02-.21-.22-2-.32-2.09-.26-.37.9-.91,1.72-1.62,2.46-.74.96-.19.9.69.74l.55.09c-1.14-.48-.37-1.52.51-.76.71.62.45,1.56-.51,1.65l.13.48c-.38.76.59.73.46,0,1.26-.66,1.75,2.55.34,1.23-.07.44-.3.63-.69.9l.1.48c-.47.92.86,1.3,1.58,1.38,2.8.32,3.49-.55,4.71-2.88.25-.43.95-1.08,1.19-.36.05.16-1.31,2.31-1.51,2.58-.96,1.2-1.68,1.49-3.24,1.57.43.46.67,3.17.39,3.52-.05.07-.18.03-.28-.02-.22-.2-.15-.7,0-.97-.11-.28-.27-.57-.49-.85Z" fill="#c89810"/>
        <path d="M24.87,81.23c.63.3,1.35-.02,1.96.12.08.02,1.14.78,1.3.9,1.65,1.23-2.25,2.68-3.12,2.96-2.94.96-9.57,1.71-12.59,1.24-1.18-.18-2-.81-1.78-2.11.11-.64,1.87-1.67,2.45-2.2.44-.39,1.41-1.32,1.72-1.77.67.06.48.32.49.85-.04.26-.12.34-.25.24-.14-.03-.27-.08-.23-.21-1.08,1.1-2.22,2.12-3.43,3.05l-.26-.03c.32.23.32.4,0,.49.19.05.28.21.27.49.75-.25,1.5-.49,2.27-.72,1.01.5-.81,1.13-1.28,1.25,4.19.42,11.4,0,14.98-2.28,1.24-.79-.61-1.46-1.39-1.67-.46.08-.79,0-.99-.22-.33.19-.53.19-.61,0-.26-.07-.53-.07-.83,0l-.15-.24c-.29.16-.5.16-.61,0-.2.04-.32-.07-.36-.35-2.14.7-4.32,1.35-6.54,1.94l-.34-.13c-.26-.03-.37-.08-.25-.37.22-.17.45-.34.73-.42,1.96-.58,3.9-1.19,5.76-1.78-.04.12,0,.08.14-.11.26-.15.59-.07.98.24l.26.08c.03.54.8.45.6-.19-.78-.88.1-1.47.69-.44.13.48.26.95.41,1.4Z" fill="#d68321"/>
        <path d="M32.72,67.11c.03.06,0,.26,0,.37l-1.59.12c-.14-.55.67-.55,1.1-.61.12-.02.39-.12.49.12Z" fill="#c89716"/>
        <path d="M34.68,75.51c0,.16,0,.29,0,.49-1.95-.02-1.95-.92,0-.49Z" fill="#c99412"/>
        <path d="M34.44,77.22c.34.09.33.53.06.59-.06.01-.14-.1-.18-.1-.27-.02-1.29-.1-1.1-.55.07-.17.23-.19.4-.16.13.02.64.17.83.22Z" fill="#c69514"/>
        <path d="M7.94,63.7c.27.1,1.02.41.41.6-.29.09-.69-.25-1.14-.23-.3-.79.17-.58.74-.37Z" fill="#c99518"/>
        <path d="M34.07,78.92s-.09.23-.12.37c-2-.39-1.78-1.37.12-.37Z" fill="#c9960d"/>
        <path d="M10.03,61.39c.02.22.68.79.49.97s-.88-.33-.98-.49c-.03-.05-.14-.46-.12-.49.19-.16.58,0,.61,0Z" fill="#c99a19"/>
        <path d="M33.21,68.45c-.14.01-.22.12-.25.12-.24.04-1.04.24-1.1-.06-.05-.22.73-.53.86-.55.38-.05.53.11.49.49Z" fill="#c89619"/>
        <path d="M31.49,65.65s.24.02.31.11c.08.11-.08.29-.07.37-1.47.78-1.76.08-.25-.49Z" fill="#c79515"/>
        <path d="M6.59,64.67c.08.01.93.45.86.67-.07.33-.8.05-.98-.06s-.38-.27-.37-.49c.14-.01.38-.14.49-.12Z" fill="#c99612"/>
        <path d="M30.51,64.43c.08-.02.16-.12.19-.12.08,0,.05.2.14.24h.17c.01.08-.02.17,0,.24-.28.17-1.37.81-1.16.12.1-.32.39-.4.67-.49Z" fill="#c89e1f"/>
        <path d="M34.31,71.49c.24.6-1.28.74-1.35.42-.09-.4,1.1-.48,1.35-.42Z" fill="#cb9510"/>
        <path d="M8.93,62.48c.16.08.5.68.37.85-.33-.14-.68-.29-.98-.49-.06-.04-.25-.15-.24-.18,0-.02.11-.3.12-.31.03-.02.69.1.74.12Z" fill="#c4961b"/>
        <path d="M25.61,88.54s-.04.28-.12.37c-.12,0-.25,0-.37,0,.07-.29-1.02-.94-.43-1.1.44-.12.56.6.92.73Z" fill="#c79418"/>
        <path d="M34.68,74.41c-.41.02-.9.32-1.23-.06-.06-.28.79-.42.98-.42.59-.03.25.42.25.49Z" fill="#c99616"/>
        <path d="M4.02,73.68c-.85.22-1.22-.51-.49-.61.36-.05.64,0,.86.3,0,.02-.34.3-.37.3Z" fill="#c99919"/>
        <path d="M14.69,59.32c.22.19.57.62.18.85l-.8-.73c.1-.06-.03-.67.61-.12Z" fill="#c99713"/>
        <path d="M33.46,80.26s.02.44,0,.49c-.25-.06-1.05-.33-1.1-.55,0-.25.2-.33.43-.31.04,0,.66.34.68.37Z" fill="#c8980c"/>
        <path d="M7.21,85.5c.11-.09.86-.49.98-.36.15.15-.43.83-.49.85-.43.17-.75-.26-.49-.49Z" fill="#bf8f10"/>
        <path d="M29.65,63.7c-.09.12-.75.48-.86.36-.12-.31.25-.74.49-.85.09-.04.35,0,.49-.12,0,.21,0,.43-.12.61Z" fill="#c5980f"/>
        <path d="M31.25,84.03c.1.21.05.27,0,.49-.1.07-.41-.17-.49-.24-.23-.2-.57-.61-.18-.85.17-.04.6.45.67.61Z" fill="#c9960f"/>
        <path d="M19.47,90.12s-.11.24-.12.24c-.14.09-.39-.22-.49-.24-.27-1.57.71-1.05.61,0Z" fill="#c69517"/>
        <path d="M30.14,85.25c.03.06.15.21.12.24-.21.03-.28.11-.49,0-.28-.15-.74-.88-.3-.97.22-.05.57.55.67.73Z" fill="#c89415"/>
        <path d="M13.22,59.92c.62,1.02-.44.93-.61,0,0-.02-.14-.22-.12-.24.41-.12.49-.15.73.24Z" fill="#c49518"/>
        <path d="M26.95,87.69c.07.11.19.42.12.49-.08.09-.44-.12-.49-.12-.99-.56-.27-1.28.37-.37Z" fill="#c59414"/>
        <path d="M23.52,89.15c.22.55-.2.7-.49.24-.57-.89.09-1.21.49-.24Z" fill="#c79514"/>
        <path d="M28.55,86.47c.52.76-.12.73-.49.24-.48-.62-.09-1.1.49-.24Z" fill="#c79411"/>
        <path d="M34.68,72.83c.05.18-.21.37-.25.49-1.72.08-.87-.75.25-.49Z" fill="#ca9418"/>
        <path d="M32.84,81.6c.12.1.13.34.12.49-.15-.02-.35.03-.49,0-.51-.11-.92-.8-.24-.68.08.01.58.17.61.19Z" fill="#c69714"/>
        <path d="M4.02,70.15c.86.03,1.15.63,0,.49-.26-.03-.74-.22-.49-.49.02-.02.4,0,.49,0Z" fill="#c29519"/>
        <path d="M10.89,60.41c.2-.2.39.15.49.24.9.91-.29.91-.49.24-.02-.06-.02-.47,0-.49Z" fill="#c79813"/>
        <path d="M13.71,89.39c-.05.12.08.42-.37.24-.04-.01-.08-.22-.12-.24.17-1.01,1.02-1.27.49,0Z" fill="#c49514"/>
        <path d="M21.8,89.64c.08.64-.29.69-.49.24-.4-.91.37-1.22.49-.24Z" fill="#c4941d"/>
        <path d="M3.53,71.86l.86.06-.86.43s-.34.1-.25-.29c.02-.09.21-.14.25-.2Z" fill="#c69618"/>
        <path d="M15.43,89.64c-.13.3-.54.53-.61.18,0-.03.11-.12.12-.18.17-1.15.83-.78.49,0Z" fill="#c79314"/>
        <path d="M5.74,66.01c.17.03.79.45.61.61-.27,0-.62,0-.86-.12-.45-.21-.37-.61.25-.49Z" fill="#c89116"/>
        <path d="M10.4,88.18c-.7.04-.23,0-.49-.24.27-.14.28-.76.67-.61.44.17-.13.61-.18.85Z" fill="#ca9912"/>
        <path d="M22.66,58.95c.03.08-.04.3,0,.37-.23.2-.37.63-.74.61-.05-.06.06-.61.12-.73.15-.33.3-.24.61-.24Z" fill="#c29516"/>
        <path d="M3.77,74.41c.21.05.8-.12.44.37-.15.2-.68.09-.93.11v-.49c.16-.02.33.01.49,0Z" fill="#c7941a"/>
        <path d="M16.77,89.88c-.05-.76.6-.99.49,0-.01.12.06.35-.06.37-.46.06-.38-.33-.43-.37Z" fill="#c69519"/>
        <path d="M28.06,62.24c.45-.31.68-.08.37.37-.55.79-1.17.18-.37-.37Z" fill="#c59514"/>
        <path d="M8.93,87.08c-.15.07-.55.09-.61,0-.05-.06.06-.3.12-.37.18-.17.88-.41.86.06,0,.02-.32.28-.37.31Z" fill="#c79713"/>
        <path d="M20.58,58.95c.02-.1.17-.24.31-.25.43-.03.28.24.3.25-.14.75-.81.94-.61,0Z" fill="#c59719"/>
        <path d="M15.92,58.95s-.1-.21.18-.25c.45-.06.26.1.31.25.38,1-.38.74-.49,0Z" fill="#c59615"/>
        <path d="M19.6,58.71l-.31.85-.18-.85c.16,0,.27-.01.49,0Z" fill="#c89614"/>
        <path d="M23.03,59.68c.07-.29.07-.61.43-.49.1.03.04.23.06.25.12.4-.48,1.05-.61.54-.02-.09.1-.22.12-.3Z" fill="#c5971a"/>
        <path d="M18.25,58.71c-.03.53.22.85-.49.73v-.73c.22,0,.36,0,.49,0Z" fill="#c59712"/>
        <path d="M6.47,84.52c.32-.16.76-.28.62.18,0,.02-.35.3-.37.3-.12.04-.34-.02-.49,0-.04-.26.01-.37.24-.49Z" fill="#c1960d"/>
        <path d="M15.3,82.21c.2-.13.12-.46.12-.67.01-.94.03-2.18-.61-2.92,0-.2,1.61-.28,1.94-.39.59-.19,1.08-.77,1.47-1.22.11-.43,1.54-2.19,1.49-2.41-.03-.15-.16-.2-.31-.07-1,.89-1.36,2.87-2.78,3.33-.87.28-2.65.32-3.5-.02-.11-.05-.86-.5-.91-.56-.25-.33-.02-.55-.01-.86,0-.18-.15-.39-.09-.59.04-.15.82-.5.6-.69-.19-.16-.91.7-.86-.24.31.13,1.12-.15,1.28-.11.17.04.14.51.56.35,0-.34-.23-1.08-.57-1.2-.52-.18-.14.25-.18.4-.07.32-.94.16-1.21.19.04-.32.28-.4.26-.79-.02-.42-.37-.43-.38-.79,1.37.51,1.59-1.07.31-1.34-.62.49.64.48.55.91-.07.33-.68.05-.91.06-.5.02-1.34.42-1.27-.51.54-1.11,1.91-1.99,1.94-3.25.62.26,1.3.03,1.97.18s1.27.88,1.96,1.04c.2-.21-.52-.75-.67-.85-.14-.09-1.27-.61-1.35-.61h-1.78c-.03-.31.77-2.35.88-2.42.46-.29.9.21,1.17.33.24.11,1.22.34.78.68-.54.42-1.59-.32-1.16.55.32.65,2.05.55,2.13.62.04.04.24.88.33,1.07.33.67,1.83,1.96-.2,1.6-.11.11.48.99.61,1.16.41.51,1.17,1.16,1.65,1.65.14.14.14.45.25.48.42.14.26-.24.42-.43.32-.37.68-.6.83-1.13.35-1.21-.49-2.66.65-3.44.5-.25,1.15.98.89,1.46.39.41.57.94.54,1.59l.05,1.84c.17.27.17.47,0,.59,0,.13-.13.34-.12.54.07.84,2.01,1.59,2.33,2.32.06.15-.03.23-.18.18-.11-.03-1.44-.72-1.53-.8-.37-.31-.78-1.4-1.05-1.51-.3-.12-.17.36-.13.49.54,1.47,1.5,1.33,2.34,1.94.2.15.3.48.43.56.16.1.34-.05.49,0,.35.13,1.54,1.27,1.66,1.63.44,1.41-.53,1.1-1.54,1.1-.8-.38-.22-1.35-1.04-1.7-.45-.19.17.59.18.67.13.66-.22,1.04-.86.73-.29-.14-.19-.45-.24-.55l-.51-.27c-.44-.22-.59-.21-.47.02.2.24.05.28-.16.39-.42.22-1.3.47-1.81.64-1.53.52-3.09.92-4.66,1.28-.21.04-.19-.17,0-.24Z" fill="#e8ca1b"/>
        <path d="M22.54,74.9c.07-.24.3-.36.72-.36-.27-.32-.19-.58.21-.68-.38-.34-.26-1.19.3-1.16.12-.06.72-.92.69-.97-.5-.19-.5-.64.02-1.35-.62,1.24-1.71.69-1.08-.48l-.11-.12c-.41.58-.75.19-.89-.37l-.37-1.73c-.89.4-1.66-1.24-1.59-2.06-.4.05-.96-.43-.84-.84-.33-.34-.58-.78-1.1-.92-.57-.15-.98.04-1.42.01-.13,0-.22-.19-.24-.19h-1.78s-.12-.29-.12-.31c0-.23,1.62-.56,1.94-.63,5.67-1.28,9.95.35,10.32,6.6.12,1.95-1.09,5.78-3.1,6.54-.77.29-1.94-.03-1.56-1Z" fill="#e9ca1c"/>
        <path d="M19.6,64.8c.24.24.51.47.73.73,0-.3-.06-.6-.15-.88-.07-.23-.62-.83-.15-.82.93.7.49,1.79.77,2.65.06.17.83,1.33,1.01,1.13.26-1.1-.34-1.85-.61-2.74-.06-.2.01-.19.18-.18.38.02.72,1.3.77,1.68.13,1.07.03,1.24.36,2.32.13.42.05.95.47,1.24.88-.49.16-4.1.31-4.26.15-.02.22,0,.3.12.15.24.34,2.23.31,2.62-.03.6-.23,1.01-.49,1.52-.3.44-.23.89.19,1.35l.11.78c.6.13.53.38.06.67-.21.35-.33.49-.24.97,1.57-.5,2.33-1.85,2.88-3.29.28-.05.17.09.15.27-.15,1.52-1.8,3.17-3.28,3.5.22.51.73-.1,1.16,0,.11.03.25.18.07.3-.16.11-1.72.43-1.96.43-.03,0-.23-.19-.37-.12,0-.12-.22-.33-.24-.55-.04-.46.06-3.1-.44-3.22-.69-.16-.77,1.77-.86,2.08-.06.22-.04.28-.31.24-.03-.74-.04-1.56.44-2.18.18-.24.54-.38.61-.49.23-.35-.42-1.09-.68-1.34-.11-.11-.36-.22-.37-.24-.65-.25-1.02-.61-1.1-1.1-.03-.03.07-.33-.25-.24-.15-.09-.2-.27-.18-.54-.28-.09-.38-.23-.31-.43-.06-.1.15-.46-.25-.37-.1-.26-.03-.57.19-.93,0-.4.11-.7.3-.9.07.07.09.21.22.24.19.04.44-.02.64,0Z" fill="#d38d1b"/>
        <path d="M18.25,66.38c-.07.11-.45.79-.61.61.09-.07.12-1.33-.24-.97-.2.2.02,1.16-.74,1.64-.62.39-1.16.26-1.83.19.11-.31.58-.31.75-.54.31-.41-.15-.82-.23-1.26-.06-.33.05-.92-.09-1.13-.22-.34-.41,0-.41.3,0,.11.31,1.19-.08,1.04-.54-.22-.45-.99-.43-1.46-.58-.08-.29.89-.37.97-.37.03-.71-.14-1.06-.2-.26-.05-.53.24-.65-.47s.11-1.43.85-1.64c.07.07-.66,1.55.25,1.58-.1-.72-.02-1.84.99-1.53s-.11.92.12,1.17c.41-.03.52-.49.95-.58.39-.09.86,0,1.26-.02-.22.45-.63,1.14-.18,1.58.32-.25.1-.64.25-.97.23-.53,1.42-.65,1.85-.37.09.06.12.2.17.25.09.74-.11,1.23-.49,1.83Z" fill="#e9c620"/>
        <path d="M18.98,67.72c-.14.38-.38.57-.46,1.07-.11.7.11,3.2-1.07,3.21-.16,0-.36-.04-.43-.2-.16-.37.4-.23.54-.67.36-1.15-1.31-2.03-1.02-2.96.04-.12,1.77-1,1.95-1.42.1.17.84.04.49.97Z" fill="#e9c81d"/>
        <path d="M19.23,67.96c.13.12.44.38.62.54.17.14.58.29.6.32.04.05-.14.19-.12.24-1.25.79.03,3.75-1.23,4.32-.47.21-1.34-.71-1.32-.98,0-.11.41-.39.51-.55.84-1.3.34-2.53.93-3.89Z" fill="#eac722"/>
        <path d="M15.3,82.21c0,.08-.02.19,0,.24.02.06.33.15.25.37l-.07.3c-.67.5-2.22,1.47-2.97,1.78-.43.17-1.3.5-1.38-.12,0-.13-.03-.38,0-.49.77-.09,1.61-.23,2.15-.89.24-.69.94-2.1,1.52-1.06-.06-.47.03-.75.26-.85l.25-.24c0,.32-.03.67,0,.97Z" fill="#e0742f"/>
        <path d="M22.78,81.36c-.12.21.08.21.61,0,.36,0,1.11-.14.98.24-.11.22.09.22.61,0,.43-.02,1.2-.06,1.59.07.09.03,1.35.93,1.43,1.02.44.52-.52,1.03-.94,1.28-2.83,1.62-11.75,2.81-14.91,2.04-.09-.02-.41.03-.29-.2.12-.22,1.23-.5,1.54-.67.09-.05.48-.22.3-.37-.13-.11-1.84.73-2.28.73-.39,0-.29-.47-.3-.73.21.14.4.13.64.1,1.18-.18,2.65-1.58,3.78-2.04,1.02-.42,2.5-.65,3.61-.98.54-.16,3.07-1.22,3.38-1.03.15.09.21.39.25.56Z" fill="#d84227"/>
        <path d="M11.13,84.28c.07-.27,1.61-1.32,1.96-1.64.62-.55,1.16-1.21,1.78-1.77.29-.12.18.47.18.61.03.79.1,1.4-.86,1.58-.06-.05.79-1.14.08-.84-.46.19-.62,1.17-.9,1.45-.34.35-1.79,1.15-2.24.6Z" fill="#d0491e"/>
        <path d="M21.93,80.14c-.66-.21-1.02-.31-1.54-.85-.69-.72-1.12-2.48-.7-3.39.17-.35.84-.51,1.02-.81.21-.34.2-1.12.24-1.53h.37c.02.49,0,1.1-.22,1.55-.24.49-1,.76-1.1,1.1-.08.26.04,1.87.12,2.14.04.13.92,1,1.09,1.11.62.42,1.3.23,1.71.92-.34,0-.67-.15-.98-.24Z" fill="#c79c0e"/>
        <path d="M24.99,81.6c-2,1.48-4.34,2.44-6.56,3.53l-.18-.18c.12-.29,3.45-1.78,4.03-2.09.48-.25,1.69-1.18,2.1-1.27.16-.03.42,0,.61,0Z" fill="#e26f37"/>
        <path d="M22.78,81.36c.18-.02.42,0,.61,0-.9.69-2.05.89-3.09,1.23-.09.03-.1.19-.19.22-.37.11-1.32.36-1.68.38-.14,0-.27-.01-.18-.18.13-.27,1.42-.5,1.81-.64.73-.26,2.06-.92,2.73-1.01Z" fill="#e46f36"/>
        <path d="M15.42,70.88c-1.01-.29-1.81.5-2.82.37-.09-.32.32-.28.37-.45.26-1-.51-.35-.61-1.01l1.47.24c-.09-.41-.86-.44-.98-.67-.14-.27.39-.2.52-.15.11.04,1.66,1.18,1.85,1.33.13.11.26.12.2.34Z" fill="#cb9418"/>
        <path d="M20.7,76.61c.06.05.18.88.82,1.2.57.29,1.68-.05,1.89.62-1.33-.06-3-.15-3.07-1.83.1.01.33-.03.36,0Z" fill="#c79a0f"/>
        <path d="M23.4,69.91c-.5,1.78,1.15.8.98-.36.56,0,.39.83.25,1.17-.08.21-.37.44-.38.48-.07.32.47.28.49.3.17.18-.62,1.26-.98,1.22.05-.09.28-.33.25-.36-.78,0-.5-.48-.62-.91-.13-.47-.4-.72-.21-1.33.05-.15.21-.18.22-.2Z" fill="#ddac16"/>
        <path d="M22.71,70.35s.17.03.19.13c.2.85.41,2.52.25,3.38-.04.19-.42.64-.57.66-.68.12-.34-2.35-.42-2.84-.08-.52-.84-2.45-1.21-2.82-.93-.9-.77-.52-1.55-1.75-.11-.18-.65-.66-.66-.71-.1-.4.41-.85.37-1.37.45-.32,1.66,2.09,1.91,2.42.95,1.27,1.11,1.27,1.69,2.89Z" fill="#d76221"/>
        <path d="M24.99,83.06c.15.13-.19.33-.28.39-1.02.65-3.05,1.08-4.26,1.19-.04-.26.1-.3.31-.36.45-.13,1.03-.16,1.53-.31.37-.11,2.59-1.01,2.7-.91Z" fill="#e57137"/>
        <path d="M27.44,82.57c.23.21-1.31,1-1.45,1.06-.13.06-1.39.65-1.37.22,0-.15,2.46-1.16,2.82-1.28Z" fill="#e57038"/>
        <path d="M16.65,84.77c.05.28-.13.27-.31.36-.39.18-.98.4-1.41.37-.34-.28,1.49-.88,1.72-.73Z" fill="#e56e38"/>
      </g>
    </g>
  </g>
</svg>