<?xml version="1.0" encoding="UTF-8"?>
<svg id="Layer_2" data-name="Layer 2" xmlns="http://www.w3.org/2000/svg" viewBox="0 0 64 96">
  <g id="Cards">
    <g id="TwelveOfCoins">
      <g>
        <path d="M3.46,7.91h-1.51V2.22c-.55.52-1.2.9-1.95,1.14v-1.37c.39-.13.82-.37,1.28-.73C1.75.9,2.06.48,2.23,0h1.22v7.91Z" fill="#fdc11f"/>
        <path d="M9.23,6.5v1.4H3.94c.06-.53.23-1.03.52-1.51s.85-1.1,1.7-1.89c.68-.63,1.1-1.06,1.25-1.29.21-.31.31-.62.31-.92,0-.34-.09-.6-.27-.78-.18-.18-.43-.27-.75-.27s-.57.09-.75.28-.29.5-.32.95l-1.5-.15c.09-.83.37-1.43.84-1.79C5.43.18,6.02,0,6.73,0,7.51,0,8.12.21,8.56.63c.44.42.67.94.67,1.56,0,.35-.06.69-.19,1.01-.13.32-.33.66-.6,1.01-.18.23-.51.57-.99,1-.48.44-.78.73-.91.87-.13.14-.23.28-.31.42h3Z" fill="#fdc11f"/>
      </g>
      <g>
        <path d="M60.54,88.09h1.51v5.69c.55-.52,1.2-.9,1.95-1.14v1.37c-.39.13-.82.37-1.28.73-.46.36-.78.78-.95,1.26h-1.22v-7.91Z" fill="#fdc11f"/>
        <path d="M54.77,89.5v-1.4h5.29c-.06.53-.23,1.03-.52,1.51s-.85,1.1-1.7,1.89c-.68.63-1.1,1.06-1.25,1.29-.21.31-.31.62-.31.92,0,.34.09.6.27.78.18.18.43.27.75.27s.57-.09.75-.28.29-.5.32-.95l1.5.15c-.09.83-.37,1.43-.84,1.79-.47.36-1.06.54-1.77.54-.78,0-1.39-.21-1.83-.63-.44-.42-.67-.94-.67-1.56,0-.35.06-.69.19-1.01.13-.32.33-.66.6-1.01.18-.23.51-.57.99-1,.48-.44.78-.73.91-.87.13-.14.23-.28.31-.42h-3Z" fill="#fdc11f"/>
      </g>
      <g>
        <path d="M34.38,19.63c-.06.98,2.22,3.28,2.93,3.27,1.65-1.07,3.29-2.16,4.93-3.27l.31.26c.02-.76.6-.69.77,0,.07-.22.16-.22.26,0,.49.48.42.62-.26.51-.26.72-1.28,1.62-2.04,1.53-.1.69-.24.62-.51,0-.56.53-.73.87-.51,1.02.13.49.3,1,.51,1.53.22.07.22.16,0,.26-.25.23-.08.4.51.51-.06-.58,1.45-.85,2.04-.77.24-1.01,1.06-.43.51.51l.21.51-4.04,6.22s-.94,1.67-2.81,5.02c-1.65,2.71-5.53,5.22-8.68,4.6-2.41,1.07-6.31-.05-6.89-2.81l-.26-.77c-.08.7-.32.67-.51,0-.45.12-.96.04-1.53-.26-.3-.79-.83-1.57-1.61-2.32l-1.2-2.02c-.57.52-1,.21-.77-.51-1.66-2.21-.1-2.88,2.1-3.22.24-.43.48-.81.71-1.12.41-.2,1.15-.44,1.28-.51l.19.28c.97-.66,1.84-.93,2.62-.79.79.66.23,2.49-.08,3.46l.39.3c.65-.56,1.51-.56,2.56-.03.6-.13,1-.01,1.21.35q2.44.76,0,0l.02-.55c-3.17.24-4.4-.8-3.69-3.12l-.16-.67c-1.24-1.27,1.6-3.08,2.81-2.55.52-.14.7-.51.77-1.02-.77-1.07,3.49-3.87,3.77-3.8.12.03.22.12.31.22l.2-.36c1.11.24,2.13.04,3.06-.61l.31.2c.72-.21.85.06.26.51Z" fill="#65b3e5"/>
        <path d="M16.5,43.63c.33-.24.45-.11.26.26.81,1.02,1.57,2.81,1.53,4.09.13.92.26,1.68,1.02,2.3.24.11.45.23.53.42,1.19,2.52,2.26,5.09,3.29,7.68.68.92.94,1.88.78,2.89l.15.41c-1.88,7.56-2.64,15.45-1.88,23.14l-.31.19c-.93-3.11.13-6.4-.25-9.58-.12-1.02-2.71-4.15-3.65-4.53-1.02-.42-2.23-.07-3.32-.25-.91-.16-2.07-.85-3.13-.96-.5-.69-.52-5.61-.33-5.83.1-.12.41,0,.46-.04l.5.46c-.22,1.58-.25,3.15-.09,4.72.97-1.51,1.85-2.05,2.66-1.61.07-.65.4-.85,1.02-.77,3.82-.83.1-3.86-1.63-4.82-1.26-.84-1.65-1.62-1.18-2.33.53-1.34.45-1.59-.26-.77-.62,1.73-1.33-.93-.81-1.95,1.4-1.89,2.43-3.95,3.09-6.17l.27.21.21-.54c.84-.35.77-.68-.21-1-.17-.55-.34-.98-.51-1.28-.48-.16-.48-.38,0-.51.88-.92.84-1.9.75-3.29l.28-.29c-.22-.7.4-.87.77-.26Z" fill="#d2d4d5"/>
        <path d="M34.38,5.58c-.02.58.15.98.51,1.2,3.63-.63,4.67.62,3.19,3.97,0,.22.98,2.41,1.71,1.55,2.01-2.31,3.54-1.86,5.06.43.8.03,1.17,2.15.51,2.55-.39.32-.85.69-1.28.26.17.89-.08,1.14-.77.77-.53,1.21-3.52,1.6-3.57,0-.24.19-.64.15-1.2-.14-.66.07-1.2.03-1.61-.12-.52.73-1.15,1.28-1.89,1.64-1.32,2.04-5,3.02-5.52.15-.16.51-.4.75-.77.26.83-.75,2.25-1.56,2.97-2.39,1.92-2.21,2.33-7.76,2.39-10.63.4-.42.68.24.26.51Z" fill="#e4e5e5"/>
        <path d="M24.42,61.25l.23.61c-1.18,7.04-2.08,13.62-1.87,20.82.03.94.13,2.46,1,2.99,5.61,1.34,11.68,2.52,17.62,2.21l.9.44c.69-.07.77.1.26.51-2.33.24-4.79.31-7.15,0-3.02-.13-5.73-.66-8.68-1.28l-1.47-.09c-.19.66-.47.47-.57-.17-.28.74-1.87.26-1.79-.51-.28.12-.37-.05-.26-.51-.27-.31-.7-.89-.77-1.28-.45-2.64-.18-10.44,0-13.4.2-3.17.98-7.35,2.04-10.34-.18-.87,0-1.3.51-1.28.27.26.27.69,0,1.28Z" fill="#b03b30"/>
        <path d="M37.7,2.52c1.92,1.17,2.16.46,3.57-.51.19-1.09.84-.87.67.23l.35.28.3-.15c.23,1.12,1.54,1.04,2.29.42,1.23-3.67,3.82-.8.99,1.26-.7.68-1.17,1.31-1.79,2.04-.09.77-.35,1.02-.77.77-1.55,0-3.08.09-4.6.26-.11.21-.48.07-1.12-.43l-3.09.12-.14-1.22c-.07-.18-.05-.39-.26-.51,0-.17,0-.34,0-.51-.47-.94-.7-1.73.51-1.02.47.32.77,1,.89,2.05.87.19,6.1.18,7.1.02.24-.04,1.14-.81,1.13-.91,0-.12-1.9-1.12-2.04-1.14-1.88.8-3.11.92-5-.04-.76.24-1.28.24-1.57.01-.49-.15-.5-.38,0-.51.09-.32.27-.37.51-.51.05-.48.22-.7.29-.24-.13-1.02.19-2.29,1.24-1.29l.25.14c-.15.53-.07,1,.26,1.39Z" fill="#d3af46"/>
        <path d="M22.89,86.78c.81.27,0,1.87-.77,1.53-.1.2-.19.37-.26.51-1.29,1.04-2.65,2.06-4.09,3.06,0,.51-.34.43-.51,0l-.1.55c-3.22,1.71,1.15.77,1.87-.25l3.04-.95c1.86-.54,2.04-1.12,1.85-2.96-.04-.76.2-1.09.75-.99.62.13,1.26.09,2.04.26h-1.53c1,4.86-2.97,4.75-6.38,6.01-1,.37-4.06,2.44-4.29-.04-.07-.74,2.73-2.85,3.46-3.4,1.54-1.16,3.84-1.83,4.66-3.84.23.26.23.5.26.51Z" fill="#8e9b51"/>
        <path d="M11.39,36.74c.76,1.01.73,3.34.26,4.47.19.02.34.04.34.08.07.57.27,4.84.17,5.18l-.51.36c.27.15.51.35.43.66l-2.28,6.82c-.83,3.53-1.07,6.18,2.58,7.91l.04.57c.24.58-.32.48-.77.26-.92-.68-2.31-1.23-2.92-2.32-2.26-4.05,1.95-10.96,2.38-15.21.2-2.02-.27-3.96-.22-5.97.14-1.05.19-2.13.16-3.23.43-.92,1.32.16.35.42Z" fill="#4c82a9"/>
        <path d="M34.38,5.58c.12.33.24.96.27,1,.14.15,2.64-.07,3.19,0,.31.04.34.34.88.53.37-.29.5-.15.26.26.38-.04.46.19.24.7l.33.15c-.33,1.17-.41,2.28-.23,3.33.82-.86,1.67-1.51,2.92-1.6-.96-1.06-.29-2.69,1.08-2.83-.22-.09-.22-.17,0-.26.19-.24.52-.48.77-.77-.13,1.26.63,2.37.77,3.57.46.94.97,2.4,0,3.06-1,.26-1.05-1.08-1.79-1.4-2.03-.87-2.26,1.05-3.24,1.35-1.33.4-1.13-.41-1.6-1.1-.17-.25-.7-.54-.71-.76-.02-.23.92-1.28.95-2.07.01-.3-.42-1.78-.53-1.86-.49-.32-2.82.12-3.54.22v-1.53Z" fill="#b99b81"/>
        <path d="M46.12,88.06c-.31,1.97,5.65,7.54,1.41,7.94-.83.08-3.52-1.46-3.97-2.18-.65-1.06-1.09-3.48-1.01-4.73-.27-.27-6.26.4-7.15-.25,2.15.09,5.04.17,7.15,0,.19-.42.64-.47.77,0,.39.17.39.34,0,.51.45.34.98.3,1.6-.12,1.41.51.09,1.49-.72,1.94.16.73.12,1.32-.12,1.75.05.74,2.54,2.14,2.89,2.2,1.43.24.97-1.83.18-2.49l-.77-1.74c-.98.1-1.59-1.72-.77-2.04-.59-.1-.51-.35.26-.77.06-.23.14-.22.26,0Z" fill="#8e9c50"/>
        <path d="M49.44,17.07c.42-.51.55-.4.51.26.45-.33,1.07-.1,1.84.7l.71.32c.2-.36.54-.19,1.02.51.86.09,1.54.43,2.04,1.02.07-.22.16-.22.26,0,1.42,2.89,2.45,5.19,4.2,7.93.95,1.49.31,3.68-.12,5.35l-.04,1.85c-.38.05-.63-.05-.73-.32-.15.48-.37.48-.51,0l-.4-.44c.75-1.79,1.09-3.59,1.02-5.41-1.7-2.18-2.91-4.69-3.65-7.54-1.95-1.21-4.05-2.14-6.31-2.79l-.37-.67c-.39-.11-.28-.26,0-.51-.26-.7.01-.82.51-.26Z" fill="#ab3c36"/>
        <path d="M11.9,63.29c1.17-.47,2.69,1.46,2.81,2.55.58.58.75,1.01,0,1.53-.34.19-1.02.38-1.21.58-.47.47-.59,1.88-1.84,1.46-.55-1.94,0-3.67,0-5.61.05-.04.08-.42.26-.51Z" fill="#e0c041"/>
        <path d="M55.57,74.27c.19-.02.28.06.26.26.18.55.27,1.15.26,1.79.36,2.5.83,4.53.01,7.04-1.52,4.69-5.84,3.61-9.72,4.45-.49-.13-.49-.36,0-.51-.12-.63.26-.76.81-.93,6.02-.18,8.45-.9,8.03-7.43l-.63-4.61c.02-.39.35-.41.98-.05Z" fill="#b23d35"/>
        <path d="M29.27,18.86c0,.34.26.51.77.51.11-.6,1.43.29.51.51-1.34.24-3.39,2.43-4.09,3.57.27.87.02,1.21-.77,1.02-.67.36-1.39.23-2.06.88s-.47,1.19-.75,1.68c.35.36.21.48-.26.26-.4.39-1.62.87-2.19,1-.4.09-1.21.27-.62-.49,1.95-1.1,1.77-1.76,3.01-2.81.78-.66,2.33-.85,2.74-1.27,1.04-1.09,1.24-4.21,3.19-5.62.03-.02.73-.26.77-.26.38.79.29,1.13-.26,1.02Z" fill="#4686b1"/>
        <path d="M60.42,44.91l-.13.68c.2,4.69.08,9.4-.38,14.13-.64-.11-.92-.66-.83-1.68l.35-5.16c-.42-5.92-.56-12.07-.28-17.68-.7-.02-.67-.3,0-.51.02-.02.44.12.51-.17.1-.39.12-.82.25-1.36,0,1.02.44,1.9.52,2.93.2,2.61-.13,5.89,0,8.82Z" fill="#4984ac"/>
        <path d="M44.85,9.67c.39.73,1.11,1.15,1.5,1.69.83,1.16.68,1.45,1.83,2.77.24.28.25.89.49,1.04.15.1,1.89.56,2.32.75.27.12.43.36.5.39-.08.36-.49.44-1.24.23-.43.34-.56.39-.8-.23-.76-.45-1.67-.46-2.71-.01l-.36-.5c-.29.6-.8.48-.77-.26-.36.39-.53.22-.26-.26-.06-.11-.48-2.28-.51-2.55-.1-.98.11-2.1,0-3.06Z" fill="#edece9"/>
        <path d="M60.42,65.33c.09.45.65,1.18.74,1.94.22,1.76-.15,3.81.02,5.59.13,1.37,1.93,5.22-.62,4.71-1.69-.34-2.63-2.52-4.37-3.04l-.13,1.79c-.08-.57-.33-.9-.26-1.79-.51-.61-.56-.78.26-.51,1.32-.68,3.15.94,4.08,1.95.75.9.75.17,0-2.17-.06-.42.1-.66.52-.81-.2-2.14-.24-4.29-.13-6.45l-.13.33c-.39.38-.52.24-.26-.26-.44-.08-.61-.33-.51-.77-.69-.09-.65-.3,0-.51.03-.59.62-.13.77,0Z" fill="#d5b95e"/>
        <path d="M60.42,64.82c-.43.74-1.36-.17-.51-.51-.76-1.34-.8-3.28,0-4.6.1-4.48.2-8.92.25-13.41,0-.43-.16-1.14.26-1.4.28,6.63.07,13.31,0,19.92Z" fill="#4e80a0"/>
        <path d="M51.48,16.31c1.43.62,3.47.89,4.15,2.37.21.45.12,1.06.19,1.2h-.26c-.42-.24-.85-.57-.51-1.02-.71-.42-1.22-.42-1.53,0-.64-.28-.73-.36-1.02-.51-.98-.81-1.83-1.15-2.55-1.02-.23-.08-.48-.25-.51-.26-.72-.12-.67-.53,0-.77h2.04Z" fill="#5486ac"/>
        <path d="M14.71,30.35c.53-.09.44.65,0,.77-1.26.47-2.31.92-2.89,2.39.96-.33.68,1.47.08,1.69-.01.55-.24.72-.77.51-1.44-2.32.35-4.43,2.5-5.3.34-.14.88.02,1.08-.06Z" fill="#b59883"/>
        <path d="M35.14,3.03c-.04.14.03.35,0,.51-.09.69-.3.65-.51,0-.81.05-.46.15-.51,1.02-.42-1.08-2.97-1.76-2.44-2.81.36-.7,1.18-.66,1.53.01.55,1.06-.03,1.49,1.93,1.26Z" fill="#cda957"/>
        <path d="M18.54,28.31c.48.12-.23,1.45-.3,1.49-1.18.71-4-.77-2.51,2.85-.34.84-.68.32-1.02-1.53v-.77c.69-.26,2.9-1.6,3.83-2.04Z" fill="#4984ae"/>
        <path d="M42.8,1.24c.16,1.31-.62,2.05,1.16,1.8,1.13-.16,1.19-3.31,3.08-1.83,1.11.87-.06,2.1-.75,2.75-.13.13-.39.05-.43.09.16-.46,1.92-2.57.63-2.81s-.96,1.64-1.45,1.87c-1.3.61-1.94.18-2.76-.59-.98-.59-.55-1.97.51-1.28Z" fill="#f5ecc5"/>
        <path d="M11.9,35.2c.92.22,1.52.73,1.79,1.53.35.16.36.37,0,.51.19.79-.22.66-.77.26-.56.19-1.07-.06-1.53-.77,0-.19.08-.79-.26-.38-.05.85.07,1.72.01,2.57-.02.33-.26.58-.27.62.11-1.23-.27-2.7.26-3.83.15-.31.39-.6.77-.51Z" fill="#868988"/>
        <path d="M12.42,62.78c1.25-.48,3.01,1.75,3.32,3.06.7.02.66.28,0,.51-.44.81-.89.27-1.02-.51-.46-.43-1.02-1.48-1.62-1.94-.38-.29-.86-.37-1.18-.61-.09-.07-.16-.19-.26-.26l.77-.26Z" fill="#528183"/>
        <path d="M46.38,87.29c-.03.16.04.37,0,.51-.06.21-.08.19-.26.26-.07.03-.17-.02-.26,0-.52.42-2.03,1.21-2.55.77-.24.04-.52-.02-.77,0l-.26-.51c.35-.72,2.68-1.31,3.59-1.42l.5.4Z" fill="#ae3f16"/>
        <path d="M42.8,1.24c-.59.28-.98.7-.51,1.28-.07-.06-.73.2-.51-.77-.03-.04-.4.18-.51.26-.4-1.8,1.25-3.06,1.53-.77Z" fill="#ccb064"/>
        <path d="M37.18.48c.25.28.25.45,0,.51-1.65.14-.74,1.1-1.04,1.52-.07.1-.41-.03-.49.01.2-1.07-.39-3.22,1.53-2.04Z" fill="#cdb268"/>
        <path d="M58.63,63.8c.46-1.1,1.17-.51,1.28.51.08.11-.22.68.51.51,0,.16-.03.37,0,.51l-.12.25c-.13-.23-.57-.19-.64-.25-.52.64-1.69-.68-1.28-1.28-.34-.36-.18-.51.26-.26Z" fill="#bab26d"/>
        <path d="M37.7,2.52c-.17-.1-.63.02-.75-.41-.09-.32.18-.78.24-1.12.03-.16-.02-.35,0-.51.81.5.47,1.19.51,2.04Z" fill="#f0e5b2"/>
        <path d="M44.08,15.54c.62.02.88.28.77.77.68.06.61.25,0,.51-.3.33-.28.69-.25,1.41l-.26.13c-.26.48-.6.99-1.02,1.53-.24.04-.56-.05-.77,0l-.67-.06-4.55,3.07c-.74.04-3.08-2.39-2.96-3.27-.07-.13-.02-.41-.26-.51.03-.75,2.01-2.59,2.77-2.77.08-.02.18.08.29.21.25-.72,2.26-.55,2.04.26.48-.01.67.13.73.56.59-.13.94.03,1.06.46l.1.4c.64-.15,1.96-.75,2.2-1.16-.64.03-.64-.22,0-.77.38-.22.51-.59.77-.77Z" fill="#66b9ef"/>
        <path d="M46.38,15.8c1.09.07,2.78-1.2,3.06.51.04.23-.03.52,0,.77-.31-.02-.4.21-.51.26-.38.97-.89,1.48-1.53,1.53-.47.37-.98.71-1.53,1.02-.29.6-.63,1.11-1.02,1.53-.37.69-.93,1.3-1.67,1.82-.15.77-.44,1.01-.88.73-.84.66-1.12-.65-.51-1.02l-.25-.18c.44-.83,1.03-1.63,1.78-2.38.06-.14.18-.37.26-.51-.02-.57.32-1.08,1.02-1.53.09-.22.17-.22.26,0,.03-.48.12-.59.28-.34-.28-1.15.27-1.8,1.25-2.21Z" fill="#f0c732"/>
        <path d="M41.27,25.24c-6.51,2.46-6.37,14.63-16.24,9.73l-3.05-.02c-.24-.43.48-.5.76-.52,4.07-.38,6.92,2.92,10.61-.88,3.02-3.11,2.68-6.5,7.41-8.81.07-.23.16-.22.26,0,.66-.29.77.05.26.51Z" fill="#4291c6"/>
        <path d="M47.4,19.37c.65.37.65.65,0,1.02-.17.21-.31.66-.42,1.33l-.6.72c.56.54.23,1.03-.51,1.02-.33.54-.67,1.05-1.02,1.53.56.72-.91,2.94-1.79,2.81-.36,1.44-1.42,3.8-2.81,4.34-.14.5-.48,1.1-1.02,1.79.22.08.22.17,0,.26-.15.32-.34.9-.55,1.74l-.47.3c-.21.53-.54,1.04-1.02.51.36-2.64,5.06-9.24,6.64-11.75-.1-.91.31-1.78,1.23-2.61.1-.59.16-.86.81-.96-.21-.28.22-1.47.77-1.53-.41-.57.35-.94.77-.51Z" fill="#636f87"/>
        <path d="M21.61,38.52c-.63.29-.86-.42-.26-.77,2.72-.22,5.04.23,7.54.01,1.62-.14,6.56-3.28,7.39-4.62.39-.63.26-1.44.9-1.78.13,1.05-.04,1.5-.63,2.3s-4.92,3.88-5.91,4.31c-2.94,1.27-5.11-.07-7.89,0-.47.01-.97-.03-1.14.53Z" fill="#4392c8"/>
        <path d="M26.46,23.46c.03.76.8,1,1.13,1.55.41.7.54,1.58,1.17,2.4.31.41,2.05,2.13,2.55,1.66.2-.85-1.51-2.08-1.54-2.22-.1-.45.06-1.09-.06-1.67-.04-.18-1.22-3.22-.19-2.23.6.57.6,2.77.81,3.41.11.35.59.35.74.6.34.57.77,2.14,1.68,2.32.51.1,1.67-1,1.62-.08-2.01,1.59-4.76.29-6.13-1.53-.8-1.07-1.02-3.18-2.55-3.19.45-.24.53-.63.77-1.02Z" fill="#3e92c8"/>
        <path d="M40.76,21.92c.67.21.06,1.29-.51,1.02-.65.2-.8,1.15-1.28,1.4-.65.34-2.33.58-3.31,1.03s-2.01,1.6-3.18,1.4c-2-.33-2.06-5.51-.14-6.39-.52,1.15-1.59,5.7.38,5.77.63.02,3.33-1.5,4.14-1.88.49-.23,1.12-.21,1.59-.46.83-.44,1.21-1.67,2.32-1.9Z" fill="#4093c8"/>
        <path d="M22.89,27.03c1.08-.13.28,1.65.33,2.14.16,1.6,3.51.62,4.27,1.44.36.39-.56.69-.77.76-1.66.58-2.18-.46-3.16-.27-.24.05-.03,1.08-1.2.15-.75-.6.03-1.12.2-2.12.11-.62.08-1.23.07-1.85.08-.07.22-.2.26-.26Z" fill="#90caed"/>
        <path d="M37.18,37.76c.35.72-.57,1.68-1.28,1.28,0,.58-1.14,1.04-1.79,1.28.11.38-.13.46-.51.51-.06.69-.28.64-.51,0-.09.51-.26.68-.51.51-.15.22-1.9.99-2.04.96l-.51-.45c-.54.27-1.13.44-1.79.51-.34.26-.45.13-.26-.26-.57-.24-.4-.5.51-.77,4.47-.38,5.64-2.16,8.68-4.6.68.15.44.58,0,1.02Z" fill="#5e768a"/>
        <path d="M34.38,19.63c.34.61,2.27,3.02,2.93,2.98.33-.02,4.35-3.12,5.11-3.49l.12.76c-1.36.36-4.55,3.29-5.23,3.31-.77.03-2.44-1.83-2.85-2.5-.19-.3-.65-.83-.09-1.06Z" fill="#3f92c8"/>
        <path d="M21.35,37.76c-.09.38.08.51.26.77,1.81,2.72,3.7,3.08,6.89,2.81l-.51.77c-.37.8-3.78.34-4.35-.04-.14-.09-.69-.75-.76-.99-1.05-.08-2.05-1.65-2.55-2.55-.14-.55-.04-.71.51-.77.08.03.37.01.51,0Z" fill="#4d82af"/>
        <path d="M37.18,16.56c-1.63.22-.84,1.11-1.02,1.28-.09.09-.76-.13-.99.03-.08.06-.13.64-1.06,1.25-1.75,1.14-1.98.48-3.57.77.17-.71-.39-.43-.51-.51-.57.32-.72.03-.77-.51.22-.29.25-.67.26-1.02.28.03.26.63.53.88,2.48,2.39,4.83-1.89,6.88-2.67.69-.19.76.03.26.51Z" fill="#88bddd"/>
        <path d="M16.5,33.16c1.21.76,1.52,1.66,2.31,2.87.41.62.78.11.5,1.47.7.27.35.9-.26,1.02-.76.41-1.07-.47-.26-.77-.72-.82-1.46-1.65-2.21-2.5l.17-.56c-.62.07-.86-1.21-.26-1.53Z" fill="#85badb"/>
        <path d="M44.85,21.41l.46.19c-.47,1.14-1.13,2.1-1.99,2.87-.21.76-1.48.55-2.04.77l-.26-.51c-.2-.32-.09-.44.26-.26.07-.57.41-.74,1.02-.51.65-.67.3-.53.59-.94.21-.3,1.65-1.56,1.96-1.61Z" fill="#a5ad7a"/>
        <path d="M30.16,39.29c.72-.15.79-.92.9-1.02.19-.17.59-.09.51.38s-1.2,1.15-1.41,1.15h-5.49v-.51c1.58-.23,4.03.31,5.49,0Z" fill="#458dc3"/>
        <path d="M45.36,21.41c.11-.31.47-.4.51,0-.71,1.31-1.23,2.28-2.04,3.57.06-.54.03-.57-.51-.51.06-.22-.08-.55.08-.95.05-.13,1.4-1.1,1.44-1.29.07-.29-.03-.6.01-.83.15-.68.28-.67.51,0Z" fill="#6cacd2"/>
        <path d="M14.71,31.12c.66.46.35,1.23.56,1.49.1.13.42,0,.46.04.42.36.42.29.77.51.25.42.13,1.19.26,1.53.26.65.25.93-.51.77-.5-.07-.76-.5-.78-1.29-.51-.25-1.02-.57-.76-1.27-.7-.14-.73-1.65,0-1.79Z" fill="#7d99a5"/>
        <path d="M36.67,25.5c.11.53-.27.58-.58.82-.47.37-3.41,2.28-3.76,1.34l4.34-2.17Z" fill="#3f93ca"/>
        <path d="M26.72,31.37c1.59.34,3.47.06,4.98.25.35.05.8.19.38.51-1.67-.22-4.09.61-5.36-.76Z" fill="#4192c8"/>
        <path d="M43.31,20.39c-.06.13.08.56-.08.95-.12.29-1.37.86-1.46,1.61-.14.49-.37.49-.51,0-.62.07-.35-.76,0-1.02.14-.49,1.48-1.32,2.04-1.53Z" fill="#adb476"/>
        <path d="M28.76,32.91c.98.85-3.93,1.18-4.34.38-.28-.55.34-.29.52-.27,1.36.14,2.46.27,3.81-.11Z" fill="#4698cc"/>
        <path d="M38.72,30.35c-.2-.67,1.4-3.14,1.91-3.06.6.48.3.36,0,.76-.6.8-1.07,1.76-1.91,2.3Z" fill="#3d91c2"/>
        <path d="M19.31,37.5c1.05-.78,1.27.15,1.53.26.09.42-.19.57-.51.77.11.93-1.58,1.06-1.28,0-.09-.39.2-.73.26-1.02Z" fill="#4d6e83"/>
        <path d="M31.06,33.92c-.5-.5,1.32-1.22,1.46-1.35.38-.35.49-1.25,1.09-1.46.67,1.09-2.33,3.03-2.55,2.81Z" fill="#4392c9"/>
        <path d="M41.27,21.92c-.06.22,0,.72,0,1.02-.15.61-.32,1.12-.51,1.53-.67.34-.65-1.06-.51-1.53.02-.06.77-.45.51-1.02.15-.03.35.02.51,0Z" fill="#7fabb6"/>
        <path d="M44.33,18.35c.08-.23.17-.23.26,0,.21.89-.7.94-1.02,1.53h-.26c-.18-.79.25-1.35,1.02-1.53Z" fill="#8fb8c6"/>
        <path d="M33.35,21.67l.26,2.04c-.59.67-1.43-2.3-.26-2.04Z" fill="#4599c9"/>
        <path d="M41.27,22.95c.32.45.51,1.25,0,1.53-.08.04-.16.21-.26.26-.07.03-.19-.03-.26,0v-1.79c.17-.02.34.02.51,0Z" fill="#adaf78"/>
        <path d="M24.93,26.52c-.68-.12-1.15.51-1.53-.13.37-.57,1.26-.58,1.53.13Z" fill="#4391bf"/>
        <path d="M15.48,37.25c1.01-1.24,1.3.28,1.38,1.32.5.29.8.71.92,1.23.6.11,1.11.28,1.53.51.27-.88,2.13-.42,2.04.51,2.69,1.31,2.28,3.72-.64,1.89l-1.41-.36-.75.72c-.8-.13-1.4.19-2.06.56-.02.03-.55.17-.77.26-.3.55-.38,1.47-.25,2.79-.3.48-1.15.33-1.28-.23-1.46-1.22-.54-3.95,1.02-4.6.38-.42.41-1.74,0-2.04-.24-.07-.41-.24-.51-.51-.45,0-.69-.55-.26-.77-.27-1.02.1-2.39,1.02-1.28Z" fill="#eebf33"/>
        <path d="M14.71,47.46c.04.13-.01.34,0,.51.25.1.3.26.3.49-.13,3.09-1.21,5.85-3.13,8.25-1.09,2.78,2.5,5.4,4.48,6.72,1.34,1.1,1.48,3.46-.62,2.92,0-.14.03-.47,0-.51.25-.43.21-.79-.13-1.06l-1.7-1.55c-4.62-2.55-4.62-6.11-1.6-9.95.97-1.66,1.13-3.58,1.12-5.46l.53-.37c-.17-.29-.11-.63.26-.51.55-.4.88-.11.51.51Z" fill="#437ea6"/>
        <path d="M14.71,47.97c.71-.22.58.64.51,1.28.64.32.73,1.3,0,1.53,0,.09-.44.17-.51.45-.25,1.03-.49,2.87-1.11,3.82-.2.31-1.33,1.33-1.44,1.79-.03.14-.33,2.72.5,1.86.68-.07.79.37.26.77.68,2.74,3.05,2.59,4.23,4.44.94,1.49.48,2.94-1.42,2.71-.21-.06-.21-.15,0-.26,1.27.1,1.65-.62,1.14-1.78-.63-1.46-4.44-2.95-5.29-5.18-1-2.65.69-3.6,1.72-5.54.92-1.74,1.58-3.9,1.4-5.88Z" fill="#c1d4e3"/>
        <path d="M17.27,43.89h.55c2.09,4.93,4.32,10.08,6.52,14.95l.08.88c.22.06.22.15,0,.26-.24.36-.36.86-.51,1.28-1.22-3.77-3.05-7.34-4.6-10.98-.76-.57-.91-1.41-1.02-2.3-.56-1.31-.96-2.76-1.53-4.09.2-.66.31-.65.51,0Z" fill="#cc5e4a"/>
        <path d="M19.31,42.35c.43-.11.51.14.26.77l.6.25c-.19.48-.13.99.17,1.54.23.05.22.13,0,.26.12.32.12.58,0,.77-.54.48-1.17-.55-1.46-1.05.05-1.38-.77-1.23-1.61-1-.05.04-.36-.03-.51,0,0-.02-.27-.07-.26-.26.06-.1-.1-.63.02-.73.19-.17,1.16.09,1.61-.07.37-.13.34-.64.45-.71.15-.11.69.27.73.24Z" fill="#d16337"/>
        <path d="M19.48,66.12c.71-.19,1.24.78,1.36,1.37l-2.16.9c-.95-.41.35-2.15.81-2.28Z" fill="#646468"/>
        <path d="M19.02,54.9c.16.09,1.38,1.92,1.05,2.26-.22.22-1.94-.3-2.18-.77-.36-.68.45-1.89,1.13-1.5Z" fill="#696b6b"/>
        <path d="M15.74,43.89c-.05,1.06.07,2.14,0,3.2-.05.73-.63.27-1.02.38-.03-.12-.4-.36-.51-.51-.39-.09-.37-.32,0-.51h1.02c.13-.13-.12-1.95-.01-2.4.07-.31.38-.1.52-.15Z" fill="#c6b270"/>
        <path d="M15.22,49.25c2.03-.77,1.48,1.52,0,1.53,0-.54-.09-.68,0-1.53Z" fill="#5f6468"/>
        <path d="M12.93,59.46c-.06-.24-.24-.45-.26-.77-.03-.48-.08-.95.39-1.28.78-.16,1.11,2.05-.13,2.04Z" fill="#565855"/>
        <path d="M17.52,62.27c-.13-.13-.07-1.7.63-1.53.98.23.03,2.19-.63,1.53Z" fill="#6d7170"/>
        <path d="M19.31,50.27c-1.29-.52-1.07-1.02-1.02-2.3.3.69.7,1.54,1.02,2.3Z" fill="#e5c2b9"/>
        <path d="M15.74,66.36c0,.09.02.2,0,.26-.23.67-.63.55-1.02.77v-1.53c.26.24.67.48,1.02.51Z" fill="#ccb460"/>
        <path d="M43.31,16.31v.77c-.36.54-1.77,1.27-2.3.77-1.73.12-1.35.09-1.79-1.02.06-.29.22-.46.51-.51,1.54.77,1.81,1.04,3.57,0Z" fill="#91c9eb"/>
        <path d="M39.74,16.31c.06.54.03.57-.51.51-.16-.39-1.59-.32-2.04-.26l-.26-.51c1.36-.52,1.6-.35,2.81.26Z" fill="#568fb4"/>
        <path d="M45.36,15.29c.07.13.14.18.26.26.86.32-.34,1.45-.77.77-.37-.31-.93-.15-.77-.77.44-.31.75-.69,1.28-.26Z" fill="#6090a8"/>
        <path d="M32.59,41.33c.27.2.21.42.12.7-.95,1.76-.99,2.21-.12,1.35l.29.37c-.19,3.35-.12,6.63.22,9.84.23.05.22.13,0,.26-.03,1.71.48,2.99,1.53,3.83.13-.35.32-.31.51,0,.63.46,1.36.2,1.98-.64l.32.13.21.99c-.61,6.33-1.19,12.64-1.74,18.93l.48.5-.3,4.22c.07.86.13,1.67.2,2.43.05-.2.14-.49.29-.51.59-.08,4.79-.11,5.21,0l.37.51c-.22-.72.29-1.03,1.52-.94l.5-5.43c.13-.4.35-.74.66-1.03l-.22-.5c1.67-7.37,2.26-15.12,2.71-22.77l.32-.99c.51,0,1.05.2,1.63.6,1.73-.02,2.3.38,1.69,1.18l.25.18c-.04,1.78.04,3.5.26,5.18.19.79.3,1.67.35,2.66.78,1.52,1.09,2.27.99,3.97-1.03,3.52-1.04,6.05,2.75,7.66v.26c-.83-.11-.46.29-.4.77.39,3.15,1.57,7.32-.78,9.93-.17.19-1.48,1.25-1.58,1.28-1.47.45-3.79.29-5.28.55-.57.1-.92.43-1.17.49-1.26.29-2.92.9-4.09,1.02-4.84.5-10.79-.42-15.51-1.47-2.21-.49-4.07,0-4.41-3-.81-7.29.71-15.48,2.04-22.6.26-1.68.77-3.21,1.53-4.6-.1-4,.92-8.17,1.9-12.05.4-1.67.61-2.42,2.19-2.76,1.27-.11.96-.44,1.2-.5.4-.1.92.04,1.35,0Z" fill="#ed4d2b"/>
        <path d="M24.67,87.29c-.45.93-.1,2.04-.26,2.93-.23,1.24-3.87,1.96-5.03,2.38-1.21.44-3.53,2.27-4.16.69.55-.58,1.24-1.25,2.04-1.41.77.45.94.45.51,0-.16-.73.1-.62.47-.93.58-.48,1.71-1.35,2.32-1.77.45-.31.7-.48,1.29-.37.45.13.54-.04.26-.51.08-.04.75-1.25.77-1.53.08.05,1.57.47,1.79.51Z" fill="#b0be3b"/>
        <path d="M25.95,56.65c-.36,1.49-.81,3.25-1.53,4.6.07-.38-.06-.88,0-1.28.01-.08-.01-.17,0-.26-.54-.87.12-2.75,1.02-3.06.13-.49.36-.49.51,0Z" fill="#c82b19"/>
        <path d="M35.14,3.54c.71-.12.46-.45.69-.51,1.33-.33,2.25.77,3.5.74.9-.03,1.81-.87,2.51-.7s1.61,1.39,2.75.98c.37.33-1.28,2-1.89,2.06-2.34.21-5.01-.2-7.39,0-.36-.09-.8-2.1-.68-2.57.17-.01.36.03.51,0Z" fill="#f4c82e"/>
        <path d="M43.31,6.86c-.04.05.04.2,0,.26-1.05.73-1.82.81-2.3.26-.27.59-.98.54-1.28,0-.42.62-.68.62-.77,0-.14-.03-.21-.24-.26-.26-.14-.77.39-.49.88-.51,1.18-.05,2.62-.15,3.71.26Z" fill="#ecb972"/>
        <path d="M22.12,88.32c.69,0,1.33,1.21,1.28,1.79l-1.53-1.28-.51-.26v-.25c.22-.05.62.06.76,0Z" fill="#8ea025"/>
        <path d="M17.78,91.89c.23,0,.98-.04,1.02,0,.53.49-1.54,1.48-1.53,0,.14-.03.34,0,.51,0Z" fill="#90a422"/>
        <path d="M12.93,37.5c.91-.17,1.74,1.68,1.28,2.3.56.29.64,1.66,0,2.04.49.42-.51,2.5-1.02,1.53-.71-1.68-.49.56,0,1.28.57.72.86,1.8.77,2.81-.1,1.68.05,2.56-.44,4.28-1.19,4.12-5.38,5.48-.83,10.15.88.9,3.38,2.14,3.73,3.18.2.61-.14.75-.66.78-.02-.02-.35.07-.51-.18-.54-.81-.9-1.73-1.73-2.36-.39-.3-.83-.36-1.08-.52-2.08-1.41-3.43-1.53-3.58-4.46-.06-1.12.17-2.62.38-3.72.38-1.98,2.44-6.34,2.44-7.78v-5.62c0-.09-.25-.42-.26-.76-.05-1.23.06-2.48,0-3.71.38-.44,1.18.41,1.53.77Z" fill="#66b0e3"/>
        <path d="M39.74,7.37c.4.49.98.61,1.28,0,.48-.02,1.54-.51,2.3-.26-.43.56-1.2.49-.16,1.46.14.13.54.01.69.23-.09.54.85,2.8.74,2.91-.69.74-1.36-3.34-2.29-3.32-.28,1,.67,1.23.76,2.04-.77-.04-1.53.11-2.22.46-.72.37-1.48,1.84-1.92,1.01-.82-1.56.41-2.8.05-4.53.04,0,.6,0,.77,0Z" fill="#f5c194"/>
        <path d="M45.61,88.83c.03.96.36,1.29.77,2.04l.78,1.79-.27.25c.21.38.31,1.45-.26,1.53-.79.29-2.24-.57-2.55-1.53-.21-.53-.56-1.22-.4-1.8.25-.94,1.43-.56,1.42-1.52l-1.78.51c-.03-.25.03-.52,0-.77.54-.36,1.97-1.23,2.3-.51Z" fill="#afbe38"/>
        <path d="M44.08,92.91c.8,1.14,1.52.94,2.55,1.53.4-.14.48-.65.26-1.53-.22-.63-.51-1.36-.51-2.04.54,1,3.75,4.48.85,4.53-.15,0-2.46-1.2-2.63-1.34-.42-.35-.36-.74-.52-1.14Z" fill="#a4b84c"/>
        <path d="M45.87,88.06c-.12.22-.26.52-.26.77-1.21-.36-1.23.76-2.3.51,0-.07-.29-.24,0-.51.57-.08,1.87-.56,2.55-.77Z" fill="#c79d4a"/>
        <path d="M48.93,17.84c1.74.61,3.99,1.34,5.59,2.2.2.11,1.44.86,1.5.93.13.16,1.06,3.14,1.38,3.86.35.79.82,1.78,1.25,2.52.15.25.84.62.91.79.82,1.76-.4,4.77-.93,6.56-.49,1.18-1.96,2.31-3.06,3.06-1.79-.8-3.71-3.18-4.09-5.11-.42-.09-.68-.34-.77-.77.04-.59.22-1.25.55-1.96.03-2.22-.21-1.86-.74,1.1-.9,1.03-1.68,2-2.36,2.91.25.65-.28.76-.79.2-2.08-.11-4.11-.27-6.11-.45-.26.7-.68.49-.51-.26.13-.32.3-.59.63-.53.5-1.73,1.05-3.43,1.67-5.08.55-.82,1.35-1.97,1.79-2.81.32-.55.66-1.06,1.02-1.53.13-.39.42-.75.51-1.02.56-.52.88-1.06.76-1.85l.26-.19c.01-.34,0-.68,0-1.02.43-.65.94-1.17,1.53-1.53Z" fill="#ee4e2c"/>
        <path d="M58.63,34.69c.17-.02.34.01.51,0-.02.02-.02.49,0,.51.07.11.12.22.13.34.02.19-2.14,2.29-2.43,2.47.45.86,0,1.04-.77.51-.68.35-1.03-.21-.51-.77-.2-1.54.28-.75.95-1.1.51-.26,1.27-1.86,2.11-1.97Z" fill="#974a4c"/>
        <path d="M49.95,17.33c-.18-.81.67-.55,1.04-.4.54.21,1.03,1.04,1.51,1.42-.12-.06-.57.1-.82-.01-.29-.13-1.27-.86-1.73-1.01Z" fill="#6fb0d6"/>
        <path d="M48.93,17.33c-.01.17.02.34,0,.51-.09.7-1.01,1.23-1.53,1.53-.68-.08-.65-.32,0-.51.68-.24.51-1.11,1.53-1.53Z" fill="#e67b20"/>
        <path d="M55.06,18.86c.24.3.46.62.51,1.02-.8,0-1.47-.77-2.04-1.02.21-.62.72-.62,1.53,0Z" fill="#8f90ad"/>
        <path d="M51.48,59.72c.57-.69,1.46.1.51.51.35.35.53.89.54,1.62.84,1.48,1.22,3,1.12,4.54-1.02,3.34-1.24,5.4,2.3,6.99l.13.64c-.25.07-.24.29-.26.51-.1-.07-.16-.19-.26-.26-.68-.49-1.71-.79-2.42-1.53-2.48-2.59-.21-5.1-.63-8.05-.12-.88-.82-1.33-.97-2.09-.18-.87-.03-1.96-.06-2.88Z" fill="#ea992a"/>
        <path d="M30.03,19.37c-.82.52-1.46,1.57-2.55,1.53-.41-.38,1.63-1.83,1.79-2.04.49-.09.59.38.77.51Z" fill="#5fafe8"/>
        <path d="M59.15,35.2s.34-.07.45.05c.37.43-.25,6.05-.2,7.24.17,3.91.65,7.42.53,11.49-.05,1.76-.72,3.95-.01,5.73-.04,1.53.03,3.07,0,4.6-.38-.52-.53-.67-1.28-.51-.53-.23-1.04-.57-1.53-1.02-.55.26-1.31-.23-1.53-.77-.14.49-.37.5-.51,0-.38-.12-.67-.38-.28-.43-.65.06-1.56-.46-.75-.85-.43-.16-.78-.5-1.02-1.02-.77.01-1.69-.18-1.02-1.02-.31-1.85-.42-4.04.51-5.62-.05-2.68.15-5.72,1.28-8.17-.39-.25-.17-.55.26-.51.43-.69.77-1.37,1.02-2.04-.53-.64.48-1.4,1.02-.77.07-.56.78-.87,1.28-.77.18,1.6.62-.6.63-1.59,0-.02-.16.01-.37.06-.45-.06-1.17-.82-.77-1.28.07-.13-.02-.51.24-.9.41-.61,1.47-1.4,2.06-1.91Z" fill="#65b0e1"/>
        <path d="M46.38,15.8c.15.58-.95.91-1.01,1.21-.2.93.45,1.26-.52,1.35-.38-.27-.44-1.3,0-1.53.01-.16-.04-.45,0-.51.03-.05.79-.06.77-.77.03.02.73.25.77.26Z" fill="#bcb770"/>
        <path d="M52,60.23c.5-.68.9-.18,1.02.51.56.42,1.18.72,1.87.88l.17.4c.15.04.36-.04.51,0,.7.58,1.38,1.18,2.04,1.79.27-.61.78-.34.77.26.18.15,1.1,1.14,1.28,1.28.03.14-.05.47,0,.51-.23.21-.06.46.51.77.02.12.13.23.26.26.03,2.04.11,4.08.26,6.13.05.33-.05.74.01,1.13.13.81.89,1.78.5,2.96-1.22-.18-1.93-1.47-2.63-1.96-.63-.44-1.84-.8-2.47-1.1-.99-.48-3.25-1.86-3.51-3-.47-2.06.66-3.73.64-5.56s-1.76-3.19-1.22-5.23Z" fill="#f7ca32"/>
        <path d="M60.17,66.61c-1.75.3-.96.37-1.41,1.27-.62,1.24-1.77-.06-2.04,0-.31.07-.19.86-.76.78-2.26-.3-.11-6.68,1.66-2.44l-1.79-.63v1.79c.84-.69,1.94.3,2.16.26.47-.09.41-2.05,1.67-1.79.25.23.33-.45.51.77Z" fill="#e5b727"/>
        <path d="M60.68,73s-.22-.09-.27-.62c-.13-1.63-.05-3.84.01-5.51,0-.19-.08-.79.26-.38v6.51Z" fill="#e5b727"/>
        <path d="M55.06,18.86c-.35-.08-1.35.11-1.53,0-.06-.04-.3-1.03-.76-1.15.9-.32,1.76.49,2.3,1.15Z" fill="#61a3d4"/>
        <path d="M14.71,31.12c0,.45.1,1.49,0,1.79.38.3.28.69-.31,1.16-1.03,0-1.71.32-.71,1.14.48.14.49.37,0,.51.21.36.38.8,0,1.02-.53.13-.45-.37-.83-.59-.69-.4-.98.31-.96-.94.01-.56.13-1,.25-1.53l-.77,1.02c-.39.07-.29-.38-.26-.64.17-1.38,2.21-3.9,3.58-2.93Z" fill="#e4b389"/>
        <path d="M13.69,37.25c.21-.26.38-.09.51.51.2.12.29.37.26.77.04.2.2.46.26.77.34.16.34.35,0,.51-.08.68-.32.65-.51,0-.22-.99-.6-1.62-1.28-2.3l.77-.26Z" fill="#56808d"/>
        <path d="M14.2,37.76c-.1-.16-.48-.4-.51-.51-.04-.13.02-.35,0-.51-.04-.3-.02-.71,0-1.02,1.06-.63,1.41,1.53.51,2.04Z" fill="#bc9365"/>
        <path d="M57.1,62.78c.77-.2,1.36.28,1.53,1.02-.05.01-.15.21-.26.26-.03-.03-.46-.09-.77-.26-.64-.42-.81-.76-.51-1.02Z" fill="#97ac94"/>
        <path d="M43.31,17.07c.23-.04.52.02.77,0-1.23.94-5.62,3.37-6.13.76.61-.08.89.66,1.44.71.52.05,1.18-.56,1.62-.71.6-.21,1.78-.68,2.3-.77Z" fill="#4698cb"/>
        <path d="M38.46,20.4c.24.28.03.54-.39.52-.84-.05-2.55-1.3-2.42-2.31.82.04.88.95,1.55,1.38.33.21,1.22.35,1.26.41Z" fill="#4397ca"/>
        <path d="M44.85,16.82c-.04.5.03,1.03,0,1.53-.08,0-.17,0-.26,0s-.18-.02-.26,0c.09-.71-.36-1.74.51-1.53Z" fill="#92b6b4"/>
        <path d="M41.78,22.95c-.07.62-.16,1.2.51,1.02-.8.83-.44.25-1.02.51.01-.51-.01-1.02,0-1.53.17-.02.34.01.51,0Z" fill="#d1bb4d"/>
        <path d="M47.4,18.86v.51c-.27.16-.33-.14-.77.51-.39.54-.64.54-.77,0,.54-1.33.73-.74,1.53-1.02Z" fill="#bdab5d"/>
        <path d="M45.87,19.88c.65.19.06,1.32-.51,1.53-.16,0-.36-.02-.51,0,.14-.67-.05-1.35,1.02-1.53Z" fill="#bbb15f"/>
        <path d="M40.76,33.42c.09.17.48.21.51.26,2.22.15,4.46.35,6.72.62l-.1.38c-1.59.06-3.05.2-4.36.4l-.22.13c-.33.48-.84.82-1.53,1.02.32.62.11.82-.51.51-.67.51-2.56.76-3.06-.26-.18-.08-.18-.17,0-.26.59-.55.85-1.19.77-1.91l.25-.13c0-.08,0-.17,0-.26.36-.68.7-.85,1.02-.51.09-.69.3-.65.51,0Z" fill="#edb637"/>
        <path d="M43.06,27.8c.49.23.11.82,0,1.15-.42,1.4-.9,2.72-1.03,4.21l1.27.25c-.84.06-1.72-.07-2.55,0-.17.01-.35-.03-.51,0-.66.02-.39-1.06,0-1.28,1-1.76,1.72-2.72,2.81-4.34Z" fill="#d9452c"/>
        <path d="M39.23,34.18c-.03.45.12,1.49-.04,1.75-.09.15-.76.18-.98.29.19-1.28.24-.68.5-1.22.19-.39-.34-1.01.52-.82Z" fill="#d3c166"/>
        <path d="M47.4,20.39c-.03.99.16,1.8-1.02,2.04.26-.78.2-.6.5-1.22.19-.39-.34-1,.52-.82Z" fill="#c15c49"/>
        <path d="M40.25,32.14v1.28c-.17.03-.69.5-1.02.51.02-.18.5-1.66.56-1.74.09-.13.45-.02.46-.04Z" fill="#a57259"/>
        <path d="M38.21,36.22c-.01.08.02.17,0,.26.92.67-.21,1.98-1.02,1.28.03-.33-.04-.7,0-1.02.11-.08.84-.42,1.02-.51Z" fill="#9a6463"/>
        <path d="M45.87,23.46c-.17.54.11,1.38-1.02,1.53.12-.24-.07-1.55,1.02-1.53Z" fill="#ac5b5b"/>
        <path d="M46.63,19.88c-.22.32-.54,1.11-.77,1.53h-.51v-.34c.81-.25.37-.85.51-1.19.23-.04.52.03.77,0Z" fill="#87b0aa"/>
        <path d="M36.16,39.8c.57.33,1.08.93,1.53,1.79,3.67,3.86,8.86,7.28,14.44,7.07l.37.34c.4.79-.03,2.81-.51,3.57-.09.56-.26.73-.51.51-.3.61-.34.57-.82.21-1.21.09-2.44-.48-3.27-1.24-3.48-1.12-6.41-3.35-9.1-5.71-.4-.31-.69-.22-.87.29l-.15,7.48c-.32,5.15-3.75,3.95-3.86-.38-.07-4.23-.11-8.51-.05-12.71,0-.07.11-.14.25-.2l.08-.43c.13-.14.4-.05.43-.08,1.06-.71,1.74-.88,2.04-.51Z" fill="#f1c52f"/>
        <path d="M27.99,42.1c.12.02.23.13.26.26l.26.23c-1.25,3.82-2.13,7.8-2.61,11.93l-.45.6c-.26.53-.6.36-1.02-.51-.78.2-1.96-2.43-1.53-3.06-1.05-1.83-1.97-4.22-2.55-6.38,0-.08,0-.17,0-.26-.43-.76-.64-2.57.51-1.53l.28-.23c1.48.69,2.92-.3,1.43-1.55l.34-.26c-.22-.07-.22-.16,0-.26,1.55,1.14,3.48.78,5.11,1.02Z" fill="#d1d2d2"/>
        <path d="M33.1,42.35c-.08.57-.25.91-.51,1.02-.78,1.5-1.43,3.15-1.97,4.8-3.32,10.15-4.21,20.91-5.44,31.46-.66.1-.53-.12-.52-.65.06-3.95,1.01-9.95,1.58-14,.7-4.96,1.77-10.38,3.21-15.17.68-2.26,2.06-6.5,3.14-8.48.06-.11.41-.46.51-.51.41.35.42,1.19,0,1.53Z" fill="#d5351c"/>
        <path d="M33.61,40.82c.24,2.43-.7,15.27,1.07,16.29,1.06.61,2-.35,2.19-1.41.58-3.29.19-6.94.32-10.28,1.97.88,3.15,2.55,5.03,3.78,1.66,1.09,3.54,1.77,5.19,2.86-.11.39-.5.27-.77,0l-.83.23c-2.22-.91-4.21-2.29-6.09-3.75l-.22-.82c-.35.33-.36.2-.26-.26l-.51.23c-.25-.72-.59-.03-1.02,2.07-.12,1.71-.17,3.41-.15,5.12.03,1.47-.77,3.77-2.4,2.79-.16,0-.38.03-.51,0-1.04-.85-1.56-2.13-1.53-3.83,0-.08,0-.17,0-.26-.42-3.73-.42-7.47,0-11.24-.02-.51.01-1.02,0-1.53.1-.05.36.03.51,0Z" fill="#e48128"/>
        <path d="M41.27,36.74c.22.08.22.16,0,.26-.31,1.07-.33.03-.06.09.48.1-.74,5.55-1.07,5.85-.11.1-.25.15-.41.19-.13.11-.24.18-.29.15-.64-.39-1.33-1.3-1.75-1.94-.62-.54-1.14-1.22-1.53-2.04-.36.35-.51.2-.26-.26.46-.36.8-.84,1.28-1.28.58-.54.77.03,1.02-1.28l3.06.26Z" fill="#ef4c2c"/>
        <path d="M30.03,41.84c.1.82-.66.33-1.05.67s-1.79,5.99-1.96,6.92c-.45,2.45-.5,4.79-1.08,7.22-.16-.03-.38.04-.51,0-.35-.5-.68-1.32,0-1.53.39-2.18.7-4.45,1.14-6.65.27-1.36,1.03-5.1,1.67-6.12.53-.84.94-.44,1.79-.51Z" fill="#b8433a"/>
        <path d="M36.16,39.29c.38.09.44.46,0,.51-1.07-.29-.98.81-2.04.51.69-.64,1.19-.81,1.79-1.28.1.06.19.23.26.26Z" fill="#cfc467"/>
        <path d="M18.8,37.76c.07.35-.1.43.26.77.54.51.78-.01,1.28,0,1.08.03,1.8,2,2.55,2.55v.26c-.31.55-1.29-.03-1.53-.51-1.02-.42-.79-.42-2.04-.51-.85-.19-1.36-.53-1.53-1.02-.58-.44-1.72-1.65-.51-2.04.53-.92,1.31-.4,1.53.51Z" fill="#cccbc8"/>
        <path d="M16.76,34.69c.31.87,1.86,1.86,1.97,2.12.15.39.02.67.08.95-.45-.39-.93-.6-1.53-.51-.55.15-.89-.19-1.02-1.02-.71.04-.73-.65,0-.77.04-.18.39-.56.51-.77Z" fill="#b7c0c2"/>
        <path d="M14.71,32.9c.81.64,1.32,1.52,1.53,2.55-.03.13-.02.74,0,.77.11.68,0,.71-.51.26-.72.69-1.11-.39-1.06-1.15-.23-.25-.56-.3-.98-.13-1.71.28-.81-.75-.76-1.79.43-.17.8.51.89.5.07,0,.87-.95.89-1.01Z" fill="#bc9365"/>
        <path d="M22.89,41.33c-.16.57.49.37.54.88.18,1.93-1.27,2.05-2.58,1.16-.56-.16-.99-.24-1.28-.26-.06-.18-.38-.41-.26-.77.04-.03-.04-.36,0-.5.66-.24.39.39.69.49.4.14,2.69.7,2.88.52.51-.49-1.42-1.77-1.91-1.53l.38-.51c.49.2.97.51,1.53.51Z" fill="#d8b458"/>
        <path d="M14.71,39.29c.65-.18.44.43.51.51.43.31.43,1.71,0,2.04-.57.69-.79,1.14-1.11,1.96-.07.19-.73.21-.42,1.44.07.26.54-.1.5,1.2,0,.17.01.34,0,.51,0,.05-.24.27-.26.51l-.21-.17c-.02-1.26-.49-1.34-.56-2.64-.46-.26-.57-1.11,0-1.28.62.18.52-.85,1.02-1.53.58-.51.48-1.11.3-1.81l.21-.23c-.02-.16.03-.35,0-.51Z" fill="#9ca686"/>
        <path d="M13.69,35.2c.27-2.06.8-.53.9-.51.67.16.11-.53.63-.51.12.78-.4,1.88.51,2.3.69.32.54.74-.26.77-.58.28-.87-.35-1.02,1.28-.02-.12-.19-.43-.26-.77-.13-.63.25-1.57-.51-2.04.01-.17-.02-.35,0-.51Z" fill="#c89641"/>
        <path d="M16.25,36.22s.35-.07.45.06c.04.05.54.9.58.96.06.12-.11.59,0,.82.23.45.53-.05.5,1.22.33.21.39.39,0,.51-.22-.19-1.08-.58-1.29-.87-.57-.8.32-1.94-1.01-1.68.14-.07.17-.62.26-.77.05-.08.39-.16.51-.26Z" fill="#ddc06b"/>
        <path d="M17.78,39.29h.34c.29.95,1.39.07,1.19,1.02-.42-.03-1.01.1-1.36,0-.3-.08-.14-.49-.17-.52,0-.17,0-.34,0-.51Z" fill="#e3c586"/>
        <path d="M15.22,39.8s.35-.07.45.05c.11.13.13,1.56.06,1.83-.07.29-.49.14-.52.17v-2.04Z" fill="#d0be76"/>
        <path d="M17.27,43.89s-.11-.44.16-.52c1.31-.34,1.89.01,1.9,1.34l1,1.22.2.2c.78,2.18,1.56,3.99,2.35,5.42.3.25,1.27,2.48,1.53,3.06.48.53.82,1.21,1.02,2.04-.21,1.07-.86,2.11-1.02,3.06l-.93-1.11c-1.66-4.75-3.82-8.82-5.68-13.4l-.54-1.33Z" fill="#ed4c2d"/>
        <path d="M22.89,51.55c-.06-.05-.46.07-.5,0-.06-.09-.43-1.57-.6-1.95-.45-.99-.63-1.28-.94-2.45-.07-.27-.4.09-.5-1.21-.02-.25,0-.51,0-.77l2.55,6.38Z" fill="#ce5f4f"/>
        <path d="M19.57,43.12c-.41-.75,1.02-.34,1.22-.18.14.11.04.42.06.44-.81-.22-.48.81-.51,1.53-.56-.43-.56-1.19-.77-1.79Z" fill="#e8bdb0"/>
        <path d="M36.67,74.53c.57.47,1.32.59,2.24.38,1.62.46,3.35.21,5.19-.75l.48.37.32.12c-.31.81-.33,1.54-.07,2.17-.34,2.2-.45,4.37-.68,6.58-.22.62-.86.33-1.36.44-.26.05-.56.39-.64.39h-5.87s-.45-.39-.51-.51c-.5-1.07.07-5.14.12-6.64.25-.56.39-1.42.41-2.59l.36.04Z" fill="#db4527"/>
        <path d="M39.48,47.72l.13,1.32c-1.34,8.37-2.15,16.67-2.41,24.9l-.53.6s-.23.29-.27.62c-.09.79.4,2.16-.5,1.94.24-6.83,1-13.17,1.53-19.92l-.25-.33c.23-.99.4-1.98.51-2.99.18-2.11.48-4.19.89-6.23l.64-.15c.09.08.16.18.26.26Z" fill="#d5371c"/>
        <path d="M47.65,52.57c-.34,6-.69,12.02-1.56,17.97-.31,2.1-.93,4.19-1.25,6.29-.9.3-.39-1.56-.26-2.3l-.39-.63c1.21-6.61,2.05-13.36,2.53-20.25l.42-1.08c0-.45.43-.41.51,0Z" fill="#d4351d"/>
        <rect x="49.19" y="65.08" width=".51" height="18.13" fill="#d2331a"/>
        <path d="M33.1,53.59c-.43-.26-.47-.69-.52-1.14-.28-2.98.26-6.09,0-9.07.15-.28.05-.82.51-1.02.15,3.71-.1,7.48,0,11.24Z" fill="#de5c23"/>
        <path d="M31.57,66.61c-.17,1.1.65,9.55.13,9.7-.59.17-.37-.55-.38-.89-.09-2.58-.57-5.97-.26-8.43.05-.37.19-.79.51-.38Z" fill="#d6361c"/>
        <path d="M37.7,53.84c-.05,1.17-.16,2.18-.26,3.32-.22.14-.83.98-.95,1.01-.33.08-1.58.28-1.35-.5,3.74-.16,1.61-5.63,2.55-7.92.48,1.21.48,2.57,0,4.09Z" fill="#de5c23"/>
        <path d="M47.4,52.06c1.34.43,2.7,1.09,4.09,1.02.37.17.4.85,0,1.02.23.05.22.13,0,.26-.08.68-.32.65-.51,0-.04-1.46-.64-.48-1.86-.77-.09-.02-1.27-.93-1.46-1.01-.41-.19-.49,0-.51,0-.56.59-.98.16-.51-.51.19.06.57-.06.77,0Z" fill="#dd6820"/>
        <path d="M51.48,54.35c.29.11.37.3.37.57.01,1.24,0,2.57-.12,3.77.49.62.4.96-.26,1.02-.15-.02-.48.05-.51,0-.16-.21.02-4.58,0-5.36h.51Z" fill="#b05c4a"/>
        <path d="M34.63,57.67c-1.79-.37-1.48-2.46-1.53-3.83.56,1.36.41,2.69,1.53,3.83Z" fill="#de5c23"/>
        <path d="M42.04,4.82c.38.36-.03.46-.38.51-1.88.24-4.09-.03-6.01.25.03-.21-.05-.71,0-.76.12-.12,2.93.02,3.45,0,.61-.02,2.42-.49,2.94,0Z" fill="#e0b31b"/>
        <path d="M41.02,7.37c.68,1.85-.92.23-1.66.77l.38-.77c.42,0,.86.02,1.28,0Z" fill="#c48f63"/>
        <path d="M13.44,48.23c.5.55-1.81,3.27-2.05,3.94-.27.74.03,2.1-.75,1.93-.07-.86,0-1.55.32-2.36.22-.54,1.29-2.3,1.67-2.92.12-.2.53-.9.81-.59Z" fill="#4692c4"/>
        <path d="M13.18,44.65c-.86.13-.75-1.14-.78-1.65-.05-.77-.08-2.09.01-2.82.04-.35.19-.8.51-.38.14,1.19.18,2.38.26,3.58.03.42-.02.85,0,1.28Z" fill="#569bc7"/>
        <path d="M10.11,58.7c.08.07.55,1.71.77,2.04-1.1.34-1.67-2.81-.77-2.04Z" fill="#448fca"/>
        <path d="M14.71,39.8c.07.47.29.77.21,1.35-.12.85-.69.65-.72.7.23-.61.14-1.43,0-2.04h.51Z" fill="#4586ba"/>
        <path d="M46.89,92.91s.38.13.46.42c.14.51.03,1.09.05,1.62-.54.19-.59-.41-.76-.51.04-.48-.2-1.25.26-1.53Z" fill="#8ea425"/>
        <path d="M51.48,32.65c1.27,1.78,2.73,3.54,4.09,5.11.08.09.19.41.51.77,1.71-.31,1.68,2.91,0,2.3l-.09.35c-1.26.31-1.62,1.22-1.95,2.2-.31,1.22-.65,1.56-1.02,1.02-.05.15-.1.27-.18.28-.27.06-2.26-1.69-2.62-2.03-1.02-.98-1.75-1.83-2.3-3.06.7-1.56,1.09-3.23,1.29-4.88-.91-1.02,1.42-3.22,2.28-2.05Z" fill="#f1c42c"/>
        <path d="M51.48,32.65c-2.65-.52-1.81,2.02-2.06,3.69-.18,1.19-1.25,2.52-1,3.84.14.74,3.55,3.98,4.59,4.22.62.12.6.3,0,.51.22.07.22.16,0,.26l-.54.26c-1.73-1.18-3.34-2.59-4.57-4.31l.26-.55c-.42-.27-.61-.57-.77-1.02l-.17-.59c.52-1.2.83-2.37.93-3.5-.04-.28.14-.44.55-.47-1.73.36-3.76.32-5.4.21-.14-.77.39-.49.88-.51.9-.03,1.98.11,2.83,0,.37-.05.79-.2.38-.51-1.6.22-3.2-.23-4.72-.28-.47-.02-1.03.31-1.26.29-.28-.03-.09-.45-.15-.52,2.2-.08,4.4.16,6.58.45l.31-.19c.21-.63,1.34-1.79,1.97-2.22l.59.18c.77-.1.61.54.77.77Z" fill="#e3ac43"/>
        <path d="M48.16,33.93c-.63-.24.09-.68.26-.89,1.34-1.71,2.06-2.14,2.06-4.6,0-2.07-2.89-4.92-2.06-7.53,1.15,0,.48.82.57,1.34.11.59.31,1.23.5,1.8.8,2.37,3.91,5.51,1.22,7.84-.73.64-1.84,1.25-2.55,2.04Z" fill="#c93020"/>
        <path d="M47.91,28.31c-.4.85-.87,1.6-1.21,2.49-.17.43-.74,3.7-1.6,2.87.94-1.67.75-4.65,2.81-5.36Z" fill="#d53619"/>
        <path d="M59.14,29.84l-.13,1.78-2.17,2.04c-.34-1.25,1.12-1.67,1.55-2.41s-.09-1.59.75-1.42Z" fill="#d9381d"/>
        <path d="M49.44,27.8c-.47.48-2.28-2.18-2.04-2.81.43.15,2.19,2.65,2.04,2.81Z" fill="#d6361c"/>
        <path d="M56.85,38.01l.76.94v.34c.58.07.3,1.45-.25,1.53-.24.58-.81.52-1.28.77-.73-.02-.7-.59,0-.77.04-.02.71-.44.83-.52.83-.54-.52-1.44-.83-1.78.39.1.59-.2.77-.51Z" fill="#91aa90"/>
        <path d="M52,58.7c-.19.82.65.34.96.58.13.1.04.43.06.45.77-.04.7.86,0,1.02-.08-.07-.93-.44-1.02-.51-.13-.11.36-.37-.51-.51-.01-.42.26-.87.26-1.02.07-.22.16-.22.26,0Z" fill="#afa766"/>
        <path d="M57.61,39.29c.11-.42.42-1.41,1.02-1.28-.66,3.16-1.32,6.8-.99,10.05.15,1.44.85,2.96.99,4.37.2,2.06-.07,4.21-.25,6.26-.32.43-.47-.04-.51-.38-.18-1.36.4-3.41.25-5.11-.4-4.61-1.57-7.26-.76-12.39.06-.37.19-1.3.26-1.53Z" fill="#4490c3"/>
        <path d="M55.83,61.5c-.25-1.93-.9-3.78-1.03-5.73-.2-2.98.1-5.97.91-8.82,1.08.03-.01,2.23-.1,2.96-.47,3.74-.37,7.66.99,11.19l-.76.4Z" fill="#4492c4"/>
        <path d="M53.78,44.91c-.45,2.71-.9,5.45-1.28,8.17-.15.67-.3.66-.51,0-.25-.03-.25-.2,0-.51.05-1.52.38-2.34.51-3.57-.59-.21-.59-.55,0-1.02-.84-.56-.58-2.87.51-2.81.03-.07-.03-.19,0-.26.01-.37.76-.48.77,0Z" fill="#6c7978"/>
        <path d="M52.51,53.08c-.26,1.87-.62,3.73-.51,5.62h-.26c-.03-1.31-.31-2.8-.26-4.34,0-.08,0-.17,0-.26.13-.3.3-.64.51-1.02h.51Z" fill="#5e6f92"/>
        <path d="M56.08,40.82v.77c-.7.37-.5.27-1.02.77,0,.39-.2.69-.26.28.16.75-.21,1.48-.76.74.06-.49-.1-.97.08-1.47.02-.07.95-.98,1.02-1.01.38-.15.84-.02.95-.08Z" fill="#c1ab53"/>
        <path d="M53.78,54.87l-.13,3.57c-.79-.88-.71-1.93-.42-2.98.12-.43-.19-.71.54-.59Z" fill="#4493c8"/>
        <path d="M57.1,62.78s.52.86.51,1.02c-.76-.4-2.19-.57-2.04-1.79.73.18.92.19,1.53.77Z" fill="#c4b05a"/>
        <path d="M54.04,60.74s-.07.35.05.45c.4.32,1.22-.44.97.83-2.08-.55-1.06-.42-2.04-1.28.08-.71.88-.73,1.02,0Z" fill="#b5ae5e"/>
        <path d="M55.06,42.35c.14.96,0,1.87-1.02,2.04-.35-.23-.4-.82,0-1.02,1.06-.19.2-.52.55-.98.1-.13.43,0,.47-.04Z" fill="#8aaa9c"/>
        <path d="M59.14,62.27c-.62.82-.79-2.36-.13-2.55l.13,2.55Z" fill="#4794c5"/>
        <path d="M53.02,59.72c.13.08.77-.06,1.02,0v1.02c-.14-.09-.93.09-1.02,0-.06-.06.04-.79,0-1.02Z" fill="#81acb5"/>
        <path d="M54.04,43.37c-.04.33.05.72,0,1.02-.05.27-.25.46-.26.51h-.77c.06-.11-.06-.45,0-.51.03-.03.35.08.45-.05.38-.47-.48-.79.57-.97Z" fill="#b5aa65"/>
        <path d="M54.04,64.19c.06-.21.83-.82,1.02-.64.14.47-.51,1.13-.51,1.4v5.23c.59.05.74-.59,1.39-.53.75.07,1.4,1.45,1.93,1.69.34.16.54-.57,1.02-.4-.18.53-.14,2.03-.89,1.53-.5-.33-1.73-1.97-2.08-2.03-.13-.02-1.88,1.45-1.88.37,0-1.41-.28-5.65,0-6.64Z" fill="#e6b925"/>
        <path d="M43.31,35.2c1.85-.53,3.76,0,5.62-.51.23.46-.56.73-.76.76-.39.96-2.76.67-3.51.29l-1.09-.04c-.21.38-.63.55-1.28.51-.13.49-.36.49-.51,0,.59-.53.56-.74,1.53-1.02Z" fill="#c09342"/>
        <path d="M42.29,36.22c.7-.14,2.76-.53,2.04.51h-.26c-.11.43-1.31.8-1.79.77.07.7-.1.78-.51.26-.32-.18-.49-.44-.51-.77.04-.04-.04-.2,0-.26.21-.25.28-.31.51-.51.16.03.37-.04.51,0Z" fill="#b27044"/>
        <path d="M37.7,41.33c.21.24,1.63,1.42,2.04,1.79.58-.28.67-.08.51.51.85.02,1.62.47,2.33,1.35,1.65.63,3.09,1.46,4.31,2.48.47-.52.57-.41.51.26l.44-.4c1.18.46,2.4.69,3.64.7.41-.5.7-.69,1.03-.05-.03.34.03.69,0,1.02-5.26.1-10.23-2.5-13.93-6.12-.36-.36-.57-.93-.88-1.29v-.26Z" fill="#e48629"/>
        <path d="M36.16,39.29c.1.03.32-.08.44.06.18.2.72,1.56,1.09,1.98v.26c-.44-.5-1.42-1.09-1.53-1.79-.03-.16.02-.35,0-.51Z" fill="#f08b2a"/>
        <path d="M52,53.08c-.03.64.26,1.18-.51,1.02.02-.32-.06-.76,0-1.02.03-.11.41-.37.51-.51,0,.17,0,.34,0,.51Z" fill="#b05c4a"/>
        <path d="M25.18,48.48c.53,2.7-3,1.32-1.35.3.19-.12,1.25-.42,1.35-.3Z" fill="#656765"/>
        <path d="M24.42,43.89c.29.29-.27,2.52-1.02,1.79-.4-.39.31-2.51,1.02-1.79Z" fill="#686b6f"/>
        <path d="M24.42,54.61l1.02.51c-.08.46.09,1.09,0,1.53-.82-.24-.8-1.55-1.02-2.04Z" fill="#f0babc"/>
        <path d="M39.48,47.72c2.11,1.67,4.56,3.45,7.15,4.34.11.24.26.42.51.51-.43,6.26-.9,12.52-1.83,18.73-.17,1.12-.54,2.22-.72,3.23-1.31.45-3.38,1.27-4.74,1.24-.39,0-.66-.33-1-.36-.61-.05-2.45.51-2.18-.89.09-1.3-.09-2.65,0-3.96.51-7.67,1.58-15.28,2.81-22.86Z" fill="#ec4d2b"/>
        <path d="M39.23,47.46c-1.08,1.94-.53,4.48-1.53,6.38.05-1.35-.01-2.73,0-4.09.01-1.1,0-2.22,0-3.32.22-.26,1.29.83,1.53,1.02Z" fill="#e05225"/>
        <path d="M41.27,36.99c.68-.12.52.16.51.77.41.46.52,1.48-.26,1.53.41,1.33,0,2.9-1.02,3.83.65.4.47.76-.26.51-.22-.19-.36-.37-.51-.51.44-1.58,1.03-3.44,1.23-5.06.06-.45-.22-1.01-.18-1.05.07-.09.44.03.49-.02Z" fill="#d23b1d"/>
        <path d="M39.48,82.44c-.3-1.57.77-1.02,1.28-1.4.12-.09,1.29-3.38,1.55-.78.17,1.71-1.34,2.36-2.83,2.17Z" fill="#eb907e"/>
        <path d="M40.76,77.08c.42,1.74-1.36,1.1-1.53,1.28s.46,1.96-1.28,1.53c-.28-2.2.6-3.09,2.81-2.81Z" fill="#f39787"/>
        <path d="M48.16,40.57c.9,1.54,3.35,3.7,4.85,4.6-.66,1.43-.37,1.23-.51,2.81-.51-.18-.47.46-.69.51-1.26.28-3.19-.38-4.42-.76-.02-2.44-.02-4.91,0-7.41.32-.51.59-.27.77.26Z" fill="#ec4e2a"/>
        <path d="M48.16,35.46c.87-.1.38.26.33.71-.1.98-.32,2.64-1.1,3.37-.46.68-2.58.42-2.4-.54-.44.33-3.45.74-2.28-.08.1-.07.21-.11.33-.14.03-.78.71-1.29,2.04-1.53-.68-.03-1.02-.2-1.02-.51.07-.03.18.03.26,0,.12-.53-.15-.76-.83-.69l.07-.33c1.7-.43,3.1-.02,4.6-.26Z" fill="#e4b28c"/>
        <path d="M42.55,38.27c.59-.37.76-.13.51.51.07.09-.14.53.13.51.8-.74,1.61-.89,2.68-.76l-.51.9c.65.28,1.41.03,2.05.12,1.09.15.57.68.77,1.02-.24-.13-.49-.23-.77-.26-.09.22-.17.22-.26,0-.52.53-1.43.53-2.72-.02-1.49.29-2.45-.05-2.9-1,.12-.41-.14-.99.26-1.53.06-.08.38-.15.51-.26.51.04.6.3.26.77Z" fill="#cd5f3f"/>
        <path d="M43.57,35.71l.17.21,1.1.05c.08.38-.15.64-.51.76.14-.96-1.04-.23-2.04-.51.47-.1.8-.39,1.28-.51Z" fill="#cc9a71"/>
        <path d="M44.08,36.74l1.02.51c-.87.39-1.72.73-2.55,1.02-.17-.26-.34-.38-.26-.77.79-.6,1.04-.5,1.79-.77Z" fill="#cc9a71"/>
        <path d="M40.5,43.12c.71-.68,1.6-.26,2.66,1.27,2.03.37,3.36,1.23,3.98,2.56.38.1.17.77-.26.51-2.6-.93-4.58-2.08-6.64-3.83.25-.1.2-.31.26-.51Z" fill="#ec4e2a"/>
        <path d="M47.4,47.72c-.23-.07-.38-.21-.51-.26.25-.07.24-.29.26-.51-.61-.87-.79-5.66-.36-6.26.1-.14.22-.26.36-.38.08,0,.17,0,.26,0,.08,2.41.65,5.04,0,7.41Z" fill="#da381e"/>
        <path d="M42.8,57.42c-.06,2-.06,4.26-.28,6.23-.05.43-.12,1.1-.74.91.36-2.18.24-4.63.51-6.77.05-.37.2-.79.51-.38Z" fill="#d4351a"/>
        <path d="M41.53,39.29c.68-.3.77.47.94.5.61.13,1.38-.09,2.01,0,.92.12,1.41.43,2.67.52-.12,2.17.16,4.49,0,6.64-.75,0-.75-.78-1.34-1.09-.67-.35-2.25-.64-2.92-1.05-.71-.44-.96-1.71-2.38-1.69.34-1.28.65-2.55,1.02-3.83Z" fill="#ed4c2b"/>
        <path d="M45.1,37.25l-2.04,1.53c-.07-.1-.33-.23-.51-.51.45-.94,1.63-1.06,2.55-1.02Z" fill="#af704b"/>
        <path d="M11.02,19.36c-1.12-1.3-1.78-3.08-1.93-4.84C8.04,2.77,23.06.35,26.39,10.76c2.99,9.34-9.48,15.46-15.37,8.6Z" fill="#cb9937"/>
        <path d="M25.17,16.96c-.64.76-1.53,1.51-2.04.26-.51.54-.83.16-.51-.51-.95-.38-2.26-1.58-2.04-2.55,1.3-1.36,2.13-3.11,1.49-4.98-1.17-3.4-5-2.53-7.57-1.65.32,1.73.03,2.93-1,4.4.64.6.96,1.47.95,2.62.59.35.84.73.76,1.13.02.09.02.17-.02.22-1.03,1.17-1.5,1.71-2.41,2.93-.3.4-.83.3-1.15-.08-.08-.11-.42-.18-.62-.52-1.43-2.51-1.61-6.61-.28-9.19.19-.37,2.25-2.8,2.51-2.98.14-.1,2.85-1.03,3.15-1.06,4.03-.41,7.71,1.54,9.05,5.44.88,2.57.95,4.1-.27,6.52Z" fill="#f1c92d"/>
        <path d="M15.21,15.68c.46-.69,1.08.1,0,.51.23.67-.21,1.34-1.33,2.01-.34.23-.56.81-.11,1.05,1.27.68,5.86.26,7.24-.19,1.25-.41,1.71-.58,2.12-1.85.74.34,1.36.08,2.04-.26-1.93,3.84-6.22,5.29-10.36,4.1-1.5-.43-2.31-1.13-3.18-2.31,1.57-.13,2.13-2.57,3.57-3.06Z" fill="#f7c038"/>
        <path d="M22.62,16.7c-.08.24-.22.41-.44.51l-2.44-.71c-2.01,1.19-3.52,1.08-4.53-.31.07-.14.15-.27.25-.39-.01-.12-.21-.09-.25-.12-.32-.3-.81-.34-1.04-.62-.51-.61-.3-1.98-.55-2.39-.1-.16-.6-.18-.7-.46-.14-.43,1.12-1.87,1.22-2.86.1-1.05-.74-2.09.55-2.49.49-.15.98-.03,1.4-.13s.7-.42,1.05-.48c5.45-.85,7.53,4.88,3.69,8.29.76.64,1.25,1.36,1.78,2.17Z" fill="#e8b328"/>
        <path d="M22.62,16.7c.16.25.49.47.51.51,1.21,2.28-3.75,2.73-5.22,2.82-1.11.07-3.97.26-4.6-.53-1.13-1.39,1.27-2.12,1.91-3.31.88-.43,1.31.76,1.43.77.85.07,2.41-.95,3.09-.97.6-.02,2.06.84,2.89.7Z" fill="#e66225"/>
        <path d="M19.81,9.3c.64,1.08,1.2,2.29,1.02,3.57.37.33-.09.85-.51.77-.12,0-.33.25-.6.2-.89-.2-.72-2.16-1.13-2.94-.18-.34-1.59-1.63-1.6-1.74-.03-.35.55-1.41.52-1.64.88-1.21,2.92.66,2.3,1.79Z" fill="#e17822"/>
        <path d="M17.51,7.51c-.02-.15-.98-.38-.26-.64,2.26-.84,4.84.9,4.85,3.36,0,.48-.77,2.48-1,1.23-.19-1.03-.49-.94-.52-1.05-.13-.55.21-1.29-.26-1.74l-.51.64c-.52-.88-1.05-2-2.3-1.79Z" fill="#f3c12f"/>
      </g>
    </g>
  </g>
</svg>