<?xml version="1.0" encoding="UTF-8"?>
<svg id="Layer_2" data-name="Layer 2" xmlns="http://www.w3.org/2000/svg" viewBox="0 0 64.05 96.06">
  <g id="Coins">
    <g id="Two">
      <path d="M58.76,89.56v-1.4h5.29c-.06.53-.23,1.03-.52,1.51s-.85,1.1-1.7,1.89c-.68.63-1.1,1.06-1.25,1.29-.21.31-.31.62-.31.92,0,.34.09.6.27.78.18.18.43.27.75.27s.57-.09.75-.28.29-.5.32-.95l1.5.15c-.09.83-.37,1.43-.84,1.79-.47.36-1.06.54-1.77.54-.78,0-1.39-.21-1.83-.63-.44-.42-.67-.94-.67-1.56,0-.35.06-.69.19-1.01.13-.32.33-.66.6-1.01.18-.23.51-.57.99-1,.48-.44.78-.73.91-.87.13-.14.23-.28.31-.42h-3Z" fill="#fdc11f"/>
      <path d="M5.29,6.5v1.4H0c.06-.53.23-1.03.52-1.51s.85-1.1,1.7-1.89c.68-.63,1.1-1.06,1.25-1.29.21-.31.31-.62.31-.92,0-.34-.09-.6-.27-.78-.18-.18-.43-.27-.75-.27s-.57.09-.75.28-.29.5-.32.95l-1.5-.15c.09-.83.37-1.43.84-1.79.47-.36,1.06-.54,1.77-.54.78,0,1.39.21,1.83.63.44.42.67.94.67,1.56,0,.35-.06.69-.19,1.01-.13.32-.33.66-.6,1.01-.18.23-.51.57-.99,1-.48.44-.78.73-.91.87-.13.14-.23.28-.31.42h3Z" fill="#fdc11f"/>
      <g id="Coin">
        <path d="M29.74,6.89c.22.12.4.12.55,0,.27-.28.69-.28.97,0h.55c.19-.32,1.49-.22,1.1.27.13.33.36.33.69,0,.19-.38,1.31-.17.97.27.12.17.35.22.69.14.35-.18.49-.05.41.41.06.21.24.12.55-.27.04-.12.09-.12.14,0,.55.12.83.3.83.55.11.03.18.1.23.2.22.45-.26.05.15-.29.15-.12.28-.11.45-.06.44.2.68.32,1.1.55.01.23.2.32.55.27.39.22.54.36.83.55l-.02.3c-.68.36-.63.44.16.25.32-.29,1.35.56.69.82-.14.58-.12.71.07.41h.35c.27-.72,1.48.35.97.69.09.18.01.39-.23.63.23-.18.45-.21.65-.08.31-.47,1.4.46.97.82-.09.21-.24.41-.46.6.41-.27.75-.33,1.01-.19.26.11.98.82.55.96-.03.27-.24.48-.64.62.37-.2.68-.22.91-.07.28-.33.87.93.55.96,0,.25-.21.37-.64.36.58-.15.98-.08,1.2.19.23.12.34.49,0,.55,0,.25-.18.42-.52.51.4-.11.66-.05.79.17.44-.11.86.55.55.82-.08.16.06.29.41.41.08.24.09.4.14.55.21.34-.05.41-.36.5.26-.14.47-.12.64.05.26.89.39,1.58.55,2.47-.16.2-.46.28-.88.26.32-.04.52.06.6.29.28.11.33.61,0,.68-.03.24-.25.38-.66.42.46-.15.78-.11.94.12.2.34.24.93,0,1.23-.25.2-.6.25-1.06.14.49.02.84.15,1.06.41.31.31.16,1.46-.28,1.37l-.21.22c-1.09-.38-1.33-.15-.08.03l.16.29c.24.31.18,1.49-.28,1.37-.27.04-.32.18-.14.41.38.25-.07,1.39-.55,1.1-.22.12-.53.08-.95-.13.51.15.83.38.95.68.05.36-.25,1.2-.69.96-.07.23-.31.25-.72.07.22.12.32.28.3.48.15.04.25.12.22.25-.23.88-.55,1.27-1.35.66.28.16.38.36.3.6-.06.24-.24.32-.15.18.26-.39.03,1.12-.4.5-.2.1-.43-.02-.68-.35.2.23.25.44.13.62.59.32-.19,1.18-.69,1.1-.23.09-.45-.07-.66-.48.22.27.3.52.25.75.56.4-.97,1.66-1.38,1.1-.4-.17-.58-.08-.55.27.29.36.29.54,0,.55-.05.4-1.02,1.1-1.24.55-.2.06-.42-.02-.68-.22.22.23.31.44.27.63.04.32-.84.73-1.1.55-.25.05-.44.18-.55.41-.2.41-1.6.79-1.79.27-.58-.34-.7-.34-.38.02l-.17.25c.33.52-1.22.79-1.38.27-.19,0-.32-.11-.4-.34.07.3.02.5-.15.62-.26.64-1.6.48-2.07.27-.2-.14-.35-.4-.45-.78.05.38-.03.64-.24.78-.43.2-1.75.37-1.79-.27-.19-.27-.37-.27-.55,0-.22.42-1.9.26-1.52-.27-.15-.42-.23-.46-.26-.1l-.3.1c-.22.37-1.34.1-1.38-.27-.03-.39-.22-.39-.55,0-.35.06-.94-.08-1.24-.27l-.22-.31c.18-.27.03-.35-.47-.24-.32.35-1.06-.23-1.24-.55-.17-.16-.29-.25-.55-.27-.25.22-1.26-.62-1.1-.96,0-.36-.09-.45-.27-.27l-.28-.14c-.21.34-1.17-.55-.83-.82-.15-.17-.1-.37.15-.61-.27.2-.5.22-.7.06-.22.38-.9-.36-.55-.55.04-.29-.05-.47-.28-.55l-.25.14c-.38-.2-1.3-1.72-.85-2.06-.12-.18-.05-.36.2-.52l-.6.19c-.29-.05-.94-1.09-.34-1.29-.92-.13-.83-1.22.09-1.4-1.08.09-1.15-.1-1.2-1.16,1.12-.31,1.23-.38.33-.21-.17,0-.41,0-.53-.13-.64-.7-.02-.86.53-1,.34-.08-.29-.15-.5-.09-.44.13-.46-1.52-.36-1.68.06-.09.17-.12.27-.13-.77.22-.64-1.15-.36-1.5.06-.26.29-.34.7-.27l-.14-.28c-.72.02-.92-.26-.54-.82.26.11.57.15.81,0,0-.28-.18-.5-.55-.68-.39-.01-.3-.71,0-.82.05-.19.05-.38,0-.55-.21-.46.05-1.38.55-1.37.21-.23.19-.3,0-.55-.44.02-.2-.79-.03-1,.1.03.2,0,.3-.09.03-.17-.01-.39-.14-.68.14-.37.29-.64.41-.96.05-.35.41-.35,1.07-.03-.34-.1-.51-.28-.52-.52-.38.12.12-.93.17-.94l.38.12c.37-.09.46-.28.28-.55-.36-.48.28-1.38.83-.82.13-.18.35-.2.67-.07-.37-.15-.54-.35-.53-.61-.28-.32.42-1.14.69-.68.21-.28.55-.29,1.03-.03-.19-.05-.23-.18-.2-.38l-.17-.14c-.65-.38.02-1.11.59-.82l.35-.11c.26.29.38.18.34-.3-.8-.29.38-1.31.69-.68.18-.14.42-.07.71.2-.34-.31-.39-.56-.15-.74-.28-.41.58-.64.97-.55.62.25.77.25.45.02l.1-.29c-.4-.56.96-.85,1.38-.82.22.06.42.23.62.52-.13-.21-.1-.39.07-.52-.5-.55.64-.99.97-.55l.29-.1c.38.45.52.43.4-.04.06-.5,1.13-.81,1.38-.41.26.19.45.19.55,0-.04-.53,1.23-.57,1.52-.27Z" fill="#e9ca1a"/>
        <path d="M13.46,25.11c0,.2-.04,1.19,0,1.23.05.05.9-.04,1.11,0,.26.94-.66.38-.83.55-.04.04-.04,1.19,0,1.23.05.05.84-.04,1.03,0,.2.02.03.51-.21.62-.27.13-.76-.08-.69.27.16.82,1.4-.11,1.51.42.04.18-.22.4-.37.45-.69.2-.82-.36-.73.85.27.03,1.31-.13,1.38.21-.26.7-1.08.12-.83,1.16,1.77-.07.41.46.29.77-.07.17.25.56.29.58.11.04.97-.52,1.08-.04.04.17-.47.59-.55.61-.17.53-.6.26-.83-.14-.64-1.29-1.1-2.66-1.38-4.11-.07-.7-.34-.86-.39-1.19-.04-.26.14-.6.08-1.03-.04-.36-.31-.69-.34-.88-.05-.33.09-1.47.09-1.96.07-.31.17-.36.28-.14.4,0,.39.46,0,.55Z" fill="#cea531"/>
        <path d="M35.26,7.16c-.07.26-.3.35-.69.27-.13-.49-.8-.17-.97-.27-.19-.02-.42-.02-.69,0-.19-.44-.68-.25-1.1-.27-.19.35-.41.39-.55,0-.32,0-.65,0-.97,0-.04.39-.45.37-.55,0-.53.02-1.1-.14-1.52.27-.16-.08-.34-.08-.55,0-.08.05-.52-.04-.73,0-.04,0-.36.46-.65.41l-.69.14c-.3.19-.85-.41-.97.55-.25-.08-.48-.08-.69,0,0,.02-.35.27-.37.27-.4.09-.89-.12-1.01.55-.21.15-.39.06-.55-.27,3.64-1.99,6.63-2.52,10.83-2.19.36.03,2.34.36,2.42.55Z" fill="#dcc157"/>
        <path d="M46.02,34.56c-1.3,1.87-2.34,3.02-4.14,4.38-.3.18-.49.18-.55,0v-.55c.32.03.51-.06.55-.27l1.06-.32.32-.78c.04-.13.33-.32.42-.18.1.17-.28.25,0-.1.28-.39.85-.52.69-1.1.22-.05.4-.14.55-.27.45.1.24-.31.28-.68.09,0,.19-.01.28,0,.15-.25.3-.28.55-.14Z" fill="#d8b949"/>
        <path d="M38.02,40.86c.14-.33.28-.33.41,0,.04-.08.09-.08.14,0-1.78.79-3.7,1.5-5.59,1.64-.47.04-.97,0-1.45,0-.33-.19-.23-.32.14-.27.47-.05,1.01.06,1.46.01.25-.03.2-.43.61-.28.21.01.39-.08.55-.27.48-.07,1.15.23,1.38-.27.27,0,.41-.04.55-.27h1.52s-.14-.27-.14-.27c.14,0,.28,0,.41,0Z" fill="#dec157"/>
        <path d="M26.57,41.68c.14.04.32.04.55,0,.17.56,1.27.12,1.52.27.22.11.41.11.55,0,.29.55,1.23.16,1.79.27.24-.34.51-.05.55.27-2.71.06-4.14-.12-6.76-.82.06-.19.23-.25.41-.27.47.22.84.35,1.38.27Z" fill="#d8bd51"/>
        <path d="M48.78,22.78c.65,3.56.25,6.47-1.4,9.75-.12.24-.51.62-.53.66-.36-.02-.37-.33-.14-.55.43-.28.32-.43.46-.78.03-.09.22-.14.23-.18-.36-.14-.38-.43,0-.55.63-.4.42-.61.55-1.1-.31-.25-.27-.43.14-.41,0-.02.11-.08.13-.21.07-.36-.11-.81.14-1.16.14-.13.19-.31.14-.55v-.18c.46-.17.26-.74.28-1.19-.36-.2-.38-.38,0-.55,0-.41-.02-.82,0-1.23-.14-.15-.23-.33-.28-.55.03-.2-.05-.51,0-.68-.36-.21-.05-.51.28-.55Z" fill="#d9bf4f"/>
        <path d="M13.74,19.77c.27.15.45.34.55.55v.18c-.4.24-.25.64-.55,1.19-.04.22-.04.4,0,.55.06.09-.04.64,0,.82-.22.35-.13.5.28.46l.27.23c-.09.27-.76.07-.83.14-.09.56.04.56.55.68-.1.4-.37.35-.55,0-.08,0-.19.11-.28.14.02-1.73.13-3.24.55-4.93Z" fill="#dfc045"/>
        <path d="M40.78,9.63c1.21.81,1.54,1.23,2.48,2.19.58.59.79.73,1.38,1.51v.14c-.38.63-.7-.36-.29-.04.09.07-.14.04-.26-.1.07-.63-.52-.64-.97-.82-.3-.21-.16-.56.14-.68-.08.42-.33.53-.55.14.06-.53-.46-.8-.97-.68-.08-.19-.22-.33-.41-.41.1-.43-.38-.63-.69-.82-.31-.2-.22-.39.14-.41Z" fill="#dcbc46"/>
        <path d="M46.85,33.19c-.31.52-.45.83-.83,1.37-.31.35-.38.16-.55.14-1.44-1.03-.55-1.27.55-.41.25-.4.37-.57.28-1.09.13-.37.42-.38.55,0Z" fill="#cba536"/>
        <path d="M46.57,16.34c-.27.12-.41.17-.55-.14v-.18c-.36-.13-.22-.33-.32-.6-.03-.07-.22-.14-.23-.18-.2-.1-.29-.28-.28-.55-.02-.03.05-.24-.05-.36-.21-.26-.41-.18-.5-.6-.26-.08-.26-.19,0-.27v-.14c.85,1.12,1.28,1.8,1.93,3.01Z" fill="#dac159"/>
        <path d="M16.63,13.74c.3-.04.54.26.41.55-.66-.16-.61.33-.83.82-.2.15-.29.33-.28.55-.51-.11-.04.48-.55.64v.18c-.13.34-.38.26-.56,0,.31-.75,1.15-2.05,1.66-2.74h.14Z" fill="#dab945"/>
        <path d="M19.81,38.81l.89.9c.07.06.2.04.22.06.21-.14.39-.05.55.27.43-.03.53.84,1.24.55.28.25.23.27-.14.27-1.6-.75-2-.84-3.45-2.05.17-.3.52-.3.69,0Z" fill="#e0c862"/>
        <path d="M15.94,34.01l.6,1.6.51.32.28.55c-.03.21.3.56.55.55.16.21.34.39.55.55.04.28.55.78.83.82.3.2.18.36-.14.41-1.72-1.45-2.85-2.87-4-4.79v-.14c.22.12.6.2.83.14Z" fill="#d3b95c"/>
        <path d="M13.74,29.77c.24.14.23.38.28.61.18.82.39,1.5.55,2.31.01.07.85.67.55,1.19v.14c-.84-1.41-1.22-2.59-1.38-4.25Z" fill="#eee4b0"/>
        <path d="M15.39,16.48c.21.06,1.34.45.97.82-.21.21-1.18-.38-1.52-.27.05-.12-.05-.43,0-.55.24-.11.33-.06.55,0Z" fill="#c79920"/>
        <path d="M47.4,18.81c.05-.34.12-.28.28,0,.05.13.09.28.14.41l-1.66.55c-.14-.57.81-.9,1.24-.96Z" fill="#c59515"/>
        <path d="M22.01,8.81c.34.04.37.46,0,.55-.15.41-.46.2-.72.28-.14.04-.19.25-.25.27-.09.37-.49.23-.69,0,.63-.46.86-.66,1.66-1.1Z" fill="#e0c34a"/>
        <path d="M20.36,9.9c.39-.06.44.34.14.55h-.69s0,.68,0,.68c-.1.38-.79.23-.83-.14.51-.48.79-.66,1.38-1.1Z" fill="#dbbf55"/>
        <path d="M22.7,40.59c.91-1.1.91-.51.69.55-.16.09-.34.09-.55,0-.16-.08-.26-.27-.28-.27.05-.08.08-.2.14-.27Z" fill="#c9a52c"/>
        <path d="M18.98,11c.19.12.23.3.14.55-.12-.1-.67.25-.69.28-.18.28.48.28.27.68l-.11.15c-.38-.12-.62-.04-.71.26-.36.01-.51.41-.69.68-.04.39-.32.47-.55.14h-.14c.76-1.03,1.56-1.86,2.48-2.74Z" fill="#dab94c"/>
        <path d="M47.95,19.77c.02.05.16.15.28.55-.43.22-.89.32-1.38.27-.17-.69.74-.4,1.1-.82Z" fill="#c0951d"/>
        <path d="M39.68,8.94c-.33.11-.75,1.02-1.03.96-.56-.12.31-1.09.48-1.23.18.1.38.17.55.27Z" fill="#c89614"/>
        <path d="M37.19,7.71c-.12.35-.6.17-.83,0-.05,0-.12.02-.14,0l-.24-.11c.09.21-.07.4-.31.38-.08-.16-.35-.29-.41-.41-.4-.09-.36-.28,0-.41.89-.02,1.18.25,1.93.55Z" fill="#debb5d"/>
        <path d="M40.23,40.04c-.61.35-1.02.54-1.66.82h-.14c-.29-.24-.25-.4.14-.41.04-.05,1.04-.54,1.1-.55.19-.34.45-.16.55.14Z" fill="#dcc152"/>
        <path d="M14.42,17.98l1.1.62c.2.4-.84.1-.96.07-.4.45-.49.27-.28-.55.02-.05.12-.09.14-.14Z" fill="#c5931a"/>
        <path d="M40.78,9.63c-.03.13-.05.31-.14.41-.86,1.02-1.46-.1-.14-.55.08.05.19.08.28.14Z" fill="#c6951a"/>
        <path d="M37.74,7.98c.09.04.18.09.28.14-.38.08-.32.9-.42.96-.5.33-.54-.49-.41-.82-.4-.44.14-.45.55-.27Z" fill="#c79613"/>
        <path d="M41.88,38.94c-.55.41-1.07.76-1.66,1.1-.29-.06-.42-.34-.14-.55.56.26.92-.44,1.24-.55.13-.04.39.03.55,0Z" fill="#d7bf54"/>
        <path d="M14.29,18.12c.03.14-.05.47,0,.54.03.04.2-.02.27,0v.18c-.44.16-.26.52-.28.91-.1.35-.42.31-.55,0,.13-.55.36-1.11.55-1.64Z" fill="#dcc250"/>
        <path d="M23.39,41.14c.47,0,.88.08,1.24.27.35-.18.43.03.14.27-.72-.19-1.24-.22-1.93-.55.18,0,.37,0,.55,0Z" fill="#dec45f"/>
        <path d="M47.4,17.98c-.15.22-.3.11-.28-.14-.22-.14-.4-.33-.55-.55,0-.18.01-.37,0-.55-.39-.04-.35-.27,0-.41.36.67.53.88.83,1.64Z" fill="#ddc97a"/>
        <path d="M37.19,7.71c.3.12.39.2.55.27-.26-.06-.46.03-.55.27h-.18c-.16-.51-.75-.04-.65-.55.25.04.57-.03.83,0Z" fill="#dec150"/>
        <path d="M47.13,17.85c.06,0,.2.11.28.14.11.3.18.57.28.82-.09,0-.19-.01-.28,0v-.41s-.27.14-.27.14c.04-.27-.03-.44-.28-.55-.13-.37.02-.44.28-.14Z" fill="#dcc258"/>
        <path d="M26.43,31.27c.32-.46.03-1.57-.34-1.93-.53-.51-2.41-.4-2.96-1.45l-.58-3.42c-.01-.33.4-.58.28-.93-.15-.42-1.85-.52-1.92-1.25-.1-.98,1.79-2.57,2.1-3.53.13-.41.08-.78.2-1.17.16-.54.97-1.7.88-2.12-.03-.11-.29-.15-.4-.31-.72-1.05-.95-2.31.25-3.14.84-.58,1.08-.17,1.83-.23.84-.06,2.25-.65,3.17-.84,6.58-1.35,11.41.78,11.85,7.92.19,3.02-1.31,6.79-4.28,7.95,0,.27.54.48.75.76.29.38.37,1.04.71,1.35.27.25.58.23.82.42.17.13,1.13,1.51,1.16,1.72.07.41-.03.88,0,1.29-.1.23-2.11.15-2.2.07-.04-.03-.03-.11-.01-.2.17-.27.54-.35,1.12-.25,1.52-.18-1.09-2.92-1.94-2.6-.52-.68-1.23-1.17-2.12-1.46-.75-.39-1.97-2.47-.5-2.32,0-.33.04-.6.41-.63.09-.45.52-.3.41.14.14.16.24.39.3.7,2.95,1.33,4.8-4.61,4.67-6.71-.4-6.46-3.91-8.37-10.01-7.62-1,.12-2.68.39-3.38,1.03.18-.44,1.78-.43,2,0,.05-.05.1-.09.16-.1.41-.06,1.55-.06,1.95.1.38.14,1.28.83.99,1.24-.25.54-.93.38-.97-.27-.8-.3-1.48-.21-2.03.26-.02,2.07-1.6,1.04-.77-.53-.69-.04-1.71-.05-.85.65l.09,1.28c.5.8.47,1.41-.1,1.84,1.34.13,1.7-.75,1.86-1.93.48-.53.89-.1.89.5l.36-.02c.43-.54.85.23.28.41.05.04.1.08.14.13.19.31-1.77,1.41-2.1,1.59.16.66.48,1.28.96,1.87.4.7.46,1.62-.36,2.02.61,0,.93-.43.98-1.33l.2-2.28c.11-.52.35-.82.73-.9.23-.56.82.05.28.27.15.31.14.69-.03,1.14.06,1.58-.36,2.89-1.28,3.93,1.22,1.48,1.76.73,1.61-2.25.03-.55.25-1.93.95-1.59.22-.34.55-.1.41.27l.04.32c-.46.53-.6,1.21-.42,2.03.04,1.26-.31,2.24-1.07,2.95-.24.9-.93.78-1.19-.05-.73-.63-1.4-1.32-2.01-2.06-.69-1.03-1.02-1.59.57-1.51-.6-.78-1.01-1.61-1.25-2.5-.66.05-2.81-.35-2.58-1.25.07-.27.11-.44.43-.48,2.24.26.03-.55-.72-.79-.39.77-.68,1.58-.9,2.42l-.29.11c.18-.44,1.78-.43,2,0,.06-.09.16-.23.25-.21.44.11,1.78.78,2.03,1.17,1.05,1.61-1.2.58-1.78-.02-.24-.24-2.25-.36-2.35-.29-.42,1.02-1.03,1.94-1.82,2.77-.83,1.09-.22,1.02.78.83l.62.11c-1.28-.54-.42-1.72.57-.86.8.69.5,1.76-.57,1.86l.15.54c-.43.86.66.82.52.01,1.42-.74,1.97,2.87.38,1.38-.08.5-.33.71-.78,1.01l.12.54c-.53,1.03.97,1.46,1.78,1.56,3.15.36,3.92-.62,5.3-3.24.28-.48,1.07-1.22,1.34-.4.06.18-1.47,2.6-1.7,2.9-1.08,1.35-1.89,1.67-3.64,1.77.48.51.76,3.57.43,3.96-.06.07-.21.03-.32-.02-.25-.23-.17-.79,0-1.1-.12-.32-.31-.64-.55-.96Z" fill="#c89810"/>
        <path d="M37.74,32.23c.71.33,1.52-.02,2.21.14.09.02,1.29.88,1.47,1.02,1.86,1.38-2.53,3.01-3.51,3.33-3.31,1.08-10.77,1.93-14.16,1.39-1.32-.21-2.24-.91-2.01-2.38.12-.73,2.1-1.88,2.75-2.47.49-.44,1.59-1.49,1.93-1.99.76.07.54.36.55.96-.05.29-.14.39-.28.27-.16-.04-.3-.09-.26-.24-1.21,1.24-2.5,2.39-3.86,3.43l-.29-.04c.36.26.36.45,0,.55.21.05.31.24.31.55.84-.28,1.69-.55,2.55-.81,1.14.57-.91,1.28-1.44,1.4,4.71.47,12.82,0,16.85-2.57,1.39-.89-.69-1.65-1.57-1.88-.52.09-.89,0-1.12-.25-.37.21-.6.21-.69,0-.29-.08-.6-.08-.94,0l-.17-.27c-.33.18-.56.18-.69,0-.22.05-.36-.08-.4-.39-2.41.79-4.86,1.52-7.36,2.18l-.38-.15c-.29-.03-.42-.09-.28-.41.25-.19.51-.38.82-.47,2.2-.65,4.39-1.34,6.48-2-.04.13,0,.09.15-.12.29-.17.66-.08,1.1.27l.3.09c.03.6.9.51.68-.22-.88-.98.11-1.65.77-.49.14.54.3,1.07.46,1.58Z" fill="#d68321"/>
        <path d="M46.57,16.34c.03.07,0,.29,0,.41l-1.79.14c-.16-.62.76-.62,1.24-.68.14-.02.44-.13.55.14Z" fill="#c89716"/>
        <path d="M48.78,25.79c0,.18,0,.32,0,.55-2.19-.02-2.19-1.03,0-.55Z" fill="#c99412"/>
        <path d="M48.51,27.71c.38.11.37.6.07.66-.07.01-.16-.11-.21-.11-.3-.02-1.45-.11-1.24-.62.08-.19.26-.22.45-.18.14.02.72.19.93.25Z" fill="#c69514"/>
        <path d="M18.7,12.5c.3.12,1.14.46.46.67-.33.1-.78-.28-1.29-.26-.33-.89.2-.65.83-.41Z" fill="#c99518"/>
        <path d="M48.09,29.63s-.1.26-.14.41c-2.25-.44-2-1.54.14-.41Z" fill="#c9960d"/>
        <path d="M21.05,9.9c.02.25.77.89.55,1.1s-.98-.37-1.1-.55c-.04-.06-.16-.52-.14-.55.21-.18.66,0,.69,0Z" fill="#c99a19"/>
        <path d="M47.13,17.85c-.16.02-.25.13-.28.14-.27.04-1.16.27-1.24-.07-.05-.24.82-.6.97-.61.43-.05.6.12.55.55Z" fill="#c89619"/>
        <path d="M45.2,14.7s.27.02.35.13c.09.13-.09.32-.08.42-1.65.87-1.98.09-.28-.55Z" fill="#c79515"/>
        <path d="M17.18,13.6c.08.02,1.04.5.97.75-.08.37-.9.05-1.1-.07s-.42-.31-.41-.55c.16-.01.42-.16.55-.14Z" fill="#c99612"/>
        <path d="M44.09,13.33c.09-.03.18-.14.21-.14.09,0,.05.23.16.27h.19c.01.09-.02.19,0,.27-.31.19-1.54.91-1.31.14.11-.37.43-.45.76-.55Z" fill="#c89e1f"/>
        <path d="M48.37,21.27c.27.67-1.44.83-1.52.48-.1-.45,1.24-.53,1.52-.48Z" fill="#cb9510"/>
        <path d="M19.81,11.13c.18.1.56.76.41.96-.37-.15-.77-.32-1.1-.55-.07-.05-.28-.17-.27-.2,0-.02.12-.34.14-.35.03-.03.77.11.83.14Z" fill="#c4961b"/>
        <path d="M38.57,40.45c-.04.05-.04.32-.14.41-.14,0-.28,0-.41,0,.08-.33-1.15-1.06-.48-1.23.5-.13.63.68,1.03.82Z" fill="#c79418"/>
        <path d="M48.78,24.56c-.46.03-1.02.36-1.38-.07-.07-.32.89-.47,1.1-.48.66-.03.28.47.28.55Z" fill="#c99616"/>
        <path d="M14.29,23.74c-.95.25-1.37-.57-.55-.68.4-.05.72,0,.96.34,0,.03-.39.34-.41.34Z" fill="#c99919"/>
        <path d="M26.29,7.57c.25.21.64.7.2.96l-.89-.82c.12-.07-.04-.76.69-.14Z" fill="#c99713"/>
        <path d="M47.4,31.14s.02.49,0,.55c-.28-.07-1.19-.37-1.24-.62,0-.28.23-.37.48-.35.04,0,.74.38.76.42Z" fill="#c8980c"/>
        <path d="M17.87,37.03c.12-.11.96-.55,1.1-.41.17.16-.48.93-.55.96-.48.19-.85-.29-.55-.55Z" fill="#bf8f10"/>
        <path d="M43.13,12.5c-.1.14-.85.54-.97.41-.14-.35.28-.83.55-.96.1-.05.39,0,.55-.14.01.24,0,.48-.14.68Z" fill="#c5980f"/>
        <path d="M44.92,35.38c.11.24.05.31,0,.55-.11.08-.46-.19-.55-.27-.25-.23-.64-.69-.2-.96.2-.04.67.5.76.68Z" fill="#c9960f"/>
        <path d="M31.67,42.23s-.13.27-.14.27c-.16.11-.43-.25-.55-.27-.3-1.77.8-1.18.69,0Z" fill="#c69517"/>
        <path d="M43.68,36.75c.04.07.17.24.14.27-.23.04-.32.13-.55,0-.32-.17-.83-.99-.34-1.1.25-.05.65.62.76.82Z" fill="#c89415"/>
        <path d="M24.64,8.26c.7,1.14-.5,1.05-.69,0,0-.02-.16-.24-.13-.26.46-.14.56-.17.82.26Z" fill="#c49518"/>
        <path d="M40.09,39.49c.08.12.21.48.14.55-.1.1-.49-.14-.55-.14-1.11-.63-.3-1.45.41-.41Z" fill="#c59414"/>
        <path d="M36.23,41.14c.25.61-.22.79-.55.27-.64-1,.11-1.36.55-.27Z" fill="#c79514"/>
        <path d="M41.88,38.12c.58.86-.14.82-.55.27-.54-.7-.1-1.24.55-.27Z" fill="#c79411"/>
        <path d="M48.78,22.78c.06.21-.24.41-.28.55-1.94.09-.97-.85.28-.55Z" fill="#ca9418"/>
        <path d="M46.71,32.64c.13.11.15.38.14.55-.17-.02-.4.03-.55,0-.57-.12-1.03-.9-.27-.76.08.02.66.19.68.22Z" fill="#c69714"/>
        <path d="M14.29,19.77c.97.04,1.3.71,0,.55-.29-.03-.84-.24-.55-.55.02-.02.45,0,.55,0Z" fill="#c29519"/>
        <path d="M22.01,8.81c.22-.22.44.17.55.27,1.01,1.02-.33,1.03-.55.27-.02-.07-.02-.53,0-.55Z" fill="#c79813"/>
        <path d="M25.19,41.41c-.05.13.09.47-.41.27-.04-.02-.09-.25-.14-.27.19-1.13,1.15-1.43.55,0Z" fill="#c49514"/>
        <path d="M34.29,41.68c.09.72-.33.78-.55.27-.45-1.02.41-1.37.55-.27Z" fill="#c4941d"/>
        <path d="M13.74,21.68l.97.07-.97.48s-.38.11-.28-.33c.03-.1.24-.15.28-.22Z" fill="#c69618"/>
        <path d="M27.12,41.68c-.15.34-.61.6-.69.21,0-.04.12-.14.13-.21.19-1.29.93-.88.55,0Z" fill="#c79314"/>
        <path d="M16.22,15.11c.19.04.89.51.69.68-.3,0-.69,0-.97-.14-.51-.24-.41-.68.28-.55Z" fill="#c89116"/>
        <path d="M21.46,40.04c-.78.05-.26,0-.55-.27.31-.16.31-.85.76-.68.49.19-.14.69-.21.96Z" fill="#ca9912"/>
        <path d="M35.26,7.16c.04.09-.04.34,0,.41-.26.22-.42.71-.83.68-.06-.07.07-.68.14-.82.17-.37.34-.27.69-.27Z" fill="#c29516"/>
        <path d="M14.01,24.56c.23.06.9-.13.49.42-.17.23-.76.11-1.04.13v-.55c.18-.02.37.02.55,0Z" fill="#c7941a"/>
        <path d="M28.64,41.96c-.06-.85.67-1.12.55,0-.01.13.07.39-.07.41-.52.06-.43-.38-.48-.41Z" fill="#c69519"/>
        <path d="M41.33,10.86c.51-.34.76-.09.41.41-.61.89-1.31.2-.41-.41Z" fill="#c59514"/>
        <path d="M19.81,38.81c-.17.08-.61.1-.69,0-.05-.07.06-.34.14-.41.21-.19.99-.47.97.07,0,.03-.36.32-.41.34Z" fill="#c79713"/>
        <path d="M32.91,7.16c.02-.11.19-.27.35-.29.48-.04.32.27.34.29-.16.85-.91,1.06-.69,0Z" fill="#c59719"/>
        <path d="M27.67,7.16s-.12-.24.2-.28c.5-.07.29.12.35.28.42,1.12-.43.83-.55,0Z" fill="#c59615"/>
        <path d="M31.81,6.89l-.35.96-.21-.96c.18,0,.31-.01.55,0Z" fill="#c89614"/>
        <path d="M35.67,7.98c.08-.33.08-.68.48-.55.11.04.05.26.07.28.13.45-.54,1.18-.69.61-.03-.1.12-.25.14-.34Z" fill="#c5971a"/>
        <path d="M30.29,6.89c-.03.6.24.95-.55.82v-.82c.25-.01.4,0,.55,0Z" fill="#c59712"/>
        <path d="M17.05,35.93c.36-.18.85-.31.69.21,0,.03-.39.33-.42.34-.13.04-.39-.03-.55,0-.05-.3.01-.42.28-.55Z" fill="#c1960d"/>
        <path d="M26.98,33.33c.23-.14.14-.52.14-.75.02-1.06.04-2.45-.69-3.29,0-.23,1.81-.31,2.18-.43.66-.21,1.21-.86,1.66-1.37.12-.48,1.73-2.46,1.68-2.71-.03-.16-.18-.23-.35-.07-1.12,1.01-1.53,3.23-3.13,3.75-.98.32-2.98.36-3.94-.02-.13-.05-.97-.56-1.02-.63-.28-.38-.03-.62-.02-.97,0-.21-.17-.43-.1-.66.05-.17.92-.56.68-.78-.21-.18-1.03.79-.96-.27.35.15,1.26-.16,1.44-.12.2.05.16.57.63.39,0-.38-.26-1.22-.64-1.35-.58-.2-.16.28-.2.45-.08.36-1.05.18-1.37.21.04-.36.31-.45.29-.89-.02-.47-.41-.49-.43-.89,1.54.58,1.79-1.2.35-1.51-.69.55.72.54.62,1.03-.08.37-.76.06-1.03.06-.56.02-1.5.47-1.43-.58.6-1.24,2.15-2.24,2.19-3.66.7.29,1.46.04,2.21.2s1.43.99,2.2,1.17c.22-.24-.58-.85-.76-.96-.16-.1-1.43-.69-1.52-.69h-2c-.04-.34.86-2.64.98-2.72.52-.33,1.02.24,1.31.37.27.12,1.37.38.87.77-.61.47-1.79-.36-1.31.62.36.73,2.3.62,2.4.7.05.04.27.99.37,1.2.38.75,2.06,2.21-.22,1.8-.12.13.54,1.12.69,1.31.46.58,1.32,1.31,1.86,1.85.16.16.16.5.28.54.47.15.29-.27.48-.48.36-.42.76-.68.93-1.27.39-1.36-.55-2.99.73-3.87.56-.28,1.3,1.11,1,1.64.43.46.64,1.05.6,1.79l.06,2.07c.19.3.19.52,0,.66.01.15-.15.39-.13.61.08.94,2.26,1.79,2.62,2.61.07.17-.03.26-.2.2-.13-.04-1.62-.82-1.72-.9-.42-.35-.88-1.58-1.19-1.7-.33-.14-.2.41-.14.55.6,1.65,1.68,1.49,2.63,2.18.23.17.34.54.48.63.18.11.39-.06.55,0,.4.14,1.74,1.43,1.86,1.83.5,1.58-.6,1.23-1.73,1.24-.9-.42-.25-1.52-1.17-1.92-.51-.22.19.67.21.76.15.74-.24,1.17-.97.82-.33-.16-.21-.51-.27-.62l-.57-.3c-.49-.24-.67-.24-.53.03.23.27.06.32-.18.44-.48.25-1.47.53-2.04.72-1.72.58-3.47,1.04-5.24,1.44-.24.04-.21-.19,0-.27Z" fill="#e8ca1b"/>
        <path d="M35.12,25.11c.07-.27.34-.41.81-.4-.3-.36-.21-.65.24-.76-.42-.39-.3-1.34.33-1.3.13-.07.81-1.03.78-1.09-.56-.22-.56-.72.02-1.52-.7,1.39-1.92.78-1.22-.54l-.12-.13c-.46.65-.84.22-1.01-.42l-.42-1.94c-1,.45-1.86-1.4-1.79-2.31-.45.05-1.08-.48-.94-.95-.37-.38-.65-.88-1.24-1.03-.64-.17-1.1.05-1.6.01-.14-.01-.24-.21-.27-.21h-2s-.13-.33-.13-.34c0-.26,1.82-.63,2.18-.71,6.37-1.44,11.19.39,11.61,7.42.13,2.19-1.22,6.5-3.49,7.36-.87.33-2.18-.03-1.76-1.13Z" fill="#e9ca1c"/>
        <path d="M31.81,13.74c.27.27.57.53.83.82,0-.33-.07-.68-.17-.99-.08-.25-.7-.94-.17-.92,1.05.79.55,2.02.87,2.98.06.19.93,1.5,1.14,1.27.29-1.24-.39-2.08-.68-3.09-.07-.22.01-.21.2-.2.43.03.81,1.46.86,1.88.15,1.2.04,1.39.41,2.61.15.48.05,1.07.52,1.4.99-.55.18-4.61.35-4.79.16-.03.25,0,.34.14.17.27.38,2.51.35,2.95-.04.67-.26,1.13-.56,1.71-.34.49-.26,1,.22,1.52l.13.88c.68.15.6.43.07.75-.23.39-.37.55-.28,1.1,1.77-.56,2.62-2.08,3.24-3.7.32-.05.19.1.17.31-.17,1.71-2.02,3.57-3.69,3.94.25.57.82-.11,1.3,0,.13.03.28.2.08.34-.18.13-1.93.49-2.21.48-.03,0-.26-.21-.41-.14,0-.13-.25-.37-.27-.62-.04-.52.06-3.49-.49-3.62-.78-.18-.87,1.99-.96,2.34-.07.24-.04.32-.34.27-.04-.84-.05-1.76.49-2.46.21-.27.61-.43.69-.56.25-.4-.47-1.23-.77-1.51-.13-.12-.4-.25-.41-.27-.73-.28-1.14-.69-1.24-1.23-.03-.03.08-.38-.28-.27-.16-.1-.23-.3-.2-.61-.31-.1-.43-.26-.35-.49-.07-.11.17-.52-.28-.41-.11-.29-.04-.64.21-1.05,0-.45.12-.79.34-1.01.08.08.1.24.24.27.22.05.49-.02.72,0Z" fill="#d38d1b"/>
        <path d="M30.29,15.52c-.08.12-.51.89-.69.68.1-.08.13-1.49-.27-1.09-.23.22.02,1.31-.84,1.84-.7.44-1.3.29-2.06.21.12-.34.65-.35.84-.6.35-.46-.17-.92-.25-1.41-.06-.37.05-1.03-.1-1.27-.25-.38-.46,0-.46.34,0,.13.35,1.34-.09,1.17-.6-.24-.5-1.11-.49-1.64-.66-.09-.32,1-.41,1.1-.42.03-.8-.16-1.2-.23-.29-.05-.59.27-.73-.53s.12-1.61.96-1.84c.08.08-.74,1.74.28,1.78-.12-.81-.02-2.07,1.11-1.72s-.12,1.04.13,1.31c.46-.04.59-.55,1.06-.66.44-.1.97,0,1.42-.03-.24.51-.7,1.28-.21,1.78.36-.28.11-.72.28-1.09.26-.59,1.6-.74,2.08-.42.1.07.13.23.19.28.11.83-.12,1.38-.55,2.05Z" fill="#e9c620"/>
        <path d="M31.12,17.03c-.16.43-.43.64-.52,1.2-.12.79.12,3.6-1.21,3.61-.18,0-.4-.04-.48-.22-.18-.41.45-.25.61-.76.4-1.3-1.47-2.28-1.15-3.33.04-.13,1.99-1.13,2.19-1.6.11.19.95.04.55,1.1Z" fill="#e9c81d"/>
        <path d="M31.4,17.3c.15.14.49.43.7.61.19.16.66.33.68.36.04.06-.16.22-.14.27-1.4.89.03,4.22-1.38,4.86-.52.24-1.51-.8-1.48-1.1.01-.13.46-.44.58-.62.95-1.46.38-2.85,1.04-4.38Z" fill="#eac722"/>
        <path d="M26.98,33.33c0,.09-.02.21,0,.27.02.07.37.17.28.41l-.07.33c-.76.56-2.5,1.66-3.34,2-.49.2-1.46.57-1.55-.14,0-.15-.03-.43,0-.55.87-.1,1.81-.26,2.42-1.01.27-.78,1.06-2.37,1.71-1.19-.07-.53.03-.85.29-.96l.28-.27c0,.36-.03.75,0,1.1Z" fill="#e0742f"/>
        <path d="M35.4,32.37c-.14.23.09.23.69,0,.41,0,1.25-.16,1.1.27-.12.24.11.24.69,0,.49-.03,1.35-.07,1.79.07.1.03,1.52,1.05,1.6,1.15.5.58-.59,1.16-1.06,1.44-3.18,1.83-13.22,3.17-16.77,2.29-.1-.02-.46.04-.32-.22.13-.24,1.39-.56,1.73-.75.1-.06.53-.25.34-.42-.15-.13-2.07.83-2.56.82-.44,0-.32-.53-.33-.82.23.16.45.15.72.11,1.33-.2,2.98-1.77,4.25-2.3,1.15-.47,2.81-.73,4.06-1.11.61-.18,3.46-1.38,3.81-1.16.16.1.24.44.28.63Z" fill="#d84227"/>
        <path d="M22.29,35.66c.08-.31,1.81-1.49,2.21-1.85.7-.62,1.3-1.36,2-1.99.33-.13.2.53.21.68.03.89.11,1.58-.97,1.78-.06-.06.89-1.28.08-.94-.52.22-.7,1.31-1.01,1.63-.39.39-2.02,1.29-2.52.68Z" fill="#d0491e"/>
        <path d="M34.43,31c-.74-.23-1.15-.34-1.73-.95-.78-.81-1.27-2.79-.79-3.81.19-.4.94-.57,1.15-.91.23-.38.23-1.26.27-1.72h.41c.02.56,0,1.23-.25,1.74-.27.55-1.13.86-1.24,1.23-.09.29.05,2.1.14,2.41.04.15,1.04,1.13,1.22,1.25.7.47,1.46.26,1.92,1.04-.38,0-.75-.16-1.1-.27Z" fill="#c79c0e"/>
        <path d="M37.88,32.64c-2.25,1.67-4.88,2.75-7.38,3.98l-.21-.21c.14-.32,3.88-2,4.54-2.35.54-.29,1.9-1.33,2.36-1.42.18-.04.48.01.69,0Z" fill="#e26f37"/>
        <path d="M35.4,32.37c.2-.03.47,0,.69,0-1.01.78-2.31,1-3.48,1.38-.11.03-.11.22-.22.25-.42.13-1.49.4-1.89.43-.16,0-.3-.01-.21-.21.15-.31,1.6-.56,2.04-.72.82-.29,2.32-1.03,3.07-1.13Z" fill="#e46f36"/>
        <path d="M27.12,20.59c-1.14-.32-2.04.56-3.17.41-.1-.36.36-.31.42-.51.3-1.13-.57-.4-.69-1.14l1.66.27c-.1-.46-.96-.49-1.1-.75-.16-.3.44-.22.59-.17.12.04,1.87,1.32,2.08,1.5.14.12.29.13.23.39Z" fill="#cb9418"/>
        <path d="M33.05,27.03c.07.05.2.99.92,1.35.64.32,1.89-.06,2.12.7-1.5-.07-3.37-.17-3.45-2.05.11.02.37-.03.41,0Z" fill="#c79a0f"/>
        <path d="M36.09,19.49c-.56,2,1.29.9,1.1-.41.64,0,.44.94.29,1.31-.1.24-.41.49-.42.54-.08.36.53.32.55.34.19.2-.69,1.41-1.1,1.37.06-.1.31-.37.28-.41-.88,0-.57-.54-.7-1.02-.14-.52-.45-.81-.24-1.5.05-.17.24-.2.25-.23Z" fill="#ddac16"/>
        <path d="M35.32,19.99s.19.03.22.15c.23.96.46,2.84.28,3.8-.04.21-.48.72-.64.75-.76.13-.38-2.65-.47-3.2-.09-.58-.94-2.75-1.36-3.17-1.04-1.02-.87-.59-1.75-1.97-.13-.2-.73-.74-.74-.79-.11-.45.46-.96.41-1.55.51-.36,1.86,2.35,2.15,2.73,1.07,1.43,1.24,1.43,1.91,3.25Z" fill="#d76221"/>
        <path d="M37.88,34.29c.17.15-.21.37-.32.44-1.15.74-3.43,1.22-4.79,1.34-.05-.3.12-.34.35-.4.5-.14,1.16-.18,1.72-.35.41-.12,2.91-1.14,3.03-1.03Z" fill="#e57137"/>
        <path d="M40.64,33.74c.26.24-1.47,1.12-1.63,1.19-.14.06-1.56.73-1.54.24,0-.17,2.76-1.3,3.17-1.44Z" fill="#e57038"/>
        <path d="M28.5,36.21c.06.31-.15.31-.35.4-.44.21-1.1.45-1.58.42-.38-.32,1.68-.99,1.93-.82Z" fill="#e56e38"/>
      </g>
      <g id="Coin-2" data-name="Coin">
        <path d="M29.74,53.91c.22.12.4.12.55,0,.27-.28.69-.28.97,0h.55c.19-.32,1.49-.22,1.1.27.13.33.36.33.69,0,.19-.38,1.31-.17.97.27.12.17.35.22.69.14.35-.18.49-.05.41.41.06.21.24.12.55-.27.04-.12.09-.12.14,0,.55.12.83.3.83.55.11.03.18.1.23.2.22.45-.26.05.15-.29.15-.12.28-.11.45-.06.44.2.68.32,1.1.55.01.23.2.32.55.27.39.22.54.36.83.55l-.02.3c-.68.36-.63.44.16.25.32-.29,1.35.56.69.82-.14.58-.12.71.07.41h.35c.27-.72,1.48.35.97.69.09.18.01.39-.23.63.23-.18.45-.21.65-.08.31-.47,1.4.46.97.82-.09.21-.24.41-.46.6.41-.27.75-.33,1.01-.19.26.11.98.82.55.96-.03.27-.24.48-.64.62.37-.2.68-.22.91-.07.28-.33.87.93.55.96,0,.25-.21.37-.64.36.58-.15.98-.08,1.2.19.23.12.34.49,0,.55,0,.25-.18.42-.52.51.4-.11.66-.05.79.17.44-.11.86.55.55.82-.08.16.06.29.41.41.08.24.09.4.14.55.21.34-.05.41-.36.5.26-.14.47-.12.64.05.26.89.39,1.58.55,2.47-.16.2-.46.28-.88.26.32-.04.52.06.6.29.28.11.33.61,0,.68-.03.24-.25.38-.66.42.46-.15.78-.11.94.12.2.34.24.93,0,1.23-.25.2-.6.25-1.06.14.49.02.84.15,1.06.41.31.31.16,1.46-.28,1.37l-.21.22c-1.09-.38-1.33-.15-.08.03l.16.29c.24.31.18,1.49-.28,1.37-.27.04-.32.18-.14.41.38.25-.07,1.39-.55,1.1-.22.12-.53.08-.95-.13.51.15.83.38.95.68.05.36-.25,1.2-.69.96-.07.23-.31.25-.72.07.22.12.32.28.3.48.15.04.25.12.22.25-.23.88-.55,1.27-1.35.66.28.16.38.36.3.6-.06.24-.24.32-.15.18.26-.39.03,1.12-.4.5-.2.1-.43-.02-.68-.35.2.23.25.44.13.62.59.32-.19,1.18-.69,1.1-.23.09-.45-.07-.66-.48.22.27.3.52.25.75.56.4-.97,1.66-1.38,1.1-.4-.17-.58-.08-.55.27.29.36.29.54,0,.55-.05.4-1.02,1.1-1.24.55-.2.06-.42-.02-.68-.22.22.23.31.44.27.63.04.32-.84.73-1.1.55-.25.05-.44.18-.55.41-.2.41-1.6.79-1.79.27-.58-.34-.7-.34-.38.02l-.17.25c.33.52-1.22.79-1.38.27-.19,0-.32-.11-.4-.34.07.3.02.5-.15.62-.26.64-1.6.48-2.07.27-.2-.14-.35-.4-.45-.78.05.38-.03.64-.24.78-.43.2-1.75.37-1.79-.27-.19-.27-.37-.27-.55,0-.22.42-1.9.26-1.52-.27-.15-.42-.23-.46-.26-.1l-.3.1c-.22.37-1.34.1-1.38-.27-.03-.39-.22-.39-.55,0-.35.06-.94-.08-1.24-.27l-.22-.31c.18-.27.03-.35-.47-.24-.32.35-1.06-.23-1.24-.55-.17-.16-.29-.25-.55-.27-.25.22-1.26-.62-1.1-.96,0-.36-.09-.45-.27-.27l-.28-.14c-.21.34-1.17-.55-.83-.82-.15-.17-.1-.37.15-.61-.27.2-.5.22-.7.06-.22.38-.9-.36-.55-.55.04-.29-.05-.47-.28-.55l-.25.14c-.38-.2-1.3-1.72-.85-2.06-.12-.18-.05-.36.2-.52l-.6.19c-.29-.05-.94-1.09-.34-1.29-.92-.13-.83-1.22.09-1.4-1.08.09-1.15-.1-1.2-1.16,1.12-.31,1.23-.38.33-.21-.17,0-.41,0-.53-.13-.64-.7-.02-.86.53-1,.34-.08-.29-.15-.5-.09-.44.13-.46-1.52-.36-1.68.06-.09.17-.12.27-.13-.77.22-.64-1.15-.36-1.5.06-.26.29-.34.7-.27l-.14-.28c-.72.02-.92-.26-.54-.82.26.11.57.15.81,0,0-.28-.18-.5-.55-.68-.39-.01-.3-.71,0-.82.05-.19.05-.38,0-.55-.21-.46.05-1.38.55-1.37.21-.23.19-.3,0-.55-.44.02-.2-.79-.03-1,.1.03.2,0,.3-.09.03-.17-.01-.39-.14-.68.14-.37.29-.64.41-.96.05-.35.41-.35,1.07-.03-.34-.1-.51-.28-.52-.52-.38.12.12-.93.17-.94l.38.12c.37-.09.46-.28.28-.55-.36-.48.28-1.38.83-.82.13-.18.35-.2.67-.07-.37-.15-.54-.35-.53-.61-.28-.32.42-1.14.69-.68.21-.28.55-.29,1.03-.03-.19-.05-.23-.18-.2-.38l-.17-.14c-.65-.38.02-1.11.59-.82l.35-.11c.26.29.38.18.34-.3-.8-.29.38-1.31.69-.68.18-.14.42-.07.71.2-.34-.31-.39-.56-.15-.74-.28-.41.58-.64.97-.55.62.25.77.25.45.02l.1-.29c-.4-.56.96-.85,1.38-.82.22.06.42.23.62.52-.13-.21-.1-.39.07-.52-.5-.55.64-.99.97-.55l.29-.1c.38.45.52.43.4-.04.06-.5,1.13-.81,1.38-.41.26.19.45.19.55,0-.04-.53,1.23-.57,1.52-.27Z" fill="#e9ca1a"/>
        <path d="M13.46,72.13c0,.2-.04,1.19,0,1.23.05.05.9-.04,1.11,0,.26.94-.66.38-.83.55-.04.04-.04,1.19,0,1.23.05.05.84-.04,1.03,0,.2.02.03.51-.21.62-.27.13-.76-.08-.69.27.16.82,1.4-.11,1.51.42.04.18-.22.4-.37.45-.69.2-.82-.36-.73.85.27.03,1.31-.13,1.38.21-.26.7-1.08.12-.83,1.16,1.77-.07.41.46.29.77-.07.17.25.56.29.58.11.04.97-.52,1.08-.04.04.17-.47.59-.55.61-.17.53-.6.26-.83-.14-.64-1.29-1.1-2.66-1.38-4.11-.07-.7-.34-.86-.39-1.19-.04-.26.14-.6.08-1.03-.04-.36-.31-.69-.34-.88-.05-.33.09-1.47.09-1.96.07-.31.17-.36.28-.14.4,0,.39.46,0,.55Z" fill="#cea531"/>
        <path d="M35.26,54.19c-.07.26-.3.35-.69.27-.13-.49-.8-.17-.97-.27-.19-.02-.42-.02-.69,0-.19-.44-.68-.25-1.1-.27-.19.35-.41.39-.55,0-.32,0-.65,0-.97,0-.04.39-.45.37-.55,0-.53.02-1.1-.14-1.52.27-.16-.08-.34-.08-.55,0-.08.05-.52-.04-.73,0-.04,0-.36.46-.65.41l-.69.14c-.3.19-.85-.41-.97.55-.25-.08-.48-.08-.69,0,0,.02-.35.27-.37.27-.4.09-.89-.12-1.01.55-.21.15-.39.06-.55-.27,3.64-1.99,6.63-2.52,10.83-2.19.36.03,2.34.36,2.42.55Z" fill="#dcc157"/>
        <path d="M46.02,81.58c-1.3,1.87-2.34,3.02-4.14,4.38-.3.18-.49.18-.55,0v-.55c.32.03.51-.06.55-.27l1.06-.32.32-.78c.04-.13.33-.32.42-.18.1.17-.28.25,0-.1.28-.39.85-.52.69-1.1.22-.05.4-.14.55-.27.45.1.24-.31.28-.68.09,0,.19-.01.28,0,.15-.25.3-.28.55-.14Z" fill="#d8b949"/>
        <path d="M38.02,87.89c.14-.33.28-.33.41,0,.04-.08.09-.08.14,0-1.78.79-3.7,1.5-5.59,1.64-.47.04-.97,0-1.45,0-.33-.19-.23-.32.14-.27.47-.05,1.01.06,1.46.01.25-.03.2-.43.61-.28.21.01.39-.08.55-.27.48-.07,1.15.23,1.38-.27.27,0,.41-.04.55-.27h1.52s-.14-.27-.14-.27c.14,0,.28,0,.41,0Z" fill="#dec157"/>
        <path d="M26.57,88.71c.14.04.32.04.55,0,.17.56,1.27.12,1.52.27.22.11.41.11.55,0,.29.55,1.23.16,1.79.27.24-.34.51-.05.55.27-2.71.06-4.14-.12-6.76-.82.06-.19.23-.25.41-.27.47.22.84.35,1.38.27Z" fill="#d8bd51"/>
        <path d="M48.78,69.8c.65,3.56.25,6.47-1.4,9.75-.12.24-.51.62-.53.66-.36-.02-.37-.33-.14-.55.43-.28.32-.43.46-.78.03-.09.22-.14.23-.18-.36-.14-.38-.43,0-.55.63-.4.42-.61.55-1.1-.31-.25-.27-.43.14-.41,0-.02.11-.08.13-.21.07-.36-.11-.81.14-1.16.14-.13.19-.31.14-.55v-.18c.46-.17.26-.74.28-1.19-.36-.2-.38-.38,0-.55,0-.41-.02-.82,0-1.23-.14-.15-.23-.33-.28-.55.03-.2-.05-.51,0-.68-.36-.21-.05-.51.28-.55Z" fill="#d9bf4f"/>
        <path d="M13.74,66.79c.27.15.45.34.55.55v.18c-.4.24-.25.64-.55,1.19-.04.22-.04.4,0,.55.06.09-.04.64,0,.82-.22.35-.13.5.28.46l.27.23c-.09.27-.76.07-.83.14-.09.56.04.56.55.68-.1.4-.37.35-.55,0-.08,0-.19.11-.28.14.02-1.73.13-3.24.55-4.93Z" fill="#dfc045"/>
        <path d="M40.78,56.65c1.21.81,1.54,1.23,2.48,2.19.58.59.79.73,1.38,1.51v.14c-.38.63-.7-.36-.29-.04.09.07-.14.04-.26-.1.07-.63-.52-.64-.97-.82-.3-.21-.16-.56.14-.68-.08.42-.33.53-.55.14.06-.53-.46-.8-.97-.68-.08-.19-.22-.33-.41-.41.1-.43-.38-.63-.69-.82-.31-.2-.22-.39.14-.41Z" fill="#dcbc46"/>
        <path d="M46.85,80.21c-.31.52-.45.83-.83,1.37-.31.35-.38.16-.55.14-1.44-1.03-.55-1.27.55-.41.25-.4.37-.57.28-1.09.13-.37.42-.38.55,0Z" fill="#cba536"/>
        <path d="M46.57,63.36c-.27.12-.41.17-.55-.14v-.18c-.36-.13-.22-.33-.32-.6-.03-.07-.22-.14-.23-.18-.2-.1-.29-.28-.28-.55-.02-.03.05-.24-.05-.36-.21-.26-.41-.18-.5-.6-.26-.08-.26-.19,0-.27v-.14c.85,1.12,1.28,1.8,1.93,3.01Z" fill="#dac159"/>
        <path d="M16.63,60.76c.3-.04.54.26.41.55-.66-.16-.61.33-.83.82-.2.15-.29.33-.28.55-.51-.11-.04.48-.55.64v.18c-.13.34-.38.26-.56,0,.31-.75,1.15-2.05,1.66-2.74h.14Z" fill="#dab945"/>
        <path d="M19.81,85.83l.89.9c.07.06.2.04.22.06.21-.14.39-.05.55.27.43-.03.53.84,1.24.55.28.25.23.27-.14.27-1.6-.75-2-.84-3.45-2.05.17-.3.52-.3.69,0Z" fill="#e0c862"/>
        <path d="M15.94,81.04l.6,1.6.51.32.28.55c-.03.21.3.56.55.55.16.21.34.39.55.55.04.28.55.78.83.82.3.2.18.36-.14.41-1.72-1.45-2.85-2.87-4-4.79v-.14c.22.12.6.2.83.14Z" fill="#d3b95c"/>
        <path d="M13.74,76.79c.24.14.23.38.28.61.18.82.39,1.5.55,2.31.01.07.85.67.55,1.19v.14c-.84-1.41-1.22-2.59-1.38-4.25Z" fill="#eee4b0"/>
        <path d="M15.39,63.5c.21.06,1.34.45.97.82-.21.21-1.18-.38-1.52-.27.05-.12-.05-.43,0-.55.24-.11.33-.06.55,0Z" fill="#c79920"/>
        <path d="M47.4,65.83c.05-.34.12-.28.28,0,.05.13.09.28.14.41l-1.66.55c-.14-.57.81-.9,1.24-.96Z" fill="#c59515"/>
        <path d="M22.01,55.83c.34.04.37.46,0,.55-.15.41-.46.2-.72.28-.14.04-.19.25-.25.27-.09.37-.49.23-.69,0,.63-.46.86-.66,1.66-1.1Z" fill="#e0c34a"/>
        <path d="M20.36,56.93c.39-.06.44.34.14.55h-.69s0,.68,0,.68c-.1.38-.79.23-.83-.14.51-.48.79-.66,1.38-1.1Z" fill="#dbbf55"/>
        <path d="M22.7,87.61c.91-1.1.91-.51.69.55-.16.09-.34.09-.55,0-.16-.08-.26-.27-.28-.27.05-.08.08-.2.14-.27Z" fill="#c9a52c"/>
        <path d="M18.98,58.02c.19.12.23.3.14.55-.12-.1-.67.25-.69.28-.18.28.48.28.27.68l-.11.15c-.38-.12-.62-.04-.71.26-.36.01-.51.41-.69.68-.04.39-.32.47-.55.14h-.14c.76-1.03,1.56-1.86,2.48-2.74Z" fill="#dab94c"/>
        <path d="M47.95,66.79c.02.05.16.15.28.55-.43.22-.89.32-1.38.27-.17-.69.74-.4,1.1-.82Z" fill="#c0951d"/>
        <path d="M39.68,55.97c-.33.11-.75,1.02-1.03.96-.56-.12.31-1.09.48-1.23.18.1.38.17.55.27Z" fill="#c89614"/>
        <path d="M37.19,54.73c-.12.35-.6.17-.83,0-.05,0-.12.02-.14,0l-.24-.11c.09.21-.07.4-.31.38-.08-.16-.35-.29-.41-.41-.4-.09-.36-.28,0-.41.89-.02,1.18.25,1.93.55Z" fill="#debb5d"/>
        <path d="M40.23,87.06c-.61.35-1.02.54-1.66.82h-.14c-.29-.24-.25-.4.14-.41.04-.05,1.04-.54,1.1-.55.19-.34.45-.16.55.14Z" fill="#dcc152"/>
        <path d="M14.42,65.01l1.1.62c.2.4-.84.1-.96.07-.4.45-.49.27-.28-.55.02-.05.12-.09.14-.14Z" fill="#c5931a"/>
        <path d="M40.78,56.65c-.03.13-.05.31-.14.41-.86,1.02-1.46-.1-.14-.55.08.05.19.08.28.14Z" fill="#c6951a"/>
        <path d="M37.74,55.01c.09.04.18.09.28.14-.38.08-.32.9-.42.96-.5.33-.54-.49-.41-.82-.4-.44.14-.45.55-.27Z" fill="#c79613"/>
        <path d="M41.88,85.97c-.55.41-1.07.76-1.66,1.1-.29-.06-.42-.34-.14-.55.56.26.92-.44,1.24-.55.13-.04.39.03.55,0Z" fill="#d7bf54"/>
        <path d="M14.29,65.15c.03.14-.05.47,0,.54.03.04.2-.02.27,0v.18c-.44.16-.26.52-.28.91-.1.35-.42.31-.55,0,.13-.55.36-1.11.55-1.64Z" fill="#dcc250"/>
        <path d="M23.39,88.16c.47,0,.88.08,1.24.27.35-.18.43.03.14.27-.72-.19-1.24-.22-1.93-.55.18,0,.37,0,.55,0Z" fill="#dec45f"/>
        <path d="M47.4,65.01c-.15.22-.3.11-.28-.14-.22-.14-.4-.33-.55-.55,0-.18.01-.37,0-.55-.39-.04-.35-.27,0-.41.36.67.53.88.83,1.64Z" fill="#ddc97a"/>
        <path d="M37.19,54.73c.3.12.39.2.55.27-.26-.06-.46.03-.55.27h-.18c-.16-.51-.75-.04-.65-.55.25.04.57-.03.83,0Z" fill="#dec150"/>
        <path d="M47.13,64.87c.06,0,.2.11.28.14.11.3.18.57.28.82-.09,0-.19-.01-.28,0v-.41s-.27.14-.27.14c.04-.27-.03-.44-.28-.55-.13-.37.02-.44.28-.14Z" fill="#dcc258"/>
        <path d="M26.43,78.3c.32-.46.03-1.57-.34-1.93-.53-.51-2.41-.4-2.96-1.45l-.58-3.42c-.01-.33.4-.58.28-.93-.15-.42-1.85-.52-1.92-1.25-.1-.98,1.79-2.57,2.1-3.53.13-.41.08-.78.2-1.17.16-.54.97-1.7.88-2.12-.03-.11-.29-.15-.4-.31-.72-1.05-.95-2.31.25-3.14.84-.58,1.08-.17,1.83-.23.84-.06,2.25-.65,3.17-.84,6.58-1.35,11.41.78,11.85,7.92.19,3.02-1.31,6.79-4.28,7.95,0,.27.54.48.75.76.29.38.37,1.04.71,1.35.27.25.58.23.82.42.17.13,1.13,1.51,1.16,1.72.07.41-.03.88,0,1.29-.1.23-2.11.15-2.2.07-.04-.03-.03-.11-.01-.2.17-.27.54-.35,1.12-.25,1.52-.18-1.09-2.92-1.94-2.6-.52-.68-1.23-1.17-2.12-1.46-.75-.39-1.97-2.47-.5-2.32,0-.33.04-.6.41-.63.09-.45.52-.3.41.14.14.16.24.39.3.7,2.95,1.33,4.8-4.61,4.67-6.71-.4-6.46-3.91-8.37-10.01-7.62-1,.12-2.68.39-3.38,1.03.18-.44,1.78-.43,2,0,.05-.05.1-.09.16-.1.41-.06,1.55-.06,1.95.1.38.14,1.28.83.99,1.24-.25.54-.93.38-.97-.27-.8-.3-1.48-.21-2.03.26-.02,2.07-1.6,1.04-.77-.53-.69-.04-1.71-.05-.85.65l.09,1.28c.5.8.47,1.41-.1,1.84,1.34.13,1.7-.75,1.86-1.93.48-.53.89-.1.89.5l.36-.02c.43-.54.85.23.28.41.05.04.1.08.14.13.19.31-1.77,1.41-2.1,1.59.16.66.48,1.28.96,1.87.4.7.46,1.62-.36,2.02.61,0,.93-.43.98-1.33l.2-2.28c.11-.52.35-.82.73-.9.23-.56.82.05.28.27.15.31.14.69-.03,1.14.06,1.58-.36,2.89-1.28,3.93,1.22,1.48,1.76.73,1.61-2.25.03-.55.25-1.93.95-1.59.22-.34.55-.1.41.27l.04.32c-.46.53-.6,1.21-.42,2.03.04,1.26-.31,2.24-1.07,2.95-.24.9-.93.78-1.19-.05-.73-.63-1.4-1.32-2.01-2.06-.69-1.03-1.02-1.59.57-1.51-.6-.78-1.01-1.61-1.25-2.5-.66.05-2.81-.35-2.58-1.25.07-.27.11-.44.43-.48,2.24.26.03-.55-.72-.79-.39.77-.68,1.58-.9,2.42l-.29.11c.18-.44,1.78-.43,2,0,.06-.09.16-.23.25-.21.44.11,1.78.78,2.03,1.17,1.05,1.61-1.2.58-1.78-.02-.24-.24-2.25-.36-2.35-.29-.42,1.02-1.03,1.94-1.82,2.77-.83,1.09-.22,1.02.78.83l.62.11c-1.28-.54-.42-1.72.57-.86.8.69.5,1.76-.57,1.86l.15.54c-.43.86.66.82.52.01,1.42-.74,1.97,2.87.38,1.38-.08.5-.33.71-.78,1.01l.12.54c-.53,1.03.97,1.46,1.78,1.56,3.15.36,3.92-.62,5.3-3.24.28-.48,1.07-1.22,1.34-.4.06.18-1.47,2.6-1.7,2.9-1.08,1.35-1.89,1.67-3.64,1.77.48.51.76,3.57.43,3.96-.06.07-.21.03-.32-.02-.25-.23-.17-.79,0-1.1-.12-.32-.31-.64-.55-.96Z" fill="#c89810"/>
        <path d="M37.74,79.26c.71.33,1.52-.02,2.21.14.09.02,1.29.88,1.47,1.02,1.86,1.38-2.53,3.01-3.51,3.33-3.31,1.08-10.77,1.93-14.16,1.39-1.32-.21-2.24-.91-2.01-2.38.12-.73,2.1-1.88,2.75-2.47.49-.44,1.59-1.49,1.93-1.99.76.07.54.36.55.96-.05.29-.14.39-.28.27-.16-.04-.3-.09-.26-.24-1.21,1.24-2.5,2.39-3.86,3.43l-.29-.04c.36.26.36.45,0,.55.21.05.31.24.31.55.84-.28,1.69-.55,2.55-.81,1.14.57-.91,1.28-1.44,1.4,4.71.47,12.82,0,16.85-2.57,1.39-.89-.69-1.65-1.57-1.88-.52.09-.89,0-1.12-.25-.37.21-.6.21-.69,0-.29-.08-.6-.08-.94,0l-.17-.27c-.33.18-.56.18-.69,0-.22.05-.36-.08-.4-.39-2.41.79-4.86,1.52-7.36,2.18l-.38-.15c-.29-.03-.42-.09-.28-.41.25-.19.51-.38.82-.47,2.2-.65,4.39-1.34,6.48-2-.04.13,0,.09.15-.12.29-.17.66-.08,1.1.27l.3.09c.03.6.9.51.68-.22-.88-.98.11-1.65.77-.49.14.54.3,1.07.46,1.58Z" fill="#d68321"/>
        <path d="M46.57,63.36c.03.07,0,.29,0,.41l-1.79.14c-.16-.62.76-.62,1.24-.68.14-.02.44-.13.55.14Z" fill="#c89716"/>
        <path d="M48.78,72.82c0,.18,0,.32,0,.55-2.19-.02-2.19-1.03,0-.55Z" fill="#c99412"/>
        <path d="M48.51,74.73c.38.11.37.6.07.66-.07.01-.16-.11-.21-.11-.3-.02-1.45-.11-1.24-.62.08-.19.26-.22.45-.18.14.02.72.19.93.25Z" fill="#c69514"/>
        <path d="M18.7,59.53c.3.12,1.14.46.46.67-.33.1-.78-.28-1.29-.26-.33-.89.2-.65.83-.41Z" fill="#c99518"/>
        <path d="M48.09,76.65s-.1.26-.14.41c-2.25-.44-2-1.54.14-.41Z" fill="#c9960d"/>
        <path d="M21.05,56.93c.02.25.77.89.55,1.1s-.98-.37-1.1-.55c-.04-.06-.16-.52-.14-.55.21-.18.66,0,.69,0Z" fill="#c99a19"/>
        <path d="M47.13,64.87c-.16.02-.25.13-.28.14-.27.04-1.16.27-1.24-.07-.05-.24.82-.6.97-.61.43-.05.6.12.55.55Z" fill="#c89619"/>
        <path d="M45.2,61.72s.27.02.35.13c.09.13-.09.32-.08.42-1.65.87-1.98.09-.28-.55Z" fill="#c79515"/>
        <path d="M17.18,60.62c.08.02,1.04.5.97.75-.08.37-.9.05-1.1-.07s-.42-.31-.41-.55c.16-.01.42-.16.55-.14Z" fill="#c99612"/>
        <path d="M44.09,60.35c.09-.03.18-.14.21-.14.09,0,.05.23.16.27h.19c.01.09-.02.19,0,.27-.31.19-1.54.91-1.31.14.11-.37.43-.45.76-.55Z" fill="#c89e1f"/>
        <path d="M48.37,68.3c.27.67-1.44.83-1.52.48-.1-.45,1.24-.53,1.52-.48Z" fill="#cb9510"/>
        <path d="M19.81,58.16c.18.1.56.76.41.96-.37-.15-.77-.32-1.1-.55-.07-.05-.28-.17-.27-.2,0-.02.12-.34.14-.35.03-.03.77.11.83.14Z" fill="#c4961b"/>
        <path d="M38.57,87.48c-.04.05-.04.32-.14.41-.14,0-.28,0-.41,0,.08-.33-1.15-1.06-.48-1.23.5-.13.63.68,1.03.82Z" fill="#c79418"/>
        <path d="M48.78,71.58c-.46.03-1.02.36-1.38-.07-.07-.32.89-.47,1.1-.48.66-.03.28.47.28.55Z" fill="#c99616"/>
        <path d="M14.29,70.76c-.95.25-1.37-.57-.55-.68.4-.05.72,0,.96.34,0,.03-.39.34-.41.34Z" fill="#c99919"/>
        <path d="M26.29,54.6c.25.21.64.7.2.96l-.89-.82c.12-.07-.04-.76.69-.14Z" fill="#c99713"/>
        <path d="M47.4,78.16s.02.49,0,.55c-.28-.07-1.19-.37-1.24-.62,0-.28.23-.37.48-.35.04,0,.74.38.76.42Z" fill="#c8980c"/>
        <path d="M17.87,84.05c.12-.11.96-.55,1.1-.41.17.16-.48.93-.55.96-.48.19-.85-.29-.55-.55Z" fill="#bf8f10"/>
        <path d="M43.13,59.53c-.1.14-.85.54-.97.41-.14-.35.28-.83.55-.96.1-.05.39,0,.55-.14.01.24,0,.48-.14.68Z" fill="#c5980f"/>
        <path d="M44.92,82.41c.11.24.05.31,0,.55-.11.08-.46-.19-.55-.27-.25-.23-.64-.69-.2-.96.2-.04.67.5.76.68Z" fill="#c9960f"/>
        <path d="M31.67,89.26s-.13.27-.14.27c-.16.11-.43-.25-.55-.27-.3-1.77.8-1.18.69,0Z" fill="#c69517"/>
        <path d="M43.68,83.78c.04.07.17.24.14.27-.23.04-.32.13-.55,0-.32-.17-.83-.99-.34-1.1.25-.05.65.62.76.82Z" fill="#c89415"/>
        <path d="M24.64,55.28c.7,1.14-.5,1.05-.69,0,0-.02-.16-.24-.13-.26.46-.14.56-.17.82.26Z" fill="#c49518"/>
        <path d="M40.09,86.52c.08.12.21.48.14.55-.1.1-.49-.14-.55-.14-1.11-.63-.3-1.45.41-.41Z" fill="#c59414"/>
        <path d="M36.23,88.16c.25.61-.22.79-.55.27-.64-1,.11-1.36.55-.27Z" fill="#c79514"/>
        <path d="M41.88,85.15c.58.86-.14.82-.55.27-.54-.7-.1-1.24.55-.27Z" fill="#c79411"/>
        <path d="M48.78,69.8c.06.21-.24.41-.28.55-1.94.09-.97-.85.28-.55Z" fill="#ca9418"/>
        <path d="M46.71,79.67c.13.11.15.38.14.55-.17-.02-.4.03-.55,0-.57-.12-1.03-.9-.27-.76.08.02.66.19.68.22Z" fill="#c69714"/>
        <path d="M14.29,66.79c.97.04,1.3.71,0,.55-.29-.03-.84-.24-.55-.55.02-.02.45,0,.55,0Z" fill="#c29519"/>
        <path d="M22.01,55.83c.22-.22.44.17.55.27,1.01,1.02-.33,1.03-.55.27-.02-.07-.02-.53,0-.55Z" fill="#c79813"/>
        <path d="M25.19,88.43c-.05.13.09.47-.41.27-.04-.02-.09-.25-.14-.27.19-1.13,1.15-1.43.55,0Z" fill="#c49514"/>
        <path d="M34.29,88.71c.09.72-.33.78-.55.27-.45-1.02.41-1.37.55-.27Z" fill="#c4941d"/>
        <path d="M13.74,68.71l.97.07-.97.48s-.38.11-.28-.33c.03-.1.24-.15.28-.22Z" fill="#c69618"/>
        <path d="M27.12,88.71c-.15.34-.61.6-.69.21,0-.04.12-.14.13-.21.19-1.29.93-.88.55,0Z" fill="#c79314"/>
        <path d="M16.22,62.13c.19.04.89.51.69.68-.3,0-.69,0-.97-.14-.51-.24-.41-.68.28-.55Z" fill="#c89116"/>
        <path d="M21.46,87.06c-.78.05-.26,0-.55-.27.31-.16.31-.85.76-.68.49.19-.14.69-.21.96Z" fill="#ca9912"/>
        <path d="M35.26,54.19c.04.09-.04.34,0,.41-.26.22-.42.71-.83.68-.06-.07.07-.68.14-.82.17-.37.34-.27.69-.27Z" fill="#c29516"/>
        <path d="M14.01,71.58c.23.06.9-.13.49.42-.17.23-.76.11-1.04.13v-.55c.18-.02.37.02.55,0Z" fill="#c7941a"/>
        <path d="M28.64,88.98c-.06-.85.67-1.12.55,0-.01.13.07.39-.07.41-.52.06-.43-.38-.48-.41Z" fill="#c69519"/>
        <path d="M41.33,57.88c.51-.34.76-.09.41.41-.61.89-1.31.2-.41-.41Z" fill="#c59514"/>
        <path d="M19.81,85.83c-.17.08-.61.1-.69,0-.05-.07.06-.34.14-.41.21-.19.99-.47.97.07,0,.03-.36.32-.41.34Z" fill="#c79713"/>
        <path d="M32.91,54.19c.02-.11.19-.27.35-.29.48-.04.32.27.34.29-.16.85-.91,1.06-.69,0Z" fill="#c59719"/>
        <path d="M27.67,54.19s-.12-.24.2-.28c.5-.07.29.12.35.28.42,1.12-.43.83-.55,0Z" fill="#c59615"/>
        <path d="M31.81,53.91l-.35.96-.21-.96c.18,0,.31-.01.55,0Z" fill="#c89614"/>
        <path d="M35.67,55.01c.08-.33.08-.68.48-.55.11.04.05.26.07.28.13.45-.54,1.18-.69.61-.03-.1.12-.25.14-.34Z" fill="#c5971a"/>
        <path d="M30.29,53.91c-.03.6.24.95-.55.82v-.82c.25-.01.4,0,.55,0Z" fill="#c59712"/>
        <path d="M17.05,82.95c.36-.18.85-.31.69.21,0,.03-.39.33-.42.34-.13.04-.39-.03-.55,0-.05-.3.01-.42.28-.55Z" fill="#c1960d"/>
        <path d="M26.98,80.35c.23-.14.14-.52.14-.75.02-1.06.04-2.45-.69-3.29,0-.23,1.81-.31,2.18-.43.66-.21,1.21-.86,1.66-1.37.12-.48,1.73-2.46,1.68-2.71-.03-.16-.18-.23-.35-.07-1.12,1.01-1.53,3.23-3.13,3.75-.98.32-2.98.36-3.94-.02-.13-.05-.97-.56-1.02-.63-.28-.38-.03-.62-.02-.97,0-.21-.17-.43-.1-.66.05-.17.92-.56.68-.78-.21-.18-1.03.79-.96-.27.35.15,1.26-.16,1.44-.12.2.05.16.57.63.39,0-.38-.26-1.22-.64-1.35-.58-.2-.16.28-.2.45-.08.36-1.05.18-1.37.21.04-.36.31-.45.29-.89-.02-.47-.41-.49-.43-.89,1.54.58,1.79-1.2.35-1.51-.69.55.72.54.62,1.03-.08.37-.76.06-1.03.06-.56.02-1.5.47-1.43-.58.6-1.24,2.15-2.24,2.19-3.66.7.29,1.46.04,2.21.2s1.43.99,2.2,1.17c.22-.24-.58-.85-.76-.96-.16-.1-1.43-.69-1.52-.69h-2c-.04-.34.86-2.64.98-2.72.52-.33,1.02.24,1.31.37.27.12,1.37.38.87.77-.61.47-1.79-.36-1.31.62.36.73,2.3.62,2.4.7.05.04.27.99.37,1.2.38.75,2.06,2.21-.22,1.8-.12.13.54,1.12.69,1.31.46.58,1.32,1.31,1.86,1.85.16.16.16.5.28.54.47.15.29-.27.48-.48.36-.42.76-.68.93-1.27.39-1.36-.55-2.99.73-3.87.56-.28,1.3,1.11,1,1.64.43.46.64,1.05.6,1.79l.06,2.07c.19.3.19.52,0,.66.01.15-.15.39-.13.61.08.94,2.26,1.79,2.62,2.61.07.17-.03.26-.2.2-.13-.04-1.62-.82-1.72-.9-.42-.35-.88-1.58-1.19-1.7-.33-.14-.2.41-.14.55.6,1.65,1.68,1.49,2.63,2.18.23.17.34.54.48.63.18.11.39-.06.55,0,.4.14,1.74,1.43,1.86,1.83.5,1.58-.6,1.23-1.73,1.24-.9-.42-.25-1.52-1.17-1.92-.51-.22.19.67.21.76.15.74-.24,1.17-.97.82-.33-.16-.21-.51-.27-.62l-.57-.3c-.49-.24-.67-.24-.53.03.23.27.06.32-.18.44-.48.25-1.47.53-2.04.72-1.72.58-3.47,1.04-5.24,1.44-.24.04-.21-.19,0-.27Z" fill="#e8ca1b"/>
        <path d="M35.12,72.13c.07-.27.34-.41.81-.4-.3-.36-.21-.65.24-.76-.42-.39-.3-1.34.33-1.3.13-.07.81-1.03.78-1.09-.56-.22-.56-.72.02-1.52-.7,1.39-1.92.78-1.22-.54l-.12-.13c-.46.65-.84.22-1.01-.42l-.42-1.94c-1,.45-1.86-1.4-1.79-2.31-.45.05-1.08-.48-.94-.95-.37-.38-.65-.88-1.24-1.03-.64-.17-1.1.05-1.6.01-.14-.01-.24-.21-.27-.21h-2s-.13-.33-.13-.34c0-.26,1.82-.63,2.18-.71,6.37-1.44,11.19.39,11.61,7.42.13,2.19-1.22,6.5-3.49,7.36-.87.33-2.18-.03-1.76-1.13Z" fill="#e9ca1c"/>
        <path d="M31.81,60.76c.27.27.57.53.83.82,0-.33-.07-.68-.17-.99-.08-.25-.7-.94-.17-.92,1.05.79.55,2.02.87,2.98.06.19.93,1.5,1.14,1.27.29-1.24-.39-2.08-.68-3.09-.07-.22.01-.21.2-.2.43.03.81,1.46.86,1.88.15,1.2.04,1.39.41,2.61.15.48.05,1.07.52,1.4.99-.55.18-4.61.35-4.79.16-.03.25,0,.34.14.17.27.38,2.51.35,2.95-.04.67-.26,1.13-.56,1.71-.34.49-.26,1,.22,1.52l.13.88c.68.15.6.43.07.75-.23.39-.37.55-.28,1.1,1.77-.56,2.62-2.08,3.24-3.7.32-.05.19.1.17.31-.17,1.71-2.02,3.57-3.69,3.94.25.57.82-.11,1.3,0,.13.03.28.2.08.34-.18.13-1.93.49-2.21.48-.03,0-.26-.21-.41-.14,0-.13-.25-.37-.27-.62-.04-.52.06-3.49-.49-3.62-.78-.18-.87,1.99-.96,2.34-.07.24-.04.32-.34.27-.04-.84-.05-1.76.49-2.46.21-.27.61-.43.69-.56.25-.4-.47-1.23-.77-1.51-.13-.12-.4-.25-.41-.27-.73-.28-1.14-.69-1.24-1.23-.03-.03.08-.38-.28-.27-.16-.1-.23-.3-.2-.61-.31-.1-.43-.26-.35-.49-.07-.11.17-.52-.28-.41-.11-.29-.04-.64.21-1.05,0-.45.12-.79.34-1.01.08.08.1.24.24.27.22.05.49-.02.72,0Z" fill="#d38d1b"/>
        <path d="M30.29,62.54c-.08.12-.51.89-.69.68.1-.08.13-1.49-.27-1.09-.23.22.02,1.31-.84,1.84-.7.44-1.3.29-2.06.21.12-.34.65-.35.84-.6.35-.46-.17-.92-.25-1.41-.06-.37.05-1.03-.1-1.27-.25-.38-.46,0-.46.34,0,.13.35,1.34-.09,1.17-.6-.24-.5-1.11-.49-1.64-.66-.09-.32,1-.41,1.1-.42.03-.8-.16-1.2-.23-.29-.05-.59.27-.73-.53s.12-1.61.96-1.84c.08.08-.74,1.74.28,1.78-.12-.81-.02-2.07,1.11-1.72s-.12,1.04.13,1.31c.46-.04.59-.55,1.06-.66.44-.1.97,0,1.42-.03-.24.51-.7,1.28-.21,1.78.36-.28.11-.72.28-1.09.26-.59,1.6-.74,2.08-.42.1.07.13.23.19.28.11.83-.12,1.38-.55,2.05Z" fill="#e9c620"/>
        <path d="M31.12,64.05c-.16.43-.43.64-.52,1.2-.12.79.12,3.6-1.21,3.61-.18,0-.4-.04-.48-.22-.18-.41.45-.25.61-.76.4-1.3-1.47-2.28-1.15-3.33.04-.13,1.99-1.13,2.19-1.6.11.19.95.04.55,1.1Z" fill="#e9c81d"/>
        <path d="M31.4,64.32c.15.14.49.43.7.61.19.16.66.33.68.36.04.06-.16.22-.14.27-1.4.89.03,4.22-1.38,4.86-.52.24-1.51-.8-1.48-1.1.01-.13.46-.44.58-.62.95-1.46.38-2.85,1.04-4.38Z" fill="#eac722"/>
        <path d="M26.98,80.35c0,.09-.02.21,0,.27.02.07.37.17.28.41l-.07.33c-.76.56-2.5,1.66-3.34,2-.49.2-1.46.57-1.55-.14,0-.15-.03-.43,0-.55.87-.1,1.81-.26,2.42-1.01.27-.78,1.06-2.37,1.71-1.19-.07-.53.03-.85.29-.96l.28-.27c0,.36-.03.75,0,1.1Z" fill="#e0742f"/>
        <path d="M35.4,79.39c-.14.23.09.23.69,0,.41,0,1.25-.16,1.1.27-.12.24.11.24.69,0,.49-.03,1.35-.07,1.79.07.1.03,1.52,1.05,1.6,1.15.5.58-.59,1.16-1.06,1.44-3.18,1.83-13.22,3.17-16.77,2.29-.1-.02-.46.04-.32-.22.13-.24,1.39-.56,1.73-.75.1-.06.53-.25.34-.42-.15-.13-2.07.83-2.56.82-.44,0-.32-.53-.33-.82.23.16.45.15.72.11,1.33-.2,2.98-1.77,4.25-2.3,1.15-.47,2.81-.73,4.06-1.11.61-.18,3.46-1.38,3.81-1.16.16.1.24.44.28.63Z" fill="#d84227"/>
        <path d="M22.29,82.68c.08-.31,1.81-1.49,2.21-1.85.7-.62,1.3-1.36,2-1.99.33-.13.2.53.21.68.03.89.11,1.58-.97,1.78-.06-.06.89-1.28.08-.94-.52.22-.7,1.31-1.01,1.63-.39.39-2.02,1.29-2.52.68Z" fill="#d0491e"/>
        <path d="M34.43,78.02c-.74-.23-1.15-.34-1.73-.95-.78-.81-1.27-2.79-.79-3.81.19-.4.94-.57,1.15-.91.23-.38.23-1.26.27-1.72h.41c.02.56,0,1.23-.25,1.74-.27.55-1.13.86-1.24,1.23-.09.29.05,2.1.14,2.41.04.15,1.04,1.13,1.22,1.25.7.47,1.46.26,1.92,1.04-.38,0-.75-.16-1.1-.27Z" fill="#c79c0e"/>
        <path d="M37.88,79.67c-2.25,1.67-4.88,2.75-7.38,3.98l-.21-.21c.14-.32,3.88-2,4.54-2.35.54-.29,1.9-1.33,2.36-1.42.18-.04.48.01.69,0Z" fill="#e26f37"/>
        <path d="M35.4,79.39c.2-.03.47,0,.69,0-1.01.78-2.31,1-3.48,1.38-.11.03-.11.22-.22.25-.42.13-1.49.4-1.89.43-.16,0-.3-.01-.21-.21.15-.31,1.6-.56,2.04-.72.82-.29,2.32-1.03,3.07-1.13Z" fill="#e46f36"/>
        <path d="M27.12,67.61c-1.14-.32-2.04.56-3.17.41-.1-.36.36-.31.42-.51.3-1.13-.57-.4-.69-1.14l1.66.27c-.1-.46-.96-.49-1.1-.75-.16-.3.44-.22.59-.17.12.04,1.87,1.32,2.08,1.5.14.12.29.13.23.39Z" fill="#cb9418"/>
        <path d="M33.05,74.05c.07.05.2.99.92,1.35.64.32,1.89-.06,2.12.7-1.5-.07-3.37-.17-3.45-2.05.11.02.37-.03.41,0Z" fill="#c79a0f"/>
        <path d="M36.09,66.52c-.56,2,1.29.9,1.1-.41.64,0,.44.94.29,1.31-.1.24-.41.49-.42.54-.08.36.53.32.55.34.19.2-.69,1.41-1.1,1.37.06-.1.31-.37.28-.41-.88,0-.57-.54-.7-1.02-.14-.52-.45-.81-.24-1.5.05-.17.24-.2.25-.23Z" fill="#ddac16"/>
        <path d="M35.32,67.01s.19.03.22.15c.23.96.46,2.84.28,3.8-.04.21-.48.72-.64.75-.76.13-.38-2.65-.47-3.2-.09-.58-.94-2.75-1.36-3.17-1.04-1.02-.87-.59-1.75-1.97-.13-.2-.73-.74-.74-.79-.11-.45.46-.96.41-1.55.51-.36,1.86,2.35,2.15,2.73,1.07,1.43,1.24,1.43,1.91,3.25Z" fill="#d76221"/>
        <path d="M37.88,81.31c.17.15-.21.37-.32.44-1.15.74-3.43,1.22-4.79,1.34-.05-.3.12-.34.35-.4.5-.14,1.16-.18,1.72-.35.41-.12,2.91-1.14,3.03-1.03Z" fill="#e57137"/>
        <path d="M40.64,80.76c.26.24-1.47,1.12-1.63,1.19-.14.06-1.56.73-1.54.24,0-.17,2.76-1.3,3.17-1.44Z" fill="#e57038"/>
        <path d="M28.5,83.23c.06.31-.15.31-.35.4-.44.21-1.1.45-1.58.42-.38-.32,1.68-.99,1.93-.82Z" fill="#e56e38"/>
      </g>
    </g>
  </g>
</svg>