<?xml version="1.0" encoding="UTF-8"?>
<svg id="Layer_2" data-name="Layer 2" xmlns="http://www.w3.org/2000/svg" viewBox="0 0 64 95.84">
  <g id="Cards">
    <g id="Clubs">
      <g id="AceOfClubs">
        <g id="_Numebrs" data-name="&amp;lt;Numebrs">
          <path d="M3.46,7.91h-1.51V2.22c-.55.52-1.2.9-1.95,1.14v-1.37c.39-.13.82-.37,1.28-.73.46-.36.78-.78.95-1.26h1.22v7.91Z" fill="#3b920f"/>
          <path d="M60.54,87.94h1.51v5.69c.55-.52,1.2-.9,1.95-1.14v1.37c-.39.13-.82.37-1.28.73-.46.36-.78.78-.95,1.26h-1.22v-7.91Z" fill="#3b920f"/>
        </g>
        <g>
          <path d="M37.87,44.81c3.16,2.04,2.04,5.02,1.51,8.06,1.16-.72,2.42-1.27,3.77-1.51.24-.31-1.04-1.41-1.26-1.76-.47-1.49-.98-4.18,1.18-2.33h.5c1.85-2.04,2.13-.33,1.93,1.69.12.12.26.2.43.22s1.3-1.32,1.5-1.59c.22-.14.44-.37.68-.45,1.62-.55-1.12,2.21-1.29,2.48-1.23,1.91.28,1.19,1.17,2.83.3.56.99,2.64-.07,2.6-.32-.01-1.73-.43-2-.66l-.77.55c-1.12-.02-1.66.08-1.64.33.14,1.17-.05,2.4-1.37,1.39-.52-.56-1.17-1.25-1.26-2.02-.46.22-1.21.52-1.21,1.08,0,.65,1.83,4.15,2.14,5.41.5,2,.57,4.02,1.08,6.1.63.14.82-.13.75-.72-.29-1.12-.02-1.51,1.01-.79l.37.45c-.28,1.74-.03,2.3.75,1.69.19.58.73.54,1.15.13-.22-.08-.22-.17,0-.25l.15-.42c.88-.22.91-.5.1-.84.49-1.4,1.74-2.52,3.27-2.52-.23,1.04-.95,1.5-1.33,2.57-.2.57-.85,4.05-.68,4.22.05.05.94-.02,1.19.2l2.84,1.69c-.35.93-2.55.6-2.91,1.12-.32.47.07,2.07-.77,2.52-.51.16-1.5-.62-1.86-.99-.66-.18-.74.24-.25,1.26,1.75,3.74,3.44,7.53,5.04,11.33-.14.48-.36.48-.5,0-.55-.26-1.25-1-1.01-1.51-1.14-1.59-2.05-3.37-2.72-5.34l-1.93-4.21.11-.53-.7-.33-2.4-5.49c-.84-3.08-1.53-6.19-2.08-9.35-.58-1.66-1.12-3.32-1.61-4.98-.22-.06-.21-.15,0-.25-.5-.98-.33-1.32.5-1.01-.34-.32.48-.97.45-.92-.2.29-.63.76-.95.67-.11.5-1-.15-1.13-.47.44-1.15.7-2.4.88-3.62.4-2.71.11-3.43-1.26-4.98-.6-.27-.12-1.37.5-.76Z" fill="#799444"/>
          <path d="M22,44.56c.38-.39,1.19-.61.76.25.1.54-.11,1.12-.65,1.76l.39.25c.47-.31.5.42.25.76-1.34,1.67.25,2.56.22,4.38,0,.55-.31,1.96-.86,2.17-.69.26-.73-2-1.26-2.26-.58,0-.44.63-1.03.98-.35.2-.69.33-1.1.28.19-.87,2.32-5.96,2.01-6.29-.5-.55-.96,1.32-1.07,1.45-.82.9-3.2.61-4.22.06-.14-.19,1.39-2.01,1.63-2.27.34-.37.83-.5,1.14-.89.17-.76-3.6-4.8.52-2.76,1.53.76,1.8,1.52,2.63,2.9.23-.08.57-.73.63-.75Z" fill="#7c9448"/>
          <path d="M33.08,72.27c.33,1.13.91,1.21,1.51.25.39-.36,1.11.65.76,1.01l.25.76c.35-.63,1.05-.03.76.5-.68-.22-2.85.5-3.17,1-.28.43,1.25,2.02.2,3.96s-1.4.19-1.71.09c-.39-.12-1.74.49-2.37.23-.06-1.04.41-1.96,1.01-2.77-.99.22-3.86-1.99-2.02-1.9.86.04,1.53.34,2.46-.05,1.11-.47-.29-.59-.61-.77-.87-.49-1.86-1.19-1.84-2.32.42-.08,2.42.1,2.52,0,.25-.25-.74-3.58,1.39-1.27.35.38.52.85.88,1.27Z" fill="#7e9448"/>
          <path d="M32.83,21.39c.42.1,1.29,1.14,1.21,1.59-.05.27-.48.56-.59.92-.3,1-1.22,4.3-1.12,5.15.14,1.15,1.91,3.61,2.38,4.94.62,1.78.69,3.72,1.14,5.54-.07.58-.34.65-.76.25l-.32-.08c-.49-2.84-1.36-5.59-2.6-8.23.22.82-1.06,2.48-1.58,1.84.22-1.48.04-2.8-.55-3.97-.19-1.11.16-5.06,1.86-3.98.22-2.51-.72-1.32-1.46.08l-.63-.02c-.55-.89.16-2.75.76-3.53l.38-.76c.57.08,1.2.16,1.88.26Z" fill="#7c9644"/>
          <path d="M15.95,3c.26.66-.45,1.23-1.01.76l-.39.99c-.9.83-1.7,1.87-1.88,3.1.56.41.67,1.08.34,2.01.77,1.73.52,2.8-.74,3.22.74,3.67,1.62,7.3,2.64,10.9l-.21.43c.73-.11,1.39,1.32.76,1.76.79.08,1.47,2.06,1.26,2.77.46.19.23.56-.25.5-.1.66-.28.62-.5,0-.21-.95-.92-2.23-1.26-3.27-.81.03-1.56-1.87-1.01-2.52-1.95-6.36-5.75-16.58,1.51-20.91.61-.2.86-.12.76.25Z" fill="#af2f29"/>
          <path d="M30.81,64.21l.59.21c.53,1.45.92,2.89,1.17,4.33l.89.41c3.58,4.78,6.97,9.69,10.18,14.72.9.75,1.49,1.58,1.78,2.49.7-.22,1.04.54.5,1.01.27.67,0,.74-.5.25-4.07-4.64-5.72-8.01-9.07-12.85-.22-.32-.69-.42-.76-.5-.73-.08-.77-.24-.25-.76-.18-.23-.7-.98-.76-1.01-.07.21-.16.2-.25,0-1.95-1.93-2.95-4.09-3.78-6.67-.31-.95-.91-2.75-1-3.66-.39-.46-.39-.72,0-.76.94-.54,1.98,2.09,1.26,2.77Z" fill="#ab3128"/>
          <path d="M14.69,26.17c-1.81.98.72,3.29-.49,4.93-.93,1.26-1.08-1.16-1.9-1.15-.11,0-.81,1.54-1.64,1.26l1.26-3.78c-.76.09-1.95-.14-2.22-.93-.59-1.69,2.42-.77,2.74-.95.42-.24.54-1.67,1.25-1.9.22.71.76,1.76,1.01,2.52Z" fill="#7c934c"/>
          <path d="M46.93,84.86c.41-.19.69.04.85.69,1.43.47,2.38,1.32,3.43,2.33.17,0,.34,0,.5,0,.06.14.17.3.25.5.58.36.75.7.5,1.01l-.32.37c1.74,1.2.77,4.59-.76,1.87-.87.12-3.94-2.51-3.91-3,.86-.87-.31-1.14-.55-.24-.39.41-1.24-.56-1.01-1.01-.08-.15-.5-.95-.5-1.01-.45-.53-.53-1.12.25-1.26-.23-.72,1-.92,1.26-.25Z" fill="#dbab28"/>
          <path d="M30.56,13.83c.73-1.48,1.89-4.02,2.02-.5l2.77-.76c.15,2.15-1.64,3.8-3.52,4.53-.27,1.15-.61.74-.76-.25-1.01-.44-.88-2.01-.5-3.02Z" fill="#7e954c"/>
          <path d="M35.85,39.52c.11,0,.72.37.84.56.58,1,.92,3.51,1.18,4.73-.52.18-.39.5-.5.76.24,1.42-.73,3.41-2.02,4.03-.63.34-.77.15-.5-.5-.31-.67-.06-1.49.75-2.46,1.43-1.25.78-8.67-1.17-4.12l-.58.03c.39.71.22,1.05-.5,1.01.41,1.03-.41,4.45-1.76,3.78-.3.22-.39.06-.25-.5l-.31-.54c.56-1.57,1.13-3.13,1.73-4.68l.6-.08c-.73-.5,1.13-2.39,1.76-1.76.21-.1.54-.27.76-.25Z" fill="#ab3418"/>
          <path d="M40.38,15.59c1.44.35,2.05,1.16.44,1.83-.49.2-1.4.14-1.45.19-.17.16.42,4.66-1.78,2.92-.65-.51-.56-1.02-.74-1.66l-.05-1.41c-1.34-.2-1.57-.49-.71-.85.75-.37,2.17-1.44,2.77-2.02.27.04.41.3.41.76l1.1.24Z" fill="#7f9650"/>
          <path d="M27.79,9.55c.15.38.15.72,0,1.01-.4.15-.53.05-.75-.18-.15-.16-1.84-3.8-1.89-4.02l.12-.58c-.21.02-.48,0-.55-.17-1-2.59-3.08-2.73-5.69-2.78-.78.13-1.56.11-2.32-.08.07.72-.29.75-.76.25l-.76-.25c2.78-1.66,7.45-1.77,9.7.75,1.44,1.62,2.09,4.11,2.89,6.05Z" fill="#7f9651"/>
          <path d="M45.93,87.38c.29.52.96.95,1.01,1.01.49-.14.96.29,1.41,1.29,3.84,3.36,5.35,3.66,4.52.9-.7-.51-.82-.9-.39-1.18-.18-.46-.31-.54-.5-1.01.93.13,1.58,1.52,1.84,2.31.19.58.83,3.09.43,3.37-.72.51-4.25-1.76-5.02-2.31-1.72-1.22-2.47-2.62-3.8-4.13l.5-.25Z" fill="#cea844"/>
          <path d="M20.23,36c.27-1.88,1.57-1.39.99.26,1.27.37,1.25,1.33.6,2.31l1.32,4.5-.38.49c.75.9-.78,1.38-1.01,0-.38-2.24-.91-3.96-1.76-6.05-.48-.09-.66-.17-.25-.5-.23-.49-.18-1.45.5-1.01Z" fill="#b32f29"/>
          <path d="M36.1,16.6c-.75,1.07.79.03,1.01.25l-.25,2.01c-.12-.45-.44-.86-.25-1.51-1.67.3-5.27,1.43-5.54,3.4-.12.84,1.42-.01,1.77.63-.74-.17-1.64.1-2.27.5-.44-.34-.37-2.1.25-2.27-.06-.86-.08-1.71-.06-2.57l.32-.2c.12.09.23.43.29.45.11.03.32-.14.46-.2l.12,1.26c1.15-1.02,2.84-1.11,4.16-1.76Z" fill="#87926b"/>
          <path d="M16.46,29.45c.58-.59.71-.13.25.5l.55.24,1.41,5.48c.06.09.34.12.81.08.23.23.31.65.25,1.26.06.14.17.3.25.5-1.15-.12-1.4.81-2.21-.69-.38-.7-1.5-4.42-1.72-5.34-.17-.73.01-1.48-.11-2.04.15.03.39-.04.5,0Z" fill="#d3ab43"/>
          <path d="M24.26,45.82c.71.11.7.67-.02,1.67,1.24-.33,1.78.58.72,1.4l2.31,4.35c.04.32-.03.65-.24.89.24.61-.06.77-.5.25-.42-1.63-2.79-4.33-3.27-6.3-.67-.74-.46-2.41.5-2.27.03-.55.38-.54.5,0Z" fill="#b13931"/>
          <path d="M47.18,66.47l1.51-.63c-.94,1.71-.38,4.35-1.85,5.84-.24.25-2.11,1.49-2.18.47,1.48-1.09,2.54-2.1,2.77-4.04.07-.63.1-.81-.5-.38-.48-.1-.35-.21,0-.5.05-.21.17-.53.25-.76Z" fill="#a3b957"/>
          <path d="M27.29,54.89c.47.34.7.9.69,1.68,0,0,.53,1.37,1.58,4.11.32-.37.41-.22.25.25.55.37.4.58-.25.5-.04.18-.02.55,0,.76-1.37-1.05-2.3-3.05-2.7-4.73-.23-.95-.13-2.34-.32-3.08l.5-.25c.07-.22.16-.22.25,0,.28,0,.28.25,0,.76Z" fill="#d1a640"/>
          <path d="M26.28,39.02l.37.62c-.06.88-3.08,5.1-3.49,5.2-.13.03-.27.01-.41-.02-.01-.29-.59-.32-.76-.25-.24-.31-.19-.66-.25-1.01l.63.75c.32-.12.3-.67.38-.75-.15-.36.02-.65.52-.87.23-1.38,1.06-2.32,2-3.16-.62-.14-.25-1.46.16-1.65.81-.39,1.68.63.85,1.15Z" fill="#988634"/>
          <path d="M44.92,65.72c.37.3.66.67,1.01,1.01.17.56.51.98,1.01,1.26-.05.23-.21,1.21-.25,1.26-.57.59-.57-1.12-1-1.01l-.51,1.39c-.7-1.11-.95-2.68-.5-3.91h.25Z" fill="#9aac6e"/>
          <path d="M41.9,49.6c-.55-.87-.7-1.59-.5-2.64.26-1.44,1.31.13,1.89.13.84,0,2.62-3.28,2.39,2.01.67-.42,1.1-1.07,1.76-1.51-.36,1.09-1.45,1.8-2.26,2.52.06-1.23.71-2.58-.25-3.66-.4-.27-1.1,1.19-1.39,1.39-.49.12-1.09-1.34-1.88-1.01l.25,2.77Z" fill="#eaf1dd"/>
          <path d="M44.92,65.72h-.25l-1.01-.12c.37.97.12,2.03.31,2.96.12.58,1.81,2.49.82,2.7-.93.2-1.72-3.34-1.89-4.03,1.03.2.27-1.79.5-2.02.96-.18,1,.08,1.51.5Z" fill="#d9e8c4"/>
          <path d="M29.3,13.58v.25c-.73-.24-1.5-.27-2.34-.19-.71-.27-.67-.72.12-1.35.13-.74.37-1.32.71-1.73,0-.34,0-.67,0-1.01.52,1.27.95,2.74,1.51,4.03Z" fill="#a1b976"/>
          <path d="M42.15,56.65h1.14c.29-.45.01-1.66.12-1.76.28-.28,4.01.75.26-1.89l1.25-.63c.12.56.6,1.67,1.01,2.01-.29,1.11-2.15.63-2.27.75-.09.09.29,2.1-.66,2.26-.46.07-.63-.5-.85-.74Z" fill="#dae6c1"/>
          <path d="M29.3,13.58c.18.41.65,1.68,1.01,1.26.03-.04.03-.56.25-1.01-.36,1.08.41,2.26.5,3.02.14,1.09-.16,1.88-.25,2.77l-.38-.08c-.19-1.26-.41-2.52-.68-3.76-.59-.14-.73-.54-.2-.94-.57.11-.83-.86-.25-1.01v-.25Z" fill="#d6b599"/>
          <path d="M24.77,44.06c.75.18.58.57-.49,1.16-.15.29-.32.49-.52.61-.1.19-.49.25-.6.8-.1.47-.01,1.01.1,1.47-.15-.16-.41-.33-.5-.5s-.08-.55-.25-.76c-.57-.73,1.23-3.06,2.02-3.02.34-.25.45-.13.25.25Z" fill="#977f3c"/>
          <path d="M46.68,76.55c-.23-.5-1.84-3.21-1.51-3.53,1.09-.26.68.61,1.07,1.33.15.27.48.71.7.94-.94-.17-.23.58-.25,1.26Z" fill="#c3d6a4"/>
          <path d="M38.87,14.59c.18-.18.42-1.44,1.26-1.26l-.76,1.89,1.01.38c-.87-.22-1.37.46-1.51-1.01Z" fill="#869571"/>
          <path d="M45.93,66.72c.23.22.52.3.51.75l.49-.25c-.04.15.03.35,0,.5-.02.08.02.17,0,.25-.97.74-.96-.4-1.01-1.26Z" fill="#c8d4b4"/>
          <path d="M34.34,72.52s.22-.01.25,0c.04.77-.89.92-1.51,1.01v-1.26c.15.18.54.73.63.76.42.11.5-.42.63-.51Z" fill="#ebe6d6"/>
          <path d="M35.35,50.6c.77-.65,1.24.29,1.57,1.03.27,1.52.93,2.66,1.99,3.43-.17.27-.12.54-.03.82.02.07,0,.17,0,.25l.29,1.02c-.7,1.69-.41,2.76.88,3.21.64.58,1.05,2.87-.16,2.33-.19.22-.27.41-.23.58.76,1.55,1.27,3.17,1.55,4.86.86.61,1.15,1.71.53,2.53-.07.77.12,1.53.67,2.1.44-.11.72.22.84.98,1.54.38,1.3,1.49.83,2.7l.84,1.11c.17,1.29.56,2.41,1.19,3.38,0,.84.1,1.65.33,2.42.74.01,1,.43.5,1.01.68.11.63.28,0,.5l-1.26.25-.54-.03c-1.92-3.57-3.67-7.32-4.82-11.22-.92-.43-1.42-1.03-1.49-1.81-2.04-.72-2.9-2.27-2.56-4.63-.86-.55-1.34-1.12-1.42-1.71-.28-.93-.45-1.94-.5-3.02-1.64,1.25-1.76-1.97-1.28-3.19-.98-.5-1.31-1.03-.98-1.59-.13-.22-.35-.31-.62-.31.19-1.15,3.05-7.54,3.55-7.49.2.02.3.28.35.5Z" fill="#f1cb2c"/>
          <path d="M45.67,76.3c-.41.22-.66.64-.76,1.26-.06-.16-1.1-.5-1.23-.93-.18-.54.43-1.33.21-1.94-.16-.45-.74-.28-1-.58-.22-.25-.36-.98-.49-1.34-.72-.9-.85-2.06-.39-3.48-.75-1.2-1.2-2.06-1.18-3.56-.66-.89-1.07-1.86-1.22-2.9l.27-.14s.26.02.27-.37c.06-2.12-.7-1.34-1.39-2.16-1.07-1.25.14-2.84.12-4.02,2.44,3.25,2.22,7.22,3.09,10.89.67,2.81,2.5,6.53,3.72,9.26Z" fill="#9fb341"/>
          <path d="M38.87,54.63c.49-.42.55-.38.5.25-.31.32-.68.32-.5,1.01-.23-1.01-1.33-1.32-1.62-1.78-.54-.84-.63-3.18-1.9-3.51-.73-.04-.63-.79,0-1.01.77-1.29,1.4-2.66,2.02-4.03.72-.52.38-.08.65.22.57.64,1.21,1.28,1.35,2.18.17,1.14-.55,4.13-.8,5.46-.18.95-.94.68.31,1.19Z" fill="#97b144"/>
          <path d="M45.67,76.3s.32.16.44.43c1.42,3.18,2.91,6.38,4.09,9.64-.41.25-.77.08-1.06-.51-.91.12-1.65-.38-2.21-1.51-.16-.35-.34-.58-.5-1.01-.09-1.39-.45-2.64-1.07-3.74l-.44-2.05c-.53-1.12-.84-1.78.76-1.26Z" fill="#87a544"/>
          <path d="M48.69,75.29c-1.46.31-2.85-2.23-1.51-2.9,1.63-.82,1.63,1.85,1.51,2.9Z" fill="#adbd46"/>
          <path d="M46.93,84.36c1.59-.36.79.79,1.01,1.01.06.06,1.01-.1,1.45.07.06.02.71.8.82.93.39.48.66,1.01,1.01,1.51-1.15-.03-.78-.58-1.34-.93-.23-.14-.58-.02-.83-.17-.76-.47-1.79-1.18-2.11-1.92-.05-.12.05-.39,0-.5Z" fill="#acae39"/>
          <path d="M38.87,54.63c.81-1.69,3.51-2.63,5.29-2.77l-3.35,1.81c-.53.36-.98.75-1.43,1.21-.22.01-.37-.2-.5-.25Z" fill="#9eb752"/>
          <path d="M47.69,54.13c-1.44-.13-1.99-.94-2.27-2.26,1.43-.27,2.37.9,2.27,2.26Z" fill="#abbd4b"/>
          <path d="M43.91,50.6c-.47.51-1.86-1.96-1.51-2.52.57.11,1.73,2.28,1.51,2.52Z" fill="#9ab255"/>
          <path d="M50.71,72.77c-1.28.21-1.74-.15-2.27-1.25.97-.12,1.81.42,2.27,1.25Z" fill="#a5bc53"/>
          <path d="M42.9,55.89c-.26.31-2.01-1.2-.88-1.76.88.12.97,1.07.88,1.76Z" fill="#a1b855"/>
          <path d="M27.79,39.77c-.2.69-.63,1.36-1.31,2.01-.5,1.11-1.16,1.78-1.97,2.02-1.11,1.43-1.17,1.41-2.02,3.02-.03.06-.32.16-.45.43-.32.68-.3,1.75-1.06,2.09-.08-1.98.66-3.08,1.76-4.53,1.37-1.81,3.04-3.42,3.53-5.79.53-.48,1.56-.01,1.51.76Z" fill="#a7b54e"/>
          <path d="M19.19,47.8c-.2.33-2.02.3-2.48.28-.2-.18,1.03-2.02,1.64-2.02.73,0,1.16,1.24.85,1.74Z" fill="#abbd47"/>
          <path d="M20.48,46.07c-1.14.46-2.56-2.7-2.26-3.02.95-.1,2.87,2.38,2.26,3.02Z" fill="#a9bd4d"/>
          <path d="M35.35,73.53c.17.22.17.64.25.76-2.29-.28-3.27,2.38-5.54,2.26l3.29-2.37,2-.65Z" fill="#9ab054"/>
          <path d="M32.81,76.82c.07.06.23,1.49.21,1.8-.16,2.78-1.88-1.17-1.2-1.82.04-.03.94-.02.99.02Z" fill="#a8bc4d"/>
          <path d="M31.82,74.28c-.95.1-1.95-.52-2.52-1.26.91-.14,2.32.14,2.52,1.26Z" fill="#a0b653"/>
          <path d="M29.8,25.42c.76-.82,1.1-2.51,2.27-1.89.83.44.05,3.85-.25,4.16-.82.83-.22-1.96-.25-2.01-.84-.99-1.12,3.35-1,3.86.05.21.49.08.53.54.07.9-.49,1.93-.28,2.9,1.2-.03.56-1.74,1.01-2.52.88-.65,3.65,8.38,3.27,9.32-.37.19-1.6,1.45-1.76,1.76-1.4.73-1.71-.82-1.01-1.98l.03-2.26.48-.29q.42-.59,0,0c-.28.79-.92.33-1.13-.34-2.25-.67-2.23-1.83-1.7-3.92.08-.58,0-1.16-.37-1.63-.98-.91-2.7-2.59-1.33-3.68-.61-.26-.61-.51,0-.76-.24-.44.98-1.76,1.51-1.26Z" fill="#98b344"/>
          <path d="M29.55,14.84c.19.51.49.93.64,1.51.28,1.1.24,2.26.62,3.28-.08.7-.13,1.61-.25,2.27-.22,1.19-.57,2.33-.76,3.53-.21.23-1.27,1.13-1.51,1.26-.08.57-1.22.56-1.01,0l.04-.69c2.62-2.37,2.35-6.2,1.84-9.39-1.36,1.64-2.61,3.39-3.75,5.26-.79.96-1.52,1.22-2.16.8-.89.25-.69-.44,0-.76-.39-.31,1.44-2.18,1.69-2.33l.58.06c.14-.95.6-1.6,1.26-2.27-.4-.68,1.29-2.76,2.02-2.27-.17-.79.38-.92.76-.25Z" fill="#a93419"/>
          <path d="M16.71,2.75c.86-.12,1.4,0,1.77.83l1.07,2.17c1.31.49,1.8,1.66,1.45,3.49.81.83,1.05,1.52.74,2.07.61,1.92,1.45,3.68,2.52,5.29.82-.19,1.64,1.03,1.26,1.76.39.16.39.58,0,1.26-.93,1.31-1.17,1.28-2.27,2.27-.38.56-1,1.38-1.87,2.45-.95,1.39-1.59.98-2.16-.43-1.08-.37-1.95-2.76-2.24-3.95-.48-1.98-.29-3.24.24-5.14-.73-1.02-1.5-2.42-1.52-3.51-.33-1.08-.5-2.17-.5-3.27-.91-.93-1.02-3.19-.25-4.28.33-.26.62-.56,1.01-.76.27-.14.5-.16.76-.25Z" fill="#f0cb2b"/>
          <path d="M15.2,8.04c.02,1.1.19,2.19.5,3.27,1.23,1.24.63.88,1.2,2.2.16.38.66.63.77,1,.31,1.03-.45,1.7-.48,2.71-.08,2.87.97,4.29,2.04,6.68.36.58.73,1.14,1.13,1.67-1.06,1.44-2.27,2.56-3.65,3.36-.73-.74-.91-1.87-1.26-2.77.8-.53.27-1.8-.56-1.43l-.2-.34c-.85-2.55-1.85-5.95-2.4-8.56-.36-1.71-.78-3.4-.63-5.17.86-.09.36,1.72.51,1.89,1.44-.13.43-1.81.34-2.68-.05-.43.27-.94.17-1.43-.05-.25-.69.08-.46-.98.34-1.53,1.53-2.79,2.72-3.72-.07,1.44.17,2.85.25,4.28Z" fill="#ee4c29"/>
          <path d="M23.26,21.89c-.37.46-.16.47,0,.76.63-.29,1.5.7,1.01,1.26-.34.34-.76.26-1.27-.24-1.67,2.09-3.4,4.16-5.34,6.04l-.95.25c-.04-.26.09-.37-.25-.5.1-.14.15-.39.25-.5,1.08-1.14,2.2-2.26,3.26-3.43-.5-.55-.54-1.15-.74-1.6,1.3,2.43,2.48-.99,3.6-1.95.14-.12.4-.03.43-.06Z" fill="#e19f26"/>
          <path d="M14.69,24.41c.96.16.14-1.44,1.26-1.26,0,.44-.04.89.06,1.33.22.94,1.18,1.96-.56,1.7-.22-.56-.57-1.21-.76-1.76Z" fill="#d03426"/>
          <path d="M32.07,57.91c.32.71,1.39,1.09,1.47,1.41.1.41-.44,1.75-.16,2.7.19.64.67.49.96.68.04,1.03.21,2.04.5,3.02.51.39,1.63.9,1.88,1.52.4.96-.21,2.39.36,3.16.3.41,1.73.89,2.12,1.34.29.34.11.76.29,1.03s.74.22,1.11.66c.51.59.36,1.42.58,1.95.73,1.76,1.45,2.87,2.08,4.97.26.86,2.27,4.17,2.4,4.77.09.37-.29.95-.25,1.26-3.76-3.13-5.73-7.86-8.46-11.82-1.39-2.01-3.08-3.79-4.39-5.82l-.3-2.08c-.09-1.38-.58-2.2-1.46-2.46-.28-.89-.58-2.28-1.26-2.77.03-.13.18-.35.25-.5-.1-.43,1.53-3.66,1.74-3.66.24.11.42.32.53.64Z" fill="#ec4c28"/>
          <path d="M32.58,68.74c-1.2-1.85-1.12-2.46-1.76-4.53.39-.09.78-.4,1.13-.01.4.44,1.51,4.03.63,4.55Z" fill="#c1332c"/>
          <path d="M46.93,88.39c-.31-.34-.33-.85.16-.99,1.17-.33,2.98,1.6,3.62,2.5-.9.41-1.75-1.49-1.9-1.52-.38-.07-.97.19-.87.64.07.33,2.36,1.85,2.78,2.01s1.2.09,1.25.14c.09.09-.09.92,0,1.01.68.7.96-.93.77-1.61-.07-.24-.61-.14-.88-.41-.51-.5-1.08-1.46-1.65-2.01l2.27,1.26c.41,1.05,1.13,2.24,1.02,3.4-.04.35.11.46-.36.36-2.36-.53-4.7-2.98-6.2-4.76Z" fill="#eec236"/>
          <path d="M34.34,13.58c.46.47-1.99,2.8-2.26,2.52,0-.57,1.65-3.14,2.26-2.52Z" fill="#a5bb55"/>
          <path d="M28.29,27.43c.07,2.53.43,1.83,1.65,3.27,1.39,1.65-.24,3.59.42,4.74.09.16,1.26.59,1.6.8.4.26.04.68.87.76.06.73.08,1.92-.01,2.63-.15,1.13-1.21,1.11.52,1.9-.68,1.27-1.31,3.78-2.02,5.29.26.72-.66,2.48-1.14,3.18-.33.47-.81,1.15-1.37.85-1.7.39-2.29-2.2-1.75-3.63-1.2-.78-1.62-1.5-1.28-2.17-.77-.13-.74-.83,0-1.01-.55-.43-.33-1.17.65-2.2.66-.65,1.11-1.34,1.36-2.08-.48-.31-1.07-.37-1.51-.76-.12-.11-.07-.97-.75-.75.1.49-.14.85-.25,1.26-1.1,1.22-3.78-1.96-2.77-3.02-.15-1.41-.18-2.84-.1-4.25-.18-.07-.32-.15-.32-.23-.04-.78,4.01-4.72,4.73-5.03.32-.13,1.58-.03,1.48.45Z" fill="#f1cb2b"/>
          <path d="M33.84,42.54c.4-.83,1.94-3.41,2.51-1.37.71,2.54.99,2.71-.06,5.2-.37.87-1.09,1.81-1.43,2.72.04.3-.21.3-.76,0-.72.17-1.86-.46-1.76-1.26-.72-.05-.97-.22-.76-.5.59.11.88-1.17,1.05-1.6.28-.7.47-1.61.71-2.18.31-.06.48-.39.5-1.01Z" fill="#eb4b2e"/>
          <path d="M31.57,47.33c.21.21.51.34.76.5l-1.22,2.14c1.06.8,2.59,3.52.64,3.74-.42,2.22-2.01.94-2.35-.7l-1.5,1.91-.61-.03c0-.24-.04-.55,0-.76l-.13-.11c.13-1.15.68-2.2,1.65-3.16,1.26-1.31,1.7-2.29,2.52-4.03.1.14.15.41.25.5Z" fill="#dda923"/>
          <path d="M34.84,49.09s.49.47.5.5c.03.11.03.97,0,1.01-.02.03-.35-.14-.52.16-.74,1.28-2.32,4.42-2.77,5.76-.18.52-.2.88.02,1.39-.5-.43-.57-.09-.81.32-.42.71-1.1,1.99-1.46,2.7-.07-.09-.15-.21-.25-.25-.08-.05-.15-.1-.19-.17-.29-.51,2.53-6.4,3.14-7.08.47-1.46,1-2.91,1.58-4.34.22.04.6-.06.76,0Z" fill="#daa71f"/>
          <path d="M33.84,42.54c-.15,1.13,1.02-.12,1.39.5.22.36.51,2.74.39,3.14-.07.22-.45.09-.68.24-.11.07-.1.35-.13.37-1.09.55-.52-2.96-1.48-3.23.19-.45.33-.66.5-1.01Z" fill="#c82620"/>
          <path d="M38.37,19.87c-.85.61-1.22-2.48-.75-3.02,1.17-.14,1.15,2.73.75,3.02Z" fill="#a4ba50"/>
          <path d="M40.89,16.35c.7.72-2.32.76-2.01-.25.4-.04,1.81.04,2.01.25Z" fill="#9cb258"/>
          <path d="M16.71,2.75c1.97-.67,4.51-.57,6.44.23.42.17,1.63,1.35,1.87,1.71s.15.89.25,1.08c.58.76.08,1.56-.76,1.01-.24.1-.46.08-.46-.11,0-.38.33.36-.04.61.21.69-.37.85-.76.25l-.28.22c.22.87,1.85,5.75,2.46,5.91.1.03.22-.02.34-.08.19-.36.47-.37.83-.03,2.16-.17,2.89.34,2.19,1.55-.63.53-1.4,1.64-2.02,2.27-.34.67-.76,1.01-1.26,1.01-.45-.57-.79-1.21-1.26-1.76-1.07-1.61-1.91-3.37-2.52-5.29-.27-.51-1.19-1.83-1.22-1.94-.14-.57.52-1.37.08-2.34-.3-.66-1.04-.59-1.31-.83-.9-.81-1.01-3.24-2.59-3.46Z" fill="#95b23e"/>
          <path d="M27.79,10.55c0,1.22.24,1.75-1,2.39.88,1.12,2.19-.68,2.51.88-.05.39.12.67.25,1.01-.24.05-.57.09-.76.25.02-1.99-1.66-.9-2.39-1.06-.04,0-.61-.42-.63-.45-.13.05-.25.08-.36.06-.49-.08-2.54-5.23-2.15-6.11l.76-.25c.31.19.48.02.5-.5.44-.19.74-.51.76-1.01.06.11.45.33.65.73.61,1.26.94,2.98,1.87,4.05Z" fill="#8dae4d"/>
          <path d="M22.5,36.5c.4,1.46,1.16,2.77,2.77,3.02-.05.19.08.54-.01.81s-.77.55-.91.78c-.16.25-.51,1.6-.67,1.85-.19.31-.89.55-.92.58l-1.52-5.19c.94-.91.65-1.93-.75-1.36l.5-1.76c-.64-.15-.48.33-.75.75-.13-.04-.25-.09-.33-.18-.23-.23,1.55-4.12,2.52-3.82-.11,1.51-.07,3.01.08,4.5Z" fill="#e84e28"/>
          <path d="M27.29,26.68c.45.15.28.39,1.01,0,0,.25,0,.5,0,.76-.54-.4-.83-.2-1.34.04-.74.34-3.74,2.84-4.06,3.5-.7,1.44-.26,3.94-.39,5.53-.4-1.45-.23-2.76-.25-4.28-.93.98-2.03,2.37-2.01,3.78-.14.22-.71.34-.5,1.01-.18-.43-.41-.68-.25-1.26-.43-1.29,1-3.3,1.83-4.43,1.29-1.78,3.47-3.71,5.23-4.89.22-.67.81-.45.76.25Z" fill="#dd9f22"/>
          <path d="M24.26,23.9c.93-.05,2.24,1.66,2.27,2.52,0,.5-.31.71-.63,1-3.46,3.15-4.57,3.96-6.42,8.32-.08.19-.62.54-.51,1.01-1.15-.66-1.04-2.36-1.39-3.52-.41-1.4-.64-1.7-.88-3.28,2.16-2.2,4.44-4.45,6.05-7.05l1.51,1.01Z" fill="#f1ca2c"/>
          <path d="M25.77,45.06c.22.82,1.64,1.66,1.73,1.93.2.59-.28,1.24-.18,1.91s.87,1.64,1.47,1.95c-.02.02.24.34.05.67-.36.65-1.47,2.1-1.57,2.61h-.25c-.06-.95-3.04-5.48-2.77-5.79.11-.13.98.33.75-.5-.4.06-1.02.5-1.23-.15-.3-.93.41-.81.47-1.04.08-.28-.05-.7,0-.82-.51-.65,1.39-1.95,1.51-.76Z" fill="#eb4d28"/>
          <path d="M25.77,44.06c-.03.23-.05.82,0,1.01-.56-.22-1.3.28-1.51.76h-.5c.05-.09-.09-.41.08-.68.21-.32,1.07-.53.93-1.09.31-.67.7-.68,1.01,0Z" fill="#c66425"/>
          <path d="M32.32,47.83c.72.47,1.07.52,1.76,1.26.13.13.5.23.51.41l-5.04,11.18c-1.45-.61-2.3-4.26-2.27-5.79l2.14-2.77c.26,0,.94,2.12,1.14,2.26s.74-.21.74-.37c.02-.28-1.61-2.63-1.25-3.4.73-.14.4.21.57.55,1.66,3.44,2.4,2.44.75-.24-.24-.4-.82-.59-.84-.72-.06-.37.69-1.43.94-1.83s-.06-.71.84-.54Z" fill="#f1ca2c"/>
          <path d="M25.77,44.06c-.32-.03-.7.05-1.01,0-.12-.02-.22-.13-.25-.25,1.06-1.37,2.08-2.87,3.27-4.03.18.11.39.17.5.38-.87.96-2.38,2.64-2.51,3.9Z" fill="#8e9127"/>
          <path d="M39.88,62.69c-.13,1.41,1.19,1.98,1.45,2.96.21.79-.09,1.7.07,2.41.04.2.56.16.7.85.28,1.45-.34,1.95.31,3.86-.91-.23-1.18-1.61-1-2.35.05-.21.7-.03.5-1.04-.14-.69-.72-.79-.88-1.15-.39-.9-1.28-3.63-1.57-4.73-.13-.48-.3-.94.44-.81Z" fill="#d4c742"/>
          <path d="M44.92,77.56c.55,1.16,1.34,2.46,1.52,3.89.08.59-.07,1.29-.01,1.9-.04-.12-.37-.28-.46-.67-.13-.6.09-1.33-.17-1.86-.17-.35-.82-.38-.89-.67-.16-.65.2-2.08,0-2.59Z" fill="#a5b33a"/>
          <path d="M34.84,65.72c-1.35-1.03-.55-1.56-.5-3.02.95.6.35,2.05.5,3.02Z" fill="#f6a83b"/>
          <path d="M40.13,60.43c-.35.39-1.9-1.75-1.51-2.26.38-.44,1.76,1.99,1.51,2.26Z" fill="#859b31"/>
          <path d="M32.83,37c-.08-.92-.26-1.48-.56-2.34-.23-.67-1.11-1.15-.32-1.69,1.2.91,1.46,2.62,1.64,4.02-.25,0-.51.02-.76,0Z" fill="#7b9a35"/>
          <path d="M23.26,22.65c3.02-.97,3.34-4.74,5.54-6.42.25-.19.32-.49.76-.38.64,3.75,1.08,8.26-2.27,10.83-.18-.06-.68-.2-.76-.25-.68-.44-1.72-1.84-2.27-2.52-.32-.4-.78-.85-1.01-1.26Z" fill="#ec4b2b"/>
          <path d="M26.78,17.36c-.22.88-.75,1.55-1.26,2.27.06-.38-.08-.91,0-1.26.1-.43,1.15-.9,1.26-1.01Z" fill="#b59141"/>
          <path d="M24.26,16.6c-.41-.49-.92-.95-1.43-1.33l-1.09-3.96c.04.08.41.2.44.43l2.08,4.86Z" fill="#bebd30"/>
          <path d="M15.7,11.31c-.56-.56-.71-1.85-.75-2.69-.01-.38.24-.55.24-.58.36,1.1.64,2.09.5,3.27Z" fill="#e97f28"/>
          <path d="M17.97,26.67c-.84.44-1.58-1.38-.88-1.51.57-.11.86,1.11.88,1.51Z" fill="#ca2917"/>
          <path d="M41.14,80.58c-.5-.48.57-.37.49-.86-.11-.65-.98-.85-1.35-1.43-.44-.67-.88-1.77-1.4-2.63-.19-.31-.32-.54.13-.62.76-.14,1.68,2.46,2.03,3.01.61.95,2.48,2.2,1.49,3.04-.25-.26-1.33-.46-1.38-.51Z" fill="#c52516"/>
          <path d="M27.79,42.04c-.14-.68.65-.65.87-1.01.12-.19.33-1.2.32-1.44-.01-.62-.8-.68-.69-1.32,2.24-.41,1.65,4.28-.5,3.78Z" fill="#d8ab1d"/>
          <path d="M30.31,42.04c.28.25-1.4,2.1-2.01,1.76-.3-.27,1.53-2.19,2.01-1.76Z" fill="#daac1a"/>
          <path d="M23.26,7.53c.85,1.07,1.09,4.38,2.52,6.05-.02,1.26-.9-.09-1.06-.33-.98-1.5-1.7-3.45-1.97-5.21l-1.51.5c.11-1.55-.43-3.04-.76-4.53,1.37.07.92,1.86,1.5,2.65.26.36,1.05.59,1.27.87Z" fill="#789a35"/>
          <path d="M24.52,6.78c.86,1.14,2.94,4.4,2.14,5.8-.61,1.07-.62-1.46-.65-1.62-.36-1.55-1.39-2.32-1.99-3.67-.44-.98-.26-1.52.5-.5Z" fill="#78983b"/>
          <path d="M23.51,28.94c-.3.36-.67-.42-.77-.61-.19-.37-1.16-2.73-.99-2.91.53-.58,2.03,3.2,1.76,3.52Z" fill="#d9aa1d"/>
          <path d="M22.25,29.19c-.51.58-1.62-2.65-1.51-2.77.52-.56,1.77,2.48,1.51,2.77Z" fill="#d8aa1e"/>
          <path d="M28.54,24.16c-.48.08-.68-.2-.75-.63-.24-1.39-.2-3.23-.25-4.66.48-.08.68.2.75.63.24,1.39.2,3.23.25,4.66Z" fill="#c7261c"/>
          <path d="M29.05,17.61c.23.23.89,3.77.13,3.77-.33,0-.63-2.93-.64-3.39,0-.4.23-.66.51-.38Z" fill="#c52416"/>
        </g>
      </g>
    </g>
  </g>
</svg>