<?xml version="1.0" encoding="UTF-8"?>
<svg id="Layer_2" data-name="Layer 2" xmlns="http://www.w3.org/2000/svg" viewBox="0 0 64 95.84">
  <g id="Cards">
    <g id="Cups">
      <g id="AceOfCups">
        <g id="_Numebrs" data-name="&amp;lt;Numebrs">
          <path d="M3.46,7.91h-1.51V2.22c-.55.52-1.2.9-1.95,1.14v-1.37c.39-.13.82-.37,1.28-.73.46-.36.78-.78.95-1.26h1.22v7.91Z" fill="#e03e3e"/>
          <path d="M60.54,87.94h1.51v5.69c.55-.52,1.2-.9,1.95-1.14v1.37c-.39.13-.82.37-1.28.73-.46.36-.78.78-.95,1.26h-1.22v-7.91Z" fill="#e03e3e"/>
        </g>
        <g>
          <path d="M32.07,18.4c-1.07-.46.06-1.51.9-.82l6.21,6.56c.24-.23.51-.32.83-.28.11-.46.33-.45.5,0,.07-.12.13-.22.2-.22.74-.03,4.48.01,4.83.41.04.05,0,.17-.06.31.32.55.57,1.03-.19,1.08,1.23.91.06,1.65-.8.9-.14.47-.36.47-.5,0-.23,0-.44-.06-.56-.26-.56-.97-1.09-1.32-2.36-.91-2.28.75,2.36,4.18,3.31,4.64-.77,2.49-3.79-.63-4.85-1.78.32.55.44,1.1.37,1.65,1.41.31,2.38,1.4,2.38,2.86,1.34-2.51,2.26-.56,1.41,1.33.67.72,1.49,0,1.98-.56.73-.27,1.1.14,1.12,1.23,1.1-.67,1.84-.62,2.23.17.3.12.92.24,1.17.07.29-.22,1.12-.62,1.24,0,.56.53-.17,1.24-.74,1.55s-4.59-.18-5.22-.76c-1.01.57-2.2.4-3.59-.51-2.92.32-5.85.18-8.78-.01l-.54-.51.14-.36c-.54-.03-.94-.35-1.2-.94-.41.93-1.09,1.02-2.01.99-1.46-.34-2.33-.15-2.64.55-.61,1.1-3.04.81-4.26.63-.25-.04-.49-.31-.65-.5-.55.34-1.04.47-1.54-.03-.65,1.12-1.86,1.59-2.95.75-.72.76-1.61.87-2.46.28-.47.7-1.9,1.1-2.04.12-1.1-.81-.47-.79.5-.74.48-1.19,1.29-1.6,2.55-.71.14-.93.43-1.77,1.48-1.23,1.51,1.73,1.81.62,1.49-1.16.39-1.64,1.31-.73,1.7.43,0-1.49.94-2.66,2.41-2.95-.15-.52-.08-1.08.23-1.65-.31.91-3.81,3.35-4.4,2.82-.31-.28-.69-1.23-.1-1.45,1.59-.72,2.77-1.71,3.55-2.98.65-2.34-3.34-1.24-2.8-.16,1.23-2.47,4.36.97,1.36.91-.61.98-2.68,2.09-3.76,1.68-.57.06-.35-.44,0-.74.17-.08.33-.17.5-.25.17-.37.5-.71.99-.99-.31-.13-.75-.32-1.32-.58.47-1.48,1.5-2.83,3.06-1.9l2.04-.36.19.36c.4-.36.62-.31.91.09l3.98-4.21.58.16c.65-.06.34.65,0,.99-.13.44-.47.97-.99.99.37,1.49-.57,2.17-1.91,2.68l-.57,1.79.51.25c-.18,1.28-.24,4.55,1.48,4.47-.02-.59.63-.5.74,0,.87,0,1.74.1,2.61.28-.34,1.68.6.54.22.16-.46-.3-.83-.62-1.09-.94-.55.15-.37-.89,0-.99l.33-.47c-.22-1,.13-1.45,1.04-1.35l-.17-1.73c.54-4.68,2.26-.65,1.91,1.84,1.43-.32,1.35.81.63,1.71.46-.38.87-.46,1.24-.24.37.08.39,1.22,0,1.24l-.28.47c-2.03.08-.73,1.47-.77,1.36-.76-1.7,1.47-1.52,2.47-.64l.07-.45c-.02-.35.4-.34.5,0,1.38-1.24,2.33-2.4,1.79-4.36.93-1.05.95-1.77.05-2.13l-.35-.95c-1.1-.45-2.25-1.21-2.48-2.48-1.07-.89-2.38-2.05-3.35-3.03-.11-.11.13-.37.37-.45Z" fill="#d8a821"/>
          <path d="M45.48,89.4c.14.39.39.39.74,0,.17,0,.33,0,.5,0,.19.27.44.27.74,0,.17,0,.33,0,.5,0,.35.66.6.83.74.5,1.52-1.55,1.38,3.01.82,3.47-11.9.03-23.75-.05-35.58-.25-.63.02-.42-3.32-.3-3.46h25.79c1.35.24,2.76.19,4.23-.15l.32.38c.19.25.44.08.74-.5.25.02.5-.01.74,0Z" fill="#68b1de"/>
          <path d="M15.69,37.77c-.53.08-.65-.3-.32-.71.54-.66,2.12-.36,2.84-.08.95-.93,3.39-1.34,4.57-.57.53-.86,2.02-.98,2.31.07.56-1.28,1.49-1.1,2.35-.22-.19-1.32,2.41-1.38,2.19-.08.29-.9,1.02-1.23,1.81-.66.55-.63,1.16-.36,1.74.1.77-.42,2.15-.5,3-.26l1.07.69c.64-.57,1.24-.97,1.79-.03.61-.45,1.13-.15,1.21.57.4-1.01,1.2-.75,1.77,0,.53-.85,1.38-.82,1.71.17,1.01-.54,2.21-.25,2.91.64.74-.66,1.42-.66,1.98.21.92-.33,1.76-.18,2.29.64.85-.14,1.96-.31,2.54.48.76-.68,2.26.46,1.21,1.02.14.74,0,1.59-.43,2.54l.18.69c0,.08.27.31.15.75-.44,1.58-1.49.59-2.2.78-.07.02-1.12.67-1.17.71-.3-.18-.71-.68-1.24-1.49-.21-.17-.04-.34.5-.5,0-.67,1.07-.31,1.01-.33-5.39-1.69-11.32-2.59-16.96-2.89-.94-.3-1.91-.47-2.91-.51-.09.71-1.45.91-1.74.25-.58-.11-.87.05-.9.49-2.87-.24-5.91-.09-9.14.44l-.63-.44c-.47-.14-.47-.36,0-.5l-.24-.09c.12-.6.08-1.05-.51-1.4-.36.61-1.16.12-1.24-.5-.23.64-.51.64-.74,0-.13.26-.3.43-.5.5-.42.3-.48-.15-.25-.5Z" fill="#d5a82f"/>
          <path d="M37.04,79.97c.16.45,1.54,2.56,1.92,3.16.74,1.18,1.76,1.75,2.05,3.29-.14.64-.26.6-.5,0-.59.2-.65.12-.5-.5-.3-.1-.5-.37-.6-.83-.82,1.56-2.51-.97-2.16-2.07-.8-.28-.88-.81-.84-1.57l-.58-.03c-.14,1.09-.78,1.57-1.8,1.04-.43.49-.97.41-1.27-.17-.73.93-1.88.76-2.35-.31-.42.97-1.55.83-2.39.56-.39-1.81-1.39-1.56-1.69.04-1.37.22-1.66.42-.87.6.46,1.5-1.44,2.74-2.78,3.02,0,.95-.5,1.27-1.52.96.34.66-.29.83-.94.61.01.37-.14.56-.55.63.29.29.99.42,1.49,0,.23-.48.52-.48.74,0,.44.15,1.02.32,1.74.5.66-.72,2.14-.66,2.98-.25.65.17,1.33.15,1.99,0,.04-.39.63-.37.74,0,.38-.29,1.11-.21,1.49,0,.37-.29.7-.26.74.25.59-.37,1.58-.65,1.99,0,.31-.48.68-.48.99,0,.51-.48,1.24-.52,1.74,0,.14-.47.36-.47.5,0,1.18-.65,2.52-.8,4.01-.46.08-.26.32-.48.59-.52.22-.03,1.55.66,1.6.98.21.04.39.16.49.35.2.39-3.26.85-3.74.4-6.88.15-13.74.07-20.58-.26.07-.45-.1-2.63,0-2.73.13-.13,1.69.21,2.23-.12.27-.16,1.05-1.66,1.39-2.09.4-.51.96-.88,1.3-1.43.71-1.11.65-2.26,2.03-3.06-.06-.55.37-.7.63-.25h9.08c.53-.37,1.01-.43,1.21.25Z" fill="#d5b548"/>
          <path d="M38.03,67.81c.22-.21.42-.33.5,0-.7.23-.36,1.04-.74,1.37-.27.23-.95.18-1.19.42-.79.79.51,1.28-1.79,1.44-.29.66-.49.7-.74,0-1.54.8-3.67.81-5.21,0-.13.64-.46.64-.99,0-2.52-.2-1.27-.94-1.77-1.46-.11-.11-1.05.02-1.46-.4-.35-.36-.31-1.14-.49-1.62.63-.52,1.49-.52,2.58.02,3.6-.03,7.23-.11,10.87-.23l.45.46Z" fill="#ebc634"/>
          <path d="M27.85,11.21c-1.11.02-2.3-.16-2.97-1.12.21-.76,2.15-1.02,2.23-1.12.12-.13-.73-1.89,1.49-1.49-1.57-1.41.86-5.4,2.36-5.48,1.36-.08,3.54,2.51,3.59,3.9.02.7-.48.96-.49,1.59,1.92-.32,1.15,1.41,1.24,1.49.1.1,1.25-.21,1.48.37.02.38-1.39,1.53-1.73,1.62-.16.81-.9.54-1.24,0-.6-.12-.55-.5-.08-.87l-.35-.72c.46-.93-.79-.73-.29.23-.29.45-.46.9-.51,1.36-.47.3-1.05.48-1.75.55-.9-.26-1.77-.25-2.59.02l-.37-.32Z" fill="#7f973a"/>
          <path d="M13.46,93.38c-.25-.63.05-.75.5-.25h35.5c-.16-.85.21-2.36.01-3.09-.08-.31-.61-.06-.76-.14-.34.18-.59.02-.74-.5.03,0,.15-.22.53-.2.43.03,1.53.2,1.67.6.17.51.31,3.87-.59,3.82l-36.12-.25Z" fill="#5c9fc7"/>
          <path d="M46.47,54.4c.48-.42.54-.38.5.25.74.51.33,2.22-.88,1.58-.79-.59-1.29-.35-2.09.06-.23.61-.56.39-1-.65-.58-.96-1.81-.12-2.42.44l-.42-.26c-.02-1.3-1.68-2.01-2.63-1.17-.8.58-1.3.58-1.49,0-.39-.44-.75-.79-1.39-.7l-.1-.3c-.11.23-1.25.45-1.46.4-1.8-1.53-2.48-1.13-4.23.13-1.5-.12-2.91-.3-4.24-.53-.23.54-.62.52-1.12.45-.53.65-1.79,1.95-2.35,1.04-.56-.39-1.06-.33-1.49,0-.34.37-.61.83-.84,1.38-.58-.7-1.57-.67-2.41-.63l-.23-.25c-.14-.06-.53.05-.75,0,0-.6.29-1.12.25-1.74.14-.24.39-.16.74.25.09-.16.18-.32.3-.45,1.36-1.54,12.87-2.03,15.36-2.01,2.75.03,12.29.58,13.99,2.22.15.14.27.31.39.49Z" fill="#f2c634"/>
          <path d="M44.74,89.4c-.11.44-.36.61-.74.5-.45.17-1.69-.14-2.31,0-.16.04-.13.78-1.24.48-.2-.05-.07-.45-.53-.51-.78-.1-7.22-.12-7.54.09-.12.08.06.38-.18.43-.56.12-.29-.34-.42-.43-.16-.11-2.46-.15-2.77-.07-.26.07-.06.45-.29.5-.56.12-.29-.34-.42-.43-.29-.2-6.8-.19-7.1,0-.12.08.06.38-.18.43-.56.12-.29-.34-.42-.43-.53-.37-5.57.14-6.65-.07v3.23s-.5.25-.5.25c-.58-.58-.08-3.05-.25-3.97,1.98,0,3.98,0,5.96,0,7.6-.03,15.41.25,22.97,0,.48-.02,1,.25.86-.5.08-.21.16-.21.25,0,.09.02.86.45,1.49.5Z" fill="#72a7c3"/>
          <path d="M32.57,10.96c.15-.76.88-.61,1.24,0,.38-.05.92.08,1.24,0l.72,2.38c.03.94-.77,1.45.27,1.59,1.06,1.38-.84,2.93-1.99,1.49-.28-.07-.49-.17-.41-.43.22-.64.55-1.44,1.01-1.85-.1-1.56-.7-2.9-2.27-1.73-.62-.19-1.15-.18-1.59.02-3.11-1.41-2.75.96-1.69,3.11,1.76.3.71,2.72-.01,1.12-1.05.9-3.23-.05-2.48-1.49.94-1.03.27-1.33.55-2.56.11-.51.66-.86.69-1.42,1.54-.03,3.24-.2,4.72-.25Z" fill="#ceac43"/>
          <path d="M15.19,31.81c.16.44-.09.6-.74.5.4.42.13.93-.25,1.24.45.44-.56,1.3-.96,1.48-.15.07-.17-.4.22.26-.23.1-.41.33-.75.25l.25.49c-.65.67-1.26.05-1.69-.59-.52-1.53-1.34-2.71-2.86-1.41,1.59-.96,3.61,1.18,1.26,1.41,3.43,1.22.28,3.43-1.18,1.08-.44.57-.71.46-.74-.25-2.06-1.56.87-5.8,3.6-3.23.41.39.53,1.37.96,1.22.23-.08,1.44-1.02,1.52-1.22.14-.33-.13-1-.13-1.49.4-.54.97-1.28,1.49-1.49.47.95.47,1.53,0,1.74Z" fill="#d9ab23"/>
          <path d="M55.41,36.28c-.74.76-1.32,1.23-2.48.74.12.45-.48.68-.76.44-1.13-.95.15-1.51,1.07-1.86-1.45-.63-.62-2.02.77-1.81-.91-.55-1.69-.03-1.95.91l-.61.09c-.38-.05-.9.08-1.24,0-.35.35-.49.2-.25-.25-.64-.51-.1-.75.5-.25.01,0,.11.23.24.13.94-.68.97-2.69,3.3-2.06,1.97.53,2.15,2.29,1.43,3.91Z" fill="#d1a83b"/>
          <path d="M41.01,86.43c1.95.1,3.12.3,2.23,2.48-.08-.02-.17.02-.25,0-.29-.07-.75.1-1.07,0-.26-.08-.07-.45-.29-.5-.57-.12-.25.43-.53.5-.25.07-1.41.06-1.67,0s-.06-.45-.29-.5c-.57-.13-.25.43-.53.5-.43.11-1.29-.02-1.83,0-.7-.48-.29-.81,1.24-.99l.19-.34c1.36.23,2.29-.15,2.79-1.15Z" fill="#ebc63e"/>
          <path d="M27.85,78.73l-.02.38c2.37-.24,4.86-.18,7.24,0l-.02-.38c-.5-.15-1.01-.57-.5-.99.55.9,1.82.58,2.25.85s.13,1.08.23,1.38h-10.92c-.21-2.23.21-1.11,1.24-1.61.47-.23.55-1.07.99-1.37.55.47-.08,1.25-.5,1.74Z" fill="#71abc0"/>
          <path d="M29.1,17.16c1.69,1.2-1.44,1.72-2.47,1.21.13.83.06,1.6-.22,2.31l-3.19,3.62-.58.06c-.59-.14-1.57.1-2.23,0,.36-.25.94-.41,1.74-.5.22-.15,3.36-3.89,3.44-4.15.43-1.54-2.22-.9-.96-2.8,1.46-.34,2.95-.26,4.47.25Z" fill="#cfaa43"/>
          <path d="M38.03,16.91c.07.06.44.43.5.5l.05.41c-.9.67-1.25,1.36-1.04,2.08.21.47,2.69,3.41,2.98,3.48.65.17.64.28,0,.5-.16-.02-.37.04-.5,0-.51.38-1,.02-1.45-1.08-1.72-1.19-2.51-2.65-2.4-4.38-.83,1.16-3.72-.34-3.25-1.37.22-.48.75-.43.89.12.31-.18.72-.21,1.25-.1.98-.45,2-.77,2.97-.15Z" fill="#ceac43"/>
          <path d="M8.74,37.27c.57.36.43.81-.43,1.35.33.75.7,1.5,1.09,2.26l-.17.36c.87.28,1.27.83.5,1.49.66.29.65.45,0,.74l.97.08c.78-.37,1.28-.31,1.51.17.35.07.53.32.54.76.37-.25.68-.26.95-.02.35-.27.47-.13.25.25.52.65-.22.9-2.23.74.22.05.21.13,0,.25-.42-.27-1.06-1.23-1.32-1.41-.32-.23-1.06-.16-1.3-.57s-.04-1.2-.22-1.76c-.21-.66-.83-.51-1.14-1.72-.89-.92-.15-4.03.99-2.98Z" fill="#d0af55"/>
          <path d="M12.46,45.71l.8.45c.77,1.2,3.65,6.53,3.38,7.52-.04.16-.12.32-.21.47-.03.01-.04.19-.13.19-.14,0-.42-.36-.62-.44-.03-.46-1-2.5-1.27-3.07-.64-1.33-2.45-3.84-2.7-5.12-.02-.08.01-.17,0-.25.3-.26.94-.17.74.25Z" fill="#aa3028"/>
          <path d="M50.44,46.21c-1.21,2.01-2.23,5.42-2.98,7.7-.03.65-.2.9-.5.74-.21.01-.37-.2-.5-.25l-.16-1.01c.37-1.36,2.31-6.89,3.13-7.44.15-.1.33-.18.51-.24-.1-1.25,1.22-.68.5.5Z" fill="#ad362f"/>
          <path d="M44.49,26.35c.47.14.47.36,0,.5.49.06.93.73.96,1.15l.77.34c1.14,1.11,1.32,1.4,2.23,2.62.18.24.64.29.7.4.28.47-.28,1.21-.08,1.69s1.15.71,1.37,1.25c-.18,0-.52,0-.5.25-.5.65-1.38-.06-.99-.74-.68-.45-.84-.86-.5-1.24-.21-.18-.38-.43-.5-.74-.28-.19-.45-.52-.5-.99-.63-.04-1.24-.46-1.82-1.26-.93-.49-1.48-1.06-1.65-1.72-.73-.39-.68-.82,0-1.24-.22-.06-.21-.15,0-.25.17,0,.33,0,.5,0Z" fill="#d0ac45"/>
          <path d="M41.01,63.34l-.25-.46c1.61-1.42,2.73-.79,1.74,1.21.54.5-1.11,2.05-1.59,2.25-1.03.41.03-.6.1.24-.7.45-1.59,1.09-2.48,1.24-.15.03-.33-.01-.5,0-.59-.82.5-1.12,1.21-1.26.6-1.12,1.19-2.19,1.77-3.2Z" fill="#e9a039"/>
          <path d="M34.81,71.03c-.69,2.22-.89,4.46-.25,6.7.11.39.22.69.5.99-.05.42-.66.47-.99.3-1.65-.88-1.2-6.18-.63-7.78l.62-.21c.25,0,.5.02.74,0Z" fill="#3f7da7"/>
          <path d="M22.14,23.87c-.32.22-1.3.42-1.74.5s-1.09-.15-1.44.05c-.2.11-.88,1.57-1.29,1.81.75.35.93-.27.99.62-.1.71-1.12.54-1.49,0-.31-.53-.72-.46-.49-1.61.42-2.18,3.94-1,5.46-1.37Z" fill="#dcb444"/>
          <path d="M28.85,71.03c1.4.55,1.24,2.93,1.13,4.3-.09,1.09-.79,4.14-2.12,3.4.22-.58.36-1.13.5-1.74.48-2.2.84-3.94-.5-5.96.33.03.66-.01.99,0Z" fill="#3779a7"/>
          <path d="M44.98,60.36c.41-.04.41.21,0,.74-.71,2.17-2.1,4.27-3.97,5.46l-.62-.25c1.01-.42,1.52-1.4,2.11-2.24l.41-1.48c.52-1.8,1.21-2.54,2.08-2.24Z" fill="#a53e29"/>
          <path d="M18.17,59.86c.88-.1,1.77,2.15,1.74,2.98l.54.04c.43,1.39,1.16,2.62,2.19,3.69.48.14.48.36,0,.5-2.2-1.02-4.46-4.27-4.72-6.7-.53-.47-.38-.84.25-.5Z" fill="#ab5037"/>
          <path d="M46.72,56.63s.37.92.5,1.11c-.05.23-.99.57-1.24.63-.13.93-1.09.3-1.49-.25-.53-.21-1.39-1.61-.88-1.92.74-.45,2.66-.41,3.11.43Z" fill="#53879b"/>
          <path d="M55.41,36.28c-.34.75-.43.42-.49.5-.49.67,1.74,1.08,1.89,1.55.52,1.56-.61,2.01-1.9,2.17-.16-.23-.15-.5,0-.74l.26-.47c1.48-.11.87-.57-1.84-1.36-.44-.2-.57-.42-.41-.9l2.48-.74Z" fill="#f8f4cb"/>
          <path d="M36.05,14.93c.11.01.47-.04.5,0,.11.15-.11,1.39,0,1.49.05.05.77-.05,1.08.04.33.1.32.37.41.45-1.88-.56-2.61,1.52-4.22.25-.67-.22-.46-.81.25-.74,1.39.07,2.23.22,1.99-1.49Z" fill="#f4ebb5"/>
          <path d="M40.51,23.37c1.69.37,3.5-.37,5.14.43.94.46,1.05,1.98.82,2.88-.07.28-.47.13-.5.16-.23-.81-.38-1.66-.5-2.48-1.2-.97-1.37-.2-2.37-.24-.76-.03-1.79-.17-2.59-.26v-.5Z" fill="#faf5d7"/>
          <path d="M17.18,58.37c-.35-.02-1.02-.53-1.49-.5-.21-.3.48-1.31.74-1.49-.07-.93,1.36-.48,2.02-.21.41-.68.71.69.64.96-.04.16-1.52,1.73-1.92,1.24Z" fill="#437688"/>
          <path d="M29.1,16.67c.43.34.43.5,0,.5-1.66,1.01-2.54-.75-4.47-.25.43-.64,1.33-.49,1.99-.5.14-.09-.56-.5-.49-.85.05-.24.4-.29.49-.39-.09,1.53,1.39,1.16,2.48,1.49Z" fill="#f6eeb9"/>
          <path d="M19.66,55.15c.24-.42,1.2-.42,1.49,0,.48.14.47.36,0,.5l-.39.38c-1.38-.47-1.39,1.24-.02.74l.41.37c.39.01.37.37,0,.5-.32.49-1.03.65-2.12.49-.35.58-.81,1.2-1.36.51-.14.48-.36.48-.5,0v-.25c.67.04,1.66-1.23,1.48-1.84-.19-.64-1.74-.47-2.22-.15-.03-.18-.14-.69-.25-.74.83-.48,2.36.56,2.48.49.04-.02.22-.52.52-.8.2-.19.44-.16.47-.19Z" fill="#aab473"/>
          <path d="M49.95,43.73c1.46-.13.78.11.99.81.1.32.8.01.25.68-.07.07-.66.85-.74.99v-.75s-.47.26-.5.25c-.26-.13-.43-.3-.5-.5-1.03-.29-.46-1.89.5-1.49Z" fill="#7a8067"/>
          <path d="M47.47,89.4c-.08.45.16,2.93-.13,2.98-.47.08-.6.15-.62-.36-.04-.84-.12-1.81,0-2.62.17,0,.45,0,.74,0Z" fill="#2f81bb"/>
          <path d="M46.22,89.4c-.08.45.16,2.93-.13,2.98-.48.08-.59.15-.62-.37-.04-.87.03-1.75,0-2.61.15,0,.5,0,.74,0Z" fill="#2c7db8"/>
          <path d="M31.58,53.66l.51-.47c.6.88,2.11.87,2.47.47.62.08,1.42.04,1.49.99.43.07,1.02-.01,1.49,0-.32,3.31,4.21.45.36.46l-.36-.46s-.15-.44.15-.51,1.34-.04,1.66.02,1.21,1.78,1.65,1.45c.04-.03-.04-.42.18-.47.26-.07,1.65-.05,1.78.06.12.1.01.41.04.44,1.27,1.13,1.42.07,1.66,0,1.31-.33,1.32.43,1.49.48,1.33.38.65-.71.83-1.48.04-.18.42-.52.5-.74,0,1.24.69,2.04-.74,2.73-.44-.43-2.38-.72-2.71-.23-.17.25.33,1.58.48,1.72.31.28,1.08.34,1.49.25.4,1.65.18,1.68-.99,2.73.06-.18-.05-.52,0-.74-.22-.06-.21-.14,0-.25l.04-.58c-.93-.6-1.11-1.06-.53-1.4-.2.34-.53.35-.97.02-.87.98-3.34.5-2.01-.52.77-.49,1.26-1.15,1.49-1.99-.94.16-1.6.66-1.99,1.49-.22.33-.58.32-1.08-.04-.98,1.17-2.6.62-3.42-.5-.54,1.08-3.82.65-2.46-.45.2-.32.63-.42,1.29-.31.13-.58.36-.98.69-1.18-.21.35-.64.37-1.27.06-.13.65-.37,1.12-.71,1.43-.24.27-.44.36-.69.13-.4.69-1.34,1.28-1.79.36-.17-.48.06-1.01.68-1.6-.59-.47-.82-.93-.68-1.38Z" fill="#c7c261"/>
          <path d="M16.68,28.33c.53.46-.47.84-.99.99.15.34-.17.68-.5.74-.46.55-.61,1.19-1.49,1.49,0-1.09.54-.76.91-1.32.14-.21.02-.61.16-.83.43-.66,1.28-.77,1.9-1.07Z" fill="#f7efc4"/>
          <path d="M8.49,36.53c.59.38.67.63.25.74-1.56.29-1.31,1.75-.99,2.98-1.47-1.23.14-2.59,0-3.97.05.04.53.15.74.25Z" fill="#f4ebbd"/>
          <path d="M45.98,26.84c-.11.11-.59.87-.49.99.03.04.41.18.74.5-.95-.09-1.71-.48-1.74-1.49.27-.3,1.43-.66,1.49,0Z" fill="#f7f0c5"/>
          <path d="M54.91,40.5c-.06.81-.41,1.47-.5,2.48-1.31-.72.56-2.03.25-3.23.08-.21.16-.21.25,0-.01.25.02.5,0,.74Z" fill="#f4e3a4"/>
          <path d="M19.91,62.84c-.71-.99.77-1.25,1.43-.41.43-.85,1.24-1.13,1.87-.36.28-1.07,1.22-1.32,1.95-.49.7-.78,1.35-.49,1.92.25.35-2.21,1.6-1.84,2.66-.42.57-3.16,2.15-1.54,2.93.55l.65.15c.64-.28.75.05.25.5.79.59-.34,1.76-.74.74-.44.49-.77.24-.99-.74-.43-.08-.85-.08-1.24,0-.36.74-1.1.69-1.49,0-.17.26-.42.35-.74.25-.07.96-.48,1.64-1.24.74.02.76-.45.6-.74,0-.2.59-.62.59-1.24,0l-.5.25c-.23.45-.72.45-1.49,0-.16.19-.41.19-.74,0-.22.69.02,1.49.72,2.4l-.47.33c.23-1.01,2.25.52,1.49.99-.31-.05-.68.07-1.07-.05-.31-.1-.38-.43-.42-.45,0-.17,0-.33,0-.5-1.98-.61-2.07-2.34-2.73-3.72Z" fill="#e49a2f"/>
          <path d="M18.67,26.84c.08,1.14-.3.65-.99.99-.06-.36-.32-.69-.5-.99h1.49Z" fill="#f7efc4"/>
          <path d="M17.18,28.09v.74c.28.66-.15.87-.74.5-.45.27-.7.27-.74,0,.3-.35.81-.52.99-.99.17-.08.32-.17.5-.25Z" fill="#d2b049"/>
          <path d="M17.68,58.62c.36.21.53.55.5.99.23.06.22.14,0,.25,0,.03-.3.02-.25.5-.78-.31-.82-.99-.74-1.74.16-.01.34.02.5,0Z" fill="#d9bf71"/>
          <path d="M38.53,17.41c.91,1.11-1.51,1.17-.99,2.48-.79-1.81.69-.98.99-2.48Z" fill="#f4ebb5"/>
          <path d="M12.96,36.03c1.8.32,1.58-.68,1.87-.75.31-.08.83.87,1.85.37.23-.11.43-.56.66-.6.27-.05.6.42.98.48,1.45.23,1.54-1.16,2-1.24.28-.05.55.41.77.45.33.06.61-.5.91-.44.24.05.43.5.66.6,1.2.51,3.06-.07,4.21-.12.78-.6,1.84-.79,3.19-.57,1.08-.36,1.92-.26,2.52.32,3.31.04,5.08.5,8.55.04,1.73-.23,2.38.91,3,.97s1.01-.51,1.43-.45c.29.04.79.56,1.36.65.43.07.82-.16,1.14-.12,1.76.22,2.21,1.11,3.39-.83.47-.77.42-1.5,1.68-1.69,1.54-.24,2.56,1.95,2.04,2.44-.77.74-.67-1.06-1.14-1.22-.97-.34-1.85.91-.1.85-.09,1.17-1.03.94-1.74,1.49-.14.66.5.25.74.37.2.09.44.4.81.55.69.28,2.59.52,2.68,1.31.1.92-.83.98-1.51.87-.09-.02-.22.03-.25,0-.02-.02.07-.32-.17-.5-1.51-1.13-.28.82-.36,1.31-.03.17-.75,1.4-.83,1.43-1.38.4.08-1.04.12-1.63.03-.38-.27-1.45-.61-1.6-.79-.35-.52.51-.87.86-.31.31-2.15,1.92-2.48,1.62-.23-.76,2.98-2.27,2.48-2.73-1.66.69-1.41-.29-1.89-.46-1.84-.65-2.98,1.93-4.56,2.44-.51-.54,3.04-2.48,2.48-2.98s-1.1.66-1.61.5c-.28-.09-.02-.95-1.5-1.02-1.22-.06-.72.37-1.22.77-.4.33-2.27,2.05-2.62,1.73-.54-.49,2.38-1.9,2.23-2.6-.26-1.19-.92.2-.98.25-.6.51-.85-1.22-1.5-.62-.32.29.74,1.01.74,1.12,0,1-2.05-.51-1.74-1.37-.5-.47-2.47,3.41-3.22,2.73-.33-.29,2.36-2.64,1.98-2.98-.5-.44-.7.65-1.35.5s-1.34-1.27-2.32-.7c-.27.16-1.43,2.69-1.91,2.92-.4.2-.43-.15-.27-.52.38-.85,1.21-1.62,1.64-2.46-.58-.18-.94.49-1.36.5-.07,0-.46-1.04-1.12-.5-.41.34,1.37.93.62,1.49-.36-.15-1.06-.58-1.3-.83-.2-.2.2-.95-.68-.67-.4.13-1.58,3.58-2.6,2.86l1.49-2.86h-1.49c.66,3.12-.99,0-1.85.25-.39.12-1.3,2.88-2.01,3.22-.52.1-.4-.2-.32-.57.2-.91.99-1.45.94-2.41-2.39-.19-.9.93-.99.99-1.06-.06-1.45-1.12-2.73-.74.31,1-.34,2.12-.87,2.98l.62-2.98c-.35.29-2,.18-1.98.62.02.29,1.01.2.74.87-1.15-.46-2.24-1.09-3.56-.75-.28.07-.12.44-.16.5-.06.22-.14.22-.25,0-.28.73-.93.68-1.24,0-.2.4-.48.8-.83,1.19.15,1.65-.32,2.34-1.4,2.07-.75-1.78-3.9-3.06-1.36,0-.27,1.07-.76.98-1.37.22-.66-1.1-.61-.88-1.07-2.17-.04-.1-.57.03-.42-.67.04-.2,1-.44,1-1.13,0-.26-.13-.52-.25-.74.75.34,1.76.94,2.48.12-.84-.57-2.09-.51-1.98-1.86l1.24.25c.61-.6-2.32-1.65-1.74.74-.61.75-1.69-2.51.87-2.75s1.37,2.6,3.6,3Z" fill="#efc532"/>
          <path d="M29.1,16.67c.15.05.44.33.49.25l-.02-.72-2.21-.64,1.24-.13c.16-.17-1.53-2.03-.42-3.4,1.04-1.29,2.15.01,2.77-.06.15-.02.02-.7.75-.52.09.02.13.5.25.52.48.05.81-.4,1.26-.5,1.5-.34,2.23,2.2,1.84,3.47-.47-.35-.67-.26-.5.37.04.16.75-.03.5.62-1.22-.12-.79,0-.99.5-.08.2-.22.72-.25.74-.03.03-.94-.09-.38.5.14.14,1.55.74,1.75.73.54-.01,1.39-1.39,2.35-.99.11.75-.64.46-.89,1.22-.52,1.59,1.36,2.85,2.29,3.82.36.38.56,1.25,1.08,1.4l-.62,1.24-6.46-6.95-.75-.49-.12.74-.36.29c-.78-.13-1.63.04-2.13.7.32.47,0,.72-.5.5-.2.41-.59.84-.99.5-.93.73-4.26,4.72-4.59,4.71-.11,0-.53-.66-.87-.74.22-.84,3.4-3.8,3.47-4.15.06-.3.07-1.86-.03-2.02-.16-.27-1.19.01-.96-.78,1.27-.47,1.51.66,2.3.66.23,0,1.6-.11,1.67-.17.03-.03,0-.56,0-.74,0-.17,0-.33,0-.5Z" fill="#eec031"/>
          <path d="M17.18,28.83c.68-.41,2.33-.96,2.96-1.38.28-.19.35-.75.66-.82.24-.06.75.31.85.21.37-.36-.39-1.52-1.39-.76-.31.24-.22.94-.71.76-2.54-.92,2.89-4.08,3.34-1.09.3,1.96-2.12,2.92-3.4,3.78-.18.12-.88.52-.57.79.39.35,2.4-.96,2.81-1.28.54-.42,1.42-1.67,1.53-1.7,1.41-.45.13,1.67.16,1.82.05.28.6.46.46.91-2.35.08-3.15,1.87-2.48,3.97-.89,0-1.12-1.06-1.42-1.69-.16-.34.16-.68-.56-.54.2,1,.49,3.39-1.16,2.79-1.38-.5-1.28-2.32-1.8.33-.67.49-1.31-.5-1.86-.41-.19.03-.21.5-.4.63-.3.2-.61.08-.74.13-1.7.21.07-1.12.74-1.74.19-.4.27-.81.25-1.24.36-.88.13-.22.74-.5l.64.04c1.1,1.07,2.89.25,2.21-1.17-1.72,2.69-4.31-.3-1.61-1.35.23-.15.52-.36.74-.5Z" fill="#f1c830"/>
          <path d="M50.2,34.79c.44.66.23.49-.38.5-1.66.03-1.04-.59-1.5-.74-.58-.19-2.3,1.77-2.09-1-.16-.2-1.27,1.99-2.82.77-.72-.57.84-2.59-.03-2.5-.38.04-1.28,2.81-1.86,2.23.78-2.18-.11-3.84-2.48-3.97,1.12-.93-.24-1.49.01-2.34.32-1.08,1.57.83,2.14,1.3.42.35,2.35,1.67,2.81,1.28.43-.36-1.79-1.33-2.07-1.53-1.7-1.23-3.22-4.23-.06-4.19,1.43.02,1.9.37,2.13,1.75.01.08,0,.17,0,.25-.19.46-.21.78,0,1.24,1.69,1,2.3,1.47,3.48,2.98.13,1.74-1.98.99-2.61-.22-1,1.2,1.71,2.65,2.55,1.12l.56.09c.08.06.44-.06.5,0,.06.07-.04.54,0,.75-.14.48.03.89.5,1.24.35.26.38.48.99.74.08.03.16.23.25.25Z" fill="#f1c830"/>
          <path d="M30.58,21.38c.51-1.52,2.32.67,1.49,1.49.43.39.62,1.09.6,2.08,1.7.58,1.81.93,1.3,2.74,1.06-.32,1.07,1.05.59,1.63-.1.42-.26.59-.5.5-.33.25-1.48,1.33-1.74.37-.16-.61,1.83-2.24-.49-1.11-.41-1.46.06-3.12-.62-4.47-.84,1.25-.21,3.08-.13,4.47-.24.26-2.06-1.77-.74.99-.38-.05-.9.08-1.24,0-.09.17-.16.3-.19.29-1.14-.41-1.38-1.45-.53-2.36-.33-1.04-.16-1.85.51-2.42-.16-.84-.08-1.16.76-1.5.11-1.13.42-2.02.94-2.69Z" fill="#efc531"/>
          <path d="M35.05,21.88c.2.25.2.42,0,.5-.14.47-.36.47-.5,0-.98,1.36-1.66.46-1.82-.91-1.65-2.6-2.75-1.07-3.65.91.36.12.35.59,0,.74-1.1-.01-1.6.68-1.5,2.06l-1.59.4c.99.28,1.47.43,1.2,1.61-1.34,1.31-1.05,2.65.4,3.62.44-.05.34.35,0,.5.28.35.13.49-.25.25-.21.04-.6-.06-.74,0-1.44.47-1.73-2.9-1.51-4.14l-.48-.57c-.07-.61-.83-.28.04-1.77.49-.84.94-.53,1.37-.8.47-.29.77-1.32,1.08-1.9.44-.31.85-.64,1.24-.99-.23-.56.32-1.12.74-1.49.08-.04.19-.36.5-.5,1.45-1.31,2.99-.67,4.63,1.92l.84.56Z" fill="#538585"/>
          <path d="M27.36,31.56c.08-.1.07-.19.25-.25.04-.67.29-.64.5,0,.52-.64.85-.72.99-.25.9-.08,1.47.27,1.7,1.18.22.85-2.19,2.1-2.19.56l1.24-.49c-2.13-1.06-2.79,1.32-4.51,1.82-4.77,1.38-4.1-3.9-1.08-3.31,1.89.37-.59,3.95-1.11,2.11-.12-.42.86-1.26.12-1.36-1.04-.13-1.26,2,.27,2.24,1.19.19,2.68-.66,3.48-1.48.29-.29.26-.63.35-.76Z" fill="#efc035"/>
          <path d="M35.55,31.81c.52.37.84,1.18,1.76,1.59.6.26,1.7.52,2.33.4,1.26-.23,1-2.37,0-2.24-.74.09.24.94.12,1.36-.33,1.18-2.24-.11-1.71-1.69.28-.83,2.85-.35,2.98.95.27,2.86-2.65,2.39-4.41,1.42-1.19-.66-1.96-2.07-3.55-1.28l1.24.99c-2.81.98-2.93-2.58-.25-2.23.08-.55,1.37.2,1.49.74Z" fill="#efc134"/>
          <path d="M26.86,34.79l-.99-.49c.68.24.75-.46,1.05-.58.97-.39,2.34.39,3.5.03.62-.19.6-1.39,1.37-.9.47.29.17,1.14,2,1.07,1.2-.04,1.25-1.38,2.75.5l-3.97.12c-1.74-.02-3.91.17-5.71.25Z" fill="#d56918"/>
          <path d="M37.54,24.36c.47.5,1.88,1.3,1.76,2.09-.03.16-.7.27-.91.88-.28.83.23,1.37.11,2.06-.15.92-1.75,1.49-1.21,2.91-.49.07-.81-.36-1.24-.5-.56-.04-.56-.36,0-.5-.22-.1-.33-.26-.21-.45.93-1.49,1.11-2.01.86-3.86l.34-.15-.22-.71c.42-.55.66-1.14.71-1.77Z" fill="#ebc83b"/>
          <path d="M30.58,21.38c.01.75-.46,1.38-.52,2.12-.04.44.26.92.26.99-.06.63-1.1-.02-1.23.12-.22.24.32,1.67.25,1.74-1.84-.32-.67,1.1-.5,2.23-1.45-.2-.74,1.25.25,1.49v.99c-.05,0-.76.2-.99.25-.22-.39-.39-.89-.5-1.49-.6-.53-.53-1.22.23-2.09-.1-.85-.01-1.48.26-1.89-.03-1.06.34-1.82,1.1-2.28.04-.58.17-.98.39-1.2-.44-.39-.14-1.12.5-.99.27-.35.39-.46.5,0Z" fill="#ceac37"/>
          <path d="M24.63,26.84c1.68-.25.72.61.73,1.61,0,.87.14,2.94,1.26,3.11-.04.02-.13.35-.41.45-.82.29-.5-.31-.78-.87-1.1-2.21-.55-2.12-.8-4.3Z" fill="#e1cb5c"/>
          <path d="M32.07,18.4s-.04.31.09.4c1.26.98,1.87,2.04,2.89,3.07.77.77,1.72,1.66,2.48,2.48-.04.42.09.92,0,1.31-.06.25-.42-.1-.49,1.17-1.2.08-1.16-1.14-.26-1.93l-.42-.55c-1.66-.55-2.1-1.21-1.3-1.99-.02-.15.04-.45,0-.5-.03-.04-.68-.11-.99-.37-1.69-1.44-1.63-3.34-4.48-2.11-.09-1.01,1.95-1.28,2.48-.99Z" fill="#bfbb63"/>
          <path d="M45.98,26.84c-.26.11-1.11-.08-1.49,0,0-.17,0-.33,0-.5.28,0,1.05.18.99-.25-.75-.05-.78-1.05-1.24-1.49.54-.41,1.48,1.33,1.24-.25.66.53,1.17,2.18.5,2.48Z" fill="#d7b451"/>
          <path d="M34.56,29.33c.21.37.37.87.5,1.49.07-.21.16-.21.25,0,.35-.01.6.18.74.5-.04.12.03.34,0,.5-.13-.04-.34.03-.5,0-.09-.06-1.41-.73-1.49-.74v-1.24c.12-.09.16-.4.5-.5Z" fill="#c3a848"/>
          <path d="M29.1,19.89c0,.66-.48,1.03-.74,1.49-.07.18-.16.18-.25,0v-.99c.67-.53.68-.32.99-.5Z" fill="#bfbb63"/>
          <path d="M28.1,21.38h.25c-.36.63.14,1.24-1.24.99.22-.4.39-1.06.99-.99Z" fill="#abb379"/>
          <path d="M48.71,89.9v2.48s-.74,0-.74,0v-2.98c.52-.19.58.41.74.5Z" fill="#2e7eb6"/>
          <path d="M44.74,89.4v2.98c-1.2-.03-.63-1.66-.74-2.48.12-.05.24-.7.74-.5Z" fill="#2c7cb2"/>
          <path d="M29.84,39.75c-.35.77-.56,1.63-.64,2.58l-.6.15c-.82.31-1.12-1.01-1.1-1.68-5.7.28-11.32,1.21-16.87,2.78l-.9-.1c-.06-.16.03-.52,0-.74.42-1.49,3.07-1.89,4.47-1.98,1.46-.7,3.47-.9,4.96-.51,1.95-.23,4.11-.07,6.07-.51h4.6Z" fill="#efc636"/>
          <path d="M31.58,39.51c5.45-.26,15.36,1.39,20.6,3.11.35.11,2.39.71,1.74,1.36-.12.13-2.65-.69-3.47-.74-2.42-.43-4.84-.88-7.26-1.35-2.57-.68-5.19-.97-7.85-.87-.1.79-.88,2.52-1.52,1.47l-.27-.21c.66-1.51.06-2.23-1.8-2.16l-.16-.61Z" fill="#efc636"/>
          <path d="M14.2,37.77c.66.08.7.55.25.99q-.21.48,0,0c.13-.42.51-.96.99-.99.09-.01.23.03.25,0l.25.5c.09.06.25-.1.5-.5.2-.02.54-.03.74,0,.47.14.51.64.13,1.52.49,0,.94.22,1.36.47.14-.47.36-.47.5,0,0,.17,0,.33,0,.5-3.02.35-6.92.84-9.43,2.48-.13-.84-.08-.79-.5-1.49l1,.12c-.33-.8-1.5-1.43-1.01-2.49,1.36-.79,2.43,1.24,2.74.87,0-1.14-.77-1.61.74-1.74.11.72-.19,1.35-.33,2.02-.07.33-.46.8.21.7,1.02-1.2-.19-2.73,1.62-2.98Z" fill="#d5a831"/>
          <path d="M31.58,39.51c.83.5,2.07-.05,2.6,1,.34.67-.12,1.36-.37,1.98.4.73-.97,2.83-1.63,3.17-1.69.87-2.64-1.13-3.04-2.5-.37-.2-.55-.42-.54-.67.33-.5.41-2.62.5-2.73.05-.07.55.05.74,0,.66-.16,1.06-.22,1.74-.25Z" fill="#edca36"/>
          <path d="M26.61,36.78c.44.54,1.09,1.9.47,2.45-.07.06-1.89.1-1.96.03-.47-.51.39-1.01.41-1.07.19-.44.21-1.47,1.07-1.4Z" fill="#d3c7a0"/>
          <path d="M23.09,37.81c.54.95-1.04,1.93-1.94,1.69-.15-.83.27-1.47.51-2.22.22-.15,1.35.4,1.43.53Z" fill="#d2c9a3"/>
          <path d="M50.44,43.23c0,.27-.34.3-.5.5-.43.51-.66.57-.5,1.49-.68.16-3.33.29-2.48-.5.08-.4.41-.62.98-.69-.29-.26-.26-.49.01-.8.64-.36,1.47-.36,2.48,0Z" fill="#d5b750"/>
          <path d="M29.59,38.76c-.02-.08-.31-.08-.14-.47.12-.26.91-1.25,1.24-1.27.26-.01,1.32.7,1.35.77.14.36-.31.69-.47.97-.27.43-1.66.4-1.99,0Z" fill="#d3ccab"/>
          <path d="M18.42,38.26c.74.01.76,1.21.25,1.49-.66,0-1.33,0-1.99,0l.5-1.98c.76.11.74.29,1.24.5Z" fill="#d1cdb4"/>
          <path d="M44.94,39.72s-.6.51-.64.52c-.79.19-1.74-.1-1.8-.98.71.02.89-1.27,1.58-.98.26.11.97,1.13.85,1.43Z" fill="#d5c597"/>
          <path d="M38.03,39.26c.34-.99.89-2.21,1.97-1.35,1.68,1.33-.9,1.56-1.97,1.35Z" fill="#d5cba2"/>
          <path d="M35.48,37.35s.48.43.49.47c.38,1.07-1.17,1.27-1.92.94.08-.89.41-1.8,1.42-1.41Z" fill="#d7cb9e"/>
          <path d="M47.47,40.75s-.7.14-.49-.37c.03-.08.74-.82.85-.88,1.39-.85,1.18.21,1.13,1.25-.08.48-1.32.53-1.49,0Z" fill="#d6cba4"/>
          <path d="M52.92,40.74s-.28-.03-.48.19c-.46.51-.44,1.01-1.49.81-.44-1.73,2.64-2.05,1.98-1Z" fill="#dcc98e"/>
          <path d="M16.43,37.77l-.25,1.99c-.95.17-.4-1.03-.25-1.49.04-.11-.08-.37.02-.47.09-.09.33,0,.47-.03Z" fill="#efc532"/>
          <path d="M31.58,38.76c-.04.07.08.39-.02.47s-1.82.08-1.94-.01,0-.35-.03-.46h1.99Z" fill="#cbb676"/>
          <path d="M18.42,38.26c.15.06.66-.09.74,0,.07.08,0,1.18,0,1.49-.17,0-.33,0-.5,0,.13-.61.24-1.02-.25-1.49Z" fill="#d1bf75"/>
          <path d="M48.96,40.75c0,.16.02.33,0,.5-.38-.05-1.21.14-1.44-.06-.12-.1-.01-.4-.05-.44.51.21.98.21,1.49,0Z" fill="#cbb366"/>
          <path d="M21.15,87.17c1.46-.36.72-.43,1.07-1.17.17-.36,1.34-.56.92-1.56l.49.12-.24.87c.41.44,1.67-1.71,1.98-1.86l-.74-.12c-.53-1.55,1.21-.9,1.45-1.28s-.26-1.02.66-1.2c1.51-.3,1.31.03,1.51,1.25,1.44-.02,1.79.4,1.6-1.25,1.04-.44.77,1.53,1.82,1.45,1.36-.11.4-1.83,1.66-1.45-.48,1.94.73,1.94.25,0,1.24-.44.72,1.23.87,1.24,1.41.13.55-1.18.62-1.24.15-.12,2.04.08,2.48,0v.74s-.5-.49-.5-.49c-.17.63-.36,1.45.62,1.25.25-.05-.05-.63.37-.5-.24.5,1.36,2.11,1.24,2.23-.38.38-.97-.95-1.12-.99-1.44-.43.42,1.92.75,2.24-.07-1.39.7-1.16,1.1-.3.11.23-.05.63.01.8.08.57.24.74.5.5.06-.03.36,0,.5,0,.34,1.8-1.56,1.43-2.98,1.49-.9.4-1.77.46-2.6.19-.94.45-1.8.46-2.56.02-.87.32-1.63.33-2.29.03-1.44.32-8.43.5-9.24-.4-.14-.16-.17-.37-.19-.57Z" fill="#d9a624"/>
          <path d="M19.66,88.41c0-.45.12-1.93.72-1.46.05.04-.04.45.17.48s.52-.27.6-.26c.52.07,1.22.65,2.11.75,3.95.44,10.65.16,14.77,0-.46.41-1.31.13-1.24.99-.17,0-.33,0-.5,0-.53-.44-1.11-.44-1.74,0-.33,0-.66,0-.99,0-.69-.5-1.12-.4-1.99,0-.16-.01-.77-.08-.74-.25-.37-.19-.86-.19-1.49,0-.23-.04-.51.03-.74,0-.65.15-1.34.18-1.99,0-1.01.05-2,.19-2.98.25-.5-.15-1.07-.31-1.74-.5-.25,0-.5,0-.74,0-.1.42-1.3.36-1.49,0Z" fill="#eac535"/>
          <path d="M33.56,88.91c-.65-.01-1.35.05-1.99,0,.44-.84,1.95-1.19,1.99,0Z" fill="#ebc63e"/>
          <path d="M29.34,88.66c.24-.71,1.12-.48,1.74-.5.13.51-.24.46-.25.5-.6.48-1.02.08-1.49,0Z" fill="#eec73a"/>
          <path d="M36.29,88.91c-.58.01-1.16,0-1.74,0-.15-.81,1.86-1.11,1.74,0Z" fill="#ebc63e"/>
          <path d="M28.6,88.66c-.53.41-1.45.41-1.99,0,.95-.05.87-.13,1.99,0Z" fill="#ebc63e"/>
          <path d="M21.9,88.41c.72.02,1.97-.3,1.74.5-.68.04-2,.25-1.74-.5Z" fill="#ebc63e"/>
          <path d="M21.15,88.41c.19.82-.66.42-1.34.5-.26.03-.15-.32-.15-.5h1.49Z" fill="#ebc63e"/>
          <path d="M37.78,62.1c.12-.41.47-.41.8-.16.13.69.54.94,1.19.66.36-.9,1.77-.11,1.24.74-.01.04.26.37.14.75-.05.16-1.5,2.7-1.61,2.83-.16.2-1.23.16-1.52.9-3.33.3-10.71.31-13.9-.25-.47-1.25-.68-.74-1.49-.99-.05-1.5-.74-1.7-1.49-2.86l1.24.13c.45.31.7.31.74,0,.26-.65,1.43.05,1.49,0,.29.28.43.15.5-.25.51-.02.8,0,1.24,0,.62.52.87.52.74,0,.67-.07.87-.1,1.24-.74l.5.23c.02,1.54.1,1.38.24-.48.49.03,1-.02,1.49,0l.37.44c-.7,1.25-.15,4.98.26,1.65-.07-1.02.13-1.72.61-2.09l.99.74.4.33c-1.22,4.59-.03,1.65.62-.58l.47-.25c.07-.21.15-.21.25,0l.37.13c.2-.25,1.44-1.13,1.87-.81.06.55.23.71.73.44-.41-.26-.22-.63.25-.5Z" fill="#d8a820"/>
          <path d="M34.06,71.03c-.72,1.42-1.09,6.68.26,7.57.27.18.57.06.73.13.43.16,1.39.27.87.75h-9.31c-.14-.69.64-.48,1.24-.75.87-.38,1.14-1.29,1.38-2.22.51-1.98.46-3.61-.38-5.47,1.72.05,3.49.05,5.21,0Z" fill="#63b1e2"/>
          <path d="M33.56,6.99l-.74-.25.25.99c-1.56.24-.7-.4-1.11-1.24-.1-.21-1.29-1.03-1.49-.99-.93.19.16.53.13.85-.27,2.58-2.22,1.15-1.7-1.17.11-.48,1.27-2.1,1.69-2.29,1.53-.7,4.06,2.56,2.97,4.1Z" fill="#a8bb47"/>
          <path d="M32.57,10.96c-1.17-.35.39-1.32,0-1.74-.1-.11-.69.37-1,.15-.23-.16-1.22-2.03-.24-2.13.25,2.08,1.81.84,3.23.99l-.74,1.11c.13.67,1.76-.2,1.73.5-.02.58-1.91.24-1.73,1.12-.37.05-.84-.01-1.24,0Z" fill="#a6b94c"/>
          <path d="M30.83,9.96c-.07.08-1.12-.37-1.56-.26-.29.07-.06.65-1.02.78-2.81.36-2.66-1.13.11-.76l-.37-1.49c.59.09,2.22.29,2.61.62.27.22.35.99.24,1.12Z" fill="#a9bd4b"/>
          <path d="M24.38,43.73c.63.3.98.65.25.99.2.07.41.21.38.4-.14.8-.56,4.82.52,3.92l.59.15.14-.56c-.28-.83-.64-2.29.52-2.38l1.32,1.46c.92.16,1.85.57,2.79,1.25,1.23.29,4.4-2.09,5.42-3.04.34-.21.53-.06.73.3.81.32.77,3.21,0,3.6,1.7.45,2.13-4.54.59-4.5-.75-.71.45-1.83,1.08-1.37h1.81c2.89.73,5.75,1.21,8.61,1.43.36.02.63.13.81.35-1.51,2.75-2.4,5.76-3.48,8.69-7.03-2.54-15.59-2.54-22.96-1.74-2.4.26-4.81.67-7.08,1.49-.83-3.01-2.54-5.7-3.97-8.44,1.8-.58,3.96-1.14,5.98-1.47l.22.23c.01-.13.04-.26.1-.36.21-.33,4.69-.68,5.46-.63.05,0,.1.11.15.24Z" fill="#ec4d27"/>
          <path d="M24.63,53.66c1.26-.03,3.17.15,4.35.02.46-.05,1.13-.84.61-1.26,1.24.38,2.17.03,3.34-.01.27,0,.94-.16.88.26h-1.61c-.39,1.1,1.62.9,2.36,1,.17.85-.55.3-.93.57-.07.05-.04.74-.55.42-.38-.24.05-1-1.49-.99l-.22.51c-2.5.57-2.44,1.22-.12,1.92l.34.55c.86.04,1.22-.14,1.49-.99.16-.08.88.39.99.49.03.03-.12.43.16.5s1.36.06,1.65-.01c.19-.05.15-.44.33-.49.99-.28,1.14.9,1.51.98s1.29.09,1.64,0c.22-.05,0-.57.79-.51.05,0,.83.48.87.52.62-.42.92-.13.5.5.06.1-.16.44.14.51,1.31.31,1.31-.49,1.71-.53.23-.02.94.35,1.12.52.03.03,0,.27.11.39.17.17.85.69.88.78.27,1.06-.44.77-.49.82l-1.34.12c-8.26-2.4-16.91-1.82-25.1-.11l-.38-.51c-.28-.18-.71.22-.5-.99.77-.09.88-.92,1.17-.98.66-.13,1.58.03,2.3-.01l.13-.43c.05-.81.67-1.78,1.85-.51l1.6-.03c.8-1.2,1.3-1.45,1.88-.02.32-.19.82-.35,1.49-.5-.3-.31-.3-.74,0-1.3-.82-.01-1.32-.24-1.49-.68-.36,1.09-3.28.46-1.99-.5Z" fill="#f0c636"/>
          <path d="M24.63,53.66c-.23.84,1.22.44,1.99.5.43.4.53,1.61,0,1.99.47.15.46.34,0,.5-.78-.09-.39-.4-.51-.49-.49-.35-.8.9-1.17.97-.41.08-1.52.09-1.95.03s-.46-.85-1.35-.52c-.05.85.29.95-.5.99.02-.16-.03-.34,0-.5-.57-.3-.63-1.23,0-1.49-.02-.16.02-.33,0-.5-.43.08-1.02-.06-1.49,0,.07-.06-.24-.43.36-.52.91-.13,1.06-.15,1.13.52,1.2-.23,2.03-1.45,2.17-1.48.39-.09.89,0,1.3-.01Z" fill="#dbc84d"/>
          <path d="M16.43,29.33c-.11.07-.91.73-.93.79-.31.7.62,1.32,1.25,1.16.47-.12,1.71-2.6,1.94-.34s-2.54,2.53-3.5.87c.08-.04-.18-1.43,0-1.74.15-.18.26-.47.5-.74h.74Z" fill="#d8a821"/>
          <path d="M14.2,33.55c-.14-.55.07-.81.25-1.24,1.31.94.04.97-.25,1.24Z" fill="#d8a821"/>
          <path d="M9.73,43.48c6.01-1.6,12.16-2.79,18.37-3.23-.17.96-.36,1.59.5,2.23.13.09.47.02.76.35.58.69.64,2.66,2.1,2.65,1.63,0,1.42-2.31,2.36-3,.16-.12.64,0,.87-.5.19-.4.04-1.16.36-1.38.73-.51,8.55.93,10,1.21.78.15,5.31,1.04,5.41,1.42-.54-.03-2.03.3-2.48,0l-.88-.19c-.35.53-1.05.28-1.36-.3-.12.71-.78.7-.99,0-.43.78-1.52.23-1.74-.5l-.3.18c.1-.84-.94-.52-1.36.02-.71.08-1.39-.22-2.04-.91-.87.43-1.93.5-3.16.21-.94,1.55-2.02,3.08-3.28,4.42-1.89,1.33-4.07-.25-4.37-2.38-.66-.21-1.12-.59-1.37-1.13.06-1.78-1.3-1.38-2.54-.96l-.45-.45c-.17.72-.67.64-.99,0-.44.58-1.21,1.35-1.74.5-.23.68-.53.67-.74,0-.85,1.03-1.6,1.28-2.23.74-.32.21-.66.19-.99,0-.4.77-1.12.93-1.74.25-.09.68-.23.61-.5,0-.8.98-1.46,1.15-1.99.5-.15.52-.48.69-.99.5-.14.08-.76-.09-1.08,0-.24.07-.11.58-.29.5-.12-.05-1.1-.68-1.12-.75Z" fill="#d6ab26"/>
          <path d="M17.43,42.48c.3.36.53,1.06.25,1.49-.31.61-2.49,1.07-3.33,1.15l-.39-.4c-.11-.05-.22-.14-.25-.25-.69-.03-.8-.72-.5-1.24.85-.12,1.27-.35,1.99-.5.17.16.25.35.21.57-.29,1.46.63.5.03-.09l.26-.48c.53-.11,1.19-.1,1.74-.25Z" fill="#d5c258"/>
          <path d="M18.42,43.97c.64-.28.75.05.25.5-1.77.36-4.51,1.52-6.21,1.24-.04,0-.39-.44-.74-.25l.14-.23c.55-.08,1.14.08,1.68-.07.29-.08.38-.44.41-.45.28-.09,3.03-.6,3.72-.74.22-.68.53-.67.74,0Z" fill="#e2933a"/>
          <path d="M13.21,43.23c.43.38.38.79.5,1.24-.97.87-1.63.56-1.49-.74.22-.13-.52-.28.99-.5Z" fill="#748862"/>
          <path d="M47.47,30.82s.32-.07.51.17c.32.4-.05.8-.02.82-2.16,3.05-5.38-1.2-3.08-1.73.55-.13,1.17,2.3,2.59.73Z" fill="#d8a821"/>
          <path d="M43.99,26.6c.03.41-.02.83,0,1.24-.42-.25-1.02-.19-1.39-.48-.26-.2-.3-.68-.38-.74-.19-.14-1.31.75-.97-.39.06-.21.83-.4,1.07-.34.54.13.84,1.39,1.66.71Z" fill="#d8a821"/>
          <path d="M48.46,32.55c.15.78.25.6.5,1.24-.41-.31-1.74-.49-.5-1.24Z" fill="#d8a821"/>
          <path d="M44.98,60.11s.02.16,0,.25c-.97.07-.97,1.3-1.35,2-.33.6-.73,1.17-1.13,1.73v-1.49c-.32-.24-1.46.64-1.49.74-.61-.78-.52-.57-1.24-.74l-.77.43c-.28-1.13-.69-1.43-1.22-.92-.07.16-.17.3-.25.5-.15.63-.94,0-1.02-.49l-.81.38c-.55.85-.93.4-1.15-1.37-.4.66-.81.99-1.24.99-.15.16-.81.63-.99.5.03-.44-1.22-2.97-1.74-2.48-.8,4-1.28,1.02-2.24.61-.81-.34-.85,1.93-.75,2.37-.81-.54-1.86-2.86-2.11-.49-.54.06-.58-.69-.86-.88-.91-.6-.98.62-1,1.37-.73.2-.58-.86-1.14-.98-.62-.13-.79.94-.85.98-.49.33-1.2-1.54-1.73-.25-.03-.05-.35-.17-.46-.4l-1.28-2.58s.01-.24,0-.25c1.01.23,1.8-.27,2.67-.43,8.22-1.54,16.1-1.56,24.14.93Z" fill="#eb4e26"/>
          <path d="M45.98,57.63h-.99s0-.74,0-.74c.46-.06.73-.01.99.37v.37Z" fill="#5ba8d5"/>
          <path d="M17.92,56.64c.09.08-.2.9-.29.95-1.22.71-1.47-1.28.29-.95Z" fill="#53a4d7"/>
          <path d="M21.15,55.64c.09.77.15.61,0,1.49-2.54,1.17-2.58-2.59,0-1.49Z" fill="#4d7868"/>
          <path d="M40.51,86.43c-.13.06-.19.61-.88.74-1.1.21-1.81-.02-1.6-1.24.3-.35,1.67,1.85,1.98,0,.01.03.49.23.5.5Z" fill="#efbf38"/>
          <path d="M38.53,43.23c.48.56,1.26.38,1.66-.21.63-.07,1.25.25,1.85.96,1.12-.19,1.98-.05,2.84.47,1.1-.33,1.79-.24,2.09.27,0,.16-.01.33,0,.5.9.08,1.57-.31,2.48,0,.75.25.45.47.5.5l-11.42-1.64c-1.87,1.1.19.65.46,1.57.05.17-.2,3.29-.27,3.62-.28,1.33-1.68.99-1.68.55v-3.6c-1.15.19-2.06,1.34-3.15,1.94-2.99,1.65-3.15,1.25-5.79-.45-.72-.61-1.31-1.27-1.79-2l.3-.49c.71-.76,1.96.69,1.91,1.6l1.84.78c.27,1.08,1.29,1.03,1.71.6l.15-.62c1.83-.65,3.36-1.89,4.57-3.72.74-.94,1.31-1.14,1.73-.63Z" fill="#e39431"/>
          <path d="M15.44,37.77c-.09.24-.13.84-.29.96s-.49.02-.7.04c.17.34.59.56.47,1.07-.15.64-1.38,1.19-1.36-.08.02-1.1.13-.93.89-.99-.16-.33-.28-.62-.25-.99.39-.05.87.06,1.24,0Z" fill="#d9c186"/>
          <path d="M29.89,13.38c1.38.75,1.13-.62,1.19-.69.03-.03.72-.03.74,0,.07.07-.07.67,0,.74.34.33,1.46-.71,1.96-.22.17,1.42-.23,2.66-1.71,3.09-1.84.53-4.17-1.81-2.86-3.36.48-.57.46.33.67.44Z" fill="#ef972c"/>
          <path d="M32.82,22.87c.64-.19.72.03.25.5l.56.16c.06.63.21,1.08.44,1.33.63-.28.76-.12.5.5.19.52.36,1.19.5,1.99.43.51.43,1.48,0,1.99-.15.47-.37.47-.5,0-.02-.41.02-.83,0-1.24l-1.24.25c-.22-.22.88-2.14.5-2.48-.08-.07-1.4,0-1.7-.9-.2-.61.06-1.45-.04-2.07.05-.73.49-.66.74,0Z" fill="#ceaa38"/>
          <path d="M30.09,21.38c-.7-.42.3-1.29.95-1.3,1.05-.02,2.32,1.87,1.78,2.79h-.74c-.01-.08-.47-1.41-.52-1.47-.11-.09-.72-.03-.97-.02-.17,0-.33,0-.5,0Z" fill="#aba970"/>
          <path d="M29.1,22.38c.07-.38-.09-.74.13-1.23.45-.98,1.6-1.76,2.59-1.11,1.44.94,1.38,2.46,1.5,2.59.04.05.94-.22,1.24-.25.14.27.22.65.22,1.13,1.95.76,2.35,1.58,1.22,2.47.87.95,1.04,2.94.44,4.08-.23.44-.7,1.22-1.14.76-.04-.04-.17.03-.25,0-.41.01-.38-.87,0-.99.32-.27.51-1.62,0-2.48l-.27-.31c.13-.88.05-1.44-.23-1.68-.29-.19-.34-.37-.5-.5-.24-.5-.57-1-.99-1.49-.06-.14-.17-.32-.25-.5-.24-.54-.15-1-.33-1.42-.03-.07-1.02-1.04-1.09-1.06-.8-.2-1.04.39-1.31.99-.14.32-.39.59-.5.99-.08.66-.31.63-.5,0Z" fill="#6baccc"/>
          <path d="M29.1,23.12c.19.36-.04.72-.68,1.1-.03.94-.3,1.48-.81,1.63.59.96.28,2.17-.53,3.05.33.26.51.57.53.92.47.32.48.68,0,.99-1.7.31-1.72-1.68-1.49-2.85.13-.65.93-.85.74-1.61-2.7-.47-1.16-1.73.75-1.49-.4-1.73-.45-2.28,1.49-1.74Z" fill="#6aadcf"/>
          <path d="M35.05,22.38c.05.31-.1.65.12.99.27.42,1.76.78,2.1,1.39.25.83-1.63.86-.23,2.09-.05.89.14,2.03-.01,2.84-.12.65-.78,1.08-.98,1.63-.93.25-.68-.43-.74-.5,1.14-.79,1.48-2.77.85-3.95-.16-.3-.84-.79-.84-.89,0-.18,1.09-.79.99-1.24-.18-.81-2.83-.11-1.74-2.36.16-.02.33.01.5,0Z" fill="#47828b"/>
          <path d="M29.59,22.38c-.09.32.08.88-.01,1.3-.05.23-.93.65-.97.86-.08.38.12,1.03-.07,1.26-.09.11-.42.02-.44.04-.08.66-.31.63-.5,0,.02-.17.37-1.2.5-1.81.03-.14.93-.71.99-.92s-.04-.52,0-.74h.5Z" fill="#9faa81"/>
          <path d="M28.1,25.85c-.12.17.08,1.68.02,2.13-.05.4-.49.39-.52,1.84.27.18,1.33.5.98.99-.03.04-.68-.08-.49.5-.15.03-.37-.04-.5,0v-.5c0-.33,0-.66,0-.99-.23-.15-.97-.3-1.02-.87-.07-.81.94-.96,1.01-1.29.11-.55-.05-1.23.01-1.81h.5Z" fill="#a8a876"/>
          <path d="M35.05,29.33c.39,0,.37.39,0,.5v.99c-.13-.05-.45.06-.5,0-.07-.09.02-1.16,0-1.49.13-.04.34.03.5,0Z" fill="#9caa7f"/>
          <path d="M11.11,39.87c1.69,1.27-.14,2.18-1.05.43-.8-1.54.04-1.2,1.05-.43Z" fill="#dac077"/>
          <path d="M30.18,43.13c-1.38-.68-.67-3.81,1.91-3.01,1.95.6,1.19,4.54-1.91,3.01Z" fill="#457773"/>
          <path d="M47.96,43.23s.46.61.46.66c.12.77-.96.78-1.46.83-1.11-1.01-.44-2.17.99-1.49Z" fill="#6b835e"/>
          <path d="M32.81,85.43c.06.04.4,1.12.87,1.23l.37-.99c.55-.14.71.58,1.17.71.62.17,2.19-.6,2.3.78-1.58.16-3.26-.15-4.8-.15-.76,0-1.52-.03-2.28-.04-1.57-.02-6.93,1.09-3.72-1.54l.12.99c.76.21,1.08-.44,1.74-.5.05.37-.24.82.38.75.98-.11,1.43-1.97,1.73-1.99.63.31.14,1.85.75,1.98.64.14.72-1.68,1.36-1.24Z" fill="#f1c235"/>
          <path d="M24.87,85.68c-.1.64.16,1,.5,1.49h-1.74c-.21-.19.66-1.7,1.24-1.49Z" fill="#f0c135"/>
          <path d="M30.58,62.59c.17-.47.08-1.12.62-.99.06.01.61.94.62.99.13.65-.27,4.46-.87,4.46-1.26-1.23-.92-2.95-.37-4.46Z" fill="#f1c631"/>
          <path d="M34.31,62.84c.13.68-1.24,4.05-1.61,4.22-.32.15-.65.13-.62-.37.02-.41.61-3.18.75-3.35.02-.03.32.04.42-.08.18-.21.29-.65.32-.67,0-.89,1.02-.6.74.25Z" fill="#f1c532"/>
          <path d="M25.12,63.59c.68.83,1.43,2,1.87,2.98.16.35.02.69-.26.74-.64.13-2.36-2.73-2.11-3.47.03-.03-.07-.35.04-.47.17-.19.43.22.45.22Z" fill="#f1c433"/>
          <path d="M35.55,67.31c-.22-.21,1.77-3.97,2.48-4.22.45.86-1.6,5.05-2.48,4.22Z" fill="#f1c434"/>
          <path d="M36.05,63.59c-.1.9-.57,2.5-1.24,3.11-2.11,1.91-.2-3.05,1.24-3.11Z" fill="#f2c435"/>
          <path d="M27.11,63.59c.5,1.09,1.62,2.16,1.36,3.48-1.27-.6-1.69-2.28-2.11-3.48.13,0,.7,0,.74,0Z" fill="#efc334"/>
          <path d="M29.1,62.59c.84,1.05-.04,2.61.49,3.97-1.09-.8-1.16-2.49-1.24-3.72.06-.09-.06-.44,0-.5.16-.14.62.24.74.25Z" fill="#f0c134"/>
          <path d="M23.14,63.83c.28.37.9,1.64,1.19,2.16.12.22.55.62.17.82-1.13-.5-1.89-1.81-2.11-2.98v-.5s.69.42.74.5Z" fill="#efbd36"/>
          <path d="M40.27,63.59c.16.17-1.19,3.44-2.23,3.22-.16-.17,1.8-3.69,2.23-3.22Z" fill="#f1c034"/>
          <path d="M34.56,61.1c.23.52.5,1.55,0,1.74-.02-.04-.2.04-.25,0-.22-.16-.45-.41-.74-.25l-.25-.5c.42-.45.47-1.6,1.24-.99Z" fill="#e99931"/>
          <path d="M34.56,61.1c.5.4.51.88.5,1.49.89,0,.54-.98,1.61-1,.87-.01-.15,1.19.87,1-.1.24.22.74-.62.5-.09-.03-.09-.44-.29-.5-1.37-.37-1.09.73-1.7.99s-.29-.56-.37-.74v-1.74Z" fill="#e27626"/>
          <path d="M37.78,62.1c.11-.24-.13-.83.86-.51.24.08.1.67.37.9.23.19.55.06.76.11l-.99.99c-.29-.61.12-1.77-1-1.49Z" fill="#e27626"/>
          <path d="M32.57,72.27v3.6c0,.62.96,1.87-.5,1.62.24-.54-.25-1.34-.25-1.62v-3.6h.74Z" fill="#2c7eb8"/>
          <path d="M44.89,46.72c2.43-.85.28,3.55-.19,4.29-.68,1.07-1.76.52-1.7-.44.02-.41,1.64-3.76,1.9-3.85Z" fill="#ed9e33"/>
          <path d="M41.74,50.66c-.19.13-1.34-.12-1.43-.26-.23-.36.49-3.97.76-4.51.33-.65,1.21-.6,1.4-.01.45,1.4-.57,3.35-.73,4.78Z" fill="#ed9931"/>
          <path d="M17.61,46.77c.13.16,1.55,3.58,1.54,3.79-.01.67-1.12,1.22-1.48.67-.41-.64-1.95-3.77-1.64-4.28.26-.42,1.22-.6,1.57-.18Z" fill="#eba033"/>
          <path d="M20.65,45.46c.61,0,1.12-.19,1.44.42.23.43.76,3.48.74,3.99-.02.65-.82.69-1.29.53-.27-.09-.82-2.36-.88-2.85-.09-.69.01-1.4-.02-2.09Z" fill="#eca033"/>
          <path d="M26.12,49.19c-.44.3-.55.75-1.48.49-.14-.13-.38-3.36-.37-3.85,0-.56.33-.87.36-1.11.84-.88,2.52,1.52,1.39,2.27.17.86.2,1.59.1,2.19Z" fill="#ebad34"/>
          <path d="M21.65,43.23c.3-.65.93-.69,1.87-.14.94-.49,1.64-.44,2.1.14.77-.05,1.68,1.45.99,1.99-.06.8-.4.66-1.02-.41-.46-.31-.87-.67-1.22-1.08-1.53-.18-4.13.42-5.71.74l-.25-.5c-.33-.41-.19-.55.25-.25.06-.87,1.5-.84,1.99-.25.14-.73.53-.84.99-.25Z" fill="#dc9238"/>
          <path d="M24.38,43.73c1.52.18,1.23,1.04,1.8,1.44.17.12.4.02.44.05.48,1.14.99,1.47,1.49,2.48-.05-.03-.24.02-.41-.08-.59-.37-.39-1.35-1.55-.63-.37.56.77,1.52.43,2.18-.14.09-.4-.02-.46.02-.76-1.39.73-4.41-1.49-4.47.05-.33-.07-.71-.25-.99Z" fill="#d9641c"/>
          <path d="M31.58,53.66c1.66,1.4,1.46,1.4,0,2.98-.76-.04-1.9-.51-2.41-1.06-.94-1.01,1.41-1.9,2.41-1.91Z" fill="#467876"/>
          <path d="M28.1,56.14c-.03.42-1.31.39-1.49,0-.14-.73-.38-1.22,0-1.99,1.73.12,2.56.08,1.49,1.99Z" fill="#4d7b6f"/>
          <path d="M43,55.64c.78.78-.39,2.34-1.49,1.99-.21-.34-.29-.31-.5-.5-.54-1.31,1.25-2.22,1.99-1.49Z" fill="#567b66"/>
          <path d="M28.1,56.14c-.04.07.09.39-.02.47-.11.08-1.2.06-1.47.03-.02-.16.03-.35,0-.5h1.49Z" fill="#b4b35d"/>
          <path d="M25.59,55.62c-.03.08-1.25,1.03-1.34,1.04-1.42.11-2.99-1.03-1.26-2.02.99-.57,2.94.15,2.6.98Z" fill="#4c7769"/>
          <path d="M24.13,41.24c.78-.08,2.28-.37,2.84.02s.44,1.17.87,1.61c.31.32.89.29,1.03.51.2.3.12.86.31,1.25.04.09,1.3,1.4,1.39,1.45,1.44.71,2.33-.63,3.09-1.63.5-.66.66-.96,1.27-1.7.34-.42.63-1.34,1.02-1.47.72-.25,1.67.17,2.43.22.34.02.72-.27.98-.26.09,0,.37.71,1.54.72,1.33,0,1.04-.69,2.08.28q-.32.35,0,0c.07.06,1.52.45,1.74.5l.46.27c-.41,1.04.6.97.19.14l.34-.42c1.36.15,1.35-.09,2.23.5-.21-.08-.71.06-.99,0,.01.49-.02,1,0,1.49-1.25.12-3.55-.26-4.83-.51-.57-.11-.9-.69-1.51-.73s-1.4.44-2.1.24c0-.16,0-.33,0-.5q.64-.58,0,0c-1.01.04-3.13,3.31-4.28,4.05-.72.46-1.57.58-2.17.92q-.62-.56,0,0s.11.43-.16.5c-1.3.34-1.18-.34-1.63-.58-.39-.21-2.03-.89-2.11-.98-.18-.19-.12-.72-.34-1.03-.37-.49-.95-.69-1.21-.89-.39-.93-.62-1.24-.99-1.99q.38-.72,0,0c-1.26.13-2.71-.12-3.97,0-.74.12-.93-1.25-.25-1.49.68-.12,1.2-.43,1.74-.5-.01,1.02.74,2.02.59.37l.4-.37Z" fill="#dbc454"/>
          <path d="M20.65,41.74c.1.56.1,1.14,0,1.74-.54.07-1.52.15-1.99.25-.71.23-.91-.98-.25-1.24.11.04,1.59-.61,2.23-.74Z" fill="#dcc64f"/>
          <path d="M24.13,41.24c.93,2.54-2.38,2.01-.99,0,.32-.04.67.03.99,0Z" fill="#708964"/>
          <path d="M18.42,42.48l.25,1.24c-.2.04-.23.24-.25.25-.22.04-.52-.05-.74,0-.41-.48-.69-.93-.25-1.49.12-.03.38-.47.63-.45.2.01.32.44.37.45Z" fill="#6a825f"/>
          <path d="M21.4,41.74l.25,1.49c-.33.03-.66.21-.99.25-.72-.54-.54-1.16,0-1.74.22-.04.52.04.74,0Z" fill="#72865b"/>
          <path d="M15.69,42.73c1.82,2.26-2.31,2.37-.5,0,.15-.03.34.03.5,0Z" fill="#6f8a62"/>
          <path d="M45.73,42.73c.67,1.25,0,1.66-1.24,1.49l.25-1.49c.29.06.68-.04.99,0Z" fill="#748b62"/>
          <path d="M20.65,55.89v.99s-.37,0-.37,0c-.39-.26-.43-.53-.37-.99h.74Z" fill="#589bb6"/>
          <path d="M33.31,13.94c-.36,2.16-2.65,2.62-3.72.62-.14-.48,1.43-.54,1.68-.55.71-.03,1.32.44,2.04-.06Z" fill="#f15924"/>
          <path d="M34.56,25.36c.09.06.47-.16.51.15,0,.61-.03,1.23-.01,1.84.11.02.47-.04.5,0,.07.09.06,2.1,0,2.33-.07.29-.27.13-.5.16v-.5c0-.66.02-1.33,0-1.99-.11-.02-.47.04-.5,0-.12-.16.08-1.59,0-1.99Z" fill="#92aa9b"/>
          <path d="M33.07,23.37h.99s0,1.49,0,1.49c-.04-.03-.36.1-.45-.04-.05-.07-.41-1.12-.54-1.45Z" fill="#8faaa2"/>
          <path d="M30.74,40.78c2.13-.72,2.51,2.24.48,1.96-1.01-.14-1.24-1.7-.48-1.96Z" fill="#61aedc"/>
          <path d="M37.54,54.65c.5.01.83-.3,1.41-.07,2.2.87.33,2.61-.84,2.12-.24-.1-1.27-1.02-1.31-1.2-.08-.36.49-.6.74-.85Z" fill="#4c796f"/>
          <path d="M36.05,54.65c.05.72.02,1.66-.88,1.74-.17.02-1.08-.2-1.11-.25-.2-.31,0-1.63.5-1.88.6-.31.9.3,1.49.39Z" fill="#4a7a6b"/>
          <path d="M32.07,54.65c.33.35-1.35,2.14-1.95.58-.4-1.05,1.37-.74,1.95-.58Z" fill="#5da9d8"/>
          <path d="M42.5,56.14v.74c-.46.06-.73.01-.99-.37v-.37s.99,0,.99,0Z" fill="#59a1cf"/>
          <path d="M24.63,55.15c-.06,1.26-1.76,1.23-1.49,0h1.49Z" fill="#4e9ac5"/>
          <path d="M25.62,43.23c-1.16-2.33,1.48-2,1.15-.74-.19.71-.57.68-1.15.74Z" fill="#6f8959"/>
          <path d="M27.26,43.5c1.47-.48,1.26,1.6.47,1.66s-1.32-1.38-.47-1.66Z" fill="#70885b"/>
          <path d="M36.45,41.76c1.07-.34,1.47.93.86,1.36-1.08.76-1.81-1.05-.86-1.36Z" fill="#728d59"/>
          <path d="M28.75,45.49c1.07-.34,1.47.93.86,1.36-1.08.76-1.81-1.05-.86-1.36Z" fill="#708756"/>
          <path d="M32.07,48.19c-.07.07-1.18.05-1.38-.24-.51-.7.77-1.74,1.26-1.01.14.21.18,1.18.12,1.25Z" fill="#6a855c"/>
          <path d="M38.53,43.23c-.05-2.36,1.93-1.32,1.38-.25-.4.79-.92.23-1.38.25Z" fill="#6f865f"/>
          <path d="M35.54,45.21c-.59.41-1.55-1.46-.61-1.73,1.11-.32,1.23,1.3.61,1.73Z" fill="#69885a"/>
          <path d="M33.45,45.47c.87-.25,1.61,1.14.45,1.45-1.03.28-1.06-1.28-.45-1.45Z" fill="#6d8457"/>
          <path d="M43,42.24c.72,1.04-1.33,2.43-1.44.81-.08-1.11,1.19-1.17,1.44-.81Z" fill="#758d64"/>
          <path d="M39,55.17c.15.11.34.89-.1.97-.62.11-1.58-.53-1.11-.99.04-.04,1.13-.04,1.22.02Z" fill="#59a7d2"/>
        </g>
      </g>
    </g>
  </g>
</svg>