<?xml version="1.0" encoding="UTF-8"?>
<svg id="Layer_2" data-name="Layer 2" xmlns="http://www.w3.org/2000/svg" viewBox="0 0 64 95.84">
  <g id="Cards">
    <g id="Swords">
      <g id="AceOfSwords">
        <g id="_Numebrs" data-name="&amp;lt;Numebrs">
          <path d="M3.46,7.91h-1.51V2.22c-.55.52-1.2.9-1.95,1.14v-1.37c.39-.13.82-.37,1.28-.73.46-.36.78-.78.95-1.26h1.22v7.91Z" fill="#0e0e10"/>
          <path d="M60.54,87.94h1.51v5.69c.55-.52,1.2-.9,1.95-1.14v1.37c-.39.13-.82.37-1.28.73-.46.36-.78.78-.95,1.26h-1.22v-7.91Z" fill="#2a2b2c"/>
        </g>
        <g>
          <path d="M32.8,63.89c1.31-.7,2.89.59,3.36,1.92.23-.07.31.01.24.24.3.27.7.35,1.19.23l.25.25c.18-.04.47-.07.51.04.76,2.23,2,6.9,2.29,9.17l-.4.39c-.23.66-1.46.61-1.68,0-.17.41-.49.49-.98.22-.34,2.78-1.58,2.08-1.9-.22-1.56-3.85-2.34-8.14-2.88-12.24Z" fill="#bfd2df"/>
          <path d="M13.84,5.56c.83-.04,1.72.05,2.67.28l.21,1.16v.24c.06.21-.1.29-.48.24l.1.57c-.15.43-1.22,2.06-1.54,2.31.36.23.52.47.48.72l-.11.57c-1.11.58-1.84,1.56-2.21,2.94l-.57.09-.19.8c1.18.93,1.28,1.55.04,2.54-1.12-.81-.88.76-.33,1.46.5-.1,1.27.9,1.44,1.44-.2,1.65,1.21,3.06,2.64,3.36.4.13.8.21,1.2.24.12-.64.32-.62.48,0,.33-.21.56-.17.48.24.56,1.5.31,2.25-.74,2.27,1.21,1.04.4,1.42-.67,1.92.48.93-.3,1.99-.98,1.09-.26-.11-.35-.46-.26-1.04-.44-.68-.51-1.13-.22-1.36.14-.23.86-1.46.85-1.55s-1.19-.91-1.47-1.08c-1.67-.42-3.01-2.09-3.1-3.79-1.32-1.64-1.95-3.53-.89-5.43.08-.61.46-4.12.28-4.24-1.09.01-1.27-.98-.43-1.54-.2.11-.37.08-.52-.14-.4,0-.29-.27,0-.48.22-.36.38-.76.48-1.2l.48-.26c1.47.83,2.2-.72,1.98-2.06l.43-.31c-.02-.45.34-.41.48,0Z" fill="#d9a726"/>
          <path d="M47.45,80.46c.34.2.71.32.96.48.6.52.82,1.16.96,1.92.89.89,2.67.83,2.88,2.78.06.54-.25,1.16-.2,1.4.07.32,1.83,1.02,1.64,2.64-.05.44-.47.82-.47,1.22,0,.38.42.86.48,1.44.16,1.59-.81,2.59-2.3,2.76-.28.03-.63-.21-.92-.17-.59.09-.81.92-2.19.92-.94,0-1.13-.4-1.69-.49-1.98-.34-1.95.46-3.47-1.45-.34-.02-.63-.13-.29-.26-.78.12-1.48.05-2.11-.22-.15-.08-.37-.15-.48-.24-.64-.7-1.04-1.59-1.2-2.67-.96-.2-1.52-.67-1.68-1.41-.05-.41.13-1.09-.05-1.39-.16-.28-1.46-.53-1.89-1.59-.6-1.49.46-1.94-.46-3.5-.38-.35-.31-.93.24-.72,1.55.2,1.93,1.32,1.14,3.37l.08.37c1.53,1.03,2.01,1.39,2.18,3.43,1,.05,1.64.37,1.91.96-.41,2.48.92,2.7,3.01,2.18l.46.31c.39,1.84,1.04,1.91,2.65,1.24,1.39,1.16,2.09,1.21,3.47,0,1.93.4,3.22-.2,1.89-2.16v-1.16c1.06-1.26.12-2.03-1.09-2.66l-.15-.53c.62-2.02-.34-3.15-2.87-3.39l-.17-.58c.57-1.57-.6-1.86-1.94-1.43l-.49-.42c-.22.95-1.14-.02-.72-.48,0-.12.01-.23.06-.32.07-.13,2.51-.61,2.82-.16Z" fill="#cfa93b"/>
          <path d="M27.76,31.48c.11-.08.2-.14.28-.12.23.07,1.35.46,1.52.53.07.03.11.16.13.31l.51.43c.53,2.37,1.07,4.73,1.64,7.09l-.46.4c.31.48.44.91-.24.96-.14.33-.3.81-.48,1.44-.19.47-.35.95-.48,1.44-.42,1.01-3.2.03-2.88-.96.37-.01,2.03,1.37,1.91.37-.6-2.23-.84-4.53-1.4-6.77-.16-.65-1.33-4.9-1.48-5.12.02-.39,1.27-.39,1.44,0Z" fill="#bed1df"/>
          <path d="M42.64,76.14c-.94.42-.49-.4-.19-.19.52.36-1.54.77-1.73.19-.07.46-.26.43-.48,0l-2.4-9.6c-.65-.71.71-3.01,1.44-3.36.85,4.22,2.35,8.69,3.36,12.96Z" fill="#6ab0dc"/>
          <path d="M12.64,76.38c.47.45.57,1.5.79,1.85.46.72,2.69.98,2.78,2.32-.11.72-4.42,2.95-5.18,3-1.02.06-.87-2.69-.74-3.39.11-.56.67-1.19.66-1.5,0-.35-.5-.62-.49-1.18.01-.49.46-.75.49-.86.17-.36,1.27-.59,1.68-.24Z" fill="#d9ad34"/>
          <path d="M44.8,36.05l.43.64c-1.01,2.04-.85,6.52-.25,1.76.19-.89.45-1.73,1.49-1.44-.02.89-.21,2.34-.72,3,.3,1.06.13,2.85,0,4.08.14.7.06,1.46-.24,2.28-.13,1.2-.48,2.86-.72,4.08-.37,1.24-1.6.19-.72-.48l-.34-.76.83-4.96c-.13-.12-1.06-.42-1.1-.34-.13,1.34-.36,2.67-.67,3.97l-.63.4c-.09.63-.26.59-.48,0l-.29-.79c.73-3.51,1.41-7.04,2.05-10.57l.64-.64c.28-.68.52-.76.72-.24Z" fill="#b33029"/>
          <path d="M52.25,6.52c.81.31,1.29.79,1.44,1.44.27.93.79,1.58.44,2.72-.16.51-.72.5-.85.71-.5.79-.22.95-1.26,1.86-.7.38-1.09.43-1.17.16-.67.44-1.16.39-1.47-.16-.14.46-.35.46-.48,0-.75.58-1.07.5-.96-.24-.37.04-.69.04-.96,0-.23-.35-.39-.75-.48-1.2.14-.19.14-.43,0-.72-.68-.25-.7-.96,0-1.2-.65-.26-.66-.49,0-.72.21-.89,1.69-2.89,2.57-3.1.47-.11.72.37.91.37.95,0,.58-.38,2.28.08Z" fill="#d5a838"/>
          <path d="M26.08,58.85c.18,1.02.03,2.09-.45,3.2,1.5.55.6,2.08-.84,1.35-.09.94-.38,1.51-.88,1.69-.69,2.96.58,5.86,3.83,5.78,1.08-1.69,1.83-3.61,2.25-5.78.47-1.24,1.09-2.49,2.56-2.61.56-.05,1.05.06.96.68.87-.14.83.97-.2.58l-.76.14c-.18.06-.45-.05-.71.12-1.71,1.13-1.35,11.51-7.09,7.07-4.05-3.13-.57-9.07.83-12.72.48-.58.92-.1.48.48Z" fill="#af2d27"/>
          <path d="M35.44,11.8c.41-.34.63-.29.48.24.57-.07.77-.08.48.48.63.19.58.4,0,.72.39.3.38.87-.03,1.72.67,1.74,1.15,3.92-1.44,3.76-.5-.03-1.55-.32-1.41-.92-.94.08-2.45-.5-2.88-1.2-.81-.45.42-2.03.72-.96l.28-.15c.69,1.8,3.2.53.85-.49l.06-.56c-.55-.03-.55-.27,0-.72.21-.63.51-.86.91-.7.4-.24.74-.65,1.01-1.22.24-.03.75-.04.96,0Z" fill="#d6ad38"/>
          <path d="M25.84,14.2c.11-.53.43-.53.96,0,.62.16,1.14.9,1.44,1.44,1.07.78,1.39,1.58.96,2.4l-.34.46c-2.16-.37-4.31-.38-6.46-.02l-.41-.44c-.16.67-.34.52-.72,0-.93-.36-1.46-1.44-1.2-2.4-.33-.34-.71-.96-.24-1.2.14-.46.34-.46.48,0,.62-.6,4.22-.98,4.93-.74.26.08.44.3.59.5Z" fill="#e2a430"/>
          <path d="M24.16,26.68c.19.27.24.52-.06.63-2.57.54-4.23,1.79-.34,1.16.5-.08,3.56-.83,3.66-1-.68-1.47,1.95-1.98,1.78-.44,1.29-.3,2.41-.26,3.36.12.11.22-.05.38-.48.48.01.57-.15.73-.48.48l-.36.47c-1.6.34-3.21.66-4.82.98l.05.35c1.12-.18,1.57.16,2.23,1.01.98.08,1.76.25.97,1.26-.91.06-1.3-.07-1.92-.72-.27-.26-.77-.33-1.51-.23l-.41-.25c-.16-.34-.29-.62-.48-.96-.49-.66-.68-.8-1.5-.15l-.42-.33c-.06.38-.22.62-.48.72-.41.11-1.59-.11-2.17-.25-.09-.02-.16-.12-.23-.23-.91-.03-1.32-1.88-.24-1.92-.5-.56.62-1.68,1.2-1.2.12-.39.42-.39.91-.02.73-.15,1.31-.15,1.73.02Z" fill="#e3982f"/>
          <path d="M10,9.4c-.06.06.05.37,0,.48.21.27.21.61,0,1.02l-1.44,2.34c.46.13.46.34,0,.48.19,1.08.2,2.21.02,3.4l-.5.44c.05.84.2,1.59.44,2.25l-.44.87.5.38c.35,2.71,2.53,4.34,4.91,5.26l.11.36c.54-.37.76-.1.48.48.8-.1,1.2.06,1.2.48.1.87.72,1.45.48,2.4.27.56.09.65-.48.48-.07.64-.25.59-.48,0,.22-.69.85-1.32.26-2.06-.22-.28-2.95-1.53-3.59-1.93-1.31-.83-3.58-2.71-3.86-4.3-.25-1.43-.17-6.58.01-8.12.23-1.93,1-3.29,2.13-4.71h.24Z" fill="#ceab47"/>
          <path d="M53.21,57.89c.27-.61.45-.61.72,0,.03.27.53,2.22.61,2.4.32.74,2.19,1.52,2.01,2.72-.23.91-6.01,2.3-6.23,1.45-.1-.4.42-2.76.61-3.21.2-.48.69-.77.8-1.12.17-.57-.08-1.12.29-1.75-.05-.52-.05-.77.48-.48.2-.69.51-.65.72,0Z" fill="#d0a93f"/>
          <path d="M55.85,43.73c.14.9.67,2.05.69,3.03.09,3.62-3.03,7.89-2.62,11.14-.24,0-.48,0-.72,0-.71-.13-.52-1.09-.41-1.69.79-2.58,1.58-5.16,2.35-7.73-1.36-.36-2.7-2.1-.59-2.02-.99-.66-1.18-1.89.28-1.6-.15-.41-.05-.71.29-.88-.69-.68.7-1.22.72-.24Z" fill="#347aab"/>
          <path d="M47.93,26.68c.16-1.18,1.71-.02,2.16.48.22-.47.5-.46.72,0,0,.2,1.03,2.9,1.2,3.36-.07.46-.26.43-.48,0-.26.77-2.23.32-2.16-.48-.67.28-1.28.05-1.82-.68-.88.16-.61-1.05-.34-1.72-.46-.14-.46-.34,0-.48-.79-.42.22-1.16.72-.48Z" fill="#e7af38"/>
          <path d="M18.88,50.21c.5-.92,1.39.07.48.48l.29.6c-.96,1.45-.79,3.06.49,4.81.37,1.37.51,4.09-1.43,3.74-.04.85-.29,1.9-1.03.92-.33.07-.41-.17-.24-.72.9-2.66-.07-4.6.26-7.06.16-1.17.81-1.89,1.18-2.78Z" fill="#b62f27"/>
          <path d="M52.25,42.05c.49.11.57.27.24.48.34.34.57.57.72,1.03.51,1.62.68,5.45.39,7.16-1.02,2.31-1.01,4.13-.86,6.59.02.23-.06.42-.26.57-.03.01-.46.45-.48.48-1.45-3.7.65-7.08.49-10.93-.09-2.07-.59-3.92-1.21-5.87-.03-.97,1.15-.03.96.48Z" fill="#3879a6"/>
          <path d="M17.68,60.77c.73-.02,1.83,1.74,1.44,2.4.29-.03.45.13.48.48-.43.54-.68.77-.96,1.44-.76,1.69-1.8.73-2.4-.48-.38.81-.87.36-.72-.48.53-1.98,1.51-2.87,1.92-4.08.03.26.12.49.24.72Z" fill="#ddaf3c"/>
          <path d="M48.17,30.76c.51.17.79.65.84,1.44,1.56-.18,2.29.21,2.21,1.17.66-.12.75-.1,1.15.38,1.08,1.33-1.32,1.57-2.33,1.51l.87,2.46-.34.47c-.1.45-.24.37-.48,0-.62-1.58-1.52-2.66-1.92-4.32l-.72-.24c-.13,1.08-1.36.53-.72-.24l-.3-.52c0-.25.33-3.41.45-3.55.42-.47,2.22.84,1.29,1.42Z" fill="#b72a22"/>
          <path d="M43.36,54.05c.14,1.97-2.99,6.38-4.08,8.16-.03.64-.25.6-.48,0-.4.38-1.16-.56-.96-.96-.74-.45-.08-2.39.48-1.44.59-.33,1.02-1.01,1.31-2.05.26-1.48.86-2.03,1.8-1.64l.7-1.47c.31-.77.72-1.05,1.23-.84.22.06.21.14,0,.24Z" fill="#b82e27"/>
          <path d="M42.16,48.29c.6-.66,1.99.88,1.92,1.68.17.19.02,1.06.72.48-.14.71-.18,1.54-.35,2.17-.08.29-.56,1.58-1.09,1.43,0-.08.02-.18,0-.24l-.44.27c-.18-.05-1.44-2.96-1.57-3.36l.09-.51c-.24.29-.47.29-.72,0-.68-.42.21-2.03.96-1.92.15.03.37-.04.48,0Z" fill="#e8ab37"/>
          <path d="M46.48,9.16s.02.46,0,.72l-.53.35c-1.83-.49-3.44.39-4.92,1.34.24,1.01.02,1.67-1.1,1.72-.16,2.09-2.06.14-1.94-1.28-.78.19-1.47.2-2.08.03-.13-.06-.16-.17-.48-.24,1.15-1.57,3.41-.63,4.86-1.02.43-.11,1.09-.78,1.61-1.03,1.48-.72,2.9-1.26,4.57-.6Z" fill="#367ba9"/>
          <path d="M19.84,47.33c.44-.21,1.08.47,1.2.96.59-.36.74-.14.48.48.67.11.82.31.96.96-.39,1.02-.83,2.31-.96,3.36-.43.29-.78-.55-.72-.96-.69.25-1.66-.76-1.44-1.44-.06-.07.17-.66-.48-.48.39-.95.07-1.81.4-2.59.17-.41.54-.26.56-.29Z" fill="#dcad40"/>
          <path d="M21.76,9.4c.98.55,1.65.41,2.5,1.45.28.34.54.75.62,1.19-.27.33-.62.13-.72-.24-.66.4-1.49.55-2.5.45-1.07.32-2,.33-2.78.03.05.27-.11.43-.48.48h-.24c-.75.23-3.05-.79-2.88-1.68-.11-.3.21-.38.96-.24l.06-.54c1.74-.88,3.31-1.06,5.23-.66-.32-.3-.17-.41.24-.24Z" fill="#e09831"/>
          <path d="M15.52,64.13c.16.52.52.38.72.48.32.28.32.45,0,.48l.22.82c-.36.96-.6,1.94-.73,2.94,1.39.55.61,2.9-.92,2.79-.78,1.5-1.72,3.11-3.13,4.02-.13,1.27-.77.79-.48-.24.71-1.68,1.91-2.6,2.58-4.26.92-2.25,1.11-4.7,1.74-7.02Z" fill="#3478a6"/>
          <path d="M23.44,29.56c.61,0,.28,1.62,0,1.92-.86.6-.12,2.87-1.8,2.87-.69,0-1.14-.96-1.22-.95-.47,0-.72.41-1.48.09-.4-.17-.4-.65-.64-.82-.34-.24-.68-.13-.91-.25s-.2-.45-.34-.47c-.92-.11-3.02.98-2.25-1.43.13.02.45-.04.48,0,.34-.07.52.09.53.5.92-.32,1.65-.25,2.2.2.95-.84,1.56-.28,1.84,1.7.6-.53.92-.53.96,0,.26-.06.57-.05.91.03,0-1.05.12-2.31,1.25-2.67.04-.19-.06-.64,0-.72.05-.05.34.03.48,0Z" fill="#cfaa3f"/>
          <path d="M30.64,46.13c.41.23.44.65.09,1.26,1.68,1.26,1.02,3.72-1.14,2.98l-1.55,5.71c-.23.63-.56.6-1,.13-.23.07-.31-.01-.24-.24.64-1.69,2.13-8.87,3.12-9.6-.17-.29.6-.77.72-.24Z" fill="#b12d26"/>
          <path d="M18.16,66.77c-.52,2.1-.43,3.39-1.64,5.44-1.08,1.83-2.15,2.1-3.54,3.43-.26.25-.29.67-.34.73-.33.34-1.22.24-1.68.24.1-.41-.03-.57.24-1.2-.02.97,0,.93.48.24.22-.01.25.1.1.34,1.36-1.76,2.83-3.45,4.39-5.07.34-1.25.61-2.57.8-3.96l.48-.43c.38-.6.72-.47.72.24Z" fill="#3e7ca6"/>
          <path d="M45.04,31.96c.3,0,.46.17.48.48.62-.37,1.33.3,1.2.96.18.11.18.71.72.24.51-.02.44.27,0,.48-.13.53-.36,1.08-.48,1.68-.14.36-.3.68-.48.96-.76.87-1.52.31-1.68-.72-.21-.04-.53.13-.72.24-.39-1.47-.03-3.16.96-4.32Z" fill="#dea73d"/>
          <path d="M27.28,43.01c.23.15.34.67.95.85.58.17,1.33.14,1.93.11.49.16.49.56,0,.72-.17.52-1.45.38-1.98.21-1.7-1.48-3.1-1.72-4.2-.74.92,1.13-.36,2.32-1.16,1.07-.66.52-1.16,1.23-1.5,2l-.52.1c-.55.41-.83-.14-.48-.72,1.55-2.18,3.98-5.62,6.96-3.6Z" fill="#3275a1"/>
          <path d="M21.52,53.09c1.82,4.25.67,7.3-1.92,10.56-.66.17-.41-.39-.48-.48l.03-.68c2.2-2.75,2.53-6.09.99-10.03-.02-.41.26-.48.66-.33.16.22.67.83.72.96Z" fill="#af332c"/>
          <path d="M51.29,16.36c.14,2.41.1,5.38,0,7.81-.03.89-.51,2.23-.49,2.99-.24,0-.48,0-.72,0-.47-.9-.25-2.11.24-2.94-.08-3.2-.16-6.42-.23-9.65l.47-.85c-.24-.24-.04-.36.59-.36-.07,1.02-.03,2.02.13,3Z" fill="#326f99"/>
          <path d="M34.96,58.85c.51-.75,1.29-.3,1.44.48.47-.51.95-.16.72.48.49-.12.77,0,.44.36l.05,1.08c-.07.21-.23.21-.48,0-.49.13-1-.16-1.52-.88-1.21,1.73-1,3.03.62,3.91.55.55.95,1.53-.05,1.54-.94-.81-2.08-2.12-3.36-1.92h-.24c.38-.12.67-.4,1.2-.24.1-.06-.24-.38-.24-.48-.81-.29-.01-1.86.72-1.92-.62-.1-.69-.27-.24-.72-.15-.64.22-1.67.96-1.68Z" fill="#d4a444"/>
          <path d="M30.16,45.17c.61.36.1,1.34-.48.72-2.61.78-4.68-1.45-6.44,1.84-.32.6-.52,1.35-.76,2-.57.18-.8-.8-.96-.96.46-1.17,1.1-2.21,1.9-3.14.34-.04.69-.28,1.05-.7,1.95-.3,3.85-.22,5.69.23Z" fill="#437fa7"/>
          <path d="M52.01,30.52c1.02,2.72,2.78,6.22,3.12,9.12-.08.98-1.49.34-.96-.48-1.25-1.18-1.72-3.71-1.77-5.29-.58-.41-1.11-2.09-1.22-2.88l.36-.48c.16,0,.32,0,.48,0Z" fill="#ab3830"/>
          <path d="M27.04,56.21c.84-.16,1.82,1.35,1.68,2.16.36-.37.53-.29.48.24.67.58-.53,3.1-1.44,2.64-.21-.1-.29-.34-.24-.72-.72.12-1.7-.93-1.44-1.68-.14-.17-.21-.41-.48-.48.35-.91.97-1.81,1.2-2.4.07.09.17.15.24.24Z" fill="#dd9c3b"/>
          <path d="M13.84,5.08c.5.19.52.33,0,.48-.15-.03-.38.05-.48,0-.27.35-.62.23-1.07-.35-2.2-.58-2.12,1.48-1.82,2.99.32,1.3-.36,1.07-.48,1.2h-.24c.86-1.07-.22-.92-.59-1.93-.42-1.15.42-3.13,1.68-3.33,2.28-.37,1.97.62,2.99.94Z" fill="#d3b150"/>
          <path d="M40.24,76.14c.16,0,.32,0,.48,0,.27.21.84.49,1.5.05.36.07.61.55.66.91.06.03.18-.03.24,0l.27.15c.23,1.2.7,2.33,1.41,3.38l-.23.3c.02.4-.14.4-.48,0h-.55c-.65-1.02-1.13-2.13-1.45-3.34l-3.13-.17c-.06-.24-.19-.43-.4-.56-.89.22-.93-.86,0-.72.53.04,1.14,0,1.68,0Z" fill="#cbad4b"/>
          <path d="M38.56,76.14c-.39.45-.11.48,0,.72.87.3,1.29.95.24,1.2-.39.31-.65.6-.96.96-.29.31-1.68.51-1.92,0l.24-1.44-.48.24v-1.68c1.54,3.8,1.01.18,1.68-.36.1-.08.73.32,1.2.36Z" fill="#e0e2dc"/>
          <path d="M54.17,39.17c.07.03.41.72.96.48.02.16-.01.32,0,.48.21.4.48,1.04,0,1.2-1.1.62-1.64.55-1.68-.8-.66-.68-1.55-1.14-2.16-.4-.29,1.17-1.15-1.67-.48-1.92.64-.85,2.89.06,3.36.96Z" fill="#e39d30"/>
          <path d="M31.12,14.68l.21.25c-.85.63-1.09,1.19-.69,1.67.69.37,1.06.47,1.74.74.43.17.31.22,1.15.46.04.12.07.24.05.35-.14.94-2.65-.21-3.19-.64-.22.55-.54.81-.94.78-.19.25-.27.17-.24-.24-.2-.69-.62-1.79-.96-2.4.56-.1.67.85,1.3.71.52-.12.39-2,1.58-1.67Z" fill="#f9f5d8"/>
          <path d="M37.84,79.02c.08-.64.3-.61.48,0,1.15.29-.17,1.62-.72.48-.27.59-.4.51-.72,0,.2.58-.44.85-.94,1.01.12.85-.12,1.31-.74,1.39-.06.17-.37.37-.24.72-.05-.09-.46-.11-.49-.6-.02-.33.21-.67.22-.99.03-1.04-.42-1.75,1.23-2.01.53-.08,1.33,0,1.92,0Z" fill="#e2c771"/>
          <path d="M16.72,7.24c1.68-.09,3.67,1.39,5.04,2.16-.08.08-.15.19-.24.24-1.76-.17-3.47-.7-5.14-1.58l-.14-.58c.18-.15.17-.22.48-.24Z" fill="#a83529"/>
          <path d="M45.52,46.37c.06-.53.24-1.92.24-2.28v-4.08c0-.35.59-2.28.72-3-.21-.08-.21-.16,0-.24.06-.38.12-.73.48-.96-.32,1.65-.8,4-.96,5.64s.32,3.4-.48,4.92Z" fill="#efcfbe"/>
          <path d="M39.28,62.21c.04.3-.06.68,0,.96-.48,1.18-1.31,1.98-1.44,3.36-.37.13-.74.24-1.14.08-.45-.18-.27-.54-.3-.56.55-.81,1.07-1.72,1.55-2.71l.61-.17c-.14-.51-.06-.83.24-.96.11.04.33-.03.48,0Z" fill="#baab5f"/>
          <path d="M32.08,41.09c.56-.34.68-.14.48.48.37.12.45.44,0,.48-.1.46-.35.51-.69.26l-.69,2.88-.53.23c.39.47.39.71,0,.72-.18-.02-.56.12-.72.24l-.24-.48c.12-.04.4.07.47,0,.07-.08,0-.51.01-.71-.48-.06-.46-.3,0-.48,0-.24,0-.48,0-.72.21-.22.29-.64.25-1.26l.23-.18c.15-.45.31-.93.48-1.44.26-.67.54-.45.96,0Z" fill="#c0a550"/>
          <path d="M53.21,42.05c.37-.62,1.12-.19.96.48.39.32.75.32,1.09,0h.59c.06.37-.06.83,0,1.2-.37-.32-.55-.21-.72.24-.67.68-2.29-.65-2.64-1.44-.03-.11-.25-.29-.24-.48.14-.36.82-.39.96,0Z" fill="#86aba7"/>
          <path d="M16.24,64.61c1.12.56.98,1.54,2.4.48-.16.4-.36,1.22-.48,1.68-.19-.16-.57-.15-.72-.24-.71.65-1.44-.62-1.2-1.44.04-.13-.02-.33,0-.48Z" fill="#bcaf70"/>
          <path d="M52.01,13.24c-.23.2-.68.2-.73.39-.18.65.15,1.97.01,2.73,0-.03-.23-.27-.25-.58-.06-.75.06-1.54,0-2.3-.03-.04-.39.17-.48.24-.14.95-.73,1.55-1.2.48-.07.21-.15.21-.24,0-.37-.42-.28-.77.24-.96.87.04,1.76-.03,2.64,0Z" fill="#9fa084"/>
          <path d="M24.88,12.04c.89.45,1.34,1.42,1.92,2.16-.05-.01-.64.02-.96,0-.76-.44-3.26-2.21-1.68-2.4.27.03.48.12.72.24Z" fill="#a93123"/>
          <path d="M43.12,77.1c.1.05.43-.07.48,0,.07.12-.08.56.01.77.21.45.42,1.01.61,1.38,1,1.98,1.38.73,2.39.7.73-.02.68.41.84.51-1.08-.28-1.93.43-2.88.48-.42-1.3-1.2-2.47-1.44-3.84Z" fill="#f7f1cf"/>
          <path d="M32.56,14.44c.5.56-.61,1.63-1.2,1.2-.37.19-.93-.49-.72.96-.09-.05-.41.07-.47,0-.41-.55.62-1.47.95-1.91.06-.08.33-.32.48-.48.13-.34.62-.61.96-.48-.04.19.06.61,0,.72Z" fill="#c9b269"/>
          <path d="M55.85,42.53c-.23.46-.35.47-.83.5-1.26.07-.76-.43-.85-.5.21-.44.51-.87.96-1.2.02-.38.03-.82,0-1.2.59.31.6,1.64.72,2.4Z" fill="#c2a956"/>
          <path d="M34.48,11.8c-.31,1.52-.78,1.3-1.92,1.92-.31.17-.57.45-.96.48.03-.04-.08-.29.04-.43.33-.39,1.61-.08.92-1.48.62-.25.44.44.6.49,1.03.28.28-.85,1.32-.97Z" fill="#ece2bd"/>
          <path d="M50.57,38.21c.04-.22.13-.21.24,0,.08.39-.11,1.77,0,1.92.04.06.42-.06.48,0,.47-.16.89.15,1.23.92.84-.02,1.62.56.69,1-.21-.08-.73.08-.96,0-.06-.02-.42-.72-.96-.48-.31-.97-.83-2.41-1.2-3.36.16,0,.32,0,.48,0Z" fill="#c2a956"/>
          <path d="M13.84,5.08c.44.14,1.22.3,1.82.47,1.07.31,1.19-.6,1.06,1.45-.39-.12-.06-.91-.39-.97-.82-.14-1.69-.28-2.49-.47v-.48Z" fill="#f5f1ca"/>
          <path d="M25.36,30.04c-.52.23-.46-.55-.6-.48-1.43.69-.58,1.54-.86,1.91-.06.09-.4-.03-.46,0v-1.92c.35-.09,1.26-.3,1.53-.22.42.12.29.53.39.7Z" fill="#f5e9bb"/>
          <path d="M37.36,89.1c.18.86,1.81,1.14,1.89,1.23.1.12.42,2.36.99,2.85-.29-.24-.6-.34-.82-.74-.2-.37-.4-1.69-.67-1.86-.84-.51-1.18.31-1.39-1.49Z" fill="#f2e7b3"/>
          <path d="M42.64,76.14c.05.23.41.55.24.96-.11-.06-.19-.42-.42-.47-.73-.16-1.95.39-1.74-.49.69-.03,1.38.3,1.56-.48l.36.48Z" fill="#90a993"/>
          <path d="M40.72,93.42c.66.1,1.67-.15,2.25-.01.29.07.1.43.15.49-.58-.05-1.25.1-1.81,0-.51-.09-.52-.44-.6-.48Z" fill="#efe3af"/>
          <path d="M20.8,47.33c.8-.25,1.09.78.24.96-.17-.17-1.06-.51-1.2-.96.15-.2.31-.48.48-.72-.11.47.4.6.48.72Z" fill="#729495"/>
          <path d="M25.84,31c.53.08,1.3-.12,1.78-.01.29.07.1.44.14.49h-1.44s-.13.23-.48-.48Z" fill="#d1c18c"/>
          <path d="M52.25,6.52c.31.08,1.14-.05,1.36.55.14.38.02.69.08.89-.32-.81-1.54-.71-1.44-1.44Z" fill="#f5e6ba"/>
          <path d="M48.41,80.94c.9.57,1.14.45.96,1.92-.47-.47-.7-1.31-.96-1.92Z" fill="#f7f1cf"/>
          <path d="M48.17,33.89l-.72.24c.03-.14-.04-.35,0-.48.09-.34-.08-.86.48-.96.13.39.15.81.24,1.2Z" fill="#efcfbe"/>
          <path d="M36.16,65.81c.66-.96-1.31-1.84-1.7-2.51-.63-1.09.67-2.39.74-3.49.44-.38,1.58,1.08,1.92,1.44.72.21,1.68,1.13,1.44,1.92-.29.71-1.11,1.87-1.21,2.5-.11.73-.42.3-.95.38-.08-.08-.16-.17-.24-.24Z" fill="#edc13a"/>
          <path d="M15.28,11.08c.87.67,2.04.94,2.88,1.68.88.67,1.52,1.63,1.92,2.88.43.77.83,1.59,1.2,2.4.71.33,1.08,1.39.96,2.16.55.76.95,1.64,1.2,2.64.11-.1.19-.02.24.24.54-.03,1.07,1.54.72,1.92.33.7.33,1.1,0,1.2-1.08.6-2.67.92-2.78-.71-.41-.67-3.04-1.07-3.94-.97-.12.05-.36-.05-.48,0-.71.18-2.37-1.52-2.56-2.3.58-1.16.15-1.57-1.08-1.65-.62-.22-1.56-.99-1.17-1.57-.09-.44-.23-.82-.42-1.13,1.67-.55,1.37-1.46.2-2.48l.22-.71c.82-1.78.86-2.76,2.88-3.6Z" fill="#fefdfc"/>
          <path d="M10,9.88c.6-.4,1.48-.38,1.44.48-.83-.01-1.1-.22-.96.72h1.2c-.64,1.51-.25,3.47-.55,4.85-.07.34-.45.7-.55,1.13-.53,2.22.9,2.55,1.47,4.09.16.44.06.95.24,1.44.37,1,3,2.77,3.96,3.01.22.05.96-.67.95,0,0,.13-1.56,1.28-.96,2.28-.39.11-.67-.16-.96-.24-.5-.14-.75-.13-1.2-.48.75-.81,1.29-1.47-.32-1.61.44.52.54.95-.16,1.13-2.8-.82-5.27-2.93-5.52-6,.2-.97.17-2.14,0-3.12.05-1.44.19-2.43.48-3.84.18-.11.45-.2.55-.07.13.17,1.23,2.66.56,1.26-.28-.58-.62-1.26-1.1-1.67.34-1.41.81-2.15,1.44-3.36Z" fill="#f0c632"/>
          <path d="M21.52,26.68c-.08,0-1.16,1.13-1.2,1.2-.57.15-.92.43-1.06.84l-.51.46c1.63.35,2.95,3.09,1.09,3.74-1.03-.18-.69-.83-.72-1.68-.49-.19-.91.72-1.08.72-.11,0-.43-.6-.77-.68-.47-.12-1.21.48-1.77.1-.33-.22-.17-.79-.22-.86.1-.23.27-.36.48-.48.17-.1.57-.02.72-.37l-.37-1.08,1.56-.6c0-.3-2.22-1.36.48-1.56-.13-.77-.84-.88,0-1.68.47-.55,1.2-.15,1.68.21,1.28-.38,2.64.89,1.68,1.71Z" fill="#f0c731"/>
          <path d="M10.48,8.2c-1.4-.97-.62-4.1,1.74-3.54.59.14.88.78,1.14.9.47,1.99-.88,4.04-2.88,2.64Z" fill="#efc531"/>
          <path d="M16.24,7.48l5.28,2.16c-.8.47-1.75.15-2.7.3-.7.11-1.85.63-2.58.9-.66.12-1.14-.04-1.44-.48-.05-.84.83-2.36,1.44-2.88Z" fill="#e84f28"/>
          <path d="M11.92,19.48c-.62-.86-.94-2.24.54-1.67-.33.38-.28.79-.06,1.19,1.06,1.77,2.1,1.05,2.66,1.78s-.11,1.31.09,1.82c.16.39,1.63,1.55,2.05,1.93-.08.03-.07.44-.49.38-.37-.05-.51-.46-.71-.62-1.08-.09-2.92-1.63-2.19-2.87-.28.05-.38-.21-.45-.5-.76-.21-.98-.8-1.44-1.44Z" fill="#cfa740"/>
          <path d="M24.4,26.2c.39.14.31.3-.24.48-.52.06-1.14.19-1.59.22-.4.03-.81-.24-1.05-.22.1-2.07-1.07-1.07-1.75-1.23-.41-.1-.47-.51-1.61-.69-.18-.03-.35-.11-.48-.24.09-.04.25-.36.65-.44.48-.09,2.82.51,3.19.8.62.48.37,1.36.87,1.54.57.2,1.39-.32,2.01-.22Z" fill="#cea741"/>
          <path d="M13.36,20.92c.33.09.94-.16,1.2.36.21.43-.47.33-.5.49-.13.89,1.3,1.98,1.94,2.5-.23.49-.74.12-1.04-.04-1.16-.6-2.87-2.04-1.6-3.32Z" fill="#efc235"/>
          <path d="M12.4,14.68c-.32,1.09,1.05,1.24.97,2.27-.06.78-1.46.72-.97,2.05-.2-.34-.32-.53-.24-.96-.94-.18-.1.75-.24,1.44-.11-.15-.54-.2-.67-.65-.33-1.14-.13-2.76,1.39-2.47.29.83-.97.18-.72.84.33.85,1.21.12.97-.91-.07-.27-.85-.34-.94-.8-.09-.41.36-.61.45-.81Z" fill="#e3b940"/>
          <path d="M13.16,11.12c-.18.15-.52,2.63-1.24,2.84-.12-1.08.42-3.87,1.81-3.84.32,0,.65.27.59.6-.09.44-1,.27-1.16.4Z" fill="#edbe39"/>
          <path d="M16.24,10.84c-.4.15-.83.18-.96.24-.36-.28-.45-.2-.48-.72l1.44.48Z" fill="#a3341a"/>
          <path d="M36.88,79.5l.41.17c1.44,3.68,3.84,6.74,6.9,9.21,7.55,6.1,9.73,2.36,3.48-3.36-.99-1.16-1.91-2.37-2.64-3.7-.07-.14.07-.29.26-.4.84-.05,1.45-.48,2.34-.06,1.28.6.41,2.1.54,2.22.11.1,1.92-.04,2.75.97,1.03,1.26.15,2.17.35,2.97.03.13,1.48.28,1.66,1.77.13,1.05-.69,1.08-.69,1.61,0,.6,1.36,1.38.5,2.84-.63,1.07-1.98.37-2.5.46-.29.05-.58.58-.93.72-1.91.8-2.29-.69-2.7-.72-.35-.03-.98.78-2.04.29-.85-.39-.9-1.72-.97-1.79-.28-.25-1.75.71-2.88-.12-1.25-.91-.45-2.42-.73-2.75-.13-.15-1.32-.13-1.6-.32-.52-.36-.42-1.89-.65-2.35-.38-.77-2.26-.33-1.8-2.75.08-.42.56-.72.45-1.16-.1-.42-1.01-.86-1.18-1.37.27-.74.43-1.13,0-1.92,1.02.31,1.08-.4,1.68-.48Z" fill="#f0ca2c"/>
          <path d="M37.6,79.5l.62.32c1.63,4.14,4.66,7.25,8.25,9.7,2.38,1.63,6.15,3.36,2.71-1.01-2.08-2.09-3.8-4.43-5.17-7.03l.07-.53c.16,0,.32,0,.48,0,.15.45-.29.54.72.48.17.57.53,1.17.86,1.66,1.22,1.8,4.55,4.94,5.26,6.5,1.06,2.34-.53,3.27-2.69,2.44-5.19-1.99-9.93-7.38-11.84-12.53.23-.03.49.02.72,0Z" fill="#d8aa1d"/>
          <path d="M31.12,31c.08-.48.56-1.04,1.14-.62l1.27,5.18c1.12,1.21,1.43,3.36,1.23,4.98l.21.31c.48.29.13,1.66-.48,1.68-.46.82-1.1.5-1.92-.96-.18-.17-.31-.3-.48-.48-.49-.05-.73-.37-.72-.96,0-2.09-1.6-5.18-1.68-7.92-.11-.64.05-.72.48-.24.35-.34.67-.66.96-.96Z" fill="#68b0df"/>
          <path d="M31.36,40.13c.4.16.68.91.72.96h-.96c-.11.96.41,1.31-.48,1.44-.03.48.03.96,0,1.44-.16.01-.32-.01-.48,0,.03-.96-.35-1.32.48-1.44.03-.4-.09-.95,0-1.28.07-.27.47-.14.49-.16.05-.09.24-.83.24-.96Z" fill="#c3c2a3"/>
          <path d="M12.87,79.98c.06.06.27,1.34.72,1.56l-2.63,1.32c.08-.6-.19-1.66.11-2.17.16-.26,1.71-.8,1.8-.72Z" fill="#f0c732"/>
          <path d="M48.89,15.16c.36,1.24.32,2.57-.14,3.98-.43,2.42-.98,4.97-2.02,7.06.38.42.29.77-.24.96.11.12.2.24.23.38.06.23-1.21,4.11-1.67,4.42-.34,1.46-.62,2.89-.96,4.32-.89,3.78-1.46,8.6-2.4,12-.11.41-.77,1.25-.96,1.92.11.18.19.34.15.49-.45,2.08-1.17,5.05-2.09,6.91-.07.14-.25.22-.46.28-.11.03-.21.06-.32.05-.46-.06-2.17-8.6-2.02-9.04l.41-.37c-.29-.4-.42-.88-.39-1.45-.52-.34-.63-1.06-.33-2.16-.28-.31-.16-.34.24-.24l-.04-.44c1.75-3.01,3.38-6.08,4.89-9.22l.44-.18c-.24-1.16.4-2.78,1.44-3.36-.39-.23-.22-.58.24-.48.06-1.13.37-2.29.92-3.49-.16-.45-.02-.94.45-1.46l.87-3.39.41-.3c-.68-.39.21-2.73.96-2.64-.25-.56,1.72-4.95,1.99-5.02.19-.05.36.22.41.46Z" fill="#fcfdfc"/>
          <path d="M42.16,48.29c.6-1.68.65-3.53.96-5.28.74-.1.97,1.3,1.67.36-.43-.88-1.8-.54-1.43-1.68.13-.41.29-.32.59-.12.14.09,1,.71,1.03.77.5.86-.67,6.33-.91,7.63-.22-.24-1.76-1.62-1.92-1.68Z" fill="#eb4b2e"/>
          <path d="M46.48,36.77c-.01.08.01.16,0,.24-1.51.58-.92,3.31-1.56,4.56-2.18-1.37-.08-3.52-.12-5.52.38.07.9,1.05,1.68.72Z" fill="#eb4b33"/>
          <path d="M46.48,11.8c.88.13.78.49.48,1.2.11.12.19.23.16.3-.4,1.12-1.44,3.39-2,4.49-.02.05-.16.04-.33.02.22,1.33-.1,2.21-.96,2.64l.14.92c-.45,1.45-2.03,4.6-2.8,6.07-.06.12-.24.18-.45.22.27.51.09.86-.48.96.35.32.26.6-.28.86-.36.7-.5.96-1.16,1.3l.07.56c-1.48,2.92-2.65,5.97-3.49,9.14l-.43.38c-.78.14-.4-.39-.47-.84-.25-1.51-.6-2.97-.97-4.44l-1.09-4.71c-.68-.38-.71-.81-.11-1.29-.25-.39-.03-.66.24-.96-.37-1.64,1.1-.43,1.69.25l1.67.23.25-.27c.99.34,1.98.27,1.94-1.02.81-.83,1.28-1.96,1.68-3.03.12-.31.75-2.3.78-2.49.03-.27-.27-.65-.55-.69-1.87.19-2.89.09-4.1-1.43-.84.32-1.85.4-1.45-.67-.39-.4-1.08-.32-1.44,0,.19.34-.14.69-.48.48l-.43,2.11c-.3.5-.87.41-1.01-.19-.59.07-.75-.25-.48-.96-.64-.27-1.28-1.94-1.2-2.64l.6-1.43c1.1.31,2.44,1.7,3.48.95.78.22,2.28.97,2.76,0,.57-1.16-.45-2.03-.38-3,.04-.55.45-.86.5-1.56.19-.17.4-.23.63-.15,2.52,3.07,4.36,1.38,6.52-.79.73-.6,2.38-1.45,2.93-.5Z" fill="#fdfdfc"/>
          <path d="M46.48,9.88c-.02.4.02.8,0,1.2l-.21.29c-1.11-.04-2.08.33-2.89,1.07-2.57,2.92-4.41,3.09-6.98.08-.15-.09-.32-.41-.48-.48.67-.16,1.78-.84,2.42-.38.45.32-.07,2.35,1.18,2.3l-.24-2.4c.85-.29.38,1.49,1.08,1.2s-.03-1.1.15-1.4c.06-.1,1.79-1.09,2.05-1.2,1.31-.59,2.54-.73,3.93-.27Z" fill="#63b1e3"/>
          <path d="M51.67,7.59c.1.05.1.37.24.37.19,0,.74-.34.82-.24.06.07-.07.54,0,.79.07.22.47.16.49.33.05.53-.37.97.23,1.76-1.58,0-.57,1.07-.72,1.2-1.56-.3-.73.7-.96.96-.46.14-.68-.53-1.05-.46-.33.06-.56.86-1.11.7l-.12-.96-1.08.72c.56-1.82-.23-.96-.45-1.22-.11-.13.03-.54-.03-.77-.08-.29-.44-.08-.48-.3-.12-.57.45-.24.48-.5.08-.53-.33-1.35.46-2.1.28-.26.69-.11.74-.16.09-.09-.16-.37-.15-.45.12-1.12.66.14,1.02.19.5.07.17-.64,1.67.13Z" fill="#f0c533"/>
          <path d="M46.48,11.08c.55.1.79.91,0,.72-3.19-.46-3.96,3.23-6.62,3.35-1.62.07-2.17-1.41-3.46-1.91.02-.24-.01-.48,0-.72.11.06.49-.03.84.23.9.65,1.16,1.78,2.61,1.69,2.41-.16,3.37-3.95,6.63-3.35Z" fill="#397aa6"/>
          <path d="M48.89,13.24c.1.44-.23,1.21-.44,1.68-.7,1.49-1.56,3.2-2.44,4.56-.5.57-1.3-.02-.96-.72-.18-.94,1.93-5.9,2.59-5.91.1,0,.19.06.29.15.2.22.67.21.96.24Z" fill="#e84c34"/>
          <path d="M49.37,13.24c-.07.32-.15.64-.24.96.2.32.21.94-.24.96-.66-.15-.44.36-.6.7-.57,1.23-1.34,2.6-1.8,3.86-.46.53-.69.43-.48-.24.61-1.89,1.54-3.66,2.32-5.49.14-.34.17-.58.56-.76.16.02.32,0,.48,0Z" fill="#a7332c"/>
          <path d="M46.96,13c.16-.17.6-.48.84-.48.26-.02.06.41.12.48-.7.44-.9,1.28-1.29,1.95l-1.59,3.81c-.42.14-.5-.18-.24-.96.52-1.3,1.24-3.81,2.16-4.8Z" fill="#aa3129"/>
          <path d="M34.24,61.25c-.04.52-.7,1.3-.72,1.92-1.77-.76-2.53.7-3.07,2.09-.46,1.18-1.36,5.83-2.57,6.07-1.79.35-3.66-1.19-4.14-2.83-.43-1.45-.12-2.08.18-3.42l.48.38c-.18,1.24.07,2.3.74,3.17l-.26.53c.42.64,1.57-.02,2.06-.42,1.09-.88,1.87-2.83,2.08-4.27.6-2.1,3.07-4.74,5.22-3.23Z" fill="#ea4b32"/>
          <path d="M27.52,60.53c-.13,1.29-.49,2.59-1.09,3.88-.32,1.22-.53,2.59,1.13,2.72,1.18.83-2.07,3.02-2.68,2.05-.09-.32-.57-.62-.76-1.28-.28-.93-.2-1.86-.2-2.8.12-.54.25-1.91.72-2.29.12-.1,1.1.51,1.44.37.16-.75-.73-.5-1.09-.95-.45-.56.31-.43.36-.65.22-.85.17-1.81.72-2.72.43.52,1.15,1.14,1.44,1.68Z" fill="#ec4a2d"/>
          <path d="M32.56,14.44c.33.36,1.53.74,1.68,1.08.18.41-.33.28-.46.54-.11.22.04.66-.25.91-.15.13-3.49-.75-2.03-1.09l-.14-.24c.07-.04,1.16-1.13,1.2-1.2Z" fill="#eec539"/>
          <path d="M29.2,18.04l.97,2.62-.25.26-.47.35c-2.01-.6-4.07-.97-6.17-1.08-.21.38-.37.16-.56-.23-.44.08-1.12-1.58-.72-1.92,2.79-.27,2.86-.69,5.89-.01.43.1.94-.07,1.31.01Z" fill="#ea5026"/>
          <path d="M24.16,11.8c-.51.69-.06.36.21.62.53.51,1.32,1,1.47,1.78-1.92-.13-3.7.26-5.52.24-.45-.65-.98-1.26-1.6-1.82l.16-.34c1.76-.45,3.41-.71,5.28-.48Z" fill="#e94f26"/>
          <path d="M24.64,14.92c.05.06-.12,1,.36,1.2l.36-1.2c.51.08,1.26,1.61,1.08,1.92l-4.1.49c-.99.31-1.95-2.41-1.19-2.41.51,0,3.36-.13,3.48,0Z" fill="#f2c72e"/>
          <path d="M22,18.04l.72,1.92c.32.34.18.48-.24.24-.07.19-.15.19-.24,0-.34-.72-.63-1.45-.96-2.16.24-.02.48.02.72,0Z" fill="#af513d"/>
          <path d="M18.88,12.28c.4.8,1.54,1.15,1.44,2.16-.16,0-.32,0-.48,0h-.32c-.25-.64-.62-1.2-1.12-1.68l-.24-.48c.23-.04.52.05.72,0Z" fill="#a73923"/>
          <path d="M19.84,14.44c.12.3.06.86.24,1.2-.04-.08-.46-.19-.59-.48-.46-1-.23-1.43-1.33-2.4h.24c.64.38,1.17.98,1.44,1.68Z" fill="#ddba90"/>
          <path d="M34.48,24.52c.67-.21.76.02.24.48-.12.96-1.1,2.13-2.16,2.16-1.31.11-2.54.37-3.84.48v-1.2c-1.86-.4-.33,1.2-.95,1.57-2.4.32-4.51,1.63-6.97.83-.03-1.74,2.65-1.38,3.36-2.16l.42-.37c3.06-.64,6.04-1.25,8.94-1.82l.97.04Z" fill="#e65223"/>
          <path d="M34.48,19.48s.12.38.4.44c.37.08.7-.24,1.21-.03.66.28.91,1.24,2.39,1.44.67.09,2.25-.7,2.42.95.01.14-.71,2.31-.84,2.67-.26.71-.38.91-.64,1.74-.18.56-1.12,1.36-1.23,2.15-.78.8-1.44.42-2.27.25-1.17-.04-1.95-.15-2.64-1.18-.41-.05-.72-.14-.96-.26-.07.1-.16.09-.24,0,.15-.17.32-.33.48-.48l.9-.26c.56-.96.9-1.19,1.02-.7.37.25.43.68.19,1.29,1-.18,1.52.05,2.25.68l.45-.08c-.82-1.06-.31-1.69.93-1.71-1.03-1.03-.66-1.69.7-1.92-.57-.67-.34-1.37.7-2.1-.93.26-1.71.21-2.35-.15-1.1.89-1.37-.04-1.53-1.05-.87.87-1.63.61-2.28-.76.28,1.21.1,1.99-.56,2.34.2.36.29.72.29,1.06.63.14.62.32,0,.48.03.52-2.09,1.1-1.68.24.26-.61.31-1.38.13-2.33.49-.53.76-1.28.83-2.23.16-.3.34-.32.48-.48.22-.38,1.22-.44,1.44,0Z" fill="#d0a83b"/>
          <path d="M31.6,28.12c1.16.64.6,1.58-.67,1.69.18.01-.05,1.1-.29,1.19.52.37.07.85-.48.96-.15.03-.35.23-.48.24-.04-1.28-.23-.41-1.2-.84-.35-.16-.67-.85-.95-.95-.61-.22-1.71.64-1.69-1.33,1.97.18,3.86-1.08,5.76-.96Z" fill="#ebba3f"/>
          <path d="M19.84,32.92c1.73-1.45-.65-3.93-2.4-3.12-.3-1.15.91-.6,1.42-1.34.38-.55.24-1.39.26-2.02,1.2-.16.2,1.55,1.2,1.44-.41.71.07,1.24.24,1.92,1.01.03,1.45,3.12.24,3.12-.23-.07-.67.05-.96,0Z" fill="#daab20"/>
          <path d="M22.96,30.28c-.2.89-.55.96-.67,1.37-.22.74.34,2.04-1.08,1.75-.2-.04-.32-.45-.41-.48.49-1.33.06-1.93-.24-3.12.91-.56,1.68-.08,2.4.48Z" fill="#f0c632"/>
          <path d="M32.32,27.64c.22.25.31.57.24.96.53.84-.19.8-.24.96l-.11.82c-.33-.2-.69,0-1.09.62-.07.46-.26.43-.48,0,.07-.39-.13-1.13.04-1.4.1-.16.99-.16,1.13-.66.06-.24-.22-.62-.2-.81.02-.26.37-.36.48-.48h.24Z" fill="#c8a84c"/>
          <path d="M13.6,26.68c-.06-.11.11-.57-.03-.69-.11-.09-.62-.02-.92-.16-1.01-.48-.65-1.7-.74-1.79-.12-.14-1.4.76-2.17-.59-1.11-1.92,1.94-2.68,1.46-.52-.03.15-.92.2-.48.63.11.11.97-.54,1.58-.02.5.42.2,1.32.57,1.6.24.19,1.47-.54,2.19.44.65.89-.04,1.48-.98,1.58-.13-.1-.42-.37-.48-.48Z" fill="#daab22"/>
          <path d="M8.55,13.24c.74-.08,1.07-2.27,1.93-1.1,1.07,1.45-.89,1.26-.98,1.34-.36.33.79,1.47.74,2.03-.05.52-.66.74-.71,1-.03.18,1.11,1.84.1,2.25s-.27-.74-.35-1.3c-.05-.37-.48-.66-.49-.98,0-.43.65-.83.63-1.19,0-.17-.65-1.34-.88-1.57.03-.15-.03-.34,0-.48Z" fill="#daab22"/>
          <path d="M8.07,17.56c.53.29.05,1.41.26,1.66.08.09,1.11.11,1.42.38.79.66-.16,2.06-.72,1.56-.25-.22.9-1.05.12-1.2-.61-.11-.76.37-1.08.72-.08-.95-.03-2.15,0-3.12Z" fill="#d9aa23"/>
          <path d="M52.49,42.53l2.64,1.44.48,1.68c-2.43-.98-1.4-.17-.26.86,1.75,1.59-1.17.13-1.42.34-.58.5,1.59,1.14,1.65,1.23.54.85-3,8.12-2.37,9.81-.21,0-.58-.05-.72,0-.49-1.49-.45-3.08-.18-4.62.18-1,.76-2.05.88-2.96.26-1.99-.18-5.81-.7-7.78Z" fill="#64b1e4"/>
          <path d="M53.63,60.11s.53.54.53.58c0,.17-.28.52-.23.57.09.1,2.16.35,1.92,1.56-.11.55-1.37.29-1.75.37-.17.04-.16.39-.36.45-.96.29-1.91.63-2.93.5.24-.97,1.32-4.66,2.82-4.03Z" fill="#e7bb2f"/>
          <path d="M49.37,30.04c.42.15,1.7.46,2.16.48l2.64,8.64c-.9-.32-2.5-.92-3.36-.96-.08,0-.16,0-.24,0l-1.2-3.36,2.88-.24v-.72c-1.04-.38-3.23.94-3.36-.48.15-.13,2.13.19,1.92-.72-2.83.2-2.06-.03-2.64-1.92-.35-.81.53-.83,1.2-.72Z" fill="#ec4b2c"/>
          <path d="M50.09,27.16c-1.38.01-.85-.2-1.39-.47-.22-.11-.66.05-.77,0-.2-.04-.36-.2-.48-.48-.78-.13.28-3.29.54-3.57.35-.37-.07.47-.1-.28.92-2.65,1.25-5.41,1.48-8.15.85.23.84-.21,1.2-.48.02,4.5.56,9.02-.48,13.44Z" fill="#63afe3"/>
          <path d="M49.37,30.04l-1.2.72c-.06-.19-.59-1.63-.96-1.2.03,1.37.12,2.58-.48,3.84-.63-.4-.72-.55-1.2-.96-.13-.11-.23-.21-.21-.28.13-.62,1.23-4.49,1.52-4.55.12-.02.24,0,.37.03,0,.54.04,1.17.47,1.58.12.11,1.45.74,1.69.82Z" fill="#e64e30"/>
          <path d="M47.21,27.16c0,.16,0,.32,0,.48-1.06,1.39-.94,3.26-1.68,4.8-.08-.07-.65.18-.48-.48.4-1.72,1.06-3.21,1.44-4.8.28-.69.68-.77.72,0Z" fill="#a93327"/>
          <path d="M47.45,26.2c.76.06.4.44.48.48-.88-.23-.65.41-.72.48-.02.03-.51-.25-.72,0,.08-.32.16-.64.24-.96.25-.67.34-.6.72,0Z" fill="#8d6d5c"/>
          <path d="M20.8,52.13c-.41.17-.04.75.03,1.05.81,3.69,1.56,7.19-1.71,10-.72-.92-.92-1.36-1.44-2.4.73.14.42-.35.51-.8.28-1.35.59-2.6.45-4.01,1.1.35.11,3.46.24,3.6,1.28-.16,1.04-2.21.85-3.13s-1.29-2.4-1.33-3c-.06-.84.73-1.94.96-2.75.46.5.95.77,1.44,1.44Z" fill="#ec4b2d"/>
          <path d="M41.44,50.21c1.05.77,1.14,2.1,1.46,3.16.08.25.43.37.46.44-1.31,1.19-1.54,3.5-2.76,4.8-.42-.35.83-1.95.6-2.16-.94-.27-.8.77-1.2,1.56-.5.99-1.17,1.91-1.45,3l-.24-1.2-.24-.21c1.15-3.1,2.17-6.23,3.05-9.39h.31Z" fill="#ec4b2e"/>
          <path d="M41.44,50.21c-.61.92-.53,1.87-.78,2.7-.37,1.26-1.79,6.16-2.34,6.9-.02.02-.41-.11-.48.16-.1.35.06.88,0,1.28-.07.2-.15.2-.24,0-.85-.26.06-.92-.48-1.44.19-.6.4-1.21.65-1.82l.55-.1c1.08-2.51,1.65-5.05,2.4-7.68.44-.32.42-.22.72,0Z" fill="#b33029"/>
          <path d="M37.6,61.25c.09,0,.2-.02.24,0,.19.11.42.75.96.96.16.46-.12.67-.24.96-.19-.68-.93-1.37-1.44-1.92.16.01.32-.02.48,0Z" fill="#dba92b"/>
          <path d="M30.16,44.69c0,.16.01.32,0,.48-4.23.67-5.67-1.62-7.86,3.08-.22.47.1.66-.79.52-.12-.12-.36-.36-.48-.48.11-.48-.03-.61-.24-.96.13-.76,1.56-2.76,2.26-2.66.26.04.23.93.86.74-.02-1.02-.99-1.13.12-1.92,2.48-1.78,3.55,1.91,6.12,1.2Z" fill="#63b0e3"/>
          <path d="M22.89,10.44s.3.54.54.52c-.27.62-2.73.3-3.48.36-.67.05-1.34.43-1.93.44-.74,0-1.3-.51-.42-.87,1.11-.46,4.2-.82,5.28-.46Z" fill="#f1be37"/>
          <path d="M16.24,65.09c-.02.34.92,1.27,1.2,1.44.04.89-.13,1.79-.36,2.64-.93,3.57-2.84,4.25-5.1,6.67-.55.59-.24.23-.31-.19.45-.66.92-1.14,1.3-1.7.43-.63,1.11-2.23,1.46-2.62.38-.43,1.19-.04,1.56-.61.07-.86-1.46.19-1.2-.84h1.2c.21-.7-.55-.42-.7-.87-.24-.76.68-3.06.94-3.93Z" fill="#63b0e3"/>
          <path d="M30.64,46.13c.49-.33,2.13.85,1.92,1.44l-.32,2.1c-1.44,2.64-2.5,5.5-3.17,8.58l-.35.12c-.49-.48-1.21-1.57-1.68-2.16.61.12.51-.28.64-.66.64-1.84,1.03-3.92,1.52-5.82l1.44.48c.19-.68-.49-.47-.74-.81s-.25-.69-.22-1.11c.65-.33,1.3,1.67,1.68,1.2.41-.51-1.12-1.78-1.17-2.07-.02-.11.38-.78.45-1.29Z" fill="#eb4b2f"/>
          <path d="M32.8,48.77c.11-1.22,1.64-.92.72,0,.48-.07.64.41.48,1.44.14.06.27.12.38.21.28.21,1.45,5.85,1.59,6.78l-.29.69c.26.72-.08.83-.72.96-.33.65-.4,1.34-.96,1.68-.11.53-1.73.5-1.92,0-.19,0-.47-.02-.5-.15-.4-1.74-.8-4.88-.58-6.61,0-.05.09,1.04-.36.75l-.33-.17c.48-1.86,1.2-3.69,2.15-5.49l.34-.1Z" fill="#bfd1df"/>
          <path d="M36.4,48.53l1.92,9.36c-.26.6-.49,2.02-1.2,1.92-.03-.03-.53-.34-.72-.48l-.36-.61c-.59-.21-.71-.49-.36-.83-.76-2.25-1.09-5.36-1.68-7.68l-.17-1.11c.48-.34.86-.78,1.13-1.3.63-1.34,1.08-1.19,1.18.28l.26.44Z" fill="#69b0dd"/>
          <path d="M27.76,61.25l.45.31c-1.16,1.76-1.54,8.75.11,2.35.47-1.21,2.38-4.19,3.76-3.38.22-.05,1.81-.05,1.92,0,.09.04.25.55.24.72-1.47-.06-2.23-.18-3.37.84-2.03,1.81-1.3,4.03-2.88,6.01-.75.94-1.79,1.62-2.99,1.79-.64-.32-.12-.66-.13-.7.64.22,2.45-.86,2.64-1.32.17-.44-1.32-.61-1.45-1.18-.9-1.58,1.03-4.47,1.45-6.13.17.32.22.26.24.72Z" fill="#af2d27"/>
          <path d="M35.68,57.89c.14.42,1.09.51.72,1.44-.44-.31-.89-.61-1.44-.48.22-.43.23-.56.72-.96Z" fill="#a5a88b"/>
          <path d="M32.08,60.53c-1.4.29-3,2.58-3.44,3.88-.23.69-.04,2.28-1.01,2.37-2.46.23.17-4.39.13-5.54.78-.7,1.05-1.72,1.44-2.64.15-1.2.5-3.32,1.44-4.08.11-.3.21-.98.48-.96l.96,6.96Z" fill="#fbf8f7"/>
          <path d="M32.56,47.57c.31-.33.44-.19.24.24.48-.08.48.24,0,.96-.25,2.04-2.28,3.62-2.16,5.76-.51,1.43-.83,2.65-1.44,4.08-.24.02-.33-.09-.48-.24.85-1.78.96-3.97,1.57-5.75.37-1.07,1.49-2.31,1.73-3.31.14-.6-.28-1.88.54-1.74Z" fill="#ad332d"/>
          <path d="M27.84,59.03c.02.05,1.05.56.04.78-.48.11-1.86-1.76-1.31-2.4,1.36-.11,1,.87,1.28,1.62Z" fill="#f2bf38"/>
          <path d="M44.08,80.94c.96,1.75,2.15,3.33,3.37,4.91.62.8,5.35,5.21,2.94,5.85-1.91.51-7.63-4.32-8.96-5.84-1.51-1.73-3.12-4.2-3.83-6.37.19-.02.66.05.72,0s-.05-.36,0-.48c-.53-.38-.18-1.08.48-.96.25-.9.07-.52-.24-1.2.74.24,3.51.1,3.86.35.12.09.75,2.16.97,2.63.2.41.48.73.69,1.11Z" fill="#f1cb2b"/>
          <path d="M37.84,79.02c-.17-1.05-.45-2.3.64-.97h.32c-.14.51-.29.43-.48.97h-.48Z" fill="#e8d393"/>
          <path d="M51.29,40.13l.12-1.44c.99,1.09,2.91.68,2.53,2.64.7.13.49-1.22,1.2,0-.02.4.02.8,0,1.2h-.96c-.07-.05-.85-.44-.96-.48.16-.77-.52-.35-.89-.55-.28-.15-.8-1.17-1.03-1.37Z" fill="#f0c635"/>
          <path d="M29.44,18.28c.4.44.95,2,1.2,2.64.58,1.41-1.31,1.11-.72,0-.22-.72-.68-1.44-.86-2.16-.08-.34.17-.63.14-.72.04,0,.18.17.24.24Z" fill="#a73c28"/>
          <path d="M32.56,42.05c.29-.05.59.18.9.69.49.19.83.44,1.02.75.35-.31.48-.17.24.24.73-.19.93.16.48.72.55.14-.1,1.44-.38,1.85.05.87-.48,2.2-1.3,1.51-1.13-.66-2.09-1.46-2.88-2.4.11-.59.63-3.1.84-3.36.35-.44.7-.02,1.08,0Z" fill="#e9bb3a"/>
          <path d="M32.56,41.57s.27-.03.4.08c.51.45.53,1.15,1.52.88.56.1.51.74,0,.96-.18-.06-.52.08-.89-.07-.1-.04-.99-1.1-1.03-1.37-.02-.15.02-.32,0-.48Z" fill="#9ea687"/>
          <path d="M33.52,47.81c-.23.3-.64.47-.72,0-.03-.12-.2-.18-.24-.24-.25-.4-1.5-1.39-1.92-1.44.03-.23-.04-.5,0-.72.94.82,2.21,1.29,2.88,2.4Z" fill="#dda925"/>
          <path d="M49.37,14.2c.6,2.83-.19,5.43-1.2,8.04l1.2.12v.72c-.19.2-1.71-.44-1.44.48.28.22,2.27-.5,2.16.72-1.89,0-2.99-.51-2.64,1.92-.24-.02-.48.01-.72,0,.87-3.65,1.81-7.3,2.16-11.04.05-.55.14-.59.24-.96h.24Z" fill="#357daf"/>
          <path d="M35.69,61.01c1.82.24,2.44,2.3,1.07,3.6-2.19-1.12-1.97-1.55-1.07-3.6Z" fill="#dba92b"/>
          <path d="M29.92,20.92c.09.03.71,1.19.72,0,.1.27.32.41.48.96.78-.02.84,1.96.48,2.4-.07.21-.15.21-.24,0-1.62.36-5.14-.46-6.71-1.14l-.49-.54c-.06.3-.22.46-.48.48-.04-.07-.19-.14-.24-.24-.2-.46-.2-.78,0-.96q.42-.32,0,0c-.34.82-.65-.63-.71-1.14l-.25-.54c.09-.04.19-.23.24-.24,1.14-.2,6.05.53,7.2.96Z" fill="#e4a62d"/>
          <path d="M31.6,24.52c.55.85,1.22-.2,1.68-.24.18-.48,1.47-.5,1.2.24-3.35.64-6.93,1.77-10.32,2.16.05-.06.23-.4.24-.48.07-.35-.05-.82,0-1.2.31.15.63.39.96.72,1.84-.86,3.84-1.34,6-1.44h.24c.21.07.21.15,0,.24Z" fill="#ef8637"/>
          <path d="M24.16,22.6c.87.33,1.79,2.43,1.2,3.12-.04,0-.18.4-.48.14-.16-.29-.32-.57-.48-.86-.31-.58-.45-1.38-.72-1.92-.05-.53-.03-.53.48-.48Z" fill="#ab3827"/>
          <path d="M22.48,20.2c.86.24.29,1.41.49,1.68.05.07.35-.04.47,0,.03.32-.02.64,0,.96-.41-.84-.79-1.76-1.2-2.64h.24Z" fill="#d6b469"/>
          <path d="M39.28,31.48l-.04,1.05c-1.87,3.4-2.85,7.2-3.66,10.94-.23.65-.39.82-.86.26-.08-.07-.22-.23-.24-.24.03-.31-.04-.65,0-.96.07-.53.34-1.13.48-1.68.94-3.7,2.11-6.69,3.84-10.08.82-1.15,1.07.14.48.72Z" fill="#ac302a"/>
          <path d="M33.52,35.57c-.15-.61-.71-1.97-.9-2.82-.17-.81,0-2.65-.96-2.14-.13.07.1.37-.54.4.01-.23-.05-.92,0-.96.1-.09,1.06.22,1.2-.48-.2.57,1.37,4.94,1.2,6Z" fill="#8fb8c6"/>
          <path d="M31.12,31c-.01.23.04.92,0,.96-.07.07-.73-.05-.96,0,.01-.49.39-.43.48-.96.16,0,.32,0,.48,0Z" fill="#8baba2"/>
          <path d="M40.24,28.6c.7-.86,1.73,1.08.96,1.44-.14.14-.33.25-.49.17-.72-.38-.39,1.17-.27,1.21.34.11.56-.71.34-.97l.42-.42c.12-1.03.9-.12.72.72.03-.32.11-.24.24.24.28-.06.44.1.48.48-.46,1.09-.9,2.23-1.44,3.36-.28-.06-.48-.17-.48-.48-.87.24-1.75-2.04-1.44-2.88-.08-.22.05-.68,0-.96l-.48.24c.45-.88,1.2-1.68,1.44-2.16Z" fill="#dba33c"/>
          <path d="M40.72,34.37s.67-.12.48.48c-1.47,3.09-3.29,7.16-5.28,9.84-.43.56-.58.4-.48-.24-.23-.31-.12-.86.31-1.63.5-1.15,3.77-7.72,4.34-8.28.18-.18.31-.24.63-.16Z" fill="#ac302a"/>
          <path d="M45.52,22.36c-.95,2.97-1.42,5.62-2.64,8.64-.34.49-.65-.08-.48-.48-.18-.92.02-1.91.59-2.96-1.18-.66-.69-1.6.54-1.58l.79-3.42c.11-.34.37-.48.72-.44.43-.55.66-.44.48.24Z" fill="#4282aa"/>
          <path d="M45.04,18.76c.21.29.65.52.96.72.14.09.25.26.48.24-.27.74-.74,1.95-.96,2.64-.11-.21-.35-.17-.48-.24-.78.44-.83,0-.48-.72-.41.05-.65-.27-.72-.96.36-.87.61-1.77.96-2.64-.08.45-.01.61.24.96Z" fill="#d1a952"/>
          <path d="M35.44,44.45l.48.24c-.07.09-.2.16-.24.24.12,1.18-.12,2.14-.72,2.88-.11.48-1.06,1.71-1.44.96-.18-.82-.25-.73-.72,0,.03-.22.05-.78,0-.96.23-.02.49.03.72,0,1.28-.18.78-.99.97-1.75.05-.2.41-.13.46-.34.04-.14.25-1.2.25-1.27.07-.21.15-.21.24,0Z" fill="#c0a75a"/>
          <path d="M36.4,48.53c-.61-.24-.5-.87-.48-1.44-.35.57-.71.56-.96.72-.03.24.06.51-.01.78-.09.36-1.4.71-.95,1.62-.1-.4-.34-.81-.48-1.44.52.16.76-.74,1.03-.89.18-.11.37-.05.41-.07.11-.89.29-2.12.72-2.88l.72,3.6Z" fill="#8bafb7"/>
          <path d="M42.88,31c-.08.2-.18.34-.24.48-.61.17-.41-.4-.48-.48-.35-.15-.35-.34,0-.48.07-.21.15-.21.24,0l.48.48Z" fill="#647f7d"/>
          <path d="M43.84,20.44c.7-.16.52.54.72.96v.72c-1.07,1.8-1.9,3.72-2.68,5.65l-.68.35c-.25.74-.87.23-.48-.48,1.09-2.19,2.16-4.91,3.12-7.2Z" fill="#437ea4"/>
          <path d="M31.6,24.52c-.03-.05.03-.16,0-.24-.31-.8-.24-1.57-.48-2.4h.96c-.19-.96.11-1.24.48-1.92.38,1.29-.7,2.3-.42,3.42.14.55,1.07,1.04-.54,1.14Z" fill="#f0da94"/>
          <path d="M40.72,27.64c-.17.62.42.42.48.48.82-.35,1.52,1.8.96,2.4,0,.16,0,.32,0,.48-.02-.03-.33.08-.43-.05-.16-.21.04-.7-.09-.88-.08-.12-.41,0-.45-.03-.1-.67,0-1.28-.96-1.44.16-.32.32-.64.48-.96Z" fill="#a3a878"/>
          <path d="M32.32,27.64c1.35-.38,1.14.56,1.82.94.32.18,1.35.42,1.78.5-.55-.05-1.24.12-1.76-.04-.34-.1-1.29-1.96-1.6-.44-.14-.22-.8-.28-.24-.96Z" fill="#f8f1cb"/>
          <path d="M33.04,19.48c.08-.09-.27-.41.35-.5.58-.08,1.3-.13,1.09.5-.39-.09-1.01.06-1.44,0Z" fill="#f2e7b8"/>
          <path d="M51.45,8.76c1.88,1.73-1.65,3.86-2.69,1.6-.63-1.39,1.39-2.79,2.69-1.6Z" fill="#d8aa1e"/>
          <path d="M28.48,69.66c-.04,1.05-1.11,1.03-1.92.96-.03-.94,1.31-.73,1.92-.96Z" fill="#c72318"/>
          <path d="M33.28,23.8c-.09-.44.27-.65,1.07-.65-.15-2.14.61-2.19,2.25-.13,2.51-.75,3.02.83.62,1.76l.24,1.92c-.55.98-1.17.8-1.85-.55l-.65-.44c-.46,0-.47-.37-.24-.72-.08-.17-.03-.3-.24-.48-.39-.33-.7-.29-1.2-.24-.03-.14.05-.4,0-.48Z" fill="#daa823"/>
          <path d="M34.96,25.72c.38.6.14.84-.48.48-.07.04-.39-.09-.46.01-.13.18.06.86-.02.95-.05.05-1.14-.03-1.44,0,.28-.25.68-.32.96-.59.37-.36.77-1.16,1.2-1.57.1.21.34.37.24.72Z" fill="#ef8637"/>
          <path d="M33.28,23.8c-.05-.08-.46-.2-.6-.47-.56-1.16.48-.98.57-1.34.07-.3-.66-1.78.16-2.03,1-.3,1.01,1.14,1.07,1.2.43.38,1.24-.72,1.32-.72.42,0,.77,1.25.6,1.68.47.14.65-.52,1.03-.44.18.04.38.35.59.39.43.1,2.06-.61,2.22.17.11.54-1.43,1.18-1.15,1.76.02.04.69,0,.43.64-.18.44-1.44.35-1.43.72,0,.17,2.07,1.66-.72,1.56-.06.53.94,1.1.25,1.57-.92.62-1.48-.49-1.84-.55-.94-.18-2.13.88-1.29-1.73.28-.18.4-.43.48-.48,1.09-.7,1.46,1.17,1.8,1.2.65.04-.29-1.59.04-2.34.28-.65,1.71-.54,1.52-1.13-.21-.63-1.04.2-1.73.07-1.25-.25-1.99-3.66-1.73.07l-1.58.22Z" fill="#f1c730"/>
          <path d="M28.89,29.11c1-.25,1.46,1.36.39,1.63-1,.25-1.46-1.36-.39-1.63Z" fill="#af460f"/>
          <path d="M46,86.22c-.12.17,1.19,1.17,1.2,1.31.01,1.18-2.08-.97-2.28-1.56-.1-.3.46-.54.35-1.03-.1-.42-2.38-2.33-1.9-2.81.58-.58,1.87,1.9,2.16,2.27.54.7,2.04,1.45.47,1.81Z" fill="#daac1f"/>
          <path d="M40.72,34.37l-5.28,10.08h-.24c0-.06-.4-.65-.48-.72.73.14.42-.35.51-.79.81-3.98,1.96-7.93,4.05-11.45.08.23,1.31,2.68,1.44,2.88Z" fill="#ec4b2f"/>
          <path d="M33.76,46.61c-2.41-.46-2.36-1.23-1.68-3.36,1.66.21,2.36,1.81,1.68,3.36Z" fill="#dda925"/>
          <path d="M31.36,24.28c-.17.59-.66.41-1.07.49-1.65.29-3.29.64-4.93.95l-1.2-3.12c2.56.24,4.68,1.5,7.2,1.68Z" fill="#e65325"/>
          <path d="M23.44,21.88c-.04-.49-.24-.94-.24-1.44,1.71.51,5.68-.22,5.04,2.4-1.5-.58-3.34-.5-4.8-.96Z" fill="#f2c532"/>
          <path d="M41.2,30.04c.14.98.47,1.42-.83,1.92-1.04-.47-.49-2.68.23-2.64.06,0,.43.55.6.72Z" fill="#f1c436"/>
          <path d="M44.56,21.4c.13.28-.1.41.48.72-.62.92-.62,3.43-1.17,4.17-.22.29-.97.03-1.22.51l.96.48-1.2,3.24h-.24c.03-1.14-.31-.83-.4-1.04-.14-.34-.25-1.05-.56-1.36,1.03-2.22,1.83-4.78,3.36-6.72Z" fill="#63b1e3"/>
          <path d="M50.02,8.95c1.32-.37,1.75,1.54.62,1.85-1.32.37-1.75-1.54-.62-1.85Z" fill="#f1c431"/>
          <path d="M38.56,37.48c-.88.75-1.33-1.92-.6-1.91.25,0,.68,1.85.6,1.91Z" fill="#c62719"/>
        </g>
      </g>
    </g>
  </g>
</svg>