<?xml version="1.0" encoding="UTF-8"?>
<svg id="Layer_2" data-name="Layer 2" xmlns="http://www.w3.org/2000/svg" viewBox="0 0 64 96.24">
  <g id="Cards">
    <g id="ElevenOfCoins">
      <g>
        <path d="M3.46,8.03h-1.51V2.34c-.55.52-1.2.9-1.95,1.14v-1.37c.39-.13.82-.37,1.28-.73.46-.36.78-.78.95-1.26h1.22v7.91Z" fill="#fdc11f"/>
        <path d="M7.29,8.03h-1.51V2.34c-.55.52-1.2.9-1.95,1.14v-1.37c.39-.13.82-.37,1.28-.73.46-.36.78-.78.95-1.26h1.22v7.91Z" fill="#fdc11f"/>
      </g>
      <g>
        <path d="M60.54,88.22h1.51v5.69c.55-.52,1.2-.9,1.95-1.14v1.37c-.39.13-.82.37-1.28.73-.46.36-.78.78-.95,1.26h-1.22v-7.91Z" fill="#fdc11f"/>
        <path d="M56.71,88.22h1.51v5.69c.55-.52,1.2-.9,1.95-1.14v1.37c-.39.13-.82.37-1.28.73-.46.36-.78.78-.95,1.26h-1.22v-7.91Z" fill="#fdc11f"/>
      </g>
      <g>
        <path d="M19.48,59.81c1.01.79-.52,2.27-1.54,2.53-2.69.17-4.22,1.34-4.59,3.51.02,4.5-1.52,7.93-3.54,11.78l-.52.13c.18.05.45.13.46.27.11,1.32.11,3.76,0,5.07l-.46.33.13-.51,2.76-.8c-.95-2.65-.52-4.76.12-7.31,1.07-4.27,2.46-8.14,7.03-9.52.81-.24,2.7-.8,3.17-.16.38-.72,1.1.14.46.46-.13.26-.33.48-.62.54-1.17.24-2.36.44-3.55.62-1.49.58-.9.62-1.84,1.52-.45.43-1.36.53-1.41,1.15-.03.35.23.77.24,1.16.13,3.94-1.16,7.74-1.4,11.57-.29,4.57.37,9.13.91,13.65-.17.52-1.48.46-1.95.39-.51-.07-.89-.47-1.15-.47-.3,0-.62.44-1.15.48-.69.05-1.51-.4-2.2-.49l3.01-7.75c-2.88.21-4.86.72-3.88-2.95.77-2.88.32-4.26.73-6.91.31-1.96,2.36-4.45,2.43-5.91.05-1.07-.83-3.64-1.07-4.92s-.37-2.5-.54-3.75c.1-.49.56-.45.7,0l.49.13.88,4.82c-.28-2.55.42-4.51,2.11-5.88-.08-.52,1.05-1.17,1.39-.7,1.43-.52,2.75-1.22,3.94-2.09.13-.54.33-.54.46,0Z" fill="#654936"/>
        <path d="M50.3,64.68c.33,1.45.57,2.92.39,4.4.32-.04.45.14.54.46.65.11.61.48,0,.7l.58.52c2.31,6.42,2.03,12.92,1.46,19.63l.74-.02c1.1-4.47.93-8.55.62-13.12.11-1.85.26-4.39,1.23-5.85.02-.46.38-.46.46,0-.01.69-.09,1.47-.23,2.32-.08,1.46-.4,3.13-.42,4.52-.02,2.02.56,4.15.43,6.26-.12,1.87-.96,3.91-.96,5.78,0,1.13,1.03,4.29.91,4.85-.28,1.25-2.5.21-2.89.18-.31-.02-.56.43-1.09.42s-1.22-.4-1.75-.48c-.4-.56,1.56-4.33,1.78-5.25.58-2.43.54-9.31.26-11.96-.09-.84-1.3-7.1-1.6-7.32-.2-.14-1.22.37-1.61.23.16-.27.18-1,.23-1.16.06-.36.17-.77.32-1.23-.23-1.41-.14-2.73.28-3.95l.33.09Z" fill="#664d3b"/>
        <path d="M27.59,33.86h.33c.52,2.85.72,5.8.61,8.84-.05,5.27,2.42,11.3,7.89,12.78l.45.63c.27.21.35.35,0,.46-.79.85-2.55-.11-3.44-.66-2.33-1.43-3.87-4.02-5.11-6.38l.22-.6-1.11-2.99c-.08-.29-.14-.49.18-.6l-.27-.11.04-5.8c-.44-.99-.36-1.72.23-2.2l-.5-.18c-.03,1.02-.32,1.66-.89,1.92l.27.55c-1.7,3.4-4.43,6.3-7.56,8.44l-.59-.19-.48.47c-1.2.4-1.74.67-.91,1.85,1.57-.11,1.14,3.31.16,4.13-3.59,2.98-7.87-1.95-4.65-5.21l-4.72-5.2-.06-.67c-.44-.46-.75-1-.93-1.62v-.23c-.19-.35.4-.38.7-.23.05-.16.13-.15.23,0,.82,1.52,5.32,7.17,6.7,7.28,1.84.15,6.06-3.4,7.22-4.6,2.88-2.97,4.31-6.16,4.85-10.1.33-.36,1.19-.48,1.16.23Z" fill="#e79b2b"/>
        <path d="M7.2,42.9l.4.53c.09,2.26.28,4.52.58,6.78,0,.89-.12,2.53-.97,2.65-.73.99-3.35,6.73-1.72,7.44,1.84.3,3.25,1.08,4.73,2.18.59.17,1.41-.16,1.96-.38l5.43-3c2.46-1.07,4.09-1.06,4.94,1.86.37,2.93,2.08,6.32,5.52,5.69,1.95-2.06,4.68-3.39,7.46-4l.41.41c.55.26.24.49-.93.7l-.23.23-.34.54c-1.98.63-3.87,1.64-5.3,3.17-.93.58-2.01.75-3.08.49-.94-.23-3.44-1.51-3.1-2.57-.06-.06.1-.58-.46-.46l-.32.03c-.53-1.71-1.14-3.43-1.85-5.15-.38.18-.63.26-.85-.22-.15.01-.33-.03-.46,0-1.15.87-2.47,1.57-3.94,2.09-.51.18-.9.48-1.39.7-.78,1.16-2.5,2.2-3.48.93-.21-.02-.56.05-.7,0-.4-.15-1.58-1.41-2.38-1.68-1.43-.47-2.82.05-3.17-2.16-.7-4.49,2.95-6.29,3.18-9.32.09-1.22-.58-3.01-.66-4.33-.07-1.24.13-2.2.24-3.37.34-.45.67-.29.46.23Z" fill="#ad2f26"/>
        <path d="M17.99,14.04c-1.01-1.18-1.61-2.8-1.75-4.39-.95-10.67,12.68-12.87,15.7-3.42,2.71,8.48-8.6,14.03-13.95,7.81Z" fill="#cb9937"/>
        <path d="M1.87,21.35c0-2.02-.59-4.11.12-6.02.18-.5.82-1.02.8-1.51-.01-.32-.61-1-.76-1.54-.31-1.12-.05-2.68.77-3.55.99-1.05,1.06,1,1.35,1.67,1.08,2.5,1.07,1.28,2.94,1.45.55.05.92.41,1.2.44,1,.11,2.85-4.75,3.96-2.57.9,1.76-.52,3.38-.41,3.54,2.12.29,3.55.63,4.98,2.32,1.36,1.6,1.88,4.03,3.26,5.54,1.49,1.64,3.28,1.79,4.47,4.1.84,1.63,1.07,2.57,2.11,4.26.46-.07.56.13.23.46.3.38.26.58-.23.46l-.59-.05c-1.07-1.89-2.14-3.77-3.2-5.65-3.14-1.99-4.85-4.57-6.47-7.86-1.18-1.67-2.2-2.25-4.23-2.31-2.07-.91-4.16-1.38-6.27-1.43-.35.49-.71.86-1.01.15-.7.12-.88-.64-.23-.93l-.62-.23c-1.07-2.53-1.33-2.14-.77,1.15l.37.4-.83,2.78c.44.94.7,2.48-.46,2.85q-.39-1.03,0,0c.68.09.95,1.32.23,1.62.05.52-.24.61-.7.46Z" fill="#604a39"/>
        <path d="M34.77,63.98c1.36-.47,1.71-.33,1.07,1.02l-1.09,4.75-1.61.26c.1.38-.11.76-.63,1.12-.22.96-.63,1.51-1.23,1.66-.68,1.04-.15,1.65.93,1.85.06-.19.31-.14.46,0l.42.23c1.32.14,1.72.45,1.2.93.1.58-1.37,1.49-1.85,1.16.9-1.54-.82-1.17-1.74-2.08-.65-.65-1.06-1.75-.57-2.6.15-.27.59-.29.65-.54.08-.34-.37-.66.06-1.35.69-1.09,2.21-.8,2.89-2.22.42-.89.37-1.59.34-2.56-1.11-.26-1.51.22-2.32.59-.26.11-.64.03-.86.17-.41.26-1.29,1.68-1.8,2.03-1.05.7-2.83.55-3.89-.05-.99-.56-.79-.56-2.07-1.12-.28-.12-.26-.56-.56-.66-.58-.2-2.9.52-3.79.21,1.35-.52,2.75-.86,4.17-1.16,1.65,1.85,4.03,3.1,6.24,1.49,1.67-1.22,3.34-2.76,5.58-3.11Z" fill="#fbfbf7"/>
        <path d="M38.94,70.01c1.19,2.05-.94,4.6-2.64,5.84l-3.61,2.34c-2.68,1.55-3.37,4.02-2.82,6.98.77-.53,1.61-.9,2.51-1.11-1.46-2.73-.37-3.35,2.1-4.52l.52.19c.22.06.15.29-.23.7-.12.1-.22.37-.47.57-.45.35-1.33.45-1.37,1.16-.09,1.62,1.45,2.52,1.6,3.26.61,3.12-2.06,5.06-4.97,4.51-1.48-.28-.59-2.44-.63-3.35-.09-2.04-.68-3.28-.02-5.4.58-1.87,2.01-3.13,3.54-4.22.5-.35,1.26-.75,1.85-1.16-.15-.53.09-.63.46-.23.54-.42,1.01-.91,1.4-1.47l.45.08c-.07-.82.83-2.23,1.62-2.32.02-.69.09-1.3.23-1.85.03-.62.24-.58.46,0Z" fill="#644c39"/>
        <path d="M55.16,38.96c.71-.21,1.33.18,1.85,1.16,3.05,2.01,4.32,3.27,5.22,6.95,1.26,5.21,1.69,11.33-3.13,14.83-.21-.06-.2-.13,0-.23-.44-.23-.48-.54,0-.7l.15-.66c4.26-2.88,2.85-13.85.15-16.95-2.23-2.05-4.78-3.71-7.65-4.98l-.06-.36c-.19.6-.23.59-.46,0-.44-.37-.66-.76,0-.93,1.41-.2,3.21.63,3.94,1.85Z" fill="#5e4b38"/>
        <path d="M9.29,16.72c.22-1.08,2.33-.22,1.16.46q-.63.77,0,0c.73-.91,1.56.82.46,1.16.59.49,0,1.4-.7,1.16.09.89-.14,1.27-.7,1.16-.18.95-.49,1.88-.93,2.78.4.04.4.35,0,.93.4.58-.44,1.21-.93.7-.59.52-.9.52-.93,0l-.2.25c-1.16-.87-2.43-1.39-3.82-1.58l-.16-.52c-.37.23-.6-.07-.7-.93.02-.3,0-.62,0-.93.22-.41.28-.42.7-.46l.34-.49c1.27.04,2.5.32,3.69.83.6-.94,1.21-1.86,1.99-2.66.27-.45.38-1.07.13-1.53l.57-.32Z" fill="#b02d24"/>
        <path d="M25.74,32.94c.38.19.61.42.7.7-.14.54-.53,1.38-1.16,1.16l-1.29,1.65-.33-.03-.75.82c-.83.27-1.74.54-2.72.81l-.65.66c-1.31.5-7.29,2.43-8.15,2.13-.16-.06-.32-.14-.47-.24-.6.61-1.07.69-1.39.23-.59.24-1.29.24-2.09,0-1.02.3-2.1.3-3.24,0-.64-.22-.68-.11-1.16-.7-.21-.43-.31-.89.23-.7,3.93,1.3,9.16-.05,13.17-1.27,2.58-.78,6.31-1.95,8.04-4.07.31-.38.32-.66.34-1.14.29-.45.64-.46.93,0Z" fill="#af311f"/>
        <path d="M57.71,61.67c-.44.09-.12-.91.03-.99.62-.37,1.18.46,1.36.99,0,.08-.01.16,0,.23.61,3.79,2.38,7.76,2.8,11.67-1.74,1.1-3.47-1.22-5.12-1.94-.47.41-.51.42-.46-.23-.12-.04-.34.04-.46,0-1.37.31-3.21-.15-4.17-1.16.01-.61.24-.92.7-.93.39.07.62.3.7.7.43-.49,1.28-.33,1.58.17.86-.21,1.79.13,2.67.56l3.12,1.84c-.58-3.67-1.39-7.45-2.74-10.91Z" fill="#ac312a"/>
        <path d="M1.87,22.28c.33.1.64.9.7.93l.33.41c-.96,2.33-1.88,6.07,2.08,5.13.44-1.17.83-2.38,1.16-3.61l.6-.08c.2.07.67-.05.93,0l.15.54c-1.29,3.13-1.43,6.52-.44,10.18l-.4.4c-.14.44-.34.44-.46,0-.17.07-.25-.09-.23-.46-.53-1.13-.5-5.79-.7-6.02-1.62.48-3.88.5-4.48-1.43s.64-3.94.77-5.99Z" fill="#6a4d3a"/>
        <path d="M57.01,40.12c-.6-.39-1.23-.82-1.85-1.16.44-.49.34-1.06.16-1.65-4.14-3.02-4.41-6.81-4.49-11.68-.28-.98-.3-1.86-.07-2.65-.5-.24-.06-1.15.46-.93.19.92.93,2.38.93,3.59v3.71c0,.78.78,3.39,1.19,4.13.76,1.38,2.62,2.2,3.03,3.46.38,1.16-.17,2.26.64,3.18Z" fill="#7a934b"/>
        <path d="M42.65,11.85c-.13.73.37.42.81.46.8.07,1.35-.11,1.98.58.93,1.03-.08,1.42.23,2.44-.03.55-.38.87-.93.7-.75.34-2.55.36-3.44.22l-.5-.46c-.42-.87.16-2.17,1.01-2.8.24-.57.52-.96.84-1.14Z" fill="#cfd1d2"/>
        <path d="M20.64,32.47c.13-1.11,3.29-.43,2.09.46-.32.44-.88.7-1.69.76-4.65,2.3-10.4,3.51-15.63,3.95l-.99-.31c-.46,0-.31-.2,0-.46.16-.07.31-.16.46-.23.58-.02,1.12-.17,1.62-.46.13-.03.31.02.46,0,.1-.66.48-.62.7,0,1.71-.5,3.48-.81,5.33-.93l.45-.52c2.32-.53,4.56-1.31,6.7-2.35l.49.09Z" fill="#ad3125"/>
        <path d="M31.76,16.72c1.12-.87.82,1.17,0,1.16-.55,1.82-1.2,3.62-1.96,5.38l-1.46,6c-.17.57-.32,1.06-.98,1.13-.32.31-.6-.09-.46-.46-.09-.14-.14-.32-.23-.46.55.15.77-1.01.86-1.34,1.09-3.97,1.39-8.08,4.24-11.4Z" fill="#d0ab43"/>
        <path d="M44.5,68.15c-2.1,2.22-3.03,5.12-4.87,7.52-1.42,1.86-3.3,3.43-4.86,4.76l.23-.7.21-.79c2.43-2.36,4.43-5.08,6.01-8.15l.74-.32c-.34-.5.61-1.95,1.16-1.85-.36-.64.36-1.1.93-.7.32-.46.51-.32.46.23Z" fill="#654f3e"/>
        <path d="M33.61,16.03c.1.72.09,1.48-.02,2.27l-1.91,6.73c-.18,1.62-.39,3.18-.62,4.67.4.1.32.25-.23.46l-.71.27c-.15-1.68-.06-3.32.25-4.9-.44-.07-.42-.25,0-.46.28-1.13.5-2.25.68-3.35l.25-.12c-.3-.52-.18-1.44.46-1.62l.33-2.01c.14-.85.42-1.57.83-2.16.12-.1.34-.14.46-.23.61-.25.69.02.23.46Z" fill="#497e81"/>
        <path d="M39.18,2.82c.66.25.67.68,0,.93,1.52,1.48-3.68,3.43-3.71,1.39-.51.11-.74.09-.69-.08l.23-1.78c.47-1.43.53-1.09,1.17-2.02.57-.83.38-2.09,2.17-.51.74.65.77,1.2.83,2.07Z" fill="#aa4529"/>
        <path d="M49.37,18.57c.54.41,1.34.42,1.68,1.22s.03,1.57.17,2.26c-.28.19-.34.78-.46.93l-.03.72c-.3.55-3.4,2.19-4.14,1.83-.54-.36-.39-.67.46-.93l.14-.51c1.29-.48,2.53-1.23,3.34-2.27-.3-.46-.3-1.07,0-1.85l-.32.16c-.98-.61-2-1.26-3.07-1.97-.62-.34-1.32-.54-2.03-.53l-.38-.44c-.62-.07-.59-.29,0-.46,1.48-1.45,3.71.4,4.63,1.85Z" fill="#a23e23"/>
        <path d="M42.88,7.45c.28.04.51.34.7.93.2.06.2.13,0,.23-.09.67-.67,2.53-.93,3.24-.47,1.32-.83,1.34-1.34,2.25-.25.46-.35,1.17-.52,1.68.15.6,0,.64-.46.23-.56-.05-.67-.53-.31-1.45-1-.19-1.51-.55-1.54-1.1-.9.5-1.46-2.47.17-1.31,1.91,2.46,4.31-.89,3.3-2.86.54.32.24,2.08-.09,2.38-1.04.94-2.81-1.01-.89-1.53-.49-.96.49-1.93.98-.84-.72-.33-.64-.95.23-1.85-.06-.53.39-.28.7,0Z" fill="#ca9f7a"/>
        <path d="M36.39,11.39h.35c.44,1.54.79,2.85,1.04,3.94.38.45.03.48-.46.46l-.21.21c-1.03-.82-2.06-1.06-3.31-.62l-.19-.28c.21-.22.48-.37.69-.58.1-.19-.41-.03-.47-.26-.51-1.95,2.66-.94,2.55-2.86Z" fill="#d9dbdf"/>
        <path d="M37.32,15.79c.66-.34,2.65-.48,3.01.23.11,0,.35-.23.46-.23,1.31-.02,2.65-.08,3.94.23.61.23.59.44,0,.7-.23.41-.5.44-.7,0-2.81.94-6.15.81-8.75-.75-.62.07-1.17.08-1.67.06l-.23-.46c.08-.06.13-.36.23-.46.74-.1,1.41-.34,2.19-.22s.99.69,1.52.92Z" fill="#3e7caa"/>
        <path d="M43.58,8.61c.01-.08,0-.16,0-.23.07-.2.14-.2.23,0-.02-.25.04-.49.3-.46.2-.75-3.47-4.02-4.62-3.74l-.31-.43c.03-.26.02-.65,0-.93,1.82.12,5.97,3.49,6.04,5.22.05,1.27-1.03,1.8-1.64.57Z" fill="#899e5d"/>
        <path d="M50.3,64.68c-1.03,1.07-.18,3.33-.47,4.69-.04.2-.42.31-.45.4-1.15-.21-2.53-.43-3.48-1.16.08-.2.15-.2.23,0,.02-.53.33-.53.93,0,.4-.37,1.05-.38,1.96-.05l-.1-2.55c-.05-1.1.21-1.86.78-2.27-.31-.66-.19-1.49.61-1.62.74.17.69,2.33,0,2.55Z" fill="#a93d3a"/>
        <path d="M35.47,7.45c.6-.09.66.02.23.46.69.01,1.02.97.46,1.39.86.24,1.88,2.38,1.44,3.15.52.86.58,1.43.18,1.71.7.15.72,1.04,0,1.16-.67.14-.42-.33-.53-.73-.28-1.08-.33-2.31-.86-3.2-.24-.4-.79-.78-.89-1.09-.27-.93.2-1.37-.5-2.85-.02-.46.34-.42.46,0Z" fill="#be9e83"/>
        <path d="M45.66,15.33c.96.05,3.52,2.1,3.71,3.24-.75-.57-1.57-1.58-2.49-1.79-.71-.16-1.43,0-2.14-.06,0-.2-.04-.56,0-.7.09-.28.57-.71.93-.7Z" fill="#888559"/>
        <path d="M45.66,67.92c.53-.41,1.09.49.46.7-.07-.01-.16.01-.23,0-.32-.06-1.12-.32-1.39-.46-.15-.08-.27-.12-.46-.23-.61.46-1.37-.59-1.62-1.16-.5.05-.86-1.07-.46-1.39.7-.05,3.4,1.66,3.65,2.16.06.11.06.25.05.39Z" fill="#a73126"/>
        <path d="M35,3.28c.05.87-.31,1.33.46,1.85-.06.53-.06,1.14,0,1.85.62.05.59.28,0,.46h-.46c-.03-.06-.39-.22-.52-.51-.42-.95.19-2.66.52-3.66Z" fill="#899857"/>
        <path d="M4.42,36.88c-.03.14.04.37,0,.46.08.09.15.18.2.29.05.11-1.06,1.93-1.35,1.8-.03.13-.34.4-.23.7-1.22-1.51.04-2.61,1.39-3.24Z" fill="#ae433f"/>
        <path d="M32.92,15.79c-.33,1.4-.54,2.85-1.16,4.17-.49-.39-.49-1.08,0-2.09.3-.52.97-1.24,0-1.16.66-.77.59-.47,1.16-.93Z" fill="#c8c071"/>
        <path d="M7.43,40.82c.2.07.2.14,0,.23-.26,0-.58.23-.7.23-.9,0-1.7-.17-2.55-.46,1.08-.01,2.17.01,3.24,0Z" fill="#ae433f"/>
        <path d="M7.67,43.13c-.37.43-.44.32-.46-.23-.13-.07-.25-.25-.46-.23.04-.38-.03-.78,0-1.16.66.27.8.99.93,1.62Z" fill="#c06f42"/>
        <path d="M56.78,71.63c-.64.44-.39,1.27-.51,1.93l-.19.16c.04-.77-.17-1.62.23-2.32.24.08.33.17.46.23Z" fill="#92674e"/>
        <path d="M6.51,36.18c-.09.02-.84.86-1.62.46.65-.28,1.43-.16,1.39-.93.06.13.25.25.23.46Z" fill="#ae433f"/>
        <path d="M22.49,65.14c-1.25.28-3.48.57-4.57,1.11-.18.09-2.83,2.46-2.95,2.61-.84,1.09-2.77,7.47-2.88,8.94-.12,1.7.2,3.11.67,4.72l-3.48.93v-5.68c0-.48,2.55-5.15,2.9-6.37.65-2.29.22-5.84,1.42-7.62,1.66-2.46,5.5-.66,5.88-3.97.31-.03.68-.3,1.01-.21.81.24,1.67,4.57,2.01,5.54Z" fill="#91674d"/>
        <path d="M8.65,87.33c-.5-.49-.16-2.23.28-2.73.53-.61,3.9-1.91,4.43-1.16.63.89-.18,2.59-.94,3.26-.72.63-3.07,1.33-3.76.64Z" fill="#6f533f"/>
        <path d="M14.61,95.49c-.05.05-1.35.23-1.46.2-.34-.08-.52-.67-.97-.67s-.8.7-1.35.65c-.34-.03-.83-.52-1.31-.41.46-.53,1.32-3.63,1.61-3.84.24-.17,2.8.18,2.92.35.11.16.69,3.58.56,3.71Z" fill="#6f5440"/>
        <path d="M15.08,70.7l-1.5,11.58c-.95-1.32-.93-3.16-.78-4.71s1.12-4.58,1.76-6.12c.12-.29.13-.68.52-.75Z" fill="#8f674e"/>
        <path d="M13.69,62.59c-.27.89-1.03,1.35-1.29,2.3-.51,1.84-.01,4.07-.91,5.81l-1.27-7.18c.47.04,1.51.08,1.92,0,.09-.02.96-.66,1.55-.92Z" fill="#91674e"/>
        <path d="M13.92,90.86h-2.32c.52-1.52.6-3.38,1.97-4.4.25,1.45.43,2.92.35,4.4Z" fill="#90684f"/>
        <path d="M19.02,59.81c-.48,1.86-2.64,1.62-3.94,2.09.96-.93,2.63-1.8,3.94-2.09Z" fill="#a05c4b"/>
        <path d="M51.69,38.03c2.65,1.04,7.15,3.36,8.65,5.83,1.54,2.51,2.35,8.75,1.98,11.65-.24,1.93-1.52,4.47-3.22,5.46-.35-.31-.73-.49-1.13-.56-1.06,2.53-2.29,5.42-4.22,7.46-.26.28-1.66,1.64-1.88,1.82-.24.19-.4.06-.64-.15-.24.07-.65-.04-.93,0,0-1.62,0-3.25,0-4.87v-2.55c-.56-.47.21-3.07.93-1.85.97-1.47,1.52-3.47,1.66-6l1.45-3.26.6-2.32c-.21.01-.37-.07-.44-.26-.02-2.84-.62-5.82-1.41-8.08-.39.64-.8-.07-.85-.59-1.11-1.03-1.29-1.6-.54-1.73Z" fill="#70533f"/>
        <path d="M51.69,70.24c1.38.4,2.8.72,4.17,1.16-.26,2.16-.76,4.43-.8,6.6-.04,2.31.52,4.63.33,6.95-.16,1.9-.98,3.95-.92,5.91h-1.85c.49-3.93.79-8.66.46-12.62-.22-2.65-1.37-5.42-1.85-8,.14-.45.35-.46.46,0Z" fill="#92674e"/>
        <path d="M51.22,69.54c.52-.14,2.89-2.5,3.31-3.07.56-.76,1.85-2.79,2.22-3.6.18-.38.79-2.94.96-3.05.18-.06,1.29.44,1.34.49.13.12.02.46.04.66.02.23-.03.47,0,.7h-.31s-.74-.69-.74-.69c-.34.17-.26.47-.35.69.15.23.2.48.18.75-.03.56-1.78,3.67-2.5,3.88-.34.88-.81,1.5-1.39,1.85-.54.67-1.08,1.06-1.62,1.16-.37.55-.02,1.08-.7.93-.12-.04-.32.02-.46,0-.04-.21.03-.47,0-.7Z" fill="#803e2e"/>
        <path d="M26.2,38.96c.17-.64.82-.7,1.13-.12l.02,6.74c.34,1.12.73,2.24,1.17,3.34,1.68,3.38,4.2,7.4,8.34,7.65l.5.16c.25.55.7,2.42.43,2.85-.13.4-.13.71,0,.93.78-.85,1.15,2.21.46,2.55-.3.79-1.84.31-2.32,0-1.94.19-4.8,1.63-6.37,2.79-.98.72-.79,1.39-2.32,1.4-1.63.02-3.72-1.62-4.33-3.1-.58-1.41-.72-4.82-2.44-5.21-2.09-.47-6.02,2.72-8.13,3.59-2.95,1.21-2.47-.2-4.75-1.13-2.44-1-3.25.12-2.93-3.54.17-1.96,1.1-3.22,2.08-4.82.13-.21.45-.14.46-.16q1.17,1.07,0,0c.1-.16.45-1.66.48-1.96.25-2.54-.93-5.33-.48-8.01.14.08.36.14.46.23,1.74,1.43,3.47,4.04,5.16,5.63.33.77-.87,1.16-1,2.12-.69,4.95,6.84,5.16,5.5-.16-.07-.28-.36-.49-.39-.64-.87-.86-.56-1.48.91-1.87l.48-.45c2.8-1.61,6.71-5.8,7.88-8.8Z" fill="#ef4b29"/>
        <path d="M26.43,33.63c.66.31-.21,3.27-.4,3.88-1.24,3.9-4.52,7.5-7.96,9.65-1.67,1.04-3.46,2.51-5.09.95-1.01-.97-4.79-5.05-5.29-6.08-.18-.39-.36-.59-.03-1,1.37-.5,2.13.26,2.98,1.24,1.02,1.54,2.25,2.82,3.69,3.82,2.71.87,6.75-4.81,8.1-6.76.13-.19.27-.34.52-.38.24-1.54,1.23-3.02,2.32-4.17.24-.35.7-1.37,1.16-1.16Z" fill="#f2c82e"/>
        <path d="M28.52,33.4c.47,3.62.75,7.34.85,11.15.35,3.94,2.22,8.08,6.17,9.44.94-.36,1.95,1.58,1.32,2.11-2.1-.71-3.64-1.15-5.1-2.95-4.57-5.62-3.29-9.17-3.69-15.71-.03-.48-.35-3.45-.47-3.58-.32-.33-.18-.46.23-.23.21-1.11.64-1.69.7-.23Z" fill="#eac63e"/>
        <path d="M36.86,56.11c.17-.4.48-.24.93.46.73.72,1.13,1.73,1.18,3.03.33,2.43.79,4.94,1.27,7.22-2.34,2.79,1.76,3.54,1.47,1.27-1.27-2.96-.78-6.68.19-9.68l.52-.22c.17.09.3.17.31.27.1,1.12-.34,4.06-.56,5.3-.01.08-.11.15-.22.22.66.16.64,1.22,0,1.39.09.89.29.85.46,1.39.36.44.71.9,1.05,1.39l-.35.46c-.36.42-.85,1.34-1.16,1.85-.77.68-3.08.97-3.01-.46-.32-.4-.77-2.01-.23-2.32-.13-.56-.21-1.12-.29-1.68-.14-1.03-.24-1.82.06-2.72-.34.29-.46.16-.23-.23-.1-.64.33-2.42-.46-2.55-.18-.25-.25-.68,0-.93-.18-.73-.45-.8-.46-.86-.13-.59-.41-1.79-.47-2.16-.02-.15.03-.32,0-.46Z" fill="#878a42"/>
        <path d="M12.84,53.25c-1.57-1.58.03-4.67,2.7-3.51,3.46,1.5.09,6.34-2.7,3.51Z" fill="#f1ca2c"/>
        <path d="M22.96,38.96c-1.79,3-3.55,5.57-6.83,7.19-1.54.76-2.17.33-3.37-.81-.82-.77-2.76-3.75-3.4-4.06-.56-.28-1.09-.25-1.69-.23-.08,0-.15,0-.23,0v-.23c.68,0,1.41.05,2.09,0,.64.04,1.19.77,1.39,1.39l.29-.14c1.14,1.47,2.44,2.61,3.9,3.4,2.55-1.38,4.87-3.3,6.29-5.9l.63-.14c.05-.32.13-.64.46-.46.32-.4.47-.4.46,0Z" fill="#d3a534"/>
        <path d="M28.52,48.92c-.31-.62-1.25-2.21-1.38-2.91-.33-1.85.13-4.69-.01-6.71-.04-.66-.57-.24-.93-.34l.7-3.24c.37.05.69,1.33.69,1.51v8.11c0,.75.96,2.65.93,3.59Z" fill="#dd611d"/>
        <path d="M27.36,30.39c.68.03.79.3.23.7.34-.16.41-.04.21.37.15-.03.29-.04.41,0,.27.11-.06,1.72-.39,2.17-.06.08-.17.14-.23.23-.04-.04-.87-.12-1.16-.23-.37-.15-.84-.26-.7-.7.12-.4.51-.5,1.16-.32-.35-.89-.43-1.64-.23-2.23l.23-.46c.11.16.39.32.46.46Z" fill="#694a1e"/>
        <path d="M18.32,47.77c-.37,1.56-1.97.18-1.39,2.32-2.29-1.56.18-1.62,1.39-2.32Z" fill="#de631e"/>
        <path d="M37.09,63.98c.53.03.68,1.4.23,1.62-.36.33-.6.19-.72-.26-.31,1.65-.77,3.2-1.36,4.66-.25.62-1.8.68-2.09,0,.53-.3,1.31-.44,1.36-.49.17-.16.81-3.95,1.02-4.66.19-.65,1.08-1.16-.76-.88.02-.11.12-.22.23-.23,1.67-.71,2.36-.63,2.09.23Z" fill="#e0d9be"/>
        <path d="M38.25,63.06s.19.18.23.23c.22.79-.14,1.54-.7.7-.06.68-.5.66-.7,0-.03-.01-.12-.44-.55-.45-.25,0-1.15.16-1.53.22.38-.45,1.12.08.93-.7.5-.05,1.89-.09,2.32,0Z" fill="#a04531"/>
        <path d="M30.83,11.85c-.58.69-1.39,1.37-1.85.23-.46.49-.76.15-.46-.46-.86-.34-2.05-1.43-1.85-2.31,1.18-1.23,1.93-2.83,1.35-4.51-1.07-3.09-4.54-2.29-6.87-1.49.29,1.57.03,2.65-.9,3.99.58.54.87,1.34.86,2.37.54.32.77.66.69,1.03.01.08.02.16-.02.2-.94,1.06-1.36,1.55-2.18,2.66-.27.36-.75.28-1.04-.07-.08-.1-.38-.16-.56-.47-1.29-2.28-1.46-6-.26-8.34.17-.33,2.04-2.54,2.28-2.7.12-.09,2.59-.94,2.86-.97,3.65-.37,7,1.4,8.21,4.94.8,2.34.86,3.72-.24,5.92Z" fill="#f1c92d"/>
        <path d="M21.8,10.7c.42-.62.98.09,0,.46.21.61-.19,1.21-1.2,1.82-.31.21-.51.74-.1.95,1.15.61,5.31.24,6.57-.17,1.14-.37,1.55-.53,1.92-1.68.67.31,1.23.08,1.85-.23-1.75,3.49-5.65,4.8-9.4,3.72-1.37-.39-2.1-1.02-2.88-2.1,1.42-.12,1.94-2.33,3.24-2.78Z" fill="#f7c038"/>
        <path d="M26.66,30.39c.27.41.8,1.95.68,2.4-.17.58-1.08.16-1.6.15-.31,0-.62,0-.93,0-.47.67-1.6.65-2.09,0,.39-.65-1.68-.58-2.09-.46l-.54.11c-1.47-1.27-2.34-2.96-2.62-5.09-2.61-1.8-3.28-3.38-3.59-6.48-1.52-.55-2.52-1.44-2.98-2.68.26-1.31-.28-.97-.46-1.16-.03-.03.11-.39-.16-.47-.29-.09-.69.05-1,0-.09.46-1.54.2-2,.07-.86-.25-3.32-2.61-2.4-3.54.55.1.41-.46.9-.6,1.64-.45,4.85.94,6.5,1.42.53.15,1.11.05,1.65.2,3.48.97,3.84,5.71,6.59,8,1.76,1.47,2.54,1.33,3.7,3.71,1,2.04,1.2,2.5,2.43,4.4Z" fill="#70543f"/>
        <path d="M4.65,12.32c.05.1.03.48.23.93.17.38.28.96.49,1.25.07.09,1.51,1.58,1.6,1.64.43.32,1.7.49,2.31.58-.18.45-.14,1.02-.29,1.46-.1.29-.39.37-.4.4l-.26-.09c-.03-1.89-2.1-.32-.89.55.03-.56.3-.59.7-.23-.05-.62.03-.68.46-.23-.06.13,0,.41-.13.67-.45.89-1.23,1.58-1.5,2.56-1.69-.4-2.53-1.09-4.39-.91.08-.55-.26-1.1-.23-1.62.02-.35.46-1.14.39-1.71-.04-.35-.4-.61-.39-1.16,0-.17.78-2.67.92-3.15-.28-.9.64-2.05,1.39-.93Z" fill="#92674d"/>
        <path d="M9.29,12.55c-.24-.33,1.81-2.44,2.2-2.77,1.42,1.74-.16,3.72-2.2,2.77Z" fill="#805f48"/>
        <path d="M4.65,12.32c-1.15-.16-.73.11-1.02.6-.09.15-.35.27-.37.32-.31-.29-.6-.61-.68-1.05-.12-.68-.1-3.63.85-2.25.32.46.94,1.79,1.22,2.37Z" fill="#785843"/>
        <path d="M2.34,19.27c-.59-.18-.47-.88-.46-1.39h.46s0,1.39,0,1.39Z" fill="#402918"/>
        <path d="M35.24,70.01c.43-.69,1.24.13.7.7.78,1.22.39,5.57-1.45,3.95,1.96-1.02.52-5.15-1.33-3.02.22.58.16,1.58-.46,1.85.34.36.38.49.11.39,1.8.58.51.97-.57.54-1.05.4-1.63-.88-.93-1.62.76-1.23.34-1.93,1.85-2.78.63.09,1.52-.12,2.09,0Z" fill="#cda143"/>
        <path d="M36.63,74.18c-.75.81-1.08.86-1.85,1.39-.64-.41-1.33-.72-2.09-.93-.14-.03-.32.02-.46,0-.2-.07-.2-.14,0-.23.37.04.78-.03,1.16,0v-.23c-1.25-.06-.71-.32-.69-.7l.5-.2c.4.3,1.37.87,1.6.17.45-1.39-.38-1.98-1.63-1.82-.03-.85.95-.81,1.46-.65,1.16.37,1.2,3.18.16,3.89,1.21.9,1.68-3.47,1.16-4.17,1.4-.76.95,2.56.7,3.48Z" fill="#d5bd81"/>
        <path d="M31.3,72.79c0,1.15-.29,1.48.93,1.62v.23c-.44-.07-1,.1-1.28-.46-.66-1.36.3-1.32.35-1.39Z" fill="#e8d8ad"/>
        <path d="M32.69,74.64c.77.15,1.54.34,2.32.47l-.23.46c-.17.12-.36.16-.46.23-.13-1.19-1.23-.29-1.62-1.16Z" fill="#f2eed7"/>
        <path d="M38.94,70.01c.1.04.19.4.4.45.73.17,1.81-.09,2.61.01-2.18,3.6-3.58,6.43-6.95,9.27-.49.42-2.81,1.65-2.9,1.84-.18.37.96,2.38.82,3.02-1.28-.3-2.21.8-3.13,1.16-.41.16-.31-.11-.34-.34-.17-1.35-.32-3,.11-4.3,1.5-4.58,9.57-4.66,9.39-11.11Z" fill="#91674e"/>
        <path d="M35.24,70.01c-.35-.42-.16-.66-.05-1.08.43-1.64.93-3.27,1.21-4.95.85-.16.29,1.25.93,1.62.56.33,1.08,1.76.7,2.32.28,1.28.43,2.63.23,3.94-.28.71-1.09,1.74-1.62,2.32-.54-.74-.07-1.99-.24-2.9-.09-.5-.37-.45-.46-.57-.18-.25-.36-.62-.7-.7Z" fill="#fbfbf7"/>
        <path d="M32.63,85.12c1.45-.21,1.37.63,1.19,1.9-.3,2.18-2.33,2.29-4.16,2.36-.34-.25-.33-2.31-.1-2.68s2.55-1.5,3.07-1.57Z" fill="#715640"/>
        <path d="M37.78,63.98l.48.41.44,3.3c.02.82.21,1.71.23,2.32-.1-.04-.32.03-.46,0-.21-.65-.37-1.35-.46-2.09-.23-.78-.53-1.51-.7-2.32-.1-.5-.1-1.11-.23-1.62.11.03.55.02.7,0Z" fill="#6c5843"/>
        <path d="M38.48,70.01c.02.81.06,1.11-.23,1.85l-.23-3.94c.26.89.44.93.46,2.09Z" fill="#816f4d"/>
        <path d="M50.76,22.98c1.19,3.29.06,8.24,2.08,11.24.55.81,2.59,2.22,2.89,2.9.19.43.51,2.22-.57,1.85-1.28-.71-2.59-1.3-3.94-1.85-.29.31-.75.16-1.39-.46-.4.31-.76-.03-.46-.46-1.73-.6-3.68-.99-5.86-1.18l-.17-.21c-.35-.11-.47-.48-.35-1.12-.36-.25-.71-.49-1.04-.73-.42,0-.16-.6,0-.93-.22-.55.28-1.43.93-1.39.51-.65.97-1.35,1.39-2.09-.45.09-.91.32-1.39.7-.13.59-.29.59-.46,0-.54-1.19,2.05-2.54,3.01-3.01-.21-.59.02-.64.51-.36-.04-.58.1-.58.65-.34.96-.81,2.93-1.02,4.17-2.55Z" fill="#96b540"/>
        <path d="M49.37,36.18c.11.13.29.26.46.46.6.28,1.21.72,1.39,1.39.13.04.35-.04.46,0-.54.8.71,1.12.91,1.58.24.55-.39.6.48.74.4.22.3,1.09,0,1.39l-.59-.02c-.94-1.54-1.98-2.99-3.14-4.37-1.1-.24-2.17-.55-3.23-.93-.75.55-1.85.33-2.32-.46-.24.52-.82-.04-.7-.46.17-.9,1.49-.43,2.18-.14,1.54-.02,2.9.26,4.08.83Z" fill="#ab331c"/>
        <path d="M51.22,37.11v.93c-.84-.25-.96-.88-1.39-1.39.55-.07.94.28,1.39.46Z" fill="#844523"/>
        <path d="M10.91,18.34c.7.09.89.98,1.5,1.39,1.04.7,1.91.28,2.19,1.98.21,1.3-.17,1.69.66,3.04.7,1.14,2.12,1.78,2.6,2.49s.43,2.11.88,3.06c.41.89,1.24,1.46,1.89,2.16-.03,0-.15.31-.4.41-2.23.85-4.86,2.17-7.25,2.38-1.38.17-2.69.32-3.94.46-.23-.21-.46-.21-.7,0-.15.18-.38.33-.7.46-.22.03-.47-.03-.7,0-.54-2.88-1.47-8.85.7-11.12.05-.05.55-.32.93-.7.45-.75.92-1.5,1.4-2.26.05-.87.12-1.74.23-2.6.16-.32.61-.7.7-1.16Z" fill="#93674c"/>
        <path d="M6.74,25.06c-.78.91-.68,3.98-1.74,4.17-4.6.84-3.58-3.21-2.43-6.02.27.13,1.41.18,2.01.42.79.31,1.85,1.32,2.16,1.43Z" fill="#92674d"/>
        <path d="M2.62,22.24c-.11-.2-.04-.44-.05-.65,1.44-.11,2.97.23,4.16,1.06.21.15,1.4,1.28,1.4,1.38,0,.08-.51.59-.76.55-.16-.02-2.18-1.38-2.77-1.64-.42-.18-1.76-.31-1.97-.69Z" fill="#e94a33"/>
        <path d="M10.45,17.18c.24.68-.73,2.26-1.12,2.94-.15.26-1.44,2.61-1.89,2.16-.11-.11,1.38-2.39,1.55-2.73.33-.66.57-1.89.88-2.36.22-.33.56-.04.57,0Z" fill="#df483a"/>
        <path d="M8.59,24.37c-.05-.27.07-.72,0-.93l-.09-.3c.59-.76.96-1.5,1.02-2.48.21-.36.44-.65.7-1.16.73,2.46-.08,3.31-1.62,4.87Z" fill="#764630"/>
        <path d="M8.59,23.44s-.48-.15-.44-.54c.02-.13,1.13-1.83,1.36-2.24.62.86-.02,2.34-.93,2.78Z" fill="#9e5c4a"/>
        <path d="M22.73,32.94c.69-.04,1.4,0,2.09,0,1.18.5-.41,1.96-.95,2.41-3,2.48-11.94,4.75-15.85,5-1.37.09-4.1.45-4.75-.92.4-1.9.7-1.15,1.16-2.09,4.75-.8,9.18-1.1,13.73-2.83,1.95-.74,2.28-1.44,4.57-1.57Z" fill="#eb4d2d"/>
        <path d="M20.18,38.03l1.12-.24c1.87-1.44,1.37.4.73,1.63-1.03,1.71-1.79,2.85-3.35,4.18-.55.46-2.97,2.24-3.5,2.32-1.44.2-3.32-2.72-4.27-3.71l-.3-.64c-.93-.56-.54-.71.3-.98,3.3-.51,6.15-1.73,9.27-2.55Z" fill="#93674c"/>
        <path d="M23.65,36.41c.18.64-.56,2.12-1.16,2.55-.09.16-.37.3-.46.46-.17-.39.36-1.73.23-1.85-.4-.4-.78.44-.85.46-.39.08-.91-.08-1.23,0l3.48-1.62Z" fill="#a4613d"/>
        <path d="M22.96,38.96h-.46c.4-.67.66-1.8,1.16-2.55.42-.62,1.01-1.19,1.62-1.62-.9,1.3-1.5,2.81-2.32,4.17Z" fill="#d79e36"/>
        <path d="M10.91,40.58c-.27.24-.56.15-.47.58.6.2.52.44.47,1.04-.41-.43-1.11-.77-1.39-1.39.47-.04.93-.16,1.39-.23Z" fill="#ab7237"/>
        <path d="M57.71,61.67c.75-.08.58-.07.76.5,1.15,3.61,1.92,7.38,2.71,11.08-.37.36-3.66-1.96-4.35-2.25-1.15-.48-2.6-.64-3.75-1-.59-.4-.28-1.02.93-1.85.5-.64.92-.56.7.23.46.47.74-.23.23-.46-.3-.39-.15-.93.46-1.62.68-1.59,1.62-2.91,2.32-4.63Z" fill="#eb4b30"/>
        <path d="M55.39,66.3c-.08.2-.38,1.32-.46,1.62.42.37.31.61-.23.46-.09-.26-.48-.28-.7-.23-.03.04.03.23-.07.39-.27.43-1.2.49-.85,1.46-.43-.13-.71-.06-.7-.7.25-.37,1.18-1.05,1.62-1.16.38-.57.72-1.41,1.39-1.85Z" fill="#d34f36"/>
        <path d="M13,35.25c-1.67.63-3.57.65-5.33.93.11-.39.35-.4.7-.46.16-.66.46-.62.7,0,.65-.11.35-.42.8-.48.94-.12,2.15.1,3.14.02Z" fill="#a55546"/>
        <path d="M31.76,19.96c-.05.51-.07,1.23-.46,1.62-.36.99-.67,2.15-.93,3.48,0,.15,0,.31,0,.46-.49,1.46-.35,3.19-.04,4.63l-2.15,1.72c-.3-.14-.49-.4-.58-.79-.08-.23-.1-.43-.23-.7,1.2-2.35,1.27-5.02,2.08-7.53.57-1.76,1.4-3.41,2.32-4.98-.04.68.06,1.41,0,2.09Z" fill="#eec935"/>
        <path d="M42.42,66.76c.56.03,1.34.99,1.62,1.16-.24.22-.74.48-.93.7-.03-.52-.64-.98-.69-1.1-.1-.24.04-.59,0-.75Z" fill="#916848"/>
        <path d="M44.04,16.72c-.11.46-.4.94-.87,1.45.03,1.52-.37,2.58-1.21,3.18l-.31.23c.12.83.07,1.53-.16,2.09.41.39.01,1.03-.46,1.16-.56,1.07-1.34,2-2.32,2.78-.25.45-1.22.83-1.39.23l-.12.22c-.71-.09-1.29,0-1.74.25l-.09.25c-.66-.11-1.1-.04-1.3.21.32.5-.6.83-.93.46-.37.51-1.55.66-2.09.46-.39-.24-.23-.88-.23-1.27-.05-3.45,1.43-6.73,2.27-10.02.2-.79-.15-1.67.52-2.38,1.46-1.55,3.2.49,4.54.67,1.64.23,4.03-.07,5.89.02Z" fill="#65b1e2"/>
        <path d="M30.37,25.52c-.08,1.56-.23,2.93,0,4.49-.05.22.41.17.47.14,0,.55-.47,1.1-1.4,1.65.94.2,1.72.57,2.33,1.13.2.07.2.14,0,.23.18.64.02.79-.46.46-.45.5-2.04-.14-2.32-.7.03-.33-.12-.18-.46.46l-.23-.46h-.23c.03.28-.08.47-.23.69.25-1.05.13-1.57-.23-2.55.12,1.11,2.23-.69,2.34-.86.41-.65-.64-3.9.44-4.7Z" fill="#a58c4a"/>
        <path d="M31.3,21.59c-.12,1.07-.34,2.59-.93,3.48.03-.59-.11-1.42,0-1.93.04-.17.41-.14.45-.32.08-.34-.08-1.12,0-1.23.04-.05.41.05.46,0Z" fill="#cbc55f"/>
        <path d="M33.15,29.23c.62.07.59.29,0,.46.06.43-.17.58-.46.23-.1.79-1.5.86-1.85.23.09-.05.16-.42.23-.46.7-.4,1.41-.3,2.09-.46Z" fill="#8ba39b"/>
        <path d="M39.18,3.75c1.49-.27,2.63.89,3.6,1.84.79.78,1.89,1.57,1.73,2.79h-.7s-.48-.2-.48-.2c-.85-3.38-5.45-2.45-7.62-.88l-.25-.31s-.34-.11-.42-.38c-.15-.54-.25-1.73.42-1.47,1.47.99,3.46.51,3.71-1.39Z" fill="#9bb148"/>
        <path d="M38.35,1.79c.08.12.37.04.38.44.04,1.35-.24,2.71-1.76,2.69-2.88-.04-1.01-2.37-.24-3.52.3-.45-.09-1.17,1.05-.31.21.16.41.48.57.7Z" fill="#ef6130"/>
        <path d="M44.74,17.18c2.48-.22,3.9,1.56,5.79,2.78.17.68-.07,1.15-.84.97-.5.92-1.07,2.21.03.69.38-.42.73-.38.81.2-.48,1.33-2.1,2.47-3.48,2.78-.29.5-.59.66-.9.48-.95-1.36-2.05-2.57-3.3-3.64l.03-.32c-.12-.59.08-2.53.36-3.14.21-.46,1.08-1.29,1.5-.8Z" fill="#ef602f"/>
        <path d="M47.05,24.6l-.46.93c-.85.72-.53.34-1.16.7-1.02.22-2.63-1.55-2.55-2.55-.58.22-.74.06-.46-.46-.34-.23-.36-.49,0-.7.35-.02.5-.25.46-.7-1.25.24-.74-1.14,0-.7,1.03.4,3.02,3.64,3.78,3.66.15,0,.29-.17.39-.19Z" fill="#ba3512"/>
        <path d="M44.74,16.72v.46c-.27.02-1.36.96-1.38,1.09-.21,1.06.27,1.68-.47,2.84-.1.16-.46.16-.47.35,0,.13.31.22.47.35,0,.38-.14.61-.46.7,0,.23,0,.46,0,.7-.29.34-.37.18-.46-.23-.43-.12-.54-1.46,0-1.62.26-.36.59-1.45.73-1.93.34-1.15.05-1.96,1.35-2.7.23.01.47-.02.7,0Z" fill="#9b4a51"/>
        <path d="M50.53,21.82c-.47-.41-.66.77-1.07.87-.27.06-.48,0-1.02.15-1.52.42-.04-.62.11-.81.48-.62.96-1.5.83-2.3l.7.93.46-.7c.54.55.21,1.27,0,1.85Z" fill="#d44226"/>
        <path d="M39.18,7.45c.26.33.67.46,1.24.38l.15.31c.48.14.68-.03.62-.52l.54-.18c.05-.55.32-.54.46,0,.47.88-.16.6-.23.86-.08.29.01.68,0,1-1.3-.19-.38.54-.49,1.02-.08.39-1.62.34-.68.95,1.4.91,1.13-1.3,1.17-1.98,1.06.16.47,1.74.17,2.6-.57,1.59-1.59,2.04-3.16,1.21-.43-.23-.59-.87-1.17-.79-.19.19.51,1.02.69,1.16.87.53-.17,1.57-.7.7-.06-.48-.42-2.13-.57-2.56-.22-.65-.68-1.23-1.05-2.31.12-.34,2.33-2.13,2.52-2.16s.36.15.49.3Z" fill="#e5b48a"/>
        <path d="M42.88,7.45h-1.16c-.2.4-.59.4-1.16,0-.12.55-1.14.5-1.39,0-.78.14-1.88,1.88-3.01,1.85-.17-.49-.31-.88-.46-1.39-.17-.57,1.36-1.34,1.94-1.6,1.21-.55,1.63-.59,2.97-.34.78.14,2.65.61,2.28,1.48Z" fill="#ce9a38"/>
        <path d="M43.81,8.38h-.23c-1.11.18-.54-.36-.7-.93-.09-.34-.59-.71-.92-.82-.42-.14-2.56-.62-2.92-.59-.41.04-.28.39-.51.47-.25.09-.63-.01-.97.14-.5.22-1.44.86-1.86,1.27-.03-.1-.17-.26-.23-.46-.04-.13.04-.33,0-.46,1.14.11,1.86-1.11,2.95-1.34,1.91-.39,5.23.38,5.39,2.73Z" fill="#8e9433"/>
        <path d="M38.48,13.48c.44.33,2,.62,2.09.7.07.06-.43,1.46-.23,1.85-.9.02-2.19.12-3.01-.23.11-.13.43-.34.46-.46.05-.21.03-.9,0-1.16.46.02.71-.23.7-.7Z" fill="#e8c09f"/>
        <path d="M53.08,41.74c1.19,1.27,1.46,5.06,1.45,6.92-.22.29-.24.68-.06,1.19l.24.26c-.61,1.43-1.24,2.88-1.87,4.35-.04,2.19-.58,4.13-1.61,5.82-.12.05-.31-.1-.45.17-.13.26-.34,1.26-.48,1.68-.34,1.07-.79,2.41-.9,3.62s.36,2.15-.02,3.33c-.82,0-1.5-.33-2.32-.46l-.65-.26c-.11-.42-.33-.63-.74-.44-1.27-.8-2.62-1.47-3.71-2.55-.04-.42,0-.95,0-1.39.12-.47.28-.54.46-.23.32-.57.95-2.67.46-3.48-.42-.07-.36-.71,0-.93.55-.2.7-.43.46-.7-.86-.35-.37-1.99,0-2.55.9-.52,1.23.02.98,1.64,1.8.74,2.78,1.87,2.96,3.39,1.67.96,2.45.37,2.35-1.77.72-.66,1.04-1.43.96-2.29l.75-1.28c-.6-1.79-.38-2.73.68-2.81l-.12-.75c.71-.76,1-1.56.88-2.39-1.06-.96-1.12-2.18-.17-3.66l-.43-1.26c.52-.83-.77-3.66-1.27-4.09-1.26-.33-1.9-1.3-1.94-2.91-1.22.34-2.64-.28-2.84-1.52.48.09,1.09-.05,1.68.06,2.77.55,3.74,3.23,5.27,5.27Z" fill="#ed4b2b"/>
        <path d="M45.66,67.92c.38-.56-.23-1.31-.23-1.97,0-.41.16-1.89.23-2.32.07-.4.25-.65.69-.58.05,1.83-.81,4.13.7,5.56-.28-.05-.65.05-.93,0,.09-.39-.18-.51-.46-.7Z" fill="#c9281b"/>
        <path d="M10.68,82.52c-.06-.46.37-.6.46-1.05.3-1.54-.76-2.58-.7-4.17.01-.36.26-1.96.59-1.96.82,0-.15,2.05-.11,2.41.03.33.36.62.45.95.33,1.3,1.14,3.33-.68,3.81Z" fill="#6c4a33"/>
        <path d="M15.2,64.22c1.22.7.36,4.32-.11,1.73-.08-.46-.35-1.42.11-1.73Z" fill="#704b33"/>
        <path d="M54.93,48.69c.01.6.11,1.66,0,2.16-.04.16-.37.13-.44.34-.4,1.26-1.03,2.21-1.31,3.05-.32.98-.28,2.99-.62,4.25-.03.1-.84,1.69-.92,1.75-.14.11-.34,0-.42.04-.11-.93.7-1.66.87-2.49.25-1.19.16-2.52.59-3.81.46-1.38,1.52-2.59,1.78-4.13-.23-.78-.34-2.24.46-1.16Z" fill="#83412a"/>
        <path d="M53.08,40.35c.92.15.26.36.47,1.23.03.11.89,1.6.92,1.71.22.91.45,4.32.47,5.4-.78-.17-.36.57-.46,1.16-.83-2.01-.63-4.65-.94-6.82-.06-.43-.36-.8-.45-1.29-.07-.41.05-.95,0-1.39Z" fill="#914236"/>
        <path d="M52.84,71.4c-.31.56.64,2.58.46,2.78-.55.63-1.52-2.42-1.16-2.78h.69Z" fill="#6f4b35"/>
        <path d="M7.2,52.86c.11-.4.52-.06.69.12,1.55,1.61,2.46,3.95,5.05,4.23,3.85.42,8.31-4.53,12.1-1.46,2.01,1.63,1.45,5.33,5.16,4.47,1-.23,2.4-1.44,3.54-1.57.44-.05.5.28.33.45s-3.78,1.68-4.15,1.75c-4.12.86-3.36-3.75-5.88-5.04-3.48-1.79-7.85,2.71-12.04,1.85-1.17-.24-5-4.09-4.8-4.81Z" fill="#c62315"/>
        <path d="M24.58,51.82c.01.2.47,1,.23,1.27-.75.86-.94-3.04-.94-3.37s.35-3.95,1.17-3.12c.09.45-.46,1.21-.46,1.5,0,1.22-.07,2.49,0,3.71Z" fill="#c92718"/>
        <path d="M27.82,63.75c-.47.06-.75-.4-1.05-.69-1.27-1.25-2.26-3.3-2.19-5.1.91.03.69,1.33.99,2.13.19.5.6,1.19.9,1.65.46.7,1.44,1.08,1.35,2.01Z" fill="#c72517"/>
        <path d="M8.13,54.95c.09.08-.6,2-.67,2.46-.12.77.36,2.16-.72,2.18-.28-.33.37-3.94.69-4.47.16-.26.65-.2.7-.16Z" fill="#c92715"/>
        <path d="M11.6,61.43c-.06.06-.56.09-.7-.15-.24-.41-.45-2.84.12-2.85.27,0,.69,2.9.58,3.01Z" fill="#cb2917"/>
        <path d="M33.38,62.36c-.54.49-1.69-1.39-1.62-1.85.33-.34,1.8,1.69,1.62,1.85Z" fill="#c92614"/>
        <path d="M37.78,60.51c-.06-.01-.41.32-.46.23-.03-.48-.06-1.01.46-1.16.06.26.43.47,0,.93Z" fill="#9e3a0c"/>
        <path d="M28.52,33.4c.03-.29.18-1.31.69-.92.09.06-.22.32-.23.46l.44.25.72,11.07c.29,3.55,1.72,7.23,5.08,8.86-.56-1.13-.58-2.18-.05-3.16-.3-.54-.36-.96-.17-1.27-.72-.73-.02-1.3.46-.46,1.27.2,1.71,1.84.94,2.9.39,1.67.95,3.31,1.69,4.91l-.31.53c-.49-.02-.36-.27-.93-.46-.45-2.25-.95-1.35-2.76-2.45-5.9-3.6-5.19-10.86-5.34-16.67-.03-1.17-.37-2.28-.24-3.58Z" fill="#84982d"/>
        <path d="M41.96,48c-.16.72-.27,1.45-.33,2.19.8,2.25,1.43,4.6.79,6.85.64.36.63.8,0,1.16l-.91,4.3c-.38,2.94-.08,2.89.62,5.37s-2.44,2.28-2.84,1.45c-.69-1.42.59-2.38.58-2.9,0-.27-.37-.58-.44-.95-.58-3.07-.73-5.84-1.64-8.9-.37-1.24-1.96-4.61-1.85-5.42.07-.48.51-.84.43-1.36-.07-.41-.69-1.04-.89-1.56-.43,0-.53-.05-.62-.42-.29-1.24-.02-2.31,1.4-2.24.9-1.3,1.41-1.12,2.61-.38,2.63-1.39,3.99.31,3.1,2.8Z" fill="#97b540"/>
        <path d="M43.35,55.87c.2.07.2.14,0,.23-.1.48.14,2.34,0,2.55.03.4,0,.56-.46.7-.02.3.04.63,0,.93.38.91.01,2.59-.46,3.48-.14.07-.27.23-.46.23.03-1.93.5-3.49.46-5.79,0-.39.02-.77,0-1.16.23-.26.3-.67.21-1.26l.26-.13c.3-.28.66-.18.46.23Z" fill="#ab6c35"/>
        <path d="M38.71,67.69c-.5-1.14-.92-2.45-.93-3.71.48-.07.69-.13.7-.7.45.55.21,3.44.23,4.4Z" fill="#816f4d"/>
        <path d="M28.52,11.62c-.07.22-.2.37-.4.46l-2.21-.64c-1.82,1.08-3.19.98-4.11-.28.07-.12.14-.24.22-.35-.01-.11-.19-.08-.22-.11-.29-.27-.73-.31-.94-.56-.46-.55-.27-1.8-.5-2.17-.09-.14-.55-.16-.63-.42-.13-.39,1.02-1.69,1.1-2.6.09-.96-.67-1.89.5-2.26.44-.14.89-.03,1.27-.12s.63-.38.96-.43c4.94-.77,6.84,4.43,3.35,7.52.69.58,1.13,1.23,1.62,1.97Z" fill="#e8b328"/>
        <path d="M28.52,11.62c.15.22.45.43.46.46,1.1,2.07-3.41,2.48-4.74,2.56-1,.06-3.6.23-4.18-.48-1.02-1.27,1.15-1.93,1.73-3,.8-.39,1.19.69,1.29.7.77.06,2.19-.86,2.8-.88.54-.02,1.87.76,2.62.64Z" fill="#e66225"/>
        <path d="M7.43,19.04c-1.51-.11-.42-2.51,1.16-1.85-.07.38.1,1.1,0,1.39-.01.03-.35.17-.46.23-.33-.23-.57-.16-.7.23Z" fill="#6e4c36"/>
        <path d="M8.13,18.81c-.27.15-.27.26-.7.23-.62-.9.6-1.4.7-.23Z" fill="#44210f"/>
        <path d="M33.15,71.63c.75-.81,1.89-.45,2.08.59.42,2.27-.99,2.55-2.54,1.27.03-.68-.04-1.3.46-1.85Z" fill="#fcfcee"/>
        <path d="M31.07,80.66c-.53-.96,3.05-3.12,3.01-1.97,0,.27-.97.37-1.28.57-.26.17-1.43,1.72-1.73,1.4Z" fill="#6d4931"/>
        <path d="M42.88,23.67c.83.87,1.56,1.83,2.55,2.55-.03.01-.03.33-.26.54-1.02.93-2.07,1.19-2.75,2.47-.73.82-1.58,1.36-2.55,1.62.28.5-.43.64-.7.23l-.16.24c-1.51-.03-3.02.01-4.45.55-1.5.53-2.36-1.62-.96-2.18l.03-.33c1.88-.28,3.57-.87,5.07-1.76.96-.82,1.73-1.75,2.32-2.78.43-.46.86-.93,1.27-1.43l.58.27Z" fill="#f0c92f"/>
        <path d="M42.88,29.23c.02.18.18.26.46.23.35.33-.09.9-.46,1.16-.46.87-.34.9-.93,1.39-.11.54-.26,1.01-.46,1.39-.14.36-.33.36-.46,0-.44-.13-.44-.33,0-.46-.65-.47-.34-1.11,0-1.71l1.39-1.53c-.57-.1-.55-.27,0-.46.11-.01.45-.02.46,0Z" fill="#48858d"/>
        <path d="M43.35,34.79c1.33-.35,1.61.44,1.95.48,1.23.16,2.9-.38,4.01.51.13.1.03.36.06.39-1.71-.12-4.06-.92-5.7-.94-.36,0-.34.07-.55.25.09.19,0,.26-.23.23-.01.67-.37.43-.7,0,.32.76-1.32,1.34-1.62.46-.07.34-.27.29-.46,0-.42-.87,2.18-1.65,2.55-.93.12-.44.23-.75.7-.46Z" fill="#b59747"/>
        <path d="M41.96,32.94c.15-.09,1.08.06,1.39,0v1.85s-.14.31-.7.46l-.46-.24c.13-.55-.1-.93-.69-1.15-.44-.13-.44-.33,0-.46.05-.24.2-.39.46-.46Z" fill="#c4b033"/>
        <path d="M44.27,28.54c.09.21-.77,2.26-1.39,2.09.17-.32.29-.87.46-1.16-.26-.47.43-1.08.93-.93Z" fill="#85af68"/>
        <path d="M44.27,28.54c-.35.19-.73.6-.93.93-1.17.65-.42-.19-.46-.23.2-.46,1.11-1.38,1.39-.7Z" fill="#648049"/>
        <path d="M41.96,32.94c-.1.06.29.36-.46.46.02-.6-.04-.97.46-1.39v.93Z" fill="#6b9572"/>
        <path d="M46.13,36.41c.55.14,1.2,1.02,1.56,1.12.42.12,1.42-.26,1.64.08.2.31.25,1.8.72,2.35.31.37,1.05.1,1.46.91.16.31,1.28,2.73,1.3,2.89.08.46-.19.8-.18,1.12.02.4.48.6.44,1.35s-.76,1.3-.72,2.12c.04.92,1.11.63.94,2.29-.11,1.11-.9,1.32-.93,1.46-.08.37.34,1.11.25,1.23-.06.08-1.1.19-1.15.25-.26.29.35,1.36.38,1.75.07,1.04-.66,1.37-.81,1.87-.12.43.04.92-.08,1.31-.09.28-.52.3-.73.67-.59,1.03.05,2.52-1.1,2.83-.39.1-2.03-.33-2.19-.56s-.07-.79-.24-1.15c-.66-1.48-2.42-1.62-2.77-2.33-.46-.94.75-2.08-.58-1.86v-.23l.07-.29c1.98-.23,3.97-.31,5.97-.24l.32-.31c-1.58-3.59-2.92-7.25-4.04-10.98-.53-1.3-.79-2.48-.79-3.55l-.14-.39c-.2-.45-.35-.83-.46-1.16-.2-.39-.3-.91-.31-1.54-.47-.25-.72-1.46-.15-1.47.75.16,1.56.32,2.32.46Z" fill="#ef4b29"/>
        <path d="M43.81,35.95c-.38.83.44,1.24.46,1.32.11.44-.01,1.18,0,1.69.78.11.43.25.46,1.16.21.04.2.12,0,.23-.61,1.13-1.31-1.2-.46-1.39-.05.2-.24.46-.34.4-.29-.18-1.18-3.15-1.05-3.65.07-.09.15-.16.23-.23.11.4.36.39.7.46Z" fill="#ad5b57"/>
        <path d="M14.85,29.92c-.44.45-1.57-1.63-1.7-1.89-.49-.95-.94-1.86-.85-2.97.85.13.9,1.73,1.28,2.54.19.4,1.49,2.1,1.27,2.32Z" fill="#6f4c34"/>
        <path d="M8.36,35.72c.21-1.3.35-2.92.86-4.12.13-.32.18-.77.65-.74.07,1.58-1,3.18-.81,4.87-.22.04-.48-.04-.7,0Z" fill="#704d35"/>
        <path d="M17.16,28.77c-.49.46-1.59-1.2-1.39-1.39.49-.46,1.59,1.2,1.39,1.39Z" fill="#744e34"/>
        <path d="M5.35,26.22c.39.4-1.35,2.64-1.16.81.05-.53.88-1.09,1.16-.81Z" fill="#694830"/>
        <path d="M3.03,27.61c-.34.38-1.28-.99-.92-1.39.34-.38,1.28.99.92,1.39Z" fill="#6d4830"/>
        <path d="M59.56,68.15c-1.44.12-2.58-.99-3.94-.93.03-.19-.04-.64,0-.69.13-.13,2.93.77,3.36.93.36.14.67.2.58.69Z" fill="#c82715"/>
        <path d="M57.94,68.38c-.56.77.81,2.9.69,3.01-.9.83-1.72-2.4-1.39-3.01h.69Z" fill="#c72617"/>
        <path d="M59.56,69.08l.46,3.01c-.82.18-1.28-2.89-1.16-3.01.05-.05.51.03.69,0Z" fill="#ca2619"/>
        <path d="M54.93,67.92c.24-.17.76-.53.68.1-.03.26-.37,2.61-.91,1.98.04-.53-.06-1.1,0-1.62,0-.03.18-.28.23-.46Z" fill="#cb2917"/>
        <path d="M38.02,17.88c-.58,3.16-1.55,6.6-2.89,9.49-.51-.36-.3-.42-.16-.85.78-2.53,1.54-5.82,2.49-8.18.15-.37-.02-.57.57-.46Z" fill="#3082ba"/>
        <path d="M38.71,27.61c-.06.2.04.4-.23.57-.93.6-3.67,1.17-4.87,1.51-.34.34-.5.34-.46,0v-.46c.16-.04.79-.36.93-.46l.11-.23c.71.1,1.3.02,1.75-.23l.07-.25c.64.1,1.08.03,1.32-.21.32-.04,1.13-.17,1.39-.23Z" fill="#c0b055"/>
        <path d="M41.03,24.83c-.05.16.04.47-.06.75-.27.76-1.48,1.84-2.26,2.03.37-1.3.91-1,1.32-1.69.43-.72-.49-.59,1-1.09Z" fill="#adac6d"/>
        <path d="M42.42,23.21c.29.18.29.28.46.46-.61-.07-.84.91-1.31,1.12-.2.09-.43,0-.54.04.11-.35.21-.97.46-1.16.11-.22.26-.46.46-.7.15.09.32.14.46.23Z" fill="#cfa255"/>
        <path d="M41.96,21.35c-.38.6-.02,1.13,0,1.62.04,1.09-.26.54-.46.7.1-.64-.15-1.61-.01-2.17.06-.26.45-.12.47-.14Z" fill="#8a93aa"/>
        <path d="M37.32,27.84c.2.73-.74.45-1.39.46-.16.32-.34.35-.46,0-.21-.82,1.14-.37,1.85-.46Z" fill="#82adb1"/>
        <path d="M35.47,28.3c.15,0,.31,0,.46,0,.2.85-1.16.34-1.85.46.03-.03-.13-.4.15-.47.3-.08.87.02,1.24.01Z" fill="#8ba39b"/>
        <path d="M34.08,23.67c-1.39.25-1.6-1.42-.46-.81.27.14.53.47.46.81Z" fill="#3d8cbf"/>
        <path d="M40.33,23.44l-1.16,1.16c-.03-.69.47-1.19,1.16-1.16Z" fill="#368abf"/>
        <path d="M34.77,21.59c1.47-.13.93,1.62,0,.34v-.34Z" fill="#3e8cc2"/>
        <path d="M32.69,29.93c.27.11.37.55.31,1.31.86.57.53.93-.31,1.24.34.63-.5,1.07-.93.46-1.39.17-1.98-1.22-3.47-.46-.32-.32,2.34-2.26,2.55-2.32.4-.12,1.2-.06,1.85-.23Z" fill="#e1b28a"/>
        <path d="M33.15,29.69c.13-.04.33.04.46,0-.9.95-.29,2.09,1.03,1.85.38-.07.64-.4,1.16-.47,1.01-.14,2.32.13,3.37.01.62.07.59.29,0,.46-.28.49-.91.67-1.87.54-.74.3-1.28.28-1.61-.07-.12.61-.3.6-.46,0,.03.83-2.22,1.14-2.55.46.82-1.2.07-.81,0-1.08-.11-.41.06-1.02,0-1.47.07-.02.24-.17.46-.23Z" fill="#ceac47"/>
        <path d="M47.23,19.45s-.24.04-.39.24c-.13.18.2.75-.6.51-.13-.04.04-.78-1.04-.24l1.39-.7c.23-.8-1.21-.5-1.53-.25-.43.34-.05,1.12-.78.95-.53-2.17,3.66-1.95,2.95-.51Z" fill="#d23e1c"/>
        <path d="M42.88,21.82c1.05.88,2.79,2.6,3.01,3.94l-3.47-3.24c0-.54-.17-.8.46-.7Z" fill="#ed5d3f"/>
        <path d="M40.57,7.45c1.03.06.99.87,0,.7-.85-.06-1.61.37-1.39-.7.39-.07.95.02,1.39,0Z" fill="#c08c56"/>
        <path d="M41.26,11.86v.34c-.43.88-1.39-.32-1.16-.57l1.16.23Z" fill="#c0875e"/>
        <path d="M41.72,7.45c-.67,1.32-.45.75-1.16.7.76.09.61-.43,0-.7.38-.02.77,0,1.16,0Z" fill="#ca9f7a"/>
        <path d="M43.35,58.65c1.86.44,2.35,2.49,3.59,3.48.97.77,2.3.61,2.66,1.62-3.31.15-3.97-3.79-6.72-4.4.09-1.09.37-.56.46-.7Z" fill="#c32415"/>
        <path d="M48.9,64.68l-.03,1.24-.55,1.76c-.63-.52-.38-2.96.57-3.01Z" fill="#cc2919"/>
        <path d="M42.88,60.28c.67-.14.49.37.47.81-.02.53-.25,2.1-.47,2.51-.16.29-.35.1-.47.16-.02-1.18.31-2.31.46-3.48Z" fill="#bc2e19"/>
        <path d="M31.3,33.63l.32-.02c.12.63.44.99.84,1.18.33-.66.8-.61,1.16,0,.04-.45.24-.4.46,0,.02-.39.17-.39.46,0,0-.32.16-.48.46-.46.14-.76.58-.53.93,0,.07-.46.3-.46.7,0,.26-.59.43-.59.7,0,.55,0,.62.37.22.75-.24.23-4.07.67-4.73.69-.5,1.14.15,1.59,1.93,1.33l.26.47c.83.37-.38,1.19-.7.46-.48.64-.87.8-1.16.46l-.46,1.39c-.87,1.82-1.33,6.4,1.39,8.34.56-.53,1.11-.48.93.46,1.28,1.51.24,1.49.22,2.66,0,.72.54,1.47.69,2.11.17.73-1.5-.2-1.73-.36-4.48-3.1-4.56-8.14-4.74-12.85-.07-1.88-.64-5.84-.47-7.31.33-.22,2.24.6,2.32.7Z" fill="#97b53f"/>
        <path d="M38.25,43.6c.25-.6.45-.61.7,0,.19-.69,2.22.02,2.8.33.55.29,1.22.74.67,1.29.5.21.57.76.21,1.66.1.53.03.83-.21.88.37.06.6.22.7.46.27.66-.48,1.03-.93.46-.52.12-.39-.3-.23-.7-.08-1.37.36-2.15-1.17-2.91-.36-.18-1.3.59-1.97.56-.6-.03-1.01-.7-1.35-.64s-.73.86-1.08,1.02c-.39.17-.93.04-1.11.15-.38.24.04,1.67.19,2.05-.49-.06-.52-.03-.46.46-.58-.69-.49-.29-.93-.46-.35-.17-.42-.33-.23-.46.07-.24.3-.39.7-.46-.61-.33-.73-1.66,0-1.85.08-.49.45-.84.93-.93.39-1.03,1.88-1.73,2.78-.93Z" fill="#6f944f"/>
        <path d="M45.2,45.45c.28-.07.37,0,.44.22.79,2.77,1.61,5.42,2.76,8.06-.36.74-1.08.91-2.17.51h-2.88c.07.44-.04.73-.46.94.4.11.41.29,0,.46-.02.65.27,1.59-.46,1.39-.05-1.2-.09-2.89-.25-4.03-.24-1.7-1.83-3.12-.21-5,0,.13.22.42.23.7l.42.38c-.55.46.46,3.49.64,3.57.16.07,3.27.28,3.41.18-1.23-2.09-1.87-4.24-1.92-6.68-.73-.73.13-2.48.46-.7Z" fill="#84992f"/>
        <path d="M45.66,44.06c.53.47,1.42,3.05,1.73,3.94s.45,2.04.77,2.94c.59,1.64,1.63,3.03,2.13,4.7-1.81.06-3.64-.07-5.45,0-.51.02-1.06.28-1.5.24-.06,0-.29-.26-.46-.23,0-.15,0-.31,0-.46l.36-.38c1.88-.22,3.76-.25,5.63-.08-.81-1.78-1.73-3.89-2.35-5.84-.33-1.04-.76-2.42-.98-3.46-.09-.43-.23-1.15.12-1.36Z" fill="#e6952d"/>
        <path d="M25.97,4.9c.58.98,1.09,2.07.93,3.24.34.3-.08.77-.46.7-.11,0-.3.23-.54.18-.81-.18-.65-1.96-1.02-2.67-.16-.31-1.44-1.48-1.45-1.58-.03-.31.5-1.28.47-1.48.8-1.1,2.65.6,2.09,1.62Z" fill="#e17822"/>
        <path d="M21.11,8.85c.06-.06.52.03.69,0,.09-.59-.47-.7-.93-.7.39-1.28,1.01-1.17,1.97-1.85.46.24.1.65.24.9.54,1.01,2.03,1.89-.18,2.85-1.39.61-2.25-.73-1.79-1.21Z" fill="#f2c92e"/>
        <path d="M23.88,3.28c-.02-.14-.89-.34-.24-.58,2.05-.76,4.4.82,4.4,3.05,0,.44-.7,2.25-.91,1.11-.18-.94-.44-.85-.47-.95-.11-.5.19-1.17-.24-1.58l-.46.58c-.47-.8-.95-1.81-2.09-1.62Z" fill="#f3c12f"/>
        <path d="M26.43,8.84c.17-.19.29-.54.46-.7.09-.09.66-.5.69-.46.1.48-.3,1.09-.72,1.29-.29.14-.41-.13-.44-.13Z" fill="#f3c12f"/>
        <path d="M42.42,29.23c-.05.1.05.36,0,.46l-1.34,1.55-.51-.16c-.16.41-.79.26-.7-.23,1.02-.38,1.17-1.47,2.55-1.62Z" fill="#b5ad61"/>
        <path d="M40.57,31.08c1.09.81-1.13,1.51-1.39.46v-.46c.45-.05.43-.13.7-.23l.7.23Z" fill="#8fac95"/>
        <path d="M42.42,29.69c-.57,1.11-1.38,1.92-1.39,3.24-.33.11-.64.26-.93.46-.03.41-1.07.7-1.39.46-.54-.41-.93-.33-1.16.23.2.07.2.14,0,.23-.04.21-.12.2-.23,0-.23,0-.46,0-.7,0-.69-.2-1.39-1.76-.93-2.32,1.57-.52,1.75-.39,3.48-.46.56-.02,1.53.28,1.39-.46l1.85-1.39Z" fill="#6cafd4"/>
        <path d="M40.1,33.4c.1-.63.7-.45.93,0,.15,0,.32.02.46,0,0,.15,0,.31,0,.46-.08.66-3.06,1.02-3.53.91l-.41-.45v-.23c-.22-.77.81-.76,1.16-.23.68-.18.31-.39,1.39-.46Z" fill="#a9a969"/>
        <path d="M40.1,33.4c-.06-1.62.18-.74.93-.46,0,.15,0,.31,0,.46-.31.01-.62-.02-.93,0Z" fill="#5294af"/>
        <path d="M41.49,33.86c.37-.04.75-.3,1.16-.23v1.62c-.83.24-1.89.35-2.55.93-.76.84-2.57,1.09-3.74,1.19l-.43.2c-.37.34-.68.46-.93,0-2.13-.03-3.06.37-2.78-2.32,1.51.22,2.83-.24,4.29-.47.42-.07.94.3.81-.45.08,0,.15,0,.23,0,1.68-.05,2.49-.31,3.94-.46Z" fill="#e8c43a"/>
        <path d="M44.74,40.12c.84-.15.35.97.47,1.46.23.94.36,1.07.46,2.48-.27.39-.36.18-.46-.23-.77-.41-1.31-3.04-.46-3.48,0-.08,0-.15,0-.23Z" fill="#c5604b"/>
        <path d="M42.88,35.72s.45.59.46.63c.08.34-.07.73,0,1.07.04.18.41.14.46.32.21.86-.45,1.1.47,1.23.02.65-.27,1.59.46,1.39.01.63-.09,1.42-.02,1.99.05.35.41.25.48,1.49.35.38.5,1.38,0,1.62-.08-.15-.27-.26-.23-.46h-.23c-.02.38.02.77,0,1.16.63,1.28-.57,3.27-1.62,2.09-.18-.04-.63.06-.7,0-.04-.03.02-.32,0-.46,0-.36.3-.43.93-.23.02-.77.22-1.61.59-2.51-.08-2.7-.71-5.39-1.63-7.95l.34-.43c-.7-.14-.85-.45-.46-.93.08-.03.65-.02.7,0Z" fill="#5d887a"/>
        <path d="M40.1,36.18c.15,0,.31.01.46,0,.62.06.58.25,0,.46-.27.6-1.05,1.48-1.39.46-.07.65-.24.7-.7.23.07.65-.27.6-.7.23-.61.45-1.25.45-1.85,0,.17-.61.67-.38,1.05-.47,1.01-.22,2.15-.86,3.12-.92Z" fill="#aaa662"/>
        <path d="M42.19,35.72c.02.48.27.37.46.93-.56.65-2.71,1.79-2.09,0-.04-.09.03-.32,0-.46.39-.03.85.08,1.21,0,.23-.06.33-.42.41-.45Z" fill="#67a0b1"/>
        <path d="M35.24,32.01c.33.54.89,1.72.7,2.32-.22.01-.87-.05-.93,0l-.46.46c-.15.02-.31,0-.46,0-.35-.33-.5-.33-.46,0-.38.02-.78,0-1.16,0-.54.03-1.04-1.12-.7-1.62v-.23c.46-.06.74-.43.93-.46,1.08-.2,1.48-.1,2.55-.46Z" fill="#71a9c6"/>
        <path d="M35.7,32.01c.1.87.48,1.58.93,2.32-.23,0-.47-.01-.7,0-.25-.78-.81-1.44-.7-2.32.12-.04.34.04.46,0Z" fill="#3f90c3"/>
        <path d="M34.31,38.03c.33.33.23.51-.23.46l.22.62c-.79,1.68-.83,3.54-.71,5.37l-.44.5.27.1c.22.83.6,1.57,1.12,2.22-.02.14.04.43,0,.46-.07.06-.52-.03-.7,0-1.06,0-1.6-2.27-1.76-3.26-.26-1.61.03-3.27.6-4.62.1-.55.25-1.02.46-1.39.58-.24.42-.32,1.16-.46Z" fill="#367e87"/>
        <path d="M32.69,39.89c-.21,2.95-1.06,5.52,1.16,7.88.1.1.14.33.23.46-.28-.11-1.24-.33-1.35-.51s.02-.53-.06-.69c-.79-1.54-1.36-3.7-.91-5.59.04-.18.42-.14.45-.32.08-.36-.1-1.04.03-1.22.07-.09.39.03.44-.01Z" fill="#84b26a"/>
        <path d="M35.93,37.57c.62,0,1.24,0,1.85,0,1.43.55-1.27,1.81-2,.94-.53.56-1.51.94-1.71-.02.08-.15.16-.31.23-.46.47-.09.81.26.7-.46.31,0,.62,0,.93,0Z" fill="#73a4af"/>
        <path d="M32.46,34.79c-.08,0-.15.44-.71-.09-.48-.46-.39-.98-.45-1.06l.46-.46.7,1.62Z" fill="#42797d"/>
        <path d="M35,34.33c-.16.13.41.34-.46.46l-.93-1.85,1.39,1.39Z" fill="#5091ae"/>
        <path d="M34.08,34.79c-.15,0-.31,0-.46,0l-.46-1.16c.45.22.88.64.92,1.16Z" fill="#5091ae"/>
        <path d="M33.15,38.5c.03.57,0,1.02-.46,1.39.02-.31-.07-1.3,0-1.39.04-.05.36.04.46,0Z" fill="#78ab75"/>
        <path d="M40.57,36.64c.63,1.36.79.09,1.1,0,.26-.08.69.04.99,0,.91,2.65,2.84,8.6.7,10.89-.69.33-.82-.03-.71-.7.16-.67.15-1.02-.22-1.62-.07-.3-.58-.74-.86-.87-.23-.11-2.34-.71-2.61-.75-.31-.46-.44-1.1-.38-1.94-.43-4.19-1.32-.02-.27,1.41l-.04.53c-1.52-.08-1.54.53-2.78.93l-.93.93c-.39.87-1.13.13-1.39-.46-.14-2.52-.2-4.22.93-6.49,1.06.42,1.43-.47,1.52-.48.46-.04.73.39.91.39.07,0,1.2-.36,1.26-.4.1-.07-.02-.38.02-.44.2-.26.5-.16.7-.23.26,0,.5-.03.7-.23.1-.04.34.06.53,0,.18-.06.23-.72.86-.46Z" fill="#64b1e2"/>
        <path d="M44.74,46.14c.7,1.24.7,2.76,1.15,4.07.38,1.1,1.21,1.96,1.4,3.11l-4.62-.24c.09-.99-.61-2.04-.7-2.91-.06-.62.24-1.12.22-1.48.35-.06.65-.35.93-.46.14-.06.44.04.69-.12.8-.48.88-1.2.93-1.97Z" fill="#96b640"/>
        <path d="M38.25,43.6c-1.35-.64-1.11-4.61.11-4.64.24,0,1.14,4.17.58,4.64-.21-.03-.47.01-.7,0Z" fill="#1f77b7"/>
        <path d="M33.15,44.99c.84-.15.47.52,1.39.46-.04.6.07,1.27,0,1.85-1.37-.38-1.32-1.13-1.39-2.32Z" fill="#4694bf"/>
        <path d="M42.42,45.22c.4.46.91-.47,1.16-.23.16.16-.63,1.23-.7,1.74-.06.41-.17.96.47.81-.3.32-.53.26-.93.23-.09-.76.15-1.88,0-2.55Z" fill="#5c9ea8"/>
        <path d="M35.47,44.52c0,.47-.53.9-.93.93.02-.31-.02-.62,0-.93.27-.05.71.07.93,0Z" fill="#6ca8a4"/>
        <path d="M45.66,44.06c.15,2.14,2.05,7.29,2.97,9.43.24.55.88.97.74,1.69-.27.27-2.45-.22-2.92-.21-1.09.02-2.48.59-3.57.21.02-.46-.02-.93,0-1.39,1.12.03,2.25-.04,3.37,0,.55.01,1.5.54,1.71-.14.15-.5-1.37-3.43-1.67-4.3-.4-1.18-.51-2.75-1.09-3.89-.02-.54.03-1.08,0-1.62.13.09.35.14.46.23Z" fill="#ebc63b"/>
        <path d="M38.71,33.86c-.31.09-.82-.07-1.16.23l-.23-.93c.66-.03,1.4-.14,1.39.69Z" fill="#5292b3"/>
        <path d="M38.48,35.49c.57.5-1.62,1.02-1.84,1.05-.94.15-1.85.11-2.79.1-.27-1.32.86-.38,1.4-.59.41-.16.47-.97,1.47-.8.31.05.54.36.75.4.28.05.88-.27,1-.16Z" fill="#e2b726"/>
        <path d="M39.18,37.11l.23,1.62-.93-1.39c.23-.08.47-.15.7-.23Z" fill="#4b94c2"/>
        <path d="M42.65,43.59c-.97,1.01-2.22-4.05-2.31-4.63.66-.67,2.81,3.92,2.31,4.63Z" fill="#2078b7"/>
        <path d="M34.31,43.59c-.08-1.36.11-2.87,1.04-3.93.54.34.21.5.19.88-.06.88-.08,3-1.23,3.06Z" fill="#2278b4"/>
      </g>
    </g>
  </g>
</svg>