<?xml version="1.0" encoding="UTF-8"?>
<svg id="Layer_2" data-name="Layer 2" xmlns="http://www.w3.org/2000/svg" viewBox="0 0 64.02 96.36">
  <g id="Cards">
    <g id="Clubs">
      <g id="FiveOfClubs">
        <path d="M0,6.1l1.5-.16c.04.34.17.61.38.81.21.2.45.3.73.3.31,0,.58-.13.8-.38s.33-.64.33-1.16c0-.48-.11-.85-.33-1.09-.22-.24-.5-.36-.85-.36-.43,0-.82.19-1.17.58l-1.22-.18L.96.36h3.99v1.41h-2.85l-.24,1.34c.34-.17.68-.25,1.03-.25.67,0,1.24.24,1.7.73.47.49.7,1.12.7,1.9,0,.65-.19,1.23-.56,1.73-.51.7-1.22,1.04-2.13,1.04-.73,0-1.32-.2-1.78-.59s-.73-.92-.82-1.57Z" fill="#3b920f"/>
        <path d="M64.02,90.62l-1.5.16c-.04-.34-.17-.61-.38-.81-.21-.2-.45-.3-.73-.3-.31,0-.58.13-.8.38s-.33.64-.33,1.16c0,.48.11.85.33,1.09.22.24.5.36.85.36.43,0,.82-.19,1.17-.58l1.22.18-.77,4.1h-3.99v-1.41h2.85l.24-1.34c-.34.17-.68.25-1.03.25-.67,0-1.24-.24-1.7-.73-.47-.49-.7-1.12-.7-1.9,0-.65.19-1.23.56-1.73.51-.7,1.22-1.04,2.13-1.04.73,0,1.32.2,1.78.59s.73.92.82,1.57Z" fill="#3b920f"/>
        <g>
          <path d="M47.62,13.23c-.5.24-.03.76.43.86.21.42.7.81,1.48,1.16l.08.88c2.77,2.6,5.07,5.51,6.91,8.72l.75.41-.25.66c1.33,1.73.39,4.55-1.11,5.94l-.54-.33c-2.96.88-6.01-1.66-7.83-3.78l-.69.11c-.07-.71-.57-.65-1.06-.3.06.07.06.38.25.61,3.13,3.75,11.27,8.38,12.56.74,1-5.91-7.15-12.17-10.73-16.13-.65-.28-.75-.05-.27.46Z" fill="#aa3b30"/>
          <path d="M38.86,8.17c.43.55.7.61.83.17.4-.34.4-.57.06-.9,1.33-1.47-.94-2.34-2.16-1.85v-.61c-.83.29-1.34-.4-1.35-.78.54.04.83-.49.86-1.57.16.48.45.72.86.72-.09.84.21.93.92.53l.07.73c1.94,2.12,3.87,4.26,5.79,6.4-.56,1.43.79,2.96,1.95,3.7.67.43,2.32,1.25,2.84.55-.56-.62-.7-.72-1.48-1.16-.95-.7-1.09-.99-.43-.86l.27-.46c-2.96-3.27-6.49-6.91-9.2-10.31-.66-.83-.88-1.83-1.72-2.46-.59.03-.43.2-.57.53-.28.65-.92,3.29-.8,3.93.27,1.46,2.38,2.42,3.26,3.71Z" fill="#ad382e"/>
          <path d="M43.88,23.98c.53-.03.59-.55.17-.83.88-.54.14-3.22-.88-3.27.23-1-.02-1.45-.75-1.36.29-.53.14-1.17-.44-1.93.02-.66-.08-1.18-.3-1.57.02-.21.15-.44.4-.69.31-.72.11-.95-.66-.99.32-1.23-.53-3.88-1.63-4.63.49-.16.43-.36-.1-.36l-.83-.17c.45.65,2,5,2.06,5.78.1,1.37-.57,2.22.22,3.84.37.76.9,1.02,1.23,1.62.64,1.16.45,3.51,1.5,4.57Z" fill="#a63f31"/>
          <path d="M44.05,23.15c0,.06-.23.12-.17.83.02.25.14.49.19.73.24.52.39.63.59.04.74-.43,1.62,1.45.85,1.72-.29-.5-.58-.7-.59-.04.18.27.64.82.89,1.13.2.36,1.01.27,1.06.3,1.56-.6.46-3.89-.62-4.78-.72-.58-2.07-1.03-2.2.07Z" fill="#b03313"/>
          <path d="M44.92,26.43c.19-.19.39-.06.59.04.66-.58-.03-1.76-.85-1.72l-.59-.04c.28,1.14.26.85.85,1.72Z" fill="#9e4d37"/>
          <path d="M37.58,5.58c.86.5.56.25,1.41.52,1.58.51.1.88.13,1.31.01.19.45.58.57.92.04.12.06.25.1.36.6.52,1.08,1.14,1.45,1.84,1.35.3,1.55.75.59,1.34-.02.54-.16,1.02-.4,1.44.19.36.29.75.66.99l.09.36c2.03.45,2.14,3.11.79,4.34l.22.85c.42.98.79,2.21.88,3.27,2.41-.87,3.53,2.89,2.82,4.7.57.37,1.36,1.57,2.06,2.08,1.95,1.43,4.66,3.18,7.01,1.92.52-.38.74-.76.67-1.15.42-1.68.35-3.16-.21-4.43.79.32,1.21-.21.9-1.02-1.45-3.71-5.02-6.99-7.75-10.01-1.76-.71-2.34-.47-3.67-2.04-.88-1.03-.84-1.01-.52-2.39-2.25-1.84-4.17-5.3-6.45-6.95-.58.17-1.02.75-1.3,1.71Z" fill="#ef6230"/>
          <path d="M56.39,26.28c.58,1.25.65,2.72.21,4.43-.2.39-.46.76-.67,1.15,1.84-.99,2.35-3.33,1.97-5.3-.13-.67-.45-.86-.62-1.3-.14.38-.78.74-.9,1.02Z" fill="#e8543c"/>
          <path d="M48.05,14.09c-.13-.23-.26-.69-.43-.86-.4-.41-1.23-.91-1.71-1.29-.41.05,1.15,1.87,1.47,2.07s.64.07.67.08Z" fill="#e05d48"/>
          <path d="M36.23,4.19c.57,1.83,2.76.82,1.72-.85-.02-.32-.66-1.95-1.08-1.85-.14.03-.56,2.33-.64,2.7Z" fill="#e85536"/>
          <path d="M36.23,4.19c-.03.14-.3.37-.26.45.05.12,1.28.75,1.61.94.98-.21.88-.96,1.3-1.71-.28-.21-.63-.34-.92-.53.04.66-.39,1.21-.7,1.75l-1.02-.9Z" fill="#ca3112"/>
          <path d="M39.78,8.7c.54,1.46.94,3.31,1.63,4.63,1.29.25.68-1.32.8-1.37.08-.04.44.44.67-.09.17-.39-.03-1.43-.43-1.58-.18-.07-.55.14-.71.05-.21-.11-.67-1.88-1.97-1.65Z" fill="#c73526"/>
          <path d="M42.41,18.52c.72,1.04,1.22-.21,1.38-1.09.25-1.39-.72-3.31-2.12-2.42-.89,1.37.22,2.4.74,3.51Z" fill="#ec9f43"/>
          <path d="M42.07,14.33c-.7-.03-1.6.52-.4.69.91.13,1.57.36,1.81,1.37.15.65,0,2.34-1.06,2.14.18.39.61,1.02.75,1.36-.05-.61.51-.88.71-1.44.57-1.61.22-4.02-1.81-4.12Z" fill="#b9370f"/>
          <path d="M44.67,24.74c.13.56.76,1.11.85,1.72.28.14.71.57.99.42.08-.79-.95-3.43-1.77-3.33.02.33-.13.93-.07,1.19Z" fill="#f0954f"/>
          <path d="M49.64,20.42c-.46.57,1.75,3.65,2.05,4.68.35,1.18-.15,5.41,1.81,4.62,1.79-.73,1.5-3.49.97-4.97-.63-1.75-2.69-5.08-4.84-4.32Z" fill="#f6c92f"/>
          <path d="M45.84,21.12c.71.2,1.1.25.67-.48-.87-1.49-1.28-.22-1.57-.36-.05-.02-.17-1.04-.54-.92-1,.31.4,1.51.52,1.71.09.15,1.07,2.59,1.61,1.52.16-.32-.91-.97-.69-1.47Z" fill="#c62e18"/>
          <path d="M56.39,26.28c-.11.27.34,1.52-.09,2.07l.3,2.36c.42-.81,1.47-4.34-.21-4.43Z" fill="#c52d14"/>
          <path d="M50.46,29.62s.48-.61.28-.79l-1.76-1.44c-.56.67,1.3,2.29,1.48,2.23Z" fill="#c53219"/>
          <path d="M37.29,4.49c.23-.07.41-.84.18-1.12-.63-.77-.89,1.34-.18,1.12Z" fill="#fd9151"/>
        </g>
        <g>
          <path d="M13.85,12.13c-.75.61-.6,1.14-1.02,1.7-1.4,1.84-3.81,3.03-5.29,5.34-2.19,3.43-4.17,13.37,2.01,13.57,3.81.13,6.11-2.84,7.68-5.91,3.65-7.15,5.67-16.33,9.28-23.63.37-.75,2.1-2.49,1.23-2.93-.2-.1-3.97.77-4.29.98-1.07.72-1.1,2.48-1.54,3.53-.68,1.64-3.16,4.41-4.66,5.34-1.01.63-2.57.71-3.18,1.86,1.04-.67,2.1-.93,3.17-.78l.42-.7c.28.64.69.51.8-.16.44.39,1.37-.5,1.83-.95l.52-.12c1.32-.76,1.76-1.7,1.32-2.85l.32-.47c1.26,1.93,2.14-1.37.91-2.01.34-.37.35-.87.03-1.5l.56.06c.72-.5,1.71-.83,2.53-.36.1.17-.91,1.1-1.49,1.35-.04.22.04.41.22.57-.19.14-.37.28-.53.45-.57.61-2.69,6.07-2.66,6.88,0,.22.05.45.11.67-.8,1.52-1.47,3.1-2.02,4.72l-.62.38c-.99,3.68-2.3,7.35-4.33,10.59l.13.71c-1.09,1.05-2.68,2.58-4.17,3.08-2.1.71-4.37-.4-4.77-2.66l.4-.62c-.48-2.25-.06-4.45,1.24-6.36l-.15-.71c.49-.2.73-.46.19-.7.54-.54,1.29-1.7,1.01-2.36,1.17-.17,1.64-.54,1.43-1.12.85.3,3.06-1.58,2.73-2.46.99-.05.94-.42.5-1.18.76.11.94-.28.41-.83.48-.51.44-.58-.26-.44Z" fill="#81944f"/>
          <path d="M17.67,10.52c-1.02.43-1.66.38-1.92.49-.43.18-1.27.7-1.67.99-.07.05-.16.08-.22.13l.26.44.5.21c3.39-2.69,1.54,1.49-.91.62-.11.16-.15.8-.5,1.18.02,1.02,2.09.65,2.79.36,1.89-.78,2.39-2.64,1.68-4.42Z" fill="#939c36"/>
          <path d="M23.37,3.97c.08.29.02,1.96-.1,2.13-.34.36-.45-.05-.81-.12l-.21.51c.57,1.28-.42,2.16-1.43,2.81l-.33.14c.11.95-.2,1.13-.93.53-.42.45-.79.58-1.09.39-.04.02-.44.01-.8.16-.48.77-.09,1.69-.35,2.44-.58,1.68-2.6,1.96-4.12,1.62-.68.73-1.91,1.72-2.73,2.46l-.2.61c.29,1.43-.51,2.62-2.42,3.57-1.73,2.54-2.16,4.55-1.49,7.68.21,1.33,1.68,3.18,2.91,2.47,1.2-.21,2.14-.65,2.8-1.32.29-.43.74-.99,1.12-.4.9.09,1.77-.3,2.11-1.17,2.06-2.85,4.02-8.25,4.82-11.67.52-1.65,1.19-3.22,2.02-4.72.99-2.52,2.11-5.34,3.08-8,.04-.67-1.68-.66-1.85-.12Z" fill="#97b43d"/>
          <path d="M12.05,30.06c.2.17.2.19.03.27-.94.42-1.86.73-2.82,1.05-1.65-.39-2.21-.84-2.91-2.47.26,1.21.13,1.63,1.3,2.51,2.47,1.84,5.85-.34,7.49-2.32.18-.22.12-.57.15-.61-.96,1.32-3.12-.12-3.24,1.57Z" fill="#92af53"/>
          <path d="M14.11,12.57c-.05.06-.24.58-.41.83.78,1.7,3.88-.49,3.18-1.69-.6-1.04-2.25.26-2.77.86Z" fill="#d3bb3b"/>
          <path d="M10.47,17.05c-.45.42-.84.48-1.43,1.12l.53.38c-.55.63-1.06,1.29-1.54,1.98-.04.18-.11.59-.19.7,1.67-.11,3.98-2.64,2.62-4.18Z" fill="#8a9b2b"/>
          <path d="M26.48,2.17l-.24-.26c-1.07.78-2.02.97-2.85.56-.08.21.07.61-.08.64-.34.02-.25-.59-.59-.25.14.37.54.77.64,1.11l1.85.12c.25-.67.68-.54,1.04-.91.13-.13-.09-.81.57-.92-.06-.16-.34-.07-.34-.08Z" fill="#7f9a34"/>
          <path d="M9.04,18.17c-1,1.08-.78,1.23-1.01,2.36,1.22-.21,3.55-3.3,1.01-2.36Z" fill="#c3be49"/>
          <path d="M22.13,12.09c-.66.21-1.06,1.23-1.31,1.81-.46,1.05-.5,2.03-.7,2.91.56-.21.58-.56.76-1.02.44-1.15.79-2.5,1.26-3.7Z" fill="#9fb355"/>
          <path d="M22.45,5.98c-1.54-.33-.46,1.63-.49,1.75-.06.21-1.14.24-1.15,1.57.94.94,3.03-2.18,1.64-3.32Z" fill="#bfd38e"/>
          <path d="M23.39,2.47c.69,1.79,1.93.23,3.09-.3-.15-.32.22-.77-.64-.76-.69,0-2.19.35-2.45,1.06Z" fill="#a0b54a"/>
          <path d="M20.81,9.3c-.15-.15-.29-.64-.39-.67-.12-.04-1.36,1.38-1.96,1.73-.14,1.32,1.07-.08,1.15-.07l.29,1.01c.17.04,1.05-.87,1.15-1.11s-.24-.42-.24-.9Z" fill="#7e9a36"/>
          <path d="M13.38,27.22c1.94-1.21,1.18-.76,2.04-2.27.14-.25.57-.34.68-.57.46-1.02.72-2.4-.04-3.28-1.45-1.67-2.49.63-3.41,1.84s-1.14.9-2.01,1.72c-.12.12.28.78-.86,1.08-.24.06-.34-.55-.94-.05-1.34,1.14-.82,3.58.95,3.56,1.13-.01,2.69-.61,3.47-1.42.24-.25.09-.52.13-.61l-.63-.21c-3.25,2.25-6.31.59-.85-1.34l1.36-1.56c3.58-6.02,1.95.83-.16,2.52l.29.6Z" fill="#abb733"/>
          <path d="M13.49,15.6c-.3-.07-2.75,2.96-1.64,3.31.49.16.34-1.58,1.04-.76.44.51.96-.04,1.13-.65.14-.5-.35-.58-.44-.89-.1-.36.24-.68-.1-1.03Z" fill="#7e9f36"/>
          <path d="M9.26,31.38c1.78.43,2.39-.62,3.94-1.39-.27-.82-.7-.08-1.14.07-.84.28-2.39.54-2.8,1.32Z" fill="#7d9f3b"/>
          <path d="M8.84,23.47c-.43-.87-1.86,1.35-1.61,1.82.52.94,1.71-1.61,1.61-1.82Z" fill="#7e9d38"/>
          <path d="M13.38,27.22c.38-.92.57-.73.98-1.33.68-1.01,1.67-2.68,1.45-3.93-.48-2.78-2.43,1.19-2.96,1.84-.27.32-1.09,1.33-1.33,1.53-.8.66-4.37,1.29-2.82,2.84,1.29,1.29,3.51-.2,4.68-.93Z" fill="#eacc30"/>
        </g>
        <g>
          <path d="M16.21,81.02c.5-.24.03-.76-.43-.86-.21-.42-.7-.81-1.48-1.16l-.08-.88c-2.77-2.6-5.07-5.51-6.91-8.72l-.75-.41.25-.66c-1.33-1.73-.39-4.55,1.11-5.94l.54.33c2.96-.88,6.01,1.66,7.83,3.78l.69-.11c.07.71.57.65,1.06.3-.06-.07-.06-.38-.25-.61-3.13-3.75-11.27-8.38-12.56-.74-1,5.91,7.15,12.17,10.73,16.13.65.28.75.05.27-.46Z" fill="#aa3b30"/>
          <path d="M24.97,86.08c-.43-.55-.7-.61-.83-.17-.4.34-.4.57-.06.9-1.33,1.47.94,2.34,2.16,1.85v.61c.83-.29,1.34.4,1.35.78-.54-.04-.83.49-.86,1.57-.16-.48-.45-.72-.86-.72.09-.84-.21-.93-.92-.53l-.07-.73c-1.94-2.12-3.87-4.26-5.79-6.4.56-1.43-.79-2.96-1.95-3.7-.67-.43-2.32-1.25-2.84-.55.56.62.7.72,1.48,1.16.95.7,1.09.99.43.86l-.27.46c2.96,3.27,6.49,6.91,9.2,10.31.66.83.88,1.83,1.72,2.46.59-.03.43-.2.57-.53.28-.65.92-3.29.8-3.93-.27-1.46-2.38-2.42-3.26-3.71Z" fill="#ad382e"/>
          <path d="M19.96,70.26c-.53.03-.59.55-.17.83-.88.54-.14,3.22.88,3.27-.23,1,.02,1.45.75,1.36-.29.53-.14,1.17.44,1.93-.02.66.08,1.18.3,1.57-.02.21-.15.44-.4.69-.31.72-.11.95.66.99-.32,1.23.53,3.88,1.63,4.63-.49.16-.43.36.1.36l.83.17c-.45-.65-2-5-2.06-5.78-.1-1.37.57-2.22-.22-3.84-.37-.76-.9-1.02-1.23-1.62-.64-1.16-.45-3.51-1.5-4.57Z" fill="#a63f31"/>
          <path d="M19.79,71.09c0-.06.23-.12.17-.83-.02-.25-.14-.49-.19-.73-.24-.52-.39-.63-.59-.04-.74.43-1.62-1.45-.85-1.72.29.5.58.7.59.04-.18-.27-.64-.82-.89-1.13-.2-.36-1.01-.27-1.06-.3-1.56.6-.46,3.89.62,4.78.72.58,2.07,1.03,2.2-.07Z" fill="#b03313"/>
          <path d="M18.91,67.81c-.19.19-.39.06-.59-.04-.66.58.03,1.76.85,1.72l.59.04c-.28-1.14-.26-.85-.85-1.72Z" fill="#9e4d37"/>
          <path d="M26.25,88.66c-.86-.5-.56-.25-1.41-.52-1.58-.51-.1-.88-.13-1.31-.01-.19-.45-.58-.57-.92-.04-.12-.06-.25-.1-.36-.6-.52-1.08-1.14-1.45-1.84-1.35-.3-1.55-.75-.59-1.34.02-.54.16-1.02.4-1.44-.19-.36-.29-.75-.66-.99l-.09-.36c-2.03-.45-2.14-3.11-.79-4.34l-.22-.85c-.42-.98-.79-2.21-.88-3.27-2.41.87-3.53-2.89-2.82-4.7-.57-.37-1.36-1.57-2.06-2.08-1.95-1.43-4.66-3.18-7.01-1.92-.52.38-.74.76-.67,1.15-.42,1.68-.35,3.16.21,4.43-.79-.32-1.21.21-.9,1.02,1.45,3.71,5.02,6.99,7.75,10.01,1.76.71,2.34.47,3.67,2.04.88,1.03.84,1.01.52,2.39,2.25,1.84,4.17,5.3,6.45,6.95.58-.17,1.02-.75,1.3-1.71Z" fill="#ef6230"/>
          <path d="M7.45,67.96c-.58-1.25-.65-2.72-.21-4.43.2-.39.46-.76.67-1.15-1.84.99-2.35,3.33-1.97,5.3.13.67.45.86.62,1.3.14-.38.78-.74.9-1.02Z" fill="#e8543c"/>
          <path d="M15.78,80.15c.13.23.26.69.43.86.4.41,1.23.91,1.71,1.29.41-.05-1.15-1.87-1.47-2.07s-.64-.07-.67-.08Z" fill="#e05d48"/>
          <path d="M27.6,90.05c-.57-1.83-2.76-.82-1.72.85.02.32.66,1.95,1.08,1.85.14-.03.56-2.33.64-2.7Z" fill="#e85536"/>
          <path d="M27.6,90.05c.03-.14.3-.37.26-.45-.05-.12-1.28-.75-1.61-.94-.98.21-.88.96-1.3,1.71.28.21.63.34.92.53-.04-.66.39-1.21.7-1.75l1.02.9Z" fill="#ca3112"/>
          <path d="M24.05,85.54c-.54-1.46-.94-3.31-1.63-4.63-1.29-.25-.68,1.32-.8,1.37-.08.04-.44-.44-.67.09-.17.39.03,1.43.43,1.58.18.07.55-.14.71-.05.21.11.67,1.88,1.97,1.65Z" fill="#c73526"/>
          <path d="M21.42,75.72c-.72-1.04-1.22.21-1.38,1.09-.25,1.39.72,3.31,2.12,2.42.89-1.37-.22-2.4-.74-3.51Z" fill="#ec9f43"/>
          <path d="M21.76,79.92c.7.03,1.6-.52.4-.69-.91-.13-1.57-.36-1.81-1.37-.15-.65,0-2.34,1.06-2.14-.18-.39-.61-1.02-.75-1.36.05.61-.51.88-.71,1.44-.57,1.61-.22,4.02,1.81,4.12Z" fill="#b9370f"/>
          <path d="M19.17,69.5c-.13-.56-.76-1.11-.85-1.72-.28-.14-.71-.57-.99-.42-.08.79.95,3.43,1.77,3.33-.02-.33.13-.93.07-1.19Z" fill="#f0954f"/>
          <path d="M14.2,73.82c.46-.57-1.75-3.65-2.05-4.68-.35-1.18.15-5.41-1.81-4.62-1.79.73-1.5,3.49-.97,4.97.63,1.75,2.69,5.08,4.84,4.32Z" fill="#f6c92f"/>
          <path d="M18,73.12c-.71-.2-1.1-.25-.67.48.87,1.49,1.28.22,1.57.36.05.02.17,1.04.54.92,1-.31-.4-1.51-.52-1.71-.09-.15-1.07-2.59-1.61-1.52-.16.32.91.97.69,1.47Z" fill="#c62e18"/>
          <path d="M7.45,67.96c.11-.27-.34-1.52.09-2.07l-.3-2.36c-.42.81-1.47,4.34.21,4.43Z" fill="#c52d14"/>
          <path d="M13.38,64.62s-.48.61-.28.79l1.76,1.44c.56-.67-1.3-2.29-1.48-2.23Z" fill="#c53219"/>
          <path d="M26.54,89.75c-.23.07-.41.84-.18,1.12.63.77.89-1.34.18-1.12Z" fill="#fd9151"/>
        </g>
        <g>
          <path d="M49.98,82.11c.75-.61.6-1.14,1.02-1.7,1.4-1.84,3.81-3.03,5.29-5.34,2.19-3.43,4.17-13.37-2.01-13.57-3.81-.13-6.11,2.84-7.68,5.91-3.65,7.15-5.67,16.33-9.28,23.63-.37.75-2.1,2.49-1.23,2.93.2.1,3.97-.77,4.29-.98,1.07-.72,1.1-2.48,1.54-3.53.68-1.64,3.16-4.41,4.66-5.34,1.01-.63,2.57-.71,3.18-1.86-1.04.67-2.1.93-3.17.78l-.42.7c-.28-.64-.69-.51-.8.16-.44-.39-1.37.5-1.83.95l-.52.12c-1.32.76-1.76,1.7-1.32,2.85l-.32.47c-1.26-1.93-2.14,1.37-.91,2.01-.34.37-.35.87-.03,1.5l-.56-.06c-.72.5-1.71.83-2.53.36-.1-.17.91-1.1,1.49-1.35.04-.22-.04-.41-.22-.57.19-.14.37-.28.53-.45.57-.61,2.69-6.07,2.66-6.88,0-.22-.05-.45-.11-.67.8-1.52,1.47-3.1,2.02-4.72l.62-.38c.99-3.68,2.3-7.35,4.33-10.59l-.13-.71c1.09-1.05,2.68-2.58,4.17-3.08,2.1-.71,4.37.4,4.77,2.66l-.4.62c.48,2.25.06,4.45-1.24,6.36l.15.71c-.49.2-.73.46-.19.7-.54.54-1.29,1.7-1.01,2.36-1.17.17-1.64.54-1.43,1.12-.85-.3-3.06,1.58-2.73,2.46-.99.05-.94.42-.5,1.18-.76-.11-.94.28-.41.83-.48.51-.44.58.26.44Z" fill="#81944f"/>
          <path d="M46.17,83.72c1.02-.43,1.66-.38,1.92-.49.43-.18,1.27-.7,1.67-.99.07-.05.16-.08.22-.13l-.26-.44-.5-.21c-3.39,2.69-1.54-1.49.91-.62.11-.16.15-.8.5-1.18-.02-1.02-2.09-.65-2.79-.36-1.89.78-2.39,2.64-1.68,4.42Z" fill="#939c36"/>
          <path d="M40.47,90.27c-.08-.29-.02-1.96.1-2.13.34-.36.45.05.81.12l.21-.51c-.57-1.28.42-2.16,1.43-2.81l.33-.14c-.11-.95.2-1.13.93-.53.42-.45.79-.58,1.09-.39.04-.02.44-.01.8-.16.48-.77.09-1.69.35-2.44.58-1.68,2.6-1.96,4.12-1.62.68-.73,1.91-1.72,2.73-2.46l.2-.61c-.29-1.43.51-2.62,2.42-3.57,1.73-2.54,2.16-4.55,1.49-7.68-.21-1.33-1.68-3.18-2.91-2.47-1.2.21-2.14.65-2.8,1.32-.29.43-.74.99-1.12.4-.9-.09-1.77.3-2.11,1.17-2.06,2.85-4.02,8.25-4.82,11.67-.52,1.65-1.19,3.22-2.02,4.72-.99,2.52-2.11,5.34-3.08,8-.04.67,1.68.66,1.85.12Z" fill="#97b43d"/>
          <path d="M51.78,64.18c-.2-.17-.2-.19-.03-.27.94-.42,1.86-.73,2.82-1.05,1.65.39,2.21.84,2.91,2.47-.26-1.21-.13-1.63-1.3-2.51-2.47-1.84-5.85.34-7.49,2.32-.18.22-.12.57-.15.61.96-1.32,3.12.12,3.24-1.57Z" fill="#92af53"/>
          <path d="M49.72,81.67c.05-.06.24-.58.41-.83-.78-1.7-3.88.49-3.18,1.69.6,1.04,2.25-.26,2.77-.86Z" fill="#d3bb3b"/>
          <path d="M53.37,77.2c.45-.42.84-.48,1.43-1.12l-.53-.38c.55-.63,1.06-1.29,1.54-1.98.04-.18.11-.59.19-.7-1.67.11-3.98,2.64-2.62,4.18Z" fill="#8a9b2b"/>
          <path d="M37.36,92.07l.24.26c1.07-.78,2.02-.97,2.85-.56.08-.21-.07-.61.08-.64.34-.02.25.59.59.25-.14-.37-.54-.77-.64-1.11l-1.85-.12c-.25.67-.68.54-1.04.91-.13.13.09.81-.57.92.06.16.34.07.34.08Z" fill="#7f9a34"/>
          <path d="M54.79,76.08c1-1.08.78-1.23,1.01-2.36-1.22.21-3.55,3.3-1.01,2.36Z" fill="#c3be49"/>
          <path d="M41.71,82.15c.66-.21,1.06-1.23,1.31-1.81.46-1.05.5-2.03.7-2.91-.56.21-.58.56-.76,1.02-.44,1.15-.79,2.5-1.26,3.7Z" fill="#9fb355"/>
          <path d="M41.38,88.26c1.54.33.46-1.63.49-1.75.06-.21,1.14-.24,1.15-1.57-.94-.94-3.03,2.18-1.64,3.32Z" fill="#bfd38e"/>
          <path d="M40.44,91.77c-.69-1.79-1.93-.23-3.09.3.15.32-.22.77.64.76.69,0,2.19-.35,2.45-1.06Z" fill="#a0b54a"/>
          <path d="M43.02,84.95c.15.15.29.64.39.67.12.04,1.36-1.38,1.96-1.73.14-1.32-1.07.08-1.15.07l-.29-1.01c-.17-.04-1.05.87-1.15,1.11s.24.42.24.9Z" fill="#7e9a36"/>
          <path d="M50.46,67.02c-1.94,1.21-1.18.76-2.04,2.27-.14.25-.57.34-.68.57-.46,1.02-.72,2.4.04,3.28,1.45,1.67,2.49-.63,3.41-1.84s1.14-.9,2.01-1.72c.12-.12-.28-.78.86-1.08.24-.06.34.55.94.05,1.34-1.14.82-3.58-.95-3.56-1.13.01-2.69.61-3.47,1.42-.24.25-.09.52-.13.61l.63.21c3.25-2.25,6.31-.59.85,1.34l-1.36,1.56c-3.58,6.02-1.95-.83.16-2.52l-.29-.6Z" fill="#abb733"/>
          <path d="M50.35,78.64c.3.07,2.75-2.96,1.64-3.31-.49-.16-.34,1.58-1.04.76-.44-.51-.96.04-1.13.65-.14.5.35.58.44.89.1.36-.24.68.1,1.03Z" fill="#7e9f36"/>
          <path d="M54.58,62.87c-1.78-.43-2.39.62-3.94,1.39.27.82.7.08,1.14-.07.84-.28,2.39-.54,2.8-1.32Z" fill="#7d9f3b"/>
          <path d="M55,70.77c.43.87,1.86-1.35,1.61-1.82-.52-.94-1.71,1.61-1.61,1.82Z" fill="#7e9d38"/>
          <path d="M50.46,67.02c-.38.92-.57.73-.98,1.33-.68,1.01-1.67,2.68-1.45,3.93.48,2.78,2.43-1.19,2.96-1.84.27-.32,1.09-1.33,1.33-1.53.8-.66,4.37-1.29,2.82-2.84-1.29-1.29-3.51.2-4.68.93Z" fill="#eacc30"/>
        </g>
        <g>
          <path d="M45.68,54.77h-.58c-.53-.09-.69-.17-.29-.58l.23-.61c3.33-.59,7.85-1.44,10.06-4.19.18-.61.51-.93.98-.98-.36-.99-.79-1.95-1.29-2.88-1.46-1.05-2.96-2.02-4.49-2.9l-.91.42c-5.22-.15-10.47.27-15.75,1.26-.51.12-.92-.13-1.26-.52-.51.38-1.08.66-1.73.58-.7.37-2.16.61-2.89.29l-.48.37c-1.06-.39-1.96-.41-2.7-.08l-.42.57c-3.16.17-6.31.53-9.44,1.08l-.54-.5c-.63-.33-.27-.43.29-.58.12-.49.65-.42.87,0,1.08-.06,2.16-.2,3.18-.58,5.08-1.04,10.28-1.6,15.43-2.02l1.33-.29c.1,0,.19,0,.29,0,2.83-.54,5.72-.93,8.67-1.16,3.68.04,9.21.14,11.68,3.48,4.53,6.11-5.71,9.52-10.24,9.81Z" fill="#ceab45"/>
          <path d="M9.85,49c-.51-.45-.61-.84-.29-1.16.49-.4,1.18-.15,2.08.72.61.02,1.08.16,1.39.43.47-.96,4.36-1.47,5.29-1.21l.49.63c.38.41-1.04.44-.98.43,1.78-.29,2.13-.32,3.87-.11.04,0,.07.12.1.27,1.16-.19,2.59-.04,3.08,1.14.26-.45.45-.53.58,0,.37.29.76.3,1.52.24l.22.34h.39c.27,1.18,2.75,1.49,3.68,1.02l.55.42c.25-.89.75-.3,1.16.29.08-.13.17-.24.28-.34.26-.24,4.41.79,4.63,1.5.37-.44.75-.63,1.16-.58.75.37,1.7.5,2.84.41l.05.45c.21.93.97,1.03,2.25.31l.93.56c.19,0,.39.01.58,0-2.67.8-5.43.46-8.1-.13-1.51-.33-3.64-1.38-5.06-1.58-1.18-.17-2.46.14-3.67-.09-1.27-.23-2.43-1.46-3.77-2-1.74-.7-6.02-1.71-7.84-1.69s-4.4,1.31-6.15.65c-.48-.18-.85-.69-1.24-.93Z" fill="#d0ab47"/>
          <path d="M14.47,45.53c-.33.39-1.06.57-1.16,0h-.29c.21-.67.76-.56,1.28-.6,1.52-.12,5.75-.3,6.9-.57.23-.05.08-.52.61-.59,1.23-.16,2.85.2,4.08.05.55-.07.27-.55.83-.62,2.68-.34,5.81-.35,8.54-.56-.39.37-1.1.49-1.62.55-5.05.58-10.09,1.24-15.13,1.77-1.02.38-2.1.52-3.18.58-.29.02-.58-.02-.87,0Z" fill="#f6ecc5"/>
          <path d="M9.85,49c-.55-.34-3.02-2.3-2.89-3.03s5.09-.4,6.07-.44c.1,0,.19,0,.29,0,.65.6-.83.82-1.47.88-.96-.14-1.82-.05-2.57.28.71.2.92.67.29,1.16.11.38.2.77.29,1.16Z" fill="#f0e0a9"/>
          <path d="M35.56,42.64c.21-.67.76-.55,1.28-.6,2.53-.2,4.45-.59,7.38-.56-2.82.64-5.78.9-8.67,1.16Z" fill="#f6ecc5"/>
          <path d="M44.81,54.2l-.7.03c-1.46-1.78-4.53-2.34-6.23-.61-1.59.05-3.23-.91-4.91-1.16-1.33-1.73-2.6-2.63-4.97-2.79-1.04.78-1.89.94-2.54.48-.18,0-.4.02-.58,0-.24-.59-.62-1.13-1.15-1.63.35-1-.86-.98-1.13-.07l-3.49.22-.3-.25c-2.04-.28-3.84.37-5.78.58-.23-.09-.46-.18-.64-.34-.48-.42-1.52-1.41-1.38-1.97.04-.14.1-.26.17-.27.73-.18,2.49-.46,3.01-.3,2.71-.43,7.82-1.22,10.4-1.16.52-.55,1.74-.34,2.21.3,1.23.45,3.87.44,4.38-.96l1.21-.5c5.79-.12,12.05-2.38,17.91-1.16.78.42.97.81.58,1.16l.24.49c1.6.65,2.86,1.55,3.8,2.69.51.1.89.58,1.16,1.44-.43,3.62-8.23,5.44-11.27,5.78Z" fill="#f0ca2b"/>
          <path d="M45.1,54.77c-1.53.07-3.09-.05-4.62,0l1.44-.86c.7-.37-.37-.57-.88-.62-.94.45-1.61.36-2.01-.25-.19.05-.04.54-1.16.58.76-2.58,5.9-1.13,6.93.58.11.18.19.39.29.58Z" fill="#d7aa2b"/>
          <path d="M56.08,48.42c-.62.2-.95-.89-1.16-1.44-.96-1.15-2.29-2.08-4-2.77l-.04-.41c.05-.15-.67-.76-.58-1.16,2.71.57,6.15,2.62,5.78,5.78Z" fill="#f1c13a"/>
          <path d="M32.39,43.8c-1.18,1.8-3.53,2.43-5.64,2.03-.84-.16-.1-.82-2.16-.87-.31-.92,1.61-.6,2.48-.59.37,0,.66.3.7.3.79.28,2.28.13,2.89-.29-.07-.17-.36-.53-.29-.57.67-.02,1.35.01,2.02,0Z" fill="#d5a82d"/>
          <path d="M30.65,44.37s.23,0,.28.14c-.07.57-2.67.51-3.31.73l.14-.59c.89,0,1.9-.51,2.89-.29Z" fill="#e7b94a"/>
          <path d="M24.88,50.15c-1.34-.19-1.16-.52-1.36-.57-.68-.16-1.66.1-2.4,0l.29-.57h-3.76c0-.4.69-.35,1.15-.58,2.05-1,1.93-.15,3.3-.28.26-.02.22-.7.64-.85.69-.24,1.66.15,2.13.69-1.34.54-.45.52,0,.88.52.42.07.85,0,1.29Z" fill="#dbae2c"/>
          <path d="M31.81,52.17c-.84-.06-1.65-.21-2.43-.47-.72.27-1.45-.06-2.19-.98-.49.16-2.14.17-1.73-.58,1.73-.04,1.35-.64,2.47-.85,2.08-.4,4.63,1.03,5.04,3.16-.48-.07-.96-.27-1.16-.29Z" fill="#dbae2c"/>
          <path d="M9.56,47.84c-.11-.41-.31-.43-.29-1.16.56-.49,1.15-.45,1.73,0,.89.7,1.93.96,2.02,2.31-.33.04-.56.38-1.23.24-.73-.15-1.54-1.07-2.24-1.4Z" fill="#f8d040"/>
          <path d="M27.19,50.73c.07-.02.65-1.02,1.15-.58.13.11-.64,1.14.15,1.44,1.15-1.1,1.52.13,2.3.01.1-.01.64-1.73,1.01.56-.1-.01-.74.35-1.28.3-1.11-.11-3.18-.33-3.34-1.74Z" fill="#f4ce5d"/>
          <path d="M39.03,53.04c.43-.12,2.47-.05,2.96.07.31.08,1.77,1.04,1.37,1.37-.65.54-1.25-.45-1.44-.58-1.53-1-1.29.58-2.12.25-.47-.18-.73-.62-.77-1.12Z" fill="#ecc352"/>
          <path d="M11.01,46.68c-.58,0-1.16,0-1.73,0,0-.19-.02-.38,0-.58.47-.36,3.56.65,4.05-.58.38-.02.77.03,1.16,0l-.29.58c-1.2.19-1.31.59-3.18.58Z" fill="#d3b14c"/>
          <path d="M15.34,45.53c.76-.06,2.07-.46,3.18-.58-.89.64-2.13.6-3.18.58Z" fill="#d3b14c"/>
          <path d="M39.46,47.26c-.63-.19-.37-1.54-.1-1.69s.83.05,1.2-.05c.24-.06.19-.51.4-.57,1.27-.31,6.5-.01,7.82.47.91.34,1.47,1.12,1.59,1.17.37.16,1.01.02,1.08.08.11.1-.08,2.28.58,2.88-1.01.39-1.43.86-2.59.43-.77-.29-2.67-1.98-3.1-2.1-.58-.16-1.26.02-1.91-.12-.31-.06-.59-.52-.64-.52-.97,0-3.66.2-4.33,0Z" fill="#f2da61"/>
          <path d="M34.12,51.02c1.58.41.99-.71,1.42-1.03.74-.54,2.15-.07,1.47,1.03l1.73.43c-.85.61-4.51,1.01-4.62-.43Z" fill="#dbaf22"/>
          <path d="M54.92,46.97c-1.67-.71-2.97-2.06-4.62-2.6-.06-.33.55-.49.58-.57,1,.29,3.82,1.82,4.21,2.63.17.36-.17.52-.16.55Z" fill="#dfaf20"/>
          <path d="M46.27,52.15c-.68-1.06,1.07-.92,1.87-.86,3.35.26-1.33,1.7-1.87.86Z" fill="#ddaf22"/>
          <path d="M47.99,44.66c-.79-.81,2.37-.83,2.02.29-.4.04-1.83-.09-2.02-.29Z" fill="#dfaf20"/>
        </g>
      </g>
    </g>
  </g>
</svg>