<?xml version="1.0" encoding="UTF-8"?>
<svg id="Layer_2" data-name="Layer 2" xmlns="http://www.w3.org/2000/svg" viewBox="0 0 64.02 95.98">
  <g id="Cards">
    <g id="Cups">
      <g id="SevenOfCups">
        <path d="M0,1.4V0h5.16v1.1c-.43.42-.86,1.02-1.3,1.8s-.78,1.62-1.01,2.5c-.23.88-.34,1.67-.34,2.37h-1.46c.02-1.09.25-2.2.67-3.33.42-1.13.99-2.14,1.7-3.04H0Z" fill="#e03e3e"/>
        <path d="M64.02,94.58v1.4h-5.16v-1.1c.43-.42.86-1.02,1.3-1.8s.78-1.62,1.01-2.5c.23-.88.34-1.67.34-2.37h1.46c-.02,1.09-.25,2.2-.67,3.33-.42,1.13-.99,2.14-1.7,3.04h3.43Z" fill="#e03e3e"/>
        <g>
          <path d="M11.77,3.01c.06-.04.15-.28.31-.38.6-.38,1.85-.4,2.35.15.2.21.28.68.46.79.2.12,1.15.18,1.57.31,1.79.57,3.25,1.81,4.35,3.31.37.51,1.08,1.97,1.36,2.23.6.54,1.37.13,1.48,1.49.19,2.41-1.56,1.3-2.98,1.64-.37,0-.38-.01-.16-.31-.44-.13-.43-.34,0-.47l.21-.28c1.82.56,2.43.25,1.85-.92-1.61-.36-3.25-.64-4.92-.83-.28-.03-.42-.16-.43-.47l.05-.19,2.39.12c.24-.06.11-1.05-.41-1.49-.29.32-.35.26-.31-.16-.46-.07-.42-.35,0-.47.43-.38.93.3,1.18.67.39,1.52,1.7,2.01.32.23-1.22-1.57-2.93-3-4.87-3.51-1.04-.28-.94.59.33.16.55.08,2.11.88,1.8,1.52.01.46.11.82.29,1.06-.32.49-.52.29-.6-.59-.28.06-.53-.13-.75-.56-.51-.05-.68-.23-.5-.54-.93-.22-2.85-.58-4.22-.43l-.15-.2c-1.65-1.21-4.42,1.29-5.48,2.62-.51.64-1.27,2.11-.24.7l.41-.04.21.07c-.2.88.14.95.94.82l.1.21.02.21c-1.3.31-2.64.59-4.03.84-.43,1.11.31,1.4,2.22.85l.23.29c.42.23.16.44-.78.62.34.07.34.55,0,.62-.34-1-.82-.36-1.65-.46-1.23-.15-1.38-2.19-.37-2.73.27-.15.64-.09.89-.29.22-.18,1.17-2,1.61-2.53,1-1.2,2.33-2.09,3.75-2.74.95-.08,1.68-.39,2.19-.94Z" fill="#cf942d"/>
          <path d="M9.42,24.42c.36-.43,1.86-.78,2.31-.39.57,1.93,1.25,2.15,2.25.21.55-.57,2.02-.15,2.63.18.43-.04.46.2.16.47,0,.32-.16.25-.31,0l-.19.32c-1.05-.27-1.8.04-2.27.92,1.07.06,2.14.07,3.21.04l.34.28c0-.41.2-.45.47-.16.15,0,1.07.22,1.18.3.53.36.13,1.14.69,1.42-.09.25-.22.24-.31,0-.6.21-1.22.22-1.84.22-3.1,0-6.2,0-9.29,0-.63,0-1.24-.02-1.84-.22-.35.13-.83.27-1.09,0,1.11-.16.38-.72.66-1.22.1-.18,1.29-.49,1.53-.5.24-.34.36-.24.31.16,1.08-.33,2.24-.44,3.48-.33-.26-.92-.93-1.22-2.03-.9l-.19-.33c-.13-.04-.13-.1,0-.16-.5-.17-.29-.58.16-.31Z" fill="#dd8725"/>
          <path d="M5.51,28.01c.36-.02.73,0,1.09,0,.08.18.06.3-.12.31l-1.76.15c.31.26.17,1.03.08,1.41l.11-.31h16.12l.19.31c-.2-.63-.18-1.1.08-1.41-.61-.07-1.28-.1-1.99-.11-.17-.14.05-.32.27-.36.1,0,.21,0,.31,0,.52.01,1.72-.18,1.96.31.2.41.26,2-.47,2.03l-16.95-.08c-.71-.31-.69-1.99.11-2.23.31-.09.66-.02.98-.03Z" fill="#cf9433"/>
          <path d="M13.8,18.95c.26-.13.4-.17.31.16.39-.23.51.03.16.31.33.08.28.16,0,.31.43.13.18.51.08.27-.05-.12.1-.12.23.04.51.18,1.27-.27,1.71-.62h.32c.23-.23.36-.16.31.15.22-.22.31-.12.16.16-.13.41-.91.96-1.37,1.14-1.39.09-1.26.61-.06,1.06l.18.45c.44,1.45,1.67,1.27,1.87,1.57.22.33-.5.85-.78.93-.05.14-.1.14-.16,0-.11-.14-.11-.31-.16-.47-.85-.38-1.38-.85-1.65-1.77-.12-.17-.6-.26-.58-.24,1.35,1.34-.73,1.5-1.3.3l-.37.11c-.68.58-1.99,1.26-1.67-.18.81-.61.41-.55-.16-.12-.38.8-.82,1.38-1.47,1.9-.21.01-.12.23-.16.31-.17.32-.34.38-.47,0-.18-.05-.66-.49-.62-.69.39-.51.96-.44,1.41-.95.36-.4.48-.84.93-1.34.16-.23.81-.56.94-.31.13-.23.34-.12.63.31.07-.12.18-.23.31-.21,1.29.21,1.54-.1,1.32-1.45-.28-.31-.35-.59-.22-.84-.34-.1-.39-.21-.16-.31.13-.44.36-.45.47,0Z" fill="#cf9433"/>
          <path d="M5.83,12.07c.5.07.4,1.1.08,1.35l.08.53c.36.19.65.94.31,1.25l.41.19c.42.86.89,1.69,1.43,2.49l-.11.44c.29.05.17.54-.16.31-1.55-1.91-2.63-3.25-2.5-5.94,0-.19-.04-.48,0-.62.17-.15.37-.22.47,0Z" fill="#a42f28"/>
          <path d="M20.05,15.98c-.39,1.24-1.45,2.65-2.35,3.59-.27.22-.48.28-.63.16-.06-.04-.1-.12-.16-.16-.24-.17-.13-.41.16-.31l.18-.54c.87-.87,1.58-1.88,2.13-3.02l.35-.03c.23-.3.34-.2.31.31Z" fill="#ae2c28"/>
          <path d="M8.33,18.32c.04.63.3,1.05.78,1.25l.12-.17c.67.36,1.35.57,2.06.64-.46-.4.2-1.08.47-.47.17.08.17.23,0,.47.41.18.52,1.36.31,1.72-.1-.04-.61-.28-.63-.31-.2.05-.27-.08-.19-.4-.61-.37-1.27-.66-1.99-.85-.96-.62-.8-.81-1.41-1.56.19-.02.13-.29.16-.31.05-.14.1-.14.16,0,.04-.14.09-.14.16,0Z" fill="#ca943e"/>
          <path d="M20.52,12.23s.16.14.16.31c-.02.73-.39,2.7-.63,3.44l-.31-.31c-.26,0-.26-.1,0-.31-.46-.24-.29-1.31.16-1.56-.45-.3-.23-1.47.31-1.56,0-.34.21-.33.31,0Z" fill="#a1351f"/>
          <path d="M17.71,19.57c-.28.3-1.77,1.5-1.99,1.56-.25.06-.56-.02-.83,0-.38.29.85.56.91.65.1.15-.02.45.03.6-.19-.39-1.63-.86-1.56-1.17.08-.37,1.25-.49,1.67-.68s.81-.64,1.14-.81c.16-.08.44-.09.63-.16Z" fill="#f9f3db"/>
          <path d="M9.27,24.73s.02.12,0,.16c.37.61-.65,1.42-1.25,1.56-.13,0-.29-.16-.31-.16l1.09-1.56c.12.03.33-.02.47,0Z" fill="#a63c29"/>
          <path d="M16.77,24.89c.05,0,.11.01.16,0l1.09,1.41s-.21.16-.47.16c-.54-.23-1.58-1.02-1.09-1.56.1,0,.22.02.31,0Z" fill="#a73c24"/>
          <path d="M11.45,21.45l-.94.31s-.05-.19.04-.27c.13-.12.66-.06.59-.43-.02-.1-1.47-.6-1.88-.86.47.08,1.92.45,2.11.79.09.16.05.42.08.46Z" fill="#efdbad"/>
          <path d="M11.77,3.01c-.02,1.02-1.44.74-2.19.94.79-.36,1.43-.42,2.19-.94Z" fill="#f3e6c3"/>
          <path d="M13.8,8.95l2.88.15.09.16c.29-.27.45-.27.47,0,1.01.48,4.9.53,5.56,1.08.31.26.34,1.47.08,1.66-.19.14-1.94-.18-2.36-.25-.18.17-.37.18-.59.14-3.98-.62-7.72-1.02-11.76-.45l-.31-.16c-.53-.02-1.05.04-1.56.16-.05.14-.1.14-.16,0-.49.05-2.24.37-2.5.24-.42-.21-.44-1.26-.17-1.58.34-.42,3.55-.56,4.24-.84,1.87-.6,4.16-.61,6.1-.31Z" fill="#f2c92e"/>
          <path d="M11.77,4.89c1.3-.1,1.93.11,3.06.3.39.07.91-.08,1.23,0,.19.04.06.28.09.32l-.25.32-2.18-.48c-.84-.1-1.55-.13-2.18.51-1.35-.04-2.77.17-2.14,1.8l-.13.18c-.45.95,1.71.65,2.52.42,1.49-.04,2.92.1,4.36.36.09-.23.22-.23.31,0,.69.11,1.39.16,2.1.14l.09.17c.17-.31.37-.28.66-.17-.27-.48-.28-.84-.03-1.08.84.37.63.62.63,1.56h-2.66s-.47,0-.47,0c.11-.24.03-.3-.23-.17l-2.74-.15c-2.04.03-4.06.2-6.1.31h-1.25s0-1.09,0-1.09c-.34-.68.98-1.95,1.77-1.68.32-.82,1.09-1.41,1.92-1.66.44-.13,1.44-.38,1.63.06Z" fill="#cc9437"/>
          <path d="M20.52,11.76c.02.15-.03.34,0,.47-.1-.02-.23.03-.31,0l-.49.18c-4.47-1.04-9.18-.84-13.62-.05-.13.02-.23-.15-.27-.29-.16,0-.31,0-.47,0,.15-.53.93-.05.78-.62.05,0,.1,0,.16,0,.51-.12,1.03-.17,1.56-.16,5.2-.56,7.55-.36,12.66.47Z" fill="#e37e26"/>
          <path d="M11.77,4.89c-.22.02-.96.14-1.29.18-.88.12-2.25,1.12-2,2.16-.26.03-.15-.38-.4-.46-.65-.21-1.35,1.02-1.63,1.4-.42.58-.51,1.1-1.41.94.49-1.5,2.13-3.28,3.51-4.07.67-.38,3.3-1.61,3.21-.15Z" fill="#f5c536"/>
          <path d="M17.71,6.14c-.29-.46-1.32-1.13-1.84-1.21-.33-.05-.86.26-1.11.1-.22-.14-.36-.93.36-.92,2.15,0,5.75,3.1,6.34,5.09.12.41-.66.25-.87.09-.48-.37-.35-1.51-1.63-2.2-.18.27-.36.19-.56,0-.44.39-.67.08-.69-.94Z" fill="#f7c537"/>
          <path d="M12.66,2.88c2.11-.65,2.14,2.46,0,1.81-.73-.22-.74-1.59,0-1.81Z" fill="#f3c732"/>
          <path d="M9.42,24.42c-.8-.5-.1-.39.14-.56.79-.57.73-1.22,1.19-1.64.34-.32,1.07-.56,1.18.08-.04.18-.97.51-.62.86s1.21-.96,1.93-.74c.31.09.51,1.08,1.35.74.11-.46-.7-.48-.62-.86.1-.46,1.01-.17,1.26.15.19.23.2.59.39.86.3.43.75.57,1.03.87.15.17-.02.22-.02.23-.61.2-1.8-.27-2.24-.17-.12.03-.97,1.74-1.59,1.74-.2,0-.91-.69-1.02-.86-.16-.26-.27-.99-.31-1.02-.16-.12-1.62.5-2.03.31Z" fill="#f3c731"/>
          <path d="M6.76,27.07c.39-.4.8,0,1.19-.01,3.26-.07,6.86-.39,10.13-.14.63.05,1.03.08.87.78l-12.08.07c-.33-.02-.22-.44-.12-.7Z" fill="#c5cfd4"/>
          <path d="M19.58,28.01c.01.09-.03.29,0,.31.12.09,1.55-.07,1.88,0,.04.11-.16.14-.16.15l-.11.31H4.92l-.19-.31c.5-.37,1.37.07,1.88-.47,4.27-.09,8.71-.07,12.98,0Z" fill="#dd8725"/>
          <path d="M16.46,24.89c.12.64.91.89,1.09,1.56-1.1-.02-2.48.12-3.53,0-.24-.03-.39-.01-.54-.24.18-.14,1.09-1.3,1.2-1.32.49-.1,1.22.03,1.76,0Z" fill="#ec652b"/>
          <path d="M9.27,24.89c.43.08,1.56-.14,1.84.03.08.04.94,1.41.81,1.53-1.3.02-2.61-.02-3.91,0,.4-.55.94-.94,1.25-1.56Z" fill="#eb652b"/>
          <path d="M6.76,27.07c.07.24-.22.6.23.63,3.88.26,8.05-.2,11.96,0l-12.35.16c0-.32-.08-.54.16-.78Z" fill="#cfd0c8"/>
          <path d="M21.3,28.48c0,.16.42,1.41-.08,1.41H4.81c-.32,0-.31-1.19-.08-1.41h16.57Z" fill="#f4c332"/>
          <path d="M12.24,16.76c.93-.33,1.14-.25,1.11.72.05-.35.2-.59.45-.72.28-.25.57-.01.63.31,1.21.83.4,1.48-.63,1.87-.12-.03-.32,0-.47,0-.54.14-1.06.35-1.56.62-.02.02-.16-.04-.27.05-.07.06-.08.3-.2.42-.72-.06-1.42-.29-2.09-.67l-.09.2c-.06-.03-.23.04-.35,0-.45-.19-.5-.8-.43-1.24.11-.39.54-.58,1.31-.57.18-.31.37-.43.57-.37q.47.12,0,0c-.4.05-.31-.34,0-.5.71.07,1.38.01,2.02-.13Z" fill="#d79328"/>
          <path d="M13.8,16.14c.3-.09,1.53-.04,1.85.13.52.28.76.7.85,1.26.68.48,1.27.93.58,1.73,0,.08-.13.21-.16.31-.1-.06-.21-.1-.31-.16l-.2-.07c-.09-.48-.15-.75-.58-1.02-.25,0-.31-.21-.16-.62l-.15-.48c-.31.26-.98.31-1.09-.16-.64-.09-.35-.15-.63-.31-.2.23-.47.16-.82-.22-.06.05-.61.39-.75.22-.07.05-.11.27-.27.31-.48.11-1.22-.11-1.66,0-.19.05-.07.26-.1.32-.61,1.06-.55.42-1.46.63-.03,0-.17.18-.42.31-.04.02-.1-.02-.16,0-.56-.79.45-.93,1.09-.96.3-.89.97-1.18,2.01-.88.35-.3.67-.47.97-.5.47-.76,1.16-.55,1.56.16Z" fill="#e38627"/>
          <path d="M13.49,19.26c.55.56.83,1.19.51,1.99-.43,1.04-1.11.84-1.91.51-.35-.61-.32-1.05-.31-1.72.16-.69,1.11-1.29,1.72-.78Z" fill="#c5cfd4"/>
          <path d="M15.83,18.32c.7-.28.9.54.78,1.09-.1.49-1.11.67-1.44.8-.12.05-.62.89-.59-.17.24-.28,1.15-.78,1.56-.94.1-.04-1.76,1.09-1.88.62-.01-.1.02-.22,0-.31.26-.36,1.15-1.24,1.56-1.09Z" fill="#f5bd38"/>
          <path d="M15.52,17.23c.57.82-.63,1.91-1.41,1.87-.04-.04-.26-.14-.31-.16.58-.44,1.95-1.75.31-.94l.31-.94c.37.05.69-.08,1.09.16Z" fill="#f5bb38"/>
          <path d="M15.83,18.32c-.21.09-1,1.14-1.56,1.09-.01-.06-.12-.28-.16-.31.6-.6,1.54-.78,1.41-1.87.46.27.31.61.31,1.09Z" fill="#d79328"/>
          <path d="M14.27,19.73l1.88-.62c-.28.52-1.03.72-1.56.94-.1.04-.28.2-.31.16-.02-.15.02-.32,0-.47Z" fill="#d79328"/>
          <path d="M13.33,18.95c.06.09.09.25.16.31-.98-.18-1.13.16-1.72.78,0-.16,0-.31,0-.47.69-.58.57-.63,1.56-.62Z" fill="#d4b285"/>
          <path d="M20.21,12.23c-.16.55-.23.99-.31,1.56l-.21.42c-.71.24-.44.8.06,1.14-.02.09.02.23,0,.31-.09.32-1.23,2.15-1.5,2.49-.31.4-.76.8-1.16,1.1.14-1.36-.48-1-.85-1.57-.11-.17-.08-.44-.18-.6-.59-.92-1.02-.5-1.83-.68-.17-.04-.3-.23-.42-.27-.64-.36-.54-.62-.29-1.22,2.08-2.06-1.95-3.58-1.38-.62.86.74.9,1.31.11,1.69-.88,1.52-1.57.38-2.31.81-.11.07-.28.7-.5.83-.39.22-1.2-.14-1.25.7-.05.02-.13-.02-.16,0-.6-1.11-1.3-1.9-1.72-3.12.46-.89.35-1.31-.31-1.25-.34-.48-.08-1.28-.16-1.87.58-.01.78-.25,1.18-.3,3.69-.47,9.72-.63,13.2.46Z" fill="#ee4c28"/>
          <path d="M5.98,13.95c0-.17-.07-.53.08-.62.62.75,1.11.39.68,1.47-.09.24-.11.48-.45.4-.19-.54-.31-.57-.31-1.25Z" fill="#f9ab47"/>
          <path d="M9.11,19.57c-.81-.82-.85-1.55.51-1.38l1.67,1.22c-.58.02-.9-.42-1.48-.47-.32-.03-.46-.07-.39.31l1.88.78c-.4.39-1.7-.27-2.19-.47Z" fill="#f5bf38"/>
          <path d="M19.9,13.79c-.06.46-.06,1.13-.16,1.56-.3.16-.29.28-.52-.03-.62-.87-.17-1.22.67-1.53Z" fill="#fab34a"/>
          <path d="M13.8,8.95c1.07-.02,2.14.01,3.2,0l-.23.31-2.97-.31Z" fill="#cf942d"/>
          <path d="M7.86,11.29c-.49.05-1.05.1-1.56.16.37-.33,1.07-.09,1.56-.16Z" fill="#cf942d"/>
          <path d="M16.14,5.51c.32.39.86.44,1.25,1.09.13.4.22.78.28,1.13.56-.65.99-.72,1.28-.2.02,0,.22.11.31.16l.47,1.41c-.38.09-.76-.13-1.09-.16-.32-.1-.43-.2-.13-.17-.69.02-1.38-.03-2.06-.14-.1,0-.21,0-.31,0-.42-.05-.4-.19,0-.31,1.11-.39.76-2-.44-1.89l-1.95-.61c-1-.14-1.43-.12-2.08.62-1.68-.29-2.24.26-1.68,1.63l-.26.25c-.48.42-1.21-.06-.47-.47-.22-.67-.61-.99.05-1.66.6-.61,1.43-.43,2.15-.59.35-.08.57-.35,1-.41,1.37-.18,2.36.44,3.68.32Z" fill="#cfd0c8"/>
          <path d="M9.27,7.85c.04.11-.05.42,0,.47.03.03.34,0,.47,0,0-.14.06-.24.18-.3h1.36c.71-.56,2.48-.56,3.2.02l1.4-.02.27.3v.31c-2.52-.07-4.91-.16-7.42,0-.33.02-1.89.38-1.96.31-.1-.45.34-1.22.78-1.34.5-.14,1.04.81,1.73.25Z" fill="#d2c9b8"/>
          <path d="M16.46,8.64c.36,0,2.1-.07,2.19,0,.03.02-.02.22,0,.31-.7-.05-1.53.04-2.19-.31Z" fill="#d2c9b8"/>
          <path d="M17.71,6.14c.22.34.18.52.16.94.61-.52.61-.27,1.09,0v.47c-.92-.2-.81.4-1.05.46-.88.23-.41-.75-.52-1.4.13.22.2.34.16.62h.15s0-1.09,0-1.09Z" fill="#e0a032"/>
          <path d="M12.79,23.17c.55-.12.51,1.49.15,1.56-.55.12-.51-1.49-.15-1.56Z" fill="#d89e19"/>
          <path d="M13.8,16.76c.04.58-.26,1.27-.78,1.56v-1.56c-.68,0-.44.79-.47,1.25l-.31-1.25c.2-.13.53-.42.73-.44.28-.03.6.29.84.44Z" fill="#f6c037"/>
          <path d="M10.2,17.39c.25-.52,1.97.02,1.72.94l-.94-.39.63.86c-.37.29-1.48-1.24-1.41-1.4Z" fill="#f4ba38"/>
          <path d="M12.24,15.98c.71-1.22-.24-.88-.43-1.68-.07-.31-.1-.87-.03-1.18.06-.29,1.05-.9,1.45-.86.25.03,1.27,1.05,1.29,1.3.07.97-1.36,1.5-.72,2.58-.58-.21-.85-.5-1.56-.16Z" fill="#e15e20"/>
          <path d="M9.74,8.32c-.09-.44-.26-.99-.22-1.44.09-1.13,1.46-.62,2.14-.76.14-.03.41-.58.54-.61.29-.06,1.23-.06,1.54-.02.26.03,1.57.51,2.03.63.24.06.7-.07.83.03.07.05.08.35.17.49.07.1.28.09.31.22.09.41-.06,1.01,0,1.46-.31,0-.63-.01-.94,0-.48.02-1.53.09-1.92,0-.13-.03-.04-.28-.33-.32-.41-.05-1.65-.05-2.05,0-.29.04-.21.29-.33.32-.34.08-1.36.03-1.77,0Z" fill="#c1d3df"/>
          <path d="M12.96,12.55c.29-.05,1.14.97,1.14,1.32s-.88,1.4-1.16,1.33c-.15-.36-1.03-1.03-1.03-1.33,0-.17.88-1.29,1.04-1.32Z" fill="#f5c433"/>
        </g>
        <g>
          <path d="M47.61,3.01c.06-.04.15-.28.31-.38.6-.38,1.85-.4,2.35.15.2.21.28.68.46.79.2.12,1.15.18,1.57.31,1.79.57,3.25,1.81,4.35,3.31.37.51,1.08,1.97,1.36,2.23.6.54,1.37.13,1.48,1.49.19,2.41-1.56,1.3-2.98,1.64-.37,0-.38-.01-.16-.31-.44-.13-.43-.34,0-.47l.21-.28c1.82.56,2.43.25,1.85-.92-1.61-.36-3.25-.64-4.92-.83-.28-.03-.42-.16-.43-.47l.05-.19,2.39.12c.24-.06.11-1.05-.41-1.49-.29.32-.35.26-.31-.16-.46-.07-.42-.35,0-.47.43-.38.93.3,1.18.67.39,1.52,1.7,2.01.32.23-1.22-1.57-2.93-3-4.87-3.51-1.04-.28-.94.59.33.16.55.08,2.11.88,1.8,1.52.01.46.11.82.29,1.06-.32.49-.52.29-.6-.59-.28.06-.53-.13-.75-.56-.51-.05-.68-.23-.5-.54-.93-.22-2.85-.58-4.22-.43l-.15-.2c-1.65-1.21-4.42,1.29-5.48,2.62-.51.64-1.27,2.11-.24.7l.41-.04.21.07c-.2.88.14.95.94.82l.1.21.02.21c-1.3.31-2.64.59-4.03.84-.43,1.11.31,1.4,2.22.85l.23.29c.42.23.16.44-.78.62.34.07.34.55,0,.62-.34-1-.82-.36-1.65-.46-1.23-.15-1.38-2.19-.37-2.73.27-.15.64-.09.89-.29.22-.18,1.17-2,1.61-2.53,1-1.2,2.33-2.09,3.75-2.74.95-.08,1.68-.39,2.19-.94Z" fill="#cf942d"/>
          <path d="M45.27,24.42c.36-.43,1.86-.78,2.31-.39.57,1.93,1.25,2.15,2.25.21.55-.57,2.02-.15,2.63.18.43-.04.46.2.16.47,0,.32-.16.25-.31,0l-.19.32c-1.05-.27-1.8.04-2.27.92,1.07.06,2.14.07,3.21.04l.34.28c0-.41.2-.45.47-.16.15,0,1.07.22,1.18.3.53.36.13,1.14.69,1.42-.09.25-.22.24-.31,0-.6.21-1.22.22-1.84.22-3.1,0-6.2,0-9.29,0-.63,0-1.24-.02-1.84-.22-.35.13-.83.27-1.09,0,1.11-.16.38-.72.66-1.22.1-.18,1.29-.49,1.53-.5.24-.34.36-.24.31.16,1.08-.33,2.24-.44,3.48-.33-.26-.92-.93-1.22-2.03-.9l-.19-.33c-.13-.04-.13-.1,0-.16-.5-.17-.29-.58.16-.31Z" fill="#dd8725"/>
          <path d="M41.36,28.01c.36-.02.73,0,1.09,0,.08.18.06.3-.12.31l-1.76.15c.31.26.17,1.03.08,1.41l.11-.31h16.12l.19.31c-.2-.63-.18-1.1.08-1.41-.61-.07-1.28-.1-1.99-.11-.17-.14.05-.32.27-.36.1,0,.21,0,.31,0,.52.01,1.72-.18,1.96.31.2.41.26,2-.47,2.03l-16.95-.08c-.71-.31-.69-1.99.11-2.23.31-.09.66-.02.98-.03Z" fill="#cf9433"/>
          <path d="M49.64,18.95c.26-.13.4-.17.31.16.39-.23.51.03.16.31.33.08.28.16,0,.31.43.13.18.51.08.27-.05-.12.1-.12.23.04.51.18,1.27-.27,1.71-.62h.32c.23-.23.36-.16.31.15.22-.22.31-.12.16.16-.13.41-.91.96-1.37,1.14-1.39.09-1.26.61-.06,1.06l.18.45c.44,1.45,1.67,1.27,1.87,1.57.22.33-.5.85-.78.93-.05.14-.1.14-.16,0-.11-.14-.11-.31-.16-.47-.85-.38-1.38-.85-1.65-1.77-.12-.17-.6-.26-.58-.24,1.35,1.34-.73,1.5-1.3.3l-.37.11c-.68.58-1.99,1.26-1.67-.18.81-.61.41-.55-.16-.12-.38.8-.82,1.38-1.47,1.9-.21.01-.12.23-.16.31-.17.32-.34.38-.47,0-.18-.05-.66-.49-.62-.69.39-.51.96-.44,1.41-.95.36-.4.48-.84.93-1.34.16-.23.81-.56.94-.31.13-.23.34-.12.63.31.07-.12.18-.23.31-.21,1.29.21,1.54-.1,1.32-1.45-.28-.31-.35-.59-.22-.84-.34-.1-.39-.21-.16-.31.13-.44.36-.45.47,0Z" fill="#cf9433"/>
          <path d="M41.67,12.07c.5.07.4,1.1.08,1.35l.08.53c.36.19.65.94.31,1.25l.41.19c.42.86.89,1.69,1.43,2.49l-.11.44c.29.05.17.54-.16.31-1.55-1.91-2.63-3.25-2.5-5.94,0-.19-.04-.48,0-.62.17-.15.37-.22.47,0Z" fill="#a42f28"/>
          <path d="M55.9,15.98c-.39,1.24-1.45,2.65-2.35,3.59-.27.22-.48.28-.63.16-.06-.04-.1-.12-.16-.16-.24-.17-.13-.41.16-.31l.18-.54c.87-.87,1.58-1.88,2.13-3.02l.35-.03c.23-.3.34-.2.31.31Z" fill="#ae2c28"/>
          <path d="M44.17,18.32c.04.63.3,1.05.78,1.25l.12-.17c.67.36,1.35.57,2.06.64-.46-.4.2-1.08.47-.47.17.08.17.23,0,.47.41.18.52,1.36.31,1.72-.1-.04-.61-.28-.63-.31-.2.05-.27-.08-.19-.4-.61-.37-1.27-.66-1.99-.85-.96-.62-.8-.81-1.41-1.56.19-.02.13-.29.16-.31.05-.14.1-.14.16,0,.04-.14.09-.14.16,0Z" fill="#ca943e"/>
          <path d="M56.37,12.23s.16.14.16.31c-.02.73-.39,2.7-.63,3.44l-.31-.31c-.26,0-.26-.1,0-.31-.46-.24-.29-1.31.16-1.56-.45-.3-.23-1.47.31-1.56,0-.34.21-.33.31,0Z" fill="#a1351f"/>
          <path d="M53.55,19.57c-.28.3-1.77,1.5-1.99,1.56-.25.06-.56-.02-.83,0-.38.29.85.56.91.65.1.15-.02.45.03.6-.19-.39-1.63-.86-1.56-1.17.08-.37,1.25-.49,1.67-.68s.81-.64,1.14-.81c.16-.08.44-.09.63-.16Z" fill="#f9f3db"/>
          <path d="M45.11,24.73s.02.12,0,.16c.37.61-.65,1.42-1.25,1.56-.13,0-.29-.16-.31-.16l1.09-1.56c.12.03.33-.02.47,0Z" fill="#a63c29"/>
          <path d="M52.61,24.89c.05,0,.11.01.16,0l1.09,1.41s-.21.16-.47.16c-.54-.23-1.58-1.02-1.09-1.56.1,0,.22.02.31,0Z" fill="#a73c24"/>
          <path d="M47.3,21.45l-.94.31s-.05-.19.04-.27c.13-.12.66-.06.59-.43-.02-.1-1.47-.6-1.88-.86.47.08,1.92.45,2.11.79.09.16.05.42.08.46Z" fill="#efdbad"/>
          <path d="M47.61,3.01c-.02,1.02-1.44.74-2.19.94.79-.36,1.43-.42,2.19-.94Z" fill="#f3e6c3"/>
          <path d="M49.64,8.95l2.88.15.09.16c.29-.27.45-.27.47,0,1.01.48,4.9.53,5.56,1.08.31.26.34,1.47.08,1.66-.19.14-1.94-.18-2.36-.25-.18.17-.37.18-.59.14-3.98-.62-7.72-1.02-11.76-.45l-.31-.16c-.53-.02-1.05.04-1.56.16-.05.14-.1.14-.16,0-.49.05-2.24.37-2.5.24-.42-.21-.44-1.26-.17-1.58.34-.42,3.55-.56,4.24-.84,1.87-.6,4.16-.61,6.1-.31Z" fill="#f2c92e"/>
          <path d="M47.61,4.89c1.3-.1,1.93.11,3.06.3.39.07.91-.08,1.23,0,.19.04.06.28.09.32l-.25.32-2.18-.48c-.84-.1-1.55-.13-2.18.51-1.35-.04-2.77.17-2.14,1.8l-.13.18c-.45.95,1.71.65,2.52.42,1.49-.04,2.92.1,4.36.36.09-.23.22-.23.31,0,.69.11,1.39.16,2.1.14l.09.17c.17-.31.37-.28.66-.17-.27-.48-.28-.84-.03-1.08.84.37.63.62.63,1.56h-2.66s-.47,0-.47,0c.11-.24.03-.3-.23-.17l-2.74-.15c-2.04.03-4.06.2-6.1.31h-1.25s0-1.09,0-1.09c-.34-.68.98-1.95,1.77-1.68.32-.82,1.09-1.41,1.92-1.66.44-.13,1.44-.38,1.63.06Z" fill="#cc9437"/>
          <path d="M56.37,11.76c.02.15-.03.34,0,.47-.1-.02-.23.03-.31,0l-.49.18c-4.47-1.04-9.18-.84-13.62-.05-.13.02-.23-.15-.27-.29-.16,0-.31,0-.47,0,.15-.53.93-.05.78-.62.05,0,.1,0,.16,0,.51-.12,1.03-.17,1.56-.16,5.2-.56,7.55-.36,12.66.47Z" fill="#e37e26"/>
          <path d="M47.61,4.89c-.22.02-.96.14-1.29.18-.88.12-2.25,1.12-2,2.16-.26.03-.15-.38-.4-.46-.65-.21-1.35,1.02-1.63,1.4-.42.58-.51,1.1-1.41.94.49-1.5,2.13-3.28,3.51-4.07.67-.38,3.3-1.61,3.21-.15Z" fill="#f5c536"/>
          <path d="M53.55,6.14c-.29-.46-1.32-1.13-1.84-1.21-.33-.05-.86.26-1.11.1-.22-.14-.36-.93.36-.92,2.15,0,5.75,3.1,6.34,5.09.12.41-.66.25-.87.09-.48-.37-.35-1.51-1.63-2.2-.18.27-.36.19-.56,0-.44.39-.67.08-.69-.94Z" fill="#f7c537"/>
          <path d="M48.5,2.88c2.11-.65,2.14,2.46,0,1.81-.73-.22-.74-1.59,0-1.81Z" fill="#f3c732"/>
          <path d="M45.27,24.42c-.8-.5-.1-.39.14-.56.79-.57.73-1.22,1.19-1.64.34-.32,1.07-.56,1.18.08-.04.18-.97.51-.62.86s1.21-.96,1.93-.74c.31.09.51,1.08,1.35.74.11-.46-.7-.48-.62-.86.1-.46,1.01-.17,1.26.15.19.23.2.59.39.86.3.43.75.57,1.03.87.15.17-.02.22-.02.23-.61.2-1.8-.27-2.24-.17-.12.03-.97,1.74-1.59,1.74-.2,0-.91-.69-1.02-.86-.16-.26-.27-.99-.31-1.02-.16-.12-1.62.5-2.03.31Z" fill="#f3c731"/>
          <path d="M42.61,27.07c.39-.4.8,0,1.19-.01,3.26-.07,6.86-.39,10.13-.14.63.05,1.03.08.87.78l-12.08.07c-.33-.02-.22-.44-.12-.7Z" fill="#c5cfd4"/>
          <path d="M55.43,28.01c.01.09-.03.29,0,.31.12.09,1.55-.07,1.88,0,.04.11-.16.14-.16.15l-.11.31h-16.28l-.19-.31c.5-.37,1.37.07,1.88-.47,4.27-.09,8.71-.07,12.98,0Z" fill="#dd8725"/>
          <path d="M52.3,24.89c.12.64.91.89,1.09,1.56-1.1-.02-2.48.12-3.53,0-.24-.03-.39-.01-.54-.24.18-.14,1.09-1.3,1.2-1.32.49-.1,1.22.03,1.76,0Z" fill="#ec652b"/>
          <path d="M45.11,24.89c.43.08,1.56-.14,1.84.03.08.04.94,1.41.81,1.53-1.3.02-2.61-.02-3.91,0,.4-.55.94-.94,1.25-1.56Z" fill="#eb652b"/>
          <path d="M42.61,27.07c.07.24-.22.6.23.63,3.88.26,8.05-.2,11.96,0l-12.35.16c0-.32-.08-.54.16-.78Z" fill="#cfd0c8"/>
          <path d="M57.15,28.48c0,.16.42,1.41-.08,1.41h-16.42c-.32,0-.31-1.19-.08-1.41h16.57Z" fill="#f4c332"/>
          <path d="M48.08,16.76c.93-.33,1.14-.25,1.11.72.05-.35.2-.59.45-.72.28-.25.57-.01.63.31,1.21.83.4,1.48-.63,1.87-.12-.03-.32,0-.47,0-.54.14-1.06.35-1.56.62-.02.02-.16-.04-.27.05-.07.06-.08.3-.2.42-.72-.06-1.42-.29-2.09-.67l-.09.2c-.06-.03-.23.04-.35,0-.45-.19-.5-.8-.43-1.24.11-.39.54-.58,1.31-.57.18-.31.37-.43.57-.37q.47.12,0,0c-.4.05-.31-.34,0-.5.71.07,1.38.01,2.02-.13Z" fill="#d79328"/>
          <path d="M49.64,16.14c.3-.09,1.53-.04,1.85.13.52.28.76.7.85,1.26.68.48,1.27.93.58,1.73,0,.08-.13.21-.16.31-.1-.06-.21-.1-.31-.16l-.2-.07c-.09-.48-.15-.75-.58-1.02-.25,0-.31-.21-.16-.62l-.15-.48c-.31.26-.98.31-1.09-.16-.64-.09-.35-.15-.63-.31-.2.23-.47.16-.82-.22-.06.05-.61.39-.75.22-.07.05-.11.27-.27.31-.48.11-1.22-.11-1.66,0-.19.05-.07.26-.1.32-.61,1.06-.55.42-1.46.63-.03,0-.17.18-.42.31-.04.02-.1-.02-.16,0-.56-.79.45-.93,1.09-.96.3-.89.97-1.18,2.01-.88.35-.3.67-.47.97-.5.47-.76,1.16-.55,1.56.16Z" fill="#e38627"/>
          <path d="M49.33,19.26c.55.56.83,1.19.51,1.99-.43,1.04-1.11.84-1.91.51-.35-.61-.32-1.05-.31-1.72.16-.69,1.11-1.29,1.72-.78Z" fill="#c5cfd4"/>
          <path d="M51.68,18.32c.7-.28.9.54.78,1.09-.1.49-1.11.67-1.44.8-.12.05-.62.89-.59-.17.24-.28,1.15-.78,1.56-.94.1-.04-1.76,1.09-1.88.62-.01-.1.02-.22,0-.31.26-.36,1.15-1.24,1.56-1.09Z" fill="#f5bd38"/>
          <path d="M51.36,17.23c.57.82-.63,1.91-1.41,1.87-.04-.04-.26-.14-.31-.16.58-.44,1.95-1.75.31-.94l.31-.94c.37.05.69-.08,1.09.16Z" fill="#f5bb38"/>
          <path d="M51.68,18.32c-.21.09-1,1.14-1.56,1.09-.01-.06-.12-.28-.16-.31.6-.6,1.54-.78,1.41-1.87.46.27.31.61.31,1.09Z" fill="#d79328"/>
          <path d="M50.11,19.73l1.88-.62c-.28.52-1.03.72-1.56.94-.1.04-.28.2-.31.16-.02-.15.02-.32,0-.47Z" fill="#d79328"/>
          <path d="M49.17,18.95c.06.09.09.25.16.31-.98-.18-1.13.16-1.72.78,0-.16,0-.31,0-.47.69-.58.57-.63,1.56-.62Z" fill="#d4b285"/>
          <path d="M56.05,12.23c-.16.55-.23.99-.31,1.56l-.21.42c-.71.24-.44.8.06,1.14-.02.09.02.23,0,.31-.09.32-1.23,2.15-1.5,2.49-.31.4-.76.8-1.16,1.1.14-1.36-.48-1-.85-1.57-.11-.17-.08-.44-.18-.6-.59-.92-1.02-.5-1.83-.68-.17-.04-.3-.23-.42-.27-.64-.36-.54-.62-.29-1.22,2.08-2.06-1.95-3.58-1.38-.62.86.74.9,1.31.11,1.69-.88,1.52-1.57.38-2.31.81-.11.07-.28.7-.5.83-.39.22-1.2-.14-1.25.7-.05.02-.13-.02-.16,0-.6-1.11-1.3-1.9-1.72-3.12.46-.89.35-1.31-.31-1.25-.34-.48-.08-1.28-.16-1.87.58-.01.78-.25,1.18-.3,3.69-.47,9.72-.63,13.2.46Z" fill="#ee4c28"/>
          <path d="M41.83,13.95c0-.17-.07-.53.08-.62.62.75,1.11.39.68,1.47-.09.24-.11.48-.45.4-.19-.54-.31-.57-.31-1.25Z" fill="#f9ab47"/>
          <path d="M44.95,19.57c-.81-.82-.85-1.55.51-1.38l1.67,1.22c-.58.02-.9-.42-1.48-.47-.32-.03-.46-.07-.39.31l1.88.78c-.4.39-1.7-.27-2.19-.47Z" fill="#f5bf38"/>
          <path d="M55.74,13.79c-.06.46-.06,1.13-.16,1.56-.3.16-.29.28-.52-.03-.62-.87-.17-1.22.67-1.53Z" fill="#fab34a"/>
          <path d="M49.64,8.95c1.07-.02,2.14.01,3.2,0l-.23.31-2.97-.31Z" fill="#cf942d"/>
          <path d="M43.7,11.29c-.49.05-1.05.1-1.56.16.37-.33,1.07-.09,1.56-.16Z" fill="#cf942d"/>
          <path d="M51.99,5.51c.32.39.86.44,1.25,1.09.13.4.22.78.28,1.13.56-.65.99-.72,1.28-.2.02,0,.22.11.31.16l.47,1.41c-.38.09-.76-.13-1.09-.16-.32-.1-.43-.2-.13-.17-.69.02-1.38-.03-2.06-.14-.1,0-.21,0-.31,0-.42-.05-.4-.19,0-.31,1.11-.39.76-2-.44-1.89l-1.95-.61c-1-.14-1.43-.12-2.08.62-1.68-.29-2.24.26-1.68,1.63l-.26.25c-.48.42-1.21-.06-.47-.47-.22-.67-.61-.99.05-1.66.6-.61,1.43-.43,2.15-.59.35-.08.57-.35,1-.41,1.37-.18,2.36.44,3.68.32Z" fill="#cfd0c8"/>
          <path d="M45.11,7.85c.04.11-.05.42,0,.47.03.03.34,0,.47,0,0-.14.06-.24.18-.3h1.36c.71-.56,2.48-.56,3.2.02l1.4-.02.27.3v.31c-2.52-.07-4.91-.16-7.42,0-.33.02-1.89.38-1.96.31-.1-.45.34-1.22.78-1.34.5-.14,1.04.81,1.73.25Z" fill="#d2c9b8"/>
          <path d="M52.3,8.64c.36,0,2.1-.07,2.19,0,.03.02-.02.22,0,.31-.7-.05-1.53.04-2.19-.31Z" fill="#d2c9b8"/>
          <path d="M53.55,6.14c.22.34.18.52.16.94.61-.52.61-.27,1.09,0v.47c-.92-.2-.81.4-1.05.46-.88.23-.41-.75-.52-1.4.13.22.2.34.16.62h.15s0-1.09,0-1.09Z" fill="#e0a032"/>
          <path d="M48.63,23.17c.55-.12.51,1.49.15,1.56-.55.12-.51-1.49-.15-1.56Z" fill="#d89e19"/>
          <path d="M49.64,16.76c.04.58-.26,1.27-.78,1.56v-1.56c-.68,0-.44.79-.47,1.25l-.31-1.25c.2-.13.53-.42.73-.44.28-.03.6.29.84.44Z" fill="#f6c037"/>
          <path d="M46.05,17.39c.25-.52,1.97.02,1.72.94l-.94-.39.63.86c-.37.29-1.48-1.24-1.41-1.4Z" fill="#f4ba38"/>
          <path d="M48.08,15.98c.71-1.22-.24-.88-.43-1.68-.07-.31-.1-.87-.03-1.18.06-.29,1.05-.9,1.45-.86.25.03,1.27,1.05,1.29,1.3.07.97-1.36,1.5-.72,2.58-.58-.21-.85-.5-1.56-.16Z" fill="#e15e20"/>
          <path d="M45.58,8.32c-.09-.44-.26-.99-.22-1.44.09-1.13,1.46-.62,2.14-.76.14-.03.41-.58.54-.61.29-.06,1.23-.06,1.54-.02.26.03,1.57.51,2.03.63.24.06.7-.07.83.03.07.05.08.35.17.49.07.1.28.09.31.22.09.41-.06,1.01,0,1.46-.31,0-.63-.01-.94,0-.48.02-1.53.09-1.92,0-.13-.03-.04-.28-.33-.32-.41-.05-1.65-.05-2.05,0-.29.04-.21.29-.33.32-.34.08-1.36.03-1.77,0Z" fill="#c1d3df"/>
          <path d="M48.81,12.55c.29-.05,1.14.97,1.14,1.32s-.88,1.4-1.16,1.33c-.15-.36-1.03-1.03-1.03-1.33,0-.17.88-1.29,1.04-1.32Z" fill="#f5c433"/>
        </g>
        <g>
          <path d="M11.77,67.78c.06-.04.15-.28.31-.38.6-.38,1.85-.4,2.35.15.2.21.28.68.46.79.2.12,1.15.18,1.57.31,1.79.57,3.25,1.81,4.35,3.31.37.51,1.08,1.97,1.36,2.23.6.54,1.37.13,1.48,1.49.19,2.41-1.56,1.3-2.98,1.64-.37,0-.38-.01-.16-.31-.44-.13-.43-.34,0-.47l.21-.28c1.82.56,2.43.25,1.85-.92-1.61-.36-3.25-.64-4.92-.83-.28-.03-.42-.16-.43-.47l.05-.19,2.39.12c.24-.06.11-1.05-.41-1.49-.29.32-.35.26-.31-.16-.46-.07-.42-.35,0-.47.43-.38.93.3,1.18.67.39,1.52,1.7,2.01.32.23-1.22-1.57-2.93-3-4.87-3.51-1.04-.28-.94.59.33.16.55.08,2.11.88,1.8,1.52.01.46.11.82.29,1.06-.32.49-.52.29-.6-.59-.28.06-.53-.13-.75-.56-.51-.05-.68-.23-.5-.54-.93-.22-2.85-.58-4.22-.43l-.15-.2c-1.65-1.21-4.42,1.29-5.48,2.62-.51.64-1.27,2.11-.24.7l.41-.04.21.07c-.2.88.14.95.94.82l.1.21.02.21c-1.3.31-2.64.59-4.03.84-.43,1.11.31,1.4,2.22.85l.23.29c.42.23.16.44-.78.62.34.07.34.55,0,.62-.34-1-.82-.36-1.65-.46-1.23-.15-1.38-2.19-.37-2.73.27-.15.64-.09.89-.29.22-.18,1.17-2,1.61-2.53,1-1.2,2.33-2.09,3.75-2.74.95-.08,1.68-.39,2.19-.94Z" fill="#cf942d"/>
          <path d="M9.42,89.19c.36-.43,1.86-.78,2.31-.39.57,1.93,1.25,2.15,2.25.21.55-.57,2.02-.15,2.63.18.43-.04.46.2.16.47,0,.32-.16.25-.31,0l-.19.32c-1.05-.27-1.8.04-2.27.92,1.07.06,2.14.07,3.21.04l.34.28c0-.41.2-.45.47-.16.15,0,1.07.22,1.18.3.53.36.13,1.14.69,1.42-.09.25-.22.24-.31,0-.6.21-1.22.22-1.84.22-3.1,0-6.2,0-9.29,0-.63,0-1.24-.02-1.84-.22-.35.13-.83.27-1.09,0,1.11-.16.38-.72.66-1.22.1-.18,1.29-.49,1.53-.5.24-.34.36-.24.31.16,1.08-.33,2.24-.44,3.48-.33-.26-.92-.93-1.22-2.03-.9l-.19-.33c-.13-.04-.13-.1,0-.16-.5-.17-.29-.58.16-.31Z" fill="#dd8725"/>
          <path d="M5.51,92.78c.36-.02.73,0,1.09,0,.08.18.06.3-.12.31l-1.76.15c.31.26.17,1.03.08,1.41l.11-.31h16.12l.19.31c-.2-.63-.18-1.1.08-1.41-.61-.07-1.28-.1-1.99-.11-.17-.14.05-.32.27-.36.1,0,.21,0,.31,0,.52.01,1.72-.18,1.96.31.2.41.26,2-.47,2.03l-16.95-.08c-.71-.31-.69-1.99.11-2.23.31-.09.66-.02.98-.03Z" fill="#cf9433"/>
          <path d="M13.8,83.72c.26-.13.4-.17.31.16.39-.23.51.03.16.31.33.08.28.16,0,.31.43.13.18.51.08.27-.05-.12.1-.12.23.04.51.18,1.27-.27,1.71-.62h.32c.23-.23.36-.16.31.15.22-.22.31-.12.16.16-.13.41-.91.96-1.37,1.14-1.39.09-1.26.61-.06,1.06l.18.45c.44,1.45,1.67,1.27,1.87,1.57.22.33-.5.85-.78.93-.05.14-.1.14-.16,0-.11-.14-.11-.31-.16-.47-.85-.38-1.38-.85-1.65-1.77-.12-.17-.6-.26-.58-.24,1.35,1.34-.73,1.5-1.3.3l-.37.11c-.68.58-1.99,1.26-1.67-.18.81-.61.41-.55-.16-.12-.38.8-.82,1.38-1.47,1.9-.21.01-.12.23-.16.31-.17.32-.34.38-.47,0-.18-.05-.66-.49-.62-.69.39-.51.96-.44,1.41-.95.36-.4.48-.84.93-1.34.16-.23.81-.56.94-.31.13-.23.34-.12.63.31.07-.12.18-.23.31-.21,1.29.21,1.54-.1,1.32-1.45-.28-.31-.35-.59-.22-.84-.34-.1-.39-.21-.16-.31.13-.44.36-.45.47,0Z" fill="#cf9433"/>
          <path d="M5.83,76.84c.5.07.4,1.1.08,1.35l.08.53c.36.19.65.94.31,1.25l.41.19c.42.86.89,1.69,1.43,2.49l-.11.44c.29.05.17.54-.16.31-1.55-1.91-2.63-3.25-2.5-5.94,0-.19-.04-.48,0-.62.17-.15.37-.22.47,0Z" fill="#a42f28"/>
          <path d="M20.05,80.75c-.39,1.24-1.45,2.65-2.35,3.59-.27.22-.48.28-.63.16-.06-.04-.1-.12-.16-.16-.24-.17-.13-.41.16-.31l.18-.54c.87-.87,1.58-1.88,2.13-3.02l.35-.03c.23-.3.34-.2.31.31Z" fill="#ae2c28"/>
          <path d="M8.33,83.09c.04.63.3,1.05.78,1.25l.12-.17c.67.36,1.35.57,2.06.64-.46-.4.2-1.08.47-.47.17.08.17.23,0,.47.41.18.52,1.36.31,1.72-.1-.04-.61-.28-.63-.31-.2.05-.27-.08-.19-.4-.61-.37-1.27-.66-1.99-.85-.96-.62-.8-.81-1.41-1.56.19-.02.13-.29.16-.31.05-.14.1-.14.16,0,.04-.14.09-.14.16,0Z" fill="#ca943e"/>
          <path d="M20.52,77s.16.14.16.31c-.02.73-.39,2.7-.63,3.44l-.31-.31c-.26,0-.26-.1,0-.31-.46-.24-.29-1.31.16-1.56-.45-.3-.23-1.47.31-1.56,0-.34.21-.33.31,0Z" fill="#a1351f"/>
          <path d="M17.71,84.34c-.28.3-1.77,1.5-1.99,1.56-.25.06-.56-.02-.83,0-.38.29.85.56.91.65.1.15-.02.45.03.6-.19-.39-1.63-.86-1.56-1.17.08-.37,1.25-.49,1.67-.68s.81-.64,1.14-.81c.16-.08.44-.09.63-.16Z" fill="#f9f3db"/>
          <path d="M9.27,89.5s.02.12,0,.16c.37.61-.65,1.42-1.25,1.56-.13,0-.29-.16-.31-.16l1.09-1.56c.12.03.33-.02.47,0Z" fill="#a63c29"/>
          <path d="M16.77,89.66c.05,0,.11.01.16,0l1.09,1.41s-.21.16-.47.16c-.54-.23-1.58-1.02-1.09-1.56.1,0,.22.02.31,0Z" fill="#a73c24"/>
          <path d="M11.45,86.22l-.94.31s-.05-.19.04-.27c.13-.12.66-.06.59-.43-.02-.1-1.47-.6-1.88-.86.47.08,1.92.45,2.11.79.09.16.05.42.08.46Z" fill="#efdbad"/>
          <path d="M11.77,67.78c-.02,1.02-1.44.74-2.19.94.79-.36,1.43-.42,2.19-.94Z" fill="#f3e6c3"/>
          <path d="M13.8,73.72l2.88.15.09.16c.29-.27.45-.27.47,0,1.01.48,4.9.53,5.56,1.08.31.26.34,1.47.08,1.66-.19.14-1.94-.18-2.36-.25-.18.17-.37.18-.59.14-3.98-.62-7.72-1.02-11.76-.45l-.31-.16c-.53-.02-1.05.04-1.56.16-.05.14-.1.14-.16,0-.49.05-2.24.37-2.5.24-.42-.21-.44-1.26-.17-1.58.34-.42,3.55-.56,4.24-.84,1.87-.6,4.16-.61,6.1-.31Z" fill="#f2c92e"/>
          <path d="M11.77,69.66c1.3-.1,1.93.11,3.06.3.39.07.91-.08,1.23,0,.19.04.06.28.09.32l-.25.32-2.18-.48c-.84-.1-1.55-.13-2.18.51-1.35-.04-2.77.17-2.14,1.8l-.13.18c-.45.95,1.71.65,2.52.42,1.49-.04,2.92.1,4.36.36.09-.23.22-.23.31,0,.69.11,1.39.16,2.1.14l.09.17c.17-.31.37-.28.66-.17-.27-.48-.28-.84-.03-1.08.84.37.63.62.63,1.56h-2.66s-.47,0-.47,0c.11-.24.03-.3-.23-.17l-2.74-.15c-2.04.03-4.06.2-6.1.31h-1.25s0-1.09,0-1.09c-.34-.68.98-1.95,1.77-1.68.32-.82,1.09-1.41,1.92-1.66.44-.13,1.44-.38,1.63.06Z" fill="#cc9437"/>
          <path d="M20.52,76.53c.02.15-.03.34,0,.47-.1-.02-.23.03-.31,0l-.49.18c-4.47-1.04-9.18-.84-13.62-.05-.13.02-.23-.15-.27-.29-.16,0-.31,0-.47,0,.15-.53.93-.05.78-.62.05,0,.1,0,.16,0,.51-.12,1.03-.17,1.56-.16,5.2-.56,7.55-.36,12.66.47Z" fill="#e37e26"/>
          <path d="M11.77,69.66c-.22.02-.96.14-1.29.18-.88.12-2.25,1.12-2,2.16-.26.03-.15-.38-.4-.46-.65-.21-1.35,1.02-1.63,1.4-.42.58-.51,1.1-1.41.94.49-1.5,2.13-3.28,3.51-4.07.67-.38,3.3-1.61,3.21-.15Z" fill="#f5c536"/>
          <path d="M17.71,70.91c-.29-.46-1.32-1.13-1.84-1.21-.33-.05-.86.26-1.11.1-.22-.14-.36-.93.36-.92,2.15,0,5.75,3.1,6.34,5.09.12.41-.66.25-.87.09-.48-.37-.35-1.51-1.63-2.2-.18.27-.36.19-.56,0-.44.39-.67.08-.69-.94Z" fill="#f7c537"/>
          <path d="M12.66,67.65c2.11-.65,2.14,2.46,0,1.81-.73-.22-.74-1.59,0-1.81Z" fill="#f3c732"/>
          <path d="M9.42,89.19c-.8-.5-.1-.39.14-.56.79-.57.73-1.22,1.19-1.64.34-.32,1.07-.56,1.18.08-.04.18-.97.51-.62.86s1.21-.96,1.93-.74c.31.09.51,1.08,1.35.74.11-.46-.7-.48-.62-.86.1-.46,1.01-.17,1.26.15.19.23.2.59.39.86.3.43.75.57,1.03.87.15.17-.02.22-.02.23-.61.2-1.8-.27-2.24-.17-.12.03-.97,1.74-1.59,1.74-.2,0-.91-.69-1.02-.86-.16-.26-.27-.99-.31-1.02-.16-.12-1.62.5-2.03.31Z" fill="#f3c731"/>
          <path d="M6.76,91.84c.39-.4.8,0,1.19-.01,3.26-.07,6.86-.39,10.13-.14.63.05,1.03.08.87.78l-12.08.07c-.33-.02-.22-.44-.12-.7Z" fill="#c5cfd4"/>
          <path d="M19.58,92.78c.01.09-.03.29,0,.31.12.09,1.55-.07,1.88,0,.04.11-.16.14-.16.15l-.11.31H4.92l-.19-.31c.5-.37,1.37.07,1.88-.47,4.27-.09,8.71-.07,12.98,0Z" fill="#dd8725"/>
          <path d="M16.46,89.66c.12.64.91.89,1.09,1.56-1.1-.02-2.48.12-3.53,0-.24-.03-.39-.01-.54-.24.18-.14,1.09-1.3,1.2-1.32.49-.1,1.22.03,1.76,0Z" fill="#ec652b"/>
          <path d="M9.27,89.66c.43.08,1.56-.14,1.84.03.08.04.94,1.41.81,1.53-1.3.02-2.61-.02-3.91,0,.4-.55.94-.94,1.25-1.56Z" fill="#eb652b"/>
          <path d="M6.76,91.84c.07.24-.22.6.23.63,3.88.26,8.05-.2,11.96,0l-12.35.16c0-.32-.08-.54.16-.78Z" fill="#cfd0c8"/>
          <path d="M21.3,93.25c0,.16.42,1.41-.08,1.41H4.81c-.32,0-.31-1.19-.08-1.41h16.57Z" fill="#f4c332"/>
          <path d="M12.24,81.53c.93-.33,1.14-.25,1.11.72.05-.35.2-.59.45-.72.28-.25.57-.01.63.31,1.21.83.4,1.48-.63,1.87-.12-.03-.32,0-.47,0-.54.14-1.06.35-1.56.62-.02.02-.16-.04-.27.05-.07.06-.08.3-.2.42-.72-.06-1.42-.29-2.09-.67l-.09.2c-.06-.03-.23.04-.35,0-.45-.19-.5-.8-.43-1.24.11-.39.54-.58,1.31-.57.18-.31.37-.43.57-.37q.47.12,0,0c-.4.05-.31-.34,0-.5.71.07,1.38.01,2.02-.13Z" fill="#d79328"/>
          <path d="M13.8,80.91c.3-.09,1.53-.04,1.85.13.52.28.76.7.85,1.26.68.48,1.27.93.58,1.73,0,.08-.13.21-.16.31-.1-.06-.21-.1-.31-.16l-.2-.07c-.09-.48-.15-.75-.58-1.02-.25,0-.31-.21-.16-.62l-.15-.48c-.31.26-.98.31-1.09-.16-.64-.09-.35-.15-.63-.31-.2.23-.47.16-.82-.22-.06.05-.61.39-.75.22-.07.05-.11.27-.27.31-.48.11-1.22-.11-1.66,0-.19.05-.07.26-.1.32-.61,1.06-.55.42-1.46.63-.03,0-.17.18-.42.31-.04.02-.1-.02-.16,0-.56-.79.45-.93,1.09-.96.3-.89.97-1.18,2.01-.88.35-.3.67-.47.97-.5.47-.76,1.16-.55,1.56.16Z" fill="#e38627"/>
          <path d="M13.49,84.03c.55.56.83,1.19.51,1.99-.43,1.04-1.11.84-1.91.51-.35-.61-.32-1.05-.31-1.72.16-.69,1.11-1.29,1.72-.78Z" fill="#c5cfd4"/>
          <path d="M15.83,83.09c.7-.28.9.54.78,1.09-.1.49-1.11.67-1.44.8-.12.05-.62.89-.59-.17.24-.28,1.15-.78,1.56-.94.1-.04-1.76,1.09-1.88.62-.01-.1.02-.22,0-.31.26-.36,1.15-1.24,1.56-1.09Z" fill="#f5bd38"/>
          <path d="M15.52,82c.57.82-.63,1.91-1.41,1.87-.04-.04-.26-.14-.31-.16.58-.44,1.95-1.75.31-.94l.31-.94c.37.05.69-.08,1.09.16Z" fill="#f5bb38"/>
          <path d="M15.83,83.09c-.21.09-1,1.14-1.56,1.09-.01-.06-.12-.28-.16-.31.6-.6,1.54-.78,1.41-1.87.46.27.31.61.31,1.09Z" fill="#d79328"/>
          <path d="M14.27,84.5l1.88-.62c-.28.52-1.03.72-1.56.94-.1.04-.28.2-.31.16-.02-.15.02-.32,0-.47Z" fill="#d79328"/>
          <path d="M13.33,83.72c.06.09.09.25.16.31-.98-.18-1.13.16-1.72.78,0-.16,0-.31,0-.47.69-.58.57-.63,1.56-.62Z" fill="#d4b285"/>
          <path d="M20.21,77c-.16.55-.23.99-.31,1.56l-.21.42c-.71.24-.44.8.06,1.14-.02.09.02.23,0,.31-.09.32-1.23,2.15-1.5,2.49-.31.4-.76.8-1.16,1.1.14-1.36-.48-1-.85-1.57-.11-.17-.08-.44-.18-.6-.59-.92-1.02-.5-1.83-.68-.17-.04-.3-.23-.42-.27-.64-.36-.54-.62-.29-1.22,2.08-2.06-1.95-3.58-1.38-.62.86.74.9,1.31.11,1.69-.88,1.52-1.57.38-2.31.81-.11.07-.28.7-.5.83-.39.22-1.2-.14-1.25.7-.05.02-.13-.02-.16,0-.6-1.11-1.3-1.9-1.72-3.12.46-.89.35-1.31-.31-1.25-.34-.48-.08-1.28-.16-1.87.58-.01.78-.25,1.18-.3,3.69-.47,9.72-.63,13.2.46Z" fill="#ee4c28"/>
          <path d="M5.98,78.72c0-.17-.07-.53.08-.62.62.75,1.11.39.68,1.47-.09.24-.11.48-.45.4-.19-.54-.31-.57-.31-1.25Z" fill="#f9ab47"/>
          <path d="M9.11,84.34c-.81-.82-.85-1.55.51-1.38l1.67,1.22c-.58.02-.9-.42-1.48-.47-.32-.03-.46-.07-.39.31l1.88.78c-.4.39-1.7-.27-2.19-.47Z" fill="#f5bf38"/>
          <path d="M19.9,78.56c-.06.46-.06,1.13-.16,1.56-.3.16-.29.28-.52-.03-.62-.87-.17-1.22.67-1.53Z" fill="#fab34a"/>
          <path d="M13.8,73.72c1.07-.02,2.14.01,3.2,0l-.23.31-2.97-.31Z" fill="#cf942d"/>
          <path d="M7.86,76.06c-.49.05-1.05.1-1.56.16.37-.33,1.07-.09,1.56-.16Z" fill="#cf942d"/>
          <path d="M16.14,70.28c.32.39.86.44,1.25,1.09.13.4.22.78.28,1.13.56-.65.99-.72,1.28-.2.02,0,.22.11.31.16l.47,1.41c-.38.09-.76-.13-1.09-.16-.32-.1-.43-.2-.13-.17-.69.02-1.38-.03-2.06-.14-.1,0-.21,0-.31,0-.42-.05-.4-.19,0-.31,1.11-.39.76-2-.44-1.89l-1.95-.61c-1-.14-1.43-.12-2.08.62-1.68-.29-2.24.26-1.68,1.63l-.26.25c-.48.42-1.21-.06-.47-.47-.22-.67-.61-.99.05-1.66.6-.61,1.43-.43,2.15-.59.35-.08.57-.35,1-.41,1.37-.18,2.36.44,3.68.32Z" fill="#cfd0c8"/>
          <path d="M9.27,72.62c.04.11-.05.42,0,.47.03.03.34,0,.47,0,0-.14.06-.24.18-.3h1.36c.71-.56,2.48-.56,3.2.02l1.4-.02.27.3v.31c-2.52-.07-4.91-.16-7.42,0-.33.02-1.89.38-1.96.31-.1-.45.34-1.22.78-1.34.5-.14,1.04.81,1.73.25Z" fill="#d2c9b8"/>
          <path d="M16.46,73.41c.36,0,2.1-.07,2.19,0,.03.02-.02.22,0,.31-.7-.05-1.53.04-2.19-.31Z" fill="#d2c9b8"/>
          <path d="M17.71,70.91c.22.34.18.52.16.94.61-.52.61-.27,1.09,0v.47c-.92-.2-.81.4-1.05.46-.88.23-.41-.75-.52-1.4.13.22.2.34.16.62h.15s0-1.09,0-1.09Z" fill="#e0a032"/>
          <path d="M12.79,87.94c.55-.12.51,1.49.15,1.56-.55.12-.51-1.49-.15-1.56Z" fill="#d89e19"/>
          <path d="M13.8,81.53c.04.58-.26,1.27-.78,1.56v-1.56c-.68,0-.44.79-.47,1.25l-.31-1.25c.2-.13.53-.42.73-.44.28-.03.6.29.84.44Z" fill="#f6c037"/>
          <path d="M10.2,82.16c.25-.52,1.97.02,1.72.94l-.94-.39.63.86c-.37.29-1.48-1.24-1.41-1.4Z" fill="#f4ba38"/>
          <path d="M12.24,80.75c.71-1.22-.24-.88-.43-1.68-.07-.31-.1-.87-.03-1.18.06-.29,1.05-.9,1.45-.86.25.03,1.27,1.05,1.29,1.3.07.97-1.36,1.5-.72,2.58-.58-.21-.85-.5-1.56-.16Z" fill="#e15e20"/>
          <path d="M9.74,73.09c-.09-.44-.26-.99-.22-1.44.09-1.13,1.46-.62,2.14-.76.14-.03.41-.58.54-.61.29-.06,1.23-.06,1.54-.02.26.03,1.57.51,2.03.63.24.06.7-.07.83.03.07.05.08.35.17.49.07.1.28.09.31.22.09.41-.06,1.01,0,1.46-.31,0-.63-.01-.94,0-.48.02-1.53.09-1.92,0-.13-.03-.04-.28-.33-.32-.41-.05-1.65-.05-2.05,0-.29.04-.21.29-.33.32-.34.08-1.36.03-1.77,0Z" fill="#c1d3df"/>
          <path d="M12.96,77.32c.29-.05,1.14.97,1.14,1.32s-.88,1.4-1.16,1.33c-.15-.36-1.03-1.03-1.03-1.33,0-.17.88-1.29,1.04-1.32Z" fill="#f5c433"/>
        </g>
        <g>
          <path d="M47.61,67.78c.06-.04.15-.28.31-.38.6-.38,1.85-.4,2.35.15.2.21.28.68.46.79.2.12,1.15.18,1.57.31,1.79.57,3.25,1.81,4.35,3.31.37.51,1.08,1.97,1.36,2.23.6.54,1.37.13,1.48,1.49.19,2.41-1.56,1.3-2.98,1.64-.37,0-.38-.01-.16-.31-.44-.13-.43-.34,0-.47l.21-.28c1.82.56,2.43.25,1.85-.92-1.61-.36-3.25-.64-4.92-.83-.28-.03-.42-.16-.43-.47l.05-.19,2.39.12c.24-.06.11-1.05-.41-1.49-.29.32-.35.26-.31-.16-.46-.07-.42-.35,0-.47.43-.38.93.3,1.18.67.39,1.52,1.7,2.01.32.23-1.22-1.57-2.93-3-4.87-3.51-1.04-.28-.94.59.33.16.55.08,2.11.88,1.8,1.52.01.46.11.82.29,1.06-.32.49-.52.29-.6-.59-.28.06-.53-.13-.75-.56-.51-.05-.68-.23-.5-.54-.93-.22-2.85-.58-4.22-.43l-.15-.2c-1.65-1.21-4.42,1.29-5.48,2.62-.51.64-1.27,2.11-.24.7l.41-.04.21.07c-.2.88.14.95.94.82l.1.21.02.21c-1.3.31-2.64.59-4.03.84-.43,1.11.31,1.4,2.22.85l.23.29c.42.23.16.44-.78.62.34.07.34.55,0,.62-.34-1-.82-.36-1.65-.46-1.23-.15-1.38-2.19-.37-2.73.27-.15.64-.09.89-.29.22-.18,1.17-2,1.61-2.53,1-1.2,2.33-2.09,3.75-2.74.95-.08,1.68-.39,2.19-.94Z" fill="#cf942d"/>
          <path d="M45.27,89.19c.36-.43,1.86-.78,2.31-.39.57,1.93,1.25,2.15,2.25.21.55-.57,2.02-.15,2.63.18.43-.04.46.2.16.47,0,.32-.16.25-.31,0l-.19.32c-1.05-.27-1.8.04-2.27.92,1.07.06,2.14.07,3.21.04l.34.28c0-.41.2-.45.47-.16.15,0,1.07.22,1.18.3.53.36.13,1.14.69,1.42-.09.25-.22.24-.31,0-.6.21-1.22.22-1.84.22-3.1,0-6.2,0-9.29,0-.63,0-1.24-.02-1.84-.22-.35.13-.83.27-1.09,0,1.11-.16.38-.72.66-1.22.1-.18,1.29-.49,1.53-.5.24-.34.36-.24.31.16,1.08-.33,2.24-.44,3.48-.33-.26-.92-.93-1.22-2.03-.9l-.19-.33c-.13-.04-.13-.1,0-.16-.5-.17-.29-.58.16-.31Z" fill="#dd8725"/>
          <path d="M41.36,92.78c.36-.02.73,0,1.09,0,.08.18.06.3-.12.31l-1.76.15c.31.26.17,1.03.08,1.41l.11-.31h16.12l.19.31c-.2-.63-.18-1.1.08-1.41-.61-.07-1.28-.1-1.99-.11-.17-.14.05-.32.27-.36.1,0,.21,0,.31,0,.52.01,1.72-.18,1.96.31.2.41.26,2-.47,2.03l-16.95-.08c-.71-.31-.69-1.99.11-2.23.31-.09.66-.02.98-.03Z" fill="#cf9433"/>
          <path d="M49.64,83.72c.26-.13.4-.17.31.16.39-.23.51.03.16.31.33.08.28.16,0,.31.43.13.18.51.08.27-.05-.12.1-.12.23.04.51.18,1.27-.27,1.71-.62h.32c.23-.23.36-.16.31.15.22-.22.31-.12.16.16-.13.41-.91.96-1.37,1.14-1.39.09-1.26.61-.06,1.06l.18.45c.44,1.45,1.67,1.27,1.87,1.57.22.33-.5.85-.78.93-.05.14-.1.14-.16,0-.11-.14-.11-.31-.16-.47-.85-.38-1.38-.85-1.65-1.77-.12-.17-.6-.26-.58-.24,1.35,1.34-.73,1.5-1.3.3l-.37.11c-.68.58-1.99,1.26-1.67-.18.81-.61.41-.55-.16-.12-.38.8-.82,1.38-1.47,1.9-.21.01-.12.23-.16.31-.17.32-.34.38-.47,0-.18-.05-.66-.49-.62-.69.39-.51.96-.44,1.41-.95.36-.4.48-.84.93-1.34.16-.23.81-.56.94-.31.13-.23.34-.12.63.31.07-.12.18-.23.31-.21,1.29.21,1.54-.1,1.32-1.45-.28-.31-.35-.59-.22-.84-.34-.1-.39-.21-.16-.31.13-.44.36-.45.47,0Z" fill="#cf9433"/>
          <path d="M41.67,76.84c.5.07.4,1.1.08,1.35l.08.53c.36.19.65.94.31,1.25l.41.19c.42.86.89,1.69,1.43,2.49l-.11.44c.29.05.17.54-.16.31-1.55-1.91-2.63-3.25-2.5-5.94,0-.19-.04-.48,0-.62.17-.15.37-.22.47,0Z" fill="#a42f28"/>
          <path d="M55.9,80.75c-.39,1.24-1.45,2.65-2.35,3.59-.27.22-.48.28-.63.16-.06-.04-.1-.12-.16-.16-.24-.17-.13-.41.16-.31l.18-.54c.87-.87,1.58-1.88,2.13-3.02l.35-.03c.23-.3.34-.2.31.31Z" fill="#ae2c28"/>
          <path d="M44.17,83.09c.04.63.3,1.05.78,1.25l.12-.17c.67.36,1.35.57,2.06.64-.46-.4.2-1.08.47-.47.17.08.17.23,0,.47.41.18.52,1.36.31,1.72-.1-.04-.61-.28-.63-.31-.2.05-.27-.08-.19-.4-.61-.37-1.27-.66-1.99-.85-.96-.62-.8-.81-1.41-1.56.19-.02.13-.29.16-.31.05-.14.1-.14.16,0,.04-.14.09-.14.16,0Z" fill="#ca943e"/>
          <path d="M56.37,77s.16.14.16.31c-.02.73-.39,2.7-.63,3.44l-.31-.31c-.26,0-.26-.1,0-.31-.46-.24-.29-1.31.16-1.56-.45-.3-.23-1.47.31-1.56,0-.34.21-.33.31,0Z" fill="#a1351f"/>
          <path d="M53.55,84.34c-.28.3-1.77,1.5-1.99,1.56-.25.06-.56-.02-.83,0-.38.29.85.56.91.65.1.15-.02.45.03.6-.19-.39-1.63-.86-1.56-1.17.08-.37,1.25-.49,1.67-.68s.81-.64,1.14-.81c.16-.08.44-.09.63-.16Z" fill="#f9f3db"/>
          <path d="M45.11,89.5s.02.12,0,.16c.37.61-.65,1.42-1.25,1.56-.13,0-.29-.16-.31-.16l1.09-1.56c.12.03.33-.02.47,0Z" fill="#a63c29"/>
          <path d="M52.61,89.66c.05,0,.11.01.16,0l1.09,1.41s-.21.16-.47.16c-.54-.23-1.58-1.02-1.09-1.56.1,0,.22.02.31,0Z" fill="#a73c24"/>
          <path d="M47.3,86.22l-.94.31s-.05-.19.04-.27c.13-.12.66-.06.59-.43-.02-.1-1.47-.6-1.88-.86.47.08,1.92.45,2.11.79.09.16.05.42.08.46Z" fill="#efdbad"/>
          <path d="M47.61,67.78c-.02,1.02-1.44.74-2.19.94.79-.36,1.43-.42,2.19-.94Z" fill="#f3e6c3"/>
          <path d="M49.64,73.72l2.88.15.09.16c.29-.27.45-.27.47,0,1.01.48,4.9.53,5.56,1.08.31.26.34,1.47.08,1.66-.19.14-1.94-.18-2.36-.25-.18.17-.37.18-.59.14-3.98-.62-7.72-1.02-11.76-.45l-.31-.16c-.53-.02-1.05.04-1.56.16-.05.14-.1.14-.16,0-.49.05-2.24.37-2.5.24-.42-.21-.44-1.26-.17-1.58.34-.42,3.55-.56,4.24-.84,1.87-.6,4.16-.61,6.1-.31Z" fill="#f2c92e"/>
          <path d="M47.61,69.66c1.3-.1,1.93.11,3.06.3.39.07.91-.08,1.23,0,.19.04.06.28.09.32l-.25.32-2.18-.48c-.84-.1-1.55-.13-2.18.51-1.35-.04-2.77.17-2.14,1.8l-.13.18c-.45.95,1.71.65,2.52.42,1.49-.04,2.92.1,4.36.36.09-.23.22-.23.31,0,.69.11,1.39.16,2.1.14l.09.17c.17-.31.37-.28.66-.17-.27-.48-.28-.84-.03-1.08.84.37.63.62.63,1.56h-2.66s-.47,0-.47,0c.11-.24.03-.3-.23-.17l-2.74-.15c-2.04.03-4.06.2-6.1.31h-1.25s0-1.09,0-1.09c-.34-.68.98-1.95,1.77-1.68.32-.82,1.09-1.41,1.92-1.66.44-.13,1.44-.38,1.63.06Z" fill="#cc9437"/>
          <path d="M56.37,76.53c.02.15-.03.34,0,.47-.1-.02-.23.03-.31,0l-.49.18c-4.47-1.04-9.18-.84-13.62-.05-.13.02-.23-.15-.27-.29-.16,0-.31,0-.47,0,.15-.53.93-.05.78-.62.05,0,.1,0,.16,0,.51-.12,1.03-.17,1.56-.16,5.2-.56,7.55-.36,12.66.47Z" fill="#e37e26"/>
          <path d="M47.61,69.66c-.22.02-.96.14-1.29.18-.88.12-2.25,1.12-2,2.16-.26.03-.15-.38-.4-.46-.65-.21-1.35,1.02-1.63,1.4-.42.58-.51,1.1-1.41.94.49-1.5,2.13-3.28,3.51-4.07.67-.38,3.3-1.61,3.21-.15Z" fill="#f5c536"/>
          <path d="M53.55,70.91c-.29-.46-1.32-1.13-1.84-1.21-.33-.05-.86.26-1.11.1-.22-.14-.36-.93.36-.92,2.15,0,5.75,3.1,6.34,5.09.12.41-.66.25-.87.09-.48-.37-.35-1.51-1.63-2.2-.18.27-.36.19-.56,0-.44.39-.67.08-.69-.94Z" fill="#f7c537"/>
          <path d="M48.5,67.65c2.11-.65,2.14,2.46,0,1.81-.73-.22-.74-1.59,0-1.81Z" fill="#f3c732"/>
          <path d="M45.27,89.19c-.8-.5-.1-.39.14-.56.79-.57.73-1.22,1.19-1.64.34-.32,1.07-.56,1.18.08-.04.18-.97.51-.62.86s1.21-.96,1.93-.74c.31.09.51,1.08,1.35.74.11-.46-.7-.48-.62-.86.1-.46,1.01-.17,1.26.15.19.23.2.59.39.86.3.43.75.57,1.03.87.15.17-.02.22-.02.23-.61.2-1.8-.27-2.24-.17-.12.03-.97,1.74-1.59,1.74-.2,0-.91-.69-1.02-.86-.16-.26-.27-.99-.31-1.02-.16-.12-1.62.5-2.03.31Z" fill="#f3c731"/>
          <path d="M42.61,91.84c.39-.4.8,0,1.19-.01,3.26-.07,6.86-.39,10.13-.14.63.05,1.03.08.87.78l-12.08.07c-.33-.02-.22-.44-.12-.7Z" fill="#c5cfd4"/>
          <path d="M55.43,92.78c.01.09-.03.29,0,.31.12.09,1.55-.07,1.88,0,.04.11-.16.14-.16.15l-.11.31h-16.28l-.19-.31c.5-.37,1.37.07,1.88-.47,4.27-.09,8.71-.07,12.98,0Z" fill="#dd8725"/>
          <path d="M52.3,89.66c.12.64.91.89,1.09,1.56-1.1-.02-2.48.12-3.53,0-.24-.03-.39-.01-.54-.24.18-.14,1.09-1.3,1.2-1.32.49-.1,1.22.03,1.76,0Z" fill="#ec652b"/>
          <path d="M45.11,89.66c.43.08,1.56-.14,1.84.03.08.04.94,1.41.81,1.53-1.3.02-2.61-.02-3.91,0,.4-.55.94-.94,1.25-1.56Z" fill="#eb652b"/>
          <path d="M42.61,91.84c.07.24-.22.6.23.63,3.88.26,8.05-.2,11.96,0l-12.35.16c0-.32-.08-.54.16-.78Z" fill="#cfd0c8"/>
          <path d="M57.15,93.25c0,.16.42,1.41-.08,1.41h-16.42c-.32,0-.31-1.19-.08-1.41h16.57Z" fill="#f4c332"/>
          <path d="M48.08,81.53c.93-.33,1.14-.25,1.11.72.05-.35.2-.59.45-.72.28-.25.57-.01.63.31,1.21.83.4,1.48-.63,1.87-.12-.03-.32,0-.47,0-.54.14-1.06.35-1.56.62-.02.02-.16-.04-.27.05-.07.06-.08.3-.2.42-.72-.06-1.42-.29-2.09-.67l-.09.2c-.06-.03-.23.04-.35,0-.45-.19-.5-.8-.43-1.24.11-.39.54-.58,1.31-.57.18-.31.37-.43.57-.37q.47.12,0,0c-.4.05-.31-.34,0-.5.71.07,1.38.01,2.02-.13Z" fill="#d79328"/>
          <path d="M49.64,80.91c.3-.09,1.53-.04,1.85.13.52.28.76.7.85,1.26.68.48,1.27.93.58,1.73,0,.08-.13.21-.16.31-.1-.06-.21-.1-.31-.16l-.2-.07c-.09-.48-.15-.75-.58-1.02-.25,0-.31-.21-.16-.62l-.15-.48c-.31.26-.98.31-1.09-.16-.64-.09-.35-.15-.63-.31-.2.23-.47.16-.82-.22-.06.05-.61.39-.75.22-.07.05-.11.27-.27.31-.48.11-1.22-.11-1.66,0-.19.05-.07.26-.1.32-.61,1.06-.55.42-1.46.63-.03,0-.17.18-.42.31-.04.02-.1-.02-.16,0-.56-.79.45-.93,1.09-.96.3-.89.97-1.18,2.01-.88.35-.3.67-.47.97-.5.47-.76,1.16-.55,1.56.16Z" fill="#e38627"/>
          <path d="M49.33,84.03c.55.56.83,1.19.51,1.99-.43,1.04-1.11.84-1.91.51-.35-.61-.32-1.05-.31-1.72.16-.69,1.11-1.29,1.72-.78Z" fill="#c5cfd4"/>
          <path d="M51.68,83.09c.7-.28.9.54.78,1.09-.1.49-1.11.67-1.44.8-.12.05-.62.89-.59-.17.24-.28,1.15-.78,1.56-.94.1-.04-1.76,1.09-1.88.62-.01-.1.02-.22,0-.31.26-.36,1.15-1.24,1.56-1.09Z" fill="#f5bd38"/>
          <path d="M51.36,82c.57.82-.63,1.91-1.41,1.87-.04-.04-.26-.14-.31-.16.58-.44,1.95-1.75.31-.94l.31-.94c.37.05.69-.08,1.09.16Z" fill="#f5bb38"/>
          <path d="M51.68,83.09c-.21.09-1,1.14-1.56,1.09-.01-.06-.12-.28-.16-.31.6-.6,1.54-.78,1.41-1.87.46.27.31.61.31,1.09Z" fill="#d79328"/>
          <path d="M50.11,84.5l1.88-.62c-.28.52-1.03.72-1.56.94-.1.04-.28.2-.31.16-.02-.15.02-.32,0-.47Z" fill="#d79328"/>
          <path d="M49.17,83.72c.06.09.09.25.16.31-.98-.18-1.13.16-1.72.78,0-.16,0-.31,0-.47.69-.58.57-.63,1.56-.62Z" fill="#d4b285"/>
          <path d="M56.05,77c-.16.55-.23.99-.31,1.56l-.21.42c-.71.24-.44.8.06,1.14-.02.09.02.23,0,.31-.09.32-1.23,2.15-1.5,2.49-.31.4-.76.8-1.16,1.1.14-1.36-.48-1-.85-1.57-.11-.17-.08-.44-.18-.6-.59-.92-1.02-.5-1.83-.68-.17-.04-.3-.23-.42-.27-.64-.36-.54-.62-.29-1.22,2.08-2.06-1.95-3.58-1.38-.62.86.74.9,1.31.11,1.69-.88,1.52-1.57.38-2.31.81-.11.07-.28.7-.5.83-.39.22-1.2-.14-1.25.7-.05.02-.13-.02-.16,0-.6-1.11-1.3-1.9-1.72-3.12.46-.89.35-1.31-.31-1.25-.34-.48-.08-1.28-.16-1.87.58-.01.78-.25,1.18-.3,3.69-.47,9.72-.63,13.2.46Z" fill="#ee4c28"/>
          <path d="M41.83,78.72c0-.17-.07-.53.08-.62.62.75,1.11.39.68,1.47-.09.24-.11.48-.45.4-.19-.54-.31-.57-.31-1.25Z" fill="#f9ab47"/>
          <path d="M44.95,84.34c-.81-.82-.85-1.55.51-1.38l1.67,1.22c-.58.02-.9-.42-1.48-.47-.32-.03-.46-.07-.39.31l1.88.78c-.4.39-1.7-.27-2.19-.47Z" fill="#f5bf38"/>
          <path d="M55.74,78.56c-.06.46-.06,1.13-.16,1.56-.3.16-.29.28-.52-.03-.62-.87-.17-1.22.67-1.53Z" fill="#fab34a"/>
          <path d="M49.64,73.72c1.07-.02,2.14.01,3.2,0l-.23.31-2.97-.31Z" fill="#cf942d"/>
          <path d="M43.7,76.06c-.49.05-1.05.1-1.56.16.37-.33,1.07-.09,1.56-.16Z" fill="#cf942d"/>
          <path d="M51.99,70.28c.32.39.86.44,1.25,1.09.13.4.22.78.28,1.13.56-.65.99-.72,1.28-.2.02,0,.22.11.31.16l.47,1.41c-.38.09-.76-.13-1.09-.16-.32-.1-.43-.2-.13-.17-.69.02-1.38-.03-2.06-.14-.1,0-.21,0-.31,0-.42-.05-.4-.19,0-.31,1.11-.39.76-2-.44-1.89l-1.95-.61c-1-.14-1.43-.12-2.08.62-1.68-.29-2.24.26-1.68,1.63l-.26.25c-.48.42-1.21-.06-.47-.47-.22-.67-.61-.99.05-1.66.6-.61,1.43-.43,2.15-.59.35-.08.57-.35,1-.41,1.37-.18,2.36.44,3.68.32Z" fill="#cfd0c8"/>
          <path d="M45.11,72.62c.04.11-.05.42,0,.47.03.03.34,0,.47,0,0-.14.06-.24.18-.3h1.36c.71-.56,2.48-.56,3.2.02l1.4-.02.27.3v.31c-2.52-.07-4.91-.16-7.42,0-.33.02-1.89.38-1.96.31-.1-.45.34-1.22.78-1.34.5-.14,1.04.81,1.73.25Z" fill="#d2c9b8"/>
          <path d="M52.3,73.41c.36,0,2.1-.07,2.19,0,.03.02-.02.22,0,.31-.7-.05-1.53.04-2.19-.31Z" fill="#d2c9b8"/>
          <path d="M53.55,70.91c.22.34.18.52.16.94.61-.52.61-.27,1.09,0v.47c-.92-.2-.81.4-1.05.46-.88.23-.41-.75-.52-1.4.13.22.2.34.16.62h.15s0-1.09,0-1.09Z" fill="#e0a032"/>
          <path d="M48.63,87.94c.55-.12.51,1.49.15,1.56-.55.12-.51-1.49-.15-1.56Z" fill="#d89e19"/>
          <path d="M49.64,81.53c.04.58-.26,1.27-.78,1.56v-1.56c-.68,0-.44.79-.47,1.25l-.31-1.25c.2-.13.53-.42.73-.44.28-.03.6.29.84.44Z" fill="#f6c037"/>
          <path d="M46.05,82.16c.25-.52,1.97.02,1.72.94l-.94-.39.63.86c-.37.29-1.48-1.24-1.41-1.4Z" fill="#f4ba38"/>
          <path d="M48.08,80.75c.71-1.22-.24-.88-.43-1.68-.07-.31-.1-.87-.03-1.18.06-.29,1.05-.9,1.45-.86.25.03,1.27,1.05,1.29,1.3.07.97-1.36,1.5-.72,2.58-.58-.21-.85-.5-1.56-.16Z" fill="#e15e20"/>
          <path d="M45.58,73.09c-.09-.44-.26-.99-.22-1.44.09-1.13,1.46-.62,2.14-.76.14-.03.41-.58.54-.61.29-.06,1.23-.06,1.54-.02.26.03,1.57.51,2.03.63.24.06.7-.07.83.03.07.05.08.35.17.49.07.1.28.09.31.22.09.41-.06,1.01,0,1.46-.31,0-.63-.01-.94,0-.48.02-1.53.09-1.92,0-.13-.03-.04-.28-.33-.32-.41-.05-1.65-.05-2.05,0-.29.04-.21.29-.33.32-.34.08-1.36.03-1.77,0Z" fill="#c1d3df"/>
          <path d="M48.81,77.32c.29-.05,1.14.97,1.14,1.32s-.88,1.4-1.16,1.33c-.15-.36-1.03-1.03-1.03-1.33,0-.17.88-1.29,1.04-1.32Z" fill="#f5c433"/>
        </g>
        <g>
          <path d="M11.7,35.66c.06-.04.15-.28.31-.38.6-.38,1.85-.4,2.35.15.2.21.28.68.46.79.2.12,1.15.18,1.57.31,1.79.57,3.25,1.81,4.35,3.31.37.51,1.08,1.97,1.36,2.23.6.54,1.37.13,1.48,1.49.19,2.41-1.56,1.3-2.98,1.64-.37,0-.38-.01-.16-.31-.44-.13-.43-.34,0-.47l.21-.28c1.82.56,2.43.25,1.85-.92-1.61-.36-3.25-.64-4.92-.83-.28-.03-.42-.16-.43-.47l.05-.19,2.39.12c.24-.06.11-1.05-.41-1.49-.29.32-.35.26-.31-.16-.46-.07-.42-.35,0-.47.43-.38.93.3,1.18.67.39,1.52,1.7,2.01.32.23-1.22-1.57-2.93-3-4.87-3.51-1.04-.28-.94.59.33.16.55.08,2.11.88,1.8,1.52.01.46.11.82.29,1.06-.32.49-.52.29-.6-.59-.28.06-.53-.13-.75-.56-.51-.05-.68-.23-.5-.54-.93-.22-2.85-.58-4.22-.43l-.15-.2c-1.65-1.21-4.42,1.29-5.48,2.62-.51.64-1.27,2.11-.24.7l.41-.04.21.07c-.2.88.14.95.94.82l.1.21.02.21c-1.3.31-2.64.59-4.03.84-.43,1.11.31,1.4,2.22.85l.23.29c.42.23.16.44-.78.62.34.07.34.55,0,.62-.34-1-.82-.36-1.65-.46-1.23-.15-1.38-2.19-.37-2.73.27-.15.64-.09.89-.29.22-.18,1.17-2,1.61-2.53,1-1.2,2.33-2.09,3.75-2.74.95-.08,1.68-.39,2.19-.94Z" fill="#cf942d"/>
          <path d="M9.36,57.07c.36-.43,1.86-.78,2.31-.39.57,1.93,1.25,2.15,2.25.21.55-.57,2.02-.15,2.63.18.43-.04.46.2.16.47,0,.32-.16.25-.31,0l-.19.32c-1.05-.27-1.8.04-2.27.92,1.07.06,2.14.07,3.21.04l.34.28c0-.41.2-.45.47-.16.15,0,1.07.22,1.18.3.53.36.13,1.14.69,1.42-.09.25-.22.24-.31,0-.6.21-1.22.22-1.84.22-3.1,0-6.2,0-9.29,0-.63,0-1.24-.02-1.84-.22-.35.13-.83.27-1.09,0,1.11-.16.38-.72.66-1.22.1-.18,1.29-.49,1.53-.5.24-.34.36-.24.31.16,1.08-.33,2.24-.44,3.48-.33-.26-.92-.93-1.22-2.03-.9l-.19-.33c-.13-.04-.13-.1,0-.16-.5-.17-.29-.58.16-.31Z" fill="#dd8725"/>
          <path d="M5.45,60.66c.36-.02.73,0,1.09,0,.08.18.06.3-.12.31l-1.76.15c.31.26.17,1.03.08,1.41l.11-.31h16.12l.19.31c-.2-.63-.18-1.1.08-1.41-.61-.07-1.28-.1-1.99-.11-.17-.14.05-.32.27-.36.1,0,.21,0,.31,0,.52.01,1.72-.18,1.96.31.2.41.26,2-.47,2.03l-16.95-.08c-.71-.31-.69-1.99.11-2.23.31-.09.66-.02.98-.03Z" fill="#cf9433"/>
          <path d="M13.73,51.6c.26-.13.4-.17.31.16.39-.23.51.03.16.31.33.08.28.16,0,.31.43.13.18.51.08.27-.05-.12.1-.12.23.04.51.18,1.27-.27,1.71-.62h.32c.23-.23.36-.16.31.15.22-.22.31-.12.16.16-.13.41-.91.96-1.37,1.14-1.39.09-1.26.61-.06,1.06l.18.45c.44,1.45,1.67,1.27,1.87,1.57.22.33-.5.85-.78.93-.05.14-.1.14-.16,0-.11-.14-.11-.31-.16-.47-.85-.38-1.38-.85-1.65-1.77-.12-.17-.6-.26-.58-.24,1.35,1.34-.73,1.5-1.3.3l-.37.11c-.68.58-1.99,1.26-1.67-.18.81-.61.41-.55-.16-.12-.38.8-.82,1.38-1.47,1.9-.21.01-.12.23-.16.31-.17.32-.34.38-.47,0-.18-.05-.66-.49-.62-.69.39-.51.96-.44,1.41-.95.36-.4.48-.84.93-1.34.16-.23.81-.56.94-.31.13-.23.34-.12.63.31.07-.12.18-.23.31-.21,1.29.21,1.54-.1,1.32-1.45-.28-.31-.35-.59-.22-.84-.34-.1-.39-.21-.16-.31.13-.44.36-.45.47,0Z" fill="#cf9433"/>
          <path d="M5.76,44.72c.5.07.4,1.1.08,1.35l.08.53c.36.19.65.94.31,1.25l.41.19c.42.86.89,1.69,1.43,2.49l-.11.44c.29.05.17.54-.16.31-1.55-1.91-2.63-3.25-2.5-5.94,0-.19-.04-.48,0-.62.17-.15.37-.22.47,0Z" fill="#a42f28"/>
          <path d="M19.99,48.63c-.39,1.24-1.45,2.65-2.35,3.59-.27.22-.48.28-.63.16-.06-.04-.1-.12-.16-.16-.24-.17-.13-.41.16-.31l.18-.54c.87-.87,1.58-1.88,2.13-3.02l.35-.03c.23-.3.34-.2.31.31Z" fill="#ae2c28"/>
          <path d="M8.26,50.97c.04.63.3,1.05.78,1.25l.12-.17c.67.36,1.35.57,2.06.64-.46-.4.2-1.08.47-.47.17.08.17.23,0,.47.41.18.52,1.36.31,1.72-.1-.04-.61-.28-.63-.31-.2.05-.27-.08-.19-.4-.61-.37-1.27-.66-1.99-.85-.96-.62-.8-.81-1.41-1.56.19-.02.13-.29.16-.31.05-.14.1-.14.16,0,.04-.14.09-.14.16,0Z" fill="#ca943e"/>
          <path d="M20.46,44.88s.16.14.16.31c-.02.73-.39,2.7-.63,3.44l-.31-.31c-.26,0-.26-.1,0-.31-.46-.24-.29-1.31.16-1.56-.45-.3-.23-1.47.31-1.56,0-.34.21-.33.31,0Z" fill="#a1351f"/>
          <path d="M17.64,52.22c-.28.3-1.77,1.5-1.99,1.56-.25.06-.56-.02-.83,0-.38.29.85.56.91.65.1.15-.02.45.03.6-.19-.39-1.63-.86-1.56-1.17.08-.37,1.25-.49,1.67-.68s.81-.64,1.14-.81c.16-.08.44-.09.63-.16Z" fill="#f9f3db"/>
          <path d="M9.2,57.38s.02.12,0,.16c.37.61-.65,1.42-1.25,1.56-.13,0-.29-.16-.31-.16l1.09-1.56c.12.03.33-.02.47,0Z" fill="#a63c29"/>
          <path d="M16.7,57.54c.05,0,.11.01.16,0l1.09,1.41s-.21.16-.47.16c-.54-.23-1.58-1.02-1.09-1.56.1,0,.22.02.31,0Z" fill="#a73c24"/>
          <path d="M11.39,54.1l-.94.31s-.05-.19.04-.27c.13-.12.66-.06.59-.43-.02-.1-1.47-.6-1.88-.86.47.08,1.92.45,2.11.79.09.16.05.42.08.46Z" fill="#efdbad"/>
          <path d="M11.7,35.66c-.02,1.02-1.44.74-2.19.94.79-.36,1.43-.42,2.19-.94Z" fill="#f3e6c3"/>
          <path d="M13.73,41.6l2.88.15.09.16c.29-.27.45-.27.47,0,1.01.48,4.9.53,5.56,1.08.31.26.34,1.47.08,1.66-.19.14-1.94-.18-2.36-.25-.18.17-.37.18-.59.14-3.98-.62-7.72-1.02-11.76-.45l-.31-.16c-.53-.02-1.05.04-1.56.16-.05.14-.1.14-.16,0-.49.05-2.24.37-2.5.24-.42-.21-.44-1.26-.17-1.58.34-.42,3.55-.56,4.24-.84,1.87-.6,4.16-.61,6.1-.31Z" fill="#f2c92e"/>
          <path d="M11.7,37.54c1.3-.1,1.93.11,3.06.3.39.07.91-.08,1.23,0,.19.04.06.28.09.32l-.25.32-2.18-.48c-.84-.1-1.55-.13-2.18.51-1.35-.04-2.77.17-2.14,1.8l-.13.18c-.45.95,1.71.65,2.52.42,1.49-.04,2.92.1,4.36.36.09-.23.22-.23.31,0,.69.11,1.39.16,2.1.14l.09.17c.17-.31.37-.28.66-.17-.27-.48-.28-.84-.03-1.08.84.37.63.62.63,1.56h-2.66s-.47,0-.47,0c.11-.24.03-.3-.23-.17l-2.74-.15c-2.04.03-4.06.2-6.1.31h-1.25s0-1.09,0-1.09c-.34-.68.98-1.95,1.77-1.68.32-.82,1.09-1.41,1.92-1.66.44-.13,1.44-.38,1.63.06Z" fill="#cc9437"/>
          <path d="M20.46,44.41c.02.15-.03.34,0,.47-.1-.02-.23.03-.31,0l-.49.18c-4.47-1.04-9.18-.84-13.62-.05-.13.02-.23-.15-.27-.29-.16,0-.31,0-.47,0,.15-.53.93-.05.78-.62.05,0,.1,0,.16,0,.51-.12,1.03-.17,1.56-.16,5.2-.56,7.55-.36,12.66.47Z" fill="#e37e26"/>
          <path d="M11.7,37.54c-.22.02-.96.14-1.29.18-.88.12-2.25,1.12-2,2.16-.26.03-.15-.38-.4-.46-.65-.21-1.35,1.02-1.63,1.4-.42.58-.51,1.1-1.41.94.49-1.5,2.13-3.28,3.51-4.07.67-.38,3.3-1.61,3.21-.15Z" fill="#f5c536"/>
          <path d="M17.64,38.79c-.29-.46-1.32-1.13-1.84-1.21-.33-.05-.86.26-1.11.1-.22-.14-.36-.93.36-.92,2.15,0,5.75,3.1,6.34,5.09.12.41-.66.25-.87.09-.48-.37-.35-1.51-1.63-2.2-.18.27-.36.19-.56,0-.44.39-.67.08-.69-.94Z" fill="#f7c537"/>
          <path d="M12.59,35.54c2.11-.65,2.14,2.46,0,1.81-.73-.22-.74-1.59,0-1.81Z" fill="#f3c732"/>
          <path d="M9.36,57.07c-.8-.5-.1-.39.14-.56.79-.57.73-1.22,1.19-1.64.34-.32,1.07-.56,1.18.08-.04.18-.97.51-.62.86s1.21-.96,1.93-.74c.31.09.51,1.08,1.35.74.11-.46-.7-.48-.62-.86.1-.46,1.01-.17,1.26.15.19.23.2.59.39.86.3.43.75.57,1.03.87.15.17-.02.22-.02.23-.61.2-1.8-.27-2.24-.17-.12.03-.97,1.74-1.59,1.74-.2,0-.91-.69-1.02-.86-.16-.26-.27-.99-.31-1.02-.16-.12-1.62.5-2.03.31Z" fill="#f3c731"/>
          <path d="M6.7,59.72c.39-.4.8,0,1.19-.01,3.26-.07,6.86-.39,10.13-.14.63.05,1.03.08.87.78l-12.08.07c-.33-.02-.22-.44-.12-.7Z" fill="#c5cfd4"/>
          <path d="M19.52,60.66c.01.09-.03.29,0,.31.12.09,1.55-.07,1.88,0,.04.11-.16.14-.16.15l-.11.31H4.85l-.19-.31c.5-.37,1.37.07,1.88-.47,4.27-.09,8.71-.07,12.98,0Z" fill="#dd8725"/>
          <path d="M16.39,57.54c.12.64.91.89,1.09,1.56-1.1-.02-2.48.12-3.53,0-.24-.03-.39-.01-.54-.24.18-.14,1.09-1.3,1.2-1.32.49-.1,1.22.03,1.76,0Z" fill="#ec652b"/>
          <path d="M9.2,57.54c.43.08,1.56-.14,1.84.03.08.04.94,1.41.81,1.53-1.3.02-2.61-.02-3.91,0,.4-.55.94-.94,1.25-1.56Z" fill="#eb652b"/>
          <path d="M6.7,59.72c.07.24-.22.6.23.63,3.88.26,8.05-.2,11.96,0l-12.35.16c0-.32-.08-.54.16-.78Z" fill="#cfd0c8"/>
          <path d="M21.24,61.13c0,.16.42,1.41-.08,1.41H4.74c-.32,0-.31-1.19-.08-1.41h16.57Z" fill="#f4c332"/>
          <path d="M12.17,49.41c.93-.33,1.14-.25,1.11.72.05-.35.2-.59.45-.72.28-.25.57-.01.63.31,1.21.83.4,1.48-.63,1.87-.12-.03-.32,0-.47,0-.54.14-1.06.35-1.56.62-.02.02-.16-.04-.27.05-.07.06-.08.3-.2.42-.72-.06-1.42-.29-2.09-.67l-.09.2c-.06-.03-.23.04-.35,0-.45-.19-.5-.8-.43-1.24.11-.39.54-.58,1.31-.57.18-.31.37-.43.57-.37q.47.12,0,0c-.4.05-.31-.34,0-.5.71.07,1.38.01,2.02-.13Z" fill="#d79328"/>
          <path d="M13.73,48.79c.3-.09,1.53-.04,1.85.13.52.28.76.7.85,1.26.68.48,1.27.93.58,1.73,0,.08-.13.21-.16.31-.1-.06-.21-.1-.31-.16l-.2-.07c-.09-.48-.15-.75-.58-1.02-.25,0-.31-.21-.16-.62l-.15-.48c-.31.26-.98.31-1.09-.16-.64-.09-.35-.15-.63-.31-.2.23-.47.16-.82-.22-.06.05-.61.39-.75.22-.07.05-.11.27-.27.31-.48.11-1.22-.11-1.66,0-.19.05-.07.26-.1.32-.61,1.06-.55.42-1.46.63-.03,0-.17.18-.42.31-.04.02-.1-.02-.16,0-.56-.79.45-.93,1.09-.96.3-.89.97-1.18,2.01-.88.35-.3.67-.47.97-.5.47-.76,1.16-.55,1.56.16Z" fill="#e38627"/>
          <path d="M13.42,51.91c.55.56.83,1.19.51,1.99-.43,1.04-1.11.84-1.91.51-.35-.61-.32-1.05-.31-1.72.16-.69,1.11-1.29,1.72-.78Z" fill="#c5cfd4"/>
          <path d="M15.77,50.97c.7-.28.9.54.78,1.09-.1.49-1.11.67-1.44.8-.12.05-.62.89-.59-.17.24-.28,1.15-.78,1.56-.94.1-.04-1.76,1.09-1.88.62-.01-.1.02-.22,0-.31.26-.36,1.15-1.24,1.56-1.09Z" fill="#f5bd38"/>
          <path d="M15.45,49.88c.57.82-.63,1.91-1.41,1.87-.04-.04-.26-.14-.31-.16.58-.44,1.95-1.75.31-.94l.31-.94c.37.05.69-.08,1.09.16Z" fill="#f5bb38"/>
          <path d="M15.77,50.97c-.21.09-1,1.14-1.56,1.09-.01-.06-.12-.28-.16-.31.6-.6,1.54-.78,1.41-1.87.46.27.31.61.31,1.09Z" fill="#d79328"/>
          <path d="M14.2,52.38l1.88-.62c-.28.52-1.03.72-1.56.94-.1.04-.28.2-.31.16-.02-.15.02-.32,0-.47Z" fill="#d79328"/>
          <path d="M13.26,51.6c.06.09.09.25.16.31-.98-.18-1.13.16-1.72.78,0-.16,0-.31,0-.47.69-.58.57-.63,1.56-.62Z" fill="#d4b285"/>
          <path d="M20.14,44.88c-.16.55-.23.99-.31,1.56l-.21.42c-.71.24-.44.8.06,1.14-.02.09.02.23,0,.31-.09.32-1.23,2.15-1.5,2.49-.31.4-.76.8-1.16,1.1.14-1.36-.48-1-.85-1.57-.11-.17-.08-.44-.18-.6-.59-.92-1.02-.5-1.83-.68-.17-.04-.3-.23-.42-.27-.64-.36-.54-.62-.29-1.22,2.08-2.06-1.95-3.58-1.38-.62.86.74.9,1.31.11,1.69-.88,1.52-1.57.38-2.31.81-.11.07-.28.7-.5.83-.39.22-1.2-.14-1.25.7-.05.02-.13-.02-.16,0-.6-1.11-1.3-1.9-1.72-3.12.46-.89.35-1.31-.31-1.25-.34-.48-.08-1.28-.16-1.87.58-.01.78-.25,1.18-.3,3.69-.47,9.72-.63,13.2.46Z" fill="#ee4c28"/>
          <path d="M5.92,46.6c0-.17-.07-.53.08-.62.62.75,1.11.39.68,1.47-.09.24-.11.48-.45.4-.19-.54-.31-.57-.31-1.25Z" fill="#f9ab47"/>
          <path d="M9.04,52.22c-.81-.82-.85-1.55.51-1.38l1.67,1.22c-.58.02-.9-.42-1.48-.47-.32-.03-.46-.07-.39.31l1.88.78c-.4.39-1.7-.27-2.19-.47Z" fill="#f5bf38"/>
          <path d="M19.83,46.44c-.06.46-.06,1.13-.16,1.56-.3.16-.29.28-.52-.03-.62-.87-.17-1.22.67-1.53Z" fill="#fab34a"/>
          <path d="M13.73,41.6c1.07-.02,2.14.01,3.2,0l-.23.31-2.97-.31Z" fill="#cf942d"/>
          <path d="M7.79,43.94c-.49.05-1.05.1-1.56.16.37-.33,1.07-.09,1.56-.16Z" fill="#cf942d"/>
          <path d="M16.08,38.16c.32.39.86.44,1.25,1.09.13.4.22.78.28,1.13.56-.65.99-.72,1.28-.2.02,0,.22.11.31.16l.47,1.41c-.38.09-.76-.13-1.09-.16-.32-.1-.43-.2-.13-.17-.69.02-1.38-.03-2.06-.14-.1,0-.21,0-.31,0-.42-.05-.4-.19,0-.31,1.11-.39.76-2-.44-1.89l-1.95-.61c-1-.14-1.43-.12-2.08.62-1.68-.29-2.24.26-1.68,1.63l-.26.25c-.48.42-1.21-.06-.47-.47-.22-.67-.61-.99.05-1.66.6-.61,1.43-.43,2.15-.59.35-.08.57-.35,1-.41,1.37-.18,2.36.44,3.68.32Z" fill="#cfd0c8"/>
          <path d="M9.2,40.51c.04.11-.05.42,0,.47.03.03.34,0,.47,0,0-.14.06-.24.18-.3h1.36c.71-.56,2.48-.56,3.2.02l1.4-.02.27.3v.31c-2.52-.07-4.91-.16-7.42,0-.33.02-1.89.38-1.96.31-.1-.45.34-1.22.78-1.34.5-.14,1.04.81,1.73.25Z" fill="#d2c9b8"/>
          <path d="M16.39,41.29c.36,0,2.1-.07,2.19,0,.03.02-.02.22,0,.31-.7-.05-1.53.04-2.19-.31Z" fill="#d2c9b8"/>
          <path d="M17.64,38.79c.22.34.18.52.16.94.61-.52.61-.27,1.09,0v.47c-.92-.2-.81.4-1.05.46-.88.23-.41-.75-.52-1.4.13.22.2.34.16.62h.15s0-1.09,0-1.09Z" fill="#e0a032"/>
          <path d="M12.72,55.82c.55-.12.51,1.49.15,1.56-.55.12-.51-1.49-.15-1.56Z" fill="#d89e19"/>
          <path d="M13.73,49.41c.04.58-.26,1.27-.78,1.56v-1.56c-.68,0-.44.79-.47,1.25l-.31-1.25c.2-.13.53-.42.73-.44.28-.03.6.29.84.44Z" fill="#f6c037"/>
          <path d="M10.14,50.04c.25-.52,1.97.02,1.72.94l-.94-.39.63.86c-.37.29-1.48-1.24-1.41-1.4Z" fill="#f4ba38"/>
          <path d="M12.17,48.63c.71-1.22-.24-.88-.43-1.68-.07-.31-.1-.87-.03-1.18.06-.29,1.05-.9,1.45-.86.25.03,1.27,1.05,1.29,1.3.07.97-1.36,1.5-.72,2.58-.58-.21-.85-.5-1.56-.16Z" fill="#e15e20"/>
          <path d="M9.67,40.97c-.09-.44-.26-.99-.22-1.44.09-1.13,1.46-.62,2.14-.76.14-.03.41-.58.54-.61.29-.06,1.23-.06,1.54-.02.26.03,1.57.51,2.03.63.24.06.7-.07.83.03.07.05.08.35.17.49.07.1.28.09.31.22.09.41-.06,1.01,0,1.46-.31,0-.63-.01-.94,0-.48.02-1.53.09-1.92,0-.13-.03-.04-.28-.33-.32-.41-.05-1.65-.05-2.05,0-.29.04-.21.29-.33.32-.34.08-1.36.03-1.77,0Z" fill="#c1d3df"/>
          <path d="M12.89,45.2c.29-.05,1.14.97,1.14,1.32s-.88,1.4-1.16,1.33c-.15-.36-1.03-1.03-1.03-1.33,0-.17.88-1.29,1.04-1.32Z" fill="#f5c433"/>
        </g>
        <g>
          <path d="M47.54,35.66c.06-.04.15-.28.31-.38.6-.38,1.85-.4,2.35.15.2.21.28.68.46.79.2.12,1.15.18,1.57.31,1.79.57,3.25,1.81,4.35,3.31.37.51,1.08,1.97,1.36,2.23.6.54,1.37.13,1.48,1.49.19,2.41-1.56,1.3-2.98,1.64-.37,0-.38-.01-.16-.31-.44-.13-.43-.34,0-.47l.21-.28c1.82.56,2.43.25,1.85-.92-1.61-.36-3.25-.64-4.92-.83-.28-.03-.42-.16-.43-.47l.05-.19,2.39.12c.24-.06.11-1.05-.41-1.49-.29.32-.35.26-.31-.16-.46-.07-.42-.35,0-.47.43-.38.93.3,1.18.67.39,1.52,1.7,2.01.32.23-1.22-1.57-2.93-3-4.87-3.51-1.04-.28-.94.59.33.16.55.08,2.11.88,1.8,1.52.01.46.11.82.29,1.06-.32.49-.52.29-.6-.59-.28.06-.53-.13-.75-.56-.51-.05-.68-.23-.5-.54-.93-.22-2.85-.58-4.22-.43l-.15-.2c-1.65-1.21-4.42,1.29-5.48,2.62-.51.64-1.27,2.11-.24.7l.41-.04.21.07c-.2.88.14.95.94.82l.1.21.02.21c-1.3.31-2.64.59-4.03.84-.43,1.11.31,1.4,2.22.85l.23.29c.42.23.16.44-.78.62.34.07.34.55,0,.62-.34-1-.82-.36-1.65-.46-1.23-.15-1.38-2.19-.37-2.73.27-.15.64-.09.89-.29.22-.18,1.17-2,1.61-2.53,1-1.2,2.33-2.09,3.75-2.74.95-.08,1.68-.39,2.19-.94Z" fill="#cf942d"/>
          <path d="M45.2,57.07c.36-.43,1.86-.78,2.31-.39.57,1.93,1.25,2.15,2.25.21.55-.57,2.02-.15,2.63.18.43-.04.46.2.16.47,0,.32-.16.25-.31,0l-.19.32c-1.05-.27-1.8.04-2.27.92,1.07.06,2.14.07,3.21.04l.34.28c0-.41.2-.45.47-.16.15,0,1.07.22,1.18.3.53.36.13,1.14.69,1.42-.09.25-.22.24-.31,0-.6.21-1.22.22-1.84.22-3.1,0-6.2,0-9.29,0-.63,0-1.24-.02-1.84-.22-.35.13-.83.27-1.09,0,1.11-.16.38-.72.66-1.22.1-.18,1.29-.49,1.53-.5.24-.34.36-.24.31.16,1.08-.33,2.24-.44,3.48-.33-.26-.92-.93-1.22-2.03-.9l-.19-.33c-.13-.04-.13-.1,0-.16-.5-.17-.29-.58.16-.31Z" fill="#dd8725"/>
          <path d="M41.29,60.66c.36-.02.73,0,1.09,0,.08.18.06.3-.12.31l-1.76.15c.31.26.17,1.03.08,1.41l.11-.31h16.12l.19.31c-.2-.63-.18-1.1.08-1.41-.61-.07-1.28-.1-1.99-.11-.17-.14.05-.32.27-.36.1,0,.21,0,.31,0,.52.01,1.72-.18,1.96.31.2.41.26,2-.47,2.03l-16.95-.08c-.71-.31-.69-1.99.11-2.23.31-.09.66-.02.98-.03Z" fill="#cf9433"/>
          <path d="M49.58,51.6c.26-.13.4-.17.31.16.39-.23.51.03.16.31.33.08.28.16,0,.31.43.13.18.51.08.27-.05-.12.1-.12.23.04.51.18,1.27-.27,1.71-.62h.32c.23-.23.36-.16.31.15.22-.22.31-.12.16.16-.13.41-.91.96-1.37,1.14-1.39.09-1.26.61-.06,1.06l.18.45c.44,1.45,1.67,1.27,1.87,1.57.22.33-.5.85-.78.93-.05.14-.1.14-.16,0-.11-.14-.11-.31-.16-.47-.85-.38-1.38-.85-1.65-1.77-.12-.17-.6-.26-.58-.24,1.35,1.34-.73,1.5-1.3.3l-.37.11c-.68.58-1.99,1.26-1.67-.18.81-.61.41-.55-.16-.12-.38.8-.82,1.38-1.47,1.9-.21.01-.12.23-.16.31-.17.32-.34.38-.47,0-.18-.05-.66-.49-.62-.69.39-.51.96-.44,1.41-.95.36-.4.48-.84.93-1.34.16-.23.81-.56.94-.31.13-.23.34-.12.63.31.07-.12.18-.23.31-.21,1.29.21,1.54-.1,1.32-1.45-.28-.31-.35-.59-.22-.84-.34-.1-.39-.21-.16-.31.13-.44.36-.45.47,0Z" fill="#cf9433"/>
          <path d="M41.6,44.72c.5.07.4,1.1.08,1.35l.08.53c.36.19.65.94.31,1.25l.41.19c.42.86.89,1.69,1.43,2.49l-.11.44c.29.05.17.54-.16.31-1.55-1.91-2.63-3.25-2.5-5.94,0-.19-.04-.48,0-.62.17-.15.37-.22.47,0Z" fill="#a42f28"/>
          <path d="M55.83,48.63c-.39,1.24-1.45,2.65-2.35,3.59-.27.22-.48.28-.63.16-.06-.04-.1-.12-.16-.16-.24-.17-.13-.41.16-.31l.18-.54c.87-.87,1.58-1.88,2.13-3.02l.35-.03c.23-.3.34-.2.31.31Z" fill="#ae2c28"/>
          <path d="M44.1,50.97c.04.63.3,1.05.78,1.25l.12-.17c.67.36,1.35.57,2.06.64-.46-.4.2-1.08.47-.47.17.08.17.23,0,.47.41.18.52,1.36.31,1.72-.1-.04-.61-.28-.63-.31-.2.05-.27-.08-.19-.4-.61-.37-1.27-.66-1.99-.85-.96-.62-.8-.81-1.41-1.56.19-.02.13-.29.16-.31.05-.14.1-.14.16,0,.04-.14.09-.14.16,0Z" fill="#ca943e"/>
          <path d="M56.3,44.88s.16.14.16.31c-.02.73-.39,2.7-.63,3.44l-.31-.31c-.26,0-.26-.1,0-.31-.46-.24-.29-1.31.16-1.56-.45-.3-.23-1.47.31-1.56,0-.34.21-.33.31,0Z" fill="#a1351f"/>
          <path d="M53.49,52.22c-.28.3-1.77,1.5-1.99,1.56-.25.06-.56-.02-.83,0-.38.29.85.56.91.65.1.15-.02.45.03.6-.19-.39-1.63-.86-1.56-1.17.08-.37,1.25-.49,1.67-.68s.81-.64,1.14-.81c.16-.08.44-.09.63-.16Z" fill="#f9f3db"/>
          <path d="M45.04,57.38s.02.12,0,.16c.37.61-.65,1.42-1.25,1.56-.13,0-.29-.16-.31-.16l1.09-1.56c.12.03.33-.02.47,0Z" fill="#a63c29"/>
          <path d="M52.55,57.54c.05,0,.11.01.16,0l1.09,1.41s-.21.16-.47.16c-.54-.23-1.58-1.02-1.09-1.56.1,0,.22.02.31,0Z" fill="#a73c24"/>
          <path d="M47.23,54.1l-.94.31s-.05-.19.04-.27c.13-.12.66-.06.59-.43-.02-.1-1.47-.6-1.88-.86.47.08,1.92.45,2.11.79.09.16.05.42.08.46Z" fill="#efdbad"/>
          <path d="M47.54,35.66c-.02,1.02-1.44.74-2.19.94.79-.36,1.43-.42,2.19-.94Z" fill="#f3e6c3"/>
          <path d="M49.58,41.6l2.88.15.09.16c.29-.27.45-.27.47,0,1.01.48,4.9.53,5.56,1.08.31.26.34,1.47.08,1.66-.19.14-1.94-.18-2.36-.25-.18.17-.37.18-.59.14-3.98-.62-7.72-1.02-11.76-.45l-.31-.16c-.53-.02-1.05.04-1.56.16-.05.14-.1.14-.16,0-.49.05-2.24.37-2.5.24-.42-.21-.44-1.26-.17-1.58.34-.42,3.55-.56,4.24-.84,1.87-.6,4.16-.61,6.1-.31Z" fill="#f2c92e"/>
          <path d="M47.54,37.54c1.3-.1,1.93.11,3.06.3.39.07.91-.08,1.23,0,.19.04.06.28.09.32l-.25.32-2.18-.48c-.84-.1-1.55-.13-2.18.51-1.35-.04-2.77.17-2.14,1.8l-.13.18c-.45.95,1.71.65,2.52.42,1.49-.04,2.92.1,4.36.36.09-.23.22-.23.31,0,.69.11,1.39.16,2.1.14l.09.17c.17-.31.37-.28.66-.17-.27-.48-.28-.84-.03-1.08.84.37.63.62.63,1.56h-2.66s-.47,0-.47,0c.11-.24.03-.3-.23-.17l-2.74-.15c-2.04.03-4.06.2-6.1.31h-1.25s0-1.09,0-1.09c-.34-.68.98-1.95,1.77-1.68.32-.82,1.09-1.41,1.92-1.66.44-.13,1.44-.38,1.63.06Z" fill="#cc9437"/>
          <path d="M56.3,44.41c.02.15-.03.34,0,.47-.1-.02-.23.03-.31,0l-.49.18c-4.47-1.04-9.18-.84-13.62-.05-.13.02-.23-.15-.27-.29-.16,0-.31,0-.47,0,.15-.53.93-.05.78-.62.05,0,.1,0,.16,0,.51-.12,1.03-.17,1.56-.16,5.2-.56,7.55-.36,12.66.47Z" fill="#e37e26"/>
          <path d="M47.54,37.54c-.22.02-.96.14-1.29.18-.88.12-2.25,1.12-2,2.16-.26.03-.15-.38-.4-.46-.65-.21-1.35,1.02-1.63,1.4-.42.58-.51,1.1-1.41.94.49-1.5,2.13-3.28,3.51-4.07.67-.38,3.3-1.61,3.21-.15Z" fill="#f5c536"/>
          <path d="M53.49,38.79c-.29-.46-1.32-1.13-1.84-1.21-.33-.05-.86.26-1.11.1-.22-.14-.36-.93.36-.92,2.15,0,5.75,3.1,6.34,5.09.12.41-.66.25-.87.09-.48-.37-.35-1.51-1.63-2.2-.18.27-.36.19-.56,0-.44.39-.67.08-.69-.94Z" fill="#f7c537"/>
          <path d="M48.43,35.54c2.11-.65,2.14,2.46,0,1.81-.73-.22-.74-1.59,0-1.81Z" fill="#f3c732"/>
          <path d="M45.2,57.07c-.8-.5-.1-.39.14-.56.79-.57.73-1.22,1.19-1.64.34-.32,1.07-.56,1.18.08-.04.18-.97.51-.62.86s1.21-.96,1.93-.74c.31.09.51,1.08,1.35.74.11-.46-.7-.48-.62-.86.1-.46,1.01-.17,1.26.15.19.23.2.59.39.86.3.43.75.57,1.03.87.15.17-.02.22-.02.23-.61.2-1.8-.27-2.24-.17-.12.03-.97,1.74-1.59,1.74-.2,0-.91-.69-1.02-.86-.16-.26-.27-.99-.31-1.02-.16-.12-1.62.5-2.03.31Z" fill="#f3c731"/>
          <path d="M42.54,59.72c.39-.4.8,0,1.19-.01,3.26-.07,6.86-.39,10.13-.14.63.05,1.03.08.87.78l-12.08.07c-.33-.02-.22-.44-.12-.7Z" fill="#c5cfd4"/>
          <path d="M55.36,60.66c.01.09-.03.29,0,.31.12.09,1.55-.07,1.88,0,.04.11-.16.14-.16.15l-.11.31h-16.28l-.19-.31c.5-.37,1.37.07,1.88-.47,4.27-.09,8.71-.07,12.98,0Z" fill="#dd8725"/>
          <path d="M52.23,57.54c.12.64.91.89,1.09,1.56-1.1-.02-2.48.12-3.53,0-.24-.03-.39-.01-.54-.24.18-.14,1.09-1.3,1.2-1.32.49-.1,1.22.03,1.76,0Z" fill="#ec652b"/>
          <path d="M45.04,57.54c.43.08,1.56-.14,1.84.03.08.04.94,1.41.81,1.53-1.3.02-2.61-.02-3.91,0,.4-.55.94-.94,1.25-1.56Z" fill="#eb652b"/>
          <path d="M42.54,59.72c.07.24-.22.6.23.63,3.88.26,8.05-.2,11.96,0l-12.35.16c0-.32-.08-.54.16-.78Z" fill="#cfd0c8"/>
          <path d="M57.08,61.13c0,.16.42,1.41-.08,1.41h-16.42c-.32,0-.31-1.19-.08-1.41h16.57Z" fill="#f4c332"/>
          <path d="M48.01,49.41c.93-.33,1.14-.25,1.11.72.05-.35.2-.59.45-.72.28-.25.57-.01.63.31,1.21.83.4,1.48-.63,1.87-.12-.03-.32,0-.47,0-.54.14-1.06.35-1.56.62-.02.02-.16-.04-.27.05-.07.06-.08.3-.2.42-.72-.06-1.42-.29-2.09-.67l-.09.2c-.06-.03-.23.04-.35,0-.45-.19-.5-.8-.43-1.24.11-.39.54-.58,1.31-.57.18-.31.37-.43.57-.37q.47.12,0,0c-.4.05-.31-.34,0-.5.71.07,1.38.01,2.02-.13Z" fill="#d79328"/>
          <path d="M49.58,48.79c.3-.09,1.53-.04,1.85.13.52.28.76.7.85,1.26.68.48,1.27.93.58,1.73,0,.08-.13.21-.16.31-.1-.06-.21-.1-.31-.16l-.2-.07c-.09-.48-.15-.75-.58-1.02-.25,0-.31-.21-.16-.62l-.15-.48c-.31.26-.98.31-1.09-.16-.64-.09-.35-.15-.63-.31-.2.23-.47.16-.82-.22-.06.05-.61.39-.75.22-.07.05-.11.27-.27.31-.48.11-1.22-.11-1.66,0-.19.05-.07.26-.1.32-.61,1.06-.55.42-1.46.63-.03,0-.17.18-.42.31-.04.02-.1-.02-.16,0-.56-.79.45-.93,1.09-.96.3-.89.97-1.18,2.01-.88.35-.3.67-.47.97-.5.47-.76,1.16-.55,1.56.16Z" fill="#e38627"/>
          <path d="M49.26,51.91c.55.56.83,1.19.51,1.99-.43,1.04-1.11.84-1.91.51-.35-.61-.32-1.05-.31-1.72.16-.69,1.11-1.29,1.72-.78Z" fill="#c5cfd4"/>
          <path d="M51.61,50.97c.7-.28.9.54.78,1.09-.1.49-1.11.67-1.44.8-.12.05-.62.89-.59-.17.24-.28,1.15-.78,1.56-.94.1-.04-1.76,1.09-1.88.62-.01-.1.02-.22,0-.31.26-.36,1.15-1.24,1.56-1.09Z" fill="#f5bd38"/>
          <path d="M51.3,49.88c.57.82-.63,1.91-1.41,1.87-.04-.04-.26-.14-.31-.16.58-.44,1.95-1.75.31-.94l.31-.94c.37.05.69-.08,1.09.16Z" fill="#f5bb38"/>
          <path d="M51.61,50.97c-.21.09-1,1.14-1.56,1.09-.01-.06-.12-.28-.16-.31.6-.6,1.54-.78,1.41-1.87.46.27.31.61.31,1.09Z" fill="#d79328"/>
          <path d="M50.05,52.38l1.88-.62c-.28.52-1.03.72-1.56.94-.1.04-.28.2-.31.16-.02-.15.02-.32,0-.47Z" fill="#d79328"/>
          <path d="M49.11,51.6c.06.09.09.25.16.31-.98-.18-1.13.16-1.72.78,0-.16,0-.31,0-.47.69-.58.57-.63,1.56-.62Z" fill="#d4b285"/>
          <path d="M55.99,44.88c-.16.55-.23.99-.31,1.56l-.21.42c-.71.24-.44.8.06,1.14-.02.09.02.23,0,.31-.09.32-1.23,2.15-1.5,2.49-.31.4-.76.8-1.16,1.1.14-1.36-.48-1-.85-1.57-.11-.17-.08-.44-.18-.6-.59-.92-1.02-.5-1.83-.68-.17-.04-.3-.23-.42-.27-.64-.36-.54-.62-.29-1.22,2.08-2.06-1.95-3.58-1.38-.62.86.74.9,1.31.11,1.69-.88,1.52-1.57.38-2.31.81-.11.07-.28.7-.5.83-.39.22-1.2-.14-1.25.7-.05.02-.13-.02-.16,0-.6-1.11-1.3-1.9-1.72-3.12.46-.89.35-1.31-.31-1.25-.34-.48-.08-1.28-.16-1.87.58-.01.78-.25,1.18-.3,3.69-.47,9.72-.63,13.2.46Z" fill="#ee4c28"/>
          <path d="M41.76,46.6c0-.17-.07-.53.08-.62.62.75,1.11.39.68,1.47-.09.24-.11.48-.45.4-.19-.54-.31-.57-.31-1.25Z" fill="#f9ab47"/>
          <path d="M44.89,52.22c-.81-.82-.85-1.55.51-1.38l1.67,1.22c-.58.02-.9-.42-1.48-.47-.32-.03-.46-.07-.39.31l1.88.78c-.4.39-1.7-.27-2.19-.47Z" fill="#f5bf38"/>
          <path d="M55.67,46.44c-.06.46-.06,1.13-.16,1.56-.3.16-.29.28-.52-.03-.62-.87-.17-1.22.67-1.53Z" fill="#fab34a"/>
          <path d="M49.58,41.6c1.07-.02,2.14.01,3.2,0l-.23.31-2.97-.31Z" fill="#cf942d"/>
          <path d="M43.64,43.94c-.49.05-1.05.1-1.56.16.37-.33,1.07-.09,1.56-.16Z" fill="#cf942d"/>
          <path d="M51.92,38.16c.32.39.86.44,1.25,1.09.13.4.22.78.28,1.13.56-.65.99-.72,1.28-.2.02,0,.22.11.31.16l.47,1.41c-.38.09-.76-.13-1.09-.16-.32-.1-.43-.2-.13-.17-.69.02-1.38-.03-2.06-.14-.1,0-.21,0-.31,0-.42-.05-.4-.19,0-.31,1.11-.39.76-2-.44-1.89l-1.95-.61c-1-.14-1.43-.12-2.08.62-1.68-.29-2.24.26-1.68,1.63l-.26.25c-.48.42-1.21-.06-.47-.47-.22-.67-.61-.99.05-1.66.6-.61,1.43-.43,2.15-.59.35-.08.57-.35,1-.41,1.37-.18,2.36.44,3.68.32Z" fill="#cfd0c8"/>
          <path d="M45.04,40.51c.04.11-.05.42,0,.47.03.03.34,0,.47,0,0-.14.06-.24.18-.3h1.36c.71-.56,2.48-.56,3.2.02l1.4-.02.27.3v.31c-2.52-.07-4.91-.16-7.42,0-.33.02-1.89.38-1.96.31-.1-.45.34-1.22.78-1.34.5-.14,1.04.81,1.73.25Z" fill="#d2c9b8"/>
          <path d="M52.23,41.29c.36,0,2.1-.07,2.19,0,.03.02-.02.22,0,.31-.7-.05-1.53.04-2.19-.31Z" fill="#d2c9b8"/>
          <path d="M53.49,38.79c.22.34.18.52.16.94.61-.52.61-.27,1.09,0v.47c-.92-.2-.81.4-1.05.46-.88.23-.41-.75-.52-1.4.13.22.2.34.16.62h.15s0-1.09,0-1.09Z" fill="#e0a032"/>
          <path d="M48.56,55.82c.55-.12.51,1.49.15,1.56-.55.12-.51-1.49-.15-1.56Z" fill="#d89e19"/>
          <path d="M49.58,49.41c.04.58-.26,1.27-.78,1.56v-1.56c-.68,0-.44.79-.47,1.25l-.31-1.25c.2-.13.53-.42.73-.44.28-.03.6.29.84.44Z" fill="#f6c037"/>
          <path d="M45.98,50.04c.25-.52,1.97.02,1.72.94l-.94-.39.63.86c-.37.29-1.48-1.24-1.41-1.4Z" fill="#f4ba38"/>
          <path d="M48.01,48.63c.71-1.22-.24-.88-.43-1.68-.07-.31-.1-.87-.03-1.18.06-.29,1.05-.9,1.45-.86.25.03,1.27,1.05,1.29,1.3.07.97-1.36,1.5-.72,2.58-.58-.21-.85-.5-1.56-.16Z" fill="#e15e20"/>
          <path d="M45.51,40.97c-.09-.44-.26-.99-.22-1.44.09-1.13,1.46-.62,2.14-.76.14-.03.41-.58.54-.61.29-.06,1.23-.06,1.54-.02.26.03,1.57.51,2.03.63.24.06.7-.07.83.03.07.05.08.35.17.49.07.1.28.09.31.22.09.41-.06,1.01,0,1.46-.31,0-.63-.01-.94,0-.48.02-1.53.09-1.92,0-.13-.03-.04-.28-.33-.32-.41-.05-1.65-.05-2.05,0-.29.04-.21.29-.33.32-.34.08-1.36.03-1.77,0Z" fill="#c1d3df"/>
          <path d="M48.74,45.2c.29-.05,1.14.97,1.14,1.32s-.88,1.4-1.16,1.33c-.15-.36-1.03-1.03-1.03-1.33,0-.17.88-1.29,1.04-1.32Z" fill="#f5c433"/>
        </g>
        <g>
          <path d="M29.92,12.34c.06-.04.15-.28.31-.38.6-.38,1.85-.4,2.35.15.2.21.28.68.46.79.2.12,1.15.18,1.57.31,1.79.57,3.25,1.81,4.35,3.31.37.51,1.08,1.97,1.36,2.23.6.54,1.37.13,1.48,1.49.19,2.41-1.56,1.3-2.98,1.64-.37,0-.38-.01-.16-.31-.44-.13-.43-.34,0-.47l.21-.28c1.82.56,2.43.25,1.85-.92-1.61-.36-3.25-.64-4.92-.83-.28-.03-.42-.16-.43-.47l.05-.19,2.39.12c.24-.06.11-1.05-.41-1.49-.29.32-.35.26-.31-.16-.46-.07-.42-.35,0-.47.43-.38.93.3,1.18.67.39,1.52,1.7,2.01.32.23-1.22-1.57-2.93-3-4.87-3.51-1.04-.28-.94.59.33.16.55.08,2.11.88,1.8,1.52.01.46.11.82.29,1.06-.32.49-.52.29-.6-.59-.28.06-.53-.13-.75-.56-.51-.05-.68-.23-.5-.54-.93-.22-2.85-.58-4.22-.43l-.15-.2c-1.65-1.21-4.42,1.29-5.48,2.62-.51.64-1.27,2.11-.24.7l.41-.04.21.07c-.2.88.14.95.94.82l.1.21.02.21c-1.3.31-2.64.59-4.03.84-.43,1.11.31,1.4,2.22.85l.23.29c.42.23.16.44-.78.62.34.07.34.55,0,.62-.34-1-.82-.36-1.65-.46-1.23-.15-1.38-2.19-.37-2.73.27-.15.64-.09.89-.29.22-.18,1.17-2,1.61-2.53,1-1.2,2.33-2.09,3.75-2.74.95-.08,1.68-.39,2.19-.94Z" fill="#cf942d"/>
          <path d="M27.58,33.74c.36-.43,1.86-.78,2.31-.39.57,1.93,1.25,2.15,2.25.21.55-.57,2.02-.15,2.63.18.43-.04.46.2.16.47,0,.32-.16.25-.31,0l-.19.32c-1.05-.27-1.8.04-2.27.92,1.07.06,2.14.07,3.21.04l.34.28c0-.41.2-.45.47-.16.15,0,1.07.22,1.18.3.53.36.13,1.14.69,1.42-.09.25-.22.24-.31,0-.6.21-1.22.22-1.84.22-3.1,0-6.2,0-9.29,0-.63,0-1.24-.02-1.84-.22-.35.13-.83.27-1.09,0,1.11-.16.38-.72.66-1.22.1-.18,1.29-.49,1.53-.5.24-.34.36-.24.31.16,1.08-.33,2.24-.44,3.48-.33-.26-.92-.93-1.22-2.03-.9l-.19-.33c-.13-.04-.13-.1,0-.16-.5-.17-.29-.58.16-.31Z" fill="#dd8725"/>
          <path d="M23.67,37.34c.36-.02.73,0,1.09,0,.08.18.06.3-.12.31l-1.76.15c.31.26.17,1.03.08,1.41l.11-.31h16.12l.19.31c-.2-.63-.18-1.1.08-1.41-.61-.07-1.28-.1-1.99-.11-.17-.14.05-.32.27-.36.1,0,.21,0,.31,0,.52.01,1.72-.18,1.96.31.2.41.26,2-.47,2.03l-16.95-.08c-.71-.31-.69-1.99.11-2.23.31-.09.66-.02.98-.03Z" fill="#cf9433"/>
          <path d="M31.95,28.28c.26-.13.4-.17.31.16.39-.23.51.03.16.31.33.08.28.16,0,.31.43.13.18.51.08.27-.05-.12.1-.12.23.04.51.18,1.27-.27,1.71-.62h.32c.23-.23.36-.16.31.15.22-.22.31-.12.16.16-.13.41-.91.96-1.37,1.14-1.39.09-1.26.61-.06,1.06l.18.45c.44,1.45,1.67,1.27,1.87,1.57.22.33-.5.85-.78.93-.05.14-.1.14-.16,0-.11-.14-.11-.31-.16-.47-.85-.38-1.38-.85-1.65-1.77-.12-.17-.6-.26-.58-.24,1.35,1.34-.73,1.5-1.3.3l-.37.11c-.68.58-1.99,1.26-1.67-.18.81-.61.41-.55-.16-.12-.38.8-.82,1.38-1.47,1.9-.21.01-.12.23-.16.31-.17.32-.34.38-.47,0-.18-.05-.66-.49-.62-.69.39-.51.96-.44,1.41-.95.36-.4.48-.84.93-1.34.16-.23.81-.56.94-.31.13-.23.34-.12.63.31.07-.12.18-.23.31-.21,1.29.21,1.54-.1,1.32-1.45-.28-.31-.35-.59-.22-.84-.34-.1-.39-.21-.16-.31.13-.44.36-.45.47,0Z" fill="#cf9433"/>
          <path d="M23.98,21.4c.5.07.4,1.1.08,1.35l.08.53c.36.19.65.94.31,1.25l.41.19c.42.86.89,1.69,1.43,2.49l-.11.44c.29.05.17.54-.16.31-1.55-1.91-2.63-3.25-2.5-5.94,0-.19-.04-.48,0-.62.17-.15.37-.22.47,0Z" fill="#a42f28"/>
          <path d="M38.21,25.31c-.39,1.24-1.45,2.65-2.35,3.59-.27.22-.48.28-.63.16-.06-.04-.1-.12-.16-.16-.24-.17-.13-.41.16-.31l.18-.54c.87-.87,1.58-1.88,2.13-3.02l.35-.03c.23-.3.34-.2.31.31Z" fill="#ae2c28"/>
          <path d="M26.48,27.65c.04.63.3,1.05.78,1.25l.12-.17c.67.36,1.35.57,2.06.64-.46-.4.2-1.08.47-.47.17.08.17.23,0,.47.41.18.52,1.36.31,1.72-.1-.04-.61-.28-.63-.31-.2.05-.27-.08-.19-.4-.61-.37-1.27-.66-1.99-.85-.96-.62-.8-.81-1.41-1.56.19-.02.13-.29.16-.31.05-.14.1-.14.16,0,.04-.14.09-.14.16,0Z" fill="#ca943e"/>
          <path d="M38.68,21.56s.16.14.16.31c-.02.73-.39,2.7-.63,3.44l-.31-.31c-.26,0-.26-.1,0-.31-.46-.24-.29-1.31.16-1.56-.45-.3-.23-1.47.31-1.56,0-.34.21-.33.31,0Z" fill="#a1351f"/>
          <path d="M35.86,28.9c-.28.3-1.77,1.5-1.99,1.56-.25.06-.56-.02-.83,0-.38.29.85.56.91.65.1.15-.02.45.03.6-.19-.39-1.63-.86-1.56-1.17.08-.37,1.25-.49,1.67-.68s.81-.64,1.14-.81c.16-.08.44-.09.63-.16Z" fill="#f9f3db"/>
          <path d="M27.42,34.06s.02.12,0,.16c.37.61-.65,1.42-1.25,1.56-.13,0-.29-.16-.31-.16l1.09-1.56c.12.03.33-.02.47,0Z" fill="#a63c29"/>
          <path d="M34.93,34.21c.05,0,.11.01.16,0l1.09,1.41s-.21.16-.47.16c-.54-.23-1.58-1.02-1.09-1.56.1,0,.22.02.31,0Z" fill="#a73c24"/>
          <path d="M29.61,30.78l-.94.31s-.05-.19.04-.27c.13-.12.66-.06.59-.43-.02-.1-1.47-.6-1.88-.86.47.08,1.92.45,2.11.79.09.16.05.42.08.46Z" fill="#efdbad"/>
          <path d="M29.92,12.34c-.02,1.02-1.44.74-2.19.94.79-.36,1.43-.42,2.19-.94Z" fill="#f3e6c3"/>
          <path d="M31.95,18.28l2.88.15.09.16c.29-.27.45-.27.47,0,1.01.48,4.9.53,5.56,1.08.31.26.34,1.47.08,1.66-.19.14-1.94-.18-2.36-.25-.18.17-.37.18-.59.14-3.98-.62-7.72-1.02-11.76-.45l-.31-.16c-.53-.02-1.05.04-1.56.16-.05.14-.1.14-.16,0-.49.05-2.24.37-2.5.24-.42-.21-.44-1.26-.17-1.58.34-.42,3.55-.56,4.24-.84,1.87-.6,4.16-.61,6.1-.31Z" fill="#f2c92e"/>
          <path d="M29.92,14.21c1.3-.1,1.93.11,3.06.3.39.07.91-.08,1.23,0,.19.04.06.28.09.32l-.25.32-2.18-.48c-.84-.1-1.55-.13-2.18.51-1.35-.04-2.77.17-2.14,1.8l-.13.18c-.45.95,1.71.65,2.52.42,1.49-.04,2.92.1,4.36.36.09-.23.22-.23.31,0,.69.11,1.39.16,2.1.14l.09.17c.17-.31.37-.28.66-.17-.27-.48-.28-.84-.03-1.08.84.37.63.62.63,1.56h-2.66s-.47,0-.47,0c.11-.24.03-.3-.23-.17l-2.74-.15c-2.04.03-4.06.2-6.1.31h-1.25s0-1.09,0-1.09c-.34-.68.98-1.95,1.77-1.68.32-.82,1.09-1.41,1.92-1.66.44-.13,1.44-.38,1.63.06Z" fill="#cc9437"/>
          <path d="M38.68,21.09c.02.15-.03.34,0,.47-.1-.02-.23.03-.31,0l-.49.18c-4.47-1.04-9.18-.84-13.62-.05-.13.02-.23-.15-.27-.29-.16,0-.31,0-.47,0,.15-.53.93-.05.78-.62.05,0,.1,0,.16,0,.51-.12,1.03-.17,1.56-.16,5.2-.56,7.55-.36,12.66.47Z" fill="#e37e26"/>
          <path d="M29.92,14.21c-.22.02-.96.14-1.29.18-.88.12-2.25,1.12-2,2.16-.26.03-.15-.38-.4-.46-.65-.21-1.35,1.02-1.63,1.4-.42.58-.51,1.1-1.41.94.49-1.5,2.13-3.28,3.51-4.07.67-.38,3.3-1.61,3.21-.15Z" fill="#f5c536"/>
          <path d="M35.86,15.46c-.29-.46-1.32-1.13-1.84-1.21-.33-.05-.86.26-1.11.1-.22-.14-.36-.93.36-.92,2.15,0,5.75,3.1,6.34,5.09.12.41-.66.25-.87.09-.48-.37-.35-1.51-1.63-2.2-.18.27-.36.19-.56,0-.44.39-.67.08-.69-.94Z" fill="#f7c537"/>
          <path d="M30.81,12.21c2.11-.65,2.14,2.46,0,1.81-.73-.22-.74-1.59,0-1.81Z" fill="#f3c732"/>
          <path d="M27.58,33.74c-.8-.5-.1-.39.14-.56.79-.57.73-1.22,1.19-1.64.34-.32,1.07-.56,1.18.08-.04.18-.97.51-.62.86s1.21-.96,1.93-.74c.31.09.51,1.08,1.35.74.11-.46-.7-.48-.62-.86.1-.46,1.01-.17,1.26.15.19.23.2.59.39.86.3.43.75.57,1.03.87.15.17-.02.22-.02.23-.61.2-1.8-.27-2.24-.17-.12.03-.97,1.74-1.59,1.74-.2,0-.91-.69-1.02-.86-.16-.26-.27-.99-.31-1.02-.16-.12-1.62.5-2.03.31Z" fill="#f3c731"/>
          <path d="M24.92,36.4c.39-.4.8,0,1.19-.01,3.26-.07,6.86-.39,10.13-.14.63.05,1.03.08.87.78l-12.08.07c-.33-.02-.22-.44-.12-.7Z" fill="#c5cfd4"/>
          <path d="M37.74,37.34c.01.09-.03.29,0,.31.12.09,1.55-.07,1.88,0,.04.11-.16.14-.16.15l-.11.31h-16.28l-.19-.31c.5-.37,1.37.07,1.88-.47,4.27-.09,8.71-.07,12.98,0Z" fill="#dd8725"/>
          <path d="M34.61,34.21c.12.64.91.89,1.09,1.56-1.1-.02-2.48.12-3.53,0-.24-.03-.39-.01-.54-.24.18-.14,1.09-1.3,1.2-1.32.49-.1,1.22.03,1.76,0Z" fill="#ec652b"/>
          <path d="M27.42,34.21c.43.08,1.56-.14,1.84.03.08.04.94,1.41.81,1.53-1.3.02-2.61-.02-3.91,0,.4-.55.94-.94,1.25-1.56Z" fill="#eb652b"/>
          <path d="M24.92,36.4c.07.24-.22.6.23.63,3.88.26,8.05-.2,11.96,0l-12.35.16c0-.32-.08-.54.16-.78Z" fill="#cfd0c8"/>
          <path d="M39.46,37.81c0,.16.42,1.41-.08,1.41h-16.42c-.32,0-.31-1.19-.08-1.41h16.57Z" fill="#f4c332"/>
          <path d="M30.39,26.09c.93-.33,1.14-.25,1.11.72.05-.35.2-.59.45-.72.28-.25.57-.01.63.31,1.21.83.4,1.48-.63,1.87-.12-.03-.32,0-.47,0-.54.14-1.06.35-1.56.62-.02.02-.16-.04-.27.05-.07.06-.08.3-.2.42-.72-.06-1.42-.29-2.09-.67l-.09.2c-.06-.03-.23.04-.35,0-.45-.19-.5-.8-.43-1.24.11-.39.54-.58,1.31-.57.18-.31.37-.43.57-.37q.47.12,0,0c-.4.05-.31-.34,0-.5.71.07,1.38.01,2.02-.13Z" fill="#d79328"/>
          <path d="M31.95,25.46c.3-.09,1.53-.04,1.85.13.52.28.76.7.85,1.26.68.48,1.27.93.58,1.73,0,.08-.13.21-.16.31-.1-.06-.21-.1-.31-.16l-.2-.07c-.09-.48-.15-.75-.58-1.02-.25,0-.31-.21-.16-.62l-.15-.48c-.31.26-.98.31-1.09-.16-.64-.09-.35-.15-.63-.31-.2.23-.47.16-.82-.22-.06.05-.61.39-.75.22-.07.05-.11.27-.27.31-.48.11-1.22-.11-1.66,0-.19.05-.07.26-.1.32-.61,1.06-.55.42-1.46.63-.03,0-.17.18-.42.31-.04.02-.1-.02-.16,0-.56-.79.45-.93,1.09-.96.3-.89.97-1.18,2.01-.88.35-.3.67-.47.97-.5.47-.76,1.16-.55,1.56.16Z" fill="#e38627"/>
          <path d="M31.64,28.59c.55.56.83,1.19.51,1.99-.43,1.04-1.11.84-1.91.51-.35-.61-.32-1.05-.31-1.72.16-.69,1.11-1.29,1.72-.78Z" fill="#c5cfd4"/>
          <path d="M33.99,27.65c.7-.28.9.54.78,1.09-.1.49-1.11.67-1.44.8-.12.05-.62.89-.59-.17.24-.28,1.15-.78,1.56-.94.1-.04-1.76,1.09-1.88.62-.01-.1.02-.22,0-.31.26-.36,1.15-1.24,1.56-1.09Z" fill="#f5bd38"/>
          <path d="M33.67,26.56c.57.82-.63,1.91-1.41,1.87-.04-.04-.26-.14-.31-.16.58-.44,1.95-1.75.31-.94l.31-.94c.37.05.69-.08,1.09.16Z" fill="#f5bb38"/>
          <path d="M33.99,27.65c-.21.09-1,1.14-1.56,1.09-.01-.06-.12-.28-.16-.31.6-.6,1.54-.78,1.41-1.87.46.27.31.61.31,1.09Z" fill="#d79328"/>
          <path d="M32.42,29.06l1.88-.62c-.28.52-1.03.72-1.56.94-.1.04-.28.2-.31.16-.02-.15.02-.32,0-.47Z" fill="#d79328"/>
          <path d="M31.49,28.28c.06.09.09.25.16.31-.98-.18-1.13.16-1.72.78,0-.16,0-.31,0-.47.69-.58.57-.63,1.56-.62Z" fill="#d4b285"/>
          <path d="M38.36,21.56c-.16.55-.23.99-.31,1.56l-.21.42c-.71.24-.44.8.06,1.14-.02.09.02.23,0,.31-.09.32-1.23,2.15-1.5,2.49-.31.4-.76.8-1.16,1.1.14-1.36-.48-1-.85-1.57-.11-.17-.08-.44-.18-.6-.59-.92-1.02-.5-1.83-.68-.17-.04-.3-.23-.42-.27-.64-.36-.54-.62-.29-1.22,2.08-2.06-1.95-3.58-1.38-.62.86.74.9,1.31.11,1.69-.88,1.52-1.57.38-2.31.81-.11.07-.28.7-.5.83-.39.22-1.2-.14-1.25.7-.05.02-.13-.02-.16,0-.6-1.11-1.3-1.9-1.72-3.12.46-.89.35-1.31-.31-1.25-.34-.48-.08-1.28-.16-1.87.58-.01.78-.25,1.18-.3,3.69-.47,9.72-.63,13.2.46Z" fill="#ee4c28"/>
          <path d="M24.14,23.28c0-.17-.07-.53.08-.62.62.75,1.11.39.68,1.47-.09.24-.11.48-.45.4-.19-.54-.31-.57-.31-1.25Z" fill="#f9ab47"/>
          <path d="M27.26,28.9c-.81-.82-.85-1.55.51-1.38l1.67,1.22c-.58.02-.9-.42-1.48-.47-.32-.03-.46-.07-.39.31l1.88.78c-.4.39-1.7-.27-2.19-.47Z" fill="#f5bf38"/>
          <path d="M38.05,23.12c-.06.46-.06,1.13-.16,1.56-.3.16-.29.28-.52-.03-.62-.87-.17-1.22.67-1.53Z" fill="#fab34a"/>
          <path d="M31.95,18.28c1.07-.02,2.14.01,3.2,0l-.23.31-2.97-.31Z" fill="#cf942d"/>
          <path d="M26.01,20.62c-.49.05-1.05.1-1.56.16.37-.33,1.07-.09,1.56-.16Z" fill="#cf942d"/>
          <path d="M34.3,14.84c.32.39.86.44,1.25,1.09.13.4.22.78.28,1.13.56-.65.99-.72,1.28-.2.02,0,.22.11.31.16l.47,1.41c-.38.09-.76-.13-1.09-.16-.32-.1-.43-.2-.13-.17-.69.02-1.38-.03-2.06-.14-.1,0-.21,0-.31,0-.42-.05-.4-.19,0-.31,1.11-.39.76-2-.44-1.89l-1.95-.61c-1-.14-1.43-.12-2.08.62-1.68-.29-2.24.26-1.68,1.63l-.26.25c-.48.42-1.21-.06-.47-.47-.22-.67-.61-.99.05-1.66.6-.61,1.43-.43,2.15-.59.35-.08.57-.35,1-.41,1.37-.18,2.36.44,3.68.32Z" fill="#cfd0c8"/>
          <path d="M27.42,17.18c.04.11-.05.42,0,.47.03.03.34,0,.47,0,0-.14.06-.24.18-.3h1.36c.71-.56,2.48-.56,3.2.02l1.4-.02.27.3v.31c-2.52-.07-4.91-.16-7.42,0-.33.02-1.89.38-1.96.31-.1-.45.34-1.22.78-1.34.5-.14,1.04.81,1.73.25Z" fill="#d2c9b8"/>
          <path d="M34.61,17.96c.36,0,2.1-.07,2.19,0,.03.02-.02.22,0,.31-.7-.05-1.53.04-2.19-.31Z" fill="#d2c9b8"/>
          <path d="M35.86,15.46c.22.34.18.52.16.94.61-.52.61-.27,1.09,0v.47c-.92-.2-.81.4-1.05.46-.88.23-.41-.75-.52-1.4.13.22.2.34.16.62h.15s0-1.09,0-1.09Z" fill="#e0a032"/>
          <path d="M30.94,32.49c.55-.12.51,1.49.15,1.56-.55.12-.51-1.49-.15-1.56Z" fill="#d89e19"/>
          <path d="M31.95,26.09c.04.58-.26,1.27-.78,1.56v-1.56c-.68,0-.44.79-.47,1.25l-.31-1.25c.2-.13.53-.42.73-.44.28-.03.6.29.84.44Z" fill="#f6c037"/>
          <path d="M28.36,26.71c.25-.52,1.97.02,1.72.94l-.94-.39.63.86c-.37.29-1.48-1.24-1.41-1.4Z" fill="#f4ba38"/>
          <path d="M30.39,25.31c.71-1.22-.24-.88-.43-1.68-.07-.31-.1-.87-.03-1.18.06-.29,1.05-.9,1.45-.86.25.03,1.27,1.05,1.29,1.3.07.97-1.36,1.5-.72,2.58-.58-.21-.85-.5-1.56-.16Z" fill="#e15e20"/>
          <path d="M27.89,17.65c-.09-.44-.26-.99-.22-1.44.09-1.13,1.46-.62,2.14-.76.14-.03.41-.58.54-.61.29-.06,1.23-.06,1.54-.02.26.03,1.57.51,2.03.63.24.06.7-.07.83.03.07.05.08.35.17.49.07.1.28.09.31.22.09.41-.06,1.01,0,1.46-.31,0-.63-.01-.94,0-.48.02-1.53.09-1.92,0-.13-.03-.04-.28-.33-.32-.41-.05-1.65-.05-2.05,0-.29.04-.21.29-.33.32-.34.08-1.36.03-1.77,0Z" fill="#c1d3df"/>
          <path d="M31.12,21.88c.29-.05,1.14.97,1.14,1.32s-.88,1.4-1.16,1.33c-.15-.36-1.03-1.03-1.03-1.33,0-.17.88-1.29,1.04-1.32Z" fill="#f5c433"/>
        </g>
      </g>
    </g>
  </g>
</svg>