<?xml version="1.0" encoding="UTF-8"?>
<svg id="Layer_2" data-name="Layer 2" xmlns="http://www.w3.org/2000/svg" viewBox="0 0 64 96">
  <g id="Cards">
    <g id="TenOfCoins">
      <g>
        <path d="M3.46,7.91h-1.51V2.22c-.55.52-1.2.9-1.95,1.14v-1.37c.39-.13.82-.37,1.28-.73C1.75.9,2.06.48,2.23,0h1.22v7.91Z" fill="#fdc11f"/>
        <path d="M6.63,0C7.4,0,7.99.27,8.42.82c.51.64.77,1.71.77,3.21s-.26,2.56-.77,3.21c-.43.54-1.02.81-1.78.81s-1.38-.29-1.85-.88-.7-1.64-.7-3.15.26-2.55.77-3.2C5.28.27,5.87,0,6.63,0ZM6.63,1.25c-.18,0-.35.06-.49.17s-.25.33-.33.63c-.1.39-.16,1.05-.16,1.97s.05,1.56.14,1.9.21.58.35.69c.14.11.3.17.49.17s.35-.06.49-.17.25-.33.33-.63c.1-.39.16-1.04.16-1.96s-.05-1.56-.14-1.9-.21-.58-.35-.69c-.14-.12-.3-.17-.49-.17Z" fill="#fdc11f"/>
      </g>
      <g>
        <path d="M60.54,88.09h1.51v5.69c.55-.52,1.2-.9,1.95-1.14v1.37c-.39.13-.82.37-1.28.73-.46.36-.78.78-.95,1.26h-1.22v-7.91Z" fill="#fdc11f"/>
        <path d="M57.37,96c-.76,0-1.36-.27-1.79-.82-.51-.64-.77-1.71-.77-3.21s.26-2.56.77-3.21c.43-.54,1.02-.81,1.78-.81s1.38.29,1.85.88.7,1.64.7,3.15-.26,2.55-.77,3.2c-.43.54-1.02.81-1.78.81ZM57.37,94.75c.18,0,.35-.06.49-.17s.25-.33.33-.63c.1-.39.16-1.05.16-1.97s-.05-1.56-.14-1.9-.21-.58-.35-.69c-.14-.11-.3-.17-.49-.17s-.35.06-.49.17-.25.33-.33.63c-.1.39-.16,1.04-.16,1.96s.05,1.56.14,1.9.21.58.35.69c.14.12.3.17.49.17Z" fill="#fdc11f"/>
      </g>
      <g>
        <path d="M30.42,21.26c.49-.23,1.1-.14,1.82.28,2.06-.15,4.11-.35,6.14-.58l.25.3c.52,1.29.56,3.29,0,4.56-1.74.43-4.08.26-5.87-.25l-3.35.1c-.1.56-.21,1.29-.35,2.21.59.26.57.64,0,.91-.26.59-.57,1.5,0,1.93v.58c.15-.17.47-.36.69-.3.77.2,1.2,2.79-.23,2.58.6.08.56.25,0,.46-.07.44-.25.41-.46,0-.28.4-.74.54-.91,0-.31.5-.94.05-1.24-.34-1.13-1.5.21-6.77.85-8.5.69-1.26-1.28-3.07-2.35-2.57.26.36.15.48-.23.23.11-.31-.19-.54-.23-.68-.45-.12-.46-.35,0-.46-2.34-1.37-.29-4.14,1.83-2.53,1.29.5,2.63,1.29,3.64,2.08Z" fill="#f1ca2e"/>
        <path d="M17.65,16.24c-1.48-.23-2.15-.13-3.47-1.14C9,11.15,10.84.76,17.77.06c9.92-1.01,13.43,11.69,4.9,15.73-.04.55-.66.5-1.14.46-.08.27-.46.43-1.14.46-.28.59-1.21.3-1.37-.23-.33.37-.79.3-1.37-.23Z" fill="#cc9937"/>
        <path d="M43.64,57.06c-.34,1.67-1.2,3.51-1.37,5.13-.33,3.27.97,6.21.65,9.55-.25,2.63-2.29,6.13-2.25,8.12l-.14.95c-1.25,1.35-1.43,3.18-.52,5.5.08.34-.15.52-.48.62-.3.46-.87.21-.68-.46-.33-.16-.53-.54-.58-1.13-.33,1.03-.74,2.02-1.24,2.96.28.23.07.35-.23.46.63.16.58.68,0,.91.06,1.44-3.38,1.23-2.28,0,.21-.52.54-.44,1-.33,1.14-4.12,2.69-8.11,4.63-11.97,1.17-2.85,2-5.92,1.6-9.01-.47-2.03-.78-3.88-.56-5.99s.84-4.98,2.22-6.45c.06-.2.14-.2.23,0,.19.2.19.58,0,1.14Z" fill="#ae3328"/>
        <path d="M25.86,22.63l.35.49c-.09,2.33-.5,6.42-2.52,7.78-1.97.93-3.38,2.07-1.99,4.33.21.9.12,1.83-.29,2.65-1.1,1.28-1.45,2.61-1.07,3.98,1.75,3.09,1.18,5.16-.08,8.28,1.32,1.75,3.31.33,4.38-1.16l.54.1c.57.41.35,1.54-.46,1.37-1.08,1.75-3.28,2.28-4.9.91s-.36-2.23.13-3.53c1.33-3.59-1.08-4.53-.94-7.31.08-1.54,1.66-2.75,1.79-4.15.13-1.33-1.31-1.55-.52-3.7.92-2.47,2.84-1.98,3.7-3.59.98-1.83.57-4.32,1.19-6.22,0-.02.15-.08.23-.23,0-.37.38-.38.46,0Z" fill="#ac2f29"/>
        <path d="M30.42,56.14c.39.15.47.3.23.46l.38.28c.96,3.62,1.57,7.33,1.84,11.14.63,1.43,1.46,2.77,2.47,4.01l.1,1.21c.49.15.64.76.46,1.82.13.15.24.3.33.46.83,1.52-.81,12.49-1.96,13.76-.12.14-.27.26-.43.37-.22.67-.81.45-.68-.23.61-2.28,1.48-4.63,1.8-6.98.25-1.86.58-5.95.41-7.7s-2.23-3.59-2.98-4.96c-1.12-2.05-.72-5.35-1.12-7.77-.2-1.2-.99-4.7-1.53-5.65-.39-.74.47-.97.68-.23Z" fill="#a7342a"/>
        <path d="M42.5,88.07c.17.45.62.46.42,1.43-.55,2.63-5.22,1.76-5.43,1.99-.04.04.05.75-.12,1.14-.73,1.69-8.97,5.56-8.28,1.77.22-1.24,2.4-1.78,2.7-2.57.17-.46-.58-.37-.8-.79-.57-1.09,1.29-1.62,2.17-1.6.04,0,.31.21.68.23.29-.57.34-.57.68,0-.28.71,1.77.73,1.98,0h.3c1.26,1.07,4.93,1.2,4.98-.89-.95-.13-1.32-.45-1.1-.94.63-.38,1.47-.55,1.82.23Z" fill="#284584"/>
        <path d="M45.47,16.7c1.04.75,1.7,1.13,2.32,2.35.73,1.44.45,2.04.7,3.41.11.61.59,1.32.62,1.9.07,1.61-1.36,2.5-2.72,2.83.07.64-.66.79-.83.18l-.54.05c-.43.79-2.71.1-3.19-.46-.44.45-.58.38-.46-.23-.91-.15-1.75-.3-2.51-.46-.61-.07-.58-.28,0-.46.05-.46.28-.44.46,0,.05-.34.28-.5.68-.46.23-.63.49-.65.68,0l.52-.19c1.79,1.33,4.23,1.55,6.32.88-.24-.52-.07-.62.46-.46-.25-.3-.27-.61-.08-.92-.02-.65-.68-3.97-.94-4.71-.98-2.83-3-2.8-4.96-.75-.56.52-1,.6-1.32.22.15.45-.23.53-1.14.23.31.3.18.43-.23.23-.13.83-.36.99-.68.46-1.11-.96.42-1.96,1.61-1.84,1.05-.57,2.04-1.26,2.98-2.06.7-.37,1.45-.28,2.25.25Z" fill="#a5332c"/>
        <path d="M49.12,41.1c.1.03.15.16.23.23-.19.4.45,1.25.76,1.58l2.12,1.95c.46,1.15-.46,1.9-2.78,2.25l-.46.41c-.46.87-2.15,2.34-2.59,1.11-.7-.66-.49-1.1,0-1.82-.15-.3-.13-.61,0-.91.47.1.81.51,1.02,1.21,1.14-1.39,1.21-2.09.19-2.1l-.22-.66c-.49-.18-.82-.57-.99-1.19-.38-.2-.44-.46-.07-.66,1.2.02,1.77-.42,2.35-1.39.04-.6.27-.58.46,0Z" fill="#95b346"/>
        <path d="M43.19,6.9c-.62.19-1.96.57-2.28-.23l-.44.21c-.9-.43-2.58-.24-2.75.25.36.67-1.45,2.06-2.05,1.6-.75.01-1.21-.22-1.37-.68-.01-.19-.41-1.04-.46-1.37.05-.19.13-.19.23,0,.23-.2.56-.36,1-.47,1.81-1.47,3.56-1.95,5.86-1.36.95.25,2.74.94,2.26,2.05Z" fill="#db9235"/>
        <path d="M41.14,14.42c-.06.97-.14.52.45.57,1.58.15,2.68.84,3.88,1.71-2.15-.87-3.27,1.64-4.8,2.16-1.34.46-1.85-.46-2.04,1.49,0,.7-1.95.92-2.28.46-.23-.5.21-2.01.91-1.6-.03-.13-.05-.24,0-.28.34-.31,2.26-1.17,2.74-1.32.39-.9.49-1.95.56-3.01.16-.15.36-.2.58-.18Z" fill="#d7ccca"/>
        <path d="M27.68,43.6c.15.14.28.34.2.51-1.65,3.24-2.33,6.19-.42,9.52.59-.39.73.15.67.77.74,0,.98.27,1.39.82.12-.68,1.39-.45,1.37.23.94-.1,1.63.05,2.05.46.06-.4.44-.56,1.14-.48-.05-.6-.02-1.17.69-.89.39.04.54.37.47.98.58.1.84.35.44.85-1.65.64-3.73.67-5.24-.23-.21-.03-.64-.05-.68.23-.34-.6-1.24-.58-1.86-.94-1.35-.78-2.02-2.95-2.55-4.36-.14-.36-.02-.75-.61-.63.44-.71.29-.71.46-1.37l-.39-.32c.11-.72,1.25-5.12,1.64-5.18.11-.02.23,0,.35.02-.01-.68.73-.47.91,0Z" fill="#dea336"/>
        <path d="M40.91,81.23l-.22.29,1.03,5.35c-.21.7-1.43.41-1.95.06-.08.2-.15.2-.23,0,.22-1.04-.74-3.41-.64-4.17.13-.94,1.31-2.09,1.78-2.9,0,.41.15.94.23,1.37Z" fill="#ef5f37"/>
        <path d="M37.72,1.19c1.09.17,1.91-.11,3.12.41.93.4,4.48,3.77,4.91,4.67,1.06,2.2-1.05,2.98-1.87,1.76-.45.03-.67-.27-.68-.68-.2-.06-.2-.14,0-.23-.09-.67.31-.75.68-.23.39-.11.76.13,1.11.73-1.17-2.37-3.99-5.65-6.94-5.32l-.33-.42c-1.19.69-1.32-.88,0-.68Z" fill="#a6362e"/>
        <path d="M43.19,7.35c.77.08.58.53.68.68-.85,1.65-.7,4.12-1.82,5.59-.24.32-.73.51-.92.79-.48.73-.22,2.42-.5,2.93-.06.12-.49.14-.64.26-.28.17-.38.06-.23-.23-.43-.42-.47-1.16-.09-2.21-2.38-.09-4.49-4.2-1.1-1.93,2.66,1,3.94-.66,3.83-4.96-1.56-.51-.08-1.95.78-.93Z" fill="#ba9981"/>
        <path d="M37.72,1.19c-.6.26-.75.77,0,.68.16.53-.29,1.7-.91,1.6-.27,1.12-1.19,1.09-2.28.46-.45.49-.9.15-.68-.46-.52.56-.82.56-.91,0-.28-.09-1.07-.53-1.1-.79-.01-.14,1.37-2.12,1.61-2.23,1.83-.86,2.91.53,4.28.74Z" fill="#43729c"/>
        <path d="M48.2,49.08c.37.66.61,1.42.68,2.17.14,1.46.48,8.69-2.37,5.34-.28-.33-.96-1.42-1.04-1.81-.54-.1-.49-.54,0-.68.07-.61.28-.58.46,0,.62.61,1.22,1.3,1.78,2.09.16-1.12.24-2.04.2-3.18-.05-1.35-.22-2.45-.61-3.7-.43-.44.85-.91.91-.23Z" fill="#3779a4"/>
        <path d="M49.34,41.32c.56.49.8,1.32,1.28,1.8.74.77,2.36,1.12,2.15,2.63-.19,1.33-2.27,1.04-3.19,1.62-.57.36-1.27,1.66-1.38,1.7-.22.09-.69-.19-.91.23.09.07.09.15,0,.23-.43.48-.63.7-.91,0-.5-.26-.51-.65,0-.91,1.76.43,1.8-1.08,2.89-1.79.73-.48,2.62-.58,2.8-1.09.29-.88-1.82-2.11-2.45-2.98-.08-.11-1.26-1.68-.27-1.44Z" fill="#7b944f"/>
        <path d="M46.38,27.19c.15,1.82-.32,3.67-1.27,5.22-.66,1.07-1.87,1.76-2.15,2.98-.05.29-.42.62-.68.46-.05.35-.63.38-.68,0l-.14-.61c1.99-2,3.25-4.24,3.77-6.72l.48-.43c-.32-.07-.55-.3-.68-.68.07,0,1.26-.2,1.37-.23Z" fill="#427ea5"/>
        <path d="M34.3,8.04c.64-.18.78.5,1.37.68.05.81-.79.1-.74.11.91.21,1.11.5.38,1.26.68.32,1.03.76,1.29,1.46.44,1.2.74,4.32.65,5.72l-.45.35c-.41.28-1.07-.53-.91-.91-.06-1.08-.06-2.14,0-3.19-.45-2.14-.43-1.54-1.48-2.96-.74-1.01-.07-1.63-.12-2.51Z" fill="#aa8c73"/>
        <path d="M26.77,18.3c.23.14.38.36.46.68.48-.5,1.39,0,1.37.68.28-.36.49-.24.46.23.55-.44,1.38.36,1.6.91.49.36.37.51-.23.46-.16-.06-.4-.02-.66-.13-1.18-.49-5.07-3.64-5.5-1.11-.18,1.05.38,1.06.69,1.7-.48.6-1.23-.43-1.37-.91-.44-.13-.44-.33,0-.46-1.07-.38.32-2.61,1.14-1.82-.23-.48,0-.55.68-.23.29-.04.9.41,1.37,0Z" fill="#dda23a"/>
        <path d="M35.89,13.51c.17.79.36,1.62.43,2.43.04.44.26.88-.43.76-.41,0-.87-.12-1.38-.39-.5.3-.66.34-.9-.29l-.37.4c-.47-.46-1.18-.67-2.13-.63.48-.48,1.32-.13,1.93-.24.51-.09.95-.62,1.48-.8,1.09-.35,1.58.47,1.38-1.25Z" fill="#cecbcf"/>
        <path d="M40.91,81.23c.32,1.7.74,4.09,1.14,5.7.39.92-1.14.87-1.6.46-.04.2-.12.2-.23,0-.49-.08-.64-.23-.46-.46.52.1,1.06.22,1.59.23.26-.26-.79-4.59-.91-5.36-.06-.37-.22-1.09.45-.57Z" fill="#ad3b30"/>
        <path d="M42.96,35.4c1.84-.61,1.81,1.36,2.56,1.67,1.2.49,2.15-.44,3.1,1.21.51.87.55,1.83.49,2.82-.12-.04-.31.02-.46,0-.23-.72-.31-1.49-.24-2.33.01.34-.06.28-.21-.18l-.56.15c-.57-.59-1.43-.84-2.59-.77-.97-1.5-1.75-1.91-2.33-1.21-.43.36-.85-.07-.46-.46-.61-.09-.59-.28,0-.46.05-.02.18-.29.68-.46Z" fill="#cfac45"/>
        <path d="M19.02,16.47c.79.4,1.39.91,1.79,1.55-.05,1.6.76,2.06,2.32,1.87l.45.45c0,.15,0,.3,0,.46-.56.19-1.24.19-2.05,0-1.96-.75-1.19-1.67-1.81-2.64-.27-.42-1.71-1.27-2.07-1.92.47.07.9.15,1.37.23Z" fill="#b28e6d"/>
        <path d="M30.88,16.02c.36-.31,2.39-.07,2.49.22.12.34-.59.79-.67.23l-.23.47c-2.33-.32-3.92.3-4.75,1.85l-.5.19c-.15-.1-.6.28-.46-.68.25-1.72,2.67-2.24,4.1-2.28Z" fill="#a72c26"/>
        <path d="M21.53,16.24c.67-.14,1.05-.07,1.14.23.88.3,1.98,1.26,2.74,1.82-.04,0-.65.21-.68.23l-.56.05c-.97-.83-2.15-1.28-3.54-1.36l-.23-.51c.23-.5.84-.33,1.14-.46Z" fill="#b28e6d"/>
        <path d="M33.84,3.47c-.06.96.02,1.88.23,2.74.6.13.59.3,0,.46-.08,0-.16.01-.23,0-1.42-.31-1.29-2.1-.91-3.19.22.07.68-.07.91,0Z" fill="#a63c33"/>
        <path d="M45.47,53.18c.34.13.33.78,0,.91.02.22-.04.49,0,.68-1.12.28-1.52,1.26-1.82,2.28.07-.33-.05-.79,0-1.14-.81-.46.25-1.44.91-1.14-.34-.54.25-2.83.91-1.6Z" fill="#c5ab53"/>
        <path d="M33.61,16.02c1.01.09-.32,1.71-.91,1.6.81.07-.52,2.16-.91,1.37-1.11-.13.29-2.3.91-1.37-.62-.2-.66-.93,0-1.14.15,0,.3,0,.45,0-.22-.59-1.58-.47-2.28-.45.02-.11.12-.21.23-.23.91-.13,1.66.1,2.51.23Z" fill="#ab595c"/>
        <path d="M23.58,20.8c.88.1.2,1.07,1.37.91.04.09-.04.32,0,.46-.78.02-1.22-.86-1.81-1.04-.55-.17-.93-.07-1.61-.33.66.05,1.41-.08,2.05,0Z" fill="#dcc78a"/>
        <path d="M42.5,88.07c-.57-.34-1.21-.22-1.82-.23-.04.2-.12.19-.23,0-.61-.07-.58-.28,0-.46.64-.03,1.3.25,1.6-.46.1.4.31.75.46,1.14Z" fill="#563d67"/>
        <path d="M22.67,15.79v.68c-.27-.09-.82.07-1.14-.23.27-.11.97-.38,1.14-.46Z" fill="#edd7b2"/>
        <path d="M25.4,22.63c.05-.08-.06-.4,0-.45.54-.4,2.55,1.11,2.69,1.99.14.94-.85,3.42-1.04,4.56s-.65,4.6.41,5.19c.24.13.45.08.68.11.68.37-.1,1.28-.46.46-.28.68-1.33-.16-1.56-.57-1.19-2.12.41-7.35,1.12-9.6-.8-.49-1.26-1.06-1.38-1.69-.11-.04-.32.03-.46,0Z" fill="#eb972a"/>
        <path d="M38.63,20.35c.49.11.5.82,0,.91-2.61,0-4.66.96-7.37.41-.41-.08-.61-.32-.84-.41.09-.14.13-.32.23-.46-.32-.31-.19-.43.23-.23.36-.34.59-.26.68.23l.46-.32c.94.52,2.05.49,3.33-.1l.32.42c.32-.36.5-.5.68,0,.66-.09,1.66-.27,2.28-.46Z" fill="#c4aa55"/>
        <path d="M38.63,25.82c.04-.2.12-.2.23,0v.46c-2.11.37-4.86.7-6.78-.26-.88.1-1.58.04-2.11-.2-.16.44-.28.63-.24.19.14,1.38-.09,2-.67,1.86.03-.83-.02-1.68,0-2.51,1.31.08,2.69-.1,4,0,1.96.14,3.42.51,5.58.46Z" fill="#c3ac4a"/>
        <path d="M32.7,31.29c.13.31.14.88-.23.91-.55,2.19-1.23,2.8-2.05,1.82-.13.44-.33.44-.46,0-.07.44-.25.41-.46,0,.03-.14-.04-.36,0-.46.58-.27,1.04-.42,1.37-.46l.12-.8c.62-.72,2.1-3.36.42-1.77l-.54-.17c-.27.24-.77.41-.91,0-.56-1.11,3.05-2.05,3.48-1.61.25.25-.14,2.6-.75,2.53Z" fill="#868780"/>
        <path d="M39.31,25.82c-.15.01-.31,0-.46,0-.08,0-.15,0-.23,0,.04-1.51-.05-3.05,0-4.56.01-.3-.03-.61,0-.91.66-.19.39-.26.68-.46.18.04.43.12.44.26.14,1.19.11,4.38-.14,5.51-.02.07-.14.11-.3.15Z" fill="#bb3f15"/>
        <path d="M29.96,25.82c.61.07.58.28,0,.46.68.1.73,1.55,0,1.6.2.06.19.13,0,.23l-.07.46c.48.35.05,1.44-.38,1.82.4.2-.55.59-.63.54-.28-.17-.11-1.81.18-2.13,0-.3-.01-.61,0-.91.51-.32.34-1.88.46-2.05.03-.04.32,0,.45,0Z" fill="#427984"/>
        <path d="M29.51,34.03c.15,0,.31,0,.46,0,.4.21.71,1.59.23,1.82-.25.45-1.38.23-1.6-.23-1.15-.02-.41-1.36.46-1.6.15,0,.3,0,.46,0Z" fill="#75adc5"/>
        <path d="M30.42,30.84c.81-.11.87,1.67.46,2.28-.04.04.13.39-.15.47-.33.08-.85-.06-1.22,0,.1-.22.57-.33.61-.55.01-.08-.14-1.43-.19-1.58-.16-.57-.54-.18-.88-.15-.72-.69.95-.92,1.37-.46Z" fill="#d3a948"/>
        <path d="M29.51,30.38c.05-.46.28-.44.46,0,.3-.03.61.02.91,0,.47.54.15.83-.46.46-.42.11-1.17-.24-1.37.46-.15.01-.31,0-.45,0,.06-.84-.27-1.93.45-2.51,0,.55-.38,1.71.11,1.82.07.01.25-.22.34-.22Z" fill="#989859"/>
        <path d="M29.05,34.03v.3c-.53.3-.85.71-.46,1.29.15.29,0,.37-.46.23-.11.59-.26.57-.46,0-.65-.15-.72-1.27,0-1.37.02-.03.63.1.46-.46.28.04.62-.02.91,0Z" fill="#756f73"/>
        <path d="M13.09,12.14c-.84-1.15-1.03-1.5-1.14-3.08C11.61,3.76,15.11.13,20.48.76c3.99.47,6.69,4.99,6.31,8.77-.08.83-.7,1.86-1.15,2.61-.38.53-.84.39-1.39-.42l-.66-.26c-.21.07-.29,0-.23-.23-.69-.18-1.88-1.31-1.73-2.04,4.46-4.66-.53-8.84-5.42-5.92.63,1.46-.14,2.59-1.09,3.76.36.1.59.3.71.66.24.69.38,1.92.46,2.63.83.65-.55,1.67-1.27,2.03l-.25.28c-.11,2.27-1.15.8-1.67-.49Z" fill="#f1c92c"/>
        <path d="M16.28,10.32c.61-1.27,2.14.39.68.68.23.4-.16.95-.47,1.26-2.81,1.57-.38,1.79,1.41,1.76.92-.02,7.78-.41,5.55-2.04l.12-.52c.45-.5,1.32.77,2.05.68-1.56,2.57-3.86,3.81-6.96,3.66-2.06-.1-5.33-1.3-5.58-3.66.2.28,1.08,1.71,1.37,1.37-.42-1.75,1.9-1.44,1.83-3.19Z" fill="#f6be39"/>
        <path d="M20.39,16.7c1.64.33,3.22.39,4.33,1.82-.8.37-1.14.97-1.14,1.82-.91-.03-1.89.21-2.63-.45s-.37-1.4-.68-2.06-1.53-.37-1.25-1.37c.47.08.88.13,1.37.23Z" fill="#e2b28b"/>
        <path d="M43.42,55.92c-1.05,2.98-2.06,5.77-1.82,9,.1,1.34.6,2.71.69,4.1.49,7.52-5.24,13.66-6.4,20.87-.46-.14-.89-.19-1.37-.23-.22-.02-.46.01-.68,0,1.4-4.67,2.42-9.67,2.05-14.59.11-2.18.25-4.39.4-6.63-.67-3.8-1.02-7.6-1.03-11.41l-.28-.2c-.43.62-.74,1.24-.92,1.87.58,2.37.74,4.72.47,7.04,1.47,2.03,1.17,4.66-1.42,2.58-.14-2.59-.53-5.09-1.18-7.49.74-1-.55-3.32-1.27-4.22-.03-.1-.24-.27-.23-.46,1.87.28,3.39.18,5.24.23.21-.52.72-.47,1.54.14,1.73-.19,3.46-.34,5.17-.44.56-.81.91-.86,1.04-.15Z" fill="#f0612d"/>
        <path d="M34.75,54.55l-.46-.72.25-4.67c-.47-2.53,1.29-4.13,1.96-1.22l.36,5.86c-.22,2.21,1.36,2.95,1.85.53s-.04-4.71-.73-7.09c.45-1.44,1.34-.26,1.79.48,1.4,2.3,1.64,5.11,1.23,7.73,0,.06.99.04,1.09-.13.18-.3.41-2.41.43-2.94-.13-.93-.6-4.71,1.1-3.4.6,1.91.92,3.84.95,5.8-.29.47-.82.49-.91,1.14h-.23c-.61-.27-.68.41-.84.45-.54.13-4.7.47-5.44.48-.14,0-.41-.44-1.47-.48-.04-.47-.77-.37-.88-.49-.12-.13-.02-1.02-.03-1.34Z" fill="#d7a323"/>
        <path d="M40.45,87.84c.08,0,.15,0,.23,0,.33.46,1.38.28,1.57.83.76,2.22-5.04,3.19-5.45.99-.04-.2-.03-.71,0-.91.99-.99,2.46-1.6,3.65-.91Z" fill="#206eb6"/>
        <path d="M38.86,86.47c.51.48.36.79-.46.91-.07.4-.93.97-1.37.91.04-1.41.68-2.98,1.37-4.22l.43,1.41c.04.33.06.66.03.99Z" fill="#edd1d4"/>
        <path d="M38.4,87.38c.46-.57,1.19-.27,1.82,0,.08,0,.15,0,.23,0v.46c-.6.02-1.31-.1-1.88.05s-1.01.99-1.76.86c.05-.29.14-.29.23-.46.25-.43.88-.84,1.37-.91Z" fill="#284584"/>
        <path d="M38.86,86.47c.21.45.33.37.68.46.07.02.15-.01.23,0l.46.46c-.58.03-1.29-.08-1.82,0,.21-.28.42-.55.46-.91Z" fill="#563d67"/>
        <path d="M25.86,22.63c.29.11,1.81,1.4,1.83,1.52.1.6-1.23,3.88-1.35,5-.08.69-.14,3.93.04,4.37.03.07,1.03,1.04,1.3.97-.07.12.03,1.05,0,1.37l.41.4c-.66.82-.56,1.47-.41,2.33-.43,1.15-.89,2.37-1.37,3.65.38.08.81,1.06.46,1.37-.3.2-1.42,4.77-1.6,5.47l-2.21,2.23c-5.77.34-1.88-2.86-1.88-5.54,0-1.81-1.51-3.37-1.4-5.25s2.12-2.6,1.56-5.19c-.21-1-.88-.94-.48-2.4.54-1.99,2.76-1.84,3.66-3.41,1.14-1.97.81-4.74,1.43-6.9Z" fill="#ee4b2a"/>
        <path d="M30.65,56.6c.27.17.75.13.93.38.14.19,1.16,3.14,1.13,3.37-.06.34-.47.62-.43.89.03.2.43.51.54.84.38,1.16.54,6.08.79,6.27.24.18.93.18,1.25.34.58-1.04-.64-2.06-.79-2.86-.17-.91.3-1.78.23-2.72-.09-1.29-.71-3.14-.71-4.58,0-.66.85-1.49,1.38-1.7.27.54.33,1.22.19,2.03.53,3.94.89,7.89,1.1,11.84.02,1.14-.25,1.98-.84,2.55-.93-2.26-2.92-3.4-3.19-6.04-.4-4.03-.55-6.57-1.6-10.6Z" fill="#f0612e"/>
        <path d="M34.98,56.83c.22-.09.4-.29.68-.23-.73,4.88,1.37,9.57.91,14.47l-.68,3.99c-.06-.87-.13-1.03-.46-1.82,1.77-5.43-1.26-10.91-.46-16.42Z" fill="#c02a13"/>
        <path d="M32.24,92.4c.88-2.85,2.3-2.06,4.55-1.36.03.38.08.83-.03,1.19-.39,1.25-6.13,4.01-6.92,2.91-.45-1.1.77-1.61,1.5-2.07,1.25-.32,1.55-.55.91-.68Z" fill="#1d70b8"/>
        <path d="M32.24,92.4c.51-.11,1.27.07,1.83,0v.68s-2.74,0-2.74,0c.26-.16.61-.62.91-.68Z" fill="#114e9a"/>
        <path d="M29.96,26.28c1.12-.46,2.37-.36,3.75.3,2.58-.16,5.13-.11,7.65.15.14.06.22.14.46.23.66.76,2.5.8,3.78.82l.09.32c-.07,3.63-2.32,5-4.1,7.75.22.6-.54.79-.91.46-.31.47-1.07.35-1.37,0-.45-.26,2.08-3.52,1.97-3.34-.67,1.1-1.72,2.62-2.66,3.34-.53.28-1.07.3-1.6,0-.24-.57-.46-.57-.68,0-.19.36-.75.39-.91,0-.2-.23-.35-.23-.46,0-.34.48-1.87.23-2.05-.46-.42-1.12-.42-2.75,0-3.88l.06-.66c.98-2.44.76-3.33-2-2.13l-.34-.4-.68-.91c.06-.46,0-1.1,0-1.6Z" fill="#66b1e1"/>
        <path d="M47.98,25.59c-.62-.05-.77.1-.46.46-1.63,1.18-4.11.77-5.86.04-.4-.16-.76-.63-.99-.73l-.25-.35c.23-1.73.31-3.5.01-5.23l.24-.35c2.19-.89,3.21-3.5,5.48-1.49,1.54,1.37,1.3,2.53,1.65,4.28.26,1.32,1.04,2.08.17,3.36Z" fill="#f0612e"/>
        <path d="M29.96,25.82c.79-.04,2.13-.11,2.87-.02.44.05.22.44.65.49,1.54.2,3.72-.07,5.37-.02,1.38.04,1.3-.1,2.51.46-2.73-.28-6.15.36-8.79.02-.42-.06-.3-.43-.48-.47-.6-.14-1.47.08-2.12,0v-.46Z" fill="#8fa3a4"/>
        <path d="M40,25.36c-.03.1.07.3-.02.43-.21.08-.45,0-.66.02v-5.93c.07-.05.13-.17.23-.23.3-.09.63-.13.88.1.32.29.22,4.97-.08,5.49-.05.08-.18.1-.35.11Z" fill="#ec5d3b"/>
        <path d="M40.68,19.44c.4,1.89.32,4.03,0,5.93-.14-.06-.49.04-.68,0,.34-.98.36-3.8.24-4.91-.06-.52-.08-.79-.7-.79.59-.36.89-.13,1.14-.23Z" fill="#c22a14"/>
        <path d="M45.01,27.42c.82-.07.7-.04.68.68-.71-.1-1.7.15-2.35,0-.17-.04-.14-.4-.31-.45-.61-.17-1.42.45-1.21-.69.76.28,2.36.49,3.19.46Z" fill="#87a5cc"/>
        <path d="M47.52,26.05c-.69-.32-1.7.14-2.41.22-.44.05-.47-.19-.22-.45.11-.11,1.94-.48,2.4-.59.54-.13.41-.05.69.37-.18.26-.21.28-.46.46Z" fill="#d03b23"/>
        <path d="M46.38,43.15c.52-.08.53.44.76.62.35.27.67-.28.72.98h.8c-.29-.33-1-1.69,0-1.6.05.98.89,1.42,0,2.28l2.28-.11c-.25,1.02-1.63.31-2.36.78-.77.5-.99,3.4-2.2-.21-.26-1.02-.26-1.93,0-2.74Z" fill="#88a13d"/>
        <path d="M48.2,38.59c.09.05.43-.14.47.13-.08.76.08,1.63-.01,2.37-.06.48-.6,1.38-.97,1.53-.77.32-1.27-.4-1.31.52s0,1.83,0,2.74c0,.3,0,.61,0,.91-.06.2-.14.2-.23,0l-.28-.25c.05-1.36-.09-2.7-.44-4.04l.27-.27.23-.42c1.79.12,2.38-.86,1.77-2.94l.5-.29Z" fill="#caa633"/>
        <path d="M46.38,48.62c0,.3,0,.61,0,.91-.06.27-.17.57-.26.3.08.75.25,3.08-.65,1.98l-.45-.3c.28-1.36.21-2.61-.23-3.77l.22-.49c.17-.31.55-.46,1.14-.46h.23c0,.61.01,1.22,0,1.82Z" fill="#c5ab37"/>
        <path d="M40.91,6.67c.71.11,1.6-.21,2.28.23.2.08.2.15,0,.23v.23c-.42-.05-.86-.03-1.14.34.11.28.81.01.91.11.19.19-.55,4.08-.75,4.62-.9,2.49-3.78,1.83-5.18.17.44,1.39,1.82,2.03,3.19,2.05l-.46,2.74c-1.93,1.75-2.91,1.9-2.96.46-.2-.04-.2-.12,0-.23-.05-1.52-.07-5.48-1.01-6.63-.39-.47-1.26-.48-1.04-1.35l.46.12c.19-.8-.19-.61-.46-1.02.27-.05.7.07.91,0,.12-.04,1.87-1.4,2.05-1.6.47-.81,1.87-.43,2.65-.15.02-.36.22-.49.54-.3Z" fill="#e4b48c"/>
        <path d="M43.87,6.9l-.68.23c-.01-.07.02-.16,0-.23-.28-1.36-2.75-2.04-3.99-2.07-2.29-.05-3.45,1.9-5.13,1.84-.03-.13.04-.38,0-.46.54-.78,1.4-1.27,2.28-1.37,1.08-1.55,5.13-1.01,6.52-.07.65.44,1.69,1.45,1.01,2.12Z" fill="#b3300c"/>
        <path d="M40.91,6.67l-.17.24c.27.02.2.64.17.67-.11.12-2.55-1.03-3.19-.45.03-.03-.08-.28.03-.42.31-.36,2.02-.56,2.55-.45.32.07.57.41.61.41Z" fill="#dca05d"/>
        <path d="M35.89,16.7c.35.24.62.6.91.91,0,.08,0,.15,0,.23.07.57.23.97.46,1.37-.6.4-.54,1.01-.91,1.6-.22.03-.46-.02-.68,0l-.21-.54c.76-1.24.54-2.61-.9-3.15-.89,1.11-1.69,2.27-2.4,3.48l-.59.22c-.22-.05-.58.1-.68-.23-.53-.46.25-1.69.91-1.6.98.02.8-1.16.91-1.37.03-.05.28-.37.53-.84.07-.12.61-.15.38-.76,1.18.18,1.15-.09,2.28.68Z" fill="#46739a"/>
        <path d="M39.77,17.38c.1-.01.27.09.23.23-1.04.84-1.85,1.01-2.74,1.6-.67-.28-.43-.78-.46-1.37.42.13-.05,1.07.57.91s1.57-1.25,2.4-1.36Z" fill="#9f8878"/>
        <path d="M38.4,42.69l.29.21c0,1.25.07,2.8,1.53,3.16,1.62.31,3.23.59,4.82.85l-.03.34c1.03,1.39.45,2.98.46,4.56.52.31.37.98,0,1.37-.77-.16-.3.38-.46.73-.05.11-.42.82-.45.86-.72.13-.39-.35-.46-.78-.1-.6-.51-4.91-1.02-4.91-.55,0-.09,2.78-.11,3.31-.02.43-.4,3.08-.51,3.25-.24.34-1.56.28-2,.28.44-2.62.42-5.09-.83-7.49-.09-.16-.89-1.78-1.22-1.4.11,1.24.75,2.28.88,3.56.11,1.06.12,4.69-.75,5.35-.35.27-1.41.34-1.75.11-.48-.33-.57-6.67-.7-7.74-.1-.81-.52-2.34-1.11-.94.14,2.41-.31,4.78-.23,7.18-.45.15-.12,1.26-.23,1.37-.06.06-1.3,0-1.6,0l-.46-.13-.38-8.38c-.42,2.44-.63,4.92-.73,7.42l-.48.63c-.06-.04-1.14-.2-1.37-.23l-.59-.43c-.88-2.54-.56-5.28-.11-7.86-1.17,1.9-1.25,4.04-.95,6.19l-.4.51c-.16.49-.56-.27-.63-.4-1.58-3.18-1.08-5.41.16-8.62.16-.4.48-.66.7-1.01,1.65-1.73,3.6-1.26,5.7-.56,1.57-.38,3.15-.6,4.75-.65l.27.3Z" fill="#f0ca30"/>
        <path d="M30.88,55.46c.05-1.28.09-2.72.23-3.99s.38-3.95.69-5.01c.11-.39.17-.66.67-.58l.46,10.03c-.52,0-1.45.12-1.9,0-.24-.06-.13-.45-.15-.46Z" fill="#d7a323"/>
        <path d="M27.46,53.64c-.3-2.72-.45-4.43.95-6.91.22-.39.56-1.12,1.1-1.07-.6,3.26-1.2,6.35,0,9.58-.72-.1-.19-.06-.63-.21s-1.15-.09-1.65-.47c-.1-.4.44-.07.48-.37.04-.31-.24-.49-.25-.54Z" fill="#d7a323"/>
        <path d="M28.14,39.04c.07-.2.15-.2.23,0,.41.43.47.86.18,1.29l-1.04,2.14c2.17-1,3.62-1.24,5.79-.12l2.42-.71c1.14-.38,1.96-.26,2.46.36.14-.4.29-.4.46,0,.38.18.34.46,0,.68-.04.2-.12.2-.23,0-1.98,0-3.57.67-4.9.68-.92,0-1.62-.54-2.29-.67-1.59-.3-1.97.66-3.52.9-.24.04-.82-.06-.91,0-.37-.68-.42-.55-.46-1.37.45-.82.74-1.69.84-2.6.12-.54.51-1.05.98-.59Z" fill="#497985"/>
        <path d="M37.72,1.88c.45-.09,1.63-.04,2.11.05,1.38.26,5.31,4.06,5.55,5.41.07.38.1.44-.25.69-.51.2-.99-.74-1.25-1.14-.31-.46-.19-.89-.9-1.49-1.38-1.14-5.06-1.39-6.62-.56-.27-.39-.11-.84.46-1.37.17-.45.47-1.51.91-1.6Z" fill="#ee6033"/>
        <path d="M36.79,1.44c.14.21-.88,2.23-1.02,2.27-.16.04-2.2-1.52-3.07-.91-.09-.08.9-1.74,1.05-1.79.85-.3,2.23.08,3.04.44Z" fill="#64b0e2"/>
        <path d="M33.84,3.47s.49.34.68.46c.56.08,1.17.38,1.82.91-.59.31-1.36,1.5-2.28,1.37-.05-.08-.45-.19-.57-.45-.31-.69-.19-1.73.34-2.29Z" fill="#e7603b"/>
        <path d="M36.8,3.47c-.05.14.08.5,0,.74-.01.04-.41.62-.45.63-.74.31-.84-.3-1.1-.44-.14-.08-.5.05-.68-.07-.12-.09-.03-.39-.05-.4.75-.1,1.67.36,1.98-.45h.3Z" fill="#a36864"/>
        <path d="M45.92,54.09c-.35,0-.34-.36,0-.46.06-.2.14-.2.23,0,1.08-.44,1.31-1.51.68-3.19-.43-.38-.11-.84.46-.91.03-.07-.03-.17,0-.23.48.27.82.98.9,1.5.1.67.13,4.93-.02,5.42-.47,1.49-2.1-1.29-2.24-2.13Z" fill="#63b1e4"/>
        <path d="M46.38,49.53c.17.05.37.13.39.29.13.93-.38,2.95-.84,3.82,0,.15-.02.32,0,.46h-.46c-.03-.3.01-.61,0-.91-.02-.45,0-.91,0-1.37.95.3.19-1.93.46-2.28.15-.01.3,0,.46,0Z" fill="#9eaa7e"/>
        <path d="M47.29,49.53c-.18.42-.32.51-.46.91.62,1.64.39,2.71-.68,3.19h-.23c-.07-1.42.42-1.3.47-1.69.09-.69-.03-1.66-.02-2.41.3-.02.61.01.91,0Z" fill="#71abc2"/>
        <path d="M42.28,35.85c.03.14-.04.35,0,.46-.03.28-.18.44-.46.46-.15.61-.46.59-.68,0-.41.38-.64.38-.68,0-.38-.26-.18-.38.23-.46.04-.03.75-.38.91-.46.13-.07.53.06.68,0Z" fill="#5f8d6c"/>
        <path d="M32.7,16.47c-.06.3.09.93,0,1.14-.02.05-.71.24-.84.52-.16.33-.02.74-.07.84-.19.39-.64,1.11-.91,1.6-.04.08-.17.14-.23.23-.7.01-1.12-.65-1.6-.91-.37-.28.99-1.32.94-1.25-.3.36-.98,1-1.39,1.02-.42-.24-.85-.34-1.37-.68.37-2.64,3.41-2.4,5.47-2.51Z" fill="#e84b31"/>
        <path d="M28.6,19.66c.34-.51.8-.96,1.26-1.36.2-.17,1.56-1.31,1.7-1.14.13.58-.09.58-.38.88-.56.59-1.52,1.26-2.13,1.86-.14-.08-.3-.14-.46-.23Z" fill="#d03018"/>
        <path d="M48.2,38.59c-.19.55.22,2.5.11,2.75-.27.6-1.96,1.07-2.62.9-.23.04-.36-.02-.36-.23.14-1.38-.12-2.09-1-2.96-.25-1.1-.33-1.45-1.58-1.91l-.02-.37c.1-.32-.33-.9.34-.92,1.47-.05,1.38,1.36,2.17,1.72.61.27,1.29-.02,1.89.16.32.09.67.63,1.07.87Z" fill="#ebc135"/>
        <path d="M42.28,36.31c.11.28.23.31.46.46,1.14.73,1.97.49,1.6,2.28.45.42.39.5-.23.46.8.88-.14,1-.97.9-.57.73-2.9.74-3.36,0-.33.08-.43-.14-.46-.46-.56.1-.62-.05-.23-.46-.63,0-.6-.27,0-.46-.84-.33.14-1.74.91-1.82-.19-.62-.16-.71.46-.46.23,0,.46,0,.68,0,.27.38.1.93-.53,1.65-1.73,1.76,3.78.57,2.66-.15-1.27-.38-1.76-.88-1.45-1.5-.05-.48-.03-.51.46-.46Z" fill="#8d8f36"/>
        <path d="M35.66,20.8c-1.08.1-1.41.44-1.69.47-.36.05-1.47.05-1.8-.02-.17-.04,0-.31-.61-.45.64-1.63,1.95-2.86,2.86-4.33,2.08.95,2.44,2.38,1.25,4.33Z" fill="#6aafda"/>
        <path d="M30.88,30.38c.56-.38,1.33-1.23,2.05-1.02-.49,1.64-.86,2.53-2.05,3.76l-.46-2.28c.31-.08.36-.39.46-.46Z" fill="#dcb38c"/>
        <path d="M32.47,35.85c-.31.39-1.2.29-1.6,0-.56-.07-.74-1.44-.46-1.82.26-.03.63.1.86-.05s.73-1.54,1.19-1.78c.31.97.33,2.69,0,3.65Z" fill="#65afdd"/>
        <path d="M29.96,28.1c.36.06.56.35.68.68,1,0,1.95-.37,2.97-.23.09,1.38.09,2.29-.69,3.42-.15-.09-.22-.32-.23-.68.27-1.22,1.86-3.14-.98-2.23l-1.76,1.32c-.15.01-.31,0-.46,0-.28-.8.38-1.73.46-2.28Z" fill="#76a9c6"/>
        <path d="M32.93,31.98c.05,1.28-.04,2.59,0,3.88-.05.46-.28.44-.46,0-.04-1.15-.18-2.52,0-3.65.03-.17.17-.63.23-.91.3.11.22.43.23.68Z" fill="#3c87ba"/>
        <path d="M30.42,34.03l.46,1.82c-.17.32-.53.34-.68,0l-.23-1.82c.15,0,.31.01.46,0Z" fill="#438bb6"/>
        <path d="M30.65,28.78c-.72,0-.75.16-.68-.68.01-.07-.01-.15,0-.23.7-.07,1.18.26.68.91Z" fill="#95cff5"/>
        <path d="M30.19,35.85c.23,0,.46,0,.68,0,.53,0,1.07-.03,1.6,0,.15,0,.31-.01.46,0,.97.07.91.39,2.05.46.07-.43.25-.41.46,0,.3.01.61,0,.91,0,.21-.44.48-.44.68,0,.53,0,1.06,0,1.6,0,.42-.41.65-.41.68,0h1.37c-.08.06-.13.35-.23.46-.14.15-.34.3-.46.46l-.37-.22c-3.86-.02-7.68-.22-11.45-.6l-.03-.54c.13-.04.37-.24.46-.23.5.06.88.21,1.6.23Z" fill="#98a57d"/>
        <path d="M28.14,35.85c1.42.9,2.27.23,3.77.44.53.07.81.41,1.34.48,1.91.27,4.45-.26,6.4-.01.33.04.71.18.34.46-.2.12-.41.24-.63.32s-.42.16-.63.16c-3.4,0-6.79-.29-10.15-.74-1.88,1.23,2.54,1.92,3.47,1.76l6.24-.19c.37-.04.62.19.8.52-.01.13-.03.35,0,.46-.06.74-.54.51-.91,0-.08.53-.28.45-.69.21-.89-.03-2.02-.05-2.5.24-.35.6-.55.61-.91,0-.26.58-.42.58-.68,0-.03.72-2.37.74-2.51,0-.39.04-.54-.02-.68-.46-.71.77-1.87.79-1.82-.46-.05-.02-.15,0-.23,0-.55.21-.7.05-.46-.46-.42-.72-.09-1.87,0-2.74.13.03.39-.05.46,0Z" fill="#d1b241"/>
        <path d="M23.35,11.23c-.28.63-1.08.62-2.4-.02l-2.55.92c-.52-.26-1-.64-1.43-1.12l.23-.68c-.26-.05-.71.07-.91,0-.83-.3-.74-2.32-.97-2.68-.12-.18-.64-.11-.64-.62,0-.39,1.49-1.7,1.33-2.91-.05-.35-.6-.54-.05-1.29.35-.47,2.69-.87,3.41-.92,4.61-.3,5.85,4.73,2.63,7.44-.07.37.89,1.03,1.13,1.34.16.21.16.5.22.57Z" fill="#e8b328"/>
        <path d="M23.35,11.23c.07.09.17.15.23.23.27.35.88.47.92,1.03,0,1.97-7.2,2.13-8.57,1.95-.92-.12-1.29-.83-.99-1.69.13-.38.79-.39,1.13-.7.3-.27.53-.94.89-1.04,1.05-.31.99.6,1.27.67.43.11,2.18-.91,2.72-.91.67-.01,1.53.78,2.4.48Z" fill="#e65f25"/>
        <path d="M41.13,60.93c.48.72-1.54,4.18-2.05,3.65l1.54-3.15.51-.5Z" fill="#be2910"/>
        <path d="M38.4,69.83c.51.54-.98,1.18-1.37,1.14-.19-.54,1.19-1.33,1.37-1.14Z" fill="#c12c10"/>
        <path d="M41.29,89.59c-.4.45-1.59.81-2.21.75-.12-.62.16-.39.46-.55.6-.32,1.54-.38,1.36-1.27.76-.02.82.58.38,1.07Z" fill="#134b99"/>
        <path d="M22.89,44.29c.03.81.34,1.57.24,2.4-.06.52-.87,1.52-.7,1.7.56.59,2.13-3.06,2.28-3.19.17-.15.53-.08.45.34-.16.86-1.2,1.72-1.44,2.47-.14.43.06.75-.05,1.05-.49,1.25-2.16,1.76-2.62.24.65-.02,1.31.57,1.82-.12-2.08-.49-.28-1.9-.24-2.49.05-.73-1-2.4.24-2.41Z" fill="#d12e1b"/>
        <path d="M25.4,29.93c.17,1.69-2.27,2.49-2.63,3.64-.28.88.23,2.09.07,3.26-.14.98-.67,1.49-.89,2.3-.2.71-.11,1.22-.19,1.86-.04.31-.16.73-.45.34-.52-1.67.7-2.94.89-4.24.17-1.2-.17-2.55.12-3.76l3.09-3.41Z" fill="#d02e1a"/>
        <path d="M25.17,33.12c.04.73-.93.95-1.1,1.53-.2.68.18,1.17.17,1.75l-.55,2.64c-.38-.26-.36-.62-.37-1.02,0-.45.22-3.33.3-3.6s1.3-1.54,1.55-1.3Z" fill="#d12e1a"/>
        <path d="M27.68,38.59c.05.09.43.21.46.46-.81-.06-.83,1.47-.93,2.11l-.9,1.08c-.07-1.42.41-1.32.45-1.52.13-.59-.13-1.89.92-2.13Z" fill="#be5c4a"/>
        <path d="M37.03,36.31c-.23,0-.46,0-.68,0,.25-1.43.59-2.95,1.03-4.32.4-1.23.95-3.08,1.93-3.88-.73,2.74-2.18,5.32-2.28,8.21Z" fill="#3989be"/>
        <path d="M39.31,36.31h-.68l4.56-6.61c-.4,2.47-2.7,4.43-3.87,6.61Z" fill="#3686bb"/>
        <path d="M34.98,36.31c0-1.88.13-4.03.67-5.83.1-.34.04-.8.58-.78l-.8,6.61c-.15,0-.3,0-.46,0Z" fill="#3b8bbf"/>
        <path d="M40.64,32.38c-.11.07-.59.09-.64.05-.17-.16,1.68-3.57,1.94-4.1.4.29.41.51.29.97-.08.31-1.44,3-1.59,3.08Z" fill="#a1d2f3"/>
        <path d="M45.01,28.33c.51.52-1.07,3.75-1.59,3.19-.19-.21.47-1.23.59-1.58.14-.42,0-1.09.21-1.39.17-.26.72-.31.8-.22Z" fill="#9dd1f3"/>
        <path d="M37.49,27.19c.1.39-.18,2.5-.57,2.5-.56,0-.54-2.64.57-2.5Z" fill="#9bcded"/>
        <path d="M45.7,21.49c.52-1.04-.39-2.09-1.49-2.07-.44,0-1.62.99-.97-.17.56-.99,2.83-.06,3.1.81.16.54.17,1.49-.64,1.43Z" fill="#cd371a"/>
        <path d="M47.75,23.77c-.03,1.73-2.62,1.6-3.87,1.59-.04-.57-.06-.39.34-.45.83-.12,1.74-.08,2.53-.44.62-.28.35-.81,1-.71Z" fill="#ca3715"/>
        <path d="M44.33,21.26c1.13-.05.02-.92-.68-.69.25-1.66,2.41.22,1.25,1.14l-.57-.45Z" fill="#cd3a16"/>
        <path d="M45.7,42.24c.23,1.54.65,2.95.46,4.56-.12.97-.51.59-1.14.46-.07-.02-.22-.2-.55-.24-1.75-.19-2.84-.35-4.53-.72-1.43-.31-1.64-2.42-1.53-3.6.08,0,.15,0,.23,0,.07-.61.28-.58.46,0l.42.44c.01.88.17,1.72.49,2.52l.57.07c.45-.4.84-.58,1.02.16.1-.17.24-.26.41-.22,1.08.27,2.08.37,3.19.43-.04-1.19-.24-2.38-.62-3.58.06-1.17-.02-2.03-.47-3.02.06-.14.22-.43.23-.46,1.67.38,1.19,2.04,1.37,3.19Z" fill="#af350d"/>
        <path d="M40.45,11c-.7-.74.87-.18.91-.23.13-.82-.54-1.68.46-2.05-.09.58.19,1.84-.1,2.29-.23.35-1.15.1-1.26-.01Z" fill="#bb8b63"/>
        <path d="M41.13,11.91c-.23,1.21-1.46,1.01-1.37-.23l1.37.23Z" fill="#be8e68"/>
        <path d="M28.37,39.04c.09.04.17.39.4.45.42.1.97-.02,1.42,0,.08.33.31.48.68.46.1.07,2.07,0,2.51,0,.2.13.43.13.68,0,.3,0,.62-.03.91,0,.94-.52,2.47-.27,3.42,0,.22,0,.51.1.48.22-.14.62-.43,1.33-.71,1.83-2.7-.38-3.29.78-4.9.7-.98-.05-1.85-.83-3.19-.71-.56.05-3.17,1.76-3.05.39.06-.68,1.47-2.31,1.34-3.35Z" fill="#65b1e0"/>
        <path d="M39.31,39.96s.5-.14.46.46c.63.46-.02,2.12-.68,2.28h-.46c.01-.23-.02-.46,0-.68-.37-.01.08-1.92.15-2l.53-.05Z" fill="#933a39"/>
        <path d="M39.08,39.5s.2.41.23.46c-.31.59-.64,1.38-.68,2.05-.25.26-.38.01-.46,0-.28-1.34.75-.86.23-2.05-.44.15-.53-.08-.23-.46h.91Z" fill="#889eb9"/>
        <path d="M46.84,50.44c.51.28.7,2.11.7,2.64,0,.45-.73.25-.47.9.13.34.89.15.68.8-.49.27-1.54-.89-1.59-1.14-.14-.66.67-.96.69-1.07.15-.77-.38-1.01,0-2.12Z" fill="#3e8cc1"/>
        <path d="M41.82,36.76s.19.41.46.55c.63.33,1.91.5,1.56,1.58-.2.62-3.15.97-3.7.8-.93-.29.64-2.48.99-2.93.19,0,.58-.05.68,0Z" fill="#93b246"/>
        <path d="M41.59,45.88l-.34-.51c-.2.46-.82.4-1.26.28-1.08-.53-1.01-1.94-.91-2.96.09-.91.64-1.63.68-2.28.83-.12,2.06.18,2.81,0,.17-.04.14-.41.31-.45.34-.08,1.08.08,1.21-.01.07-.05-.04-.35,0-.45,1.39.63.75,1.89.94,3.05.11.71,1.3,4.02.15,3.97-.72-.03-1.86-.11-2.55-.2-.44-.06-.75-.38-1.04-.44Z" fill="#ef6032"/>
        <path d="M40,37.22c-.24.33-.87,1.43-.91,1.82-2.83-.3-6.5.41-9.22-.01-.24-.04-2.08-.83-2.14-.93-.34-.55.19-1.7.99-1.58,3.75.48,7.51.83,11.29.7Z" fill="#e8c43b"/>
        <path d="M19.93,3.02c.72-.56,2.5,2.41,1.82,2.96.21.71.6,2.48-.39,2.7-1.41.32-.87-1.69-1.38-2.65-.16-.3-1.42-1.47-1.44-1.57-.12-.68.5-1.76,1.38-1.44Z" fill="#e27823"/>
        <path d="M19.93,3.02c-.54-.38-.95-.22-1.6-.23.27-.74,2.39-.35,3.03-.17,1.05.29,2.18,2.27,1.95,3.21-.06.24-1.03,1.54-1.1.96l-.45-.8c-.19-.63-1.32-2.61-1.82-2.96Z" fill="#f2c42f"/>
        <path d="M18.11,6.21c-.67.99,1.36,1.45,1.11,2.34-.27.97-1.58,1.59-2.56,1.27s.14-1.46.08-1.67c-.06-.23-.61-.29-.66-.37-.03-.05.18-1.06.22-1.1.09-.08.66.03.95-.07.33-.11.44-.5.86-.4Z" fill="#f2c82c"/>
        <path d="M38.17,39.5c.07.16.16.3.23.46-.06,1.23-.78.02-.84,0-.98-.2-1.34-.06-1.9.68.09-.93-.07-.62-.69-.68-.02-.16-.04-.41.15-.46.56-.15,2.29,0,3.04,0Z" fill="#528b9d"/>
        <path d="M34.07,39.96c-.34.6.1,1.88-.8,2.05l.11-2.05c.23,0,.46,0,.68,0Z" fill="#418dbd"/>
        <path d="M30.19,39.5c1.07.06.55.37.68.46-1.41,1.61-1.89,1.52-.68-.46Z" fill="#4089b5"/>
        <path d="M40,45.66c.8.05.98-.18.68-.91,3.45,1.22,1.41-2.8,1.6-2.96.03-.02.66-.03.68,0,.1.1.4,2.52.26,2.86-.45,1.11-1.43.3-1.63,1.24-.59-.12-.84.14-1.6-.23Z" fill="#cc391a"/>
        <path d="M41.82,41.33c.51,2.66,1.02,3.5-2.28,2.96-.14-.55.31-2.4.68-1.25.17.54-.06.81.8.81,2.04.01-.98-2.37.8-2.53Z" fill="#ce381b"/>
        <path d="M44.55,42.69c-.6-.21-.49-.98-.69-1.43-.02-.05-1.03-.58-.1-.85,1.12-.32.76,1.65.79,2.28Z" fill="#cd3b18"/>
        <path d="M31.67,38.59c-.17-.02-2.94-.66-2.39-1.14.63-.09,1.86.55,2.36.47.22-.04.2-.56.52-.67.22-.08,1.36-.11,1.56-.05.25.07.05.5.17.64.25.28,1.32-.03,1.1.74-1.06-.09-2.27.12-3.31,0Z" fill="#e2b525"/>
      </g>
    </g>
  </g>
</svg>