<?xml version="1.0" encoding="UTF-8"?>
<svg id="Layer_2" data-name="Layer 2" xmlns="http://www.w3.org/2000/svg" viewBox="0 0 64 96">
  <g id="Cards">
    <g id="Cups">
      <g id="TenOfCups">
        <g>
          <path d="M3.46,7.91h-1.51V2.22c-.55.52-1.2.9-1.95,1.14v-1.37c.39-.13.82-.37,1.28-.73.46-.36.78-.78.95-1.26h1.22v7.91Z" fill="#e03e3e"/>
          <path d="M6.63,0c.76,0,1.36.27,1.79.82.51.64.77,1.71.77,3.21s-.26,2.56-.77,3.21c-.43.54-1.02.81-1.78.81s-1.38-.29-1.85-.88-.7-1.64-.7-3.15.26-2.55.77-3.2c.43-.54,1.02-.81,1.78-.81ZM6.63,1.25c-.18,0-.35.06-.49.17s-.25.33-.33.63c-.1.39-.16,1.05-.16,1.97s.05,1.56.14,1.9.21.58.35.69c.14.11.3.17.49.17s.35-.06.49-.17.25-.33.33-.63c.1-.39.16-1.04.16-1.96s-.05-1.56-.14-1.9-.21-.58-.35-.69c-.14-.12-.3-.17-.49-.17Z" fill="#e03e3e"/>
        </g>
        <g>
          <path d="M60.54,88.09h1.51v5.69c.55-.52,1.2-.9,1.95-1.14v1.37c-.39.13-.82.37-1.28.73-.46.36-.78.78-.95,1.26h-1.22v-7.91Z" fill="#e03e3e"/>
          <path d="M57.37,96c-.76,0-1.36-.27-1.79-.82-.51-.64-.77-1.71-.77-3.21s.26-2.56.77-3.21c.43-.54,1.02-.81,1.78-.81s1.38.29,1.85.88.7,1.64.7,3.15-.26,2.55-.77,3.2c-.43.54-1.02.81-1.78.81ZM57.37,94.75c.18,0,.35-.06.49-.17s.25-.33.33-.63c.1-.39.16-1.05.16-1.97s-.05-1.56-.14-1.9-.21-.58-.35-.69c-.14-.11-.3-.17-.49-.17s-.35.06-.49.17-.25.33-.33.63c-.1.39-.16,1.04-.16,1.96s.05,1.56.14,1.9.21.58.35.69c.14.12.3.17.49.17Z" fill="#e03e3e"/>
        </g>
        <g>
          <path d="M42.08,56.89c.36.23.33,1.45,0,1.72.34,1.17.43,2.5,0,3.65-.25.73-.32,1.54-.2,2.44l-.23.14c.28,1.38.33,2.92,0,4.29-.21-.05-.36.16-.43.64.09.02.17.06.22.11.19.2-.11,5.27-.33,5.46-.06.05-.28-.23-.32-.42.16.02.28.04.29.06.05,2.22-.12,4.62-.29,6.8-.22,1.18-.31,2.59-.27,4.2l-.16.09c-.12.34-1.02.47-1.07,0l-.27-.19c.1-.42.3-4.79.07-4.71l-.23.17c-.1-.54-1-2.18-1.29-2.79-.1-.12-.19-.24-.22-.38-.06-.24.61-4.38.75-4.91.03-.12.17-.21.33-.29.11-2.03.37-4,.93-5.96-.06-1.4-.02-2.78.14-4.12-.73-.18-.19-2.19.43-2.15.3-.84.72-2.46.78-3.82.19-.24,1.36-.52,1.37-.04Z" fill="#67b0e0"/>
          <path d="M49.38,56.46c-.29-.44-.2-1.05,0-1.5l.5.03c.37.56,1.19,3.27.36,3.51.17.02.42.07.43.19.05.62.16,5.27,0,5.5-.11.16-.24.27-.43.31.47.14.75.67.86,1.61.27.14.48.43.64.86l.29.05c.25-5.95.65-11.91,1.64-17.73.16-3.5.42-6.91.8-10.22-.33-1.38-.74-2.74-1.23-4.07l-.48-.26c-.25-1.32-.67-2.62-1.39-3.75-.94.1-1.32-.5-1.14-1.79-.51-.85-.8-1.79-.89-2.81-.68.14-.96-.25-1.07-.88,0-1.79-1.26-2.6-2.82-3.05l-.38-.55c-.46.28-.76-.3-.43-.64,2.03.52,3.96,1.18,5.11,3.15.78,1.34.49,2.31.96,3.55.4,1.06,1.59,2.23,2.12,3.46.64,1.48,1.16,2.97,1.79,4.44.69,1.61.61,3.73.53,5.47-.21,4.7-.84,9.3-1.28,13.95-.37,3.84-.44,7.75-.86,11.58-.32,2.86-1.78,1.61-2.61-.17-1.27-2.74-.94-7.17-1.04-10.23Z" fill="#7a954b"/>
          <path d="M22.77,46.17l.63-4.5c1.2-2.89,1.87-5.82,2.54-8.81.93-1.04,2.14-1.83,3.65-2.39.9-1.63,4.67-2.73,2.84.12.04,1.21.42,2.37.88,3.47l-.24.52c.83.27.04.88-.43.21-.87-1.42-1.27-2.81-1.29-4.51-.56.32-.89.9-1.43,1.25-.63.42-2.55,1.07-2.87,1.48-.5.62-.71,3.28-1,4.31-.54,1.88-1.44,3.36-1.89,5.4-.78,3.52-.58,7.19-1.22,10.58-.08.42-.25,1.1-.81,1.02-.44-1.39,0-3.07-.23-4.39-.15-.84-.99-2.09-1.22-3.29-.28-1.47-.12-3.02-.3-4.42-.29-2.27-1.14-4.82-1.45-7.13-.2-1.5-.35-2.88-.03-4.37.05-.65.9-.41.86.21.07,3.38.59,6.74,1.56,10.1.12,2.12.28,4.22.49,6.31l.32.33c.1-.76.31-1.26.64-1.5Z" fill="#7a954b"/>
          <path d="M39.72,7.54c0-.48.24-.59.59-.8,1.01-.61,3.21-.87,4.46-1.15,1.32.05,1.47,1.91,2.25,2.48,1.74,1.27,3.01-1.37,1.5-1.73-.32-.08-1.5.33-.83-.6.61-.85,1.75-.68,2.54-.14.22-.29-.95-1.79.71-1.24.94.31,1.15,1.79,1.25,1.86.16.11.74-.03,1.09.08,2.18.68,3.42,3.61.17,2.3.07,1.06.09,2.61-1.29,2.57.03-.32-.1-.58-.22-.86-.48-.7-.69-.69-.86.21-.24.35-.88,1.11-1.28,1.2-.37.09-.51-.49-.76-.51-.34-.03-1.37,1.09-1.71,1.03-.56-.1.17-1,.07-1.56-.05-.27-.49-.93-.72-1.01-.33-.13-.67.83-1.06,1.08-1.37.88-.34-.51-.31-.98s-.32-1.46-.89-1.08c-.45.3-1.14,2.17-1.93.11-.26-.11-.36-.39,0-.43l.2-.22c.47.24.9.25,1.3,0l.13-.55c.04-.08,1.19.22,1.46.49,0-.35.04-.69.13-1.01-.6.08-.67-.12-.43-.64-.66-.07-1.28.08-1.89.43l-.54-.16c-.52.59-1.1.58-1.65.16.06.55-.59.97-1.07.64-.09.54-.3.52-.43,0Z" fill="#5493bc"/>
          <path d="M43.16,13.55c.06-.19.13-.18.21,0,.16.83,1.14,2.16,1.24,2.51.12.42-.05.89.15,1.35.32.74,1.94.79.86,1.95s-2.25.11-3.55.2l-.28.23c.04,1.55-1.42.21-1.36-.97.02-1.78-.43-3.54-1.36-5.27-.74-.2-.35-1.63.21-1.93l.19-.22c1.24.69,2.46,1.41,3.67,2.15Z" fill="#d99d2e"/>
          <path d="M39.08,13.55c.46-.12.86,1.07.93,1.32.18.63.69,2.19.78,2.65.17.9-.17,1.91.76,2.67.25-.59-.13-.6.54-.64-.68,1.18,1.05.87,1.72,1.29-1.04.16-1.38.88-1.02,2.14-.05.75-4.84.8-5.13.69-.52-.2-2.15-1.65-2-2.19.05-.38.31-.61.78-.69.03-.41.19-.68.51-.81,1.14-.6,2.12-1.17,2.93-1.73l-.14-.2c0-.84-.23-1.71-.72-2.6-.43-.89-.41-1.52.07-1.91Z" fill="#e3b18a"/>
          <path d="M42.94,56.04c.2.55.06.62-.43.21l-.06.31c-1.91.08-1.95.31-1.87,2.18-.29.66-.5,1.33-.65,2.01-.37.65-.43,1.42-.43,2.15-.24.49-.21,1.03-.16,1.56l-.27.15c-.2,1.46-.48,2.89-.86,4.29l.44.35c.03,1.24-.05,2.49-.23,3.73-.28,2.02-.49,3.6-.86,5.58-.51,2.7-1.49,6.14-1.5,8.8l-.11.41c.4,1.59-1.2,1.78-.75.45-.62-.17-.66-1.39,0-1.5.08-2.92.69-5.76,1.38-8.59l.55-.64.05-1.02c-.33-.44,0-2.04.59-2.3-.17-.05-.42-.12-.43-.25-.14-1.57-.22-5.71,0-7.16l.43-.31-.41-.34c.5-2.34,1.12-4.65,1.87-6.94l.47-.12c.16-.75.29-1.74-.16-2.4.96-1.14,1.91-1.09,3.25-.88l.13.28Z" fill="#a13835"/>
          <path d="M32.21,57.32c.35.58.51,1.33.48,2.24,1.86,5.09,1.32,9.81,0,15l-.27,2.39,1.48,10.53-.39.31c-.1.59-.44.56-.64,0-.24-3.54-1.52-7.55-1.52-11.05,0-3.97,1.94-7.48,1.51-11.8-.13-1.31-.76-2.81-1.01-4.14-.22-1.17-.19-2.35-.49-3.48.23-.5.64-.55.86,0Z" fill="#3779a6"/>
          <path d="M48.95,54.75c.44.05.45,1.25,0,1.29-.2.4-.76.57-.93.91-1.38,2.83-1.33,6.28-2.23,9.13-.34,1.09-1.24,2.2-1.52,3.21-.51,1.89-.14,4.4-.48,6.38l-1.28,9.55c-.11.56-.22.51-.43,0-.58.26-.73-.08-.21-.43,0-.25-.03-.44-.32-.52.71-4.44,1.26-9.03,1.44-13.55,1.3-3.65,2.47-7.29,3.09-11.18.19-.78.71-2.27,1.36-2.65.07-.64.33-1.25,1.07-1.29-.83-.35-.49-1.49.43-.86Z" fill="#a83127"/>
          <path d="M40.79,85.22c.07-.64.52-.45.82.03l.47-.03s.38-.02.43,0c.97.49,1.3,4.19,3.42,5.27.92.47,2.5.33,2.6,1.49.08.87-1.48.89-2.17.86-2.25-.09-3.59-1.46-5.3-1.78-.74-.14-2.7.12-3.07-.14-.88-.62.55-3.27.66-3.98.12-.49.5-.59.86-.21.18-.33.46-.54.86-.64.13-.25.27-.54.43-.86Z" fill="#78934b"/>
          <path d="M44.23,21.06c.13.03.28.18.43.21.1.21.37.45.43.64.71.15,1.6,4.27,1.5,4.59-.19.64-.38.95-1.23.78-3.24.04-6.42.06-9.54.06l-.17-.49c-1.75-1.41-3-3.07-3.73-4.97l.08-.18c.13-.02.32.04.43,0,.44-.28.59,0,.43.86,1.02.48,2.55,2.03,3.31,3.01l.02.64c0-.17.04-.42.15-.43,2.29-.12,5.92-.23,8.13,0,.57-.12.92.02,1.06.43-1.03-1.17-1.57-2.97-1.29-4.51-1.16-.46-1.88-.86,0-.64Z" fill="#a83d1a"/>
          <path d="M32.86,87.79c.18.04.53-.06.64,0,.34-.38,1.74-.21,1.72.43.16.05.16.64.64.43.11-.13-.21-1.13.22-1.29-.02,2.95.92,4.6-2.12,6.57-.45.29-3.92,1.99-4.23,2.01-.59.04-.92-.46-.94-.99-.07-1.56,3.64-5.44,4.07-7.17Z" fill="#7b944e"/>
          <path d="M13.33,19.34c1.45-.06,1.61-.03,2.37,1.24.94-1.28,1.87-1.47,2.78-.59.19.07.19.14,0,.21.31.55.66.91,1.07,1.07.22.07.74.23.86.33.42.37-.15.98,1.36.79l.14.17c-.14.39-1.04.3-1.29,0-2.91.36-6.08.24-9.01,0l.29-.45c-.41.09-.6.03-.72-.41.27-.29.77-.37,1.07-.64.42.17,1.12-.8.64-.86.02-.06-.02-.14,0-.21-.44-.68-.02-1.59.43-.64Z" fill="#e0822a"/>
          <path d="M18.69,16.13c.07.91-1.75,1.45-1.93.43-.24.33-.61.26-1.12-.2-.05.43-.25.64-.6.63-.07.67-1.05.58-1.29,0-.67-.11-1.1-.66-1.29-1.29-.32-.05-.38-.39,0-.43.37-1.02,2.71-1.97,3.79-1.83,1.33.18,3.17,1.14,2.44,2.69Z" fill="#e19f32"/>
          <path d="M29.21,47.02c.63,0,.6.72,0,.86-.17.71-.46,1.28-.86,1.72-.18.95-.25,1.96-.2,3.02l-.44.2.23,2.71c.36,2.82.58,2.58,1.4-.1-.39-.31-.16-.61.31-.68l.05-1.67c-.37-1.09-.24-1.82.38-2.19.08-.32.25-.29.43,0,.41,1.37.23,3.24.06,4.76l-.49.18c-.24,1.11-.48,3.9-2.36,2.46-1.11-.85-.65-6-.37-7.45.12-.64,1.04-3.54,1.44-3.81.07-.58.24-.54.43,0Z" fill="#3b76a0"/>
          <path d="M33.07,34.58c.02-.35.13-.46.44-.51l3.89-2.32c-.18-.68.24-.99,1.26-.93l2.62-1.88c.43-.29.89-.49,1.37-.24,1.86,1.69,3.53,3.51,5.01,5.46.25.28.25.42,0,.43-.11.56-.23.54-.43,0l-.53.17c-1.24-1.18-2.48-2.35-3.72-3.51l-.04-.52c-.51-.82-1.41-.83-1.72-.43.31.7-1.28,1.41-1.93,1.5-1.23,1.39-2.67,2.25-4.29,2.57.09.67-.52,1.06-1.07.64.03.54-.18.56-.64.43-.03-.04-.26-.02-.64-.64.65.49.35-.14.43-.21Z" fill="#709857"/>
          <path d="M22.34,8.83c1.36.32,1.58.97.86,2.15-.22.47-1.44.37-1.72,0-.31.48-.52.33-.43-.21-.19-.06-.18-.13,0-.21.18-.41.68-.55,1.52-.41.79-.19-3.82-.95-4.03-.97-1.35-.12-7.81-.28-8.82.4-.56.38,1.32.38,1.6.33l.29.43c.1.62-.55.73-.86.21.1.33.03.62-.21.86-.4-.87-1.59-.02-1.89-1.01-.51-1.67,1.15-1.83,2.32-1.99,3.4-.66,7.66-.46,11.13.17.09.02.17.12.24.26Z" fill="#d2a84a"/>
          <path d="M46.8,39.3c-1.14-.43.72-1.25.64,0,.73-.28,1.13.6,1.23,1.25.57-.03,1.09-.02,1.56.04.18.07.18.14,0,.21.34.41.1.78-.74,1.11-.47,4.18-.53,8.58.28,12.7l-.41.34c.03.5-.02,1,0,1.5l-.43-.43c.23-.46.23-.84,0-1.29-.86.24-1.24-.54-.43-.86-.51-2.19-.62-4.44,0-6.65-.42-.2-.41-.45,0-.64-.42-.72-.64-2.99-.54-3.82l.32-.48-.32-.11c.12-.34-.06-.59-.54-.75-.18.05-.46.05-.48-.08-.13-.61-.15-1.46-.16-2.07Z" fill="#a98a42"/>
          <path d="M34.79,38.01c.21-.24.6-.17,1.17.21.78-.1,1.39-.02,1.83.22.07-.16.2-.35.33-.31,1.77.54,3.21.47,5.09.36.05-.15.19-.36.34-.39,1.01-.2,2.98-.33,3.67.34.28-.22.42-.22.43,0,.6.19.41.85-.21.86-.84-.98-.56-.07-.64,0,.02.1.04.21.02.3-.11.52-8.77.26-9.94.07-.88-.53-1.5-.51-1.88.06-.34.43-2.04.22-2.57,0,1.22-.65,2.34.6,1.93-1.5-.12-.57.02-.63.43-.21Z" fill="#afa963"/>
          <path d="M43.8,20.85c.26.04.39.21.43.21l-1.08.11c.88.32.87-.28,1.08.54-.05.36-.32.47-.81.32.43,1.37.16,2.43-1.47,2.31-1.48-.09-2.94,0-4.4.1-.65-.18-2.51-1.8-2.54-2.52-.58.23-1.29.3-2.15.21.31.22.43.36,0,.43-.2-.29-.21-.6-.43-.86.61-.2.66-.38,1.5-.43,1.02-.33,1.6-.26,1.72.21.44.3,1.49,1.71,2.08,1.89.2.06,3.9-.11,4.25-.17.85-.15.24-1.61.32-2.36.48.05,1.05-.07,1.5,0Z" fill="#b23222"/>
          <path d="M31.78,22.35l-.23.49c-1.31.55-2.54,1.28-3.7,2.2-2.21,1.22-4.29,1.43-6.37,1.39-.54.18-1.67-.42-1.29-1.07,1.61-.11,3.31.07,4.95-.31,2.51-.58,4.21-2.8,6.64-3.55.16.29.36.77,0,.86Z" fill="#839c55"/>
          <path d="M15.26,24.71l.58.14c1.01,2.84,2.78,4.56,5.29,5.16l.36.49c.48-.31.77-.24.86.21.71,1.01-1,.61-1.72.43-.4.51-.77.44-.86-.21-.36-.15-.82-.19-.86-.21-.63-.36-2.37-2.57-2.84-3.28-.67-1-1.22-2.05-1.67-3.16-1.18-.15-2.38-.17-3.58-.07-1,.19-1.92-.74-.93-1.22l.28.08c-.34.36-.29.58.14.66h3.89c.78-.02,1.71.19,1.06.98Z" fill="#a43121"/>
          <path d="M31.57,39.94c.19.06.18.13,0,.21l-.07.22c-.83-.16-1.32-.17-1.43.21.26.81-.34,1.28-1.8,1.4-.3.24-1.7,2.14-1.31,2.33,1.29.1,1.85.84,2.47,1.85.07.09.15.23.21.43.39.46.11.72-.43.43-.07.05-.35-.05-.43,0-.32-.31-.66-1.08-.95-1.3-.72-.53-1.87-.02-2.04-1.4-.15-1.18.46-1.1.95-1.82,1.39-2.08.6-.83,2.47-1.83.39-.21.62-.79,1.03-.91.67-.2,1.07.18,1.35.17Z" fill="#a9362e"/>
          <path d="M34.36,12.26c.27.6.64,2.4,0,2.79l-.14.38c.11,1.42-.13,1.8-.72,1.12.7.35.67,3.02,0,3.43l.3-.45c.74.09,1.38.11,2.06-.19.27.06.55.27.86.64.05-.19.13-.18.21,0,.04,1.32-.21,1.18-1.29,1.5-.44-.3-1.2-.24-1.72-.21l1.71-.54c-.47-.73-1.96-.35-2.37-.63-.14-.09-.4-2.42-.37-2.76.05-.5.51-.89.59-1.35.21-1.18-.21-2.73.87-3.74Z" fill="#d7ab61"/>
          <path d="M30.92,50.89l.29.06c.03,1.73.14,3.48.35,5.26.81-1.09,3.12-2.1,4.08-1.03.35.01.56.31.43.64-.06.43-.34.43-.86,0-.38.41-.98.65-1.82.72-.4.34-.8.6-1.18.78-.27-.03-.6.04-.86,0-.9-.15-.7-.99-1.29-1.5.12-.54.44-1.3.45-1.38.14-1.07-.14-2.44-.02-3.55,0-.35.28-.28.43,0Z" fill="#a53638"/>
          <path d="M35,39.73c.71-.82,1.93,1.45,1.07,1.93.54.25.55.41,0,.64-.13.55-.41.83-.86.86.4.92-1.85,1.19-2.36.64-.46-.04-.32-1.38,0-1.5.39-.1.57.34.64.64,1.43-.94,2.5-2.38-.17-2.37l-.26-.42c-.12.49-.34.84-.64,1.07-.38-.01-.66-.37-.86-1.07v-.21c.37-.01.73-.21.86-.21.66,0,2.05-.13,2.57,0Z" fill="#90943a"/>
          <path d="M35,11.83c.39.59.63,1.19.72,1.78l-.3.34c-.11,1.91-.12,3.79,1.52,5.09l-.23.52c.58.03.55.24,0,.43-.02,0-.26.34-.42.21-.04-.03-.29-.63-.44-.85-1.43-.35-2.01-3.08-1.5-4.29-.03-.36.09-.83,0-1.14-.05-.18-.47-.13-.43-.25.18-.56.31-.62.43-1.4.06-.37.14-.71.21-1.07.38-.16.58.32.43.64Z" fill="#c38949"/>
          <path d="M11.18,21.7l9.01.22c.32.3-.02.39-.32.43-2.66.34-5.6-.43-8.26.21-.13.29-.3.29-.43,0-.18-.03-.25-.1-.21-.21-.05-.32,0-.42.21-.64Z" fill="#fdbb4c"/>
          <path d="M21.91,22.56c.73.18.46,1.72.11,1.72h-3.33c-.15.58.3.41.73.67.19.11.32.39.35.4.39.14.4.32,0,.43-.55.81-2.25-.53-2.36-1.29-1.27-.45.08-.81.91-.74,1.13.05,2.26.01,3.38-.11l-.27-.3c-.52.07-.86-.05-1.01-.35-.48-.26-.23-.33.21-.43.38.01.99-.07,1.29,0Z" fill="#b13c30"/>
          <path d="M40.15,7.54c.53-.21.6.01.21.43.56.16.56.28,0,.43l-.39.38c-1.19-.74-5.86,1.87-3.84,2.6l.16.45c.18-.15.3-.21.43,0,.35,1.2-1.67,1.46-1.72,0-.17-.17-.26-.45-.43-.64.08-.36-.08-.48.34-1.06,1.41-1.98,2.77-1.92,4.81-2.59.12-.04.32.04.43,0Z" fill="#b85341"/>
          <path d="M43.16,11.41c.1.74.1,1.46,0,2.15-.11.19-.22.2-.42.13-1.17-.37-1.83-1.86-3.44-2.06-.35.51-2.29.87-2.57.21-.14,0-.29.01-.43,0-.14-.15-.25-.39-.13-.52,1.73-1.8,4.75-.16,6.3,1.09l-.51-2.38.34-.33c.06-.19.13-.18.21,0,.24.56.51,1.12.64,1.72Z" fill="#c64c20"/>
          <path d="M20.2,25.35c.3.48.97.75,1.29,1.07,1.35-.26,2.09,3.1,1.29,3.86.08.41.21,1.23-.21,1.29-.28.89-1.93.39-1.93-.43h1.72c0-.14,0-.29,0-.43l-.28-.14c.2-.95.01-1.91-.58-2.87-.38.17-.76-.12-1.14-.87-.8.08-1.44-.65-.57-1.06,0-.14,0-.29,0-.43.06.03.31,0,.43,0Z" fill="#938738"/>
          <path d="M19.12,16.34c-1.12,1.06-.12.67,0,1.84.04.43-.26.96-.21,1.16.18.45-.1.57-.43.21l-1.07-1.29c-.21.44-.42.37-.64-.21-.62-.41-.6-1.09,0-1.5.87.21,1.36.06,1.93-.43.3-.24.44-.17.43.21Z" fill="#af8251"/>
          <path d="M39.29,86.07c.55.1.47.25.21.64-.26.1-.45.36-.86.21.13-.9.36-4.81.21-5.58-.07-.93.59.04.64.33.22,1.45-.28,2.95-.21,4.39Z" fill="#4282a7"/>
          <path d="M10.97,8.4c.15-.49.55-.41.95-.44,3.24-.22,6.56.03,9.67.45.4.05.87-.26.75.42-3.24-.76-8.07-.89-11.37-.43Z" fill="#f3e9c6"/>
          <path d="M21.48,10.98c.57.14.53.17,0,.43-.59,2.53-.36,3.05-2.36,4.94-.22.02-.34,0-.43-.21-.06-.76.16-1.05.64-.86-.04-.33.1-.54.43-.64.15-.76.43-1.19.86-1.29-.19-.34-.19-.77,0-1.29-.05-.16,0-.46.15-.9-.4-.27-.2-.35.28-.39.16-.01.35.2.43.21Z" fill="#b45342"/>
          <path d="M15.05,16.98c.61.15.55.58,0,.86.27.29.15.4-.21.21-.21.56-.72,1.72-1.5,1.29-.04.03-.3-.07-.4.03-.13.14.01.46-.03.61-1.01-.6.26-2.87.86-3,.36-.08.9.06,1.29,0Z" fill="#af7e3d"/>
          <path d="M10.97,11.83c.41.22.6,1.03.21,1.29.65-.04,1.77,1.53,1.29,2.15.04.11-.04.31,0,.43-.48.11-.45-.27-.64-.53-.92-1.31-1.36-2.09-1.29-3.76.01-.24-.04-.49.02-.73.03-.12.11-.1.2-.13.83-.2.98,1.15.21,1.29Z" fill="#aa4a31"/>
          <path d="M32,21.7c.32.64.43,1.11.89,1.79.83,1.2,2.08,2.09,2.75,3.36-.08.15-.17.32-.33.39-.23.09-3.4-2.83-3.12-3.56-.59-.33-1.14-.87-.42-1.34-.02-.28.02-.57,0-.86.19-.04.16.11.21.21Z" fill="#aa9447"/>
          <path d="M10.97,22.35c.1,0,.19.12.21.21-.07.18-.22.32-.43.43-.22.14-.74.23-.86,0-.32.12-.28.49-.2.73.28.84,4.04-.11,4.7.55-.87-.17-4.22.26-4.73-.09-.72-.51-.22-1.99,1.3-1.84Z" fill="#b7564a"/>
          <path d="M33.93,35.01c.52.29,1.41,2.13.86,2.57.58.03.55.24,0,.43-.09,0-.3.18-.43.21-.03-.18-.99-2.67-1.07-2.79.14-.43.45-.33.64-.43Z" fill="#3a7ca4"/>
          <path d="M40.37,7.97c.18-.62.94-.54.95.08.72.14,1.05.4.98.77.07.15.08.53.21.86h-.21l-.46.11c-.5-.55-.99-1.02-1.47-1.4-.02-.14.03-.31,0-.43Z" fill="#965c64"/>
          <path d="M12.9,20.2c1.22-.75-.62,2.32-.64.86.14-.12.58-.7.64-.86Z" fill="#b75e34"/>
          <path d="M18.91,20.42c.21.2.44.62.64.86-.04-.01-.12.38-.65-.09s-.38-.56-.42-.99c.29-.5.5-.36.43.21Z" fill="#ba5f35"/>
          <path d="M23.2,10.98c-.04.07.13.38-.13.44-.42.1-1.11-.08-1.58-.01.03-.12-.02-.29,0-.43.48.09,1.31.21,1.72,0Z" fill="#e8d6b2"/>
          <path d="M18.48,19.56c.1,0,.3-.17.43-.21.04.17,1.06.37,0,.78v.29c-.09-.09-.3-.13-.43-.21,0-.07,0-.14,0-.21-.57-.09-.54-.26,0-.43-.69.58-1.75-.63-1.07-1.29.86.32.92.4,1.07,1.29Z" fill="#cf9b4b"/>
          <path d="M51.95,10.33l-.64-.43c.03.26-.08.44-.22.64v-1.07c.64-.06.68.45.86.86Z" fill="#c7e3ee"/>
          <path d="M41.22,6.9c.82-.09,1.27.48.43.86.62.03.9.25.86.64.03.13-.04.33,0,.43h-.21c-.23-.49-1.38-.92-1.93-.86-.03-.13-.18-.28-.21-.43.06-.02.41-.45,1.07-.64Z" fill="#6a98bf"/>
          <path d="M43.37,13.55h-.21v-2.15c.2.88.08,1.45.21,2.15Z" fill="#ee6232"/>
          <path d="M41.65,69.77c.4,2.51.27,5.39-.27,7.9.13,2.26,0,4.47-.4,6.63.44.22.28.73-.19.92-.05,1.25-.19.62-.43.86.16-.16-.17-3.53,0-4.15.06-.23.43-.12.43-.14v-6.87s.29.05.37-.04c.17-.19.13-4.55.05-5.11.07-.57.27-.55.43,0Z" fill="#959baa"/>
          <path d="M38.43,72.99c.19-1.36-.19-2.79-.21-4.08.37-1.41.65-2.84.86-4.29.03-.59-.15-1.32.43-1.72,0,1.39.38,2.71.2,4.17-.22,1.73-1,3.96-1.27,5.92Z" fill="#417faf"/>
          <path d="M42.51,58.61l.44.37c.15,1.53.27,4.4,0,5.87-.05.26-.23.49-.47.57l.05,3.56-.43.36c-.07.57-.27.55-.43,0-.19-.04-.18-.11,0-.21.01-1.43-.02-2.86,0-4.29.25-.73.32-1.54.2-2.44l.23-.14c.02-1.21,0-2.43,0-3.65.07-.57.27-.55.43,0Z" fill="#959baa"/>
          <path d="M42.51,56.25c1.46-.41,1.01,2.64,0,1.5-.17-.31-.32-.6-.43-.86-1.79-.07-1.06.98-1.29,2-.04.16-.38.13-.42.29-.1.44.1,1.03,0,1.43-.06.23-.42.12-.44.14-.24-.8.32-1.42.42-2.05.09-.54-.14-1.7.1-2.04.17-.23,1.54-.26,2.05-.42Z" fill="#908cad"/>
          <path d="M42.08,62.26c0,.44.08,2.47,0,2.58-.03.04-.31-.02-.43,0,0-.44-.08-2.47,0-2.58.03-.04.31.02.43,0Z" fill="#8ba1b9"/>
          <path d="M41.22,69.77c-.04-.33-.59-.79-.43-1.29.75-.14.55.15.86.64,0,.07,0,.14,0,.21.31.13.31.3,0,.43h-.43Z" fill="#5291bc"/>
          <path d="M42.08,56.89c.68.03.39.15.43.86.59.26.59.6,0,.86h-.43v-1.72Z" fill="#8ba1b9"/>
          <path d="M40.37,86.07s.06.28-.06.36c-.1.06-.57.19-.8.28-.28-.1-.2-.41-.21-.64.23-.04,1.01.06,1.07,0Z" fill="#70aca7"/>
          <path d="M45.09,21.92c1.21.3,2.81.92,3.33,2.15.29.69.14,1.56.64,2.14l.11-1.29c.38-.51.85,2.84.91,3.06.11.43.48.7.58,1.14.12.52-.25,1.37.44,1.6l.11-.64c1.1,1.17,1.81,3.36,2.04,4.93.51.97,2.1,6.31.72,6.73-.17.05-.35,0-.5-.08-.37-.12-.4.06-.08.55-.41.64-.48,1.47-.48,2.23.3,1.01.47,6.81-.55,6.85-.2,0-.33-.19-.39-.4l-.29-.19c-.02-1.97-.08-3.95-.16-5.93.03-2.86-.81-5.08-2.56-7.19-1.29.46-1.44-1.68-.4-2.19-.36-.35-.69-.78-.89-1.24-.04-.03-.22.03-.36-.07l-4.67-4.88c-.12-.12-.26-.21-.44-.2-.69,0-2.71,2.03-3.54,2.28-.43.13-.83-.17-.86-.13-.06.07.1.57-.05.82-.12.21-3.52,2.18-4.06,2.49-.22.12-.59.11-.62.13-.53-1.2-1.05-2.68-1.06-4,0-.75.64-.72.63-1.36-.15-.14-1.74.45-1.99.64-.29.22-.39.67-.81.96-.75.52-2.8,1.25-3.22,1.72-.72.8-.87,3.61-1.22,4.79s-1.08,2.4-1.46,3.69c-.5,1.71-.56,3.49-1.18,5.15-.21-.09-.31-.23-.31-.44.04-2.69.38-4.47,1.08-6.96-.42-2.78-.75-5.64-.77-8.48-.32-1.66.1-2.47-1.29-3.86-.12-.66.33-.41.74-.43,1.99-.11,3.15-.13,4.95-1.07,1.52-.79,2.87-2.3,4.61-2.58.08,1,.44.63.79,1.14.12.19.02.56.14.72.16.21,2.41,2.49,2.57,2.57s.27.04.36.07c1.42.4,1.92.03,3.12,0,2.46-.04,4.94.02,7.4,0,.18-.18-.91-4.35-1.07-4.93Z" fill="#97b63f"/>
          <path d="M50.24,40.8c-.03-.48.24-.58.6-.26.52.45.71,4.93.74,5.79.26,6.54.02,13.13-.22,19.6l-.26.2c-.17-.32-.86-1.15-.86-1.61v-6.01c0-.94-.35-2.67-.86-3.54-.06-1.18-.33-1.74-.44-2.68-.26-2.23-.21-7.6,0-9.88.13-1.35.69-.67,1.29-1.61Z" fill="#92af45"/>
          <path d="M53.24,35.01c1.63,1.66,1.4,4.36,1.3,6.55-.23,4.69-.86,9.29-1.29,13.94-.37,3.92-.64,7.87-.86,11.8-.63,1.19-.6.45-.64-.32-.33-.45-.45-1-.37-1.63-.04-3.82.13-8.14.3-11.97,0-.19.13-.37.29-.55.06-.22.2-.35.42-.36-.08-.88.25-2.55,1.09-2.75-.1,0-.2-.02-.29-.06-.17-.09-.14-3.4-.11-3.71.01-.15.23-.24.4-.3-1.08-.27-.46-2-.06-2.79-.12-.5-.1-.9.06-1.18.06-.02.71-.9.76-1.06.14-.44.16-1.17.1-1.63-.11-.9-1.12-2.23-1.25-3.05-.06-.36.2-.75.17-.92Z" fill="#95b448"/>
          <path d="M51.95,50.89c.58.6.57,1.32,0,1.93.02,4.61-.44,9.67-.21,14.16-.87-.11-.52-.64-.64-.86-.18-1.13.18-2.26.22-3.32.11-2.69.18-21.06-.68-21.98-.1-.1-.33,0-.4-.03,0,0,0-.15,0-.21-.34-.08-.55-.37-.63-.88-.73-.68-.95-1.24-.65-1.69-.42-.11-.42-.3,0-.43.47.48,1.04.8,1.47,1.43,1.86,2.75,1.49,8.59,1.54,11.87Z" fill="#799938"/>
          <path d="M19.77,30.93c.24.1.59.13.86.21.57.17,1.12.66,1.93.43.12.07.22.15.23.24.34,2.56.61,5.46.63,7.99l-.6,1.58c-.22,2.12-.45,4.21-.69,6.28-.07,0-.36.32-.54.02-.73-1.2-.38-4.28-.55-5.68-.43-3.39-1.85-6.73-1.7-10.33.02-.41-.22-.86.43-.74Z" fill="#94b344"/>
          <path d="M22.77,46.17c-.03.36-.44,1.12-.22,1.72-.21.08-.38-.21-.43-.21.04-1.92-.14-3.96.27-5.85.2-.89.78-1.71.82-2.62.11-2.22-.74-5.28-.66-7.62,0-.17.44-.86.21-1.29.5,2.6.44,4.03.64,6.55.06.68.43,1.2.45,1.93.03,1.2-.64,1.98-.86,3.02-.3,1.41-.12,2.99-.23,4.38Z" fill="#799937"/>
          <path d="M49.59,7.54c0-.75.09-1.37-.86-1.51.54-1.04,1.13.29,1.3.42.27.2.72-.67,1.27-.31.81.52-.62.6-.43,1.18,1.13.34.75-.61.97-.66.83-.18,2.87.64,3.11,1.62-.93.15-2.16-.71-3.06-.49-.23.06-1.27.83-1.35,1.04-.18.44.58,2.06-.74,2.14v-.95c-.11-.9-1.62,1.44-1.93,1.38.05-.27-.08-1.2,0-1.29.05-.06.93.45,1.07-.11.11-.45-.48-.8-.43-1.05.02-.11.97-.76,1.07-.77.84-.53.84-.74,0-.64Z" fill="#67b1e2"/>
          <path d="M45.3,6.47c.02.5.16.72.43.64.09.19.3.34.34.62s-.17.84-.13.88c.05.05.54-.19.86-.12.12.03,1.61.63,1.28.98-.27.29-1.8-.17-2.14-.33-.61-.3-.99-1.65-1.94-.96-.36-.02-.65-.24-.87-.66-.3.59-1.03.58-1.49.23.09-.44-.04-.66-.43-.86.7-.2,1.11-.17,1.73-.31,1.03-.23,1.37-1.08,2.34-.12Z" fill="#69afdf"/>
          <path d="M44.01,8.19c0,.28-.37.86-.54.85-.06,0-.52-.45-.97-.64s-.81-.4-1.29-.43v-.21c.14-.02.31.03.43,0,.26-.07,1.01-.22,1.05-.25.11-.1-.13-.83.34-.6.31.15.97.91.97,1.29Z" fill="#85c0e6"/>
          <path d="M51.74,9.05c.1-.12.7.31.21-.86,1-.18,1.42,2.17.75,2.14-.08,0-1.02-1.22-.96-1.28Z" fill="#66b1e2"/>
          <path d="M45.3,6.47c.22.22.3.37.43.64l-.42.64c.06-1.01-.78.09-.86,0l.86-1.29Z" fill="#8ec9f3"/>
          <path d="M49.59,7.54c.25-.86,1.34-.25,1.29.32-.02.19-.34.04-.56.19-.09.06-.08.34-.23.37-.25.04-.46-.23-.5-.23,0-.21,0-.43,0-.64Z" fill="#8cc5ed"/>
          <path d="M39.29,11.62c.09.61-.21,1.09-.21,1.93,0,1.38.72,2.7,1.26,3.98,0,.09-.47.4-.61.53-.34.82-2.17,1.86-3,1.5-.27-.86-1.36-1.11-1.62-2.56-.24-1.31.3-2.5-.31-3.44l.86-.11c-.85-.36-.67-.77-.64-1.61.73.74.98.8,1.72,0,.82-.04,1.6-.34,2.57-.21Z" fill="#ebba93"/>
          <path d="M39.72,18.06c.67-.07.44.14.11.43-.81.74-1.86,1.29-2.9,1.5-.07.01-.14,0-.21,0-.02-.13.03-.32,0-.43.9-.07,2.32-.92,3-1.5Z" fill="#bf8d65"/>
          <path d="M35.22,55.82c.26.01.47.1.63.25-.16,7.03-.3,14.04-.41,21.03.12.09.21.18.21.26,0,3.15-.04,6.26-.43,9.35-.05.48.04,1.01,0,1.5-.72-.21-.7.05-1.72-.43l-1.52-10.83c.19-4.17,1.97-7.98,1.49-12.21-.26-2.37-1.67-4.9-1.26-7.43.21-1.34,1.88-1.44,3-1.5Z" fill="#67b1e0"/>
          <path d="M47.45,56.89c-.07.79-.82,2.19-1.06,3.13-.48,1.9-.69,3.98-1.25,5.83-.8,2.66-2.34,4.71-1.77,7.88l-1.5,11.05c-1.27.16-1.06-1.11-.58-1.93.12-1.69.15-3.38.09-5.08.48-2.62.64-5.36.49-8.2l.22-.23c.02-1.21-.16-2.86-.02-3.98.05-.41.41-.2.46-.61.21-1.64.01-4.37-.02-6.13,0-.29.01-.57,0-.86.7.22.63-1.29,0-1.5.2-.06.36-.2.43-.21.38-.93,1.98-.92,2.91-.82,1.04.11,2.61.52,1.59,1.68Z" fill="#ef612f"/>
          <path d="M39.72,59.04c-.4,1.73-1.93,5.96-1.93,7.4v7.72c0,.72-.5,2.49-.64,3.33-.43-.18-1-.2-1.7-.04-.21-.34-.19-7.67.09-7.94.05-.05.17-.01.32.04.91-.43,1.08-.47.51-.1l-.29-.11-.43-.2c.15-4.39.19-8.79.14-13.17l.29-.15c.08-.87,3.63.55,3.74.72s.03,2.14-.09,2.5Z" fill="#ed6230"/>
          <path d="M36.07,55.82v13.52c.05.2-.02.27-.21.21-.12.19-.19.16-.23.51-.26,2.22.21,4.93.01,7.21l1.39-.86.11,1.07c-.51,2.98-1.61,6.32-1.93,9.23v-22.43c.52-2.38.61-5.28.44-7.74-.03-.43-.04-.53-.44-.73.28-.01.58-.01.86,0Z" fill="#f3683e"/>
          <path d="M35.65,55.18c.31-.76,1.56-.4,2.24-.21,2.13,1.21,2.41.95,3.12-1.26,1.22-1.11,1.38.29,1.32,1.35,2.12-1.09,3.86-.58,6.02.07l.18.49c-.1.62-.72.77-1.07,1.29.07-.79-.06-1.01-.81-1.23-1.7-.5-2.22-.03-3.7.37-.78.09-1.79-.16-2.52.07s-.41,1.81-.47,2.42c-.04.33-.21.45-.23.51-.06-.57.1-1.28,0-1.83-.18-.96-2.8-1.35-3.65-1.39-.24-.18-.5-.3-.43-.64Z" fill="#bd261c"/>
          <path d="M38.22,68.91c-.02-1.29.2-3.19.86-4.29-.06,1.38.23,3.22-.86,4.29Z" fill="#e4e0ef"/>
          <path d="M40.37,50.46c.6.31,2.47.45,2.78-.19.28-.58.22-2.96.14-3.68-.05-.23.05-.32.25-.4.12-.05,2.41,1.01,1.98,1.48.22.3.43.37.64.21-.18-.46,2.05-.34,2.15-.26.14.11.08,2.07-.64,1.55-.53.25-.55,2.11-.5,2.72,0,.06.13.08.29.07.94-1.34.92.78.84,1.62.08-.15.16-.05.23.31.03.05-.06.36.07.57.09.15.33.22.36.29-.7-.14-.35.35-.43.86l-3.35-.84c-1.2-.03-2.18.63-3.3.83v-1.93c-.76,0-.68,1.04-1.03,1.65-1.01,1.79-2.09.16-3.64-.1-.52-.09-1.03-.05-1.56-.05-1.1,0-2-.06-2.98.56-.41.25-.85,1.14-1.31.85-.72-.46-.37-4.66-.42-5.69-.03-.62,1.9-1.17,2.54-1.26.42-.06,2.77.09,3.26.17.08.01.14.11.21.23.06-.5.14-.56.25-.19.2-1.89-.12-3.66-.68-5.39-.47.11-1.08-1.92-.43-2.15,0-.11.02-.21.07-.29.1-.14,2.97.65,3.37.79.11,2.26.35,4.49.72,6.69.35.43.39.75.13.96Z" fill="#ee4b29"/>
          <path d="M42.08,69.34c-.03,2.23.28,5.33.02,7.42-.05.41-.41.2-.46.61-.21,1.69.25,3.91.03,5.61-.02.19-.91.86-.42,1.36.18.19.42-.38.62.45.04.17-.01.38.21.43-.06.05-.23,1.17-1,0h-.29c.03-.61-.11-1.49,0-2,.57-2.46.2-3.99.42-6.49s.4-4.39.44-6.96c0-.14,0-.29,0-.43h.43Z" fill="#cd6f53"/>
          <path d="M47.88,91.66c.32.3-.02.39-.32.43-3.74.47-5.52-2.23-9.12-1.72-.02-1.01.12-2.35.97-3.01.33-.26,2.5-1.56,2.76-1.48.47.14,1.5,3.78,2.92,4.82.76.56,2.69.86,2.8.96Z" fill="#95b443"/>
          <path d="M44.23,21.7c.39,1.52.84,3.01,1.29,4.51h-9.33c-1.06-1.13-2.46-2.37-3.33-3.65.03-.13-.04-.35,0-.43.75-.05,1.47-.12,2.15-.21.87.43,2.09,2.12,2.89,2.17.44.02.87-.22,1.29-.23.86-.02,3,.17,3.61-.03.85-.28-.07-2.13.14-2.33l1.29.21Z" fill="#f06131"/>
          <path d="M29.42,95.09c0-.38.18-.72.35-1.05.29-.58,2.23-3.81,2.56-4.11.22-.2.51.03.52.01.04-.06-.33-.86.21-1.19.24-.15,2.02.5,2.49.54.52,1.94-.76,3.44-2.3,4.38-.51.31-3.45,1.76-3.83,1.42Z" fill="#94b443"/>
          <path d="M14.83,18.06c.69.29,1.33.29,1.93,0,.16.03.47.15.64.21.14.53.49,1.29,1.07,1.29.02.13-.02.29,0,.43-.41.15-1.11-.24-1.38-.18-.44.11-1.09,2.08-2.06.72-.16-.23-.18-.66-.24-.72-.3-.27-1.63.41-1.47-.46.52-.38.97-.99,1.5-1.29Z" fill="#f1bd37"/>
          <path d="M11.18,22.56c.14-.02.29,0,.43,0,2.88-.11,6.13-.1,9.01,0l-.21.43c-.06.41-.23.39-.43,0-3.07.12-6.14.12-9.23,0-.06-.59.03-.38.43-.43Z" fill="#c35114"/>
          <path d="M21.05,10.55v.21c-.17.42-.26.86-.43,1.29-.09.41-.09.84,0,1.29-.15.43-.43,1.05-.86,1.29-.18-.25-.32-.04-.43.64-.21.26-.27.53-.64.86-.18-.47-.25-1.31-.75-1.72-.43-.35-2.08-.73-2.64-.5-.65.28-.2.25-1.4.5-.08.02-.85.93-1.44.86-.2-.6-1.02-1.45-1.29-2.15.26-.42.19-.85-.21-1.29-.03-.26.21-.85-.21-1.29.07-.03.71-.18.86-.21l.52-.53c2.71-.3,5.68-.12,8.37.28l.55.47Z" fill="#eb4f26"/>
          <path d="M16.76,16.55c.01.5-.02,1,0,1.5-.15.43-1.7.41-1.72-.21.03-.28-.04-.59,0-.86.29-2.09,1.19-.56,1.72-.43Z" fill="#d0cbb9"/>
          <path d="M28.35,49.6c.07.65.29,1.13.67,1.44l-.03.77c.86.16.77,1.14.65,1.86l-.17.43c-.65-.18-.67.64-.19.88.22.94-.61,1.98-1.3.98l-.28-3.15c.05-.95.08-2.52.64-3.22Z" fill="#4293cd"/>
          <path d="M27.71,52.82c.52.84.13,4.74,1.51,2.47l-.65-.11v-1.5s1.07,0,1.07,0v1.07c-.03.31-.48,2.66-.54,2.79-.21.44-.7.56-1.09.24-.48-.4-.35-4.09-.3-4.95Z" fill="#5dabe0"/>
          <path d="M29.21,49.17c-.47.58-.32,1.3.43,1.72.11-.33.28-.31.43,0l-.43,3.86c.03-.32.02-.74,0-1.07-.1-1.9-.99-1.23-1.08-1.64-.08-.35.1-.84,0-1.22-.08-.31-.54.25-.21-1.22.13-.6.28-1.41.86-1.72.58.31.53.95,0,1.29Z" fill="#64aedd"/>
          <path d="M29.64,50.24c1.5,0,1.93.21,1.29.64-.13.02-.29,0-.43,0s-.29,0-.43,0-.29,0-.43,0c-.52.02-1.03-.99-.43-1.72-.02-.43,0-.86,0-1.29v-.86c.23-.17.29-.31.43-.43.07-.19.14-.19.21,0,1.27.04.62,3.2-.21,3.65Z" fill="#b6a35b"/>
          <path d="M41.22,30.29c.46-.57,1.41-.17,1.72.43,1.47.78,2.77,2.96,4.29,3.86.45.39.52,1.14.21,2.24l.22.33c.89.3.29,1.1-.43,1.29-1.05.11-2.33-.14-3.34-.02-.41.05-.2.41-.61.46-.87.11-3.67.11-4.53,0-.06,0-.91-.42-.95-.45-.38,0-.5-.07-.34-.24-1.1.16-1.86.05-2.67-.62-.26-.8-.86-1.65-.86-2.57.37-.19.72-.43,1.07-.64.96-.41,1.53-.34,1.72.21l.27.08c.04.79.16.91.37.35-.05-.3-.05-.4.21-.21.59-.35.41-.95.21-1.29-.22-.46.14-.88,1.07-1.27l.43-.44c.25-.72,1.37-.95,1.93-1.5Z" fill="#66b1e1"/>
          <path d="M39.29,31.79c-.02.06.47.46-.45.96-.57.3-.73-.2-1.05.76.37.27.26,1.15-.21,1.29-.08,0-.26.09-.21.21-.28.12-.42-.07-.41-.57l-.24.14-1.72-.21c.86-.52,2.04-1.12,2.72-1.57.43-.28.62-1.21,1.57-1Z" fill="#6fb1ce"/>
          <path d="M47.66,34.15c.79.55,1.2,1.29,2.36,1.07.15.7-.87.37-1.42.62-1.22.57-.21,1.17.34,1.74.02.13-.03.32,0,.43-.19.43-.91.86-1.29.43-.13.02-.29-.01-.43,0,.6-.56.39-.82.43-1.29-.25-.76-.25-1.61,0-2.57v-.43Z" fill="#73974c"/>
          <path d="M47.66,34.58s.47.78.45.97c-.04.41-.4.28-.44.47-.08.34.03.77,0,1.14-.97.11-.09-1.81-.43-2.57.08.05.34-.05.43,0Z" fill="#6ea8a4"/>
          <path d="M42.94,30.72c-.59-.31-.84-.59-1.72-.43.04-.04-.12-.37.13-.44.67-.17,1.57.08,1.58.87Z" fill="#73aaa4"/>
          <path d="M11.61,10.33h-2.36c.04-.24-.07-1,0-1.07.16-.16,3.88-.61,4.4-.64,1.13-.08,2.74-.09,3.87-.01.62.04,4.89.72,5.12.88.3.21.51.88.34,1.06-.07.07-1.6.02-1.93,0-3.07-.16-6.29-.89-9.44-.21Z" fill="#f5c435"/>
          <path d="M46.8,39.3c.83.59.33,1.52.64,2.15.56.17.84.52.34.88-.22.16-4.83.9-5.26.27.49,2.44.64,4.75.26,7.27-1.86,1.02-3.33-.11-2.42-1.97-.22-1.78-.38-3.58-.46-5.39-.66-.24-1.44-.37-2.33-.4-.29.27-1.47.03-1.5-.43-.07-.62-.4-1.77-1.07-1.93l-.11-.86c1.02-.28,1.59.33,2.35.44.87.12,9.17.27,9.56-.01Z" fill="#f0c72f"/>
          <path d="M48.3,42.3c.07.36,0,.56-.19.62l-2.86.46,2.91,2.38.35.84c0,.21,0,.43,0,.64-.04.28-.11.53-.38.53-1.38.03-2.85-.52-4.03-1.36-.62-.01-.94-.24-.96-.67.51.36.55.48.13.95.15,1.06.11,2.14-.13,3.23.09,1.06-1.99.9-2.79.54-.47-.56-.76-3.26-.86-4.19s.38-3.21-.58-3.49c-.3-.09-2.62-.5-2.85-.47-.03-.2.02-.44,0-.64.51.05,1.04.33,1.5.43.84.27,1.47.14,2.17-.1.25,1.96.45,3.93.62,5.9.12,1.49-.37,2.35,1.82,1.93.83-.16.59-2.71.53-3.54-.08-1.11-.67-2.92-.62-3.89s.7-.03,1.21.09c1.37.32,3.14-.49,4.57-.39.07-.05-.35-.48-.43-.64.95-.09.7.32.86.86Z" fill="#e19e28"/>
          <path d="M48.52,47.24c.03,2.21-.02,4.44,0,6.65-.01-.02-.37.09-.43-.14-.21-.78.52-2.06-.64-1.79-.39-.48-.35-2.5.21-2.79.02-.13.71-.75.43-1.29-.16-.16-1.72.03-1.93,0-.21.6-.62.4-.64-.21-.12-.06-1.1-.89-1.35-1-1.45-.62-.36.61-.34,1.11.01.39-.41.28-.45.46-.2.85.49,2.4-.76,2.64-.77.15-1.76.16-2.25-.42.49,0,2.79.18,2.79-.54v-4.18c1.81.66,3.3,2.14,5.36,1.5Z" fill="#df522c"/>
          <path d="M48.52,46.59l-4.07-3.33c0-.62,3.43-.32,3.86-.97.39,1.34.19,2.86.21,4.29Z" fill="#e45326"/>
          <path d="M48.95,38.01c.26.84,1.32,1.21,1.29,2.57-.97.81-1.38.21-2.36.43.74-.66.12-1.07-.43-1.71l.21-.86c.23-.04.76-.67,1.29-.43Z" fill="#d7b089"/>
          <path d="M34.79,37.58c.74-.36,1.15.41,1.22.42.51.11,1.19-.12,1.64,0,.23.06.12.42.14.43-.72-.08-1.58.1-2.26.02-.39-.05-.27-.43-.74-.44-.02-.13.04-.32,0-.43Z" fill="#78aebf"/>
          <path d="M35,21.92c-.66-.22-.29.6-.54.65-.64.13-1.05-.27-1.61-.44.23-.47,1.63-.47,2.15-.21Z" fill="#d64732"/>
          <path d="M17.41,24.49c.68.13,1.47,1.31,2.36,1.29,0,1.08.12.41.8.71.2.09.76,1.02.92,1.22.21.39,1.11,2.51.56,2.87l-.56-.08c-3.98-.59-4.36-2.65-6.22-5.79-.12-.92,1.91-.93,2.15-.21Z" fill="#ef622e"/>
          <path d="M10.76,22.99c3.05-.15,6.17.11,9.23,0l.12.32c.77-.13,1.31-.03,1.6.32-1.07.45-2.36.13-3.51.24-.29.03-1.34.07-.78.62-.5-.09-1.76-.1-2.15.21-.12-.2-.31-.68-.42-.75-.56-.37-3.46.07-4.4-.1-.55-.1-.57-.38-.54-.86.15-.06.62.01.86,0Z" fill="#d64628"/>
          <path d="M21.48,27.71s.3-.07.38.05c.12.16,0,.5.07.64.52.95.47,1.06.41,2.32-.35.17-.71-.19-.86-.21.66.21.48-1.13.45-1.41-.04-.3-.79-.6-.45-1.38Z" fill="#c67336"/>
          <path d="M30.07,40.59c1.7-1.46,3.18,2.15,2.28,3.49-.37.55-2.27,1.86-2.92,2.09-.82.21-.85-.87-1.51-1.17-.55-.25-1.61-.02-1.5-1.07.01-.14,1.48-2.21,1.6-2.28.76-.48,1.36.19,2.06-1.06Z" fill="#ef5e37"/>
          <path d="M31.57,40.16c.47.11.6.74.86,1.07.41-.24.69.91.43,1.07v1.5c.88.51-1.9,2.56-2.5,2.92l-.51-.13s-.17-.04-.21,0c-.56.04-.45.01-.21-.43.77-1.61,2.95-1.46,2.99-3.35,0-.22-.81-2.09-.89-2.17-.19-.19-1.16-.34-1.45-.05.04-.07-.07-.34.01-.41.07-.05,1.3-.07,1.49-.02Z" fill="#ad3712"/>
          <path d="M34.36,15.05c.18,1.85.47,2.73,1.5,4.29-.26,1.13-1.41.5-2.36.64v-3.43s.37.09.43-.14c.15-.58-.37-1.54.43-1.36Z" fill="#e1a031"/>
          <path d="M35.22,43.16c.16-.33.4-.54.64-.25.34.42,1.34,6.47.81,6.88-1.32-.15-2.62-.15-3.9,0-1.13.5-1.97.81-3.13.45-.15-.42.99-2.71.21-3.65,1.04-.9,1.44-1.23,2.57-2.05.26-.19.35-.66.44-.74.47-.37,1.74.05,2.36-.64Z" fill="#f1c72f"/>
          <path d="M36.07,42.3c.05.39.2,1.96.43,2.15.17.41.5,1.5.58,2,.17,1.07.33,2.75-.15,3.58-1.17.43-2.4-.16-3.74.01-.72.09-1.84.77-2.26.85-.05-.96-1.06-.03-1.29-.64,1.47.13,3.02-1.02,4.41-1.08.79-.03,2.17.81,2.58.23s-.64-4.68-.88-5.6c-.09-.36.03-.76-.53-.64.22-.24-.02-.76.86-.86Z" fill="#e69f2b"/>
          <path d="M33.5,42.95c-.77-1.02-.91-1.95-.43-2.79,1.13-.04,1.82.05,2.57.99-.83.98-.67,1.96-2.14,1.8Z" fill="#8ca942"/>
          <path d="M33.07,40.16c.36.5-.11,1.04,0,1.57.01.07.8.45.43,1.22-.54-.06-.39-.13-.64-.64-.06-.12-.42-1.01-.43-1.07-.06-.32.03-.73,0-1.07.21,0,.43,0,.64,0Z" fill="#a8a34f"/>
          <path d="M20.41,22.99c.62-.03,1.93-.04,1.29.64h-11.59c-.35-.27,0-.39.32-.43,2.58-.33,6.1.1,8.83.02.39-.01.69-.23.73-.23.14,0,.29,0,.43,0Z" fill="#ec603a"/>
          <path d="M40.37,8.4c.26.04.47-.06.8.07.08.03,1.1,1.15,1.13,1.22.17.38.78,3.28.64,3.43-1.5-.55-2.54-2.01-4.21-2.13-.73-.05-2.03.16-2.44.84-1.9-.17-1.1-1.48-.1-2.36,1.28-1.12,2.58-1.3,4.18-1.08Z" fill="#ee6232"/>
          <path d="M18.48,18.27c-.29-.11-1.46-.86-1.07-1.29.24-.26,1.33.81,1.07,1.29Z" fill="#e0ad84"/>
          <path d="M19.34,15.27c-.09-.98-1.46-1.4-1.61-1.71-.07-.15-.28-1.87-.22-1.95.3-.43,2.89-.88,3.13-.63.05.05-.03.65,0,.86-1.39-.59-.66,1.69-.86,2.79-.19,1.04-.24.4-.43.64Z" fill="#ed4d27"/>
          <path d="M20.63,13.34c-.51.08-.48-.04-.44-.54.05-.68.41-.67.44-.75.48.32.14.9,0,1.29Z" fill="#ee8e50"/>
          <path d="M16.76,18.06c.01.34.43.97-.11.86-.61-.84-1.72.22-2.04,0-.12-.08.78-.66.21-.86.06-.03.12-.21.21-.21.09,0,1.56.18,1.72.21Z" fill="#e19f32"/>
          <path d="M14.4,17.41c.24.24-1.06,1.53-1.29,1.29-.13-.74.63-1.24,1.29-1.29Z" fill="#d7a881"/>
          <path d="M10.97,11.83c.81-.09.98,1.49.21,1.29-.17-.45-.15-.85-.21-1.29Z" fill="#ea8d4b"/>
          <path d="M53.45,41.66c.92,1.22-.05,1.81-.21,2.7-.12.66.21,1.02.21,1.27v4.08c0,.08-.55.99-.62,1.52-.13.91.05,1.95-.02,2.88-.98.23.14-1.42-.86-1.29,0-.64.01-1.29,0-1.93.53.11.46-.24.58-.59.79-2.43-.28-4.99.08-7.44.06-.41.58-.84.42-1.41.04-.06.39.23.43.22Z" fill="#88a83d"/>
          <path d="M38.86,13.12c.36.27-.02.39-.32.43-.7.09-1.54-.06-2.26,0,.59-1.07,1.65-.37,2.58-.43Z" fill="#c69468"/>
          <path d="M36.93,17.2c-.05,1.09-1.52,1.06-1.29,0h1.29Z" fill="#c79467"/>
          <path d="M35.67,16.09c.33.1.49-.07.77-.13.72-.16.09.78-.67.59-.4-.1-.56-1.08-.14-.7.03.03-.02.23.04.25Z" fill="#bc8d68"/>
          <path d="M35,67.41c.24.24-.84,1.31-1.07,1.07s.84-1.31,1.07-1.07Z" fill="#448cbd"/>
          <path d="M36.07,69.34c.17-.16.5-.42.75-.43.47.21-1.07,1.77-.96.65.05-.08.14-.15.21-.21Z" fill="#cc3e19"/>
          <path d="M38.43,53.89c-.54.18-.58-.65-.62-.99-.09-.79-.05-5.01.4-5.34.89.03.21,1.04.21,1.29v5.04Z" fill="#cf2c1b"/>
          <path d="M46.16,47.88c-.15,1.49.18,3.78-.86,4.93l.21-5.15s.6.21.64.21Z" fill="#cd2b16"/>
          <path d="M47.66,49.17c-.14.75,0,1.98-.21,2.79-.07.29-.32.5-.64.43.12-.89.08-2.03.21-2.9.06-.42.25-.66.64-.32Z" fill="#cf2d1c"/>
          <path d="M36.5,44.45c.06.05.39-.05.43,0,.1.13-.08,1.19,0,1.57.04.17.39.06.44.45.13,1.03-.14,2.35,0,3.43-.04.26-.33.09-.44.13.47-1.85-.31-3.72-.43-5.58Z" fill="#e17225"/>
          <path d="M36.07,52.82c-.55.69-.98-2.15-.32-2.14.48.01.3,1.77.32,2.14Z" fill="#cf2e1a"/>
          <path d="M33.5,50.89l.21,2.36c-.41.07-.57-.17-.64-.54-.06-.32-.24-2.09.43-1.82Z" fill="#cc2913"/>
          <path d="M44.23,23.85c.06.06.29,1.64.22,1.72h-1.93c-.15-.9,1.18-.55,1.29-.64.05-.04-.15-1.69.43-1.07Z" fill="#ca3318"/>
          <path d="M15.69,13.12c-.21-.6-.73-1.13-.11-1.72,1.03-.98,1.88,1.53.11,1.72Z" fill="#f8ad3c"/>
          <path d="M29.21,49.17c.03.62-.25,1.18.42,1.43v.29c-.28,0-.57,0-.85,0,.12-.65-.35-1.91.43-1.72Z" fill="#91ac99"/>
          <path d="M42.29,32.01c.62.5-.03,4.47-.32,5.36-.12.37-.01.51-.53.43.16-2.06,1.06-3.74.21-5.79.18.02.57-.05.64,0Z" fill="#408fc5"/>
          <path d="M46.34,34.82c.16.61,0,1.11-.5,1.48-.79.59-1.28-.84-.65-1.72.27-.38.75.33,1.15.24Z" fill="#4696cd"/>
          <path d="M36.72,34.58c0-.14,0-.29,0-.43.36-.29.55.47.64.86.09.34.33.7-.11.86-.48.17-.54-.87-.53-1.29Z" fill="#87c4ea"/>
          <path d="M37.79,33.51c.66-.28.56,1.1.21,1.41-.21.19-.37-.12-.43-.12.09-.38.1-.94.21-1.29Z" fill="#84c5f3"/>
          <path d="M38.22,40.8c.26-.51,1.51-.57,2.07-.62,1.91-.16,2.45-.01,4.09.7.19.08.12.63,1.14.13.18.6-1.26,1-1.46.82-.09-.08-.02-.39-.04-.39h-3.65c.27-.74,1.52-.11,2.14-.43v-.21s-4.29,0-4.29,0Z" fill="#e4b923"/>
          <path d="M41.27,45.48c.07.11.46.12.56.39.17.48-.04,1.27.03,1.8-.39,0-.9.1-1.04-.35-.11-.34-.31-2.4-.22-2.73.35-1.29.63.82.67.89Z" fill="#e4af29"/>
          <path d="M40.37,47.88c-.76-1.1-.34-2.69-.42-3.98-.15-2.31-.3-1.34-1.86-1.59-.31-.05-.45-.21-.51-.23.46-.08,1.2.12,1.59.01.11-.03.45-1.52.74-.52.42,1.47.32,4.57.46,6.3Z" fill="#e4af29"/>
          <path d="M47.23,46.81c-1.69-.49-4.8-1.4-4.29-3.65.16-.19,2.75,1.8,3.01,2.03.2.18,1.53,1.39,1.28,1.61Z" fill="#f1c132"/>
          <path d="M28.57,45.31c-.13-.65.48-.34.87-.73.44-.45.32-1.18,1.29-1.33l.3-1.58c1.53,1.44-.29,1.77-.85,2.36-.52.54-.07,1.63-1.61,1.28Z" fill="#d23e1b"/>
          <path d="M29.85,41.66c.39.41-1.37,1.26-1.47,1.64-.08.29.11.72.29.71.25-.01.17-.87.75-.64,0,1.79-2.08,1.05-1.39-.43.11-.23,1.67-1.45,1.82-1.29Z" fill="#cf3a19"/>
          <path d="M31.57,46.38v.86c.07.1.65-.66.86-.43.38.42-.79.84-.43,1.29.4.49.29-.52.75-.43.75.16-1.27,1.9-1.91,1.71s-.24-2.4-.34-2.99h1.07Z" fill="#e4b825"/>
          <path d="M38.65,8.83c.48.47-1.33,1.06-1.5,1.18-.25.18-1.15,1.75-1.5,1.39-.57-.59,2.7-2.87,3-2.57Z" fill="#cf3c1a"/>
        </g>
      </g>
    </g>
  </g>
</svg>