<?xml version="1.0" encoding="UTF-8"?>
<svg id="Layer_2" data-name="Layer 2" xmlns="http://www.w3.org/2000/svg" viewBox="0 0 64 96.22">
  <g id="Cards">
    <g id="Clubs">
      <g id="ThreeOfClubs">
        <path d="M0,6.04l1.46-.18c.05.37.17.66.38.85.2.2.45.29.74.29.31,0,.57-.12.79-.35.21-.24.32-.55.32-.96,0-.38-.1-.68-.31-.9s-.45-.33-.75-.33c-.19,0-.42.04-.69.11l.17-1.23c.41.01.72-.08.93-.27.21-.19.32-.44.32-.75,0-.27-.08-.48-.24-.63-.16-.16-.37-.24-.63-.24s-.48.09-.66.27c-.18.18-.29.44-.33.78l-1.39-.24c.1-.48.24-.86.44-1.14.2-.29.47-.51.82-.67.35-.16.74-.24,1.17-.24.74,0,1.34.24,1.78.71.37.39.55.82.55,1.31,0,.69-.38,1.24-1.13,1.65.45.1.81.31,1.08.65.27.34.41.74.41,1.22,0,.69-.25,1.28-.76,1.77-.5.49-1.13.73-1.89.73-.71,0-1.3-.21-1.77-.62s-.74-.95-.82-1.61Z" fill="#3b920f"/>
        <path d="M64,90.4l-1.46.18c-.05-.37-.17-.66-.38-.85-.2-.2-.45-.29-.74-.29-.31,0-.57.12-.79.35-.21.24-.32.55-.32.96,0,.38.1.68.31.9s.45.33.75.33c.19,0,.42-.04.69-.11l-.17,1.23c-.41-.01-.72.08-.93.27-.21.19-.32.44-.32.75,0,.27.08.48.24.63.16.16.37.24.63.24s.48-.09.66-.27c.18-.18.29-.44.33-.78l1.39.24c-.1.48-.24.86-.44,1.14-.2.29-.47.51-.82.67-.35.16-.74.24-1.17.24-.74,0-1.34-.24-1.78-.71-.37-.39-.55-.82-.55-1.31,0-.69.38-1.24,1.13-1.65-.45-.1-.81-.31-1.08-.65-.27-.34-.41-.74-.41-1.22,0-.69.25-1.28.76-1.77.5-.49,1.13-.73,1.89-.73.71,0,1.3.21,1.77.62s.74.95.82,1.61Z" fill="#3b920f"/>
        <g>
          <path d="M55.86,39.26c-.12.3-.44.29-.96,0l-.85.14c.02.38-.05.65-.4.84.29.17-.53,1.1-.59,1.13-.48-.02-.96.02-1.46.13l-.39.24c-1.1.21-2.19.35-3.29.43-2.12,4.85-8.39,6.02-13.21,6.32l-5.18.32c-5.2.2-12.19,2.46-12.98,8.37-.06.45-.17,3.75.12,3.78.06,0,1.13-.31,1.16-.36-.54-6.79,6.54-7.78,11.75-8.36l6.88-.66c3.63-.43,7.3-1.25,10.38-3.29l.51-.11c.51-.27.62-.1.58.45l-.09.71c.96-.39,1.28-.36.96.1-2.2,1.62-5.68,3.48-8.44,3.68-1.46.26-2.77.45-4.29.56-.64.13-1.19.18-1.65.15l-.17.07c-.65.23-1.57.35-2.23.19l-.04.1c-.65-.05-1.28-.02-1.9.1-.51.06-1.04.11-1.59.13l-.06-.13c.36.07.17.17-.11.29-.56-.05-1.01-.02-1.35.09-.06.14-.14.14-.19,0l-.05.1c-.3-.05-.54-.02-.72.1-.14.13-.34.2-.58.19.08.31-.28.38-.39.1-.54.09-1.09.21-1.63.38.1,0,.06.04-.12.1.12.24,0,.28-.19.1v.09c-.52.09-.78.24-1.16.59-.14.13-.27.26-.39.39.23.15.17.24-.1.19,0-.18-.66.7-.83.97-.44.73-.48,1.3-.53,2.13.02.09.03.17.03.26s0,.17-.03.24c-.59,1.45-1.25,3-1.88,4.36h-.16c-.31.52-.53,1.09-.67,1.71l-.1.03c.18.17.15.21-.1.19l-.19.12c-.12.93-.52.74-.88.08-2.34-5.79-3.27-12.52,2.18-16.87.79-.63,1.99-1.43,2.95-1.75.06-.21.27-.3.63-.28.46-.28.87-.38,1.21-.3.09-.14.28-.19.44-.23.48-.1.88-.19,1.36-.32,1.28-.34,3.11-.63,4.43-.55l.17-.07c.02-.09.05-.08.1,0,.79-.1,1.61-.13,2.46-.07.99-.21,2.03-.31,3.1-.29l.05-.11c.64.06,1.25,0,1.81-.2,1.26-.06,2.38-.27,3.54-.68-.16-.38.37-.38.64-.38.52-.39.95-.61,1.59-.7.19-.28.39-.4.58-.38.94-.57,2-1.48,2.42-2.52-.13-.21-.03-.29.19-.29,1.11-.87,2.2-2.01,3.1-3.1.28-.37.61-.76.97-1.16-.16-.23-.06-.31.19-.19.1-.2.25-.4.39-.58.21-.23.41-.49.58-.78.38-.5.7-1.02.97-1.55-.05-.06-.11-.14-.11-.22,0-.11.82-1.49,1.08-1.42,0,.53.61.93.91,1.37,1.2,1.7,1.96,3.73,1.8,5.81Z" fill="#67b1df"/>
          <path d="M13,35.67c-1.05-1.87-1.21-3.22-1.94-5.09-.77-2-2.59-3.07-3.82-4.71-2.47-3.3-3.87-7.92-2.33-11.92,1.36-3.54,5.53-6.56,9.21-4.27,2.96,3.15,5.91,6.35,8.52,9.81,2.27,3,4.37,6.2,5.59,9.79l.29-.48.17.22c.01.95.21,1.89.58,2.81.04.19.02.34-.07.46.09.17.19.34.26.51s.15.35.2.53c.38,1.44.74,2.89,1.09,4.33.04.18.06.37.08.56s.02.38.02.57l.21.06c.01.54.07.97.17,1.3.22.08.35.33.39.78.19.04.25.22.19.52.43.36.44.73.43,1.26.17.2.25.38.25.55l.17.11c.24.96.59,1.89,1.03,2.79l-.14.21c-.38.14-.92.26-1.26,0-.11.11-.21.13-.29,0l-.29-.12c-1.68-4.3-3.02-8.73-4.03-13.29-2.36-8.13-7.96-15.07-13.83-21-1.03-1.04-2.09-1.54-3.54-1.05-3.64,1.23-4.78,4.56-4.26,8.13s2.57,5.93,5.09,8.51c1.24,1.55,1.77,3.1,2.26,5,.53,1.76,1.59,3.3,2.74,4.73,1.69,1.88,3.25,3.86,4.67,5.94.47.79,1.87,3.51,1.82,4.26,0,.09-.02.17-.05.26.03.36-1,.61-1.28.57l-.17-.18c-1.35-4.55-4.31-7.03-6.98-10.67-.31-.63-.7-1.21-1.16-1.75Z" fill="#ce8728"/>
          <path d="M53.14,32.08c-.27.54-.75,1.16-.97,1.65-.25.51-.61,1.1-.97,1.55l-.29.41c-.02.24-.12.36-.29.37-.1.21-.24.4-.39.58-.09.07-.14.15-.19.19-.36.35-.61.7-.77,1.04l-.2.12c-.61.74-1.32,1.52-2.04,2.2-.28.26-.54.47-.85.63,0,.16-.04.24-.22.27-.07.26-.04.14-.19.29-.64,1.01-1.44,1.85-2.42,2.52-.17.18-.28.48-.61.61-.23.09-.41.03-.58.08-.07.02-.84.55-.92.57-.25.07-.47-.09-.71.2-.08.15-.31.14-.39,0l-.08-.21c2.05-2.51,4.32-4.92,6.83-7.22,5.66-6.06,8.79-15.39,10.83-23.29.29-1.12.47-2.22-.03-3.32-1.02-2.24-3.16-3.56-5.62-3.23-5.01.66-6.71,6.29-7.84,10.46-.59,1.72-1.55,2.8-2.76,4.1-1.3,1.51-2.13,3.36-2.8,5.23l-1.84,5.37c-1,2.83-2.82,5.18-4.77,7.42-.05.06-.12.1-.2.13s-.16.07-.25.09c0,0-.13.03-.17-.02-.06-.08-.21-.62-.22-.75-.13-.35-.33-1.29.18-1.37.14-.26.38-.49.6-.67.28-.44.61-.86.97-1.26-.2-.22-.02-.39.19-.51-.06-.35.26-.67.39-.27.79-1.25,1.57-2.65,1.98-4.09l.16-.18c.13-.58.33-1.17.58-1.75-.21-.2.05-.9.19-1.16l-.08-.21c.35-.19.57-.51.66-.96.08-.41.21-.8.39-1.16.12-.22.23-.56.29-.87-.14-.13-.08-.19.1-.1.07-.31.2-.57.39-.78-.17-.37.19-1.05.58-1.16.56-.93,1.2-1.8,1.94-2.62.93-1.31,1.49-1.49,2.06-3.22,1.3-3.9,1.64-6.91,5.07-9.77,4.61-3.85,11.61-1.09,11.88,4.9.05,1.15-1.22,4.91-1.62,6.23-1.35,4.38-2.93,8.82-4.97,12.92Z" fill="#739242"/>
          <path d="M23.67,55.65l.1.2c-1.47,3.15-2.87,6.4-4.18,9.73-2.37,5.08-4.68,10.2-6.93,15.34l.04.15c.62.48,1.04,1.05,1.47,1.71,4.66-6.39,9.3-12.72,13.92-18.98.26-.38.53-.54.83-.48.49-.02,1.13,1.12.58,1.45.22.2-.32.85-.58.78-.72.72-1.3,1.55-1.8,2.47-.14.21-.31.35-.53.44.04.32-.03.51-.19.58.05.22.04.22-.19.19.17.11.11.2-.1.19-.19.18-.35.37-.48.58-.18.17-.31.36-.39.58-.09.54-.45.98-.97,1.16-.23.4-.48.79-.78,1.16l.09.24-1.04,1.4c.02.18.02.35-.02.5-.28.05-.38.23-.29.53l-.19.15-.1-.58-7.01,9.53c.08,1.07.03,1.95-.32,2.97-.37,1.08-2.25,4.5-3.15,5.09-.59.39-1.45.35-1.55-.48-.14-1.23.08-2.56.1-3.78.03-1.81-.05-3.73.09-5.53.09-1.13.75-1.99,1.18-2.99,1.7-3.89,3.37-7.79,5.22-11.61-.02-.5.11-.81.41-.92,0-.3.09-.48.27-.54.03-.06.03-.13.1-.19.23-.61.49-1.19.78-1.75.13-.15.17-.4.23-.55.52-1.31,1.19-2.83,1.81-4.3.09-.65.75-2.56,1.17-2.96.06-.05.12-.1.19-.14.01-.04.07-.09.1-.19.04-.19.18-.36.39-.39.25-.32.81-.52.99-.56l.18-.12c.06-.02.15-.06.19-.1.03-.16.37-.21.39,0Z" fill="#739142"/>
          <path d="M26.19,69.22c.15-.09.35-.03.58.19.22.11.5.31.58.58.25.1.52.31.58.58.25-.12.32-.05.19.19.31.13.72.46.78.78.28.14.54.33.78.58.22.15.48.35.78.58.25.21.52.42.78.58.24.17.5.3.78.39.92.45,1.82.93,2.72,1.45.14-.14.22-.1.19.1.36.17.68.37.97.58.29-.2,1.09.24,1.07.58.01,0,.01.18.09.24,2.22,1.88,3.46,4.42,4.41,7.13.24.68,1.04,3.06,1.03,3.64,0,.26-.18.62-.4.77-1.07.74-3.75-1.13-4.51-1.99l-.14.68c-.3-.05-.25-.66,0-.78-.42-.49-.88-.93-1.39-1.31-.58-.71-1.22-1.38-1.91-1.98-.85-.7-1.81-1.39-2.83-1.9l-.08-.23c-.2.16-.65-.18-.78-.39-1.8-.9-3.48-1.94-5.04-3.1-.22.24-.58-.1-.58-.39-.21-.12-.4-.25-.58-.39-.29.23-.73-.25-.78-.58-.28.17-.99-.48-.97-.78-.13-.16-.23-.28-.18-.51.09-.36.97-1.21,1.15-1.63.29-.38.55-.76.78-1.16.33-.38.64-.78.97-1.16.06-.22.19-.42.39-.58.13-.25.3-.44.48-.58.03-.06.07-.13.1-.19Z" fill="#68b1e1"/>
          <path d="M40.05,53.32c1.14,1.79.66,4.06.77,6.06s.87,3.85,1.58,5.69c2.65,6.89,5.62,13.69,8.36,20.54.6.23,1.17.54,1.65.97.89.81,3.08,4.72,3.15,5.87.04.73-.24,1.75-1.17,1.46-2.57-1.5-5.22-2.89-7.71-4.51l-5.85-8.6-3.41-5.36-.29.19c-.1-.13-.16-.32-.2-.54l-.74-.96.06-.24s-.05-.06,0-.1c.14-.3.41-.1.59.11,1.85,2.65,3.69,5.36,5.48,8.07.77.47,1.14,1.04,1.11,1.71l1.01,1.12c.04.38.19.65.45.82.16.64.58,1.28,1.21,1.5.53-.32,1.06-.66,1.59-1.02l.09-.25c.37-.11.72-.24,1.04-.39l-9.1-22.56c-.48-2.03-.66-4.12-.53-6.26-.04-.89-.12-2.26-.95-2.72l-.04-.21c-.17-.05-.35-.16-.19-.29h.85c.43-.21.82-.25,1.18-.1Z" fill="#ce8728"/>
          <path d="M30.55,10.27c.16.3.19,1,.58.87.25.08.35.34.1.48.29.81.55,1.45.78,1.94.09-.12.12-.08.1.1.09.02.08.05,0,.1.24.42.49.81.76,1.17l-.08.19c.08.22.21.41.39.58.47.78,1.32,1.6,2.13,2.13.19-.01.39.11.58.39l.1-.09c.32.19.62.42.87.67.02.01.05.23.24.39.98.78,2.14,1.38,3.05,2.23v.21c-.47.67-.93,1.34-1.36,2.02-.19.39-.42.75-.58,1.16-.18.22-.31.47-.39.78-.04.03-.06.06-.1.1-.05.31-.15.6-.29.87-.13.14-.27.52-.28.92l-.11.05-.06.16c.01.32-.42,1.55-.91.61-.48-.64-.83-1.55-.97-2.33-.19-.48-.4-.95-.64-1.43-.03-.13-.07-.24-.14-.32-.1.03-.17-.03-.19-.19-.19-.33-.38-.65-.58-.97-.24-.31-.43-.63-.58-.97-.25-.32-.51-.64-.78-.97-.09.03-.12,0-.1-.1-.42-.57-.91-1.12-1.45-1.65-.19.28-.7-.18-.68-.48-1.59-1.71-2.93-4.55-3.2-6.88l-.12-.84c-.14-1.17.38-.49.46.23l1.05-.22.17.16.23.24c.29,1.92,1.13,3.51,2.21,5.09.14.2,1.43,1.61,1.55,1.63.04.01.32-.32.27-.43-1.62-1.54-2.46-3.52-3.17-5.63l.08-.32c-.31-.73-.18-1.05.41-.94.19-.29.41-.53.66-.71Z" fill="#68afdf"/>
          <path d="M22.5,75.04c.33.16.65.55.97.78l.19.56c.28,4.96.89,10.09,2.06,14.93.51,2.1,2.45,3.04,4.49,2.85,4.32-.4,5.85-5.21,5.7-8.96l.18-.26.08-.11c.45.4.88.82,1.28,1.27.03.21,0,.55,0,.78-.09,4.83-3.95,10.33-9.33,8.89-2.39-.64-3.48-2.12-4.01-4.43-.95-4.14-2.24-11.48-2.08-15.62,0-.22-.06-.6.05-.78.06-.13.28.02.44.1Z" fill="#ab1e28"/>
          <path d="M36.85,18.8s-.23.04-.36-.03c-.04-.02-.51-.48-.61-.56l-.59-.57c-.03-.09.01-.16.1-.2l-.14-.07c-.15-2.09-.3-4.18-.45-6.28-.7-.08-1.37-.27-2.02-.57l-.41,2.92c-.01.18-.08.25-.27.23-.04-.02-.07-.09-.1-.1-.28-.61-.54-1.26-.78-1.94-.03-.17-.09-.25-.1-.48,0-.6.29-1.37.19-1.89-.05-.24-.63-1.06-.77-1.56-.38-1.35-.36-5.37.14-6.64.27-.69.96-1.49,1.64-.77,1.31,2.82,2.83,5.55,3.99,8.43l.53,10.09Z" fill="#ab1e28"/>
          <path d="M55.86,39.26c-.3,3.9-4.09,7.97-7.08,10.18.17-.21.09-.25-.14-.19-.33.09-.61.38-1.02.28,0-.42.13-.78.1-1.22-.02-.28-.24-.1-.39-.14l.09-.3c2.05-1.71,4.29-3.77,5.28-6.27-.45.1-.82.06-1.11-.12l1.41-.29c.01-.31.51-.52.52-.74,0-.27-.36-.12-.28-.42.86.12.54-.73.58-.78.03-.04.91-.2,1.02-.2.47,0,.59.4,1.02.2Z" fill="#6db7e6"/>
          <path d="M29.97,18.9s.6.43.68.48l.53.59c.29.09.37.21.25.38l-.15.18c-.59,3.93-1.16,7.86-1.71,11.8-.17.29-.25.2-.37-.06-.31-1.18-.86-2.29-.68-3.49l1.45-9.89Z" fill="#aa1f27"/>
          <path d="M26.77,12.01c-.54-1.87-.6-5.31,2.26-3.48.54.34,1.22,1.17,1.52,1.73-.12.49-.1.37-.39.63-.06.05-.07.2-.12.22-.36.22-.69-.41-.56.8h-.22c-.15-.35-.9-1.74-.77-.77l-.18.19-1.36.29-.29-1.07c.04.46.04,1,.1,1.45Z" fill="#6eb8e7"/>
          <path d="M36.27,73.88c.2.3.83.97.92,1.27.05.15-.02.32-.05.48-.04.28-.12.51-.19.78-.22-.14-.78-.44-1.07-.58-.26-.15-.32-.28-.19-.39l-.11-.22c0-.13.33-1.48.4-1.52.15-.08.24.06.29.19Z" fill="#a8232a"/>
          <path d="M40.34,53.13c-.08.04-.23.18-.29.19-.19.03-.42-.04-.61,0-.08.02-.03.18-.21.2-.26.03-.6-.02-.88,0-.24,0-.32-.07-.14.19l-.15.18c-.75-.05-1.49.02-2.23.2l-.15-.19c-.41.17-1.02.12-1.45,0-.05-.29.15-.19.34-.19.35-.01.96.07,1.25,0,.08-.02.03-.18.21-.2.41-.05.96.07,1.37.02.19-.02.09-.19.28-.21.36-.05.82.06,1.18.02.19-.02.09-.19.28-.21.37-.05.83.04,1.22,0Z" fill="#8ab4a4"/>
          <path d="M40.73,21.03s0,.12-.05.19c-.46.65-1.07,1.28-1.47,1.88-.08.12-.06.56-.42.55.39-.81.83-1.5,1.36-2.23.02-.03.5-.24.58-.39Z" fill="#6b9981"/>
          <path d="M23.08,47.7c.26.03.25.12,0,.19-.46.04-.3.11-.42.16-.5.21-.94.27-1.42.42-.04-.13-.06-.26-.1-.39.22-.03.5.05.71,0,.05-.01.67-.36.75-.39.04-.3.41-.27.48,0Z" fill="#9f9b79"/>
          <path d="M17.17,66.9c-.24.44-.47,1.02-.68,1.45.03-.45-.22-.85-.39-1.26.3-.07.13.22.25.3s.38,0,.52.09c.1-.18-.23-.7.29-.58Z" fill="#83b3bc"/>
          <path d="M13,35.67c.14.1.46.28.55.42.06.09.2.62.26.71.11.18.5.21.36.61-.46-.63-.77-1.05-1.16-1.75Z" fill="#cba469"/>
          <path d="M51.59,41.49c.46-.05.99-.06,1.45-.1-.39,1.19-1.15,2.19-1.94,3.15-1,1.21-2.52,2.76-3.78,3.64-5.89,4.15-13.48,3.53-20.3,4.57-3.06.46-6.92,1.34-8.45,4.35-.64,1.26-.55,2.3-.54,3.68-.41,0-1.1.37-1.41.39-.25.02-.3-.85-.32-1.1-.23-3.43.31-5.72,2.96-8,6.61-5.69,16.97-1.84,24.45-5.9,1.72-.94,3.4-2.25,4.1-4.14,1.27-.1,2.53-.39,3.78-.53Z" fill="#c3d0e1"/>
          <path d="M25.6,55.26l.21.07c1.15,1.84,2.34,3.73,3.58,5.65,5.9,8.42,11.69,16.9,17.38,25.44.16-.28.63-.51.94-.33-.15.44-.5.46-.82.68-.42.29-.58.71-1.08.44-.05-.03-.75-.72-.78-.77-.07-.11-.2-.61-.27-.74-.08-.15-.28-.16-.32-.22-.07-.12,0-.38-.13-.6-.08-.14-1.03-1.05-1.06-1.19-.04-.22.06-.48-.05-.71-.05-.11-.83-.65-1.02-.92-.77-1.08-1.41-2.14-2.13-3.2-1-1.49-1.95-2.89-2.97-4.26-.23-.3-.33-.8-.82-.83l-.21-.08c-.85-1.2-1.72-2.36-2.6-3.5-.14-.04-.2-.14-.19-.31-.67-.95-1.34-1.91-2.01-2.87-.14,1.05-.17,2.08-.08,3.09l-.14.19c-.19.26-.36.02-.39-.26-.05-1.27-.02-2.54.08-3.81,0-.1-1.02-1.48-1.25-1.46.17-.7-.26-.96-.58-1.45-.63-.26-1.08-1.15-1.34-1.8-1.13-1.53-2.28-3.21-3.13-4.96-.42-.16-.58-.91-.19-1.1.08-.3.51-.31.78-.29.08-.04.29,0,.39-.1.25-.11.31-.06.19.19Z" fill="#d78c24"/>
          <path d="M40.15,45.37c.13,0,.26,0,.39,0-.02.02.03.16,0,.18-.07.06-.36-.02-.51.01-.05.01-.85.37-.91.38-.63.15-1.73.07-2.29.2-.08.02-.03.18-.21.2-.37.05-.91-.08-1.25,0-.08.02-.03.18-.21.2-.43.06-1.17-.11-1.54,0-.07.02-.06.35-.25.19-.04-.04.13-.22-.35-.2-.32.02-.19.19-.38.21-.85.11-2.14-.02-3.06,0-.21-.25.02-.36.67-.32.72.08,1.4.06,2.04-.07.42,0,.84,0,1.26,0,.12-.26.27-.26.39,0,.28-.11.58-.24.88-.39,1.68.06,3.55-.25,5.14-.76l.18.18Z" fill="#7fb19b"/>
          <path d="M21.43,57.01c-.37,1.06-.92,2.07-1.36,3.1-.43-1.22.3-2.37,1.16-3.15.14-.13.21-.27.19.05Z" fill="#e9f7ee"/>
          <path d="M27.35,46.73c.04-.05.08-.1.12-.1.41-.02,1.56-.08,1.88-.03.05,0,.09.06.13.13.05.29-.15.19-.33.19-.51.02-1.18-.07-1.66,0-.18.02-.13.18-.21.2-.56.13-1.64.06-2.19.2-.07.02-.05.17-.14.19-.59.15-1.26.33-1.87.39v-.19c-.07-.26.2-.37.39-.19.21-.09.44-.14.68-.16,0-.07.01-.17.07-.19.28-.14,2.53-.61,2.79-.58.11.01.26.08.33.16Z" fill="#91b8a5"/>
          <path d="M43.35,43.92c.81-.84,1.62-1.68,2.42-2.52.2.09.04.3-.01.42-.32.72-1.15,1.45-1.8,1.89-.09.06-.52.39-.61.21Z" fill="#d6ebe4"/>
          <path d="M49.07,38c-.02.11.03.21-.03.36-.07.17-2.48,2.51-2.66,2.64-.15.1-.18.16-.41.11.05-.19-.06-.38.23-.55.09-.06.25-.01.32-.06.49-.35,2.06-2.32,2.39-2.46.08-.03.11-.02.17-.03Z" fill="#6e9c7d"/>
          <path d="M32,46.34c.1,0,.19,0,.29,0-.07.22-.25.19-.43.2-.6.03-1.25-.05-1.85-.01-.18.01-.36-.02-.43.2-.03,0-.06,0-.1,0-.69.01-1.46-.05-2.13,0-.26-.03-.25-.12,0-.19l.12-.19h1.65c.02-.05.09-.15.16-.16.17-.03.32-.06.5-.08.65-.05,1.7-.08,2.23.23Z" fill="#c6c457"/>
          <path d="M32,54.1c.26.03.25.12,0,.19-.32.18-.51.18-.58,0l-.2.1c-.97.03-1.98.1-2.91.29-.17.14-.41.14-.58,0-.22.15-.55.14-.78,0-.05-.29.15-.19.34-.19.29-.01.83.06,1.06,0,.1-.03.05-.2.06-.2h1.65s-.04-.17.06-.2c.35-.09,1.41.02,1.88,0Z" fill="#8bb3aa"/>
          <path d="M34.24,53.9c.48-.02.97.01,1.45,0,.32.05.19.33-.08.4-1.11,0-2.22.06-3.34.18l-.17-.19h-.1v-.19c.82-.03,1.44-.17,2.23-.19Z" fill="#c0c762"/>
          <path d="M52.17,33.73c-.02.06.04.22,0,.32-.11.23-.61,1.08-.79,1.22-.06.05-.15,0-.17.02-.06.5-.13.3-.19.46-.04.09.02.28,0,.31s-.29-.02-.39,0c-.02.05.02.22-.03.36-.04.11-.32.2-.36.22-.08-.28.11-.53.39-.58.2-.48.2-.5.58-.78.08-.63.29-.61.55-1,.08-.12.06-.56.42-.55Z" fill="#6ea293"/>
          <path d="M18.04,64.96c0,.19.04.37-.03.55s-.45.68-.55.88c-.04.08.02.26,0,.31-.02.03-.17-.02-.19,0,.04-.26.12-.66.2-.9.07-.2.11-.19.19-.58.03-.12.37-.24.38-.26Z" fill="#6aa194"/>
          <path d="M25.02,55.16c-.37.16-.38.22-.78.29-.05.27-.37.31-.58.19h-.39s-.04-.14.02-.18c.16-.11.69-.17.89-.21.07-.02.06-.17.13-.19.16-.04.58-.05.71.09Z" fill="#80a69c"/>
          <path d="M50.04,36.84c.06.34-.52.72-.55.8-.06.13,0,.34-.03.36-.02.03-.29-.02-.39,0,.02-.11-.03-.21.03-.36.04-.1.82-.71.94-.8Z" fill="#6c9c84"/>
          <path d="M26.96,54.68c.26,0,.52,0,.78,0,.26.03.25.12,0,.19-.26.27-.72.28-.97,0,.05.01.09.03.13.06.37.34-.71.37-.91.31-.14.21-.21.22-.38.01-.05-.07-.13-.13-.19-.19.02-.02-.05-.17.06-.2.12-.03.36,0,.52,0,.2-.17.57-.16.78,0-.18-.05-.19-.14,0-.19.06,0,.13,0,.19,0Z" fill="#b1b56e"/>
          <path d="M23.08,55.75c.09.48-.28.21-.56.32-.17.07,0,.33-.61.36-.06.09-.13.42-.39.39.03-.09-.03-.36,0-.39.02-.02.3,0,.39,0,.01-.02-.02-.1.03-.17.38-.52.68-.33,1.13-.51Z" fill="#6ba292"/>
          <path d="M26.77,54.68c0,.06,0,.13,0,.19-.26,0-.52,0-.78,0-.1-.32.48-.19.78-.19Z" fill="#8bb3aa"/>
          <path d="M31.62,40.91c1.59-1.82,3.17-3.7,4.25-5.88,1.85-3.74,2.54-8.8,5.11-12.05,1.65-2.1,2.4-2.22,3.27-5.07.95-3.1,1.51-5.84,4.04-8.18,2.83-2.61,7.03-2.62,9.2.79,1.29,2.03.57,3.64-.03,5.75-1.89,6.65-4.42,14.25-8.65,19.76-1.86,2.42-4.3,4.39-6.38,6.62l-2.28,2.72c-.5.02-.36.17-.46.19-1.1.26-2.35.31-3.49.58-.36.08-.95-.06-1.35,0-.19.03-.36.18-.91.2-.38-.2-.03-.46.32-.38,2.74-4.97,5.57-9.89,8.47-14.75.46-.83.78-1.4.2-2.2-.49-.67-1.41-.78-1.92-.07-2.76,4.64-5.51,9.46-8.17,14.26-.1.17-.22.19-.36.04-.67-.37-.38-.77-.49-1.29,0-.03-.37-.4-.38-.43-.04-.16.03-.55,0-.61Z" fill="#98b83c"/>
          <path d="M32,46.34c-.77,0-1.86-.1-2.58,0-.19.02-.09.19-.28.21-.44.06-1.33.02-1.8,0-.36.25-.56.06-.61-.58l-.27-.3c-1.4-2.42-2.65-4.91-3.77-7.46-.75-1.15-1.46-2.33-2.13-3.54-.03-.04-.93.04-1.01.06-.07.02-1.21.65-1.24.72-.1.23.2.91.31,1.15.82,1.69,1.65,3.36,2.52,5.01l.23.06c.67,1.55,1.54,3,2.45,4.41.43.62.72,1.48-.17,1.38l-.18.06s-.3.18-.39.19c-.14.03-.37-.04-.48,0-.48-1.36-1.02-2.78-1.73-4.04-1.9-3.4-5.31-6.09-7.04-9.55-.88-1.76-1.02-3.78-2.06-5.41-1.27-2.01-3.26-3.31-4.52-5.57-2.19-3.91-2.44-10.08,2.31-12.17,2.02-.89,3.16-.46,4.59,1,5.51,5.61,11.46,12.94,13.62,20.61,1.21,4.29,1.91,8.1,3.56,12.34.19.48.39.99.65,1.43Z" fill="#e9ca1a"/>
          <path d="M31.42,20.35c.21.04.67.42.68.68.03.03.06.07.1.1l.17.28c.33.21.5.44.51.69.24.3.47.62.68.97.2.32.39.64.58.97.06.27.13.46.19.58.25-.11.47.57.39.78.45.95.84,1.92,1.16,2.91.35.53.42,1.54,0,2.04l.17.18c-.14.45-.26.87-.37,1.27-.57,1.4-1.25,2.79-1.98,4.11l-.16.15s-.17-.03-.19,0c-.03.04.03.23-.03.36-.03.07-.26.13-.36.41-.43.43-.56.59-.78,1.12-.02.06-.11.06-.19.05-.11.25-.79,1.02-.99.98-.08-.02-.13-.11-.17-.2-.58-2.15-1.09-4.33-1.65-6.5.29.19.16.07.2-.14.71-3.78.95-7.77,1.67-11.52.05-.26.09-.3.36-.26Z" fill="#da4029"/>
          <path d="M32.49,43.24s.15-.06.19-.14c1.62-3.21,3.64-6.4,5.44-9.5.78-1.35,1.63-3.19,2.52-4.46.47-.68.71-.96,1.6-.83.67.09,1.29,1.04,1.21,1.7-.02.17-.18.54-.26.71-.51,1.17-1.54,2.58-2.19,3.72-1.19,2.08-2.48,4.35-3.73,6.54-.87,1.52-1.75,3.4-2.75,4.85-.06.09-.07.27-.11.3-.14.1-.54-.16-.47.21-.13,0-.26,0-.39,0-.16-.59-1.25-2.63-1.07-3.1Z" fill="#e9ca19"/>
          <path d="M32,38c.08.03.08.06,0,.1.13.31-.32.39-.38.56-.09.26.17.36-.39.31.06.38-.02.77,0,1.16-.3.03-.17-.18-.19-.34-.05-.29-.12-.75-.2-1.02.41.09.69-.42.92-.68.08-.08.23-.08.24-.09Z" fill="#ad662f"/>
          <path d="M36.27,30.05c-.02.18.05.38-.03.56-.04.08-.34.63-.36.67-.09.37.19.45-.2.52-.02.46-.07.54-.23.94-.38.92-.98,2.2-1.55,3.1-.04.06-.25.26-.35.23.02-.03.14-.61.23-.75.06-.08.34-.22.35-.29.05-.25.08-.64.23-.87.26-.39.82-1.35.94-1.75.07-.25-.05-.53.39-.61.03-.58.13-.9.19-1.45.12-.26.25-.35.39-.29Z" fill="#a36a35"/>
          <path d="M36.08,28.4c.25.14.38.3.39.48.18.25-.07.89-.19,1.16-.05.1-.23.21-.2.39l-.19-.1c.09-.75.1-1.28,0-2.04.09-.13.15-.03.19.1Z" fill="#9a332f"/>
          <path d="M37.05,27.53c.15.05.14.13,0,.19-.02.17.03.34,0,.51l-.58.65c-.04-.06-.21-.12-.29-.24-.06-.09-.07-.21-.09-.24-.05-.03-.05-.06,0-.1.19-.07.18.17.26.19.46.12.26-.13.33-.31.03-.09.17-.07.19-.14.05-.2-.15-.57.2-.51Z" fill="#7a9ea0"/>
          <path d="M32.97,36.84c-.25.7-.32.42-.55.8-.12.19.11.44-.42.46v-.1c.13-.13.2-.51.23-.55.12-.16.55-.52.74-.61Z" fill="#a96633"/>
          <path d="M37.73,25.68c.33.34-.04.45-.09.56-.1.21.17.25-.2.31-.05.53-.16.51-.19.65-.05.2.15.58-.2.52,0-.06,0-.13,0-.19.02-.18.13-.87.2-.96.02-.03.13,0,.19,0,.04-.41-.04-.53.29-.87Z" fill="#6c9f90"/>
          <path d="M38.21,24.81c-.14.35-.03.52-.39.78-.05-.36,0-.71.39-.78Z" fill="#6ea093"/>
          <path d="M24.25,55.45c.02.23-.04.49,0,.71.02.08.33.24.35.29.66,1.6,1.78,2.86,2.66,4.38.32.54.15.24.45.56.08.08.19.52.32.7.31.44.59.78.87,1.21-.71.48-1.26,1.35-1.78,2.05-4.34,5.77-8.41,11.74-12.76,17.5-.1.09-.14.19-.3.1-.13-.07-.63-.91-.82-1.12-.28-.32-.89-.58-.78-.97,2.01-4.94,4.43-9.69,6.59-14.56,1.42-3.19,2.65-6.6,4.13-9.74.08-.18.38-.82.49-.92.18-.17.37-.16.58-.19Z" fill="#98b83c"/>
          <path d="M31.03,70.29c.07-.03.16-.04.22.01.76.63,1.22.68,1.98-.09l.22-.02c.22-.19.55.38.67.54.72.93,1.48,2.07,2.14,3.05.01.02-.01.07,0,.1-.27-.18-.16-.09-.21.13-.11.49-.12.96-.37,1.42-.13.23-.62,0-.78-.19-.07-.03-.13-.07-.19-.1-.89-.53-1.8-1.01-2.72-1.45-.33-.08-.53-.21-.58-.39-.39-.07-.7-.33-.97-.58-.28-.18-.54-.37-.78-.58-.24-.16-.44-.36-.58-.58-.29-.29-.62-.55-.97-.78-.06-.07-.13-.12-.19-.19-.12-.26-.32-.45-.58-.58-.16-.2-.29-.39-.39-.58-.43-.45-.5-.78-.19-.97.49-.6.91-1.26,1.25-1.97.32-.3.61-.61.88-.94.03-.09.52-.72.58-.78,0,0,.07,0,.2-.13.09-.09.02-.09.14.03.14.14,1.07,1.41,1.09,1.53-.05,1.21-.15,2.45-.08,3.67.01.18-.02.36.2.43Z" fill="#dc4027"/>
          <path d="M13,84.45c-1.32-.21-.57,2.43.1,1.32.07-.12.08-.76.28-.54.06.06.11.77.1.92-.05,1.08-1.28,3-1.9,3.93-.07.11.02.25-.24.19l.21-7.5c.13-.41.7.28.85.47.13.16.72,1.08.58,1.21Z" fill="#97b83e"/>
          <path d="M28.9,65.54c-.28.78-.41.5-.74.99-.03.05.03.19,0,.24-.26.39-.56.88-.84,1.26-.08.11-.43.41-.55.42-.03.19-.11.17-.19,0,.48-.58.79-1.35,1.2-1.91.19-.25.73-.51.74-.85l.38-.15Z" fill="#a06e36"/>
          <path d="M26.57,68.45c.06,0,.13,0,.19,0-.15.5.26.56.19.97-.09.12-.15.03-.19-.1-.17.12-.36-.12-.39-.29.04-.07-.04-.38,0-.52.03-.11.19-.05.2-.06Z" fill="#a85e44"/>
          <path d="M24.25,71.75c.07.24-.03.27-.11.41-.16.27-.36.68-.67.76-.05-.45.54-.89.78-1.16Z" fill="#6b9b7e"/>
          <path d="M26.09,69.42c-.08.16-.14.44-.32.55-.07.04-.15.02-.17.03-.16.45-.23.39-.39.58-.1-.43.16-.43.39-.58.08-.23,0-.64.48-.58Z" fill="#6d9e90"/>
          <path d="M26.38,69.03c.2-.04.22.18.39.29.06.03.06.06,0,.1-.24.03-.35.04-.45-.19h-.13c.13-.29.19-.18.19-.2Z" fill="#7e9c9a"/>
          <path d="M23.47,75.82c.21.15.55.46.78.58.21.12.4.25.58.39.25.1.34.28.58.39l.64.5c1.5.88,2.96,1.82,4.4,2.79.26.02.51.15.78.39.16.05.12.11-.1.19l.11.26c-.11.3-.17.62-.2.94.14,2.51-.33,5.06-1.46,7.31-.62,1.79,1.42,2.67,2.1,1.29,1.19-2.42,1.68-4.99,1.76-7.68l.2-.37c-.28-.43.23-.39.29,0,.43.23,2.11,1.67,2.11,1.99,0,.04.01.09.03.14.26,3.12-.92,7.57-4.01,8.94-2.52,1.12-5.83.41-6.54-2.51-.79-3.27-1.38-7.39-1.76-10.75-.18-1.59-.33-3.19-.3-4.79Z" fill="#dd4027"/>
          <path d="M38.25,81.4c.54,1.03,1.09,2.22,1.44,3.36.07.21.2.54.12.75-1.81-1.58-3.37-3.43-5.29-4.89-2.72-2.06-5.85-3.56-8.65-5.49-.55-.38-.18-.32.06-.49.4-.29,1.51-1.08,1.92-1.2.14-.04.22-.07.35.02,1.85,1.74,4.27,2.55,6.38,3.81,1.81,1.08,2.72,2.3,3.68,4.13Z" fill="#c4d1e2"/>
          <path d="M25.41,77.18c.4.18.62.29,1.05.55,1.34.81,2.73,1.78,4,2.55.17.14.17.2,0,.19-.99-.64-2.1-1.16-3.07-1.78-.47-.3-1.14-.66-1.55-.97-.09-.07-.41-.41-.42-.55Z" fill="#ae5c5e"/>
          <path d="M31.23,80.67c.66.41,1.68.93,2.3,1.39.14.1.54.55.61.74,0,.09-.06.09-.19,0-.01-.01-.1.01-.16-.04s-.12-.39-.13.04l-.26.04-.71-.79c-.57-.2-1.09-.53-1.55-1,.03-.06.08-.13.1-.19-.18-.05-.19-.14,0-.19Z" fill="#9db886"/>
          <path d="M34.14,82.8c.56.28,1.85,1.66,2.27,2.14.27.3.97.81,1.02,1.16-.46-.15-.97-1.09-1.36-1.16-.36-.07-.09-.07-.22-.36-.02-.04-.53-.53-.58-.58-.6-.48-.76-.61-1.33-1.19.06.01.16-.02.19,0Z" fill="#a36068"/>
          <path d="M32,73.69c.79.07.6.22,1.2.55.31.17.78.33,1.1.46l.42.45c-.87-.34-1.27-.63-2.04-1.01-.26-.13-.58.02-.67-.44Z" fill="#a76e74"/>
          <path d="M28.13,70.78c.4-.08.8.47.97.78-.03.08-.09.08-.19,0-.35-.3-.48-.47-.78-.78Z" fill="#a2717b"/>
          <path d="M29.1,71.55c.29.03.47.43.58.58.06.02.21-.03.36.03.1.04.37.49.42.55.64.1.34.21.61.36.25.14.22.13.36.22-.04.18-.11.16-.19,0-.3,0-.56-.17-.75-.42-.05-.07-.02-.15-.03-.17-.11-.02-.21.03-.36-.03-.03,0-.37-.36-.39-.39-.05-.07-.02-.15-.03-.17-.65-.25-.45-.3-.78-.58.06,0,.13,0,.19,0Z" fill="#9e7885"/>
          <path d="M35.69,75.43s.2.33.19.39c-.37-.18-.89-.14-.97-.58.14.05.63.1.78.19Z" fill="#9e8795"/>
          <path d="M30.45,80.28c.23.14.54.24.78.39,0,.06.01.14,0,.19-.34.11-.34-.12-.47-.19-.26-.14-.23-.15-.31-.2v-.19Z" fill="#a66d68"/>
          <path d="M26.96,69.42s.32.11.36.22c.05.15,0,.29.03.36.06.02.21-.02.36.03.13.05.31.4.22.55-.15-.16-.44-.19-.58-.58-.22-.09-.56-.37-.58-.58v-.1c.06.04.14.06.19.1Z" fill="#a2717b"/>
          <path d="M31.42,73.3c.32.22.53.1.58.39-.36-.03-.68.08-.78-.39.06,0,.13,0,.19,0Z" fill="#9c8793"/>
          <path d="M24.25,76.4c.1.05.55-.05.58.39-.16-.06-.56.03-.58-.39Z" fill="#a07076"/>
          <path d="M38.21,53.71c.86.14,1.12,1.76,1.17,2.47.17,2.58-.29,5.05.9,7.54l8.75,21.7.04.29c-.52.06-.89.2-1.35.39-.35.14-.66.29-1.01.48-3.31-4.47-6.2-9.24-9.35-13.83s-6.78-9.44-9.9-14.35c-.63-1-1.21-2.18-1.86-3.13.19.07.18-.17.26-.19.26-.06.63.04.9,0,0-.06,0-.13,0-.19.32,0,.65-.02.97,0,.87-.49,1.32.75,1.55,1.43.12.22.4.57.66.54.17.26.42.23.7.12,1.15-.47,1.11-1.31.79-2.37.11-.19.33-.28.65-.29.88-.02,1.21,0,2.01-.19.29-.07.89,0,1.25,0,.19,0,.39.1.34-.19.59-.01.83-.16,1.11-.2s1.15-.03,1.41,0Z" fill="#e9ca19"/>
          <path d="M48.85,87.38c.4-.05,1.55-.09,1.91-.02.26.05.93.7,1.12.92.26.32,1.68,2.87,1.65,3.1-.03.18-.12.11-.24.05-1.87-1.06-3.73-2.14-5.58-3.24-.31-.41.83-.76,1.15-.8Z" fill="#e9c81f"/>
          <path d="M35.4,17.44c-.12.39-.55-.19-.68-.39-.49-.4-.94-.85-1.36-1.36-.01.26-.11.24-.19,0-.14-.1-.18-.15,0-.19-.34-.59-.69-1.17-1.07-1.75,0-.03,0-.06,0-.1.24-.45.35-3.17.58-3.35.14-.11.94.37,1.22.44.25.06.99.09,1.06.2.23.71.09,1.46.14,2.18.07.97.22,1.94.29,2.91.03.45-.05.97,0,1.41Z" fill="#dc4028"/>
          <path d="M29.48,11.91c.74,1.78.95,3,2.19,4.65.17.22,1.07,1.16,1.09,1.24.07.26-.32.73-.51.7-.14-.02-1.52-1.55-1.71-1.79-1.11-1.43-2-3.59-2.23-5.38-.03-.2-.02-.52,0-.73,0-.1-.05-.32.14-.24.06.02.65.82.72.93s.27.53.3.62Z" fill="#c3d5e8"/>
          <path d="M35.11,25.98c.38.74.66,1.51.97,2.33v.1s-.17-.06-.19-.1c-.42-.59-.69-1.56-1-2.3-.01-.03-.12-.04-.13-.06-.07-.18-.03-.37-.03-.55.24.05.37.24.39.58Z" fill="#ab5d5f"/>
          <path d="M33.17,15.5c0,.06,0,.13,0,.19.05.02.14-.02.19,0,.44.43.83.89,1.16,1.36.29.12.8.5.78.78-.23.05-.26,0-.41-.11-.11-.08-1.65-1.56-1.69-1.67-.06-.14-.02-.23-.03-.36-.3-.1-.45-.25-.39-.58.19-.11.32.02.39.39Z" fill="#9492a8"/>
          <path d="M32.1,13.76l.65.61c-.1.33.36.49.39.58.07.19.01.37.03.56-.12-.11-.29-.27-.39-.39-.12-.14-.15-.34-.36-.42-.04-.36-.32-.54-.32-.94Z" fill="#af554f"/>
          <path d="M30.65,19.38c.21.13.57.54.61.55.12.05.33,0,.36.03s-.02.24.03.36.8.46.46.71c-.34-.29-.38-.34-.68-.68-.27-.31-.64-.61-.78-.97Z" fill="#968ea5"/>
          <path d="M34.33,24.23s.13-.03.17.02c.08.11.35.89.44,1.11.01.03.12.04.13.06.07.18.03.37.03.55-.09-.18-.28-.4-.39-.58-.13-.22-.25-.62-.39-.78-.16-.02-.16-.34,0-.39Z" fill="#978aa1"/>
          <path d="M31.23,11.62l.55,1.24c.31.18.23.37.22.7-.03-.01-.13.04-.17-.02-.19-.68-.47-1.22-.6-1.92Z" fill="#8d475d"/>
          <path d="M34.72,17.05c.31.03.33.47.68.39.05.47.4.41.48.78-.14-.11-.4-.23-.58-.39s-.55-.55-.78-.78c.02-.11.09-.11.19,0Z" fill="#a05f68"/>
          <path d="M32.2,21.13c.09.08.69.49.75.61.06.14,0,.31.03.36-.03.06-.06.06-.1,0-.19-.29-.85-.59-.68-.97Z" fill="#a4717b"/>
          <path d="M32.97,22.1c.13.28.48.37.58.97.07.05.26.07.36.23.05.08.02.21.07.32s.12-.04.16.42c.27.17.11.1.19.19v.39s-.17.05-.2-.07c-.04-.14.02-.35,0-.52-.08-.05-.26-.07-.36-.23-.05-.08-.02-.21-.07-.32-.05-.13-.09-.01-.16-.42-.53-.37-.37-.51-.68-.97h.1Z" fill="#a7686c"/>
          <path d="M33.59,6.35s.11.04.15.11c.19.39,1.39,2.61,1.17,2.83-.8.04-1.55-.42-2.13-.92-.65-.56-.89-.91-1.04-1.77-.23-1.23.04-2.47.08-3.71.17-.04.19.05.27.16.59.77,1.07,2.37,1.51,3.29Z" fill="#de432b"/>
          <path d="M55.66,40.13c-.22.24-.36-.6.1-.58-.01.1-.08.56-.1.58Z" fill="#67b1df"/>
          <path d="M31.03,70.29c-.38-.93.14-2.66,0-3.68.21-.01.4.34.52.49.49.61.89,1.3,1.32,1.95.22.33.7.6.58,1.14-.08.35-.84.77-1.21.78-.43.01-1.05-.28-1.21-.69Z" fill="#eaca1c"/>
          <path d="M21.14,41.59c-.52-1.07-1.07-2.12-1.66-3.17-.3-.69-.7-1.78.46-1.61,1.48-.87,1.9-.22,2.51,1.12l.25.27c1.31,2.47,2.63,4.89,3.94,7.36.07.12.22.2.28.31.19.4-.11.64.44.67v.19c-.93.07-2.19.4-3.04.58-.07.02-.06.17-.13.19-.21.05-.49-.03-.71,0,.01-.01-.05-.17.06-.2.15-.04.36.02.52,0,0-.14.02-.28-.02-.41-.15-.49-1.2-1.99-1.51-2.58-.4-.74-1.12-2.02-1.37-2.73Z" fill="#eada5f"/>
          <path d="M32,54.29s.06,0,.1,0l-.48.19c.3.89.43,1.93-.5,2.46-.33.19-.69.35-1.08.25-.06-.02-.05-.13-.15-.18-.06-.03-.2.02-.28-.03-.03-.02-.46-.56-.48-.59-.07-.12-.19-.59-.28-.74-.07-.12-.52-.76-.6-.78-.16-.03-.34,0-.51,0v-.19c.19,0,.39,0,.58,0,.69-.1,1.38-.19,2.08-.27h.95s.08-.12.08-.12c.19,0,.39,0,.58,0Z" fill="#eedd59"/>
          <path d="M31.42,54.29c.17.26.1.19-.14.19-.28,0-.72-.05-.95,0-.79.18-1.12.18-2.01.19.11-.13.29-.17.45-.18.85-.09,1.8-.17,2.66-.2Z" fill="#d3d887"/>
          <path d="M54.08,13.14c-.21.32-.86.64-1.18.91-1.31,1.13-2.34,2.34-3.24,3.86-.33.56-.73,1.97-1.44,2.13-1.22.28-2.04-.71-1.87-1.88.13-.93,1.71-3.33,2.34-4.13s2.93-3.24,3.88-3.51c1.49-.43,2.32,1.41,1.51,2.63Z" fill="#e6c91c"/>
          <path d="M50.01,27.5c-.2.32-.81.28-.85-.21-.08-.88.77-2.06,1.47-2.51.41-.27,2.06-1.02,2.02-.1-.02.45-.9.49-1.26.67-.46.23-1,.76-1.18,1.24-.09.25-.1.77-.2.92Z" fill="#75933d"/>
          <path d="M12.85,21.28c.5,1.03,1.34,1.85,1.09,3.07-.06.3-.28.65-.52.84-.54.42-.86.52-1.44.11-.99-.7-2.24-3.56-2.64-4.73-.49-1.46-.74-3-1-4.54-.22-1.33,1.83-2.52,2.66-1.2.32.51.17.82.26,1.3.34,1.86.75,3.42,1.59,5.15Z" fill="#ebda60"/>
          <path d="M22.7,38.19c-.44-.1-.48-.65-.72-.97-.86-1.16-1.08-.47-1.99-.23-.24.06-.52-.12-.64.14-.03.06.22,1.18.27,1.29.33.82,1.22,1.91,1.51,2.86.04.12,0,.26.02.31-.56-.28-.56-.93-.79-1.37-.19-.39-.42-.67-.65-1.12-.34-.68-1.5-2.69-1.57-3.29-.02-.14-.04-.32,0-.46.05-.15,1.13-.57,1.32-.82l1.19-.08c.78,1.19,1.37,2.49,2.03,3.74Z" fill="#edd743"/>
          <path d="M19.91,26.34c-.49-.58.73-1.76,1.09-.94.11.26-.09.52-.05.57.07.09,1.42.62,1.65.49.12-.69-.89-1.64-1.41-2.04-.38-.29-1.93-.92-2-1.01-.2-.26-.09-.69.26-.74,1.09-.14,3.54,1.97,3.94,2.94.31.75.11,1.78-.84,1.82-.48.02-2.33-.74-2.64-1.1Z" fill="#ce8922"/>
          <path d="M31.59,23.95c.94-.13.4,2.14-.41,2.03-.69-.1-.18-.73-.1-.97.11-.38.07-.99.51-1.05Z" fill="#ae1f24"/>
          <path d="M33.56,28.4s.01.61-.09.74c-.23.29-1.17.17-.68-.2.07-.05.21-.05.28-.11.08-.07.26-.67.49-.43Z" fill="#d66b5a"/>
          <path d="M19.2,69.22s.75-.07.78-.1c.03-.03-.1-.32-.1-.44-.05-1.14,2.02-.31,1.02.82-.76.86-2.83.97-2.64-.6.08-.67.95-1.99,1.49-2.4.43-.32,1.88-.91,1.99-.14.1.7-.75.46-1.23.7-.59.3-1.33,1.47-1.29,2.15Z" fill="#74923e"/>
          <path d="M18.4,73.71c.21,0,.44.3.42.51-.01.12-.65.93-.78,1.07-.31.33-1.28,1.27-1.7.93-.59-.47.5-1,.79-1.27.34-.31.93-1.24,1.28-1.24Z" fill="#74933b"/>
          <path d="M31.13,81.06c.52-.19.63.38.9.55.1.06.62.2.72.26.23.14.63.76.9.94-.04,2.58-.53,5.71-1.73,8.02-.87,1.68-2.91.83-2.63-.98.06-.39.39-.85.52-1.22.45-1.28.92-2.87,1.02-4.22.09-1.23-.21-2.15.29-3.34Z" fill="#eaca1a"/>
          <path d="M27.06,81.73c-.37-1.05-1.63-2.11-1.46-.14.08.85,1.07,1.79,1.07,1.94,0,.47-.62.36-.92.15-1.03-.71-1.65-3.38-.41-4,1.8-.89,3.73,2.88,1.66,3.02-1.06.07-1.01-1.25.06-.97Z" fill="#b82626"/>
          <path d="M35.95,57.41c.29-.09.75-.06.81.33.08.55-.39.44-.53.63-.25.33-.19,1.51.1,1.84.38.43.93.01.64-.34-.2-.25-.88-.13-.67-.75s1.45-.02,1.61.59c.39,1.49-1.61,2.27-2.44.79-.4-.7-.4-2.8.5-3.08Z" fill="#cc8924"/>
          <path d="M42.25,72.63c1.02-.31.4,1.44.41,1.97s.55,2.12.31,2.43c-.73.93-1.15-1.76-1.17-2.14-.02-.42.04-2.14.45-2.26Z" fill="#cc8a23"/>
          <path d="M49.38,87.95c.25-.4,2.66.1,1.47.94-.37-.17-.9-.11-1.22-.2-.26-.07-.36-.57-.25-.74Z" fill="#cb8b1d"/>
          <path d="M33.36,15.7s.09,0,.17.03c.15.07,1.04,1.1,1.19,1.33-.06,0-.13,0-.19,0-.42-.41-.98-.76-1.16-1.36Z" fill="#ac5d64"/>
          <path d="M32.66,5.92c.61-.13,1.23.94,1.07,1.47-.09.32-.57.48-.85.31-.05-.03-.64-.93-.66-.99-.09-.34.08-.71.44-.78Z" fill="#f4c61f"/>
        </g>
      </g>
    </g>
  </g>
</svg>