<?xml version="1.0" encoding="UTF-8"?>
<svg id="Layer_2" data-name="Layer 2" xmlns="http://www.w3.org/2000/svg" viewBox="0 0 64 96">
  <g id="Cards">
    <g id="Clubs">
      <g id="TwelveOfClubs">
        <g>
          <path d="M3.46,7.91h-1.51V2.22c-.55.52-1.2.9-1.95,1.14v-1.37c.39-.13.82-.37,1.28-.73.46-.36.78-.78.95-1.26h1.22v7.91Z" fill="#3b920f"/>
          <path d="M9.23,6.5v1.4H3.94c.06-.53.23-1.03.52-1.51s.85-1.1,1.7-1.89c.68-.63,1.1-1.06,1.25-1.29.21-.31.31-.62.31-.92,0-.34-.09-.6-.27-.78-.18-.18-.43-.27-.75-.27s-.57.09-.75.28-.29.5-.32.95l-1.5-.15c.09-.83.37-1.43.84-1.79.47-.36,1.06-.54,1.77-.54.78,0,1.39.21,1.83.63.44.42.67.94.67,1.56,0,.35-.06.69-.19,1.01-.13.32-.33.66-.6,1.01-.18.23-.51.57-.99,1-.48.44-.78.73-.91.87-.13.14-.23.28-.31.42h3Z" fill="#3b920f"/>
        </g>
        <g>
          <path d="M60.54,88.09h1.51v5.69c.55-.52,1.2-.9,1.95-1.14v1.37c-.39.13-.82.37-1.28.73-.46.36-.78.78-.95,1.26h-1.22v-7.91Z" fill="#3b920f"/>
          <path d="M54.77,89.5v-1.4h5.29c-.06.53-.23,1.03-.52,1.51s-.85,1.1-1.7,1.89c-.68.63-1.1,1.06-1.25,1.29-.21.31-.31.62-.31.92,0,.34.09.6.27.78.18.18.43.27.75.27s.57-.09.75-.28.29-.5.32-.95l1.5.15c-.09.83-.37,1.43-.84,1.79-.47.36-1.06.54-1.77.54-.78,0-1.39-.21-1.83-.63-.44-.42-.67-.94-.67-1.56,0-.35.06-.69.19-1.01.13-.32.33-.66.6-1.01.18-.23.51-.57.99-1,.48-.44.78-.73.91-.87.13-.14.23-.28.31-.42h-3Z" fill="#3b920f"/>
        </g>
        <g>
          <path d="M28.78,12.17c.24-.85,1-1.34,1.5-2.09.25-.38.2-.93.47-1.28.18-.24.73-.27.78-.52.07-.37-.23-1-.28-1.46-.03-.36.23-.9.13-1.12-.14-.3-2.21-1.19-2.31-2.14-.03-.36.79-2.6.93-2.7.56-.41,1.43.17,1.85.08.31-.06.45-.58,1.03-.68s3.66-.06,3.77.6c.05.28-.96,2-.07,1.87,1.33-.18,1.08-1.2,1.37-2.23,1.64,1.94,1.1-.12,1.24-.25.06-.06,1.64-.15,1.77-.12.53.12,1.22,1.01,2.2.62.04.03-.43,1.04.12.99.33-.03.32-1.07.78-1.22.13-.04,1.75.18,1.81.24.14.14.18,3.43.26,3.96-2.12-.54-.99,1.44-1.36,1.98s-1.1-.24-1.58.04c-.08.05-1.04,1.46-1.05,1.58-.06.64.55.92.63,1.32.21.98.57,3.29.64,4.37.04.6-.29,1.16-.22,1.67.23,1.55,2.21.71,2.42.93.33.53-.62,2.06-.5,2.23.05.06,1.1.18,1.37.75.37.81.05,1.66.87,2.85.66.95,1.72,1.22,2.17,1.67.63.64-.13,1.42,2.04.68-.06.35,0,1.49.37,1.49h4.46c.18,0,.27.3.27.51,0,.49-.66,2.82-.87,3.35-.48,1.18-1.5,1.77-1.75,3.08-.66.18-.91-.23-.74-1.24-.53.18-.73-.19-.25-.5l.07-.35c1.47-.47,2.06-1.47.83-2.64,2.38-1.25,1.58-1.57-2.39-.98-.26.08-.54-.12-.85-.58-1.89-.5-4.31-1.39-4.36-3.63l-.64-.2c-.54-2-1.43-5.05-4.07-4.51l-.24-.24c-.51.4-.95.23-1.32-.5-.93-.13-1.57-.04-1.91.25-.14.35-.65.4-.74,0-.49-.73-1.24-1.34-2.27-1.83l.04-.65c-.98-.34-.98-.38-.96-1.46.01-.68.98-2.89,1.7-1.76l.28-.19c1.06,1.13,2.37.75,3.93-1.13,2.2-.13,2.26-.25,1.32-2.35-.17-.55-.17-1.32.42-1.53-.63-.51.5-2.24,1.24-1.98l.14-.55c1.92-1.81,2.04-2.62.36-2.43-.06.85-.39,1.35-.99,1.49-.18.41-1.44.38-1.82.16-.76-.44-1.52-1.92-.17-1.65.61-.54.28-1.28,0-1.49-.69.49-.99,1.21-.91,2.17l-.58.31c-1.12,1.51-4.25.53-4.32-.99.97-1.11-.71-1.06-.64-.68.67.78.49,1.58-.49,1.67-.43.35-1.02.62-1.77.83.38.69.47,1.24.29,1.65.78,2.21-.35,4.13-1.87,5.79l-.61-.09c.17.5-.54,1.01-.99.74Z" fill="#f8f9f8"/>
          <path d="M48.12,63.5c.35-.38,2.17,2.46,2.13,2.63-.08.33-.76.53-.89.09-.34.85-.26,1.09.25.74-.02-.46.16-1.06.62-.82.81,1.14,1.68,2.21,2.62,3.22-.06-.95.1-1.67.48-2.16.34,1.42.4,3.62.25,5.08-.13,1.24-.81,1.5-.98,2.24-.58,2.53.07,5.09-.02,7.41-.14,3.75-6.13,3.41-8.28,5.1-.28.22.31.48.36.74,0,.38-1.66-.19-1.73-.5-.05-.22.11-.54.24-.74l-.21-.18c.31-2.07.55-4.16.7-6.26-.44-.72-.5-2.81-.26-3.63.28-.94,2.91.69,3.41,1.01l.82.14c0-4.69.17-9.4.5-14.13Z" fill="#d3d4d5"/>
          <path d="M24.82,79.86c.21-.06,1.39.05,1.46.09l.28,1.89c.2.03.35.07.38.15.38,1.21.79,3.6.12,4.56.03,1.74.06,4.22-1.74,4.96-1.3-.39-3.21-.34-4.58-.24-2.94.21-6.23,1.05-9.18,1.23-2.6.16-1.39-.4-1.98-1.73-.43-.96-1.37-.28-.37-1.99.41-.03.41.3,0,.99.53-.26.7-.06.5.5,1,.06,1.96-.22,2.91-.52l.32.27,1.19-.28c.45-.62.87-.81,1.04.04l.45-.38c.82.42,1.08.22.79-.61-1.09-.14-.21-1.66.5-1.74l.14-.36c1.87-.42,3.44-1.3,4.36-3.05.45-.49,1.33-1.39,1.7-.56.84.41,2.03.61,1.24-.74-.68.36-1.06.35-1.13-.05l1.63-2.43Z" fill="#d9dadb"/>
          <path d="M30.77,88.29l-.24-.36c.41-3.13.92-6.24,1.53-9.32-.2-1.69.16-2.35,1.06-1.97.26-.35,4.98-.53,5.17-.33.08.09.13.2.16.33l.31.22c-.58,2.33-.43,4.75.45,7.27.07.94.07,2.86-.51,3.42.63.12.68,1.68.42,2.17.34.46.45.81.32,1.05-.78-.29-.92-.43-1.01-1.37-.06-.61.58-1.16-.1-1.11-.8.06-6.81,1.24-7.04,1.52-.18.21.22,1.64-.52,1.96-.23-.55-.31-1.99.14-2.53l-.14-.94Z" fill="#d6d6d7"/>
          <path d="M54.07,33.25c1.44,3.85-.55,5.9-.52,9.3.01,1.39.45,3.26.53,4.7.09,1.69-.08,3.41-.01,5.09-.51.03-.59-1.41-.25-1.74-.55-1.69-.9-2.45-2.73-1.49-.06.54-.33,1.14-.8,1.8-.23,1.07-.63,1.71-1.18,1.92-.34.8-.8,1.37-.99.25-.32-.86-.48-1.93-.5-3.22-.13-.07-.25-.15-.34-.26-.22-.27-.5-4.19-.15-4.7-.09-1.24,0-2.15.51-3.29-.14-.75-.06-1.3.23-1.67.76-.06.99.72.72,2.34.63-1.33,1.04-2.18,2.51-1.1l.31.15c.36,1.86.32.35-.06-.4-.65-.88.7-.99,1.36-.27.62-2.04,2.18-8.21-1.78-6.67-.6.05-1.03-.06-.82-.75l.08-.37c1.42.18,2.46-.11,3.14-.87.14.26.72,1.17.74,1.24Z" fill="#d6d6d7"/>
          <path d="M24.82,34.98c.33-1.17,1.52.76.5.99l-1.73,3.19c-1.95,5.68-3.08,11.72-3.84,17.69-.66,5.17-1.04,10.03,3.03,14.03l.06.8c-.07.58-.49.5-1.24-.25-.42.41-.68.16-.99-.21l-1.37-2.67c-.03-1.02-2.46-1.44-2.8-1.06-.18.2-.19,4.24.29,4.76,1.42,2.36,1.85,3.7,1.24,6.42-.24,1.07-.94,3.67-2.07,3.68.31.79-.3.92-.99.74l-.06.75c-2.13,1.57-3.55,3.58-4.87,5.83-.21.24-.48.24-.77.11-.07-.26.05-.69,0-.99,2.18-3.73,6.63-6.52,7.61-10.11,1.12-4.1-1.24-4.72-1.64-7.89-.18-1.46-.12-3.06.46-4.4-2.5-2.32-5.59-5.07-7.53-7.86-1.16-1.67-.85-1.96-.38-3.81.29-1.14.94-2.52,1.23-3.61.27,0,.27.24,0,.74.59.05.59.38,0,.99l.43.4c-1.31,2.38-1.09,4.36.66,5.92l.14.88c.47-.35.76.09.99.5l.55.08c.71.71,2.29,2.97,2.67,3.88.5-.34,1.76.95,1.74,1.49.59-.2,1.2-.27,1.81-.22-.62-5.24.25-10.72,1.22-15.91.24-2.5.88-4.81,1.92-6.93l-.34-.67c.71-2.66,1.67-5.86,4.06-7.26Z" fill="#447ea8"/>
          <path d="M25.81,11.68c.41.94.35,2.37-.5.99l-.58-.23c-.75-1.89-1.7-3.69-2.65-5.48-.79-.16-1.97-1.95-1.74-2.73-.77-.39-1.54-.71-2.51-.72-5.02-.07-2.41,5.73-.96,8.16.51.38.79.99.83,1.86,2.52,5.69,4.78,11.51,6.81,17.46l-.2.77c.6.85,2.75,4.03,2.63,4.74-.03.16-.09.31-.15.47.98-.02,1.26,1.26.99,1.98.69.04.69.37,0,.99.75.48.47,2.29-.25,2.73-.11.7-.28.84-.74.25l-.45-.36c1.02-2.49.08-4.03-1.35-6.1l.31-.48c-.14-.3.35-1.15-.5-.99-.21-.06-.21-.14,0-.25l-.35-1.03c-.63-.34-1.01-.9-1.13-1.7l-.55.14c-.59-.42-1.73-3.85-1.44-4.61-.71-.58-.88-1.3-.73-2.16-.1.29-.19.19-.26-.32-.28-.85-.45-1.76-.5-2.73-.46.12-.54-.13-.25-.74-.93-3.04-2.27-4.33-3.17-6.87-.38-1.09-.4-2.26-.74-3.23-.45-1.25-1.92-2.31-2.23-3.97-.79-4.18,3.06-6.74,6.48-4.74,1.84,1.07,4.98,6.8,5.86,8.89Z" fill="#7e984f"/>
          <path d="M19.86,22.34c.06.22-.02.31-.25.25-.17.88-.72,1.73-1.64,2.57-.53,1.12-1.22,1.83-2.08,2.14.16.27,0,.69-.5,1.24.31.35.17.47-.25.25l-.08.3c.63.37.22.94-.17,1.43.28.55,0,1.04-.81,1.47-1.48.54-2.95,1.04-4.39,1.51-.15.81-.13,1.65-.08,2.47.56,0,.67.43.33,1.25.77.31.41,1.86-.25,2.23.32.25.24.67-.25,1.24.08,1.12.45,2.27,1.11,3.46l-.37.51c.59.21.67.87.25,1.98l.48.48c.18.62-.63,2.89-1.22,3.24.25,1.1,0,1.59-.74,1.49v-.74c.54-2.07,1.17-4.8.51-6.83-.27-.84-1.13-1.94-1.17-2.75-.06-1.02.76-1.85.9-2.71.35-2.14-1.35-5.24,1.03-6.66,1.1-.66,3.3-.56,3.96-1.74.47-.83,0-1.67.52-2.45l4.92-6.36c.07.24.16.43.25.74Z" fill="#447ea5"/>
          <path d="M53.83,50.6c.05.58.24,1.43.25,1.74.19,4.72-.68,9.97-.74,14.88-.01.93.47,3.76-1,2.36-.6-.57-1.89-2.88-2.35-3.1-.15.08-.26.33-.37.49-.66.23-.74-.36-.25-.74.15-.05.5.12.49-.12l-1.73-2.61c-.33-.74-.32-1.49,0-2.23.07-.22.15-.21.25,0l.46.32c.46,1.78,1.5,3.31,2.59,4.77.21,1.13.6,1.5,1.16,1.11-.59-1.85-.56-4.18.25-5.95l-.44-.71c.42-3.07.59-6.16.52-9.24l.42-.7c-.47-.15-.47-.37,0-.5.18-.46.34-.37.5.25Z" fill="#4d84ac"/>
          <path d="M43.16,86.56c.09.9,1.04.85,1.49,1.24.38.34.75.97,1.24,1.37.71.58,5.08,3.12,3.49,4.23-.43.3-3.86-.03-4.54-.2-1.24-.3-2.1-1.76-3.14-2.06-.76-.22-1.38-.03-2.24-.36-.19-.27-.44-.53-.48-.87-.07-.55-.25-1.9-.26-2.35.02-.71.58-.68.74,0-.06-.98,3.08-.06,1.74.5-.08.21-.17.21-.25,0-.85.03-1.18.28-.99.74,1.76-1.2,1.39,1.89.25.5-.19.41,0,.66.25.99.45-.38,1.01-.32,1.68.18,1.87,1.38,3.71,1.94,6.04,2.06.09,0-.3-.7-.5-.74-1.58-.81-2.83-1.89-3.75-3.23-.49-.63-.11-.25-.14-.21-.16.24-.65.13-.6-.29-.46.54-1.16.75-1.49,0-.49-.3-.16-.63.99-.99.11-.44.27-.61.5-.5Z" fill="#8f9c58"/>
          <path d="M27.3,88.04c.47.07.45.27,0,.5l.45.48c-.28,2.16-1.81,3.53-3.35,4.89-1.01,2.18,2.3-.49,2.87-1.13l.52.23c.02-.31.18-.47.5-.5l.27-.46c.85-.27,1.34-1.02,1.46-2.27-.36-.32-.2-.48.25-.25.01-.5.18-.92.5-1.24.45.71.31,2.73,0,3.47-.34.81-2.02,1.39-2.71,1.88-1.06.75-3.83,3.61-4.99,1.74-.95-1.54,1.34-2.76,2.25-3.86.83-1.01,1.37-2.12,1.6-3.45.08-.46-.39-1.17.14-1.51.47.18.59,1.15.25,1.49Z" fill="#939e52"/>
          <path d="M29.78,11.43c.88-.24.92.56.36,1.15-2.37,1.14-3.82,4.61-.22,5.02l.35.52c.19.23.03.4-.5.5-.14.47-.36.47-.5,0-1.15.08-1.81-.25-1.98-.99-.88.4-1.37-.23-.5-.74-.56-.67-.58-2.44-.25-3.22-.34-.29-.47-.41,0-.5l.37.5c.54-.59,1.25-.99,1.86-1.49.32-.26.66-.42.99-.74Z" fill="#d0d5d2"/>
          <path d="M26.55,13.17c.04.14-.03.34,0,.5-.09.25-.25.42-.5.5-.02.72-.58.67-.74,0-.29-.43-.58-.92,0-1.24-.22-.05-.21-.13,0-.25l.49.25v-1.24c.17.4.61.97.75,1.49Z" fill="#8ea567"/>
          <path d="M33.74,7.22c.64-.75,1.83-.72,2.48,0l.31.06c-.22,1.64-.32,3.27-.31,4.89l-.25.25c-.9.02-.93,1.29-1.23,1.89-.18.31.26,1.08.49,1.33-.77.62-1.6,1.11-2.48,1.49.12.8-1.85,1.63-2.48.99-3.41-.11-3.91-2.82-1.65-5.12.41-.41,2.01-.86,1.15-1.58,1.41-1.39,2.73-3.67,2.48-5.7l.29.08c0,1.12.39,1.59,1.2,1.4Z" fill="#ededec"/>
          <path d="M33.74,3.74c.72-1.35,1.31-1.46,1.76-.34,1.36.64,2.41,1.06,3.7-.16.32-.82.91-.58,1.78.72,2.5-.17,3.23.25,2.19,1.26-.16.2-1.21,1.87-1.24,1.98-.12.72-.56.66-.74,0-1.39.68-2.83.67-4.21,0-.23.48-.52.48-.74,0-.82,0-1.66-.03-2.48,0-.87.15-1.3-.52-1.31-2.02-1.37-1.36.23-1.73,1.31-1.45Z" fill="#f4ca33"/>
          <path d="M51.59,27.55c.72.11.61.2,0,.5-1.95,1.13-1.4,2.48.5,3.22.54-.15.87-.06.99.25-.02.23.17.35.25.5.21,1.53-2.13.86-3.22,1.24-.43.57-.73.47-.74-.25-.6-.35-.42-.63.25-.5.05-.42.38-.57.99-.46-.64-.51-1.61-1.52-.99-2.27-.56-.32-.39-.9.5-1.74.02-.34-.06-.67-.25-.99-.82.26-1.23.1-1.24-.5-.47.65-1.48.02-1.24-.74-.79.3-1,.03-.74-.74-.76.27-1.25-.92-.5-1.24-.73-.41-.45-.86.25-.5.39.77.92,1.7,1.61,2.23,1.07.82,3.22.8,3.59,1.98Z" fill="#477fa7"/>
          <path d="M36.97,7.22l.48.34c-1.19,4.96-.38,5.91,2.41,2.87.39-.24.83-.35,1.29-.37-1.13-1.37-1.12-2.31.04-2.84h.74c-.34,1.24.87,3.29.46,3.93-.31.48-1.55.04-1.96.14-1.11.28-1.63,2.41-3.53,1.83-.11-.03-.89-.64-.92-.7-.87-1.66.8-3.53.25-5.21.25,0,.5,0,.74,0Z" fill="#bea48c"/>
          <path d="M46.39,23.33c-.23.03-.27.31-.25.5-.11.22-.28.36-.52.37.41.87.31,5.03-1.16,4.02-.26-.18-.53-5.57.13-6.17-.32-1.94-.58-.24-.4.78-1.61,2.83-2.14-1.97-.84-3.06-.74-.25-1.47-.46-2.18-.66-.38-.11-.3-.27,0-.5-.13-.07-.05-.15.25-.25,3.18-1.17,3.99,3.07,4.96,4.96Z" fill="#488dba"/>
          <path d="M40.68.77c.49.17.47,1.27,0,1.49-.01.06-.3.21-.26.6.11,1.1,1.47,1.08,2.25.89.61-.17.94-.67.99-1.49.78-.78,1.79-.52,1.7.57-.01.13-1.26,1.83-1.44,2.06-.24.29-.72.32-.75.35.38-1.67-1.27-.79-2.3-1-.41-.08-.34-1.17-1.67-.98.39-1.33-.2-2.57,1.49-2.48Z" fill="#d1b05b"/>
          <path d="M32.75,17.13c1.09-.63,2.94-1,3.68.28.57-.57.94.07,1.03.71.15.05.52-.02.74,0,.53-.56,3.05-.41,1.98.5.25-.45.55-.24.5.25.28.42.29,1.58-.25,1.74.21.41.26,1.27-.25.99-.79-.2-.75-2.71,0-2.98l-.27.45c-1.87.2-4.64.41-5.98-.96-.33.51-.77.56-1.33.5-.46.59-.91.75-1.35.5-.48.08-.93.07-.99-.5-.06.49-.3.47-.5,0,.02-.07.44-.48.5-.5.83-.28,1.64-.38,2.48-.99Z" fill="#edd689"/>
          <path d="M51.59,27.55c1.97-.92,7.65-1.07,2.73.99,1.56,1.05.05,2.74-1.24,2.97-.58.1-.71-.18-.99-.25l.5-.25c-.09-.47.32-.82,1.22-1.06.09-.09-.77-1.71-.86-1.76-.58.25-1.03.2-1.35-.15,0-.14.03-.4,0-.5Z" fill="#ae917c"/>
          <path d="M33.74,3.25c.07-.21.43-.45.46-.66.04-.37-.56-.63-.44-1.15.23-.96,1.68-.57,1.93-.14.32.56-1.21,1.26.35,2.02,1.8.88,1.75.13,3.15-.07-.34,1.19-1.64,1.26-2.8.98-.16-.04-.13-.34-.37-.47-.16-.08-.51.05-.73-.08-.17-.1-.24-.66-.43-.68-.15-.02-.62.61-1.12.74-.71-.08-.59-.17,0-.5Z" fill="#d9b858"/>
          <path d="M32.25,5.73c-.79-2.34-1.95-1.91-2.37-2.73-.27-.53.33-1.47,1.13-1.12.85.38.69,1.53.76,1.6.12.13,1.65.04,1.97-.23-.04.12.03.34,0,.5-.37.1-1.66.16-1.49.87.05.21.45.05.5.28.21.83-.46,2.05.99,2.32-.1,0-.5.52-1.01.14-.23-.53-.29-1.07-.48-1.63Z" fill="#ceb16d"/>
          <path d="M35.23,15.65c.83.94,2.49.99,2.23,2.48-.14-.05-.2-.47-.37-.5-.56-.09-.3.4-.39.47-.47.39-.79-.88-1.15-.95-.82-.16-1.93.09-2.79-.01.9-.65,1.38-2.13,2.48-1.49Z" fill="#f1ddc8"/>
          <path d="M38.21,18.12c-.14-.75.38-.47.86-.5.4-.02,1.18-.09,1.49-.02s-.2,1.08.88.76c-.07.02-.16.18-.25.25-.09.42-.2.64-.5.25-.09-.17-.45-.2-.5-.25-.04-.04.13-.43-.16-.5-.45-.11-1.27.04-1.82,0Z" fill="#efeebf"/>
          <path d="M41.68,12.42c.57.5-1.48.99-1.48.37,0-.35,1.32-.51,1.48-.37Z" fill="#c3c5c8"/>
          <path d="M33.25,2.26c-.52.52-1.37-.82-.61-.99.52-.12.8.81.61.99Z" fill="#fefefe"/>
          <path d="M42.67,3.74c.65-.32.46-.95.99-1.49-.01.38.1.94-.11,1.25s-.62.17-.88.23Z" fill="#f6edc5"/>
          <path d="M40.68.77c.18,0,.53-.11.5.15-.08.68.32,1.53-.5,1.34.09-.53.29-.92,0-1.49Z" fill="#f5e8b8"/>
          <path d="M46.64,43.91c.54-1.11.71.19.5.99.13,1.74.43,3.07.5,4.96.38,9.25.38,18.51,0,27.77-.89,1.43-2.32-1.65-3.97-.99-.03,1.15.03,2.32,0,3.47-.16,2.32-.36,4.74-.99,6.94-.46.47-.58.12-.37-1.04l.12-.45c-.36-.76-.4-1.65-.14-2.68-.14-1.33.07-2.42.64-3.27-.11-1.16-.23-2.72.25-3.72.14-.26.3-.26.5,0l.33-.5c.96.14,1.87.48,2.71,1.04.17-10.14.32-20.26-.55-30.32.06-.45.23-.85.49-1.22-.34-.48-.34-.81,0-.99Z" fill="#bd4037"/>
          <path d="M48.12,53.08c.45.65.45,1.56,0,2.73.6,1.03.33,2.57,0,3.72.19.57.18,1.16,0,1.74,0,.74,0,1.49,0,2.23-.03,4.52-.34,9.02-.23,13.54.06.3-.16.42-.26.59-.23-9.24.3-18.54,0-27.77.49.55.18,1.6.25,2.37.03.36.24.71.25.85Z" fill="#964c52"/>
          <path d="M49.12,70.19c.1-.11,2.6.53,2.46,1.33-.29,1.66-3.24-.44-2.46-1.33Z" fill="#5d5e60"/>
          <path d="M46.88,79.36c-.4.58,2.02,1.93.85,2.22-1.71.42-2.96-1.64-.85-2.22Z" fill="#5c6065"/>
          <path d="M43.16,86.56c-.14.17-.38.32-.5.5l.99-6.94c-.02.78.04,1.57,0,2.35-.07,1.3-.62,2.78-.49,4.09Z" fill="#b2584d"/>
          <path d="M49.36,66.22l.25.74c-.08.11-.05.67-.38.74-.59.13-1.09-1.1.13-1.49Z" fill="#566161"/>
          <path d="M25.31,35.98c.46,1.01,1.67,2.41,1.93,3.65s-.34,2.18-.44,3.29c.21.05.36.15.36.35,0,.54-.33,4.49-.52,4.62-.09.06-.21.1-.33.12.13.02.24.05.33.12.19.14.14,4.49,0,4.68-.06.09-.19.13-.33.16.57.41.79,2.21.5,2.85.65,7.09.55,14.47,0,21.57.2,1.19.31,3.33-.25,4.46-.21-.82-.31-2.35-.87-.99l-.87-.99v-.25l-.19-.3c.66-.92,1.22-1.89,1.68-2.92-.45-.29-.45-1.04,0-2.23-1.06-.64-2.13-1.38-3.22-2.23-.21.11-.29.01-.25-.25-3.31-3.54-4.29-6.27-3.96-11.28.31-4.69,2.73-19.85,5.21-23.3.25-.35.74-1.18,1.23-1.13Z" fill="#d2d4d5"/>
          <path d="M23.83,72.92c.52-.27,1.96.6,2.1,1.29l.38-.05c.09.55.04,1.62,0,2.23-1.88,4.48-5.73,7.73-9.87,10.14-1.89,2.09-3.68,3.92-6.74,3.75-.22-.12-.42-.22-.5-.5.97-.93,1.44-2.33,2.24-3.34.97-1.24,2.35-2.25,3.46-3.35l.63-.2c.93.82,1.79.45,2.56-1.11l.28.06c.75-.34,1.5-.75,2.23-1.24l-.12-.34c1.8-1.67,3.42-4.75,2.72-7.24l.62-.1Z" fill="#64b1e5"/>
          <path d="M26.3,76.39c-.11,1.84-.54,1.8-1.49,3.22-.69,1.55-1.55,3.1-3.17,3.74-1.08,1.79-2.71,3.18-4.76,3.2-.92,1.59-2.04,3.28-3.97,3.47-1.09.21-2.14.85-3.22.25,1.21-.47,2.43-.56,3.6-1.23,1.27-.74,2.02-2.09,3.11-2.84,2.19-1.5,2.35-1.61,4.32-3.37,1.47-1.31,3.32-1.64,3.75-4.19l1.84-2.25Z" fill="#467ea9"/>
          <path d="M27.3,77.38c.15-.38.36-.39.5,0,.07,1.52-.09,3.01-.5,4.46.65.61.98,1.55.98,2.82.09.88.07,2.82-.49,3.38-.13.4-.34.38-.5,0,0-.37-.22-.94-.25-1.49-.08-1.81-.02-2.89-.5-4.71.05-1.28-.07-2.58-.01-3.86.02-.32.26-.57.26-.6.14-.47.36-.47.5,0Z" fill="#b43b2f"/>
          <path d="M24.82,79.86c0,.94-.82,1.58-1.24,2.36.06.24.52.11.74.12.2.73-.73,1.35-1.24.74-.54.17-1.13-.27-1.65.58-.15.24-.02.64-.16.83-.12.17-2.07,1.93-2.2,2.01-.41.24-1.43-.21-2.18.55-.35.06-.35-.1,0-.5.75-.46,1.84-.6,2.61-1.24,1.61-1.35,4.17-3.97,5.33-5.71v.25Z" fill="#c1d6e7"/>
          <path d="M16.88,87.05c-.34.34-.67,1.27-.5,1.74-.23.49-.74.83-1.24.99-1.26-.3-.49.13-.91.25-.4.11-.93-.07-1.32,0,1.73-.56,2.74-2.72,3.97-3.47v.5Z" fill="#c0d7e8"/>
          <path d="M23.08,87.3c.76-.03,1.66.04,2.23.62l-1.36,1.61c-.67-.53-.9-1.4-.87-2.23Z" fill="#626365"/>
          <path d="M24.32,82.34c.25.01.5-.02.74,0,.39,1.55-1.46,2.31-1.98.74.33-.11.89-.55,1.24-.74Z" fill="#5b6267"/>
          <path d="M19.77,86.59c2.05-.69,1.48,2.16-.42,1.09-.42-.24.12-.99.42-1.09Z" fill="#69696a"/>
          <path d="M16.39,88.79c.06.15,1.29.61.5,1.12-.59.38-1.22,0-1.74-.13.04-.7.56-1.06,1.24-.99Z" fill="#616262"/>
          <path d="M40.19,75.89c.18.24.18.5,0,.74-.09.43-.17.77-.66.74-.51,1.92-.4,3.92.32,5.98l-.41.47c.14.86.19,1.75.15,2.65.49.56.44.91-.15,1.07h-.74c-.02-1.17.4-2.46.25-3.84-.15-1.31-.96-2.56-1.01-3.96-.04-1.15.39-2.01.51-3.1h-5.33c-.08,0-.6.27-.63.42-.18.79-.11,2.11-.31,3.11-.59,2.92-1.31,5.06-1.41,8.13-.04,1,.33,1.01-.5,1.24-.41-.06-.97-.63-.5-.99.25-3.27.75-6.52,1.51-9.75.2-.96-.05-1.52-.76-1.66-.14.87-2.42,1.06-2.73.25-.17,0-.33,0-.5,0-.37,0-.35-.4,0-.5.17-.15.35-.29.54-.4,1.15-.67,10.59-1.46,11.77-.94.21.09.4.22.58.35Z" fill="#b43930"/>
          <path d="M36.39,83.11c.69-.18,1.21.76,1.32,1.33-.04.16-1.88.93-2.1.87-.93-.23.27-2.07.78-2.21Z" fill="#595c5b"/>
          <path d="M35.19,78.66c.63,1.03-1.14,1.33-1.94,1.45-.46-1.09,1.42-2.32,1.94-1.45Z" fill="#6b6b6b"/>
          <path d="M49.36,33c.25.08.5.18.74.25.1.03.19.26.59.26,1.49,0,2.22-1.13,3,.98.35.96.43,1.76.31,2.78-.06.51-1.01,4.48-1.18,4.65-.6.6-.38-1.04-.88-1.23-.41-.14-.44.1-.61.24.29.35.15.48-.25.25-.39.43-1.27-.14-1.48,0-.1.07-.3,2.01-1.49,1.73-.1-.12.07-1.93.01-2.38-.05-.38-.25-.54-.26-.59-.53,0-.6-.72-.52-1.17l.97-2.6c.05-1.23.23-2.36.54-3.42.22-.41.56-.19.5.25Z" fill="#e2e2e3"/>
          <path d="M47.88,39.94c.15,1.71-.2,3.36-.74,4.96-.11-1.49-.41-.83-.5-.99-1.06-.4-.91-3-.5-3.97-.28-.27.22-.41.5-.25-.03-1.04.22-1.62.74-1.74-.17-.88-.09-1.49.14-2.38-.12-1.1.08-1.88.6-2.33.28-.56.53-.72.74-.5-.05.93.09,1.89-.03,2.82-.23,1.9-1.37,2.34-.96,4.37Z" fill="#5185ab"/>
          <path d="M51.59,49.37l.22.58c-.51,1.11-1.08,2.07-1.71,2.89.29.45,0,.75-.5.5-.34.61-.63.41-.5-.25-.1-.08-.1-.17,0-.25.41-1.1,1.14-2.98,1.98-3.72.4-.25.63-.26.5.25Z" fill="#6596b5"/>
          <path d="M53.83,50.6l-.5-.25-.55-.08c-.17-.76-.56-1.07-1.19-.91l-.5-.25c.43-.38.48-.57,1.23-.64,1.86-.17,1.4.9,1.5,2.12Z" fill="#95b0c8"/>
          <path d="M48.62,47.88c-.31-1.07.33-2.38,1.49-1.62.86.56-1.35,1.78-1.49,1.62Z" fill="#6c706f"/>
          <path d="M51.1,41.18c.03-.13.16-.18.25-.25.67,0,.7.3.76.86.23,2.19-1.39,1.27-1.01-.61Z" fill="#5c5c5c"/>
          <path d="M49.11,53.08c.18.77-.11,2.55-.99,2.73-.02-.9.05-1.83,0-2.73.38.34.65,0,.99-.25-.03.07.03.17,0,.25Z" fill="#b0acc0"/>
          <path d="M19.86,24.32c-.02.11-.04.21-.1.28-.11.12-.37.29-.52.4-.03.02.47-.5.62-.18.25-.26.42-.09.5.25l.26.26c-.18.94.09,1.55.73,2.22.72.78.91,3.49,1.98,4.46.38.66.38,1.07,0,1.24.05.22.21.39.5.5.32-.9.84.39.99.99,0,.08.02.17,0,.25-.16.79-1.22,1.63-1.69,2.4-.97,1.59-1.59,3.72-2.03,5.53-.24.89-1.13,2.53-1.24.99-.23-.74-.19-1.61.11-2.61l-.35.13c-.48,1.44-.81,2.93-.99,4.46.22.05.21.13,0,.25-1.28,1.11-1.3-.31-1.01-1.39-1.07.28-1.56.08-1.47-.59l-.31-.23c-.59,2.84-1.37,5.61-2.33,8.32-2.14,2.81-2.53,4.34-2.83,7.58-.02.16-.25.22-.48.2-.57-.54-2.14-2.43-2.23-3.12-.15-1.15.81-2.75.99-4.07.57-.81.82-1.63.74-2.48.49-1.32.72-2.3.74-3.72.31-.89.23-1.55-.25-1.98-.24-1.05-1.2-2.51-1.24-3.13-.05-.7.48-.78.5-.84.3-.44.32-.74.25-1.24.15-.62.1-1.71.25-2.23-.36-1.22-.44-2.46-.25-3.72.62-1.25,2.95-1.26,4.14-1.93.61-.34.74-.79,1.06-1.04.13-.55.21-1.13.25-1.74.04-.06.18-.19.25-.25.43-.54.59-.95.5-1.24.85-1.26,2.59-3.84,3.72-4.71.43.06.68,1.49.25,1.74Z" fill="#66b4e6"/>
          <path d="M21.1,42.92c-1.11,4.63-2.23,11.26-2.72,16-.26,2.47-.29,4.87.24,7.31-.93.06-1.61.05-2.48-.25.09-.59-1.1-1.61-1.74-1.49-1.05-1.01-2.83-2.59-3.22-3.97-1.12-1.06-.32-3.73.37-5.08,2.53-3.29,3.25-6.86,4.05-10.87.05-.27.24-.4.53-.42.81.63,2.01-.63,1.97.83-.02.62-.8,1.33.51,1.15.45-.37.76-1.06.91-2.09l.33-.14.12.24c.64-.24.8-.7,1.12-1.23Z" fill="#64b0e1"/>
          <path d="M21.59,71.43c3.98,2.03.54,8.76-2.83,9.56l-1.88,2.26c-.77.32-1.71-.19-.99-.91.76-.9,1.92-4.41,1.93-5.58.03-2.39-1.65-3.7-1.92-5.47-.08-.55-.1-3.82.09-4.09.31-.45,2.24-.29,2.76,0,.9.51,1.53,2.62,2.13,3.58.21.34.64.55.7.65Z" fill="#64b3e8"/>
          <path d="M10.19,60.03c.46-1.2.12-2.21.55-3.54.63-1.95,2.59-4,3.25-6.17,1.14-3.75.61-6.15,3.19-9.7.34-.47.8-1.38,1.44-1.41-.07,1.26-1.38,2.22-1.92,3.16-.34.59-.36,1.29-.56,1.8-1,2.55-.95,4.48-1.73,6.83-1.11,3.37-4.43,5.35-3.23,9.54-.65-.07-.62-.14-.99-.5Z" fill="#418fc2"/>
          <path d="M22.83,71.68c.08.09.16.16.25.25.48.3.73.63.74.99-.51.57.06,1.25-.05,2.04-.12.9-1.53,3.78-2.08,4.64-.26.4-1.04.9-1.1,1.01-.16.31-.56.53-1.2.64-.35.6-.69.8-1.03.6-1.24,1.48-1.19,2.56-3.47,1.24.29-.29.83-.56.99-.74.59,2.1,1.97-.95,2.6-1.49s1.39-.58,1.99-.99c.99-.67,2.62-4.16,2.63-5.33,0-1.11-.91-2.16-1.51-3.1l1.24.25Z" fill="#3181bb"/>
          <path d="M9.69,50.36c-.08.78.2.54.46.09.36-.61,2.09-4.14,2.27-4.3.05-.04.48-.09.49.13.08.98-2.78,4.57-3.03,5.9l-.94.67c.04-.3,0-.67,0-.99.37-.34.56-1,.74-1.49Z" fill="#408dc3"/>
          <path d="M14.4,64.49c.6-.76-.77-2.03.74-1.74-.15,1.24.04,1.49.91,2.2.52.42,1.75.3.08,1.02-.71-.24-1.2-.98-1.74-1.49Z" fill="#4791c8"/>
          <path d="M20.35,4.24c.76.92,1.26,1.61,1.74,2.73l1.23,2.26c-.18.63-.63,1.13-1.23.71.18.89.09,1.47-.25,1.74.17.36.21.81.11,1.36l.35,3.16-.46.43-.32.1c-.57-1.55-2.04-2.16-1.33,0,1.14,3.45,2.65,7.47,4.09,10.8.13.31.94.17.65-.8-.97-2.72-1.94-5.46-2.89-8.23l.3-.62.55-.06c.44,1.79,1.11,2.47,1.99,2.05.81-.39,1.36.36,1.67,2.23l.35.07c.1.8.23,1.6.4,2.41l.51.36c.03,1.02.74,1.69,1.47,2.12.66-.1,1.09.53.5.99l.27.1c-.31,2.71-.54,5.08.07,7.8-.28.58-1.77.52-2.08-.06-.43.16-.88.09-1.33-.22-.71-1.36-1.5-2.66-2.38-3.9-2.01-4.45-2.36-6.05-3.59-10.67-.96-3.61-3.4-4.77-3.85-9.41l-.79-1.8c-.25-.57-.16-.96.29-1.18l.59-.04c.46,1.37,2.04,1.5.87-.04.38-2.52.03-3.68-1.07-3.49l-.39-.4c-.55.04-.66-.33-.3-.75s3.86-.47,4.27.25Z" fill="#aec83d"/>
          <path d="M25.31,12.67c.02.07-.01.17,0,.25.02.54-1.48,1.48-.64.86.34-.26.52-.02.64.38h.74c.48.54.49,2.04.25,2.73.08.8-.63.86-.74,0-.41-.15-.55.08-.42.68-2.03.53-.57,2.73-.1.72l.52-.17c.23-.67.54-.66.74,0,.18,1.17.36,2.36.53,3.57l-.28.39c-.34-.24-.93-1.89-1.02-1.95-.69-.44-2.01,1.53-2.23-.82l-.96-1.44c-.75,0-1.05-.72-.5-1.24-.09-1.31-.47-3.08-.38-4.35.02-.25.36-.48.38-.61.3-.37.38-.95.25-1.74.18-.28.71-.35.76-.87.01-.13-.63-1.79-.76-2.1,1.24,1.44,2.78,3.88,3.22,5.7Z" fill="#9dba3b"/>
          <path d="M20.35,4.24h-3.82c-.29,0-.1.34-.15.5.34.42.43,1.02.26,1.79.26.98.17,1.71-.26,2.18.15,1.2.38,1.78.5,2.98-1.02-1.4-2.3-2.82-2.48-4.59-.21-2.12.1-2.32,1.49-3.7,1.21-.52,2.89-.5,4.05.16.49.28.33.6.41.7Z" fill="#9fb741"/>
          <path d="M31.76,39.45c.63.44.88,1.91.25,2.48l.28.98c-.09.52-2.71,1.12-3.01.01-.33.44-1.31.36-1.74,0-.22-.05-.21-.13,0-.25.02-1,.21-1.85.25-2.73.51-1.27,2.84-1.02,3.97-.5Z" fill="#f5be8d"/>
          <path d="M30.27,28.04c.45.35.37,1.68-.09,2.06-.4,2.45.21,4.42.98,6.79.49,1.36.36,1.97-.38,1.81-.46.46-2.18.59-2.73.25-.35-.13-.4-.54-.33-.88,1.8-.5.04-.93-.91-1.11-.78-1.75-1.76-3.61-2.48-5.21,1.1.35,2.05,3.12,2.65,3.49.38.23,2.5.88,2.77.45.26-.41-.27-3.4-.22-4.31.06-1.21.64-1.98.26-3.34.14-.48.36-.48.5,0Z" fill="#9ec040"/>
          <path d="M27.54,42.92c.2.41.2.91,0,1.49.58.52.21,2.79-.5,3.1.19.05.48.13.5.29.08.63.12,4.84,0,5.3l-.5.36c.73.3,1.06,2.36.25,2.6-.15.44-.31.35-.5-.25-.05-.74-.5-2.22-.5-2.85v-4.96c0-1.2.36-3.67.5-5.08l.74-.25c0,.08,0,.17,0,.25Z" fill="#b13830"/>
          <path d="M26.8,36.97l1.36-.99-.12.99h1c.01.34.04.68-.12,1-.34.68-1.52.18-.87.99-.07.22-.15.21-.25,0-.04-.12-.79-1.54-.99-1.98Z" fill="#7f9e49"/>
          <path d="M30.77,38.7c.48-.69,1.1.1.99.74-1.29.19-2.91-.45-3.97.5.01-.26.06-.81,0-.99h.25c.78-.08,1.98-.46,2.73-.25Z" fill="#ac9949"/>
          <path d="M23.33,32.01c.66.59.17.17.57.92.34.65,1.06.07.92,1.81-.47-.11-.38-.64-.58-.91-.1-.13-.38-.05-.41-.08-.33,0-.5-.17-.5-.5v-1.24Z" fill="#69a4a7"/>
          <path d="M20.35,25.07c.94.19.29.18.51,1.1.12.49.4.89.48,1.38-.05-.05-.92-.37-.98-.68-.11-.53.02-1.23-.01-1.8-.2-.04-.43.01-.5-.25-.49,0-.39-.26,0-.5.05-.49.14-1.44-.25-1.74.09-.07.16-.18.25-.25.31,1.18.42,1.21.5,2.73Z" fill="#70aca9"/>
          <path d="M10.19,44.65c.56.02.66-.35.95-.67,1.43-1.6,3.13-3.42,3.65-5.52.19-.76.09-1.6.36-2.36.64-1.74,4.11-3.47,5.94-3.35.13.74-.2.39-.58.52-1.31.44-3.91,1.28-4.64,2.56-.43.75-.32,2.06-.55,2.92-.82,3.09-3.97,4.89-4.89,7.88.01-.87-.06-1.18-.25-1.98Z" fill="#4290c5"/>
          <path d="M9.69,33.5l.12,2.48c1.11-.47,2.46-2.87,3.34-3.12.7-.2,1.15.21,1.57.11.88-.2,3.29-3.75,5.13-1.57-.42.35-1.11-.08-1.58-.04-1.54.12-2.23,1.81-3.32,2.09-.7.18-1.5-.17-1.81-.06s-.98,1.24-1.34,1.61c-.75.78-1.49.88-1.87,2.22.26-.73-.46-.64-.52-1.1-.09-.79-.07-1.94.27-2.62Z" fill="#4391c5"/>
          <path d="M15.15,28.79c-.1.85.26.36.69.32.72-.07,2.07-.37,2.63-.32.77.07,1.81,1.04,2.87.86-1.02,1.07-2.01-.35-3.06-.35-1.41,0-2.32.4-3.38,1.22-.01-.71-.13-1.13.25-1.74Z" fill="#3c8dc2"/>
          <path d="M15.89,27.3l2.38.23c.99-.34,1.73-.12,2.33.76-.85.48-.96-.35-1.39-.44-.27-.06-.8.22-1.21.22-1.09-.01-1.5-.42-2.6.47-.24-.8.28-.92.5-1.24Z" fill="#4593c9"/>
          <path d="M9.69,39.45c.1.49.63-.26.74-.37.42-.42,2.06-2.23,2.36-2.35s.49.07.37.37c-.31.73-3.03,2.82-3.72,3.6.02-.06.17-.9.25-1.24Z" fill="#4592c7"/>
          <path d="M52.83,61.51c-.1.24-.2.49-.33.72-.03.06-.1.09-.16.08-.27-.03-.27,4.42.25,5.15,0,.29.12.84-.12.99-1.48-1.92-3.96-4.72-4.09-7.19-.23-.66-.33-1.51.5-1.63.62-1.26,1.15-2.57,1.14-4.08.29-1.46,1-2.82,1.99-3.89l-.16-.32c-.08-.85,1-1.07,1.49-.5.44,3.25-.27,7.36-.5,10.66Z" fill="#63afe1"/>
          <path d="M51.84,51.35c.77-.07.54.14.26.63-.33.58-.91.99-1.18,1.54-.6,1.2-.62,2.94-.93,4.28-.26,1.15-.9,1.09-.51,2.72.16.68,1.88,3.66,1.61,3.96-.32.36-.63-.41-.75-.61-.2-.33-1.79-4.11-1.97-3.85.01.41-.02.83,0,1.24h-.25c0-.58,0-1.16,0-1.74.12-.45.29-.78.5-.99.47-.86.72-1.85.75-2.95.14-1.35.63-2.27,1.48-2.75-.57-.53.19-1.89.99-1.49Z" fill="#4f95ca"/>
          <path d="M53.33,50.36c.04.13-.02.34,0,.5-.51.27-.97.14-1.49.5-.44.3-.73,1.02-.99,1.49-.4.56-.65.56-.74,0,.1-1.27.82-2.43,1.49-3.47.1-.15.24-.28.27-.47.8-.37,1.3.88,1.46,1.46Z" fill="#7cb6e0"/>
          <path d="M52.59,67.46c-.87.03-.68.15-.74-.61-.12-1.57.09-3.27,0-4.85l.99-.5c-.14,1.99-.18,3.96-.25,5.95Z" fill="#4392cd"/>
          <path d="M43.16,88.04c.17.27.41.43.74.5.8-.15,1.3.98,1.93,1.47,1.13.88,3.16,1.44,2.78,2.99-.14.15-3.54-.4-4.02-.57-1.28-.46-2.14-1.48-4.17-2.16-.57-.3-.91-.59-.25-.99.15-.03.33.02.49,0,.12-.7-.17-.47-.74-.49-.61-.38-.28-.62.99-.74.08,0,.17,0,.25,0,.06-.5.3-.48.5,0,.72-.03.77-.09,1.49,0Z" fill="#b0bd3a"/>
          <path d="M39.45,83.83c.69-.35.77.39.78.97-.74,1.76,1.51,2.81,1.59.77h.61c.07.47-.22,1.35.25,1.48-.03.05.08.3-.06.43-.2.18-.84.06-.93.56-.16,0-.33-.01-.5,0,.24-.78-1.02-.5-1.74-.5v-3.72Z" fill="#c15035"/>
          <path d="M43.16,88.04c.7.08,1.27-.29.74.5l-1.73,1.24.99-1.73Z" fill="#8fa32c"/>
          <path d="M40.19,89.28l.25.99c-.21-.07-.93-.2-.98-.27-.54-.85.36-.65.73-.73Z" fill="#93a058"/>
          <path d="M40.93,88.04c-.4.48-1.19-.08-.99.74-.55-.03-.81-.43-.5-.74.49-.03,1,.04,1.49,0Z" fill="#93a058"/>
          <path d="M30.02,89.78c.85.93-.37,3.06-1.74,2.73-.17-.04-.33.13-.5.5-1.33.94-2.24,2.51-4.21,2.23-.24-1.79,1.38-2.26,2.36-3.47.77-.96,1.3-1.96,1.36-3.23.72-.55,2.69.15,2.73,1.24Z" fill="#b7c63d"/>
          <path d="M27.79,88.04c.26-.93,2.19-.56,1.98.5.04.04.52.83.5.99-.06.02-.15.2-.25.25-.48-.53-1.98-1.16-2.73-1.24,0-.16,0-.33,0-.5.17,0,.33,0,.5,0Z" fill="#af7c2c"/>
          <path d="M28.29,92.51c-.09.77-.33.38-.5.5l-.25-1.98c.86-.06.81.9.74,1.49Z" fill="#98a628"/>
          <path d="M29.78,18.62c.37.1.29.55,0,.74-.45,2.22-.53,4.53-.26,6.93l-.24.26c-.6.83-1.67-.69-.5-.99-.51-2.06-.92-4.71,0-6.69-.16-.28,0-.36.5-.25.16,0,.33,0,.5,0Z" fill="#616d84"/>
          <path d="M29.28,18.62c-.12,0-.35.24-.5.25-.54.69-.7,1.65-.5,2.89l-.49.33c-.13.04-.24.06-.26.03-.78-1.08-.59-3.16-.23-4.24-.22-.07-.21-.15,0-.25.7.46,1.23.67,1.98.99Z" fill="#72afbf"/>
          <path d="M26.55,13.66c.23,1.26.17,2,.25,3.22-.11.66-.29.62-.5,0-.3-.88-.3-1.81-.25-2.73.01-.25-.01-.5,0-.74l.49.25Z" fill="#778c49"/>
          <path d="M26.3,16.89c.16-.02.34.02.5,0,.07,1.2.15.52.5.74v.25c-.19.64-.58.58-.99.25-.21.05-.51-.03-.74,0-.68-.24-.58-.96,0-1.24.33.23.53.03.74,0Z" fill="#aac378"/>
          <path d="M25.31,12.92c.05.33.5.81,0,1.24-.04.04-.36-.08-.45.03-.28.34.36,1.61-.41,1.45-1.41-.29-.58-2.67.86-2.72Z" fill="#acc369"/>
          <path d="M41.18,7.22c.31.65-.51.8-.51.87.05.66,1.29,1.7,1,2.6-1.89-.71-2.88,2-4.09,2.01-2.18.01-.58-4.22-.62-5.48,1.4-.01,2.81,0,4.21,0Z" fill="#f9cda1"/>
          <path d="M41.18,19.12c.9-.54,2.59-.07,2.97.87.03.08-.69.25-.88.85-.25.76-.05,1.7-.11,2.49.89.21.4-1.28.48-1.87.05-.34.36-1.27.76-.98,1.33,1.4.38,2.04.23,3.22-.16,1.24.46,2.93.02,4.35,1.54-1.08.21-3.16.49-4.71l.99.49c.06.45.26.86.5,1.24.22.29.15.66-.19,1.1.38,1.44.02,2.37-1.08,2.79-.06.66-.2,1.59-.96,1.07-.11-.04-.19-.21-.25-.5-.34-.18-.51-.53-.53-1.04.08-1.7-.23-3.18-.95-4.42-1.24-.9-2.53-3.64-1.49-4.96Z" fill="#65b5ed"/>
          <path d="M50.11,28.04c-.84,1.02-1.41,2.11-1.71,3.27.38.84.29,1.49-.27,1.93-.09,2.22.05,2.58-.74,4.71-.34-.09-.59-.42-.74-.99-.48.3-.72,0-.5-.5-.37-.08-.69-1.11-.25-1.24-.08-.62.17-.78.74-.5-.13-.03-.23-.07-.24-.12-.15-.8,1.6-7.07,2.44-7.6l1.03.04c.19.08.89-.06.99.38.13.56-.58.51-.74.62Z" fill="#62b6eb"/>
          <path d="M47.38,25.81c.48.38.69.5,1.24.74.46.2.32.62-.42,1.27-.48.94-1.43,4.35-1.71,5.55-.15.67-.16,1.05.15,1.36-.08.26-.51.39-.74.5-.43-.09-.6-.67-.52-1.75-.51-.22-.83-1.68-.22-1.97-.33-.84-.31-2.25.72-1.31-.43-.75-.2-1.56.7-2.41-.32-1.79-.05-2.45.81-1.98Z" fill="#63b4eb"/>
          <path d="M46.64,25.07c.18.3.47.53.74.74-1.3.1-.37,1.22-.53,2.05-.09.46-.6.78-.7,1.31-.19,1.04.8,2.52-.5,2.59l-.12-1.73-.37,1.49c-.71.4-.87-.9-.74-1.49.59-.25.35-1.2.55-1.44.11-.13,1.06-.17,1.32-.8.2-.5-.52-1.95.36-2.72Z" fill="#4298cc"/>
          <path d="M49.86,27.05c-2.29.9-1.59,1.73-2.09,3.49-.29,1.01-.76,2.09-1.07,3.15-.11.36,0,.82-.06,1.04-.71.15-.53-.41-.51-.87.11-1.84,1.45-3.41,1.37-5.34l1.12-1.98c.4.18.83.33,1.24.5Z" fill="#3e91ca"/>
          <path d="M49.61,29.78c.32.65.61,1.44,1.25,1.85.55.36,1.68.38,1.73.51.19.57-.55.35-.87.37-.5.03-1.72.1-2.11,0-1.7.74-1.6-3.14,0-2.73Z" fill="#61b3e8"/>
          <path d="M49.61,29.78c-.15.3-1.11.59-1,1.6.04.35.75,1.06,1,1.12l-.25.5c-.14-.05-.36-.28-.5-.25-.3.06-.23.52-.25.75l-.49-.25c.1-2.28-.24-3.74,1.98-5.21-.36.39-.39,1.54-.5,1.74Z" fill="#2d84bb"/>
          <path d="M51.59,28.04c.63.27.46.74-.51,1.41-.22.29,1.19,1.42,1.51,1.57-.13.05-.29.26-.5.25-1.15-.27-1.77-.39-1.98-1.89-.1-.7.86-1.1,1.49-1.33Z" fill="#aeb1b1"/>
          <path d="M41.18,19.12c0,.67-.12,1.74,0,2.31.04.2.41.19.49.34.34.68.69,1.73.99,2.31.33.35.19.48-.25.25-.24.39-.49.22-.74-.5-.66.21-1.54-1.25-.99-1.74-.68-.15-.63-.31-.13-.7l-.12-.79c.06-.49-.02-1.3.25-1.74.04-.07.37-.16.5-.25,0,.17,0,.33,0,.5Z" fill="#607e7c"/>
          <path d="M30.27,18.62c1.32,1.83,2.09,2.63,4.29,3.5,1.73.68,3.99,1.15,5.62-.03.15-.46.37-.47.5,0,.04.14.79,1.12.99,1.74.49.51.72,1.31.74,1.98.22.05.21.13,0,.25l-.36.4c-1.56-.29-2.27,1.02-2.13,3.92l.07,4.22c-1.11.58-2.37,1.04-3.79,1.37-.01.43-.41.43-.5,0-.75.18-1.5.27-2.23,0-.5-.37-.75-.37-.74,0-.79.8-1.57-1-1.75-1.76-.1-.41-.08-3.61.04-3.98.98-.19.42-2.14.22-2.19-.39-.15-1.38-.66-1.59-1.1-.6-1.23-.26-6.14.11-7.58.02-.25-.01-.5,0-.74.16,0,.33-.02.5,0Z" fill="#f9502b"/>
          <path d="M31.26,19.12l1.16-.99h1.07s-.25-.5-.25-.5c.86-.46,2.04.96,2.16.98.75.16,4.62-.16,4.79,0v2.98c-.08.22-.24.39-.5.5-1.01,1.35-3.73.57-5.15.02-1.22-.47-3.72-1.55-3.28-2.99Z" fill="#fae130"/>
          <path d="M30.27,18.62c.55.06.68-.12.99.5.69,1.38,1.43,1.95,2.98,2.6,2.39,1,3.1.88,5.45.37.07-.36.41-.36.5,0-.12,1.34-2.59,1.14-3.61,1.01-.46-.06-.33-.47-.52-.51-1.91-.42-1.04.15-2.88-.92-.24-.14-.63-.01-.84-.15-.11-.07-1.72-1.74-1.79-1.84-.26-.4-.41-.47-.27-1.05Z" fill="#f1721e"/>
          <path d="M51.59,28.04c1.03-.37,2.38-.56,3.47-.49,0,.57-1.42.42-1.49.49-.17.9.96,1.14.76,2.07-.07.31-1.4.77-1.75.91-1.41.31-1.19-.5-1.98-1.17-.28-1.06.93-.93.99-1.81Z" fill="#e1b38d"/>
          <path d="M44.9,39.7c.25-.28.66-.08.74.25l.25.07c-.16,1.78.1,3.26.74,4.88-.02,4.81.71,10.09.76,14.99.06,5.77-.34,11.48-.26,17.24-1.29-.37-1.98-1.31-3.47-1.24-.14-.01-.25-.03-.25-.04-.09-7.87-.11-15.97-.03-23.83,0-.06.12-.12.27-.17.64-.4.86-2.33.25-1.49l-.33-.36c.04-2.84-.1-5.61-.41-8.31-.83-1.82.05-3.19,1.74-1.98Z" fill="#f04b2c"/>
          <path d="M40.19,76.64c.07.96.16,1.91.27,2.85.78-.06,1.51-.02,2.21.12.07-.22.15-.21.25,0-.11,2.02-.06,3.93-.5,5.95,0,.04-.18.18-.23.39-.08.31.05,1.03-.01,1.1-.17.18-2.32.07-2.47-.68-.12-.62.1-1.34,0-1.95-.05-.32-.24-.52-.26-.6-.43-2.23-1.37-4.84-.24-6.79l.98-.4Z" fill="#f34d2a"/>
          <path d="M42.67,39.45c.36-.52,1.38-1.12,1.93-.72.32.23.82.95.3.97-.53-.09-1.08-.43-1.74-.25-.01.74.02,1.49,0,2.23.43,10.84.37,21.79.26,32.67,0,.52-.12,1.03-.26,1.55-.03,1.14-.18,2.49-.25,3.72h-.25c-.22-.07-.21-.15,0-.25-.22-.07-.21-.15,0-.25-.49-3.71-.49-7.44,0-11.16-.62-5.11-.62-10.23,0-15.37-.78-3.54-.86-7.64,0-11.16-.41-.38-.42-1.67,0-1.98Z" fill="#cc762c"/>
          <path d="M43.91,50.36c.5.31.28,1.33-.25,1.49v24.05s-.17.25-.34.21l-.15-.21c.26-11.39-.23-22.82,0-34.22.57.17.48.64.51,1.1.14,2.41.23,5.29.23,7.58Z" fill="#dc5429"/>
          <path d="M46.14,39.94c.09.83-.12,1.83-.02,2.62.06.44.38.29.51.55.11.22-.05.68,0,.8,0,.33,0,.66,0,.99l-.99-1.16v-3.79c.02-.33.33-.28.49,0Z" fill="#c65548"/>
          <path d="M49.61,53.33c.1.08.19.16.25.27.13.22-.9,4.43-1.24,4.94-.04.45.04.83-.5.99-.01-1.24.03-2.48,0-3.72.44-.86.67-1.82.99-2.73l.5.25Z" fill="#5283a9"/>
          <path d="M27.3,56.06c.22.05.21.13,0,.25.36,5.94.36,11.89,0,17.85.49.9.49,1.83,0,2.73v.5c-.17,0-.33,0-.5,0,.27-7.07.45-14.53,0-21.57l.5.25Z" fill="#a0413f"/>
          <path d="M25.79,41.66c-.07.11-2.37.86-2.46.76-.5-1.14,1.5-2.88,2.25-1.88.19.26.37.88.21,1.11Z" fill="#656867"/>
          <path d="M24.97,45.92c1.26-.19.03,2.77-1.01,2.45-1.11-.72.25-2.34,1.01-2.45Z" fill="#616365"/>
          <path d="M25.8,67.23c.06.1.05.53-.06.68-.65.09-.82,1.7-1.54,1.54-.64-.14-.33-2.43.49-2.49.18-.01,1.08.23,1.11.27Z" fill="#515757"/>
          <path d="M23.58,57.8c.55.57-1.17,2.52-1.87,1.5-.85-1.23,1.7-1.68,1.87-1.5Z" fill="#6f7170"/>
          <path d="M23.08,71.93c.78.45,2.32,1.07,2.96,1.63.29.25.22.3.27.6l-.37,1.24c-.52-.35-.25-1.07-.5-1.49-.14-.23-1.22-.68-1.61-.99-.54-.42-.53-.78-.74-.99Z" fill="#447ea8"/>
          <path d="M26.28,63.47c-2.99,1.2-1.81-1.66-.37-1.2l.37,1.2Z" fill="#606364"/>
          <path d="M24.94,54.82c1.01-.3,1.2,1.45.49,1.98-.63.13-1.21-1.76-.49-1.98Z" fill="#616463"/>
          <path d="M21.01,64.27c1-.33,1.61.76.52,1.27-1.49.71-1.31-1.01-.52-1.27Z" fill="#585b5b"/>
          <path d="M21.84,53.58c-.16-.53.08-2.15.86-1.98.73.16.2,2.39-.86,1.98Z" fill="#6d7173"/>
          <path d="M20.6,80.61c-.06.11.12.59-.03.71-.17.14-.76-.1-1.09.28-.17.19-.2.76-.41,1.08-1.44,2.19-3.28,3.07-5.17,4.75-1.09.51-1.8-.6-.74-1.12l.37.74,1.61-1.36c0-.08-1.37-1.02-.37-1.36.12-.04.2,1.49,1.98.25.47-.33,2.26-2.04,1.61-2.73.67-.8,1.04-1.24,2.23-1.24Z" fill="#4191c9"/>
          <path d="M20.11,82.59l4.21-6.2c.04.41-.01.8-.19,1.18-.3.66-2.63,4.05-3.15,4.53-.27.25-.43.58-.87.49Z" fill="#4292c8"/>
          <path d="M30.52,77.13c.29-.06.72-.46,1.24-.25-.05.69.08,1.43,0,2.11-.34,3.08-1.36,5.14-1.49,8.69-.02.48.25.99-.5.86-.64-.57-1.18-.5-1.98-.5-.26-1.1.08-2.17,0-3.34-.07-.92-.43-1.92-.49-2.85.25-3.1,1.08-4.2,2.5-3.29.04-.75.28-1.22.72-1.42Z" fill="#f34d2c"/>
          <path d="M30.52,77.13c.08.45-.32,2.7-.99,2.23-.07-.05-.17-1.22-1-.63-.25.18-.48,2.71-1.23,3.11-.07-1.05-.09-2.57-.02-3.62.03-.5.04-.61.51-.84,1.06,0,1.69-.03,2.73-.25Z" fill="#f1502d"/>
          <path d="M39.69,39.45c.45-.13.63.41.63.82.01,10.96.02,21.93-.02,32.89,0,.91-.05,1.83-.11,2.74-4.33-.17-8.62.44-12.89.99v-2.73c.34-5.91.34-11.86,0-17.85,0-.08,0-.17,0-.25,0-.89-.25-2.01-.25-2.6v-5.95c0-.63.31-2.47.5-3.1.06-1.26.11-1.37,1.41-1.24.14.66.41,1.24.82,1.74.79,1.54,2.11,2.43,3.6,3.22l.37.74c1.02,1.22,2.28.11,1.49-.99-.47-.14-.47-.36,0-.5-.67-1.11-1.33-2.27-1.98-3.47-.66-1.08-.97-2.3-.93-3.66l.43-.31c.79-.36,2.33-.42,3.37-.44.44-.21.86-.11,1.27.3.58-.84,1.69-1.38,2.3-.36Z" fill="#f1502d"/>
          <path d="M40.44,39.45c.15,13.12.19,26.33.12,39.62.65.15,1.36.25,2.11.3v.25h-2.48c0-.99.01-1.99,0-2.98,0-.25,0-.5,0-.74-.09-11.86.06-23.74.02-35.6l-.51-.84c-.02-.46.15-.54.5-.25.34-.37.5-.2.25.25Z" fill="#bc882f"/>
          <path d="M50.36,35.98c1.17-.78,1.03,1.83.36,1.98-.91.21-.58-1.84-.36-1.98Z" fill="#636062"/>
          <path d="M42.67,34.98c.55-.5,1.81.12,1.98.74.22.07.21.15,0,.25.54.18.56.33,0,.5-.17.38-.52.4-1.06.05.96.6,1.58,1.38,2,2.42.58,0,.93.18,1.05.5.21.08.21.17,0,.25-.19-.02-.41.23-.5.25-.13.02-.35.01-.5,0-.31-.03-.55-.21-.74-.25.25-.87-1.56-.55-2.23-.25-.25-.24-.23-.72.05-1.45-.43-.34-.69-.69-.8-1.03-.22-.8-.14-1.47.25-1.98.03-.66.26-.62.5,0Z" fill="#e9b027"/>
          <path d="M46.64,36.97c.22.18.53-.13.74.99-.1.26-.45.46-.49.87-.09,1,1.26,2.85,0,3.59.17-.95-.19-1.84-.25-2.73,0-.08,0-.17,0-.25-.73-.31-.72-1.17,0-1.49-.39-.26-.62-.9,0-.99Z" fill="#67a0cc"/>
          <path d="M50.85,52.84c-.42.76-.97,1.83-1.18,2.66s.22,2.86-1.05,3.04c.15-1.77.14-1.82.62-3.47.15-.52.16-1.31.37-1.74.05-.1.39-.45.5-.5.15-.06.53.04.74,0Z" fill="#66ade2"/>
          <path d="M19.61,41.43c.38-1.69,1.11-3.77,2.18-5.14.24-.3.29-.67.8-.56-.34,1.35-1.38,2.41-1.85,3.72-.54,1.49-.54,3.03-.87,4.46-.78,3.28-1.79,3.15-3.02,5.54-1.05,2.03-2.41,8.64-1.31,10.57.16.29,1.37.73.86,1.24-.56.57-1.58-1.16-1.68-1.67-.6-2.93.49-8.63,2.11-11.16.38-.59,1.65-1.78,1.8-2.29.02-.07-.01-.16,0-.25.19-1.56.52-3.04.99-4.46Z" fill="#408fc2"/>
          <path d="M12.17,50.61l-2.35,3.72c-.53-.37-.26-.43-.12-.86.33-1.07,1.34-2.54,2.47-2.86Z" fill="#448ec5"/>
          <path d="M18.62,45.89c.19-1.42-.24-3.39.99-4.46-.32,1.43-.23,3.26-.99,4.46Z" fill="#64b0e1"/>
          <path d="M23.33,33.25c.69-.16.44.44.5.5-1.34.08-1.75,1.71-2.97,1.98-.36-.37,2.09-2.39,2.48-2.48Z" fill="#3e91c7"/>
          <path d="M19.86,24.32c-.02.16.04.41,0,.5-.05.11-1.66,1.67-1.99,1.36.35-.73,1.18-1.66,1.99-1.86Z" fill="#4292ce"/>
          <path d="M18.12,42.92c.38.48-.72,1.91-.74-.25.19.17.71.22.74.25Z" fill="#64b0e1"/>
          <path d="M19.11,50.36c.14.14-.85,1.41-1,1.84-.32.89-.35,1.93-.61,2.86-.1.36-.28,1.43-.86,1.25.11-.49,1.38-7.05,2.48-5.95Z" fill="#3e8cc2"/>
          <path d="M18.12,68.46c.29.33-1.26,2.58,0,2.97.04-.73-.32-2,.74-1.98v8.92c.63.09.9-.63.98-1.13.35-2.31.04-4.49.02-6.8.3-.39.45,0,.5.37.1.84.47,2.9.46,3.48-.01.51-.37.97-.44,1.5-.11.96.27,2.24-.52,2.94-.56.5-1.43.54-1.68-.29-.2-.68.32-3.14.18-4.38-.06-.55-.31-1.45-.53-1.95-.2-.46-.8-.79-.89-1.35-.08-.51.66-2.91,1.19-2.3Z" fill="#4493c9"/>
          <path d="M21.59,72.42c-.08,1.23.59,2.07.5,3.34-.02.29-.49,2.19-1,1.62-.07-.08.27-1.61.26-2.11-.01-.84-.34-1.77-.27-2.47.05-.47-.04-.41.5-.38Z" fill="#4292ca"/>
          <path d="M21.84,16.64c.16.39.35.85.5,1.24.82,2.17,2.03,5.47,2.48,7.52.04.17.72.78.65,2-.05.92-1.46.81-1.64.64-.04-.03-.03-.69-.14-.97-1.16-3.14-2.86-6.64-3.82-9.62-.32-1-.78-3.16,1.06-2.51.16.06.77,1.4.9,1.71Z" fill="#eed131"/>
          <path d="M16.39,4.74c2.9-.99,1.66,2.63,1.99,4.05.02.08,1.23.67,0,1.29-1.15.57-1.41-.71-1.98-1.37-.17-1.41-.44-2.57,0-3.97Z" fill="#e5cf33"/>
          <path d="M29.78,19.36c-.11,1.39-.23,5.82,0,7.01.02.09,1.16,1.04,1.37,1.28.12.13.07.35.11.39.66.47.17,3.27-.5,1.98.42.77.29,2.11,0,2.98-.53,1.2-.74-.08-.78-.91-.04-.73.19-3.35.78-2.07l-.29-.4c.14-.82.07-1.35-.21-1.59-.16-.02-.33.01-.5,0-.18-.64-.41-.38-.5-.99-.67-.09-.63-.29,0-.5-.1-1.8-.13-4.3-.01-6.09.03-.46-.06-.93.51-1.1Z" fill="#bb7933"/>
          <path d="M27.3,17.88c.18,1.32-.47,3.16.5,4.21l.49.25c.03,1.22.19,2.29.5,3.22.03.62-.25,1.15.5.99,0,.16-.02.34,0,.5-1.5.2-1.88-1.26-1.98-2.48-.38-2.15-.71-4.3-.99-6.45.23-.05.57-.43.99-.25Z" fill="#6c9d76"/>
          <path d="M26.3,18.12c.3-.4.45,0,.5.37.11.86-.13,1.92-.02,2.75.06.46.46.33.51.53.17.73-.07,1.96,0,2.8-.43-.59-.63-1.72-.74-2.48-.2-1.29-.25-2.66-.25-3.97Z" fill="#7fa03f"/>
          <path d="M22.09,9.94l.74,2.23-.99-.49c.09-.57-.14-1.13.25-1.74Z" fill="#88a428"/>
          <path d="M25.56,16.89c.06.23.03.96,0,1.24-.38,3.48-3.85-.08-.74-.75l-.74-1.48c.56-.16,1.37.52,1.49.99Z" fill="#7fa03f"/>
          <path d="M32.01,41.93c.62.22,1.42,1.4.74,1.98-.87.39-1.7.56-2.48.5-.1.67-.29.63-.5,0-.7-.02-1.29-1.55-.5-1.49,1.32.05,3,.86,2.73-.99Z" fill="#9b8d44"/>
          <path d="M32.25,39.45c.28.1.44.27.5.5.07.68-.1,1.48-.02,2.13.06.46.46.32.51.53.09.37-.08,1.18,0,1.32.33.35.19.48-.25.25-.35.34-.48.19-.25-.25.2-.87-.53-1.13-.74-1.98-.15-.6-.07-1.96-.25-2.48-.22-.35-.1-.47.25-.25.36-.32.5-.18.25.25Z" fill="#bf6f3d"/>
          <path d="M29.28,42.92c-.26.94.41.83.5,1.49.36.01.32.37,0,.5-1.01.09-.93-1.41-1-1.48-.03-.04-.91-.03-.96.02-.04.04-.19.71-.27.97,0-.5,0-.99,0-1.49.58.01,1.16-.02,1.74,0Z" fill="#d45e37"/>
          <path d="M30.27,28.04c.16.02.33-.02.5,0,.01.66-.01,1.33,0,1.99-.11.02-.47-.04-.5,0-.08.11-.06,2.57,0,2.82.07.29.27.13.5.16.11.07.2.14.22.22.26,1.07.4,1.6.79,2.66.08.21-.08.43-.26.59.43.09.61.19.25.5.81.18.87,1.8.25,2.23-.03.12-.13.23-.25.25-.02-.06-.93-.73-.99-.74.47-.22.1-.81.03-1.14-.3-1.41-.89-3.59-1.02-4.93-.17-1.68.72-2.93.5-4.59Z" fill="#8e9830"/>
          <path d="M51.59,61.76c-.95,1.02-1.01-2.97-.99-3.34.09-1.21.55-3.62,1.48-4.34-.24,2.12-1.27,4.14-.98,6.31.05.39.64,1.2.48,1.37Z" fill="#4791c6"/>
          <path d="M26.78,92.78c.62.97-.61.62-1.22.47-.21-.83,1.01-.79,1.22-.47Z" fill="#95a823"/>
          <path d="M28.78,18.87c.07,2.22-.1,4.48,0,6.69-.88.15-.37-.81-.5-1.32-.16-.63-.46-.64-.49-2.15-.01-.61-.08-3.23.25-3.47.24-.18.7.25.74.25Z" fill="#59b0da"/>
          <path d="M39.69,8.21c.62.58-.83,1.26-1.49.74-.26-.77,1.3-.92,1.49-.74Z" fill="#d5a075"/>
          <path d="M44.4,30.03c.36,1.01.41.94.74,1.49.2.33.62,3.08.74,3.72.08.41.1.84.25,1.24.33.72-.39.75-.5,0-.22-.06-.22-.15,0-.25-.72-.39-.96-1.1-.73-2.15l-.26-.58c-.88.37-1.29-2.2-.5-2.48-.26-.7-.26-1.2,0-1.49.22.11.19.32.25.5Z" fill="#6a677e"/>
          <path d="M44.16,29.53c.06.47-.05,1.01,0,1.49-.19.04-.46.1-.54-.02-.73-1.11-1.06-3.36-.45-4.45-.23-.34-.4-.84-.5-1.49-.53.21-.63-.44-.25-.74l.25-.25c.13.25.79.61.93,1.18.22.87.42,3.19.56,4.28Z" fill="#7e636f"/>
          <path d="M46.14,36.47c.17.09.33.36.5.5v.99c-.2,1.07-1.67-.33-.99-.99-.37-.21-.46-.41,0-.5.19.23.47-.01.5,0Z" fill="#6d8887"/>
          <path d="M42.42,24.32c.18.21.16.6.25.74.5.17.32.95-.25.74-.81-.67-.56-1.42-.74-1.98.19.18.6.32.74.5Z" fill="#cd594e"/>
          <path d="M40.68,22.09c-.17,0-.33,0-.5,0s-.36-.03-.5,0c-.15-.73.29-.4.5-.5.43-.21.2-.6.25-.99.49.26.14,1.09.25,1.49Z" fill="#de9f53"/>
          <path d="M42.17,33.99c.5.16.5.58,0,.74-1.02.27-.9.78-.64,1.78l-.35.45c-.11.34-.47.58-1.07.71l.08,1.52c-.07.24-.29.23-.5.25-.42.03-.91-.08-1.31,0-.14.03-.63.91-1.05.91-.22,0-.58-.55-1.02-.6-.8-.1-2.45.29-3.57.18-.15-.01-.32.06-.47-.03-.11-.11.01-.37-.03-.46l.23-.49,3.54-.18c.12-.09.4-1.66.2-1.73l-4.07.39-.4-.46c-.01-.06-.19-.23-.25-.5l.44-.34c1.25.09,2.56.12,3.78-.16.16-.02.34.02.5,0,1.23-.36,2.44-.76,3.62-1.18l.6.19c.02-.4.11-.73.25-.99-.1-.74,1.35-.71,1.49,0Z" fill="#eeae2a"/>
          <path d="M42.42,26.06c.47-.11.57.13.25.5.37.23.36.51,0,.74-.47.52-.49.43-.5-.25-1.58-.77-2.13.77-1.03,1.89-.79,1.7-1.03,3.71-.7,6.05-.84.68-3.2.83-4.21.99.6-1.08,3.16-.81,3.39-1.55.8-2.55-1.72-8.92,2.81-8.36Z" fill="#e96220"/>
          <path d="M31.26,28.04s.34-.07.44.04c.11.13.12,1.72.05,2.02-.05.2-.45.07-.51.53-.07.54-.08,2.99.03,3.44.04.18.42.14.48.35.2.75-.18,1.23,1,1.55.21-.6.46-.54.74,0,.74,0,1.49,0,2.23,0-.06,0-.27.22-.6.26-1.19.13-2.42.22-3.61.24-.16-.76-.68-1.41-.74-1.66-.12-.48.01-1.26,0-1.81-.03-.99.02-1.99,0-2.98.11-.02.47.04.5,0,.12-.16-.08-1.58,0-1.99Z" fill="#e25d2f"/>
          <path d="M35.97,31.51v2.98s-.74,0-.74,0c-.02-.69-.03-1.36.07-2.04.06-.4.05-1.12.67-.93Z" fill="#e4391f"/>
          <path d="M32.75,35.98c-.25-.69-.27-1.38-.25-2.11,0-.33-.2-1.03.37-.87.15.04.25,2.55.62,2.98-.3,0-.11.17-.74,0Z" fill="#e13718"/>
          <path d="M38.45,32.26c.01.85.18,2.01-.74,2.48-.06-.65.04-1.28.21-1.91.12-.42-.18-.69.53-.57Z" fill="#de341a"/>
          <path d="M42.67,25.07s.43-.12.5.17c.09.32-.02.92,0,1.32-.08.66-.31.63-.5,0,0-.03-.24-.25-.25-.5,0-.08,0-.17,0-.25,0-.07.38-.46.25-.74Z" fill="#885f6e"/>
          <path d="M43.66,51.84c0-.39.25-.91.25-1.49-.09-.83.44-1.61.5-2.35.15-1.75-.38-5.58.03-6.92.04-.12.28-.4.34-.4.56,0,.4,3.42.37,4.08-.08,1.8-.35,4.97-.75,6.68-.12.5-.22.79-.73.38Z" fill="#da331d"/>
          <path d="M40.68,39.45c-.56-1.02,1.5-1.38,1.83-.45-.25.91-.2,1.72.15,2.43-.08,3.71.02,7.45,0,11.16-.05.44-.14.54-.27.31v5.31c-1.1.53-1.54-.19-1.72-1.16-.22-5.68-.21-11.87,0-17.6Z" fill="#c2c13b"/>
          <path d="M40.68,67.96c.45-1.74,1.74-2.02,1.84-.42l.15.42v11.16c-.16.19-2.11.18-2.11.07-.04-3.74-.05-7.49.13-11.22Z" fill="#c7c240"/>
          <path d="M42.67,52.59c-.02,5.12,0,10.25,0,15.37-.91.24-.26-1-.62-.99-1.19.01-.49,1.03-1.36.99-.2-3.63-.19-7.28,0-10.91.3.34,1.01,1.19,1.49.75.16-.15-.02-3.69,0-4.35.02-.48-.25-.99.5-.86Z" fill="#beb94b"/>
          <path d="M40.68,57.05c0,3.63-.01,7.28,0,10.91s0,7.44,0,11.16h1.98s0,.25,0,.25h-2.23s0-39.92,0-39.92c.05-.21.14-.2.25,0v17.6Z" fill="#d5a149"/>
          <path d="M41.18,36.97c.09-.71.54-.69.74,0,1.06.17,1.51.74,1.23,1.81-.06.24-.41-.02-.49.67-.07.61.01,1.35,0,1.98-1.1.07-.06-1.88-.73-2.37-.6-.43-.99.29-1.25.39-.05.02-.19.01-.25,0-.02,0-.13-.16-.25-.25-.17-.12-.44-.22-.49-.43-.35-1.55.09-1.77,1.48-1.8Z" fill="#d2bf31"/>
          <path d="M27.3,74.16c0-5.95.03-11.91,0-17.85.99,3.3.28,6.89.51,10.3l-.51,7.55Z" fill="#b13830"/>
          <path d="M30.27,44.41s-.11-.43.16-.5c.43-.11,1.09.08,1.57,0l-.49-.49c.2-.17,1.2.44,1.24.49.08.09.24.22.25.25l.35-.03c.62,1.11,1.25,2.19,1.88,3.26,0,.16,0,.33,0,.5,1.07,1.3-.95,2.17-1.49.99-.44-.3-.65-.89,0-.99.31-1.18-2.39-2.75-.37-1.08l-.12.58c-.02.13-.05.25-.12.36-.31.47-4.17-2.31-2.86-3.33Z" fill="#83983f"/>
          <path d="M31.76,49.12c-.32,4.56-.89,9.11-1.66,13.6l-.57.53c.32-3.78.99-7.53,1.48-11.28.03-.2-.05-3.84.75-2.85Z" fill="#d7361e"/>
          <path d="M38.45,41.68l-1.36,12.64c-.47-.32-.34-.59-.32-1.03.06-1.44.54-2.88.68-4.3.24-2.3.23-4.65.5-6.94.04-.37.2-.76.5-.37Z" fill="#da321c"/>
          <path d="M30.27,44.41c-.13.58,0,.66.27,1.05.33.49,1.99,2.19,2.7,1.92.51-.26.65,0,.5.5-.04.06,0,.77,0,.99-.76-.1-.65-.64-1.07-.91-.22-.14-.65-.02-.83-.16-.15-.11-1.93-1.84-1.99-1.97-.15-.38-.03-.62-.08-.92-.02-.16.02-.34,0-.5.14-.03.44.05.5,0Z" fill="#ad7734"/>
          <path d="M33.25,43.91s.33-.07.43.06c.15.19,0,.63.14.86.82,1.24,1.38.23,1.41,2.55-.93.05-.88-1.14-1.07-1.41-.65-.94-.52-.48-1.16-1.81l.25-.25Z" fill="#c46630"/>
          <path d="M35.23,47.88c.97-.15.32,1.53.5,1.98h-1.99c0-.33,0-.66,0-.99.46.06,1.01-.04,1.49,0,0-.33-.01-.66,0-.99Z" fill="#c46630"/>
          <path d="M43.16,26.55c.02.68-.07,1.37.06,2.05l.93,2.41c.05.45.24,2.27.5,2.48.41.3.4,2,0,2.23-.81,0-1.42-.51-1.98-.74l-.21-.26c.46-1.78.14-3.78-.53-5.46,0-.24.5-1.73.74-1.96,0-.25,0-.5,0-.74h.5Z" fill="#e45523"/>
          <path d="M42.17,27.05q-.71.59,0,0c.13.1.35.15.5.25,0,.78-.25,1.52-.25,2.11.02,1.68,1.09,3.72.25,5.58-.11-.05-.35.03-.5,0-.22-.05-.21-.13,0-.25.01-.25,0-.5,0-.74l-.33-.39c.09-4.62-.96-5.09-.66.07l-.5.32c-.02.4.14.67-.25.99-.26-1.51-.31-3.03-.23-4.57.03-.51.43-.98.44-1.5.02-.79-.8-2.11.72-2.33.69-.1.58.27.81.46Z" fill="#f39b2f"/>
          <path d="M44.65,36.47c.4-.28.92.02.99.5.02.07.77,1.29.99.99,0,.49-.03,1,0,1.49-1.87.34-1.32-.5-2.24-1.61-.37-.45-1.35-1.02-1.46-1.26-.64-1.41,1.49-.23,1.72-.11Z" fill="#f0c834"/>
          <path d="M42.17,34.74c0,.08,0,.17,0,.25-.02.61.63,1.26-.25,1.98-.21-.03-.51,0-.74,0-.48-1.03-.54-3.14.99-2.23Z" fill="#f7ce31"/>
          <path d="M44.65,33.5c.07.06.45-.06.5,0,.11.15-.1,1.38,0,1.81.01.06.28.16.49.91-.09.55-.88.18-.99-.25v-2.48Z" fill="#b4584d"/>
          <path d="M45.64,36.22c.02.08-.03.18,0,.25.04.12-.04.36,0,.5-.37-.07-.66-.32-.99-.5v-.5l.99.25Z" fill="#d0974a"/>
          <path d="M31.76,36.97l5.21-.49c-.08.41-.41,2.61-.52,2.7-.26.2-3.58.29-4.19.27-.04-.09-.23-.18-.25-.25-.17-.63-.11-1.63-.25-2.23Z" fill="#fad62f"/>
          <path d="M42.17,33.99h-1.49c.05-.85-.42-5,.86-4.71.7.16.87,3.39.89,4.11,0,.31-.26.57-.26.6Z" fill="#f8cb31"/>
          <path d="M40.19,35.73c.61.62-1.38,1.31-1.62,1.73l-1.35,1.99c-.23-1.32.25-2.95,1.59-3.49.27-.11,1.25-.36,1.38-.23Z" fill="#face36"/>
          <path d="M33.25,47.38c-.64-.69-1.49-1.15-1.98-1.98,1.48-.24,2.69.7,2.96,2.15.09.51-.43.26-.48.32-.29-.06-.35-.34-.5-.5Z" fill="#91b54d"/>
          <path d="M42.17,27.05l-.25,1.62c-1.9-.14-1.68-1.85.25-1.62Z" fill="#f9bb32"/>
        </g>
      </g>
    </g>
  </g>
</svg>