<?xml version="1.0" encoding="UTF-8"?>
<svg id="Layer_2" data-name="Layer 2" xmlns="http://www.w3.org/2000/svg" viewBox="0 0 64 96">
  <g id="Cards">
    <g id="Swords">
      <g id="TwelveOfSwords">
        <g>
          <path d="M3.46,7.91h-1.51V2.22c-.55.52-1.2.9-1.95,1.14v-1.37c.39-.13.82-.37,1.28-.73.46-.36.78-.78.95-1.26h1.22v7.91Z" fill="#2a2b2c"/>
          <path d="M9.23,6.5v1.4H3.94c.06-.53.23-1.03.52-1.51s.85-1.1,1.7-1.89c.68-.63,1.1-1.06,1.25-1.29.21-.31.31-.62.31-.92,0-.34-.09-.6-.27-.78-.18-.18-.43-.27-.75-.27s-.57.09-.75.28-.29.5-.32.95l-1.5-.15c.09-.83.37-1.43.84-1.79.47-.36,1.06-.54,1.77-.54.78,0,1.39.21,1.83.63.44.42.67.94.67,1.56,0,.35-.06.69-.19,1.01-.13.32-.33.66-.6,1.01-.18.23-.51.57-.99,1-.48.44-.78.73-.91.87-.13.14-.23.28-.31.42h3Z" fill="#2a2b2c"/>
        </g>
        <g>
          <path d="M60.54,88.09h1.51v5.69c.55-.52,1.2-.9,1.95-1.14v1.37c-.39.13-.82.37-1.28.73-.46.36-.78.78-.95,1.26h-1.22v-7.91Z" fill="#2a2b2c"/>
          <path d="M54.77,89.5v-1.4h5.29c-.06.53-.23,1.03-.52,1.51s-.85,1.1-1.7,1.89c-.68.63-1.1,1.06-1.25,1.29-.21.31-.31.62-.31.92,0,.34.09.6.27.78.18.18.43.27.75.27s.57-.09.75-.28.29-.5.32-.95l1.5.15c-.09.83-.37,1.43-.84,1.79-.47.36-1.06.54-1.77.54-.78,0-1.39-.21-1.83-.63-.44-.42-.67-.94-.67-1.56,0-.35.06-.69.19-1.01.13-.32.33-.66.6-1.01.18-.23.51-.57.99-1,.48-.44.78-.73.91-.87.13-.14.23-.28.31-.42h-3Z" fill="#2a2b2c"/>
        </g>
        <g>
          <path d="M23.78,40.34c.82-1.28,2.02-2.68,1.5,0l.33.08c-1.21,10.62-2.38,21.25-3.49,31.88l-.35.14-.49-.4c.31-2.89-1.24-4.2-3.2-1.68-.88,1-3.1-.34-3.8-1.09-1.46-2.88-1.6-1.61-.42,3.8l3.3,4.47-.41.42c-4.26-2.62-5.11-6.15-5.03-10.92.07-3.84.6-7.83.76-11.65.32-1.7.54-2.75,2.19-3.57l2.07-1.95c.77-.31,1.27-.81,1.5-1.5l-.16-.32c1.94-1.73,2.59-3.34,3.45-5.64.05-.14.26-.14.47-.06-.17-.67,1.18-2.09,1.76-2.01Z" fill="#d3d3d3"/>
          <path d="M45.35,6.74c-.38,1.72-.41,7.98.47,9.38.18.28.53.13.78.15.07.27-.01.52-.25.75,2.74.76,2.34,4.5-.94,3.76-.83-.19-2.34-1.83-2.93-2.53-.65-.19-.87-.51-.64-.98-.38.1-.57-.17-.75-.5-.66-.09-.62-.28,0-.5.03-.26-.65-1.45-1.01-1.48-.51-.05-2.69,1.16-3.25,1.48.66.1.62.28,0,.5-.17.63-.5.97-1,1-.32.49-.69.49-1,0-.26.31-1.85.33-2.16.16-.72-1.01-1.78-2.07-3.11-1.91-.12.6-.82.65-1.25.25.27-.92.33-.25.99-.63,1.09-.64,1.74-2.5,2.41-3.37.56-.73,1.65-1.52,2.12-2.27.35.17.54.61.57,1.32,2.18-1.98,3.33-.73,4.88,1.18,1.36-.55,1.83-1.75,1.12-3.13-.23-.94.02-1.78.95-2.13l.14-.34c1,.01,2,.13,2.98.35.27-.4.57-.57.89-.5Z" fill="#e8e9e8"/>
          <path d="M16.76,77.96c-.33-1.43-1.08-1.56-2-2.71-1.8-2.23-1.43-2.14-1.78-4.67-.1-.71-1.36-2.95.25-3.29,1.06-.22,1.08,1.25,1.41,1.63.08.09,1.89,1.23,2.01,1.26,1.27.29.98-.33,1.52-.71.25-.18,1.61-1.04,1.74-1.05.85-.09,1.05.83,1.5,1.01.58.24.17-.61.62-.5-.34,1.19-.19,2.32-.25,3.51l.31.42c-.53,3.72-.72,7.44-.57,11.18l-.24.43c-.74-1.06-.28-1.66-.63-2.26-.16-.26-1.34-.88-1.73-1.28-.5-.51-2.03-2.43-2.16-2.98Z" fill="#dadbdb"/>
          <path d="M50.86,70.44l.51-.05,2.58,2.51c.75,1.12,1.52,1.81,2.93,1.55.28,2.22.05,3.49-1.3,5.35-1.58,2.18-3.34,2.62-5.98,2.68.15,1-.07,1.86-.25,2.76-.17-.2-.31-.39-.32-.6-.22-4.49-.09-9.2.48-13.61.02-.12.16-.23.34-.33.07-.75.59-.87,1-.25Z" fill="#d1d2d2"/>
          <path d="M22.27,74.95c.8.44.23,3.14-.5,3.64.19.05.49.13.5.28.11,1.07.11,3.56,0,4.63l-.5.35c.62-.12,1.29.49,1,1.13.76,0,1.52.24,2.27.71,3.61.75,7.25,1.17,10.94,1.27l.33.53c-2.35.33-4.69.33-7.02,0-.2.72-1.35.76-1.5,0-.09.67-.29.63-.5,0-1.69-.26-5-1.56-6.02-3.01-.59-4.01.31-8.03.5-12.04l3.51-32.1.16-.87c-.49-.5-.07-2.51.84-1.89l.51.36c-1.35,11.05-2.66,22.47-3.92,34.24l-.59,2.76Z" fill="#b43e36"/>
          <path d="M58.39,52.88c-.41.69-.59.69-1,0l-.46.39c-.46-.02-3.81-1.68-3.56-2.4-.61.41-.83.22-.75-.5l-.5.29c-1-.51-1.92-1.11-2.76-1.8-.08.22-.16.22-.25,0-.32,0-.57-.16-.75-.5-.51.56-1.11.22-1-.5-.5-.16-.95-.57-.5-1-.22-.07-.22-.15,0-.25.35-.14.93.13.75.5l.77-.13c2.84,1.12,5.51,2.5,8.01,4.15,1.42,1,2.02.87,1.79-.39l.46-.36c-.62-.16-1.08-.47-.5-1-.82.03-1.6-1.67-.75-2.01-.55-.33-.62-.5,0-.75l-.43-.32c1.1-4.37.63-8.83-1.41-13.37l.34-.6c-.73-.07-.82-.42-.5-1-.2.09-.49.15-.57,0-1.11-2.09-1.74-4.35-1.16-6.71-.29-.76-.3-1.37-.02-1.82-.63-.02-.67-.21-.75-.75-.76-.18-2.48-1.69-2.26-2.51-.85.26-1.92-1.19-2.01-2.01-.66.29-1.41.12-2.26-.5-.04-.06-.43-.16-.25-.5.01-.02.42-.08.5-.26.61.05,1.05-.08,1.69.19,1.24.52,6.12,5.79,6.46,7.08.37,1.4-.3,2.67-.02,4.29s1.43,3.03,1.96,4.55c.84,2.38,2.49,8.77,2.16,11.08-.15,1.06-.99,2.15-.98,3.29.01,1.95,2.38,3.37,1.11,5.63-.17.31-.56.43-.61.51Z" fill="#4980a6"/>
          <path d="M48.35,48.37c.13.05.49-.12.7.06.12.11.02.4.05.44.37.86.5,1.72.05,2.56l-.06,9.35c.4,1.87.65,3.48.51,5.64.52.53.65,2.36.25,3.01.52.36.6.96,0,1.25-.03,1.86-.44,3.82-.51,5.63-.11,2.96.1,5.95.01,8.91-.4,2.03-.53,2.45-2.51,3.01l-1.66.22c-.33.61-.4.6-.85.03-.38.7-.87.7-1.25,0-.45.58-.66.82-1,0-.06.37-.36.34-.9-.1l-4.37-.41c-.5,0-1,0-1.5,0-.22-.07-.22-.15,0-.25.48-.07.98-.16,1.5-.25l.61-.49,5.83.29c3.52.58,5.15-.52,4.89-3.33-.07-4.78.1-9.62.51-14.52-.74-6.81-1.38-13.34-.76-20.2l.46-.88Z" fill="#b43c30"/>
          <path d="M22.52,2.73c.17.48.37,1.19-.25,1-.41.1-.74-.23-1-1l-1.29,2.27-8.68,30.67-.57.16c-.02,1.08-1.38.58-.75-.25.9-3.61,1.88-7.2,2.88-10.78,1.69-6,3.57-14.93,5.95-20.38.33-.75,2.59-4.11,3.33-2.95.09.15.23.86.37,1.26Z" fill="#3174a3"/>
          <path d="M27.79,87.49c.14.02.27.06.39.12,1.06.56-1.61,3.43-2.33,3.92l.16.16c1.53-1.07,3.15-1.64,4.84-1.71-.32-.97-.25-1.64.2-1.99,1.16-.45,2.96-.39,4.26-.25v.25c-1.17.01-2.34,0-3.51,0,.96,3.79-.85,2.73-3.26,3.64-1.34.51-2.89,1.94-4.26,2.26-.78.18-3.98.45-3.15-1.13.28-.54,2.89-1.44,3.62-1.91,1.24-.8,2.23-1.86,2.54-3.36.16.02.34-.02.5,0Z" fill="#8e9b51"/>
          <path d="M17.51,24.29c-.29,1.82-.71,3.57-1.25,5.27.36.38-.06.81-.5.75-.08.67-.31.64-.5,0l-.19-.55c2.53-8.31,4.73-16.71,6.59-25.21l.62-.83c.02-.16.45-.6.25-1,.13.36.45.73.44,1.2-.91,6.77-4.26,13.68-5.46,20.37Z" fill="#5f829b"/>
          <path d="M42.09,88.49l.34.2c-.37,1.45-.07,2.55.91,3.31l.57.06c.22,1.81,4.94,4.56,2.95.85-1.4.21-2.12-.05-1.54-1.58l-1.11-1.45c-.35-.58-.61-1.1.13-1.39.73-.03,1.65-.46,2.51-.25-1.42.4-2.5-.1-1.25,1.63.86,1.2,2.28,1.69,2.65,3.37.66,3.05-.67,3.29-3.07,2.06-1.82-.93-1.47-1.47-2.42-2.73-.16-.22-.72-.34-.94-.68-.59-.89.14-3.13-.47-3.55l-4.53-.36c1.95.01,3.55.35,5.27.5Z" fill="#8f9a52"/>
          <path d="M35.82,5.23c.68-.14.76.03.25.5.72-.06.63.58.25,1,1.29.17,1.87,1.98.45,2.68l1.86.99c1.64,2.57,1.21-.61.79-1.99l.4-.43c-.34-.29-.49-.42,0-.5.11-.38.39-.38.75-.25.18-.55.56-.54.75,0-.09.6-.63,1.08-.7,1.69-.08.73.55,1.57.41,2.15-.05.21-1.12,1.54-1.39,1.64-1.1.4-1.48-1.72-2.72-1.96-1.83-.36-1.64,1.18-3.13,1.25v-2.01c.27-.43,1.46-3.09,1.59-3.57.15-.52.02-.73-.09-1.2.08-.67.31-.64.5,0Z" fill="#be9f87"/>
          <path d="M56.88,74.45c-.67,1.17-2.01.21-2.65-.49-.26-.28-.29-.73-.47-.92-.8-.83-2.24-1.77-2.9-2.61-.67.17-.93-.59-.5-1-.38-.16-.38-.59,0-.75l.75.05c1.29,1.64,2.72,3.11,4.28,4.4l-.46-1.86c.01-3.48.02-6.96.02-10.44l.43-.43c.07-.22.15-.22.25,0,.12,2.99-.04,6.4.25,9.4.15,1.51.8,3.01,1,4.64Z" fill="#cfae4b"/>
          <path d="M21.77,42.35c.07-.22.15-.22.25,0-.44.72-.52,1.83-.84,2.43-.48.92-2.1,2.73-2.93,3.59-.19.71-.69,1.21-1.5,1.5l-3.35,3.03c-.61-.14-1.24-.31-1.91-.52-1.35-.67-2.25-1.93-2.26-3.51.18-.76.75-.5.98.2,1.25,6.58,9.7-3.61,10.39-6.41,0-.67.23-1.11.67-1.32.27.01.44.35.5,1Z" fill="#cfad4b"/>
          <path d="M26.29,19.28l-.07.55c-1.5,1.23-2.85,2.64-4.07,4.22l-.88.25c.43.56.13.76-.5.5v.78c-1.36,1.57-2.58,3.23-3.72,4.96,2.84.49-.1,2.61-1.3,1.28-.64-.25-.5-1.2,0-1.5.04-.17.37-.54.5-.75.35-1.41,1.18-2.67,2.51-3.76,2.41-2.48,4.44-5.55,7.52-7.27.31.26.47.66,0,.75Z" fill="#b13a34"/>
          <path d="M53.37,50.88l.15.52c-.9.94-.8,1.66.28,2.16,1.04,3.47,2.23,3.25,3.58-.68.3.05.68-.04,1,0-.3.49-.18,1.07-.38,1.5-.57,1.24-1.2,2.24-2.38,3.01-1.56,1.16-2.92-1.53-3.01-3.01-.32.61-.44.66-.75,0-.37.64-.74.2-.96-.4-.27-.74.9-3.5,1.71-3.61.35.19.6.42.75.5Z" fill="#977f6d"/>
          <path d="M52.62,54.39c.79.25.84,1.6,1.25,2.14.5.66,1.61.75,1.76.87.48.39,0,1.43,0,1.5-.09.89-1.27.31-1.76,0-.41.6-1.12.18-1-.5-.48-.09-.96-.5-.75-1-.66-.35-.19-2.69.5-3.01Z" fill="#6bacd0"/>
          <path d="M39.33,2.73c.45.06.74.42,1.14.49,3.36.57,1.79-2.16,3.2-2.19,1.1-.03.54,1.32.68,2.09.09.51.42.5.5.62.64.24.68.29,0,.5-.34.43-.83.28-1.46-.43-1,.62-2.96.93-3.86.08-.45-.42-.74-.73-.19-1.16-.86.99-2.31,1.1-3.58.98.63.48.95,1.29.06,1.53h-.5c-.21-.91-.58-1.27-1-2.01-.93-1.34-1.1-2.26-.5-2.76.43,0,.67.32,1,.5.16.42.32.84.5,1.25.38.3,1.32.61,2.18.11.07-.81.18-1.52.33-2.11,1.87-.75.96.6,1.08,1.35.04.23.31.85.43,1.16Z" fill="#d1b152"/>
          <path d="M45.6,5.74c-.07.19-.2.76-.25,1-.82,1.74-1.06.69-2.41.52-.49-.06-1.11-.06-1.61-.02-.24.02-.52-.04-.75,0l-2-.2c-.99.31-1.45.3-2.27-.3-.4-.53-.15-.64-.25-1l.4-.55c2.5.61,5.05.98,7.64,1.12.24-.86.65-1.22,1.23-1.07.23-.07.32.1.25.5Z" fill="#ddb550"/>
          <path d="M7.98,40.85c.35-.33.5-.18.25.25.23.06.22.14,0,.25.42.17.44.36,0,.5-.51.1-.18.6,1,1.5-.04.71-.29,1.04-.75,1-.25-.07-.42.01-.5.25.4.37-.04.81-.5.75-.36-.28-.44-.28-.25,0,.41-.19.48-.14.25.25.25.66.08.74-.5.25-.37-.22-1.06-.28-1.22-.93-.18-.7.36-.92.38-1.2s-.55-.75-.41-1.23c.12-.41.82-.3.95-.45.16-.19-.06-.82.29-1.1.28-.22.82-.03,1.02-.11Z" fill="#a47d63"/>
          <path d="M10.74,35.83c.55-.07.89.1,1,.5.5-.5,1.27-.06,1.5.5.4-.85.74-1.02,1-.5.71.19.65.77,0,1-.26.4-.93.4-2.01,0-.75.62-2.55.03-3.26-.5-.21.55-.54.55-.75,0,.48.14.48.36,0,.5,0,.64-.16.97-.5,1-.35.35-2.1.48-2.51,0-.43-.17-.43-1.3,0-1.5,1.64-.78,1.46-.17,3.01,0,.09-.76,1.16-1.32,1.76-1.25.03,0,.11.3.25.34.27.08.48-.11.5-.09Z" fill="#caa24b"/>
          <path d="M16.76,49.87c-.71.93-1.47,2.2-2.76,2.68l-1.5,2.83c.02-.45.08-2.65-.02-2.74-.04-.03-.59-.07-.98-.27.65-.08,1.47.12,2.08,0,.2-.04,2.28-2.22,3.19-2.5Z" fill="#d2ccbb"/>
          <path d="M28.04,16.52c.96-.45,1.29-.2,1,.75,2.04-.1,2.91,5.93.29,3.1-.09-1.1-1.38-3.98-2.24-1.96l-.56.11c-.07.22-.15.22-.25,0,0-.12-.26-.35-.24-.63.06-.83,1.24-1.35,1.99-1.38Z" fill="#3888b9"/>
          <path d="M17.51,24.29c-.08.43-.37,2.35-.25,2.51l1.5-1c-.47,1.46-1.75,2.5-2.51,3.76-.45-.21-.12-.82-.03-1.16.34-1.33.77-2.85,1.29-4.11Z" fill="#ebe9e8"/>
          <path d="M44.84,3.73c1.55.6,1.83-1.06,2.42-1.22.81-.22,1.14.61.48,1.23-.43.4-1.08.35-1.33.55-.06.05-.77,1.31-.82,1.44-.24-.07-.24-.29-.25-.5-.65,0-.66-1.07-.2-.6l-.3-.4c-.03-.15.05-.42,0-.5Z" fill="#cdb86f"/>
          <path d="M8.48,46.36c.2.37.11.71-.26,1.02.5-.01.84.31,1.01.98.47.08.44.28,0,.5-1.23-.06-2.58-.1-2.26-1.87.15-.83.94-.58,0-1.14.21.01.37-.2.5-.25.17-.32.54-.67.75-.25.73-.14.86.65.25,1Z" fill="#daac51"/>
          <path d="M29.55,16.02c1.21-.14,3.28,1.07,2.76,2.26-.04.55-.06.57-.5.25l-.35.07c-.83-1.12-1.63-1.56-2.41-1.33-.45-.57.04-.79-1-.75.05-.09.23-.19.25-.25.44.02.84-.18,1.25-.25Z" fill="#5794c2"/>
          <path d="M37.82.22c.67,1.91-.45,3.45-2.44,2.43-.12-.06-.03-.4-.06-.43.07.08,1.64-.05,2.01,0,.11-.11-.1-1.46-.01-1.85.07-.31.39-.11.51-.16Z" fill="#f8edc3"/>
          <path d="M55.63,58.9c0,.5-.02,1.01,0,1.5h-.25c-.29.48-1.93-.94-1.93-1.07,0-.2.22-.35.43-.44h1.76Z" fill="#b6ab6f"/>
          <path d="M7.73,38.34c1.77-.96,1.42,2.94,1.23,3.04-.13.06-.55-.14-.73-.28-.01-.05-.2-.15-.25-.25.08-.03.82-.64.76-.88-.05-.2-.32-.09-.41-.21-.17-.24-.15-.67-.33-.8-.51-.37-1.96.06-2.61-.11-.28-.07-.13-.47-.17-.51.09.09,2.08-.06,2.51,0Z" fill="#f6eac8"/>
          <path d="M33.81.47c-.85,1.19.77,1.58.5,2.76-.33-.59-2.37-2.79-.5-2.76Z" fill="#d5bc7c"/>
          <path d="M5.22,36.83c.05.3-.08,1.42,0,1.5-.07-.07-.43.23-.52-.36-.19-1.3.07-.93.52-1.14Z" fill="#ebe0b6"/>
          <path d="M35.31,2.23c-.17-.17-.82.1-.5-1.25.01,0,.15-.24.25-.14.46.46.17,1.3.25,1.4Z" fill="#f6eabf"/>
          <path d="M26.29,35.33c.3.64.34,1.65,0,2.26-.64.08-.45,2.32-1,2.76-.06-.26.15-.97-.13-1-1.02-.13-.66.66-.94.95-.13.14-.41.02-.44.05l-.14-.41c.66-1.3,1.29-2.59,1.9-3.85,0-.29.09-.54.25-.75,0-.47.5-.47.5,0Z" fill="#edc1c0"/>
          <path d="M25.53,36.08c-.51,1.54-1,2.81-1.76,4.26-.41.42-1.5,1.59-1.76,2.01h-.25c-.25-.49-.25-.82,0-1,.2-.67.53-.92,1-.75.16-1.18.58-1.77,1.25-1.76.11-.98.36-1.73.75-2.26.12-.54.29-.96.5-1.25.41-.64.41.24.25.75Z" fill="#aa3f39"/>
          <path d="M19.26,58.9s-.09.46.07.67c.21.28.86.41.9,1,.1,1.2-2.21.09-2.25-.06-.18-.73.74-2.12,1.27-1.61Z" fill="#6a6a6a"/>
          <path d="M20.56,51.09c-.67-1.1,1.83-1.76,1.96-1.08.24,1.22-1.53,1.8-1.96,1.08Z" fill="#67696b"/>
          <path d="M15.68,53.17c1.94-.56.72,1.92-.29,1.72-.59-.12-.53-1.48.29-1.72Z" fill="#6c6d6d"/>
          <path d="M23.03,44.35c-.15-.47.08-1.98.63-2s.75,2.46-.63,2Z" fill="#6c6e6e"/>
          <path d="M18.51,66.17c-1.26.11-1.28-.86-.37-1.5.95.14.53.88.37,1.5Z" fill="#656565"/>
          <path d="M14,61.66c.25.29.46.18.75,0,.5.32.38,2.16-.37,2-.59-.22-1-1.78-.38-2Z" fill="#919191"/>
          <path d="M18.26,48.37c.2,1.48-.68,1.25-1.5,1.5.58-.76.99-.96,1.5-1.5Z" fill="#dbd0ab"/>
          <path d="M14.75,61.66l-.13,1.51c-.77-.02-.66-.99-.62-1.51.17-.06.52.04.75,0Z" fill="#565656"/>
          <path d="M48.61,17.52c.53.57.58,1.1-.25,1.25.74.71.22,2.64-.75,2.51-1.36,1.26-4.16.22-4.01-1.5-.62.32-.83.12-.5-.5-.91.5-1.28,0-1.25-1-.35.34-.8.57-1,0-.86-.73.6-1.01,1-1,.46.44,2.78,2.77,3.01,2.88.84.38,3.24.28,3.01-.97-.14-.78-1.08-1.49-1.51-2.16,1.02-.13,1.44,0,2.26.5Z" fill="#77b3dd"/>
          <path d="M41.08,16.27c-.04.15.05.39,0,.5.12.21.27.58.15.67-1.45.96-3.39,1.58-4.91.84-.1-.44-.04-.95.5-1,.28-.73.95-1.24,2.01-1.5.11-1.04,2.66-.67,2.26.5Z" fill="#f6cf3c"/>
          <path d="M36.82,16.27c.14-.84.39-.39,1.06-.83.28-.19.45-.55.53-.59.2-.1,1.68-.62,1.79-.61.17,0,1.12,1.11,1.14,1.2.1.48-.2.63-.26.83-.26-.72-1.57-.56-2.26-.5-.84.57-1.51.74-2.01.5Z" fill="#edd5b7"/>
          <path d="M41.08,16.77c1.02-.22.68.43.75.5.24.99-1.15,0-1,1,.11.69-1.42,1-1.76.5-1.47.73-2.55.73-3.26,0-.47-.15-.51-.4,0-.5.08-.67.31-.64.5,0,.77,0,2.21.15,2.83,0,.17-.04.17-.37.26-.41.56-.23,1.34-.34,1.67-1.09Z" fill="#afba7b"/>
          <path d="M29.55,16.02s.15-.24.37-.24c.49,0,1.35.72,2.1.53.49,1.68,1.28,1.47,2.8,1.47.66.08.63.31,0,.5-.84.33-1.59.33-2.26,0-.03.23-.11.22-.25,0-.54-1.35-1.34-1.93-2.76-2.26Z" fill="#9dc4e3"/>
          <path d="M38.83,15.77l-2.01,1.5c-.46-.1-.4-.28,0-.5.01-.16-.03-.35,0-.5.78-.13,1.14-.42,2.01-.5Z" fill="#e4cc75"/>
          <path d="M36.82,16.77c-.01.16.02.34,0,.5-.06.5.11.73-.5,1h-.5c-.67-.08-.64-.31,0-.5.07-.44.45-.99,1-1Z" fill="#e5cd82"/>
          <path d="M35.82,17.77c-.02.15,0,.34,0,.5v.5c-.41.71-.98.09-1-.5v-.5c.33,0,.67,0,1,0Z" fill="#b3c1b2"/>
          <path d="M18.76,72.19c-.76-.45-.59-1.2.5-2.26,1.06-.67,3.04,2.29-.5,2.26Z" fill="#636466"/>
          <path d="M14.75,72.44c-.15.14-.23.51-.38.51-.93-.02-.9-2.58-.12-2.76,1.59.09,1.26,1.31.5,2.26Z" fill="#5e5e5e"/>
          <path d="M20.52,75.96c.61.59-1.08,1.41-1.5,1-.61-.59,1.08-1.41,1.5-1Z" fill="#717373"/>
          <path d="M18.76,72.19c-.39,0-1.25-.69-1-1,.79-.05.82-.99,1.5-1.26-.1.07-1.1,1.96-.5,2.26Z" fill="#d3d3d3"/>
          <path d="M14.75,72.44c.54-1.2.97-1.66-.5-2.26,1.59-.39,1.67,1.19.5,2.26Z" fill="#a0a0a0"/>
          <path d="M51.05,78.26c.14-.01.27-.07.41-.03.43.11.53,2.38.02,2.5-1.19-.52-2.56-2.26-.43-2.46Z" fill="#666a69"/>
          <path d="M52.79,74.25c.49-.15,1.01-.14,1.31.32-.7,2.61-3.18.23-1.31-.32Z" fill="#5d6162"/>
          <path d="M50.36,69.43c.02.12.45.94.5,1l-1,.25c0-.42-.01-.84,0-1.25.08-.67.31-.64.5,0Z" fill="#ebc0a6"/>
          <path d="M46.35,47.37c.43-.04.67.15,1,.5.21.07.67.37,1,.5.24,3.28-.33,6.6-.26,9.92s.84,6.51,1.03,9.76c.2,3.43-.37,6.87-.52,10.28-.08,1.84.57,8.02-.85,8.93-.39.25-1.31.4-1.8.45-2.62.29-6.32-.19-9.12-.22-.19.11-.36.18-.5,0l-7.84-.57c-2.08-.55-4.02-.55-5.71-1.94.24-.42.54-.83,1-1,.36-1,1.16.03,1.45.75.12.1.42-3.11-.82-2.31l-.39-.45c-.67-1.12,2.22-2.65,3.3-1.59.36-.62.97-1.59,1.47-.66.44.4.42,1.11-.07,2.13-.25,2.1.83,1.09,1.54-.15-.25-.68-.49-1.34-.72-1.98-.28-3.42-.09-6.96.75-10.28.35-.52.8-.39,1.36.39,3.37-3.67,4.34,1.52,4.02,4.36-2.46,3.6-2.28,4.5.54,2.69.31-1.24.92-1,1.84-.46,1.37-.84,2.08-.64,2.13.59.25.14.47.29.65.45.47.05.42.28,0,.5l.28.08c.18.96,1.25,2.25,2.23,1.43-.75-.27-.13-1.53.5-1.5.1-.3.27-.63.5-1,.06-.32.11-.59.27-.32-.11-5.75-.04-11.49.23-17.24.58.02.7,2.15.69,2.04l-1.19-8.06c-.42-1.04-.4-2.47,0-3.51-.68-.1-.62-.25,0-.5.2-.79,1.11-2.92,2.01-2.01Z" fill="#ef4e2d"/>
          <path d="M26.29,37.59c-.19-.43,1.8.27,1.89.35.22.19,1.09,2.37.62,2.66-1.17,10.55-1.92,20.91-2.26,31.1.19.37.4.1.65-.81l.14-2.66c.09-1.73,2.33-1.92,2.22-.29.12.1.23.21.3.33.21.36-.19,6.18-.41,6.94-.03.11-.2.18-.4.25l-.34-.09c.11-2.09-.75-2.84-2.59-2.24-.83-.49-1.55-1.27-2.14-2.34.54,1.9.29,2.98-.75,3.23-.08.63-.26,1.05-.96.94,1.04-11.18,2.18-22.33,3.54-33.45.2-1.62.52-2.09.48-3.91Z" fill="#ee4b2b"/>
          <path d="M22.27,74.95c.63-.67.5-1.67.5-2.51l1,1.25c-.03-1.43-.42-2.96-.51-4.38-.02-.29-.18-1.39.26-1.39,0,1.63.73,2.41,1.62,3.52.22.27.26.74.45.92.58.58,1.51-.04,2.26.11,1.45.27,1.15,1.9,1.19,2.97.13.03.25.08.34.15.15.12.13,3.45-.34,3.61.1.58.01.75-.25.5-.76-.09-.94,1.16-1.41,1.24-.31.05-.62-.6-1.41-.45-.49.09-1.71,1-1.94,1.47.42.56.49,1.72-.25,2.01-.08.76-.03,1.07-1,1-.28-.23-1-.79-1-1.13v-5.27c0-.82.4-2.58.5-3.64Z" fill="#f54f2d"/>
          <path d="M29.3,87.49c.78.04,1.36.21,1.76.5.06.46.46,2.3.25,2.51-.06.06-1.36-.03-1.82.06-.95.19-3.18,1.72-3.53,1.65-.25-.05-.71-.53-.65-.81.07-.31,3.19-2.42,2.49-3.91.48.05,1.01-.02,1.5,0Z" fill="#b3bf3a"/>
          <path d="M36.32,87.49c.17,0,.33,0,.5,0-.27.42-1.03.24-1.5.25-1.39.02-3.07.25-4.26.25-.13,0-1.52-.35-1.76-.5,2.33.09,4.69-.04,7.02,0Z" fill="#984931"/>
          <path d="M55.88,32.32c1.02,3.32,2.92,8.47,2.13,11.79-.24,1.01-.58,1.27-.63,2.51-.27.14-.27.39,0,.75.11.81.48,1.28.75,2.01-.13.36.03.7.5,1,.59,4.18-3.54.31-4.93-.46-1.97-1.09-4.3-1.69-6.1-2.8l-.09-.33c.37,0,.48-.23.34-.67l-.35-.02c-1.5-1.68-2.88-3.46-4.16-5.33-.51-.5-1.36-1.26-1.26-.42h-.25c-.97-.12-2.39-1.37-3.21-2.12-.93-.85-3.26-3.63-3.54-4.72l.24-.68c.36-.55,1.57,0,2.06.46,1.92,2.11,3.31,3.34,6.22,2.38l3.99-1.74c2.78-.32,5.43-1,7.96-2.04l.33.44Z" fill="#63b2e6"/>
          <path d="M31.8,18.53c.3-.15.54.02.69.51l.96,2.69c.84,4.64,2.57,3.8,5.01.48.66-.28,1.33-.53,2.03-.75.75-1.2,1.85-1.59,3.09-1.68,1.51,1.42,1.41,1.82,4.01,1.5.08.23.17.4.19.38.81-.74,1.2-1.95.56-2.89.04-.39.28-.82.25-1.25.84.52,1.34,1.33,2.01,2.01q-1.35,1.53,0,0c.78.79,1.79,1.41,2.26,2.51.05.17.07.32,0,.39-1.3,1.37-3.63,2.78-5.45,3.34-2.2,1.66-4.37,3.37-6.5,5.13-1.27.78-3.02.64-4.46-.02-1.08-.5-2.71-1.48-3.16-2.58-1.14.37-2.3-1.7-2.84-2.67-.88-2.37-1.85-4.58-3.77-6.28-.17-.26-.34-.55-.16-.83.63-2.17,2.12-1.42,2.88.25.32.69.19,2.01,1.13,2,.05-1.42-.71-2.5-1.5-3.51-.15-.71.4-.57.86-.49,1.05.19,1.38.91,1.9,1.74Z" fill="#64b3e7"/>
          <path d="M53.62,22.79c1.09,2.29.1,2.48.31,4.57.08.82,1.02,3.23,1.45,3.96,0,.22,0,.51-.17.58-2.53,1.12-4.77,1.75-7.52,1.99l-4.05,1.76c-2.69,1.15-4.61-.47-6.28-2.38-.53-.44-1.48-.95-2.05-.44-.95-.54-1.46-1.97-1.25-3.01.12-.17.27-.26.42-.17,2.93,1.8,4.62,2.73,7.77.39,2.16-2.45,4.7-4.21,7.63-5.29l2.12-1.73c.8-.72,1.34-.79,1.61-.22Z" fill="#65b1e5"/>
          <path d="M53.62,22.79c-1.63,0-2.23,1.45-3.28,2.11-.91.57-2.29.81-3.32,1.44-2.4,1.48-4.24,4.69-7.19,5.23-.23,2.3,4.44.33,3.98,2.09-.36,1.39-3,.02-3.98.67.47-.54-.38-2.39-.74-2.64s-1.58-.05-2.27-.23c-.39-.1-2.45-1.44-2.75-1.64-.09.22-.17.22-.25,0-.55.21-1.61-1.43-.5-1.5.81.54,1,.75,1.7,1.26,5.7,4.21,7.43-1.08,11.36-3.63.93-.6,1.91-.7,2.82-1.19,1.19-.63,2.39-1.93,3.68-2.71.16-.1.32-.2.5-.25-.01.36.1.68.25,1.01Z" fill="#3183bc"/>
          <path d="M52.62,50.37c-.16,1.04-1.2,2.14-1.25,3.17-.04.73.47.77.5.84.13.03.25.07.33.15.11.11-.44,2.95-.84,2.86.14.21-.03.54-.5,1-.22.45-.39,1.2-.5,2.26-.07.5-.25.68-.27.23.02,2.54-.78,2.84-.98.02-.08-1.09-.19-9.51.06-9.93.35-.57.62.14.69.65.14-.17.15-.34,0-.5-.54-.16-.54-1.73-.5-2.26,1.76.4,1.81.71,3.26,1.5Z" fill="#d0d0d3"/>
          <path d="M57.38,52.88c.9,1.06-1.51,4-2.35,3.75-1.08-.33-1.23-4.12-2.91-2.99-.22-.25.74-2.53,1.25-2.76.81.44,3.3,1.88,4.01,2.01Z" fill="#e2b48c"/>
          <path d="M58.64,50.37c-1.12.19-2.02-.57-3.01-.87-.78-.24-2.39-.4-3.01-.75-.68-.39.56-.6.5-.75-1.35-1.6-3.34-2.49-4.64-4.14-1.07-1.35-1.68-3.05-2.88-4.4-.95-1.08-1.76-1.59-3.01-2.25-.1-.63.42-.38.76-.26,3.89,1.41,4.35,6.57,7.76,8.41l-.5-2.26c.59-.65,1.23,2.44,1.4,2.74.42.74,2.56,2.5,3.36,2.91.49.25,2.26,1.01,2.76.62.11.28.45.62.5,1Z" fill="#3082bc"/>
          <path d="M55.38,31.32c.21.36.1-.3.5,1-1.73-.2-3.02,1.1-4.7,1.45-1.05.22-2.15.13-3.33.43-3.51.91-5.36,3.8-9.15.87-.64-.49-1.27-1.49-1.91-1.85-.46-.26-1.43-.34-1.49-.4-.37-.34.03-.47.38-.51,1.86-.22,3.22,2.65,4.65,3.13,2.95.99,5.19-1.45,7.75-2.01,1.2-.26,2.42-.16,3.73-.54,1.12-.32,2.49-1.06,3.56-1.58Z" fill="#3081ba"/>
          <path d="M35.31,32.82c2.05,4.66,3.26,4.42,6.52,7.52,1.11.73,2.01,1.79,2.69,3.17,1.03.99,1.81,2.03,2.33,3.1v.25c-.05.78-.34.47-.75,0-.67.33-1.56-.52-1.25-1.25-.43-.25-.76-.67-1-1.25-.8,0-.99-.3-.75-1-.48.03-.6-.17-.25-.5-.89-1.13-1.89-2.05-3.01-2.76-.58.03-1.28-.98-1.5-1.5-1.41-1.21-3.03-2.65-3.51-4.51-.39.19-.47.02-.25-.5-.85.09-1.45-2.34-1-3.01-.23-.62-.15-.87.25-.75.05.04.19-.04.25,0,.38,1.02.82,2.01,1.25,3.01Z" fill="#587985"/>
          <path d="M49.36,48.87v.33c.79.29.5,1.15.5,1.92.48.14.48.36,0,.5-.23-.07-.14-.6-.5-.5v11.28c1,.25.24-1.38.52-1.74.07-.1.39.03.48-.01.43.99.28,2.49-.23,3.5.02.95-.16,1.71-.53,2.27l-.76-5.63c0-3.99-.03-7.95.26-11.92.02.03.16-.02.25,0Z" fill="#e5c5c3"/>
          <path d="M57.38,46.61c0,.23-.03.53,0,.75-1.36-.44-3.7-1.95-4.64-3-1.28-1.44-1.55-3.86-2.66-5.36-.42-.56-1.05-.66-1.22-1.29.61-.45,1.55.7,1.87,1.14,1.03,1.45,1.24,3.43,2.27,4.75.85,1.09,3.07,2.61,4.39,3Z" fill="#3283ba"/>
          <path d="M42.09,40.34c.66-.28,1.31.15,1.95,1.28.68,1.37,1.65,2.56,2.91,3.57.34.78.64,1.09.91.92.26.57.54.59-.25,1-.25-.16-.51-.32-.75-.5-2.11-1.58-3.17-4.51-5.02-6.27h.25Z" fill="#59a7dd"/>
          <path d="M46.85,46.86l.5,1c-.84-.26-.56.45-1-.5-.48.16-.58-.1-.25-.5h.75Z" fill="#a75e5b"/>
          <path d="M44.34,88.49c-.21,1.05,1.36,2.24,1.47,2.68.1.39-.36,1.14-.21,1.33.05.07,1.34-.28,1.71.04.09.08.57,2.16.52,2.31-.34,1.2-2.5-.52-3.12-.58-.74-.56-1-1.46-1.37-2.27-.47-.33-1.22-1.04-.75-1.5.26-.33.34-.74.25-1.25-.65-.23-.42-.7.25-.75.41.01.84.02,1.25,0Z" fill="#b1be3b"/>
          <path d="M50.86,60.41c.83.63.84,3.29-.05,3.94l.04,4.02-.49.31c.01.25-.04.52,0,.75h-.5c.03-1.07-.3-1.96-.25-3.01.08-1.8.67-3.63.75-5.77.11-.45.17-.63.5-.25Z" fill="#dda966"/>
          <path d="M43.09,88.49c-.34.17-.18.53-.25.75.11.43.13,1.02-.25,1.25.05.26.56,1.09.75,1.5-1.78-.36-1.18-2.18-1.25-3.51.07,0,.76,0,1,0Z" fill="#a9b555"/>
          <path d="M21.27,2.73c.09-.06.03-.38.5-.25l.5,1.25c-1.01,7.7-4.81,18.79-7.02,26.58.35.44.24,1.53-.5,1.5-.14,1.86-.64,3.53-1.5,5.02-.96.03-.93-.3-1.5-.5-.19-.05-.47-.19-.43-.3,2.46-9.27,5.22-18.72,7.94-27.99.34-1.98,1.02-3.75,2.03-5.31Z" fill="#b5d3ec"/>
          <path d="M11.74,36.33c-.17-.06-.57.09-.83,0-.28-.09-.15-.48-.18-.5L19.5,4.85c.26-.88,1.01-1.64,1.77-2.12l-9.53,33.6Z" fill="#6bafdf"/>
          <path d="M23.46,92.58c.06.03.04.35.25.42.32.1.88-.22.82.25-.7-.05-2.34.7-2.75-.13-.27-.54,1.27-.74,1.69-.54Z" fill="#a2b557"/>
          <path d="M15.75,30.31c-.09.42.06,1.04,0,1.5.72.25.17,1.96-.5,2.01-.14.48-.36.48-.5,0-.29-.43-.29-1.1,0-2.01.15-.52.37-1.05.5-1.5h.5Z" fill="#8a5762"/>
          <path d="M39.33,2.73c.53,1.39,1.74,1.28,3.11.98.44-.1.85-.55,1.26-.5.1.01.26.68,1.15,1.02.12.05.44-.07.5,0,.07.09-.01.75,0,1-1.07,1.09-.27,1.92-2.37,1.49-1.97-.4-2.93-.28-4.76-.5-.65-.08-1.32-.73-2.15-.49-.06-.23-.21-.38-.25-.5-.06-.18.08-.54,0-.82-.07-.21-.43-.18-.49-.36-.4-1.37,1.08-.68,2.11-.84.64-.1.86-.63,1.89-.49Z" fill="#f4c831"/>
          <path d="M36.32,6.74c1.13.03,2.27-.04,3.4,0,.48.02,1.01-.26.87.5-.17.03.18.46-.75.25-.2.05-.2.21,0,.5.31,1.01.24,1.88.71,2.85-.02.09-1.01,1.38-1.09,1.42-.48.23-.7-1.39-1.25-1.51l-2.13-1.13c-.14-.59,1.57-.97,1-1.63-.2-.23-1.16.68-1.27.86-.44.77,0,1.63-1.24,1.9-.13-.17.84-2.85,1.04-2.96.06-.04.91.4,1.21-.44.17-.47-.29-.35-.49-.61Z" fill="#eebe94"/>
          <path d="M39.83,7.49c.03.16-.04.37,0,.5-1.01-.65-1.06.27-1.12.25-1.34-.26-1.13-1.25,1.12-.75Z" fill="#ca9a71"/>
          <path d="M50.86,58.4c.42-.95,1.09-.95,2.01,0,.17.06.92.43,1,.5.05.05-.19.71.96.54-.1.47.53.91.55.96.57,2.38-.28,7.56,0,10.4.23,2.27,2.13,5.17-1.73,1.48-1.09-1.04-2.17-2.54-3.29-3.61-.07-1.18-.16-3.31-.02-4.41.06-.48.48-.24.54-.72.12-.92-.06-2.16-.02-3.15-.4-.32-.48-1.72,0-2.01Z" fill="#f0c533"/>
          <path d="M15.25,34.33c.79-.4,2.27.74,2.54,1.66l2.98,4.36c.36.21.86.71.5,1,.06,3.36-3.6,6.88-6.12,8.92-1.48,1.19-3.3,2.76-4.83.53-.04-.06-.51-.98-.57-1.12-.25-.53.42-.76-.51-.81,0-.17-.01-.34,0-.5-.79-.56-.24-1.71.32-2.32.57-1.16,1.05-2.31,1.43-3.45l.15-.58c.86-.23,1.05-.69,1.36-1.43-.58-.73.62-.96,1.25-.55,2.08,2.27,2.14.43.37-.88.12-.59.16-1.2.13-1.83-.06-.2,0-.72,0-1,.21-.6.44-1.25.69-1.96l.31-.05Z" fill="#f1c92d"/>
          <path d="M19.77,38.34c1.33-.77,2.07,1.26,1.87,2.06l.14.45c.46.1.39.27,0,.5-.02.33.01.67,0,1-.25-.28-.35-.67-.5-1s-.34-.67-.5-1c-.63-.66-.97-1.33-1-2.01Z" fill="#e16920"/>
          <path d="M26.29,19.28c.54.09,1.95,1.22,1.25,1.76-.39.56-.39.65,0,.25.6-.42.91.03,1.23.55,1.02,2.54,1.83,4.05,3.49,6.18.14.18,0,.41-.2.54-.02.67-.06,1.36-.12,2.03,0,.08-.1-1.64.37-1.53.74-.47,1.29.81,1.25,1.5.39.75.72,2.42,1,3.01l.03.53c-.51.51-3.3.53-4.04.22-.27-.19-.44-.19-.5,0-1,.27-2.4.5-3.26,0-.56-.38-.82-1.13-.78-2.24.21,1.15.05,1.9-.47,2.24.72.02.06.7-.25,1-.1.66-.28.62-.5,0l-.24-.18c.05.78-.13,2.49-.52,3.7-.31.48-.88,1.23-1.25,1.76-.36-.26-.69-.17-1,.25-.9.14-.34-.84-.58-1.44-.03-.08-1.16-1.1-1.43-1.07l-.34-.04c-1.03-2.03-2.42-3.52-4.17-4.47.13-1.17.44-1.52.5-2.01l2.01-.25c.2-.87-.85-.4-1.36-.5-.56-.64.21-.71.35-.94,1.33-2.1,2.43-3.45,4.02-5.33.49-.01.65-.18.5-.5,1.18-1.34,2.26-2.73,3.63-4.02.33-.31.93-.92,1.38-.99Z" fill="#f04d2a"/>
          <path d="M26.54,18.53c.48.87,1.75,1.68,2.25,2.44,1.54,2.36,1.66,5.45,4.52,7.34-.23.28.34,1.38.5,1.5l-.25.75c-.31-.6-.73-1.08-1.25-1.5-.44.23-.37-.09-.25-.5-.37-.88-.95-.99-1.42-1.71-1.22-1.84-1.25-4.33-3.09-5.56-.22-.06-.21-.15,0-.25-.19-.89-1-.84-1.25-1.76-.05-.18.02-.52,0-.75h.25Z" fill="#8f596a"/>
          <path d="M21.27,24.29c2.32,1.28,1.32,2.12-.5.5.28-.33.43-.42.5-.5Z" fill="#c82d15"/>
          <path d="M52.62,54.39c-.29,1-.65,1.93-.5,3.01-.06.5-.51.32-.75,0,.09-.45.56-2.87.5-3.01.23.04.57-.06.75,0Z" fill="#4b7da5"/>
          <path d="M52.12,57.4c.13.05.82.72.75,1-.18-.06-.57.08-.83,0-.21-.06-.15-.85-.67-.5-.06.04.18.18-.51.49.08-.57.48-.92.5-1,.22.04.59-.06.75,0Z" fill="#829d83"/>
          <path d="M8.23,37.33c.23-.52,1.78.93,1.68,1.32-.74.67-.69,2.07-.43,2.94.26.31.15.48-.25.5-.35.23-.8-.43-1-.75,0-.08.02-.17,0-.25.97.12.83-1.68.52-2.1-.19-.25-.6-.08-1.02-.66-.06-.09.16-.44-.15-.51-.37-.09-1.76.12-1.86.01-.64-1.15,1.99-.74,2.51-.5Z" fill="#e9b34e"/>
          <path d="M9.23,42.1c1.73-.12.29,4.11-1,3.26-.24.16-.52.16-.75.25-.1-.06-.17-.22-.25-.25.07-.22.15-.22.25,0,.23-.2.3-.54.5-.75-.1-.69.02-.72.5-.25.45-.47-.47-.64.75-1-.5-.27-1.31-.96-1-1.5,0-.17.01-.34,0-.5.48-.01.75.4,1,.75Z" fill="#ab7b36"/>
          <path d="M8.48,44.36c-.1.1-.4.15-.5.25-.22-.22-1.87-1.42-1.5-1.75.92-.1,1.52.88,2,1.5Z" fill="#e0b394"/>
          <path d="M8.23,41.85c.25.2,1.08,1.21,1,1.5-1.35.29-2.46-2.68-1-1.5Z" fill="#e1b08a"/>
          <path d="M7.48,45.36h-.25c-.57-.26-1.38-.42-.63-1,.43.28.91.4.88,1Z" fill="#daa98d"/>
          <path d="M8.98,36.83c.98.48,2.09.83,3.34,1.05l-.08-.55h2.01s.4.14.47.42c.12.48-.29.98-.11,1.33.21.42,1.95.94,1.03,2.27-.73,1.06-1.83-.83-2.33-.99s-.77.23-.81.22c-.28.69-1.25.3-1.5-.25-.21-.05-.43-.15-.47-.35-.43-1.74-.68.57-.28,1.1.57.34.41.55-.25.5-.14.65-.27.6-.5,0-.95-.42.04-2.39-.08-3.15-.01-.08-1.1-1.08-1.17-1.11.01-.16-.02-.34,0-.5.24.03.51-.03.75,0Z" fill="#de9f23"/>
          <path d="M12.24,37.33c.31.1,1.75.65,1.75.88-.27.37-.41.39-.85.37-.51-.03-2.71-.73-3.32-.95-.46-.17-.88-.07-.84-.79,1.06.15,2.23.19,3.26.5Z" fill="#f9bc36"/>
          <path d="M14.75,33.82c.29.55-.19,1.91-.5,2.51-.73.12-.34.48-1,.5.22-1.75,1.03-3.35,1.5-5.02-.06.64.09,1.39,0,2.01Z" fill="#708076"/>
          <path d="M10.99,42.6c0,.68-.16,1.36-.39,1.99-.51,1.41-1.26,2.11-1.37,3.77l-1.26-.13.75-.37c-1.73.16-1.11-.71-.25-1.51l.02-.56c.88-.52,1.51-1.85,1.53-2.91l.46-.29c.15-.48.37-.48.5,0Z" fill="#e5b126"/>
          <path d="M9.99,41.6c.69-.3,1.1.59.5,1,.05.64-.84,2.89-1.34,3.44-.18.2-.55.22-.67.32l-.25-1c1.25-.84,1.94-1.95,1-3.26,0-.25-.04-.4.25-.5.08-.03.48-.02.5,0Z" fill="#f0be47"/>
          <path d="M32.3,18.28c.08,0,.17,0,.25,0,.41.09.6.16.25.5,1.38,1.07,1.86,3.44,2.01,5.18.11.29,1.15.04,1.31-.29.95-1.62,2.2-2.55,3.73-2.8.83-1.19,1.79-1.78,3.23-1.59.18.17.33.34.5.5-.43.61-1.29.42-1.85.78-.42.27-.54.89-1.06,1.2s-1.22.27-1.84.66c-1.24.78-2.38,4.13-4.52,2.49-.66-.5-1.57-4.89-2.51-6.39.08-.25.29-.23.5-.25Z" fill="#3284bf"/>
          <path d="M26.79,35.33c.41.18.54.7.4,1.58,2,.43,4.09.51,6.13.5-1.89-1.88.6-3.24,1.99-1.59.47-.12,1.01.69.5,1,.31.32.65.66,1,1,.16-.86,1.3.31.5.5-.86.83-2.64.46-3.45.15l-.45.35c-.66-.21-.53.21.39,1.26.47-.22.8-.26,1.66.06l1.21.02c.01.43.31.57.9.43.07-.73,1.9-.76,2.26-.25,1.13.38,2.14,1.21,3.01,2.51.1.15.16.34.25.5-1,.55-2.57,1.06-3.55,1.21-1.82.12-3.47.02-5.23-.45-.39.42-.81.33-1.25-.25-.11,2.66-.19,5.33-.25,8.02.83.25-.02,2.06-.38,2.7s-1.53,1.1-2.11.89c-.89-.33-1.97-3.6-.52-3.46-.2-.05-.49-.14-.5-.29-.2-1.96-.21-6.43.02-8.37.02-.18.28-.29.48-.37-.3-.65-.53-1.39-.75-2.13-.34.35-.5.2-.25-.25-.51-.74-.91-2.27-1.06-2.45-.06-.07-1.37-.57-1.45-.56-.02-.75.01-1.51,0-2.26.16-.35.37-.36.5,0Z" fill="#f3c32e"/>
          <path d="M34.81,34.07c.11.21.11.38,0,.5l-.2.38c-2.43.19-4.85.38-7.27.57l-.56-.19c-.13.03-.34,0-.5,0-.03,0-.26-.29-.5,0-.55-.37-.22-.7,1-1,1.08,0,2.18.04,3.26,0,.08-.48.27-.45.5,0,.98-.04,2.19-.12,3.16-.24.49-.06.61,0,.86-.52.08.17.17.33.25.5Z" fill="#e27d26"/>
          <path d="M26.79,34.33c.01.17,0,.34,0,.5-.25.06-.88-.08-1.01,0-.05.04.04.39,0,.5-.08.26-.17.5-.25.75-.03-.49.19-.68-.25-.75-.04.31.08,1.15,0,1.26-.04.05-.47-.05-.5,0-.38-.4-.36-.84,0-1.25.16.02.34-.02.5,0,.05-.39.25-.93.25-1,.02-.75,1.12-.69,1.25,0Z" fill="#b93d36"/>
          <path d="M22.78,40.59c-.19.27-.68.86-1,.75,0-.16-.02-.34,0-.5.28-2.39.65-4.11.5-6.64-.04-.65-.18-2.8-.3-3.21-.19-.64-.86-.72-1.45-.68.05-1.07,1.08-.92,1.65-.27,1.01,1.17.39,4.13.87,5.65l-.26,4.9Z" fill="#d12e19"/>
          <path d="M24.78,35.33c0,.42,0,.84,0,1.25-.07.11-.26,1.5-.75,2.26.07-1.48.36-2.9.26-4.4-.02-.33-.8-3.38,0-2.75.54,1.1.5,2.42.5,3.64Z" fill="#ca2717"/>
          <path d="M41.83,18.28c.88.12.29.28.56.68.14.2.56.19.69.32-.33.75-1.24.39-1.86.78-.45.28-.55,1.01-1.22,1.29-.46.2-1,.12-1.43.32-1.23.58-1.74,2.97-3.39,2.9-1.25-.06-.73-.91-.99-1.79-.39-1.33-.88-2.71-1.39-4,.21-.4.81-.4,1,0,.21-.15.42-.11.59.1,1.25,3.51,2.42,3.87,3.5,1.1,1.15-.73,2.46-1.29,3.93-1.7Z" fill="#65b4eb"/>
          <path d="M40.83,18.28c.22-.04.76-.03,1,0-.6,1.47-2.47.84-3.51,1.63-.69.53-.75,2.28-1.89,2.39-1.37.13-1.56-2.81-2.62-3.52-.06-.16-.1-.28-.07-.31,1.17-.79,2.27,1.58,2.63,2.42.6-1.3,1.5-2.01,2.71-2.11.08-.04,1.58-.47,1.76-.5Z" fill="#3384bc"/>
          <path d="M48.35,18.78c1.8.55-.09,3.14-.87,3.77-1.29,1.04-3.19,1.21-4.13,1.89-.09.06-1.91,2.23-1.23.52.58-1.45,3.98-1.71,5.48-3.68.98-1.29.6-.99.75-2.51Z" fill="#3183bb"/>
          <path d="M34.81,18.28c.08.02.11.4,1,.5,1.02.12,2.21-.08,3.26,0-1.55.67-1.44,1.39-2.25,2.38-1.02,1.26-1.51-2.1-2.29-2.61-.32-.21-.63.21-.72.23-.31.05-.68-.03-1,0-.05-.13-.26-.29-.25-.5.52-.02,1.89-.11,2.26,0Z" fill="#6cb5e5"/>
          <path d="M29.04,40.85c.44.61,1.04.59.99,1.61-.01.23-.24.44-.24.52v9.03c0,.08-.22.26-.21.49.02.93.33,2.78,1.58,2.66.84-.08,1.48-2.53,1.64-3.28.06-2.68.15-5.35.25-8.02.35-.39.64.02,1.25.25,1.74-.12,2.62,1.09,3.01,2.51.14,8.26-.29,17.89-1.23,26.69l.23-.11c.74-1.2,1.72-2.2,2.95-2.99.19-1.79.21-3.6.06-5.41l.5-.37c.08-.67.31-.64.5,0,.56,1.65.57,3.63,0,5.27.39.14.37,2.48.25,2.7-2.02.67-2.52,1.9-.12,2.63,0,.88.13,1.53.37,1.94.48.08.45.27,0,.5-1.18.1-.93-.92-1.01-.99-.38-.35-1.48.49-1.88.48-.36,0-.9-.73-1.12-.5-.1.1.21.79-1.08,1.3-5.19,2.06-.21-3.41-.19-4.69-.62-1.1-.14-2.75-1.15-3.61-1.5-1.28-2.09.81-2.73.91-.58.09-.73-1.04-1.38-.94-.15-.36-.27-.72-.25-1.07.2-3.7.44-7.74,1.51-11.22q.47.59,0,0c-.2-.23-.4-.25-.43,0-.39,3.57-.74,7.19-1.06,10.71-.11.19-.29.2-.52.08-.27-.26-1-.93-1.38-.51-.99,1.11.45,4-1.51,4.77-.25.01-.07-.36-.12-.5.35-10.09,1.22-20.49,2.11-30.57.02-.18.19-.26.39-.27Z" fill="#ec4c2c"/>
          <path d="M44.34,49.37c-.98.73-3.08.29-4.15-.32-.8-.45-4.08-3.59-3.66-4.35.1-.19,3.5-.22,3.61-.06.08.59.31,1.16.69,1.72-.08-.6.38-.43,1.36.52l.39-.02c.16-.63,1.14-1.43,1.76-1-.07-.7-.04-.72.5-.25.33.44.97.81,1.25,1.25.1.15.17.34.25.5-1.08.18-.84,1.63-2.01,2.01Z" fill="#f2c331"/>
          <path d="M40.83,49.87c.05-.23.13-.22.25,0l.36.44c0,8.7.17,17.51.53,26.43l-.38.46c.13.58.05.83-.25.75-.05.66-.25.61-.5,0-.01-.17,0-.34,0-.5s0-.33,0-.5c-.28-1.12-.5-2-1.13-3.02.96-1.74,1.17-3.16.63-4.25.02-1.75,0-3.51,0-5.27-.36-4.86-.36-9.79-.23-14.67,0-.16.69-.25.73.13Z" fill="#8e6971"/>
          <path d="M44.34,53.38c1.96,6.94,2.38,14.47,1.75,21.69-.13,1.53-.52,5.51-1,6.77-.15.39-.21.72-.75.63.96-5.76,1.55-11.57,1.25-17.43-.09-1.87-.58-3.87-.75-5.65-.61-2.05-.77-4.05-.5-6.02Z" fill="#ca2c1b"/>
          <path d="M43.84,50.37c.35,2,.41,4.02,0,6.02l.27.29c-.12,2.67-.04,5.33.24,7.98.42,3.87.51,7.93,0,11.79-.13.55-.3,1.05-.5,1.5-.42.45-.47.93-.5,1.5-.7.94-2.53-.64-2.01-1.5l.25-.75c.64.02.81.48.5,1,1.09.58,1.39-3.02,1.4-3.89-.43-7.62-.69-15.26-.78-22.94l.38-1.01c-.03-.4.66-.36.75,0Z" fill="#786272"/>
          <path d="M29.55,67.93c.18-.16.24-.36.26-.6.33-3.85.62-7.68,1.03-11.52,1.29-1.29.85.34.71,1.34-.56,4.09-.94,8.12-1.25,12.29-.26,3.4-.53,6.86-.75,10.28-.29,1-.89.29-.5-.5.13-1.04.04-2.67,0-3.76.57-2.46.22-5.1.5-7.52Z" fill="#cf2c1a"/>
          <path d="M43.09,43.35c.45,1.01-.14,1.34-1.76,1-.35.5-.43,1.09-.22,1.77l-.28.24c-.41-.37-1.09-1.49-1.18-1.51-.75-.18-2,.13-2.83,0,1.13,2.65,4.49,5.49,7.52,4.51v.5c-.08.67-.31.64-.5,0-.53.39-1.47.38-2.01,0-.29.64-.47.64-.75,0-.08,0-.17,0-.25,0-.33-.09-.58-.26-.75-.5-.78.61-2.19-1.14-2.26-2.01-.48.36-.69-.33-.5-.75-1.27-1.33-1.16-1.8-3.01-2.51,1.45-.42,3.16.32,4.63.25.83-.03,3.99-1.15,4.15-1.01Z" fill="#e7a829"/>
          <path d="M44.34,49.87c0,1.17-.03,2.35,0,3.51.06,2.14.3,3.92.5,6.02-.14,5.55.19,11.14,0,16.69-.02.48.26,1.01-.5.87-.21-.07-.21-.24,0-.5.09-3.92,0-7.87,0-11.79-.24-2.86-.34-5.47-.32-7.83l-.18-.44c0-2,0-4.02,0-6.02-.67-.08-.64-.31,0-.5h.5Z" fill="#b75957"/>
          <path d="M29.04,79.21c-.16.75.36.41.5.5.68.43,1.35,1.2,1.21,2.08-.11.71-.9,1.02-1.08,1.44-.34.77.31,2.04-.75,2.26-.22,0-.09-1.42-.19-1.82-.09-.38-.53-.61-.58-1.05-.09-.82.48-2.02.64-2.9.04-.23.24-.44.25-.5Z" fill="#dd422e"/>
          <path d="M24.03,81.97l1.49-.24c.26.68.52,3.03.02,3.39-.95.69-.7-1.18-1.77-1.14.08-.74-.13-1.22.25-2.01Z" fill="#dd5f4a"/>
          <path d="M46.6,48.12v3.64c0,.18-.43,1.63-.63,1.63-.74-.43-.13-.86-.13-1.12v-3.76c0-.16.54-.48.75-.38Z" fill="#cd2d1b"/>
          <path d="M41.33,77.96c.08.07.57.98.94,1.23.4.27.48.41,1.07.28-.03.73-.7.71-1.44.43-.07-.02-.96-.93-.99-1-.15-.37-.05-.6-.08-.93.14.03.45-.05.5,0Z" fill="#c55b4d"/>
          <path d="M44.34,76.96c-.08,1.5-.26.74-.5,1-.03-.55,0-1.18.5-1.5,0,.17,0,.34,0,.5Z" fill="#8e6971"/>
          <path d="M28.79,40.59c.06.09.18.16.25.25l-2.51,30.85c-.63-1.77-.07-3.41,0-5.14.34-8.35.87-16.77,1.77-25.08.05-.47-.3-1.01.49-.87Z" fill="#c82816"/>
          <path d="M47.85,46.11c-.15,1.45-.94-.57-1.12-.76-.7-.79-1.58-1.44-2.25-2.26s-.99-2.52-2.4-2.74c-.52-.86-2.59-2.41-2.51-3.38.02-.24.37-.18.51,0,1.09,1.75,3.02,2.97,4.26,4.52.39.49.42,1.11.75,1.51.9,1.09,2.15,1.78,2.76,3.13Z" fill="#2d80ba"/>
          <path d="M57.38,39.84c-.27.3-2.09-1.82-2.7-1.96-.82-.19-3.21.93-3.57-.8l2,.25-1-1c1.05-.48,6.07,2.6,5.26,3.51Z" fill="#2f7fbd"/>
          <path d="M54.37,39.34c.1.08.32,2.14.64,2.5-.01.58,2.07,3.09,1.88,3.26-.35.31-.63-.13-.82-.31-1.32-1.21-1.97-3.65-2.44-5.33,0-.22.71-.16.75-.13Z" fill="#3484bf"/>
          <path d="M48.85,34.83c.18.79-.62.99-.75,1.63-.17.89.51,1.74-.13,2.37-1.12-1.2-.94-3.6.88-4.01Z" fill="#3589c0"/>
          <path d="M56.38,36.83c-.74,0-.69-.77-1.42-1.21-.81-.49-1.39-.4-2.22-.55-.42-.07-.43.15-.38-.49,1.67-.23,3.78.34,4.01,2.25Z" fill="#307eba"/>
          <path d="M50.36,46.62c.56.47-.8.78-1.41.27-.16-.13-.93-2.19-.85-2.28,1.05-.09.95,1.35,1.38,1.76.3.3.82.2.88.24Z" fill="#3482b9"/>
          <path d="M49.6,39.84c.08.06.67,1.81.5,2-.37.43-1.25-1.53-1.25-1.63,0-.16.56-.51.74-.37Z" fill="#3382ba"/>
          <path d="M34.06,26.05c.99.11,2.01.51,3,.11.11-.04,1.37-1.03,1.41-1.12.13-.28-.33-.47-.34-.63-.01-.43,2.03-1.1,2.53-1.42.59-.38.98-.97,1.65-1.36.4-.24.33-.55.77.03-1.99,1.57-5.64,6.5-8.46,5.2-.35-.16-.65-.37-.56-.81Z" fill="#2f83bc"/>
          <path d="M50.61,19.53l-1.75,3.39c-.66.38-1.17,1.21-2.01,1.12.07-.88,1.08-1.07,1.62-1.77.68-.87.85-2.38,2.14-2.75Z" fill="#2e80b9"/>
          <path d="M45.59,24.3c-.67,1.65-2.73,2.78-4.51,2.51l4.51-2.51Z" fill="#3082b8"/>
          <path d="M39.83,26.55l-1.5,1.39c-.31-.15-2.55,1.01-2.51.24s1.67-.56,2.08-.68c.57-.16.93-1.31,1.93-.95Z" fill="#3084bc"/>
          <path d="M41.58,27.56c.22.19-.26.78-.63.74-.66-.21-1.94,1.4-2.37,1.01-.66-.6,2.64-2.07,3.01-1.75Z" fill="#3687bc"/>
          <path d="M43.34,20.78c.86-.78,1.51,1.69.37,2.25-.82-.49.07-1,.04-1.38-.02-.19-.66-.65-.42-.88Z" fill="#2f83bc"/>
          <path d="M32.3,24.79c-.55.52-1.18-.7-1-1.25.57-.21,1.28.99,1,1.25Z" fill="#3c8bb9"/>
          <path d="M48.85,26.3c.42.38-3.28,3-3.65,3.5-.6.81-.95,2.95-1.74,1.27-.56.88-2.83,1.68-1.3.2.92-.9,2.51-2.13,3.57-2.95.44-.34,2.8-2.31,3.13-2.01Z" fill="#2f81ba"/>
          <path d="M52.87,29.31c.43.39-2.64,2.24-2.97,2.42-1.28.68-1.44.26-.37-.62.4-.33,3.05-2.07,3.34-1.8Z" fill="#3384be"/>
          <path d="M53.12,24.04l-1.95,2.69-.8.57c-.42-.48,2.09-3.84,2.76-3.26Z" fill="#3282b7"/>
          <path d="M49.86,51.13l1.51-.37c.2.9-.93,1.05-1.51.88,0-.17,0-.33,0-.5Z" fill="#605f67"/>
          <path d="M50.61,55.64c.08.37.06,1.67-.62,1.5-.78-.19-.21-1.65.62-1.5Z" fill="#545760"/>
          <path d="M50.86,58.4c-.09.59.03,1.37,0,2.01-.17.08-.33.17-.5.25.02-.61-.13-1.62,0-2.09.07-.28.4-.12.51-.16Z" fill="#d6be93"/>
          <path d="M37.32,38.34c.17-.39.5-.31,1,.25,1,.31,1.09.48,1.5,1.5.22.08.22.17,0,.25-.75.33-1.51.19-2.26.25q-.74-.64,0,0c-1.64.14-2.1.27-3.76-.5q.24-.81,0,0c-.38-.18-2.13-1.09-1.26-1.64.33-.21,4.09-.18,4.77-.12Z" fill="#e35624"/>
          <path d="M43.09,43.35c.23.42.52.31.75,1,.29.28.94,1.19.5,1.5-.82.55-.67.73-1.76,1-.49-.76-.9-1.59-1.25-2.51.53-.21,2.22-.56,1.76-1Z" fill="#ea4f2d"/>
          <path d="M38.32,38.59c-.3-.09-.71-.22-1-.25.19-.64-.45-.45-.5-.5-.54-.07-.86-.52-1-1-.08-.24-.37-.65-.5-1-1.05-.52-1.22-.93-.5-1.25,0-.17,0-.33,0-.5.87,1.72,2.52,2.87,3.51,4.51Z" fill="#ccc061"/>
          <path d="M42.84,42.85c-.73,0-1.72-1.77-2.08-1.93-.84-.37-.57.33-.93-.58-.03-.07.03-.18,0-.25,1.8.34,2.19,1.51,3.01,2.76Z" fill="#d2c455"/>
          <path d="M43.84,44.36c.9-.04.93,1.15,1,1.25-.16.09-.35.15-.5.25v-.33c-.8-.27-.37-.78-.5-1.17Z" fill="#a75d50"/>
          <path d="M42.84,89.25c.44.42.48,1.5-.25,1.25-.13-.65.12-.81.25-1.25Z" fill="#8f9f27"/>
          <path d="M15.25,33.82c.62.07.6.31,0,.5-.1.7-.44.44-.5.67-.22.95.49,1.17-.51,1.33,0-1.11.37-1.6.5-2.51.17,0,.33,0,.5,0Z" fill="#dcc75c"/>
          <path d="M43.59,5.49c.57.54-.59.5-.85.47-1.21-.15-3.48-.56-4.63-.9-.43-.13-.65.09-.54-.57.79.14,5.8.79,6.02,1Z" fill="#e1b41a"/>
          <path d="M54.87,71.69c-.84.09-1.8-.62-1.96-1.42-.2-.95.72-.25,1.09-1.34,1.51.42-.25,1.11-.13,1.62.08.33,1.18.45,1,1.13Z" fill="#dfaf23"/>
          <path d="M51.86,65.92c.04.51-.18,1.22.25,1.63.83.8.17-1.23.26-1.38.46-.24.93,1.06.96,1.2.25,1.31-1.59,1.21-1.91.13-.11-.38-.33-1.86.45-1.58Z" fill="#daaf21"/>
          <path d="M15.25,33.82c1.2-.03.75.23,1.21.47.31.16,1.09.37,1.23.6s.04.65.19.93c.23.44,1.39,1.67,1.88,2.51.39.67.68,1.34,1,2.01-2.11-1.74-2.69-5.22-5.52-6.02.02-.16-.02-.34,0-.5Z" fill="#e47522"/>
          <path d="M12.49,40.59c.74,1.08-.57,1.72-1.5,2.01-.13.04-.34-.03-.5,0,0-.06-.46-.97-.5-1,.1-.14.15-.39.25-.5-.36-.63.11-1.15.75-.75.51-.2,1.14.22,1.5.25Z" fill="#af7d2a"/>
          <path d="M26.79,34.33h-1.25c.05-.66-.25-4.76.38-4.76.4,0,.33.89.38,1.12.19,1.05.43,2.6.5,3.64Z" fill="#c92a1f"/>
          <path d="M27.54,21.03c.02.08,0,.17,0,.25.04.85-.27,1.56-.27,2.38,0,1.15.42,2.23.27,3.39-.8.06-.72-.55-.76-1.11-.1-1.18-.08-3.1.01-4.29.06-.77-.12-.65.75-.61Z" fill="#cf2e1e"/>
          <path d="M30.55,34.33c-.17,0-.33,0-.5,0-.49-.56-.7-5.02-.37-5.02l.64.87.24,4.15Z" fill="#cf301c"/>
          <path d="M32.3,29.06c.12.88.11,3.26,0,4.14-.04.34-.17.77-.5.37-.1-1.53-.79-3.72.25-5.02.07.16.23.38.25.5Z" fill="#cc2b1a"/>
          <path d="M10.99,40.34s-.63.63-.75.75c-1.52.29-.33-1.59-.5-2.26,1.23-.18,1.36.4,1.25,1.5Z" fill="#f8c33a"/>
          <path d="M11.49,39.09c.87.15,4.05.24,3.76,1.62-.18.86-1.24-.54-1.57-.68-.72-.31-1.81-.07-2.19-.94Z" fill="#f8b736"/>
          <path d="M34.81,34.58c.02.83.25.58.5,1.25-.73-.18-1.68-.59-2.25.12.39,1.73,1.34,1.06,2.5,1.76-1.13.5-8.2.04-8.73-.42-.31-.28-.15-1.53-.05-1.96.11-.03.33-.41.88-.49,2.11-.32,4.91.18,7.14-.26Z" fill="#f5ca31"/>
          <path d="M32.81,51.88c.19-2.37-.25-5.1-.01-7.42.04-.37.03-.35.26-.6-.13,2.66.29,5.46-.25,8.02Z" fill="#ef4e2d"/>
          <path d="M35.82,36.83c.61-.18.82.81,1,1h-1c-.06-.29.08-.76,0-1Z" fill="#f5ca31"/>
          <path d="M40.08,49.37c0,4.28,0,8.84,0,13.68l-.26,1.37c-.01,1.39.26,4.76-.05,5.84-.23.8-1.3.91-1.7,1.31-.37.37-.47,1.3-1.14,1.62h-.63s-.15-.76-.15-.76c.89-8.09,1.11-16.23,1.26-24.36l.39-.71c.42.43,1.82,1.69,2.26,2.01Z" fill="#ed4b2b"/>
          <path d="M37.32,46.61c.19.2.31.56.5.75-.47,5.35-.17,10.8-.5,16.17-.2,3.17-.51,6.52-1,9.66-.07.46.31,1.17-.5,1,.42-8.96,1.54-17.95,1.23-26.94-.01-.43-.62-.73.27-.64Z" fill="#c92917"/>
          <path d="M40.08,49.37c.13.09.91-.28.75.5-.17.01-.34-.02-.5,0-.02,4.85.02,9.7,0,14.55h-.5c.04-4.55-.06-9.12,0-13.67,0-.42-.16-1.11.26-1.38Z" fill="#cb5644"/>
          <path d="M40.33,69.68c.76-.14.48.38.5.87.02.59.11,1.73,0,2.22-.02.09-.97.69-.49,1.68l.5-.25c.02.92-.03,1.84,0,2.76-.98.16-.26-1.02-.54-1.47-.13-.21-1.97-.45-1.96-1.67,0-.09.51-1.26.56-1.31.28-.25,1.3-.21,1.41-.35.11-.12.02-2.02.03-2.48Z" fill="#cb5644"/>
          <path d="M35.06,63.42c1.67.25-.03,1.88-.5,1.5.53-.56.41-.89.5-1.5-1.31-.19-1.6.35-1.24-1.87.14-.84,1.01-1.49,1.14-2.39.1-.69-.24-1.13-.1-1.81.07-.3.6-1.52.94-1.71-.17,2.58-.37,5.22-.75,7.77Z" fill="#ef4e2d"/>
          <path d="M35.81,47.62c.17.23-.04,3.89-.75,3.01.17-.92-.55-2.93.75-3.01Z" fill="#ef4e2d"/>
          <rect x="31.18" y="57.52" width="1.25" height=".5" transform="translate(-26.05 89.43) rotate(-89.85)" fill="#ef4e2d"/>
          <path d="M41.33,44.36l.32.07c.07,1,.38,1.81.94,2.44-1.31.33-.76-.04-1.33-.42-.17-.11-.39-.05-.42-.08l-.5-1.75c.32-.08.7-.13,1-.25Z" fill="#de5d1d"/>
          <path d="M41.83,49.87c.46.11.69.2.25.5.86.46,1.03,3.27.25,3.89.2.02.5.09.5.23.16,5.67.16,11.85,0,17.52l-.5.3c.77.86.83,3.16.76,4.41-.04.68-.28,2.23-1.01,1.48-.27-.34-.38-.59-.5-1s-.22-.61-.26-1.11c-.61-7.13,0-15.34-.23-22.6-.04-1.19-.61-2.37-.01-3.63.25,0,.5,0,.75,0Z" fill="#b8d3ec"/>
          <path d="M43.09,50.37c.53,3.82.15,7.79.24,11.67.1,4,1.03,10.29.52,14.04-.11.84-.81,1.78-1.02,2.62-.51.12-.53-.22-.75-.5.76.14.48-.38.5-.87.07-1.74-.25-3.52-.25-5.03v-18.06c0-.89-.15-2.9-.25-3.89-.01-.41.87-.38,1,0Z" fill="#6ba9d5"/>
          <path d="M43.84,56.39c.76-.14.48.38.5.87.1,2.45,0,4.95,0,7.41-.84-2.53-.5-5.58-.5-8.28Z" fill="#8e6971"/>
          <path d="M43.84,49.87v.5h-1.76c-.01-.13-.2-.34-.25-.5.67-.02,1.34,0,2.01,0Z" fill="#8e6971"/>
          <rect x="36.82" y="38.84" width=".75" height="1.76" transform="translate(-.07 .07) rotate(-.1)" fill="#ce3211"/>
          <path d="M33.81,40.09c-.45-.3-.37-1.69.5-1.5-.02.26.23,2-.5,1.5Z" fill="#c63d0a"/>
          <path d="M41.33,44.36s.72-.03.75,0c.09.09.25,2.1.5,2.51-.92.35-1.44-2.33-1.25-2.51Z" fill="#cb2d15"/>
          <path d="M11.99,40.85c.45.46-.56,1.32-1.25,1-.22-.54.97-1.29,1.25-1Z" fill="#d9a671"/>
        </g>
      </g>
    </g>
  </g>
</svg>