<?xml version="1.0" encoding="UTF-8"?>
<svg id="Layer_2" data-name="Layer 2" xmlns="http://www.w3.org/2000/svg" viewBox="0 0 64 96">
  <g id="Cards">
    <g id="Clubs">
      <g id="ElevenOfClubs">
        <g>
          <path d="M3.46,7.91h-1.51V2.22c-.55.52-1.2.9-1.95,1.14v-1.37c.39-.13.82-.37,1.28-.73.46-.36.78-.78.95-1.26h1.22v7.91Z" fill="#3b920f"/>
          <path d="M7.29,7.91h-1.51V2.22c-.55.52-1.2.9-1.95,1.14v-1.37c.39-.13.82-.37,1.28-.73.46-.36.78-.78.95-1.26h1.22v7.91Z" fill="#3b920f"/>
        </g>
        <g>
          <path d="M60.54,88.09h1.51v5.69c.55-.52,1.2-.9,1.95-1.14v1.37c-.39.13-.82.37-1.28.73-.46.36-.78.78-.95,1.26h-1.22v-7.91Z" fill="#3b920f"/>
          <path d="M56.71,88.09h1.51v5.69c.55-.52,1.2-.9,1.95-1.14v1.37c-.39.13-.82.37-1.28.73-.46.36-.78.78-.95,1.26h-1.22v-7.91Z" fill="#3b920f"/>
        </g>
        <g>
          <path d="M43.73,62.64c1.11.93,2.38,1.68,3.8,2.24.27-.49,1.04-.07.89.45,1.48.67,1.68,1.57,1.98,3.03.13,3.46.42,2.99.86-1.43l.51-.7c.2-.43.47-.43.67,0l-1.49,7.91c.78,2.33,2.38,4.15,2.4,6.73,0,.94-.31,1.72-.24,2.68.1,1.47,2.44,5.13-.77,5.05-.44-.01-1.95-.67-1.92.1.06,1.17,1.64,4.53,2.24,5.7.42.89-.18,1.34-1.79,1.34-.81-.05-.63-.18-1.57,0-2.02.18-2.46-.17-1.79-2.24.22-3.45.67-6.94.46-10.41-.16-2.54-.93-5.06-1.12-7.59-.08-1.04.23-3.49-.03-4.22-.13-.37-.78-.39-1.11-.68-.49-.44-.66-1.2-1.38-1.52-1.06-.47-2.6-.47-3.74-1.07-1.32.34-.43-1.44,0-.45l.3-.42c1.7.04,4.81,1.03,5.57,2.66l.97.51c2.13,3.48,3.91,8.66,2.65,12.73,1.29.07,2.15.5,2.59,1.28-.58-.08-.58-4.08-.45-4.27.11-.16.25-.27.45-.32-.46-.25-.76-.78-.93-1.58-1.76-3.18-2.72-6.16-2.84-9.79-.31-2.59-1.93-2.98-4.25-3.31-1.02-.22-2.47-1.75-1.38-2.42-.03-.44.36-.42.45,0Z" fill="#654a37"/>
          <path d="M59.38,27.32c-.24.61-.43.59-.67,0-.52-.34-.59-1-.2-1.96-.56-.53-.56-.89-.21-1.54l-.35-.04c-.4,1.72-1.62,2.66-2.27.45l-.58.35c-.79-.97-1.46-1.12-2.01-.48l-.41-.36c0,.7-.67.54-1.12.22.13.25.05.52-.22.67-.07.27-.13.48-.45.45.49,1-1.81,2.28-2.68,2.01-.33.49-.84.59-1.56.28-.66,1.91-2.04,1.08-1.63-.82.6-2.76,3.28-3.88,1.98-.56,1.89.08,3.01-.84,3.76-2.53.73-.95,1.82-1.16,2.95-1.06.09-.05.56-1.81.5-1.89-.21-.31-6.7,1.82-7.15,2.18-1.09,1.6-2.1,3.28-3.03,5.01-.77,1.03-2.62,2.73-3.86,2.29-.54-.36-.38-.4.22-.45-.44-.46.09-1.18.67-.89.02-.25.32-.32.89-.22-.01-.77,1.02-2.13,1.79-2.24-.12-.6.02-1.04.45-1.34l1.34-1.9c1.26-1.56,2.84-2.52,4.92-2.35.01-.53-.49-.71-.69-1.21-.41-1.03.01-2.08.8-2.81.38,0,2.18,2.61,2.58,2.8.45.21,1.49-.12,2.12-.14,1.32-.03,1.1.73,1.94-1.17.46-1.03.68-3.39,1.83-.8.72,1.62-.03,1.91-.03,3.04,0,.43.56.73.61,1.31.15,1.81-.18,3.87-.22,5.69Z" fill="#684e3b"/>
          <path d="M13.77,71.14l.41-.28c.49.47.71.07.68-1.22-.96-.05-1.33-.83-1.08-2.33-1.09-1.52,0-3.23,1.17-1.32.18-.16.39-.23.63-.21.41.04.37.84,0,.89.21,1.55.36,3.12.45,4.7.59-.1.64.01.22.45.1.3.12.78.22,1.12l-1.56-.22c-.22,2.06-1.05,4.13-1.32,6.18-.33,2.47-.32,8.22.03,10.65.15,1.04,2.02,4.87,1.95,5.19-.18.81-2.14.46-2.68.35-.8.34-1.54.41-2.24.22-.11-.07-.28-.09-.34-.22-.34-.74.67-3.29.71-4.32.06-1.59-.68-3.38-.81-4.96-.21-2.52.37-5.06.23-7.61-.08-1.44-.44-3.13-.68-4.57,0-.51.4-.65.67-.22l.48.51c.8,3.58.71,7.04.38,10.67,0,.63.59,5.81.75,6.08.03.05.58-.02.62-.19-.43-5.55-.83-11.55,1.19-16.88l.15-1.54c-.6.1-.68-.04-.22-.45-.32-.19-.38-.35,0-.45Z" fill="#674d3b"/>
          <path d="M25.62,17.93c0,.32.04,1.12.41,1.31.1.55.27,2.08-.19,2.27.4.37.33,1.39,0,1.79-.15.93-.08,1.08.22.45l.32.04c.13,1.06.43,2.09.8,3.09.33.52.48,1.04.45,1.57.12.87.42,1.54.89,2.01.43.12.43.32,0,.45-.27.55-.95.87-2.04.96-.22.48-.51.76-.86.83-.5.15-1.79-.83-1.57-1.34-.32-.02-.53-.1-.45-.45-.35-.44-.65-.88-.89-1.34-.34.42-.49.35-.45-.22.12-1.1-1.6-1.5-2.33-2.47s-.56-1.58-.92-2.43c-.31-.74-1.2-1.51-1.63-2.17-2.46-3.81-3.6-6.63-3.16-11.36.53-5.71,5.19-6.48,8.36-2.11,1.39,1.91,2.87,6.81,3.04,9.15Z" fill="#819645"/>
          <path d="M26.52,66.67c.32.61.59,2.46,0,2.91-2.14,4.28,1.33,7.2,4.81,9.1l-.12.29c.62.03.58.24,0,.45.48.37.29.57-.22.67-.58.06-.97.31-1.16.74.05.61-.17.88-.63.38-.09-.07-.28-.09-.45-.22.04-.39.17-.14.15-.16-1.61-1.68-2.86-3.14-4.24-5.05-.52-.73-3.72-5.19-3.67-5.52.02-.17.04-.32.15-.46.5-.72,4.37-3.52,5.03-3.32.12.04.23.11.34.19Z" fill="#92684d"/>
          <path d="M52.45,66.22c-.22,0-.45,0-.67,0-.19.72-1.59.34-2.11.07l-1.24-.97c-.08-.03-.45-.28-.89-.45-1.48-.53-2.74-1.27-3.8-2.24-.13-.02-.31,0-.45,0-.34.41-.72.84-1.16,1.28l-.93,3.42-.6.22c-.14-.01-.46-.08-.45.11,0,.09.34.28.45.34-1.41.44-2.66,2.3-4.34,2.22-1.3-.06-1.96-1.3-2.83-1.87-.65-.43-1.39-.65-2-1.02-.69.29-.92.14-.67-.45-.16-.24-.16-.39,0-.45l.49-.3c1.75.54,3.05,1.61,4.39,2.79,1.32.75,3.84-1.1,4.17-2.51.92-4.57,1.86-6.01,6.43-3.73,1.8,1.41,3.68,2.19,5.62,2.34l2.27-1.28c4.14-.23,1.84-4.64.49-6.76v-.58c-1.41-1.16-1.22-3.64-.61-5.32-.2-1.51-.05-2.88.44-4.1-.38-.15-.16-.54.22-.45,1.06,2.06.17,4.33,0,6.38-.31,3.84,3.07,5.32,2.85,9.11-.2,3.49-3.53,1.71-5.09,4.19Z" fill="#ae3127"/>
          <path d="M34.34,4.07c.22-.08.37.07.45.45.81.43,1.86,1.51,2.24,1.69.29.13.61-.19.66-.12.05.06-.18,1.24-.22,1.56.38,1,.21,1.47-.66.69l-.91-.02-.59.22c-.74-.43-1.68-.7-2.31-.45-.04.44-.38.58-1.04.42-.37.49-2.56,2.39-2.9,1.7-.05-.1-.07-.21-.09-.33.25-.98.14-1.77.33-2.69.22-1.12.96-1.66,1.24-2.67.06-.2.14-.19.22,0,.6-.03,1.36-.21,2.01-.45,0-.72,1.5-.69,1.57,0Z" fill="#97b244"/>
          <path d="M30.1,81.87c-.15-.37.15-.41.52-.39,1.45.1,2.09,2.11,1.17,3.32,1.24.21,2.09.73,2.56,1.54-.7-.6-.73-3.18,0-3.69-.54-.14-.84-.7-.89-1.68-.59-.08-.57-.31,0-.45-.33-.36-.19-.5.22-.22,2.09,2.5,1.23,3.86,1.16,6.82-.02.69.64,2.46-.27,2.91-1.26.61-3.7-.12-4.44-1.38-1.72-2.93,1.17-3.68,1.07-5.57-.03-.64-.86-.68-1.11-1.22Z" fill="#6d5340"/>
          <path d="M33.45,9.21c.81.26,1.56.26,2.24,0,.1-.62.46-.56.67,0l.21.27c1.07-.32,1.14.68.46,1.52.85.21.51,2.5-.45,2.24-.1.27-1.37-.16-1.31-.22.05-.06,1.38.45,1.42.55.08.21-.82,2.02-1.26,2.04l-2.72-1.42-.16.16c-.5.86-1.03,1.68-1.57,2.46-.3.62-1.05.19-.89-.45-.2-.06-.19-.14,0-.22l.45-.89c-1.03.2-2.05.7-3.13.45-.27-.22-.39-.4,0-.45.32-.44.85-.58,1.61-.42.3-.6,1-.6,1.56-.34.83-1.29,1.24-2.33,1.15-3.92l.88-1.36c0-.54.13-.91.4-1.12.77-.64,1.33.83.45,1.12Z" fill="#dda36d"/>
          <path d="M30.1,16.36c.11.02.56.34.89.45l.46-.32c1.24.46,2.5.65,3.81.38l.42.39c0-.71,1.21-.54,1.79-.45.08-.34.25-.31.45,0,1.09.97,2.48-.12,4.34,2.03,1.6,1.86,1.19,1.99,1.45,4.13.05.41.42.29.46.47.08.34.03,1.01,0,1.41-.02.32.06.64-.04.96-.09.29-.38.33-.4.38-2.9-.28-3.54.32-1.92,1.78l.13.45c-.42.34-.78.16-.89.22-.58.37-1.26-.31-.89-.89-.81-.21-.96-.51-.45-.89-.6-.61.36-1.78,1.12-1.57.35-.46.57-.53.67-.22.27-.48.83-.62,1.68-.44-.15-2.44-1.18-6.52-4.23-6.26-.13.44-.32.74-.59.88-.09.59-.26.57-.45,0-.93-.06-1.87.09-2.82.44-1.16.11-3.39.26-3.89-.89-.68-.01-1.21-.16-1.57-.45,0,.4-.08.7-.22.89l-.51-.09c-.41-1.21-1.25-.92-2.22-.48l-.4-.32c-.31,1.26-1.28.34-.45-.45.7-.81,2-.43,2.68-.89.17-.77.91-1.03,1.57-.67Z" fill="#ad2c29"/>
          <path d="M42.39,38.05l.41-.3c2.66,1.62,6.09,2.27,9.18,2.86l.91.57c.14-.6.39-.54.67,0,.19-.62.95-.65,1.12,0,.21-.62.46-.63.67,0,.02.01-.09.39.15.45.31.07.74-.08,1.07,0,2.22.59,3.1,3.29.57,4.01-.98-.01-1.85.15-2.63.48-.43-.3-1.05-.46-1.84-.48-.2.31-.35.37-.45,0-.37.22-.57.33-1,.31-1.86-.08-9.2-2.35-10.7-3.38l-.82-.96c-.19.22-.41.07-.67-.45-.65.4-1.13-.47-1.12-1.12-.19-.06-.19-.14,0-.22.01-.34.18-.41.45-.22l.75.06c4.11,3.06,9.73,4.51,14.76,4.99,4.71.44,5.46-1.49.37-2.47-4.36-.22-8.41-1.22-12.17-3.02-.85-.06-1.49-.28-1.93-.68-1.5-.86,1.94-1.49,2.24-.45Z" fill="#af3225"/>
          <path d="M33,8.09c.55,1.4-.67,2.02-.85,2.62-.16.54.04,1.18-.06,1.73-.15.87-1.24,1.69-.88,2.81-.59-.07-.74-.51-1.46-.47-.41.02-.3.43-.48.47-.53.12-1.28-.07-1.86,0-.38.3-.97-.56-.89-1.06.97-.8,1.42-1.29,1.56-2.52.62-.28.32-.71.52-1.17.1-.23.35-.52.38-.62.79.38,2.64-1.74,2.84-1.78.33-.07,1.06.07,1.18,0Z" fill="#d99f2e"/>
          <path d="M37.47,43.19l.62.12c1.03,2.19,2.23,3.91,4.03,5.56,1.19,1.08,4.52,3.8,6.18,3.45.54-.11,5.68-5.74,5.37-6-.56.11-.89-.04-1.01-.45-.2-.06-.19-.14,0-.22,1.43.14,3.01-.1,4.47,0-.11.03-.23.18-.54.24-1.06.19-1.35-.55-1.92.66-.07.14-.2.25-.22.45l-.44,1.18-4.16,4.67c1.61,2.07,1.38,5.29-1.72,5.69-3.46.44-4.64-3.47-2.18-5.43-3.56-1.69-7.06-4.6-8.49-8.34-.33-.12-.3-.29,0-.45-.54-.29-.54-.83,0-1.12Z" fill="#e7972b"/>
          <path d="M14.89,42.52c.28.32.15.46-.22.22-.15.4-.56.86-.89.45-.05.36-.42.66-.72.87-3.38,1.62-6.1,2.94-7.3,6.73-1.13,3.58-1.67,9.69,1.47,12.36l.07.6c.6.08.54.47,0,.67-.07.13-.14.13-.22,0-2.12-.79-3.31-5.47-3.31-7.49,0-8.92,3.12-11.4,10.69-14.64.48-.15.63-.08.45.22Z" fill="#5f4c3e"/>
          <path d="M24.73,39.84c.75-.37.98-.29.67.22l-.25.96c-2.86,3.91-4.18,8.73-5.36,13.33l-1.04,1.98c2.54-.25,5.09.23,7.52.72l.26.44c.76.06.91.29.45.67l-.51.43c-3.01-.73-5.86-.91-8.78-.78l-.1-.32c-.05-.3-.16-.53-.31-.7,1.15-3.05,2.23-6.27,3.27-9.47l.39-.34-.08-.49c.94-2.09,1.92-4.13,2.94-6.13l.5-.3c.09-.03.26-.15.45-.22Z" fill="#8d972d"/>
          <path d="M27.19,64.88c.06-.68.56-.45.86.04.81-.06,1.69.07,2.05.85.32-.16.54.22.67,1.12.16.15.47.32.67.45-.77-.17-.17.46,0,1.12.03.6-.04,1.05-.22,1.34-.06.19-.14.19-.22,0-.25.82-1.18.45-1.11-.4.63-.69.85-1.02-.12-1.23-.28-.58-1.04-1.4-1.69-1.05.3.18.35.34,0,.45-.51.48-.37,1.02,0,1.57.28.09.43.46.45,1.12.62.16.56.61,0,.89.19.07.19.14,0,.22-.35-.36-.88.07-1.2-.02s-.3-.94-1.03-.65c-.4-.2-.16-.93.22-1.12.01-.82-.56-1.92,0-2.91.02-.44.24-.81.67-1.12-.54-.22-.58-.48,0-.67Z" fill="#cba138"/>
          <path d="M8.86,64.88c-.04.37-.21.46-.52.32-.84,3.05-1.58,6.12-2.22,9.21,2.16-1.48,4.35-2.32,6.89-3.04l.54.22c.06-.2.14-.19.22,0,.04.13.15.31.22.45.16,1.06-2.87,1.89-3.58,1.34-.23.08-.4.11-.67.22-.53.21-.98.35-1.5.63-1,.54-2.2,2.2-3.4,1.02.34-3.25,1.81-6.56,2.35-9.69.07-.42.16-.74-.13-1.12.05.02.14,0,.22,0,.77-1.39,1.93-1.07,1.57.45Z" fill="#af372f"/>
          <path d="M59.38,29.11c.16,1.71,1.2,3.12.74,4.88-.51,1.92-2.43,2.04-4.09,1.6l-.67,5.59c-.05-.04-.49.01-.67,0l-.38-.34c.85-3.19.77-6.2-.25-9.04l.19-.46c.16-.55.53-.57.67,0l.55-.06c.45,1.03.76,2.1.92,3.22,2.45.5,2.96-.11,2.6-2.51l-.6-2.18.34-.48c-.29-.27-.15-.38.22-.22.09-.6.28-.58.45,0Z" fill="#6f5543"/>
          <path d="M32.78,80.98c.31-.26.59-.13.41.2l.26-.2s.31-.08.44.16c.04.07.45,1.44.45,1.52v3.69c-1.04-.37-1.97-1.16-3.13-1.12.27-1.49,1.49-2.72-.53-3.42-.52-.18-.56.07-.59.06-.07-.01-.16.02-.22,0-.37-.32-.31-.68.22-.67.37-.69,1.02-.46,1.95.68l.29-.23c-.08-.32.07-.54.45-.67Z" fill="#90694e"/>
          <path d="M29.87,33.13l-.04.47c-.89.52-1.21,1.21-.86,2.21.61.46,1.37,2.47.89,3.13,1.37.63-.8.96-1.34.45-1.28.62-2.14-.71-2.68-1.79-.18-.54-.17-1.51-.23-1.56-.04-.04-.76-.13-1.12-.23l.1-.28c1.2.15,1.59.12,2.13-.83l.15-.52c.91-.47,1.73-1.09,2.45-1.86l.53.14c.61.2.61.47,0,.67Z" fill="#839438"/>
          <path d="M22.72,29.55c.42.38.63.7,0,.89.35.52.38,1.24.08,2.17-1.04,1.79,2.66,2.56,2.74,2.26.05-.22-1.39-2.23-1.92-2.39-.83-.64-.52-1.8.44-1.15.49.43,1.15.75,1.57,1.34.68-.27,1.64,1.53,1.12,2.01.08.29-.05.78,0,1.12h-2.24c-.76-.21-1.51-.19-2.23-.79-1.79-1.5-.19-3.97,0-5.69.19,0,.32.16.45.22Z" fill="#a43023"/>
          <path d="M37.03,11c.47-1.24,1.39-.55,1.11.68l.23.44c.38.26.58.57.62,1.06.02.24-.13,2.32-.17,2.52-.76.17-1.45.33-2.06.5l-.18-.27c-.31.31-.5.46-.67,0-.15-.16-.23-.34-.22-.55.75-.72,1.12-1.88.89-2.13.52-.71.45-1.41.45-2.24Z" fill="#d2983a"/>
          <path d="M21.15,69.8c.04.38.27.67.48.97,2.64,3.58,4.07,6.31,7.23,9.76.3.33.63.49-.11.45-3.79-3.1-5.22-6.74-8.05-10.51-.54-.25-.02-.78.45-.67Z" fill="#654d3c"/>
          <path d="M26.52,66.67c-2.33.91-3.29,1.83-5.37,3.13-.24.15-.36.42-.45.67l-4.47,1.34c-.05-.15-.18-.3-.22-.45v-.22c.15-.29.6-.37,1.34-.22.15-.57,1.13-1.21,1.57-.67.04-.54.42-.62,1.12-.22l.15-.6,4.05-2.99c.92-.75,1.75-.97,2.5-.66-.09-.59.06-.67.45-.22-.07.55-.06.88-.67,1.12Z" fill="#ae3024"/>
          <path d="M26.52,69.58c0,.4-.23.84-.22,1.12.01.82-.09,1.76.02,2.55.36,2.63,3.66,4.08,5.57,5.5.22.44-.41.52-.67.22-.14-.36-2.37-1.46-2.91-1.89-2.22-1.77-3.17-3.87-2.46-6.72.11-.46-.01-.79.67-.78Z" fill="#69503e"/>
          <path d="M32.33,2.28c.24-.04.31-.03.22.22.21.53.29,2.21-.45,1.57-.69-1.78-1.26-2.25-.89,0,.88.17-.09.91-.45.45h-.22c-.85-.43-.43-1.73-.52-2.31-.05-.29-1.16-2.88.19-1.94.45.32,1.7,1.55,2.12,2.02Z" fill="#b3473b"/>
          <path d="M23.16,40.29c.96-.29.92.48.22.67l-.57.5c-2.05.11-4.07.41-6.05.88l-.53-.26c-.57.12-.79.05-.67-.22,2.99-1.14,4.7-.93,7.6-1.57Z" fill="#b0382e"/>
          <path d="M38.37,12.12c-.06-.04-.36.07-.43-.01-.13-.17.05-1.01-.02-1.33l-.89.22c0-.45,0-.9,0-1.34-.69.35-1.38.2-.67-.45-.08-.28-.23-.58-.45-.89.37-.38,1.51.05,1.56,0,.04-.04-.02-.49,0-.67.79,1.34.98,2.94.89,4.47Z" fill="#c29557"/>
          <path d="M24.28,40.06c-.16.45-.36.88-.6,1.29-1.01,1.74-2.01,3.64-2.76,5.64-.31.55-.57.37-.45-.22-.01-.42.14-.86.45-1.34-.23-1.44,1.23-3.67,2.46-4.47.27-.49.45-.76-.22-.67.29-.06,1.01-.19,1.12-.22Z" fill="#d4a33f"/>
          <path d="M26.29,39.17c.59-.52,1.29.42.45.67-.52,1.39-.8,3.1-.53,4.67.43,2.54,1.27,4.99,2.21,7.39-.03.21-.14.36-.33.46-.35.8-.56.24-.67-.45l-.49-.22c-.33-1.49-.91-2.89-1.5-4.3v-1.8c-1.02-1.29-.45-3.98-.02-5.53-.1-.32-.37-.23-.67-.22.23-.09.91-.79,1.57-.67Z" fill="#85b067"/>
          <path d="M25.85,17.93c-.47.85-.25.74.45.45.68.31.54,1.85.16,2.31l.07.37c1.14-.56,1.41,1.86.22,2.01-.19.77-.56.77-.68,0,.11-.7.04-1.22-.21-1.56-.04-.58.11-1.36,0-1.86-.04-.18-.42-.06-.46-.48-.06-.57.25-1.18.24-1.24h.22Z" fill="#c95d33"/>
          <path d="M31.66,70.25c0,.86.28,1.75-.62,2.18-.95.45-2.21-.09-2.51-1.06-.02-.06,0-.15,0-.22l.46-.35c1.36,1.04,1.88.81,1.55-.69l.45-.3c.07.02.15-.02.22,0,.18-.31.33-.16.45.45Z" fill="#7f9352"/>
          <path d="M32.33,2.28c1.05-.19,1.25-1.61,2.46-1.34v3.58c-.62-.33-.41-.43-.45-.45-.44-.2-.61-.76-.49-1.67-.36.46-.71.57-1.07.33-.1.12-.17.05-.22-.22-.04-.07-.15-.15-.22-.22Z" fill="#d5bc6c"/>
          <path d="M25.85,37.6c.81.77,1.5,1.58,2.68,1.79.59.07.57.28,0,.45-.25.65-1.29.62-1.57,0-.06.2-.13.19-.22,0v-.29c-.07-.16-.42-.28-.45-.38-.16-.74-.18-.76-.45-1.57Z" fill="#b9b158"/>
          <path d="M28.08,11.67c.65,1.41-1.23,2.26-1.33,2.6-.19.65.55.79.66.98.04.08-.03.32,0,.45-.52-.12-1.21-1.05-1.12-1.63.02-.1,1.25-1.02,1.28-1.1.16-.43-.03-1.13.08-1.28.06-.08.34.03.43,0Z" fill="#f2e5c2"/>
          <path d="M38.81,15.69c-.16.69-1.27.41-1.79.45-.05.46.62.07.87.26.1.08,0,.38.03.41-.15,0-.3,0-.45,0-.3-.04-.52-.12-.67-.22-.75-.2-1.13-.42-.22-.67.74-.1,1.44-.36,2.24-.22Z" fill="#ecd2ad"/>
          <path d="M59.38,27.32c-.01.57-.05,1.24,0,1.79-.14.03-.35-.04-.45,0-.48-.03-.36-.18,0-.45-.42-.07-.4-.25,0-.45-.5-.39-1.19-.46-2.09-.21l-.14-.24c.37-.73,1.37-.96,2.01-.45.19-.04.46.03.67,0Z" fill="#93382e"/>
          <path d="M33.67,80.31c-.13.03-.2.09-.22.22l-.26.18c-.61-.51-1.27-.95-1.98-1.3.01-.11.03-.38,0-.45l.67-.22c.83.61,1.07.7,1.79,1.57Z" fill="#90837a"/>
          <path d="M30.99,80.08c.15-.41.34-.43.45,0,.57.2.61.51,0,.67l-.28.17c-.55-.2-.72-.21-1.06.28-.03.18-.23.44-.22.67-.42-.11-.5-.55-.67-.67.68.17.33-.69.9-1.01.29-.16.59-.09.89-.11Z" fill="#b8a79c"/>
          <path d="M50.89,95.73c.89-.5,2.11,0,1.79-1.34.14.27.61.68.24,1-.55.48-1.43.38-2.02.34Z" fill="#6c533f"/>
          <path d="M15.56,41.85l.67.22c.02.56-.2.58-.67.45-.43.4-.66.4-.67,0-.02,0-.22-.31-.45-.22.39-.17.73-.3,1.12-.45Z" fill="#8a4239"/>
          <path d="M31.66,70.25c-.13-.11-.32-.41-.45-.45.03-.42-.17-1.09.22-1.34.19.74.23.96.22,1.79Z" fill="#abae3d"/>
          <path d="M12.88,95.06c-.64.56-1.53.66-2.24.22.85.3,1.44-.29,1.96-.41.21-.05.25.18.28.19Z" fill="#bcb1a7"/>
          <path d="M47.53,93.5c-.04.69-.07,1.33-.22,2.01l2.01.22s-.1.2-.31.21c-.23,0-1.73-.28-1.83-.42-.22-.31.08-1.67.35-2.03Z" fill="#6c533f"/>
          <path d="M30.1,16.14v.22c-1.16-.22-1.03.31-1.57.67-.13-1.09.74-.93,1.57-.89Z" fill="#e6ac89"/>
          <path d="M43.29,62.64c.02,2.5,2.77,1.99,4.19,2.63,2.42,1.09,1.9,5.14,2.41,7.43.44,1.99,2.8,5.62,2.8,7.04v4.58c-1.01-.46-2.01-.8-3.13-.9-.13-.15.64-2.53.66-3.05.06-1.62-1.81-8.22-2.78-9.47-.34-.44-.86-.43-1.25-.77-.51-.44-.61-1.14-1.39-1.52-.71-.35-3.37-1-4.18-1.07.91-1.62.43-4.82,2.68-4.92Z" fill="#92674d"/>
          <path d="M53.35,87.91c-1.48.17-3.85-.1-4.37-1.78-.69-2.23.45-2.25,2.18-1.74,1.99.59,2.45,1.44,2.19,3.52Z" fill="#6f543f"/>
          <path d="M52.23,95.06c-.94.69-2.13-.42-2.35-.4-.12.01-1.25,1.12-2.12.62.04-.5.41-3.17.54-3.37.15-.22,2.27-.52,2.59-.33s1.48,3.32,1.34,3.47Z" fill="#6c533f"/>
          <path d="M47.54,72.93l1.5,3.75c.2,1.58.66,2.92.41,4.53-.16,1.05-.67,2.76-1.02.77-.52-2.98-1-6.02-.89-9.05Z" fill="#8f684f"/>
          <path d="M51.78,66.22c-.13,1.61-.41,3.35-.78,4.92-.08.36-.15,1.23-.56,1.34-.59-2.44.07-5.32-2.02-7.15,1.32.47,1.89.91,3.35.89Z" fill="#92674e"/>
          <path d="M50.44,91.04h-2.01s.23-4.02.23-4.02c.91,0,1.95,3.86,1.79,4.02Z" fill="#90674f"/>
          <path d="M43.73,62.64c.72.11,1.28.6,1.95.83l1.85,1.4c-1.29-.48-3.65-.45-3.8-2.24Z" fill="#9b5847"/>
          <path d="M51.78,26.87c.06,1.52.22,1.8,1.17,3.07l.17.5c.41-.07,1.37.39,1.12.89,1.7,1.71.96,7.61.45,9.84-.37-.02-.75.03-1.12,0-.23-.18-.45-.18-.67,0-3.28-.37-6.39-1.29-9.48-2.48-.35-.13-.79-.6-1.03-.65l-.19-.5c1.21-1.19,1.99-2.7,2.33-4.54,2.1-1.73,2.92-2.75,2.97-5.56.05-.19.28-.31.71-.36.64-.68,1.7-.6,2.68-2.01.5-.37,1.61,1.61.89,1.79Z" fill="#93674c"/>
          <path d="M40.16,30c2.19-1.09,2.91-1.48,4.25-3.69.96-1.59,1.39-3.76,3.29-4.54,1.24-.19,7.12-2.22,7.84-1.79.11.07.17.48.37.63,1.03.74,1.86.56,1.13,2.23-3.03-4.94-2.47-.46-3-.09-.34.23-1.03,0-1.45.11-1.78.43-1.54,1.43-2.46,2.45s-2.41,1.2-3.7,1.11c-.33-.34,1.32-2.4.34-2.01-.91.37-2.09,3.81-.9,3.57.46-.19.28-1.05.34-1.12.09-.1,1.62.41,2.01.23-.7.74-.26,2.38-.81,3.55-.58,1.26-1.86,1.69-2.42,2.5-.53.75-.53,2.01-.93,2.87-.38.82-1.18,1.3-1.65,2.03-.24-.05-2.15-.07-2.24,0-.04.03.02.32,0,.45l-.33.45c-.55-.05-1.03.18-1.45.67-.1.24-.2.25-.45.22-.44-.03-.32-.78,0-.89l-.31-.48c-1.01.44-2.29.34-1.48-.86-.24-.08-.27-.26-.09-.53,1.24-1.67,2.16-3.43,2.77-5.28-.19-.07-.19-.15,0-.22-.36-.15-.43-.58,0-.67-.45-.43-.41-.54.22-.45-.28-.56.04-.7.45-.22,0-.63.32-.68.67-.22Z" fill="#6f533f"/>
          <path d="M52.68,23.74c.52-.1.87-.39,1.63-.22.09.02.44.69.72.66.25-.03.44-1.09,1-.89-.05.37.19,1.94.78,1.79.65-.17.3-2.32,1.68-1.67.78.36.09.67,0,1.12s.47.19.48.65c.02.66-.41,1.41-.25,2.13-.66.15-1.35.32-2.01.45-.33.47-1.54.93-2.08.65-.34-.18-1.88-2.76-1.49-3.11.32-.32.51-.23.45.22.27-.46.74-.2.89.22.6-.87-.74-1.97-1.04-.74l-.3.07c-.48.34-1.3-1.2-.45-1.34Z" fill="#93654d"/>
          <path d="M52.68,23.74c-.03.49,0,1.05.45,1.34.2.02.19.1,0,.22.04.3.73,1.58.93,1.86,1.09,1.5,1.13.88,2.65.6h2.24c.01.15-.01.3,0,.45-.31.18-.35.32,0,.45v.45c-.09.04-.16.2-.22.22-.3.59-.93,1.03-1.9,1.3-.71.59-1.34.83-1.9.71-.07.06-.5-.04-.67,0-.15-.15-.68-.45-1.12-.89-.33-.47-.33-.69,0-.67-.15-.77-.45-1.59-.89-2.46-.25.06-.4-.09-.45-.45.03-.77-.25-1.35-.89-1.79.07-.1-.13-.55.45-.45.27.17.34-.06.22-.67.6-.29.65-.14,1.12-.22Z" fill="#b22d23"/>
          <path d="M41.94,28.44c-.5.02-.6-.3-.85-.6-1.56-1.85.11-2.16,1.87-2.08.43.02.9-.23.77.45-.48.84-1.03,1.63-1.79,2.24Z" fill="#ea6035"/>
          <path d="M52.68,19.94c-2.12.57-2.88-.38-2.23-2.46.37-.26,2.04,2.01,2.23,2.46Z" fill="#7e5f4a"/>
          <path d="M51.56,23.97l.7.75,1.98,3.94c-.47.1-.51-.24-.72-.51-.67-.84-1.71-2.55-2.19-3.51-.19-.39-.25-.44.22-.67Z" fill="#dc483c"/>
          <path d="M40.16,27.77c.27.3.58.63.89.89-.05.03-.43.62-.67.89-.84.95-2-1.23-1.34-1.79.17-.81.68-.56,1.12,0Z" fill="#8c9fc2"/>
          <path d="M38.81,27.77c.07-.19.15-.19.22,0,.06.77.4,1.93,1.34,1.79-.09.1-.13.32-.22.45-.15.08-.43.12-.67.22-.74-.13-1.53-1.83-1.12-2.46.05-.45.27-.43.45,0Z" fill="#7a495f"/>
          <path d="M13.77,43.86c.13.59-.22,1.67-.92,1.81l-.43,1.32c.63.29.46,1.09-.22,1.12-.22,2.04-.37,4.1-.45,6.19l.23.74c.73,0,1.76,2.33,1.34,2.91l.22.24c-.25,2.08.8,4.1,1.79,5.8.68.06.6.69,0,.89.45.11.68.63.22.89l-.56,1.56c-.55-.5-.23-1.78-1.23-1.79-.24.7.35,1.19.44,1.69.07.43-.22,2.25.46,2.01.25-.09.23-.62.67,0l-.22,2.57c-.06.06-1.22-.58-1.34-.67-1.24-.49-2.7-2.15-3.13-3.58l-.29-.03c-.66-1.32-1.27-2.66-1.85-4-.42.18-.82.26-1.21.23-3.43-2.27-3.04-7.63-2.4-11.24,1.05-5.95,4.07-6.83,8.89-9.33.53.06.42.44,0,.67Z" fill="#6f533f"/>
          <path d="M14,72.04c.07.13.45.1.44.53-.02,1.38-1.03,3.49-1.28,5-.51,3.07-.39,7.29-.29,10.46.05,1.48,1.14,3.38-1.33,3.01.23-1.64-.5-3.28-.64-4.84-.24-2.65.35-5.25.21-7.81-.09-1.61-.61-3.38-.68-5.02,1.2-.41,2.67-.56,3.58-1.34Z" fill="#91674e"/>
          <path d="M15.34,64.88c.35-1.16,1.87.34.89.89.14.22.21.44.22.67.61-.23.8.79.22.93v.41c.6.08.64,1.68.23,2.01.13.34.28.72.45,1.12-.39.09-.79.41-1.34.22-.1-1.5-.25-2.99-.45-4.47-.02-.3.02-.6,0-.89s-.19-.6-.22-.89Z" fill="#da4f36"/>
          <path d="M13.77,71.14c.02.14-.03.33,0,.45h-.22l-.57.06c-.24-.06-3.45-2.97-2.33-3.42-.28-.41-.28-.63,0-.67.53.85,2.36,3.02,3.13,3.58Z" fill="#803f29"/>
          <path d="M16.01,71.14v.22c-.54-1.84-.32-2.82-.45-4.7.69,1.38.38,2.99.45,4.47Z" fill="#6f533f"/>
          <path d="M27.19,30.67c-.14.15-1.44-.11-1.45.67l-1.01-1.45c1.37.12.26-1.86-.4-1.38-.2.14.16.8-.83-.29-.45-.2-.22.82-.78.34-.84-.71-.02-1.12.03-1.79.13-1.67-1.45-2.53-2.71-3.13-.19-.09-.49.08-.78-.1-.21-.13-1.82-2.24-1.86-2.41-.17-.62.4-.92.44-1.51.07-1.04-.93-2.49-1.65-3.18-.24-.23-.75-.2-.94-.52-.42-.67-.42-4.11-.33-5.03.62-6.45,6.15-4.67,8.21-.17.58,1.28,2.74,10.88,2.48,11.74-.1.32-.53.46-.63.95s.26,2.91.55,3.24c.27.31.79.16,1.02.33.15.11.79,3.56.66,3.69Z" fill="#97b63f"/>
          <path d="M29.87,32.46c-1.02.81-1.81,1.87-3.13,2.24-.03-.11-.99-1.83-1.12-2.01.04-.4.31-1.06.67-1.23.25-.12,1.72-.43,2.23-.56.58-.86,2.28.79,1.34,1.57Z" fill="#d6aa85"/>
          <path d="M22.72,30.45c.23-.68.81-.04.89.45.8.28.29.31.45.45-1.37.18.43,1.19.56,1.34.29.34,1.78,2.38,1.45,2.68-4.32-.15-4.03-1.43-3.35-4.92Z" fill="#ef6032"/>
          <path d="M28.75,30c.35-.37.65.23.69.64l.2-.19c.76-.22,1.24.38,1.43,1.8,1.35.27,2.49.11,3.41-.48l2.54.06c-.05-.44-.03-.75.45-.93.47-.28.99.9.67,1.34l-.28.73c-2.51.07-5.05.26-7.61.57l-.39-.4c0-.22.01-.45,0-.67-.04-.87-.41-1.81-1.34-1.57.02-.14-.03-.33,0-.45-.36-.45-.34-.5.22-.45Z" fill="#8ca8a0"/>
          <path d="M20.98,27.25c-.3-.11-2.03-2.55-1.03-2.83,1.84-.51,3.11,3.6,1.03,2.83Z" fill="#ceb93e"/>
          <path d="M25.85,21.51c.82-.19.32,1.12.45,1.79l.44-.22c.45.1.26.36,0,.67.5.45,1.11,1.71.45,2.24.55.17.5.25.22.67.2.33.1.46-.22.22-1.16-1-.7-1.83-1.12-3.13-.37.05-.46-.18-.22-.45-.03-.59.04-1.2,0-1.79Z" fill="#9a7a37"/>
          <path d="M17.35,19.94c-1,.27-2.1-2.53-1.79-2.9.94-.15,2.1,2.57,1.79,2.9Z" fill="#c8bd48"/>
          <path d="M29.65,30.45c.19.93-.56-.02-.89-.45-.68.06-1.05-.46-1.12-1.57-.37-.52-.69-.56-.45-1.57,0-.03.16-.16.22-.22.06-.2.14-.2.22,0l.45.21c.56,1.09,1.2,2.17,1.92,3.21l-.35.38Z" fill="#3e7c9e"/>
          <path d="M28.75,30c.01.18-.2.35-.22.45-.94.87-1.11-1.4-.89-2.01.35.5.75,1.1,1.12,1.57Z" fill="#d0e1db"/>
          <path d="M26.07,23.74c.04.66-.03,1.35,0,2.01-.21.29-1.18-2.27-.22-2.46,0,.02.2.05.22.45Z" fill="#aab253"/>
          <path d="M22.72,29.55c.66.3,1.06.49.89,1.34-.55-.19-.42-.42-.89-.45.05-.26-.03-.61,0-.89Z" fill="#b27439"/>
          <path d="M33.45,80.53c-.02.09-.02.42,0,.45.13.72-.27.38-.67,0-.51.3-1.08-.48-1.34-.89-.13-.02-.31,0-.45,0-.12-.27.21-.58.22-.67,1.14-.26,1.44.58,2.24,1.12Z" fill="#eee5dd"/>
          <path d="M37.47,44.76c1.74,2.36,3.53,4.75,5.97,6.44.49.34,2.85,1.5,2.93,1.64.38.62-.38.66-.6,1-2.81,4.35,3.85,5.9,4.61,2.16.4-1.94-1.27-2.35-.92-3.35l4.99-5.65c-.16,1.26.1,2.82,0,4.14-.04.59-.37,1.05-.43,1.58-.43,3.82,2.87,5.37,2.84,8.92-.02,2.55-.84,1.81-2.57,2.53-2.55,1.07-1.96,2.22-5.28.67-1.8-.84-6.09-4.45-7.63-1.96-1.41,2.3-.2,4.54-3.59,6.25-2.41,1.22-2.76-.41-4.52-1.53-.72-.46-1.71-.88-2.53-1.16-.41-.45-.44-.92,0-1.34.21-.28.21-.42,0-.45-.35-.59-.34-1.63,0-2.24.2-.09.28-.24.22-.45-.36-.12-.07-3.14.02-3.4s.82-.81,1.09-.85c.51-.55.96-1.14,1.34-1.79.66-1.49,1.4-2.83,2.24-4.02-.26-.21-.08-.54.16-.74-.01-.62.08-1.12.28-1.49.24-.21.32-.76.21-1.65l.23-.13c.25-.21.32-.76.22-1.65l.22-.14c.22-.18.29-.55.2-1.12l.25-.22Z" fill="#ee4b29"/>
          <path d="M32.11,57.28c.38.09.29.22,0,.45-.06.62-.84.83-.88,1.06-.13.65.14,1.55-.01,2.15-.11.45-.13-.09-.22,1.05.37.44.35.48-.22.45-.03.74,0,1.49,0,2.24.41.09.36.25,0,.45v1.79c-.39-.39-.61-1.08-.67-1.12l-.34-.55c.16-1.44.19-2.88.11-4.33l.46-.48c.24-.3.33-.84.27-1.63,0-.69.97-1.61,1.52-1.5Z" fill="#a87236"/>
          <path d="M35.91,8.31c.42.17,1.05.03,1.12.34.11.52-.56.46-.67.56-.22-.02-.46.03-.67,0-.44.3-1.74.24-2.24,0-.03-.44.1-.98-.45-1.12.02-.01-.09-.39.15-.45,1.11-.3,1.87.31,2.76.67Z" fill="#dcb485"/>
          <path d="M32.78,2.73l1.56-1.34v2.68c-.07-.04-1.4-.04-1.56,0-.2-.37-.15-.95,0-1.34Z" fill="#ecc13f"/>
          <path d="M32.78,2.73c.08.38-.06.93,0,1.34-.03,0-.09.28-.24.32-.62.19-1.22.31-1.77.57v-.44c.54.17.41-.43.45-.45.09-.67.75-.62.89,0,.15,0,.3.01.45,0v-1.57c.04.06.2.13.22.22Z" fill="#a77432"/>
          <path d="M32.55,14.35c.6.04,1.3.33,2.07.89.88.07,1.18.45.91,1.16.48.25.55.45.15.86-2.24.35-2.64.2-4.7-.45-.33-1.04,1.1-1.7.67-2.91.26.24.62.3.89.45Z" fill="#e6ac89"/>
          <path d="M36.58,13.23c.27.09.52-.22.41.3-.11.55-.8,1.73-1.08,2.38.2.3.5.52.89.67.23.04.56-.09.67.22-.79.03-1.07.33-1.79.45-.24-.3-.39-1.38-.5-1.51-.09-.12-2.22-1.17-2.63-1.39-.27-.36-.37-.64.24-.36,1.51.71,2.73,2.46,3.56-.31l-1.12-.67c.51-.1.88.08,1.34.22Z" fill="#b77c48"/>
          <path d="M35.68,9.21c-.02.21.12.39-.14.45-.21.05-2.01.06-2.1,0-.03-.02,0-.35,0-.45.85-.41,1.44-.13,2.24,0Z" fill="#b78357"/>
          <path d="M31.21,18.82c1.28.43,2.3.61,3.7.46.9-.09,1.51-.59,2.45-.48.43.05.42.39.56.46.11.02.21.04.25.11.16.26,1.33,2.19,1.28,2.31-.04.1-.11.18-.18.26.5.8.43,1.23-.21,1.28-1.59-.78-2.58.76-1.98,2.22-.08,1.78.05,3.52.4,5.22.2.04.19.12,0,.22-.02.45.02.9,0,1.34-.11.11-2.53-.08-3.03-.02-.43.05-.21.43-.64.48s-2.53.08-2.88,0c-.38-.09-.5-1.4-.67-1.73-.04-.09-.43-.25-.6-.52-.08-.14-.08-.47-.25-.74-.6-.96-1.84-1.81-1.76-3.06-.08-.18-.13-.38-.02-.5,1.23-1.33,1.83-2.15,1.93-4.08l.32-.12c.15-1.11.22-2.2.11-3.32l1.23.19Z" fill="#66b1e1"/>
          <path d="M38.37,19.27c-.37-1.93,1.76-1.63,2.8-.68,2.16,1.96,2.09,3.78,2.56,6.49-.73.05-1.52-.07-2.24,0-1.07-1.77-2.16-3.59-3.28-5.47l.15-.34Z" fill="#ed4b2c"/>
          <path d="M29.42,19.27c.42,1.42.17,4.26-.67,5.64-.31.51-1.03,1.54-1.57,1.07-.07-1.03-.51-.95-.45-2.24.59-.91,1.48-2.87-.22-2.68-.49-.67-.12-1.84-.22-2.68,1.54-.66,2.47-.98,3.13.89Z" fill="#ec4b2c"/>
          <path d="M39.71,23.97c1.09-.4,2.12.81,1.12,1.34-.28.43-.98.92-1.12,1.57-.22.59-.67.59-1.34,0-.64.13-.94-.39-.89-1.57-1.05.22-.55-1.8.1-2.15.57-.3,2.48-.12,2.14.81Z" fill="#e3b08d"/>
          <path d="M37.7,17.26c.09.44-.21.53-.51.72-1.91,1.21-6.42.79-7.98-.94,2.87.96,5.6,1.39,8.49.22Z" fill="#de4840"/>
          <path d="M29.87,21.95c-.41,2.48-.42,2.97-2.24,4.7-.04.04-.19-.04-.22,0-.3-.11-.21-.43-.22-.67,2.3-1.18,2.07-4.48,2.24-6.71.03-.34-.15-.77.22-.89.54.08.79.35.31.64.12.98.09,1.96-.09,2.94Z" fill="#9b343b"/>
          <path d="M38.37,19.27c1.03,1.95,2.65,3.6,3.13,5.81-.16.02-.44.24-.67.22.11-.16.31-.48.2-.64-.44-.24-.88-.47-1.32-.7v-.55c-.26-.45-.41-.94-.45-1.46-.53-.83-1.41-1.68-1.34-2.68.08.04.32-.03.45,0Z" fill="#a24041"/>
          <path d="M31.21,18.82l-1.12.12c.32,1.11-.05,1.98-.22,3.01-.05-1.19.16-2.43-.22-3.58.79-.27,1.2.32,1.57.45Z" fill="#a8596d"/>
          <path d="M39.71,26.87s.21.62.45.89c-.41-.18-.78-.02-1.12,0-.07,0-.15,0-.22,0-.4-.14-.67-.49-.45-.89.3.07,1.19-.09,1.34,0Z" fill="#a5828b"/>
          <path d="M40.16,38.5c2.46-.06,2.78.76,4.86,1.52,3.94,1.44,7.52,1.24,11.29,2.12,1.3.3,2.66,1.96,1.15,2.82s-8.05-.48-9.93-.98c-3.17-.83-6.74-2.14-9.16-4.36.04-.1-.07-.35.01-.5.42-.77,1.04-.6,1.78-.62Z" fill="#ed4a2a"/>
          <path d="M52.23,45.65c.08.11.13.2.11.22-.75.94-3.42,4.26-4.35,4.53-1.47.42-4.73-2.59-5.59-3.64-1.15-1.42-2.57-3.4-2.69-5.14,2.71,1.66,9.45,3.69,12.52,4.02Z" fill="#94674c"/>
          <path d="M39.04,41.18c1.89,3.78,4.38,8.21,8.74,9.3,1.72-1.18,3.24-2.72,4.56-4.6h.34s1.79,0,1.79,0c-.24.3-.33.72-.54,1.03-.56.84-4.48,5.3-5.15,5.69-1.22.7-2.45-.24-3.46-.81-2.17-1.24-4.58-3.34-6.02-5.38-.71-1.01-1.09-2.21-1.83-3.2-.61-.09-.22-2.74-.05-2.99l.5-.14c.51.27.65.73,1.12,1.12Z" fill="#f1c830"/>
          <path d="M39.71,41.63c.89,2.42,2.5,4.91,4.49,6.58.58.49,2.96,2.22,3.57,2.05,1.06-.29,3.51-3.72,4.47-4.61.15.02.3-.01.45,0v.22c-1.13,1.08-2.1,2.68-3.21,3.72-1.84,1.74-2.33,1.27-4.38-.05-2.87-1.84-4.98-5.18-6.05-8.37.03.03.58.39.67.45Z" fill="#d0a135"/>
          <path d="M37.92,38.95c-.07.24.07.66,0,.89-.02.07.02.15,0,.22-.34,1.36-.4,1.54-.45,3.13-.01.37,0,.75,0,1.12-.26.41-.34.97-.22,1.66l-.23.12c-.13.43-.32.43-.45,0-.13-.3-.13-.75,0-1.34-.51-1.25-.47-3.89.45-4.92.44-.49.44-.79,0-.89-.13-.59,1.48-.85.89,0Z" fill="#5e7c76"/>
          <path d="M52.9,41.18c.15-1.4-.72-2.9-.88-4.15-.04-.29-.13-.68.32-.54.52.16,1.13,3.95,1.23,4.7-.22-.02-.45.02-.67,0Z" fill="#6e4a34"/>
          <path d="M46.06,54.23c.87-1.42,3.71-.93,3.89.98.34,3.58-6.2,2.79-3.89-.98Z" fill="#f1c92d"/>
          <path d="M37.47,44.31c0,.15,0,.3,0,.45-.01.45.01.9,0,1.34-.15,0-.3,0-.45,0-.01.35.06,1.7,0,1.79-.03.03-.34-.02-.45,0,0,.34.06,1.71,0,1.79-.03.03-.34-.02-.45,0-.02.5.1,1.2,0,1.64-.04.19-.32-.02-.44.6-.15.46-.32.48-.45,0-.23-.37.35-3.18.89-2.24-.75-.06-.01-3.12.45-1.79-.48-.49-.29-1.19,0-1.79.15,0,.3,0,.45,0,.03-.68-.29-2.01.45-1.79Z" fill="#a3615b"/>
          <path d="M7.29,63.76c.12-.26,1.3-.93,1.56-.67.29,1.34,1.06,3.29,1.79,4.47.03.21-.05.49,0,.67-1.06.24-2.34-2.56-1.79-3.35-.15-.38-.13-.84-.56-1.11-.38.53-.28.74-1.01.67.04-.19-.06-.54,0-.67Z" fill="#823e2a"/>
          <path d="M15.56,42.52c.12.14.28.34.22.47-.27.5-2.5,3.75-2.8,4h-.55c.04-.35-.07-1.72,0-1.78.08-.08.82.08.9,0,.04-.05-.05-.68.04-.97s.39-.34.4-.38c.23-.39.52-.76.89-1.12.06-.02.14-.17.22-.22.19.04.46-.03.67,0Z" fill="#a93126"/>
          <path d="M14.67,42.75c.15.48-.39,1.09-.89,1.12.06-.13-.04-.48,0-.67.35-.18.45-.27.89-.45Z" fill="#8a4239"/>
          <path d="M25.4,40.06c.33,1.1-.29,3.75,0,4.99.04.17.4.14.44.31.14.57-.13,1.36.01,1.93.05.2.78,1.82.87,2.11.19.61.62,1.98.69,2.51.69.59.31,5.55,0,5.9-.26.14-.56.04-.9-.31-1.19.04-1.49-.29-2.37-.42-1.99-.29-3.9-.47-5.9-.25-.08-.93.7-1.53,1.05-2.42.45-1.17.61-2.65,1.03-3.89,1.21-3.53,2.52-7.76,5.08-10.46Z" fill="#97b63e"/>
          <path d="M16.9,56.83c.33-.74.55-.52.67.67.34.12,3.02-.28,3.91-.22,1.78.13,3.66.88,5.48.89.53.11.23,1.22-.22,1.34-.66.24-1.66.18-2.4.09-2.76-.73-5.62-.94-8.47-.76-.4-.11.5-2.02,1.03-2.01Z" fill="#edc936"/>
          <path d="M20.93,46.99c-.89,2.37-1.39,4.89-2.23,7.27-.39,1.1-1.27,2.01-1.12,3.24-.3-.11-.08-.88-.67-.67-.25-.25-.02-.67.22-.89.79-3.2,1.91-6.26,3.35-9.17l.45.22Z" fill="#e0be43"/>
          <path d="M27.41,51.91c.17.47.41.35.67.45.6.75.76,1.76.47,3.04-.68,2.86-1.06,5.7-1.13,8.51l-.45.31c-.32-.09-.51-.44-.55-1.02-.4-.45-.87-.98-.15-1.31-.12-.87.04-1.59.47-2.14-.2-.04-.19-.12,0-.22,0-.47.25-1.09.22-1.34-.02-.16-.37-.48-.45-.67.22,0,.45.01.67,0,.18-.22.3-4.97.22-5.59Z" fill="#809b37"/>
          <path d="M34.34,52.36c-.35,2.31-1.76,4.35-3.59,5.79-.08.86-.23,1.61-.43,2.26-.06,1.78.21,3.63-.22,5.37-.07-.04-.36.08-.49-.02-1.01-.71-.8-.23-1.81-.43-.18-.04-.15-.6-.6-.44-.6-.06-.7-.29-.22-.67l.03-2.99c.57-2.92,1.49-5.84,1.09-8.86.14-.15.31-.27.5-.23,1.98.35,3.45.26,5.44-.11.17-.02.28.14.33.34Z" fill="#96b542"/>
          <path d="M28.08,67.12c.04-.28-.15-.56.34-.45.13.03,1.36.45,1.42.5.09.09,0,.43.08.56.26.37,1.22-.13.85,1.48-.05.23-.68,0-.45.59.2.04.5-.05.67,0v2.01c-1.32.39-1.44-.54-2.46-.67-.03-.26-.01-.62,0-.89l-.21-.23c.19-.94.27-2.06-.24-2.9Z" fill="#abae3d"/>
          <path d="M26.74,59.74c-.02.89.02,1.79,0,2.68-1.34-.49-.02.52,0,.6.09.37.12.74.23,1.19.05.2.18.38.22.67.03.18.02.49,0,.67-.15.06-.3.18-.45.22-.8-.07-1.11-.72-.93-1.97-.72-1.01-.95-2-.68-2.99-.63-.15-.91-.43-.85-.86-.07-.23,0-.4.23-.39l2.23.16Z" fill="#d1642b"/>
          <path d="M28.08,67.12c.95,0,.7,1.99.68,2.59,0,.29-.23.51-.23.54-.69.17-.43-.52-.45-1.12-.4-.43-.54-1.25,0-1.57,0-.15-.02-.31,0-.45Z" fill="#85993f"/>
          <path d="M28.08,67.56c-.02.51-.02,1.05,0,1.57-.63.35-.76-1.68-.67-1.79l.67.22Z" fill="#ded285"/>
          <path d="M8.86,64.88c.45,1.13.86,2.49,1.79,3.35.32,1.23,2.04,2.46,2.91,3.35-1.32.75-3.04.9-4.41,1.52-.65.3-3.17,2.24-3.64,1.83.7-3.46,1.62-6.88,2.57-10.29l.79.23Z" fill="#e94a30"/>
          <path d="M58.71,29.33c.45,1.85,2.15,5.66-1.03,5.79-.19,0-1.55-.19-1.62-.24-.28-.18-.43-3.04-1.16-3.54,1.33-.99,1.92-1.28,3.8-2.01Z" fill="#91674d"/>
          <path d="M31.44,80.75c.57-.35,1.04.35.89.89-.05.08.58.82-.11.67-.78-.16-1.06-1.42-2.12-1.12,0-.02-.27-.16-.13-.43.37-.68.95-.39,1.47-.02Z" fill="#e8ddd7"/>
          <path d="M32.78,80.98c.24.78-.42.63-.45.67-.43-.14-.58-.67-.89-.89v-.67c1.07.15.76.35,1.34.89Z" fill="#6f5642"/>
          <path d="M28.98,35.82c-.48-1.93.48-2.13,2.08-2.35,2.3-.17,4.58-.41,6.84-.71.17.26.13.55.03.83.11.09.2.17.19.24-.06.46-1.93,2.99-2.43,3.34-.04.56-1.24.91-1.97,1.08-1-.13-1.84.1-2.5.71-.4.51-1.01.64-1.34,0-.36-1.09-.82-1.92-.89-3.13Z" fill="#f0c831"/>
          <path d="M38.14,32.69c.45.15.24.94-.22.89.13-.67-.34-.44-.77-.45-1.8-.05-4.82.45-6.55.84-1.36.31-1.74.02-1.62,1.84-.6-.79-.05-2.53.89-2.68,1.35-.22,3.23.2,4.6.02.41-.05.29-.42.47-.46.95-.22,2.61.49,3.2-.45.14.05.14.2,0,.45Z" fill="#c2ac4d"/>
          <path d="M29.2,38.94c-.23.18-3.58-1.19-2.81-2.24.86-1.18,2.71,1.37,2.81,2.24Z" fill="#9fb444"/>
          <path d="M28.31,36.26c-.05.05-1.29-.4-1.33-.46-.54-.75,1.79-2.18,1.33.46Z" fill="#99ac4c"/>
          <path d="M31.21,38.95c1.04.18-.26,1.64-.89.89-.25.4-1.51.32-1.79,0v-.45c.46.08,1.08-.06,1.57,0-.05-.15-.17-.29-.22-.45.44-.02.9.03,1.34,0Z" fill="#89a281"/>
          <path d="M36.58,15.92c-.37.5-.19.37.22.67-.38-.06-.75-.11-1.12-.23-.11-.36.2-.39.22-.45.22-.02.46.03.67,0Z" fill="#e6ac89"/>
          <path d="M23.39,40.96c-.82,1.51-1.76,2.8-2.46,4.47-1.49,3.45-2.83,6.95-4.02,10.51-.23.81-.6,1.64-1.11,2.48l.35.42c2.61-.2,5.13.11,7.68.64.27.06.43.17.46.49.3.12,1.5.62,1.56.79.18.44-.36.27-.4.44-.25,1.09.63,1.84.8,2.52.13.52-.04,1.02.06,1.47.04.18.6.15.44.6-2.91.84-4.3,2.97-6.71,4.25l-1.12.22c-.55.23-.6.44-1.57.67-1.73-.15-.55-.82-.45-1.12.45.4.39-2.22-.22-2.01-.05-.25-.19-1.28-.22-1.34.28-.22.2-.44-.22-.67-.07-.55-.29-1.12-.89-.89-.03-.28.05-.64,0-.89-1.29-1.83-1.81-4.28-2.01-6.04-.43-.7-1-2.09-1.34-2.91-.25-2.3-.17-4.61.22-6.93.09-.39.18-.71.22-1.12l3.13-4.47c.1-.43.43-.34.67-.45,1.95-.9,5.01-.75,7.15-1.12Z" fill="#ee4b29"/>
          <path d="M18.92,70.25c0-.65.23-1.23.24-1.89.01-.89-.49-1.96.1-2.58l.56,2.36c.14.42-.8,1.99.22,1.89-.58.31-.89.13-1.12.22Z" fill="#c92919"/>
          <path d="M32.11,4.07c-.22.01-.82-.05-.89,0-.89.08-.43-1.68-.49-2.07-.04-.23-.58-.5-.29-.61.88.58,2.33,1.52,1.67,2.69Z" fill="#e64f31"/>
          <path d="M20.48,46.77c-1.21,3.02-2.14,6.18-3.35,9.17-.06.2-.14.19-.22,0,.72-1.82,1.14-4.13,1.87-6.07.54-1.43,1.32-3.19,2.15-4.44-.14.34-.26.88-.45,1.34Z" fill="#e48b2c"/>
          <path d="M26.74,39.84c.07-.01.15,0,.22,0,.43.13.44.33,0,.45l.3.6c-.97,1.42.82,9.75,1.74,10.57.28.25,5.04-.02,5.42-.38.68-2,1.24-4.04,1.66-6.12l.49-.21v1.34c0,.6.01,1.19,0,1.79-.1.01-.42-.04-.45,0-.06.08.01,1.44,0,1.79-.84.12-.27.2-.46.99-.1.4-.29.85-.43,1.25.21.41-.03.65-.45.45-.24.33-.35.43-.45,0-2.33-.03-3.51,1.06-6.26,0-.28-2.11-1.91-5.21-2.22-7.5-.16-1.13-.36-4.81.88-5.02Z" fill="#3b808c"/>
          <path d="M26.74,23.74c.01-.22-.03-.46,0-.67.04-.32.5-.67.45-1.22s-.53-.59-.68-.79c-.12-.62.3-.56.68-.34,1.17.69.61,2.47-.45,3.02Z" fill="#c52517"/>
          <path d="M28.53,39.84h1.79c1.17.37-.3,1.21-1.27.87-.75.72-2.28.88-2.08-.42.03-.12-.02-.31,0-.45.5-.04,1.06,0,1.57,0Z" fill="#7dabae"/>
          <path d="M58.94,28.21c0,.15,0,.3,0,.45-.75.4-1.67.48-2.43.81-.83.36-2.07,1.63-2.71.86-.22-1.04,4.16-2.94,5.14-2.12Z" fill="#e84b35"/>
          <path d="M51.33,83.44c-.26.27-.82-.43-.89-.79-.34-1.78.68-2.73.68-3.8,0-.45-.72-1.6-.46-1.9.71-.84.94,2.35.88,2.78-.1.67-.64,1.26-.67,2.03-.02.54.55,1.57.46,1.67Z" fill="#6c4a32"/>
          <path d="M47.53,66.89l-.55,2.46c-.91-.42.04-3.03.55-2.46Z" fill="#714e35"/>
          <path d="M49.99,31.34c.35.32-1.49,4.31-2.46,4.47.23-1.14,1.08-1.95,1.51-3.07.18-.47.28-2.02.94-1.4Z" fill="#6d4932"/>
          <path d="M51.78,26.87c.62-.15.37.33.45.45.44.86.74,1.68.89,2.46-.06.08.04.5,0,.67-.91-.92-1.55-1.26-1.58-2.82,0-.44.24-.71.24-.76Z" fill="#744832"/>
          <path d="M46.64,33.36c.27.49-.86,1.6-1.12,1.34-.16-.41.84-1.65,1.12-1.34Z" fill="#704931"/>
          <path d="M38.37,26.87c.16.23.66.26.45.89-.15.01-.3,0-.45,0-.2.78.06,1.58.75,2.4l-.08.28c-.06.07-.2.35-.22.45-.19.1-.41.1-.67,0-.26.22-.54-.2-.67-.45-.35-.5-.54-4.85-.34-5.01.09-.07.21-.11.34-.14.21.53.62,1.15.89,1.57Z" fill="#8e4653"/>
          <path d="M38.81,31.79c-.29,2.63-.66,2.35-1.86,4.3-.13.21-.81,1.43-.82,1.51-.07.59-.28.57-.45,0-.41.04-.3-.25,0-.45.24-1.05,1.75-2.28,2.24-3.58.15-.39.22-.34.22-.89-.02-1.11.2-1.41.67-.89Z" fill="#6a4d1d"/>
          <path d="M36.13,37.6c-.32,1.78,1.95.17,2.23.45.24.53-.43.84-.45.89-.23-.57-.78-.01-.89,0-.31.31-1.01.32-1.34,0-.69.03-.64-.74,0-.89-.44-.13-.44-.32,0-.45h.45Z" fill="#52534f"/>
          <path d="M38.37,27.77c.16.9.58,1.73,1.12,2.46-.08.04-.43.21-.45.22-.47-.32-1.37-2.34-1.12-2.68.15-.01.3,0,.45,0Z" fill="#b1728d"/>
          <path d="M37.47,30.45c.39-.09.48.18.67.45.27,0,.49.23.67.67,0,.07,0,.15,0,.22-.74-.18-.23.53-.67.89,0-.14.02-.32,0-.45-.06-.37-.36-1.08-.67-1.34,0-.07,0-.15,0-.22-.12-.05-.11-.13,0-.22Z" fill="#7a495f"/>
          <path d="M38.81,30.9c-.04.17.02.46,0,.67-.58.15-.46-.39-.67-.67-.07-.81.19-.29.67,0Z" fill="#a86f80"/>
          <path d="M54.47,25.75c-.31-.3-.61-.38-.89-.22-.15-.08-.3-.15-.45-.22,0-.07,0-.15,0-.22,0-.32.26-.74.23-1.11,1.02-.44,2.18,1.51,1.11,1.78Z" fill="#714d38"/>
          <path d="M54.47,25.75c-.44.11-.58-.06-.89-.22.13-1.07.99-.76.89.22Z" fill="#482612"/>
          <path d="M52.23,27.32c.4.61,1.52,1.59,1.35,2.32-.05.23-.44.12-.46.14-.72-.67-1.03-1.47-.89-2.46Z" fill="#9f5c4a"/>
          <path d="M11.99,55.04c-.13-.31-.38-.3-.45-1-.17-1.58.13-3.43,0-5.04l.44.23c-.09-.43.14-.77.23-1.12.81,2.32-.55,4.59-.22,6.93Z" fill="#b43426"/>
          <path d="M13.33,57.95s.39-.1.45.15c.12.46-.09,1.19,0,1.74.27,1.52,1.26,2.64,1.55,4.15-.59.13-.45-.3-.6-.61-.88-1.79-1.71-3.34-1.41-5.42Z" fill="#cd5032"/>
          <path d="M13.55,73.15c-.03.61.08,1.25-.05,1.85-.19.87-.91,1.22-.68,0,.09-.5.2-.99.29-1.51.06-.37-.13-.38.44-.34Z" fill="#6f4b32"/>
          <path d="M16.23,65.77c3.36-.42,3.76-5.12,7.82-4.25.05.58.04.37-.34.44-.52.09-.98.07-1.55.24-2.53.77-2.8,3.82-5.72,4.23-.02-.03-.42.1-.45-.14-.03-.18.24-.46.23-.53Z" fill="#c72515"/>
          <path d="M16.68,67.79c-.12-.6.32-.62.56-.23.22.35.12,1.41.11,1.91-.01.39.07.91-.45.33.13-.37-.12-1.54-.22-2.01Z" fill="#cb2412"/>
          <path d="M22.68,17.89c-.52.81-1.42-.14-1.69-.82-.52-1.3-.82-2.76-1.85-3.9-.45-.5-3.68-2.26-1.79-3.19,2.12-1.04,4.09,2.13,4.74,3.76.33.83,1.03,3.47.59,4.14Z" fill="#eccc2f"/>
          <path d="M19.14,19.49c.06.26-.08,1.01,0,1.12.4.52.37-.65.78-.44s.44,1.03.34,1.41c-.05.18-.44.13-.44.28,0,.12.42,1.02-.11.98-.32-.02-1.58-3.01-1.23-3.35h.67Z" fill="#7d9e3b"/>
          <path d="M21.6,9.88l-2.79-2.01c-1.13-.47-.48-1.02.46-.46.21.13.39.51.66.68.67.45,1.77.67,1.68,1.79Z" fill="#7a9b36"/>
          <path d="M16.9,14.57c-1.17-.17-1.22-1.28-1.12-2.23.8-.24,1.21,2.13,1.12,2.23Z" fill="#7e9d38"/>
          <path d="M22.05,11.44c-.78.14-1.29-.65-1.34-1.34.25-.25,1.6,1.11,1.34,1.34Z" fill="#7a9b36"/>
          <path d="M30.99,61.97c2.09.52,3.77,2.59,5.46.21.79-1.11.67-1.99,1.91-3.01,4.3-3.52,9.04,4.02,13.42,0,.58-.53,1.91-2.62,2.35-2.8.41-.16.41.26.3.52-.14.35-2.68,3.12-3.09,3.4-3.97,2.77-9.45-3.73-12.76-.69-.9.82-1.09,2.28-1.91,3.23-1.9,2.2-3.81.38-5.91-.43,0-.2.22-.4.22-.45Z" fill="#c72516"/>
          <path d="M39.04,56.61c-.31.33-.41-.03-.45-.34-.1-.85.28-1.87.23-2.9-.02-.42-.17-1.33-.28-1.73-.06-.22-.58-.66-.39-.84,1.03-.95,1.36,3.02,1.34,3.46-.02.29-.37,2.27-.45,2.35Z" fill="#cb2819"/>
          <path d="M38.81,61.08c.05.92-.3,1.93-.71,2.75-.17.33-2,3.03-2.42,2.61.22-.91,1.16-1.53,1.61-2.3.55-.95.52-1.64.85-2.5.13-.35.19-.65.67-.56Z" fill="#c92616"/>
          <path d="M35.68,51.91c-.27,1.32-.38.7-.77,1.57-.56,1.25-.14,1.55-1.47,2.45-.17-.07-.36-.19-.32-.3.3-.98,1.08-2.54,1.67-3.27.12-.28.44-.42.45-.45h.45Z" fill="#cf7131"/>
          <path d="M54.91,62.42c-.67.11-.36-.16-.45-.54-.28-1.14-.38-2.34-.66-3.48.53-.61,1.07,2.15,1.09,2.37.07.55.01,1.11.02,1.65Z" fill="#c82715"/>
          <path d="M51.11,64.21c-.6.57-.47-1.43-.45-1.69.2-2.59,1.27.91.45,1.69Z" fill="#d02b19"/>
          <path d="M33.45,55.94c-.04.26.07.49-.07.83-.03.07-1.03.96-1.27.96.01-.15,0-.3,0-.45-.11-.46.77-1.68,1.34-1.34Z" fill="#c77032"/>
          <path d="M30.77,64.66c.57-.09.71-1.37,1.34-1-.14.63-.65,1.37-1.34,1.45,0-.15,0-.3,0-.45Z" fill="#c12715"/>
          <path d="M34.79,52.36c-.39.93-1.18,2.67-1.34,3.58-.86.58-.74.73-1.34,1.34-.1.1-1.2.77-1.27.95-.17.44-.04.95-.07,1.41-.02.43.23.9-.45.77.11-3.11.3-1.91,1.79-3.91.92-1.23,1.68-2.7,2.24-4.14.15,0,.3,0,.45,0Z" fill="#958e38"/>
          <path d="M39.26,21.95c.37.59,1.5,1.56.45,2.01-.49-.26-1.36-1.03-1.98-.64-.06.04-.63,1.13-.63,1.2,0,.04.29.57.37.78-.43,1.63.02,3.38,0,5.14,0,.07,0,.15,0,.22-.51-.16-.43-.58-.46-.99-.13-1.94-.02-2.74-.42-4.72-.14-.68.26-1.7.88-2,.86-.42,2.11.54,1.79-1Z" fill="#878c92"/>
          <path d="M29.65,25.98c.41-.45,1.57,2,1.67,2.24s.94,2.25.23,2.23l-1.9-4.47Z" fill="#2a7db7"/>
          <path d="M32.56,28.89c.5-.1.5.25.68.55.23.4.63.96.78,1.24.16.3.01.62-.23.67-.65.13-1.46-1.86-1.23-2.46Z" fill="#2e81ba"/>
          <path d="M36.8,22.63h-.67c.23-.51-.45-2.56.11-2.68.87-.18.48,2.24.55,2.68Z" fill="#3182bc"/>
          <path d="M33.22,21.51c.12.11-1.19,3.12-1.56,2.68-.24-.29.61-2.04.83-2.4.2-.32.53-.46.73-.28Z" fill="#2c7eb7"/>
          <path d="M41.72,20.83c-.24-.08-1.5-.41-1.34-.78.33-.75,1.63.07,1.34.78Z" fill="#c92716"/>
          <path d="M35.68,38.05c.01.27-.06.68,0,.89l.53.22c1.19-.26,1.46-.04.81.67-.29,1.65-.18,3.26-.45,4.92-.13.82-1.47,6.28-1.78,6.6-.6.62-5.35.79-6.04.45-.35-.17-1.51-4.11-1.68-4.81-.58-2.52-.84-4.2-.11-6.71.22.53.73.55,1.24.47.43-.07.3-.42.48-.46.47-.1,1.07.11,1.49,0,.25-.06.12-.43.15-.45.1-.08.68-.26.83-.51.1-.17.05-.35.07-.38.51-.66,1.25-.74,2.05-.67.36-.2,2.22-.73,2.31-.58.06.11.09.23.11.35Z" fill="#65b1e1"/>
          <path d="M37.03,38.95c.72-.16.57.62,0,.89.04-.25.13-.45.22-.67-.16-.13-1.32.69-1.56-.23.44-.03.91.05,1.34,0Z" fill="#6393b4"/>
          <path d="M17.13,55.94c-.09.21-.06.54-.22.89-.29.64-.86,1.03-.89,1.79,3.71-.38,7.11.64,10.73.9,0,.07,0,.15,0,.22-.75.47-1.61-.11-2.46.22-2.86-1.13-5.67-.91-8.72-.89-.5-.52,1.13-2.59,1.34-3.13h.22Z" fill="#e6912c"/>
          <path d="M29.87,56.16c.09-.47,1.1-1.33,1.45-1.57.29-.19.49-.23.56.12.08.41-1.41,1.79-2.01,1.45Z" fill="#799c34"/>
          <path d="M28.31,60.41c0,.48.02.97,0,1.46-.02.34.21.88-.33.78-.62-.55-.26-1.51-.34-2.23h.67Z" fill="#7b9d35"/>
          <path d="M10.42,68.91v.67c-.98-.03-1.76.6-2.72.74-.21.03-.86.25-.85-.18,0-.19,3.44-1.36,3.57-1.23Z" fill="#ca2918"/>
          <path d="M9.08,70.47c.03,1.22.18,2.69-1.34,2.91.5-1.02.86-1.69.67-2.91h.67Z" fill="#ca2918"/>
          <path d="M7.51,71.14c.25.24-.31,3.36-.89,2.68.05-.7.17-1.53.39-2.19.12-.38-.1-.59.51-.49Z" fill="#ca2818"/>
          <path d="M11.31,71.81c-.75.16-.46-1.39-.67-1.79.78.31.72,1.07.67,1.79Z" fill="#c72515"/>
          <path d="M57.15,33.58c-.31.33-1.56-1.19-.78-1.34.54-.11.93.88.78,1.34Z" fill="#68472d"/>
          <path d="M59.16,32.24c.09.63-.15,1.35-.89,1.34-.11-.11.32-1.55.89-1.34Z" fill="#6b472e"/>
          <path d="M35.46,34.03c-.27,1.25-1.94,1.21-2.74,1.61-.9.45-.39.42-1.57.7-.66.16-1,.84-1.72-.2l2.51-.61,3.52-1.5Z" fill="#d7ab1d"/>
          <path d="M35.68,37.16c-.03.13.02.3,0,.45s0,.3,0,.45c-.88-.39-1.4.43-1.66.46-.54.07-1.25-.14-1.76-.01-.19.05.07.35-1.05.44.02-.03-.03-.21.07-.38.51-.84,1.31-.36,2.01-.52.17-.04.14-.4.3-.44.46-.1,1.02.09,1.48,0,.18-.04.15-.6.6-.44Z" fill="#9a8"/>
          <path d="M22.27,63.31c-.3.55.59,2.97.45,3.13-.58.65-1.06-2.15-1.09-2.38-.08-.75-.17-.84.64-.75Z" fill="#cd2a15"/>
          <path d="M34.57,48.56c.59-.52.84,1.3-.61,1.3-.38,0-.54-.41-.9-.57-.26-.11-.66-.02-.95-.17-.34-.17-1.06-1.94-.89-2.12.46-.51.96,1.36,1.11,1.46.25.16.75.07,1.12.22.23.1.43.52.57.55.5.12.47-.59.56-.67Z" fill="#277cb6"/>
          <path d="M28.31,42.08c.09.08-.29,1.67-.2,2.33s1.08,1.91.87,2.14c-.51.56-1.49-1.7-1.54-2.14-.06-.46.01-3.13.87-2.33Z" fill="#2a7eb8"/>
          <path d="M35.01,39.39v2.68s-.67,0-.67,0c.15-.82-.49-2.61.67-2.68Z" fill="#2f81b7"/>
        </g>
      </g>
    </g>
  </g>
</svg>