<?xml version="1.0" encoding="UTF-8"?>
<svg id="Layer_2" data-name="Layer 2" xmlns="http://www.w3.org/2000/svg" viewBox="0 0 64 96">
  <g id="Cards">
    <g id="Clubs">
      <g id="FourOfClubs">
        <path d="M60.78,88.09v1.58h3.22v1.32l-3.42,5h-1.27v-5h-.98v-1.33h.98v-1.58h1.46ZM60.78,91v2.69l1.81-2.69h-1.81Z" fill="#3b920f"/>
        <path d="M3.22,7.91v-1.58H0v-1.32L3.42,0h1.27v5h.98v1.33h-.98v1.58h-1.46ZM3.22,5v-2.69l-1.81,2.69h1.81Z" fill="#3b920f"/>
        <g>
          <path d="M44.63,24.22c.46.31.67-.35.53-.8.26-.39.35-1.01.27-1.86l.72-.51c.87-3.7,2.23-7.15,4.09-10.35l-.02-.86.7-.12c.83-2.02,3.74-2.61,5.7-2.01l-.02.63c2.24,2.12,1.57,6.04.64,8.67l.44.55c-.58.41-.28.82.27,1.07.03-.08.3-.24.4-.52,1.68-4.59,1.63-13.95-5.64-11.25-5.61,2.09-6.96,12.27-8.61,17.36.08.71.33.68.53,0Z" fill="#aa3b30"/>
          <path d="M44.63,34.34c.26-.65.18-.91-.27-.8-.49-.18-.69-.06-.81.4-1.94-.41-1.56,1.98-.52,2.79l-.53.31c.66.57.32,1.35,0,1.55-.24-.49-.84-.47-1.79.04.33-.38.4-.74.2-1.1.77-.34.7-.65,0-1.07l.6-.43c.87-2.74,1.75-5.48,2.65-8.21,1.52-.23,2.17-2.16,2.23-3.54.03-.8-.08-2.64-.95-2.74-.26.79-.28.97-.27,1.86-.13,1.17-.31,1.44-.53.8h-.53c-1.36,4.2-2.74,9.07-4.33,13.12-.39.99-1.15,1.68-1.27,2.72.32.49.39.27.74.23.7-.08,3.31-.85,3.81-1.27,1.13-.96.9-3.27,1.58-4.68Z" fill="#ad382e"/>
          <path d="M55.82,22.09c-.3-.45-.77-.23-.8.27-.91-.49-2.86,1.49-2.4,2.4-.98.3-1.25.74-.8,1.33-.6.01-1.08.46-1.45,1.35-.58.31-.98.66-1.21,1.05-.2.09-.46.09-.8,0-.77.09-.88.38-.53,1.07-1.22.34-3.09,2.4-3.2,3.73-.38-.35-.53-.19-.27.27l.27.8c.34-.71,3.33-4.23,3.98-4.68,1.14-.77,2.21-.62,3.21-2.11.47-.7.43-1.29.79-1.88.69-1.13,2.82-2.14,3.2-3.59Z" fill="#a63f31"/>
          <path d="M55.02,22.36s.22.14.8-.27c.2-.14.36-.36.53-.53.33-.46.35-.65-.27-.53-.74-.42.44-2.13,1.07-1.6-.29.5-.32.86.27.53.14-.3.39-.96.53-1.33.21-.35-.27-1.01-.27-1.07-1.3-1.05-3.6,1.54-3.83,2.93-.15.91.14,2.31,1.16,1.87Z" fill="#b03313"/>
          <path d="M57.41,19.96c-.26-.07-.25-.31-.27-.53-.83-.28-1.51.9-1.07,1.6l.27.53c.85-.81.61-.65,1.07-1.6Z" fill="#9e4d37"/>
          <path d="M43.03,36.74c0-.99-.07-.61-.25-1.48-.35-1.62.72-.52,1.07-.76.16-.11.28-.68.52-.95.08-.09.19-.17.27-.27.15-.78.44-1.51.87-2.17-.41-1.32-.12-1.72.87-1.18.47-.25.96-.37,1.45-.37.22-.34.51-.62.53-1.07l.27-.26c-.62-1.99,1.63-3.41,3.37-2.85l.63-.62c.63-.86,1.52-1.79,2.4-2.4-1.96-1.66.73-4.5,2.66-4.79.04-.68.68-1.96.77-2.82.26-2.4.43-5.62-1.84-7.03-.59-.26-1.03-.26-1.33,0-1.66.48-2.91,1.28-3.73,2.4-.12-.85-.79-.94-1.33-.27-2.49,3.11-3.55,7.84-4.79,11.72.27,1.87.76,2.27.07,4.2-.46,1.27-.45,1.23-1.81,1.65-.47,2.87-2.5,6.26-2.79,9.06.44.42,1.15.51,2.13.27Z" fill="#ef6230"/>
          <path d="M51.56,10.11c.79-1.12,2.03-1.92,3.73-2.4.44-.02.89.01,1.33,0-1.77-1.1-4.06-.37-5.58.95-.52.45-.52.82-.82,1.18.4-.07,1.04.31,1.33.27Z" fill="#e8543c"/>
          <path d="M45.16,23.42c-.14.23-.47.57-.53.8-.16.55-.17,1.52-.26,2.13.25.33,1.05-1.93,1.06-2.3s-.26-.59-.26-.63Z" fill="#e05d48"/>
          <path d="M42.5,38.6c1.3-1.41-.67-2.8-1.6-1.07-.27.18-1.36,1.54-1.06,1.86.09.1,2.3-.68,2.66-.8Z" fill="#e85536"/>
          <path d="M42.5,38.6c.13-.04.47.07.52,0,.08-.11,0-1.48,0-1.86-.67-.75-1.27-.28-2.13-.27-.04.35.02.71,0,1.07.55-.37,1.25-.27,1.86-.27l-.27,1.33Z" fill="#ca3112"/>
          <path d="M44.63,33.28c.99-1.2,2.4-2.47,3.2-3.73-.43-1.24-1.48.07-1.59,0-.07-.05.17-.6-.41-.54-.42.05-1.22.75-1.15,1.16.03.19.39.41.4.59.01.24-1.29,1.52-.45,2.53Z" fill="#c73526"/>
          <path d="M51.82,26.09c.55-1.14-.79-.96-1.63-.65-1.32.48-2.51,2.27-1.03,3.05,1.64.09,1.97-1.39,2.66-2.4Z" fill="#ec9f43"/>
          <path d="M48.36,28.48c.32.62,1.25,1.13.8,0-.35-.86-.48-1.54.28-2.25.48-.45,2.02-1.17,2.38-.15.24-.35.58-1.04.8-1.33-.51.35-1.02,0-1.6.11-1.68.31-3.59,1.82-2.66,3.62Z" fill="#b9370f"/>
          <path d="M56.08,21.03c.42-.4.58-1.22,1.07-1.6-.02-.31.14-.9-.13-1.06-.73.33-2.49,2.54-2,3.19.28-.19.87-.35,1.06-.53Z" fill="#f0954f"/>
          <path d="M49.86,18.88c.72.12,2.29-3.34,3.02-4.12.84-.89,4.76-2.58,3.09-3.88-1.52-1.19-3.77.44-4.79,1.65-1.21,1.42-3.05,4.87-1.32,6.35Z" fill="#f6c92f"/>
          <path d="M52.36,21.82c-.18-.72-.33-1.08-.75-.35-.86,1.5.45,1.21.47,1.54,0,.05-.81.66-.53.93.77.71,1.1-1.1,1.22-1.31.09-.15,1.71-2.22.51-2.15-.35.02-.39,1.27-.93,1.33Z" fill="#c62e18"/>
          <path d="M51.56,10.11c.29-.04,1.15-1.06,1.84-.96l1.89-1.44c-.91.04-4.49.9-3.73,2.4Z" fill="#c52d14"/>
          <path d="M57.41,13.57s-.77-.11-.82.15l-.37,2.24c.86.15,1.33-2.27,1.19-2.39Z" fill="#c53219"/>
          <path d="M42.23,37.54c-.18-.16-.93.06-1.06.4-.35.93,1.6.1,1.06-.4Z" fill="#fd9151"/>
        </g>
        <g>
          <path d="M21.79,22.36c-.15-.95-.69-1.09-.96-1.74-.9-2.13-.72-4.81-1.98-7.26-1.87-3.62-9.49-10.3-12.76-5.04-2.02,3.24-.6,6.71,1.28,9.6,4.37,6.74,11.31,13.08,15.82,19.85.46.69,1.1,3.06,1.92,2.53.19-.12,1.32-3.82,1.29-4.2-.09-1.29-1.6-2.19-2.29-3.1-1.08-1.41-2.24-4.94-2.3-6.71-.04-1.19.67-2.58-.02-3.68.06,1.24-.24,2.28-.91,3.14l.4.71c-.7-.07-.79.35-.26.77-.56.19-.25,1.43-.1,2.06l-.16.51c0,1.52.59,2.38,1.81,2.56l.25.51c-2.3.12.12,2.54,1.28,1.8.15.48.58.74,1.28.77l-.33.45c.07.87-.14,1.9-.95,2.37-.2,0-.5-1.34-.42-1.96-.17-.15-.38-.17-.6-.09-.02-.23-.06-.47-.13-.69-.24-.8-3.91-5.36-4.63-5.74-.2-.1-.41-.18-.63-.24-.92-1.45-1.95-2.82-3.08-4.11l-.02-.73c-2.69-2.7-5.21-5.67-7-9.05l-.68-.24c-.37-1.47-.89-3.61-.58-5.16.43-2.17,2.54-3.58,4.69-2.8l.33.66c2.19.71,3.88,2.18,4.88,4.25l.69.22c-.07.52.03.86.51.51.2.73.83,1.97,1.54,2.05-.44,1.09-.35,1.69.26,1.8-.68.59-.16,3.44.77,3.59-.46.88-.1,1.02.77,1.03-.47.6-.23.96.51.77.2.67.28.67.51,0Z" fill="#81944f"/>
          <path d="M21.28,26.46c.13-1.1.5-1.63.53-1.91.06-.46.03-1.45-.02-1.94,0-.08.01-.17,0-.26h-.51s-.44.33-.44.33c.63,4.28-2.06.59-.08-1.1-.09-.18-.62-.53-.77-1.03-.89-.49-1.61,1.48-1.71,2.24-.27,2.03,1.09,3.39,2.99,3.67Z" fill="#939c36"/>
          <path d="M24.1,34.67c-.29-.07-1.71-.96-1.8-1.16-.15-.47.26-.36.51-.64l-.34-.44c-1.39-.15-1.66-1.45-1.71-2.64l.04-.36c-.88-.38-.88-.74,0-1.07-.18-.59-.11-.97.21-1.14,0-.04.21-.39.26-.77-.43-.81-1.42-.92-1.94-1.52-1.16-1.34-.4-3.23.66-4.38-.29-.95-.53-2.52-.77-3.59l-.43-.48c-1.38-.46-2.01-1.75-1.88-3.88-1.34-2.77-2.86-4.14-5.9-5.13-1.26-.48-3.59-.13-3.59,1.28-.42,1.15-.51,2.17-.26,3.08.23.46.48,1.13-.21,1.18-.52.73-.63,1.68-.04,2.42,1.44,3.2,5.13,7.6,7.7,10.01,1.17,1.27,2.19,2.64,3.08,4.11,1.69,2.11,3.57,4.49,5.39,6.67.56.37,1.41-1.12,1.03-1.54Z" fill="#97b43d"/>
          <path d="M7.16,11.83c-.25.09-.27.08-.25-.11.11-1.02.3-1.98.5-2.97,1.17-1.23,1.83-1.49,3.59-1.28-1.18-.38-1.48-.7-2.82-.13-2.83,1.22-2.63,5.24-1.74,7.65.1.27.43.39.45.44-.67-1.49,1.66-2.65.26-3.59Z" fill="#92af53"/>
          <path d="M21.28,22.36c-.03-.07-.38-.5-.51-.77-1.86-.17-1.52,3.6-.13,3.6,1.2,0,.9-2.08.64-2.83Z" fill="#d3bb3b"/>
          <path d="M19.22,16.97c-.13-.6,0-.96-.26-1.8l-.59.27c-.27-.79-.59-1.57-.95-2.32-.14-.12-.46-.4-.51-.51-.74,1.5.3,4.77,2.31,4.36Z" fill="#8a9b2b"/>
          <path d="M24.1,38.27l.35-.07c-.14-1.32.17-2.23.93-2.75-.14-.17-.56-.24-.52-.38.15-.3.63.08.52-.38-.39-.07-.94.08-1.28,0l-1.03,1.54c.46.55.13.86.27,1.36.05.18.75.33.52.95.17.02.23-.26.24-.26Z" fill="#7f9a34"/>
          <path d="M18.97,15.17c-.44-1.41-.68-1.29-1.54-2.05-.43,1.16,1.08,4.72,1.54,2.05Z" fill="#c3be49"/>
          <path d="M17.68,29.54c.15-.68-.53-1.54-.91-2.04-.68-.92-1.51-1.44-2.17-2.07-.1.59.19.78.5,1.16.78.96,1.77,1.93,2.58,2.94Z" fill="#9fb355"/>
          <path d="M22.82,32.88c1.05-1.17-1.19-1.21-1.27-1.3-.15-.16.37-1.11-.79-1.78-1.29.35.37,3.72,2.05,3.08Z" fill="#bfd38e"/>
          <path d="M25.38,35.44c-1.9-.29-1.17,1.56-1.28,2.82.36.03.56.57.98-.17.34-.6.79-2.07.3-2.65Z" fill="#a0b54a"/>
          <path d="M20.76,29.8c.2-.05.7.06.77,0,.1-.09-.51-1.86-.51-2.56-1.08-.78-.46.97-.51,1.03l-1.02-.25c-.11.13.22,1.35.39,1.56s.48,0,.9.24Z" fill="#7e9a36"/>
          <path d="M8.96,14.4c.08,2.28.07,1.4.95,2.9.14.24,0,.67.15.87.66.91,1.71,1.82,2.86,1.6,2.17-.42.7-2.47.11-3.88s-.21-1.44-.49-2.6c-.04-.17-.82-.15-.5-1.29.07-.24.65-.02.51-.79-.31-1.73-2.69-2.5-3.56-.96-.56.99-.81,2.64-.5,3.72.1.34.4.34.47.42l.5-.44c-.32-3.94,2.64-5.76,1.59-.07l.67,1.96c3.43,6.11-1.69,1.27-2.1-1.4l-.66-.05Z" fill="#abb733"/>
          <path d="M18.97,20.3c.21-.22-1.19-3.86-2.05-3.08-.38.35,1.2,1.09.13,1.28-.66.12-.45.85,0,1.3.37.37.68-.01.99.07.36.09.47.55.94.43Z" fill="#7e9f36"/>
          <path d="M7.42,8.75c-1.26,1.32-.66,2.38-.77,4.1.85.18.42-.57.51-1.03.18-.87.73-2.34.26-3.08Z" fill="#7d9f3b"/>
          <path d="M14.48,12.34c.97.06-.23-2.29-.77-2.3-1.07-.02.54,2.29.77,2.3Z" fill="#7e9d38"/>
          <path d="M8.96,14.4c.61.79.34.86.67,1.52.53,1.09,1.49,2.79,2.68,3.22,2.65.97.18-2.7-.11-3.49-.15-.39-.6-1.61-.66-1.91-.18-1.02,1.07-4.43-1.05-3.86-1.77.47-1.58,3.14-1.53,4.52Z" fill="#eacc30"/>
        </g>
        <g>
          <path d="M20,71.48c-.46-.31-.67.35-.53.8-.26.39-.35,1.01-.27,1.86l-.72.51c-.87,3.7-2.23,7.15-4.09,10.35l.02.86-.7.12c-.83,2.02-3.74,2.61-5.7,2.01l.02-.63c-2.24-2.12-1.57-6.04-.64-8.67l-.44-.55c.58-.41.28-.82-.27-1.07-.03.08-.3.24-.4.52-1.68,4.59-1.63,13.95,5.64,11.25,5.61-2.09,6.96-12.27,8.61-17.36-.08-.71-.33-.68-.53,0Z" fill="#aa3b30"/>
          <path d="M20,61.36c-.26.65-.18.91.27.8.49.18.69.06.81-.4,1.94.41,1.56-1.98.52-2.79l.53-.31c-.66-.57-.32-1.35,0-1.55.24.49.84.47,1.79-.04-.33.38-.4.74-.2,1.1-.77.34-.7.65,0,1.07l-.6.43c-.87,2.74-1.75,5.48-2.65,8.21-1.52.23-2.17,2.16-2.23,3.54-.03.8.08,2.64.95,2.74.26-.79.28-.97.27-1.86.13-1.17.31-1.44.53-.8h.53c1.36-4.2,2.74-9.07,4.33-13.12.39-.99,1.15-1.68,1.27-2.72-.32-.49-.39-.27-.74-.23-.7.08-3.31.85-3.81,1.27-1.13.96-.9,3.27-1.58,4.68Z" fill="#ad382e"/>
          <path d="M8.81,73.61c.3.45.77.23.8-.27.91.49,2.86-1.49,2.4-2.4.98-.3,1.25-.74.8-1.33.6-.01,1.08-.46,1.45-1.35.58-.31.98-.66,1.21-1.05.2-.09.46-.09.8,0,.77-.09.88-.38.53-1.07,1.22-.34,3.09-2.4,3.2-3.73.38.35.53.19.27-.27l-.27-.8c-.34.71-3.33,4.23-3.98,4.68-1.14.77-2.21.62-3.21,2.11-.47.7-.43,1.29-.79,1.88-.69,1.13-2.82,2.14-3.2,3.59Z" fill="#a63f31"/>
          <path d="M9.61,73.34s-.22-.14-.8.27c-.2.14-.36.36-.53.53-.33.46-.35.65.27.53.74.42-.44,2.13-1.07,1.6.29-.5.32-.86-.27-.53-.14.3-.39.96-.53,1.33-.21.35.27,1.01.27,1.07,1.3,1.05,3.6-1.54,3.83-2.93.15-.91-.14-2.31-1.16-1.87Z" fill="#b03313"/>
          <path d="M7.21,75.74c.26.07.25.31.27.53.83.28,1.51-.9,1.07-1.6l-.27-.53c-.85.81-.61.65-1.07,1.6Z" fill="#9e4d37"/>
          <path d="M21.6,58.96c0,.99.07.61.25,1.48.35,1.62-.72.52-1.07.76-.16.11-.28.68-.52.95-.08.09-.19.17-.27.27-.15.78-.44,1.51-.87,2.17.41,1.32.12,1.72-.87,1.18-.47.25-.96.37-1.45.37-.22.34-.51.62-.53,1.07l-.27.26c.62,1.99-1.63,3.41-3.37,2.85l-.63.62c-.63.86-1.52,1.79-2.4,2.4,1.96,1.66-.73,4.5-2.66,4.79-.04.68-.68,1.96-.77,2.82-.26,2.4-.43,5.62,1.84,7.03.59.26,1.03.26,1.33,0,1.66-.48,2.91-1.28,3.73-2.4.12.85.79.94,1.33.27,2.49-3.11,3.55-7.84,4.79-11.72-.27-1.87-.76-2.27-.07-4.2.46-1.27.45-1.23,1.81-1.65.47-2.87,2.5-6.26,2.79-9.06-.44-.42-1.15-.51-2.13-.27Z" fill="#ef6230"/>
          <path d="M13.07,85.6c-.79,1.12-2.03,1.92-3.73,2.4-.44.02-.89-.01-1.33,0,1.77,1.1,4.06.37,5.58-.95.52-.45.52-.82.82-1.18-.4.07-1.04-.31-1.33-.27Z" fill="#e8543c"/>
          <path d="M19.46,72.28c.14-.23.47-.57.53-.8.16-.55.17-1.52.26-2.13-.25-.33-1.05,1.93-1.06,2.3s.26.59.26.63Z" fill="#e05d48"/>
          <path d="M22.13,57.1c-1.3,1.41.67,2.8,1.6,1.07.27-.18,1.36-1.54,1.06-1.86-.09-.1-2.3.68-2.66.8Z" fill="#e85536"/>
          <path d="M22.13,57.1c-.13.04-.47-.07-.52,0-.08.11,0,1.48,0,1.86.67.75,1.27.28,2.13.27.04-.35-.02-.71,0-1.07-.55.37-1.25.27-1.86.27l.27-1.33Z" fill="#ca3112"/>
          <path d="M20,62.42c-.99,1.2-2.4,2.47-3.2,3.73.43,1.24,1.48-.07,1.59,0,.07.05-.17.6.41.54.42-.05,1.22-.75,1.15-1.16-.03-.19-.39-.41-.4-.59-.01-.24,1.29-1.52.45-2.53Z" fill="#c73526"/>
          <path d="M12.81,69.62c-.55,1.14.79.96,1.63.65,1.32-.48,2.51-2.27,1.03-3.05-1.64-.09-1.97,1.39-2.66,2.4Z" fill="#ec9f43"/>
          <path d="M16.27,67.22c-.32-.62-1.25-1.13-.8,0,.35.86.48,1.54-.28,2.25-.48.45-2.02,1.17-2.38.15-.24.35-.58,1.04-.8,1.33.51-.35,1.02,0,1.6-.11,1.68-.31,3.59-1.82,2.66-3.62Z" fill="#b9370f"/>
          <path d="M8.54,74.68c-.42.4-.58,1.22-1.07,1.6.02.31-.14.9.13,1.06.73-.33,2.49-2.54,2-3.19-.28.19-.87.35-1.06.53Z" fill="#f0954f"/>
          <path d="M14.77,76.82c-.72-.12-2.29,3.34-3.02,4.12-.84.89-4.76,2.58-3.09,3.88,1.52,1.19,3.77-.44,4.79-1.65,1.21-1.42,3.05-4.87,1.32-6.35Z" fill="#f6c92f"/>
          <path d="M12.27,73.88c.18.72.33,1.08.75.35.86-1.5-.45-1.21-.47-1.54,0-.05.81-.66.53-.93-.77-.71-1.1,1.1-1.22,1.31-.09.15-1.71,2.22-.51,2.15.35-.02.39-1.27.93-1.33Z" fill="#c62e18"/>
          <path d="M13.07,85.6c-.29.04-1.15,1.06-1.84.96l-1.89,1.44c.91-.04,4.49-.9,3.73-2.4Z" fill="#c52d14"/>
          <path d="M7.21,82.13s.77.11.82-.15l.37-2.24c-.86-.15-1.33,2.27-1.19,2.39Z" fill="#c53219"/>
          <path d="M22.4,58.16c.18.16.93-.06,1.06-.4.35-.93-1.6-.1-1.06.4Z" fill="#fd9151"/>
        </g>
        <g>
          <path d="M42.84,73.35c.15.95.69,1.09.96,1.74.9,2.13.72,4.81,1.98,7.26,1.87,3.62,9.49,10.3,12.76,5.04,2.02-3.24.6-6.71-1.28-9.6-4.37-6.74-11.31-13.08-15.82-19.85-.46-.69-1.1-3.06-1.92-2.53-.19.12-1.32,3.82-1.29,4.2.09,1.29,1.6,2.19,2.29,3.1,1.08,1.41,2.24,4.94,2.3,6.71.04,1.19-.67,2.58.02,3.68-.06-1.24.24-2.28.91-3.14l-.4-.71c.7.07.79-.35.26-.77.56-.19.25-1.43.1-2.06l.16-.51c0-1.52-.59-2.38-1.81-2.56l-.25-.51c2.3-.12-.12-2.54-1.28-1.8-.15-.48-.58-.74-1.28-.77l.33-.45c-.07-.87.14-1.9.95-2.37.2,0,.5,1.34.42,1.96.17.15.38.17.6.09.02.23.06.47.13.69.24.8,3.91,5.36,4.63,5.74.2.1.41.18.63.24.92,1.45,1.95,2.82,3.08,4.11l.02.73c2.69,2.7,5.21,5.67,7,9.05l.68.24c.37,1.47.89,3.61.58,5.16-.43,2.17-2.54,3.58-4.69,2.8l-.33-.66c-2.19-.71-3.88-2.18-4.88-4.25l-.69-.22c.07-.52-.03-.86-.51-.51-.2-.73-.83-1.97-1.54-2.05.44-1.09.35-1.69-.26-1.8.68-.59.16-3.44-.77-3.59.46-.88.1-1.02-.77-1.03.47-.6.23-.96-.51-.77-.2-.67-.28-.67-.51,0Z" fill="#81944f"/>
          <path d="M43.35,69.24c-.13,1.1-.5,1.63-.53,1.91-.06.46-.03,1.45.02,1.94,0,.08-.01.17,0,.26h.51s.44-.33.44-.33c-.63-4.28,2.06-.59.08,1.1.09.18.62.53.77,1.03.89.49,1.61-1.48,1.71-2.24.27-2.03-1.09-3.39-2.99-3.67Z" fill="#939c36"/>
          <path d="M40.53,61.03c.29.07,1.71.96,1.8,1.16.15.47-.26.36-.51.64l.34.44c1.39.15,1.66,1.45,1.71,2.64l-.04.36c.88.38.88.74,0,1.07.18.59.11.97-.21,1.14,0,.04-.21.39-.26.77.43.81,1.42.92,1.94,1.52,1.16,1.34.4,3.23-.66,4.38.29.95.53,2.52.77,3.59l.43.48c1.38.46,2.01,1.75,1.88,3.88,1.34,2.77,2.86,4.14,5.9,5.13,1.26.48,3.59.13,3.59-1.28.42-1.15.51-2.17.26-3.08-.23-.46-.48-1.13.21-1.18.52-.73.63-1.68.04-2.42-1.44-3.2-5.13-7.6-7.7-10.01-1.17-1.27-2.19-2.64-3.08-4.11-1.69-2.11-3.57-4.49-5.39-6.67-.56-.37-1.41,1.12-1.03,1.54Z" fill="#97b43d"/>
          <path d="M57.47,83.87c.25-.09.27-.08.25.11-.11,1.02-.3,1.98-.5,2.97-1.17,1.23-1.83,1.49-3.59,1.28,1.18.38,1.48.7,2.82.13,2.83-1.22,2.63-5.24,1.74-7.65-.1-.27-.43-.39-.45-.44.67,1.49-1.66,2.65-.26,3.59Z" fill="#92af53"/>
          <path d="M43.35,73.35c.03.07.38.5.51.77,1.86.17,1.52-3.6.13-3.6-1.2,0-.9,2.08-.64,2.83Z" fill="#d3bb3b"/>
          <path d="M45.4,78.74c.13.6,0,.96.26,1.8l.59-.27c.27.79.59,1.57.95,2.32.14.12.46.4.51.51.74-1.5-.3-4.77-2.31-4.36Z" fill="#8a9b2b"/>
          <path d="M40.53,57.43l-.35.07c.14,1.32-.17,2.23-.93,2.75.14.17.56.24.52.38-.15.3-.63-.08-.52.38.39.07.94-.08,1.28,0l1.03-1.54c-.46-.55-.13-.86-.27-1.36-.05-.18-.75-.33-.52-.95-.17-.02-.23.26-.24.26Z" fill="#7f9a34"/>
          <path d="M45.66,80.53c.44,1.41.68,1.29,1.54,2.05.43-1.16-1.08-4.72-1.54-2.05Z" fill="#c3be49"/>
          <path d="M46.94,66.16c-.15.68.53,1.54.91,2.04.68.92,1.51,1.44,2.17,2.07.1-.59-.19-.78-.5-1.16-.78-.96-1.77-1.93-2.58-2.94Z" fill="#9fb355"/>
          <path d="M41.81,62.82c-1.05,1.17,1.19,1.21,1.27,1.3.15.16-.37,1.11.79,1.78,1.29-.35-.37-3.72-2.05-3.08Z" fill="#bfd38e"/>
          <path d="M39.24,60.26c1.9.29,1.17-1.56,1.28-2.82-.36-.03-.56-.57-.98.17-.34.6-.79,2.07-.3,2.65Z" fill="#a0b54a"/>
          <path d="M43.86,65.9c-.2.05-.7-.06-.77,0-.1.09.51,1.86.51,2.56,1.08.78.46-.97.51-1.03l1.02.25c.11-.13-.22-1.35-.39-1.56s-.48,0-.9-.24Z" fill="#7e9a36"/>
          <path d="M55.67,81.3c-.08-2.28-.07-1.4-.95-2.9-.14-.24,0-.67-.15-.87-.66-.91-1.71-1.82-2.86-1.6-2.17.42-.7,2.47-.11,3.88s.21,1.44.49,2.6c.04.17.82.15.5,1.29-.07.24-.65.02-.51.79.31,1.73,2.69,2.5,3.56.96.56-.99.81-2.64.5-3.72-.1-.34-.4-.34-.47-.42l-.5.44c.32,3.94-2.64,5.76-1.59.07l-.67-1.96c-3.43-6.11,1.69-1.27,2.1,1.4l.66.05Z" fill="#abb733"/>
          <path d="M45.66,75.4c-.21.22,1.19,3.86,2.05,3.08.38-.35-1.2-1.09-.13-1.28.66-.12.45-.85,0-1.3-.37-.37-.68.01-.99-.07-.36-.09-.47-.55-.94-.43Z" fill="#7e9f36"/>
          <path d="M57.21,86.95c1.26-1.32.66-2.38.77-4.1-.85-.18-.42.57-.51,1.03-.18.87-.73,2.34-.26,3.08Z" fill="#7d9f3b"/>
          <path d="M50.15,83.36c-.97-.06.23,2.29.77,2.3,1.07.02-.54-2.29-.77-2.3Z" fill="#7e9d38"/>
          <path d="M55.67,81.3c-.61-.79-.34-.86-.67-1.52-.53-1.09-1.49-2.79-2.68-3.22-2.65-.97-.18,2.7.11,3.49.15.39.6,1.61.66,1.91.18,1.02-1.07,4.43,1.05,3.86,1.77-.47,1.58-3.14,1.53-4.52Z" fill="#eacc30"/>
        </g>
      </g>
    </g>
  </g>
</svg>