<?xml version="1.0" encoding="UTF-8"?>
<svg id="Layer_2" data-name="Layer 2" xmlns="http://www.w3.org/2000/svg" viewBox="0 0 64.02 95.98">
  <g id="Cards">
    <g id="Clubs">
      <g id="SevenOfClubs">
        <path d="M0,1.4V0h5.16v1.1c-.43.42-.86,1.02-1.3,1.8s-.78,1.62-1.01,2.5c-.23.88-.34,1.67-.34,2.37h-1.46c.02-1.09.25-2.2.67-3.33.42-1.13.99-2.14,1.7-3.04H0Z" fill="#3b920f"/>
        <path d="M64.02,94.58v1.4h-5.16v-1.1c.43-.42.86-1.02,1.3-1.8s.78-1.62,1.01-2.5c.23-.88.34-1.67.34-2.37h1.46c-.02,1.09-.25,2.2-.67,3.33-.42,1.13-.99,2.14-1.7,3.04h3.43Z" fill="#3b920f"/>
        <g>
          <path d="M28.99,19.66c.55-.04.41.64.06.96.03.47-.2,1.05-.7,1.75l.37.81c-1.1,3.64-1.64,7.31-1.63,11.01l-.45.73.54.45c-.29,2.17,1.94,4.13,3.93,4.59l.3-.56c3-.72,4.38-4.44,4.89-7.19l.66-.25c-.3-.65.17-.85.76-.79-.01.09.14.36.09.65-.84,4.81-5.57,12.9-10.51,6.92-3.82-4.62.11-14.11,1.23-19.34.43-.57.62-.42.46.27Z" fill="#aa3b30"/>
          <path d="M34.05,10.9c-.09.69-.3.88-.63.56-.52-.09-.63-.3-.5-.75-1.88-.61-.36-2.49.94-2.68l-.3-.53c.86-.16.96-1.01.77-1.35-.45.3-.96,0-1.54-.93.1.49-.03.84-.38,1.05.5.68.28.91-.53.92l.3.67c-.62,2.81-1.22,5.62-1.81,8.44,1.2.96.8,2.96.16,4.18-.37.71-1.39,2.24-2.19,1.89.18-.81.24-.98.7-1.75.47-1.08.45-1.4-.06-.96l-.46-.27c.93-4.31,2.16-9.23,2.81-13.52.16-1.05-.15-2.02.26-2.99.53-.26.47-.04.76.17.56.42,2.44,2.39,2.66,3.01.5,1.39-.85,3.28-.97,4.84Z" fill="#ad382e"/>
          <path d="M37.61,27.1c-.48.24-.78-.18-.56-.63-1.03-.03-1.73-2.72-.88-3.27-.7-.75-.71-1.27-.03-1.55-.51-.31-.71-.94-.58-1.89-.35-.56-.52-1.07-.53-1.51-.12-.17-.36-.31-.69-.4-.62-.47-.57-.77.07-1.19-.89-.9-1.48-3.62-.9-4.83-.5.11-.55-.1-.1-.36l.63-.56c-.06.79.76,5.33,1.11,6.04.6,1.24,1.61,1.64,1.73,3.44.06.84-.27,1.33-.26,2.02.03,1.32,1.37,3.27.98,4.71Z" fill="#a63f31"/>
          <path d="M37.05,26.47c.02.05.26-.01.56.63.1.22.13.49.19.73.05.57-.03.74-.5.33-.85,0-.68,2.06.12,1.92,0-.58.15-.9.5-.33-.02.33-.14,1.03-.2,1.42,0,.41-.74.74-.76.79-1.65.26-2.35-3.14-1.85-4.45.33-.87,1.28-1.93,1.94-1.04Z" fill="#b03313"/>
          <path d="M37.93,29.75c-.26-.07-.37.14-.5.33-.86-.17-.86-1.54-.12-1.92l.5-.33c.33,1.13.2.87.12,1.92Z" fill="#9e4d37"/>
          <path d="M33.87,8.02c-.49.86-.36.49-.96,1.15-1.11,1.23.36.81.54,1.2.08.17-.1.73-.03,1.08.03.12.08.24.1.36-.26.76-.37,1.53-.33,2.32-1.02.94-.96,1.42.16,1.46.29.45.64.8,1.07,1.05.02.4.13.79-.07,1.19l.1.36c-1.53,1.41-.3,3.77,1.49,4.15l.23.85c.12,1.06.43,2.31.88,3.27-2.52.46-1.62,4.27-.09,5.48-.31.6-.39,2.04-.74,2.83-.97,2.21-2.44,5.09-5.11,5.17-.64-.07-1.02-.29-1.15-.67-1.2-1.25-1.88-2.56-2.03-3.94-.52.67-1.16.42-1.29-.44-.6-3.93.85-8.57,1.71-12.55,1.17-1.49,1.79-1.58,2.16-3.6.24-1.33.22-1.29-.74-2.34,1.03-2.72.96-6.67,2.12-9.24.59-.14,1.25.14,1.98.83Z" fill="#ef6230"/>
          <path d="M27.93,35.35c.12,1.37.8,2.68,2.03,3.94.37.24.78.43,1.15.67-2.08.07-3.7-1.71-4.36-3.61-.22-.65-.04-.97-.12-1.43.31.26,1.05.25,1.29.44Z" fill="#e8543c"/>
          <path d="M29.05,20.62c0-.27-.12-.73-.06-.96.14-.56.62-1.4.84-1.98.38-.16-.06,2.2-.23,2.53s-.52.38-.54.41Z" fill="#e05d48"/>
          <path d="M34.34,6.14c.42,1.87-1.98,2.09-1.92.12-.14-.29-.41-2.02.01-2.15.13-.04,1.65,1.74,1.91,2.02Z" fill="#e85536"/>
          <path d="M34.34,6.14c.09.1.44.17.45.26.02.14-.73,1.29-.92,1.62-.95.31-1.24-.4-1.98-.83.14-.32.38-.61.53-.92.29.59.94.86,1.48,1.16l.43-1.29Z" fill="#ca3112"/>
          <path d="M33.52,11.82c.26,1.54.84,3.34.9,4.83-.99.86-1.25-.8-1.38-.79-.09,0-.16.6-.62.26-.34-.25-.69-1.26-.42-1.58.13-.15.55-.16.64-.31.13-.2-.36-1.96.88-2.41Z" fill="#c73526"/>
          <path d="M36.15,21.65c-.1,1.26-1.16.43-1.74-.25-.91-1.08-1.03-3.22.63-3.15,1.46.74,1.01,2.19,1.11,3.41Z" fill="#ec9f43"/>
          <path d="M34.35,17.84c.59-.38,1.65-.35.69.4-.73.57-1.18,1.09-.88,2.09.19.64,1.17,2.02,1.99,1.32.03.43-.02,1.19.03,1.55-.26-.56-.88-.51-1.33-.89-1.3-1.11-2.2-3.37-.49-4.47Z" fill="#b9370f"/>
          <path d="M37.31,28.16c.16.55-.11,1.34.12,1.92-.18.26-.33.85-.65.86-.46-.65-.89-3.44-.13-3.76.15.3.58.74.65.99Z" fill="#f0954f"/>
          <path d="M30.85,26.9c.68.26.31,4.04.56,5.08.28,1.19,2.83,4.62.74,4.91-1.91.27-3.05-2.27-3.33-3.82-.33-1.83-.21-5.74,2.03-6.16Z" fill="#f6c92f"/>
          <path d="M34.49,25.6c-.51.53-.83.77-.82-.08,0-1.73,1-.83,1.18-1.1.03-.04-.37-.98,0-1.07,1.02-.23.4,1.51.4,1.74,0,.18.37,2.78-.63,2.12-.3-.2.3-1.29-.14-1.61Z" fill="#c62e18"/>
          <path d="M27.93,35.35c.23.18.47,1.49,1.11,1.75l.92,2.19c-.77-.49-3.44-3.02-2.03-3.94Z" fill="#c52d14"/>
          <path d="M34.73,35.28s-.72-.29-.64-.54l.8-2.13c.82.3.02,2.63-.16,2.67Z" fill="#c53219"/>
          <path d="M33.57,6.93c-.23.05-.78-.52-.72-.88.16-.98,1.44.71.72.88Z" fill="#fd9151"/>
        </g>
        <g>
          <path d="M15.51,23.48c.34-.9-.05-1.29.04-1.98.29-2.3,1.79-4.53,1.91-7.28.18-4.07-3.07-13.66-8.53-10.75-3.37,1.8-3.87,5.51-3.7,8.95.41,8.02,3.25,16.98,3.78,25.1.05.83-.57,3.2.4,3.16.22-.01,3.05-2.65,3.22-3,.57-1.16-.29-2.7-.44-3.83-.23-1.76.53-5.4,1.37-6.96.56-1.05,1.87-1.9,1.82-3.2-.57,1.1-1.35,1.86-2.36,2.26v.81c-.58-.41-.87-.1-.62.54-.57-.12-.93,1.11-1.11,1.73l-.39.36c-.77,1.32-.67,2.36.28,3.12l-.04.57c-2.06-1.05-1.17,2.26.21,2.2-.11.49.13.93.73,1.31l-.51.23c-.37.79-1.07,1.57-2.01,1.58-.17-.1.24-1.41.61-1.91-.08-.21-.24-.33-.48-.38.1-.22.18-.43.23-.66.19-.81-.71-6.6-1.14-7.29-.12-.19-.27-.36-.43-.53-.07-1.72-.28-3.42-.61-5.1l.35-.64c-.98-3.68-1.68-7.51-1.54-11.34l-.47-.55c.42-1.46,1.03-3.57,2.07-4.76,1.46-1.66,3.99-1.84,5.46-.08l-.04.73c1.54,1.71,2.27,3.83,2.1,6.12l.48.54c-.32.42-.4.76.19.7-.2.73-.26,2.12.31,2.55-.93.73-1.15,1.29-.68,1.68-.89.17-1.86,2.9-1.13,3.5-.84.54-.6.83.15,1.27-.71.28-.67.72.06.92-.16.68-.09.72.44.26Z" fill="#81944f"/>
          <path d="M13.01,26.78c.66-.88,1.24-1.16,1.42-1.39.29-.37.75-1.24.95-1.69.03-.08.1-.14.13-.22l-.44-.26-.54.07c-1.6,4.02-2.08-.52.48-.99.01-.2-.27-.76-.15-1.27-.53-.87-2.13.48-2.6,1.08-1.25,1.62-.75,3.48.76,4.67Z" fill="#939c36"/>
          <path d="M11.35,35.3c-.21-.21-1-1.69-.98-1.9.11-.48.41-.18.76-.3l-.08-.55c-1.13-.83-.72-2.08-.16-3.15l.22-.29c-.57-.77-.39-1.08.54-.92.14-.6.39-.9.75-.88.02-.04.37-.23.61-.54.03-.91-.77-1.51-.92-2.29-.34-1.74,1.27-3,2.76-3.46.22-.97.8-2.44,1.13-3.5l-.13-.63c-.97-1.09-.86-2.52.31-4.3.23-3.07-.4-5.02-2.55-7.4-.85-1.05-3.05-1.91-3.75-.69-.94.78-1.53,1.63-1.76,2.54-.03.51-.15,1.22-.77.91-.82.37-1.38,1.14-1.25,2.07-.36,3.49.64,9.15,1.66,12.52.37,1.69.58,3.39.61,5.1.41,2.68.85,5.68,1.33,8.47.3.6,1.78-.27,1.66-.82Z" fill="#97b43d"/>
          <path d="M8.1,7.05c-.26-.05-.27-.07-.16-.22.61-.83,1.25-1.56,1.92-2.32,1.62-.48,2.33-.37,3.75.69-.83-.92-.93-1.35-2.38-1.52-3.06-.36-4.9,3.22-5.33,5.75-.05.28.18.55.17.6.17-1.63,2.76-1.46,2.02-2.98Z" fill="#92af53"/>
          <path d="M15.07,23.22c.02-.08-.08-.62-.06-.92-1.53-1.08-3.11,2.36-1.91,3.05,1.04.6,1.82-1.35,1.97-2.13Z" fill="#d3bb3b"/>
          <path d="M15.98,17.53c.18-.59.48-.83.68-1.68l-.65-.07c.16-.82.28-1.65.34-2.48-.06-.17-.2-.57-.19-.7-1.39.93-2.13,4.28-.18,4.93Z" fill="#8a9b2b"/>
          <path d="M9.56,38.41l.34.11c.54-1.21,1.27-1.85,2.18-1.91-.04-.22-.37-.49-.25-.59.28-.18.51.38.64-.07-.3-.25-.85-.4-1.11-.64l-1.66.82c.12.7-.31.81-.45,1.31-.05.18.49.66-.03,1.08.13.1.32-.11.34-.1Z" fill="#7f9a34"/>
          <path d="M16.66,15.85c.32-1.44.06-1.45-.31-2.55-.95.79-1.43,4.63.31,2.55Z" fill="#c3be49"/>
          <path d="M8.36,27.65c.47-.51.31-1.6.23-2.22-.13-1.14-.58-2-.85-2.88-.38.46-.22.78-.15,1.26.19,1.22.57,2.56.76,3.84Z" fill="#9fb355"/>
          <path d="M11.14,33.11c1.5-.49-.42-1.64-.45-1.76-.05-.22.87-.78.21-1.94-1.29-.34-1.54,3.4.24,3.69Z" fill="#bfd38e"/>
          <path d="M12.08,36.61c-1.5-1.2-1.79.76-2.52,1.8.3.2.2.78.93.34.59-.35,1.72-1.39,1.59-2.14Z" fill="#a0b54a"/>
          <path d="M10.9,29.41c.2.05.57.4.67.38.13-.03.49-1.87.84-2.48-.54-1.22-.88.61-.96.63l-.76-.73c-.16.05-.48,1.28-.44,1.54s.42.24.66.66Z" fill="#7e9a36"/>
          <path d="M8.38,10.17c-1.07,2.02-.64,1.25-.63,2.99,0,.28-.33.58-.3.83.11,1.12.57,2.44,1.67,2.82,2.09.72,1.84-1.79,2.04-3.3s.54-1.35.88-2.5c.05-.16-.64-.54.21-1.37.18-.18.57.31.84-.43.59-1.66-1.08-3.51-2.6-2.61-.98.58-2.03,1.88-2.3,2.97-.08.34.18.5.19.6l.65-.13c1.69-3.58,5.17-3.67,1.41.74l-.4,2.03c-.09,7-2.1.26-1.12-2.26l-.55-.37Z" fill="#abb733"/>
          <path d="M14.09,20.29c.29-.09.9-3.94-.24-3.69-.5.11.5,1.54-.52,1.18-.64-.23-.81.51-.65,1.12.13.51.59.33.82.55.27.26.13.71.6.84Z" fill="#7e9f36"/>
          <path d="M9.87,4.52c-1.75.52-1.76,1.73-2.72,3.17.64.58.65-.28.96-.63.59-.67,1.8-1.66,1.76-2.54Z" fill="#7d9f3b"/>
          <path d="M14.18,11.15c.81.53.94-2.1.48-2.38-.92-.56-.67,2.25-.48,2.38Z" fill="#7e9d38"/>
          <path d="M8.38,10.17c.13.99-.13.91-.18,1.65-.08,1.21-.1,3.16.71,4.13,1.81,2.17,1.51-2.25,1.65-3.07.07-.41.28-1.7.39-1.99.36-.97,3.14-3.3,1.02-3.86-1.77-.47-2.94,1.93-3.59,3.14Z" fill="#eacc30"/>
        </g>
        <g>
          <path d="M56.44,23.48c.34-.9-.05-1.29.04-1.98.29-2.3,1.79-4.53,1.91-7.28.18-4.07-3.07-13.66-8.53-10.75-3.37,1.8-3.87,5.51-3.7,8.95.41,8.02,3.25,16.98,3.78,25.1.05.83-.57,3.2.4,3.16.22-.01,3.05-2.65,3.22-3,.57-1.16-.29-2.7-.44-3.83-.23-1.76.53-5.4,1.37-6.96.56-1.05,1.87-1.9,1.82-3.2-.57,1.1-1.35,1.86-2.36,2.26v.81c-.58-.41-.87-.1-.62.54-.57-.12-.93,1.11-1.11,1.73l-.39.36c-.77,1.32-.67,2.36.28,3.12l-.04.57c-2.06-1.05-1.17,2.26.21,2.2-.11.49.13.93.73,1.31l-.51.23c-.37.79-1.07,1.57-2.01,1.58-.17-.1.24-1.41.61-1.91-.08-.21-.24-.33-.48-.38.1-.22.18-.43.23-.66.19-.81-.71-6.6-1.14-7.29-.12-.19-.27-.36-.43-.53-.07-1.72-.28-3.42-.61-5.1l.35-.64c-.98-3.68-1.68-7.51-1.54-11.34l-.47-.55c.42-1.46,1.03-3.57,2.07-4.76,1.46-1.66,3.99-1.84,5.46-.08l-.04.73c1.54,1.71,2.27,3.83,2.1,6.12l.48.54c-.32.42-.4.76.19.7-.2.73-.26,2.12.31,2.55-.93.73-1.15,1.29-.68,1.68-.89.17-1.86,2.9-1.13,3.5-.84.54-.6.83.15,1.27-.71.28-.67.72.06.92-.16.68-.09.72.44.26Z" fill="#81944f"/>
          <path d="M53.94,26.78c.66-.88,1.24-1.16,1.42-1.39.29-.37.75-1.24.95-1.69.03-.08.1-.14.13-.22l-.44-.26-.54.07c-1.6,4.02-2.08-.52.48-.99.01-.2-.27-.76-.15-1.27-.53-.87-2.13.48-2.6,1.08-1.25,1.62-.75,3.48.76,4.67Z" fill="#939c36"/>
          <path d="M52.28,35.3c-.21-.21-1-1.69-.98-1.9.11-.48.41-.18.76-.3l-.08-.55c-1.13-.83-.72-2.08-.16-3.15l.22-.29c-.57-.77-.39-1.08.54-.92.14-.6.39-.9.75-.88.02-.04.37-.23.61-.54.03-.91-.77-1.51-.92-2.29-.34-1.74,1.27-3,2.76-3.46.22-.97.8-2.44,1.13-3.5l-.13-.63c-.97-1.09-.86-2.52.31-4.3.23-3.07-.4-5.02-2.55-7.4-.85-1.05-3.05-1.91-3.75-.69-.94.78-1.53,1.63-1.76,2.54-.03.51-.15,1.22-.77.91-.82.37-1.38,1.14-1.25,2.07-.36,3.49.64,9.15,1.66,12.52.37,1.69.58,3.39.61,5.1.41,2.68.85,5.68,1.33,8.47.3.6,1.78-.27,1.66-.82Z" fill="#97b43d"/>
          <path d="M49.03,7.05c-.26-.05-.27-.07-.16-.22.61-.83,1.25-1.56,1.92-2.32,1.62-.48,2.33-.37,3.75.69-.83-.92-.93-1.35-2.38-1.52-3.06-.36-4.9,3.22-5.33,5.75-.05.28.18.55.17.6.17-1.63,2.76-1.46,2.02-2.98Z" fill="#92af53"/>
          <path d="M55.99,23.22c.02-.08-.08-.62-.06-.92-1.53-1.08-3.11,2.36-1.91,3.05,1.04.6,1.82-1.35,1.97-2.13Z" fill="#d3bb3b"/>
          <path d="M56.91,17.53c.18-.59.48-.83.68-1.68l-.65-.07c.16-.82.28-1.65.34-2.48-.06-.17-.2-.57-.19-.7-1.39.93-2.13,4.28-.18,4.93Z" fill="#8a9b2b"/>
          <path d="M50.48,38.41l.34.11c.54-1.21,1.27-1.85,2.18-1.91-.04-.22-.37-.49-.25-.59.28-.18.51.38.64-.07-.3-.25-.85-.4-1.11-.64l-1.66.82c.12.7-.31.81-.45,1.31-.05.18.49.66-.03,1.08.13.1.32-.11.34-.1Z" fill="#7f9a34"/>
          <path d="M57.58,15.85c.32-1.44.06-1.45-.31-2.55-.95.79-1.43,4.63.31,2.55Z" fill="#c3be49"/>
          <path d="M49.29,27.65c.47-.51.31-1.6.23-2.22-.13-1.14-.58-2-.85-2.88-.38.46-.22.78-.15,1.26.19,1.22.57,2.56.76,3.84Z" fill="#9fb355"/>
          <path d="M52.06,33.11c1.5-.49-.42-1.64-.45-1.76-.05-.22.87-.78.21-1.94-1.29-.34-1.54,3.4.24,3.69Z" fill="#bfd38e"/>
          <path d="M53,36.61c-1.5-1.2-1.79.76-2.52,1.8.3.2.2.78.93.34.59-.35,1.72-1.39,1.59-2.14Z" fill="#a0b54a"/>
          <path d="M51.83,29.41c.2.05.57.4.67.38.13-.03.49-1.87.84-2.48-.54-1.22-.88.61-.96.63l-.76-.73c-.16.05-.48,1.28-.44,1.54s.42.24.66.66Z" fill="#7e9a36"/>
          <path d="M49.3,10.17c-1.07,2.02-.64,1.25-.63,2.99,0,.28-.33.58-.3.83.11,1.12.57,2.44,1.67,2.82,2.09.72,1.84-1.79,2.04-3.3s.54-1.35.88-2.5c.05-.16-.64-.54.21-1.37.18-.18.57.31.84-.43.59-1.66-1.08-3.51-2.6-2.61-.98.58-2.03,1.88-2.3,2.97-.08.34.18.5.19.6l.65-.13c1.69-3.58,5.17-3.67,1.41.74l-.4,2.03c-.09,7-2.1.26-1.12-2.26l-.55-.37Z" fill="#abb733"/>
          <path d="M55.02,20.29c.29-.09.9-3.94-.24-3.69-.5.11.5,1.54-.52,1.18-.64-.23-.81.51-.65,1.12.13.51.59.33.82.55.27.26.13.71.6.84Z" fill="#7e9f36"/>
          <path d="M50.79,4.52c-1.75.52-1.76,1.73-2.72,3.17.64.58.65-.28.96-.63.59-.67,1.8-1.66,1.76-2.54Z" fill="#7d9f3b"/>
          <path d="M55.11,11.15c.81.53.94-2.1.48-2.38-.92-.56-.67,2.25-.48,2.38Z" fill="#7e9d38"/>
          <path d="M49.3,10.17c.13.99-.13.91-.18,1.65-.08,1.21-.1,3.16.71,4.13,1.81,2.17,1.51-2.25,1.65-3.07.07-.41.28-1.7.39-1.99.36-.97,3.14-3.3,1.02-3.86-1.77-.47-2.94,1.93-3.59,3.14Z" fill="#eacc30"/>
        </g>
        <g>
          <path d="M14.19,72.54c-.55-.04-.41.64-.06.96-.03.47.2,1.05.7,1.75l-.37.81c1.1,3.64,1.64,7.31,1.63,11.01l.45.73-.54.45c.29,2.17-1.94,4.13-3.93,4.59l-.3-.56c-3-.72-4.38-4.44-4.89-7.19l-.66-.25c.3-.65-.17-.85-.76-.79.01.09-.14.36-.09.65.84,4.81,5.57,12.9,10.51,6.92,3.82-4.62-.11-14.11-1.23-19.34-.43-.57-.62-.42-.46.27Z" fill="#aa3b30"/>
          <path d="M9.13,63.78c.09.69.3.88.63.56.52-.09.63-.3.5-.75,1.88-.61.36-2.49-.94-2.68l.3-.53c-.86-.16-.96-1.01-.77-1.35.45.3.96,0,1.54-.93-.1.49.03.84.38,1.05-.5.68-.28.91.53.92l-.3.67c.62,2.81,1.22,5.62,1.81,8.44-1.2.96-.8,2.96-.16,4.18.37.71,1.39,2.24,2.19,1.89-.18-.81-.24-.98-.7-1.75-.47-1.08-.45-1.4.06-.96l.46-.27c-.93-4.31-2.16-9.23-2.81-13.52-.16-1.05.15-2.02-.26-2.99-.53-.26-.47-.04-.76.17-.56.42-2.44,2.39-2.66,3.01-.5,1.39.85,3.28.97,4.84Z" fill="#ad382e"/>
          <path d="M5.57,79.98c.48.24.78-.18.56-.63,1.03-.03,1.73-2.72.88-3.27.7-.75.71-1.27.03-1.55.51-.31.71-.94.58-1.89.35-.56.52-1.07.53-1.51.12-.17.36-.31.69-.4.62-.47.57-.77-.07-1.19.89-.9,1.48-3.62.9-4.83.5.11.55-.1.1-.36l-.63-.56c.06.79-.76,5.33-1.11,6.04-.6,1.24-1.61,1.64-1.73,3.44-.06.84.27,1.33.26,2.02-.03,1.32-1.37,3.27-.98,4.71Z" fill="#a63f31"/>
          <path d="M6.13,79.35c-.02.05-.26-.01-.56.63-.1.22-.13.49-.19.73-.05.57.03.74.5.33.85,0,.68,2.06-.12,1.92,0-.58-.15-.9-.5-.33.02.33.14,1.03.2,1.42,0,.41.74.74.76.79,1.65.26,2.35-3.14,1.85-4.45-.33-.87-1.28-1.93-1.94-1.04Z" fill="#b03313"/>
          <path d="M5.25,82.62c.26-.07.37.14.5.33.86-.17.86-1.54.12-1.92l-.5-.33c-.33,1.13-.2.87-.12,1.92Z" fill="#9e4d37"/>
          <path d="M9.32,60.9c.49.86.36.49.96,1.15,1.11,1.23-.36.81-.54,1.2-.08.17.1.73.03,1.08-.03.12-.08.24-.1.36.26.76.37,1.53.33,2.32,1.02.94.96,1.42-.16,1.46-.29.45-.64.8-1.07,1.05-.02.4-.13.79.07,1.19l-.1.36c1.53,1.41.3,3.77-1.49,4.15l-.23.85c-.12,1.06-.43,2.31-.88,3.27,2.52.46,1.62,4.27.09,5.48.31.6.39,2.04.74,2.83.97,2.21,2.44,5.09,5.11,5.17.64-.07,1.02-.29,1.15-.67,1.2-1.25,1.88-2.56,2.03-3.94.52.67,1.16.42,1.29-.44.6-3.93-.85-8.57-1.71-12.55-1.17-1.49-1.79-1.58-2.16-3.6-.24-1.33-.22-1.29.74-2.34-1.03-2.72-.96-6.67-2.12-9.24-.59-.14-1.25.14-1.98.83Z" fill="#ef6230"/>
          <path d="M15.25,88.23c-.12,1.37-.8,2.68-2.03,3.94-.37.24-.78.43-1.15.67,2.08.07,3.7-1.71,4.36-3.61.22-.65.04-.97.12-1.43-.31.26-1.05.25-1.29.44Z" fill="#e8543c"/>
          <path d="M14.13,73.5c0-.27.12-.73.06-.96-.14-.56-.62-1.4-.84-1.98-.38-.16.06,2.2.23,2.53s.52.38.54.41Z" fill="#e05d48"/>
          <path d="M8.84,59.02c-.42,1.87,1.98,2.09,1.92.12.14-.29.41-2.02-.01-2.15-.13-.04-1.65,1.74-1.91,2.02Z" fill="#e85536"/>
          <path d="M8.84,59.02c-.09.1-.44.17-.45.26-.02.14.73,1.29.92,1.62.95.31,1.24-.4,1.98-.83-.14-.32-.38-.61-.53-.92-.29.59-.94.86-1.48,1.16l-.43-1.29Z" fill="#ca3112"/>
          <path d="M9.66,64.7c-.26,1.54-.84,3.34-.9,4.83.99.86,1.25-.8,1.38-.79.09,0,.16.6.62.26.34-.25.69-1.26.42-1.58-.13-.15-.55-.16-.64-.31-.13-.2.36-1.96-.88-2.41Z" fill="#c73526"/>
          <path d="M7.03,74.52c.1,1.26,1.16.43,1.74-.25.91-1.08,1.03-3.22-.63-3.15-1.46.74-1.01,2.19-1.11,3.41Z" fill="#ec9f43"/>
          <path d="M8.83,70.71c-.59-.38-1.65-.35-.69.4.73.57,1.18,1.09.88,2.09-.19.64-1.17,2.02-1.99,1.32-.03.43.02,1.19-.03,1.55.26-.56.88-.51,1.33-.89,1.3-1.11,2.2-3.37.49-4.47Z" fill="#b9370f"/>
          <path d="M5.87,81.03c-.16.55.11,1.34-.12,1.92.18.26.33.85.65.86.46-.65.89-3.44.13-3.76-.15.3-.58.74-.65.99Z" fill="#f0954f"/>
          <path d="M12.34,79.78c-.68.26-.31,4.04-.56,5.08-.28,1.19-2.83,4.62-.74,4.91,1.91.27,3.05-2.27,3.33-3.82.33-1.83.21-5.74-2.03-6.16Z" fill="#f6c92f"/>
          <path d="M8.7,78.48c.51.53.83.77.82-.08,0-1.73-1-.83-1.18-1.1-.03-.04.37-.98,0-1.07-1.02-.23-.4,1.51-.4,1.74,0,.18-.37,2.78.63,2.12.3-.2-.3-1.29.14-1.61Z" fill="#c62e18"/>
          <path d="M15.25,88.23c-.23.18-.47,1.49-1.11,1.75l-.92,2.19c.77-.49,3.44-3.02,2.03-3.94Z" fill="#c52d14"/>
          <path d="M8.45,88.16s.72-.29.64-.54l-.8-2.13c-.82.3-.02,2.63.16,2.67Z" fill="#c53219"/>
          <path d="M9.61,59.81c.23.05.78-.52.72-.88-.16-.98-1.44.71-.72.88Z" fill="#fd9151"/>
        </g>
        <g>
          <path d="M36.02,76.36c.34-.9-.05-1.29.04-1.98.29-2.3,1.79-4.53,1.91-7.28.18-4.07-3.07-13.66-8.53-10.75-3.37,1.8-3.87,5.51-3.7,8.95.41,8.02,3.25,16.98,3.78,25.1.05.83-.57,3.2.4,3.16.22-.01,3.05-2.65,3.22-3,.57-1.16-.29-2.7-.44-3.83-.23-1.76.53-5.4,1.37-6.96.56-1.05,1.87-1.9,1.82-3.2-.57,1.1-1.35,1.86-2.36,2.26v.81c-.58-.41-.87-.1-.62.54-.57-.12-.93,1.11-1.11,1.73l-.39.36c-.77,1.32-.67,2.36.28,3.12l-.04.57c-2.06-1.05-1.17,2.26.21,2.2-.11.49.13.93.73,1.31l-.51.23c-.37.79-1.07,1.57-2.01,1.58-.17-.1.24-1.41.61-1.91-.08-.21-.24-.33-.48-.38.1-.22.18-.43.23-.66.19-.81-.71-6.6-1.14-7.29-.12-.19-.27-.36-.43-.53-.07-1.72-.28-3.42-.61-5.1l.35-.64c-.98-3.68-1.68-7.51-1.54-11.34l-.47-.55c.42-1.46,1.03-3.57,2.07-4.76,1.46-1.66,3.99-1.84,5.46-.08l-.04.73c1.54,1.71,2.27,3.83,2.1,6.12l.48.54c-.32.42-.4.76.19.7-.2.73-.26,2.12.31,2.55-.93.73-1.15,1.29-.68,1.68-.89.17-1.86,2.9-1.13,3.5-.84.54-.6.83.15,1.27-.71.28-.67.72.06.92-.16.68-.09.72.44.26Z" fill="#81944f"/>
          <path d="M33.52,79.66c.66-.88,1.24-1.16,1.42-1.39.29-.37.75-1.24.95-1.69.03-.08.1-.14.13-.22l-.44-.26-.54.07c-1.6,4.02-2.08-.52.48-.99.01-.2-.27-.76-.15-1.27-.53-.87-2.13.48-2.6,1.08-1.25,1.62-.75,3.48.76,4.67Z" fill="#939c36"/>
          <path d="M31.86,88.18c-.21-.21-1-1.69-.98-1.9.11-.48.41-.18.76-.3l-.08-.55c-1.13-.83-.72-2.08-.16-3.15l.22-.29c-.57-.77-.39-1.08.54-.92.14-.6.39-.9.75-.88.02-.04.37-.23.61-.54.03-.91-.77-1.51-.92-2.29-.34-1.74,1.27-3,2.76-3.46.22-.97.8-2.44,1.13-3.5l-.13-.63c-.97-1.09-.86-2.52.31-4.3.23-3.07-.4-5.02-2.55-7.4-.85-1.05-3.05-1.91-3.75-.69-.94.78-1.53,1.63-1.76,2.54-.03.51-.15,1.22-.77.91-.82.37-1.38,1.14-1.25,2.07-.36,3.49.64,9.15,1.66,12.52.37,1.69.58,3.39.61,5.1.41,2.68.85,5.68,1.33,8.47.3.6,1.78-.27,1.66-.82Z" fill="#97b43d"/>
          <path d="M28.61,59.93c-.26-.05-.27-.07-.16-.22.61-.83,1.25-1.56,1.92-2.32,1.62-.48,2.33-.37,3.75.69-.83-.92-.93-1.35-2.38-1.52-3.06-.36-4.9,3.22-5.33,5.75-.05.28.18.55.17.6.17-1.63,2.76-1.46,2.02-2.98Z" fill="#92af53"/>
          <path d="M35.58,76.1c.02-.08-.08-.62-.06-.92-1.53-1.08-3.11,2.36-1.91,3.05,1.04.6,1.82-1.35,1.97-2.13Z" fill="#d3bb3b"/>
          <path d="M36.49,70.41c.18-.59.48-.83.68-1.68l-.65-.07c.16-.82.28-1.65.34-2.48-.06-.17-.2-.57-.19-.7-1.39.93-2.13,4.28-.18,4.93Z" fill="#8a9b2b"/>
          <path d="M30.06,91.29l.34.11c.54-1.21,1.27-1.85,2.18-1.91-.04-.22-.37-.49-.25-.59.28-.18.51.38.64-.07-.3-.25-.85-.4-1.11-.64l-1.66.82c.12.7-.31.81-.45,1.31-.05.18.49.66-.03,1.08.13.1.32-.11.34-.1Z" fill="#7f9a34"/>
          <path d="M37.17,68.72c.32-1.44.06-1.45-.31-2.55-.95.79-1.43,4.63.31,2.55Z" fill="#c3be49"/>
          <path d="M28.87,80.53c.47-.51.31-1.6.23-2.22-.13-1.14-.58-2-.85-2.88-.38.46-.22.78-.15,1.26.19,1.22.57,2.56.76,3.84Z" fill="#9fb355"/>
          <path d="M31.65,85.98c1.5-.49-.42-1.64-.45-1.76-.05-.22.87-.78.21-1.94-1.29-.34-1.54,3.4.24,3.69Z" fill="#bfd38e"/>
          <path d="M32.59,89.49c-1.5-1.2-1.79.76-2.52,1.8.3.2.2.78.93.34.59-.35,1.72-1.39,1.59-2.14Z" fill="#a0b54a"/>
          <path d="M31.41,82.29c.2.05.57.4.67.38.13-.03.49-1.87.84-2.48-.54-1.22-.88.61-.96.63l-.76-.73c-.16.05-.48,1.28-.44,1.54s.42.24.66.66Z" fill="#7e9a36"/>
          <path d="M28.89,63.05c-1.07,2.02-.64,1.25-.63,2.99,0,.28-.33.58-.3.83.11,1.12.57,2.44,1.67,2.82,2.09.72,1.84-1.79,2.04-3.3s.54-1.35.88-2.5c.05-.16-.64-.54.21-1.37.18-.18.57.31.84-.43.59-1.66-1.08-3.51-2.6-2.61-.98.58-2.03,1.88-2.3,2.97-.08.34.18.5.19.6l.65-.13c1.69-3.58,5.17-3.67,1.41.74l-.4,2.03c-.09,7-2.1.26-1.12-2.26l-.55-.37Z" fill="#abb733"/>
          <path d="M34.6,73.17c.29-.09.9-3.94-.24-3.69-.5.11.5,1.54-.52,1.18-.64-.23-.81.51-.65,1.12.13.51.59.33.82.55.27.26.13.71.6.84Z" fill="#7e9f36"/>
          <path d="M30.37,57.39c-1.75.52-1.76,1.73-2.72,3.17.64.58.65-.28.96-.63.59-.67,1.8-1.66,1.76-2.54Z" fill="#7d9f3b"/>
          <path d="M34.69,64.03c.81.53.94-2.1.48-2.38-.92-.56-.67,2.25-.48,2.38Z" fill="#7e9d38"/>
          <path d="M28.89,63.05c.13.99-.13.91-.18,1.65-.08,1.21-.1,3.16.71,4.13,1.81,2.17,1.51-2.25,1.65-3.07.07-.41.28-1.7.39-1.99.36-.97,3.14-3.3,1.02-3.86-1.77-.47-2.94,1.93-3.59,3.14Z" fill="#eacc30"/>
        </g>
        <g>
          <path d="M55.11,72.54c-.55-.04-.41.64-.06.96-.03.47.2,1.05.7,1.75l-.37.81c1.1,3.64,1.64,7.31,1.63,11.01l.45.73-.54.45c.29,2.17-1.94,4.13-3.93,4.59l-.3-.56c-3-.72-4.38-4.44-4.89-7.19l-.66-.25c.3-.65-.17-.85-.76-.79.01.09-.14.36-.09.65.84,4.81,5.57,12.9,10.51,6.92,3.82-4.62-.11-14.11-1.23-19.34-.43-.57-.62-.42-.46.27Z" fill="#aa3b30"/>
          <path d="M50.05,63.78c.09.69.3.88.63.56.52-.09.63-.3.5-.75,1.88-.61.36-2.49-.94-2.68l.3-.53c-.86-.16-.96-1.01-.77-1.35.45.3.96,0,1.54-.93-.1.49.03.84.38,1.05-.5.68-.28.91.53.92l-.3.67c.62,2.81,1.22,5.62,1.81,8.44-1.2.96-.8,2.96-.16,4.18.37.71,1.39,2.24,2.19,1.89-.18-.81-.24-.98-.7-1.75-.47-1.08-.45-1.4.06-.96l.46-.27c-.93-4.31-2.16-9.23-2.81-13.52-.16-1.05.15-2.02-.26-2.99-.53-.26-.47-.04-.76.17-.56.42-2.44,2.39-2.66,3.01-.5,1.39.85,3.28.97,4.84Z" fill="#ad382e"/>
          <path d="M46.49,79.98c.48.24.78-.18.56-.63,1.03-.03,1.73-2.72.88-3.27.7-.75.71-1.27.03-1.55.51-.31.71-.94.58-1.89.35-.56.52-1.07.53-1.51.12-.17.36-.31.69-.4.62-.47.57-.77-.07-1.19.89-.9,1.48-3.62.9-4.83.5.11.55-.1.1-.36l-.63-.56c.06.79-.76,5.33-1.11,6.04-.6,1.24-1.61,1.64-1.73,3.44-.06.84.27,1.33.26,2.02-.03,1.32-1.37,3.27-.98,4.71Z" fill="#a63f31"/>
          <path d="M47.05,79.35c-.02.05-.26-.01-.56.63-.1.22-.13.49-.19.73-.05.57.03.74.5.33.85,0,.68,2.06-.12,1.92,0-.58-.15-.9-.5-.33.02.33.14,1.03.2,1.42,0,.41.74.74.76.79,1.65.26,2.35-3.14,1.85-4.45-.33-.87-1.28-1.93-1.94-1.04Z" fill="#b03313"/>
          <path d="M46.17,82.62c.26-.07.37.14.5.33.86-.17.86-1.54.12-1.92l-.5-.33c-.33,1.13-.2.87-.12,1.92Z" fill="#9e4d37"/>
          <path d="M50.24,60.9c.49.86.36.49.96,1.15,1.11,1.23-.36.81-.54,1.2-.08.17.1.73.03,1.08-.03.12-.08.24-.1.36.26.76.37,1.53.33,2.32,1.02.94.96,1.42-.16,1.46-.29.45-.64.8-1.07,1.05-.02.4-.13.79.07,1.19l-.1.36c1.53,1.41.3,3.77-1.49,4.15l-.23.85c-.12,1.06-.43,2.31-.88,3.27,2.52.46,1.62,4.27.09,5.48.31.6.39,2.04.74,2.83.97,2.21,2.44,5.09,5.11,5.17.64-.07,1.02-.29,1.15-.67,1.2-1.25,1.88-2.56,2.03-3.94.52.67,1.16.42,1.29-.44.6-3.93-.85-8.57-1.71-12.55-1.17-1.49-1.79-1.58-2.16-3.6-.24-1.33-.22-1.29.74-2.34-1.03-2.72-.96-6.67-2.12-9.24-.59-.14-1.25.14-1.98.83Z" fill="#ef6230"/>
          <path d="M56.18,88.23c-.12,1.37-.8,2.68-2.03,3.94-.37.24-.78.43-1.15.67,2.08.07,3.7-1.71,4.36-3.61.22-.65.04-.97.12-1.43-.31.26-1.05.25-1.29.44Z" fill="#e8543c"/>
          <path d="M55.05,73.5c0-.27.12-.73.06-.96-.14-.56-.62-1.4-.84-1.98-.38-.16.06,2.2.23,2.53s.52.38.54.41Z" fill="#e05d48"/>
          <path d="M49.77,59.02c-.42,1.87,1.98,2.09,1.92.12.14-.29.41-2.02-.01-2.15-.13-.04-1.65,1.74-1.91,2.02Z" fill="#e85536"/>
          <path d="M49.77,59.02c-.09.1-.44.17-.45.26-.02.14.73,1.29.92,1.62.95.31,1.24-.4,1.98-.83-.14-.32-.38-.61-.53-.92-.29.59-.94.86-1.48,1.16l-.43-1.29Z" fill="#ca3112"/>
          <path d="M50.59,64.7c-.26,1.54-.84,3.34-.9,4.83.99.86,1.25-.8,1.38-.79.09,0,.16.6.62.26.34-.25.69-1.26.42-1.58-.13-.15-.55-.16-.64-.31-.13-.2.36-1.96-.88-2.41Z" fill="#c73526"/>
          <path d="M47.95,74.52c.1,1.26,1.16.43,1.74-.25.91-1.08,1.03-3.22-.63-3.15-1.46.74-1.01,2.19-1.11,3.41Z" fill="#ec9f43"/>
          <path d="M49.75,70.71c-.59-.38-1.65-.35-.69.4.73.57,1.18,1.09.88,2.09-.19.64-1.17,2.02-1.99,1.32-.03.43.02,1.19-.03,1.55.26-.56.88-.51,1.33-.89,1.3-1.11,2.2-3.37.49-4.47Z" fill="#b9370f"/>
          <path d="M46.79,81.03c-.16.55.11,1.34-.12,1.92.18.26.33.85.65.86.46-.65.89-3.44.13-3.76-.15.3-.58.74-.65.99Z" fill="#f0954f"/>
          <path d="M53.26,79.78c-.68.26-.31,4.04-.56,5.08-.28,1.19-2.83,4.62-.74,4.91,1.91.27,3.05-2.27,3.33-3.82.33-1.83.21-5.74-2.03-6.16Z" fill="#f6c92f"/>
          <path d="M49.62,78.48c.51.53.83.77.82-.08,0-1.73-1-.83-1.18-1.1-.03-.04.37-.98,0-1.07-1.02-.23-.4,1.51-.4,1.74,0,.18-.37,2.78.63,2.12.3-.2-.3-1.29.14-1.61Z" fill="#c62e18"/>
          <path d="M56.18,88.23c-.23.18-.47,1.49-1.11,1.75l-.92,2.19c.77-.49,3.44-3.02,2.03-3.94Z" fill="#c52d14"/>
          <path d="M49.37,88.16s.72-.29.64-.54l-.8-2.13c-.82.3-.02,2.63.16,2.67Z" fill="#c53219"/>
          <path d="M50.53,59.81c.23.05.78-.52.72-.88-.16-.98-1.44.71-.72.88Z" fill="#fd9151"/>
        </g>
        <g>
          <path d="M45.68,54.41h-.58c-.53-.09-.69-.17-.29-.58l.23-.61c3.33-.59,7.85-1.44,10.06-4.19.18-.61.51-.93.98-.98-.36-.99-.79-1.95-1.29-2.88-1.46-1.05-2.96-2.02-4.49-2.9l-.91.42c-5.22-.15-10.47.27-15.75,1.26-.51.12-.92-.13-1.26-.52-.51.38-1.08.66-1.73.58-.7.37-2.16.61-2.89.29l-.48.37c-1.06-.39-1.96-.41-2.7-.08l-.42.57c-3.16.17-6.31.53-9.44,1.08l-.54-.5c-.63-.33-.27-.43.29-.58.12-.49.65-.42.87,0,1.08-.06,2.16-.2,3.18-.58,5.08-1.04,10.28-1.6,15.43-2.02l1.33-.29c.1,0,.19,0,.29,0,2.83-.54,5.72-.93,8.67-1.16,3.68.04,9.21.14,11.68,3.48,4.53,6.11-5.71,9.52-10.24,9.81Z" fill="#ceab45"/>
          <path d="M9.85,48.63c-.51-.45-.61-.84-.29-1.16.49-.4,1.18-.15,2.08.72.61.02,1.08.16,1.39.43.47-.96,4.36-1.47,5.29-1.21l.49.63c.38.41-1.04.44-.98.43,1.78-.29,2.13-.32,3.87-.11.04,0,.07.12.1.27,1.16-.19,2.59-.04,3.08,1.14.26-.45.45-.53.58,0,.37.29.76.3,1.52.24l.22.34h.39c.27,1.18,2.75,1.49,3.68,1.02l.55.42c.25-.89.75-.3,1.16.29.08-.13.17-.24.28-.34.26-.24,4.41.79,4.63,1.5.37-.44.75-.63,1.16-.58.75.37,1.7.5,2.84.41l.05.45c.21.93.97,1.03,2.25.31l.93.56c.19,0,.39.01.58,0-2.67.8-5.43.46-8.1-.13-1.51-.33-3.64-1.38-5.06-1.58-1.18-.17-2.46.14-3.67-.09-1.27-.23-2.43-1.46-3.77-2-1.74-.7-6.02-1.71-7.84-1.69s-4.4,1.31-6.15.65c-.48-.18-.85-.69-1.24-.93Z" fill="#d0ab47"/>
          <path d="M14.47,45.17c-.33.39-1.06.57-1.16,0h-.29c.21-.67.76-.56,1.28-.6,1.52-.12,5.75-.3,6.9-.57.23-.05.08-.52.61-.59,1.23-.16,2.85.2,4.08.05.55-.07.27-.55.83-.62,2.68-.34,5.81-.35,8.54-.56-.39.37-1.1.49-1.62.55-5.05.58-10.09,1.24-15.13,1.77-1.02.38-2.1.52-3.18.58-.29.02-.58-.02-.87,0Z" fill="#f6ecc5"/>
          <path d="M9.85,48.63c-.55-.34-3.02-2.3-2.89-3.03s5.09-.4,6.07-.44c.1,0,.19,0,.29,0,.65.6-.83.82-1.47.88-.96-.14-1.82-.05-2.57.28.71.2.92.67.29,1.16.11.38.2.77.29,1.16Z" fill="#f0e0a9"/>
          <path d="M35.56,42.28c.21-.67.76-.55,1.28-.6,2.53-.2,4.45-.59,7.38-.56-2.82.64-5.78.9-8.67,1.16Z" fill="#f6ecc5"/>
          <path d="M44.81,53.83l-.7.03c-1.46-1.78-4.53-2.34-6.23-.61-1.59.05-3.23-.91-4.91-1.16-1.33-1.73-2.6-2.63-4.97-2.79-1.04.78-1.89.94-2.54.48-.18,0-.4.02-.58,0-.24-.59-.62-1.13-1.15-1.63.35-1-.86-.98-1.13-.07l-3.49.22-.3-.25c-2.04-.28-3.84.37-5.78.58-.23-.09-.46-.18-.64-.34-.48-.42-1.52-1.41-1.38-1.97.04-.14.1-.26.17-.27.73-.18,2.49-.46,3.01-.3,2.71-.43,7.82-1.22,10.4-1.16.52-.55,1.74-.34,2.21.3,1.23.45,3.87.44,4.38-.96l1.21-.5c5.79-.12,12.05-2.38,17.91-1.16.78.42.97.81.58,1.16l.24.49c1.6.65,2.86,1.55,3.8,2.69.51.1.89.58,1.16,1.44-.43,3.62-8.23,5.44-11.27,5.78Z" fill="#f0ca2b"/>
          <path d="M45.1,54.41c-1.53.07-3.09-.05-4.62,0l1.44-.86c.7-.37-.37-.57-.88-.62-.94.45-1.61.36-2.01-.25-.19.05-.04.54-1.16.58.76-2.58,5.9-1.13,6.93.58.11.18.19.39.29.58Z" fill="#d7aa2b"/>
          <path d="M56.08,48.05c-.62.2-.95-.89-1.16-1.44-.96-1.15-2.29-2.08-4-2.77l-.04-.41c.05-.15-.67-.76-.58-1.16,2.71.57,6.15,2.62,5.78,5.78Z" fill="#f1c13a"/>
          <path d="M32.39,43.43c-1.18,1.8-3.53,2.43-5.64,2.03-.84-.16-.1-.82-2.16-.87-.31-.92,1.61-.6,2.48-.59.37,0,.66.3.7.3.79.28,2.28.13,2.89-.29-.07-.17-.36-.53-.29-.57.67-.02,1.35.01,2.02,0Z" fill="#d5a82d"/>
          <path d="M30.65,44.01s.23,0,.28.14c-.07.57-2.67.51-3.31.73l.14-.59c.89,0,1.9-.51,2.89-.29Z" fill="#e7b94a"/>
          <path d="M24.88,49.79c-1.34-.19-1.16-.52-1.36-.57-.68-.16-1.66.1-2.4,0l.29-.57h-3.76c0-.4.69-.35,1.15-.58,2.05-1,1.93-.15,3.3-.28.26-.02.22-.7.64-.85.69-.24,1.66.15,2.13.69-1.34.54-.45.52,0,.88.52.42.07.85,0,1.29Z" fill="#dbae2c"/>
          <path d="M31.81,51.81c-.84-.06-1.65-.21-2.43-.47-.72.27-1.45-.06-2.19-.98-.49.16-2.14.17-1.73-.58,1.73-.04,1.35-.64,2.47-.85,2.08-.4,4.63,1.03,5.04,3.16-.48-.07-.96-.27-1.16-.29Z" fill="#dbae2c"/>
          <path d="M9.56,47.48c-.11-.41-.31-.43-.29-1.16.56-.49,1.15-.45,1.73,0,.89.7,1.93.96,2.02,2.31-.33.04-.56.38-1.23.24-.73-.15-1.54-1.07-2.24-1.4Z" fill="#f8d040"/>
          <path d="M27.19,50.37c.07-.02.65-1.02,1.15-.58.13.11-.64,1.14.15,1.44,1.15-1.1,1.52.13,2.3.01.1-.01.64-1.73,1.01.56-.1-.01-.74.35-1.28.3-1.11-.11-3.18-.33-3.34-1.74Z" fill="#f4ce5d"/>
          <path d="M39.03,52.68c.43-.12,2.47-.05,2.96.07.31.08,1.77,1.04,1.37,1.37-.65.54-1.25-.45-1.44-.58-1.53-1-1.29.58-2.12.25-.47-.18-.73-.62-.77-1.12Z" fill="#ecc352"/>
          <path d="M11.01,46.32c-.58,0-1.16,0-1.73,0,0-.19-.02-.38,0-.58.47-.36,3.56.65,4.05-.58.38-.02.77.03,1.16,0l-.29.58c-1.2.19-1.31.59-3.18.58Z" fill="#d3b14c"/>
          <path d="M15.34,45.17c.76-.06,2.07-.46,3.18-.58-.89.64-2.13.6-3.18.58Z" fill="#d3b14c"/>
          <path d="M39.46,46.9c-.63-.19-.37-1.54-.1-1.69s.83.05,1.2-.05c.24-.06.19-.51.4-.57,1.27-.31,6.5-.01,7.82.47.91.34,1.47,1.12,1.59,1.17.37.16,1.01.02,1.08.08.11.1-.08,2.28.58,2.88-1.01.39-1.43.86-2.59.43-.77-.29-2.67-1.98-3.1-2.1-.58-.16-1.26.02-1.91-.12-.31-.06-.59-.52-.64-.52-.97,0-3.66.2-4.33,0Z" fill="#f2da61"/>
          <path d="M34.12,50.66c1.58.41.99-.71,1.42-1.03.74-.54,2.15-.07,1.47,1.03l1.73.43c-.85.61-4.51,1.01-4.62-.43Z" fill="#dbaf22"/>
          <path d="M54.92,46.61c-1.67-.71-2.97-2.06-4.62-2.6-.06-.33.55-.49.58-.57,1,.29,3.82,1.82,4.21,2.63.17.36-.17.52-.16.55Z" fill="#dfaf20"/>
          <path d="M46.27,51.79c-.68-1.06,1.07-.92,1.87-.86,3.35.26-1.33,1.7-1.87.86Z" fill="#ddaf22"/>
          <path d="M47.99,44.3c-.79-.81,2.37-.83,2.02.29-.4.04-1.83-.09-2.02-.29Z" fill="#dfaf20"/>
        </g>
      </g>
    </g>
  </g>
</svg>