<?xml version="1.0" encoding="UTF-8"?>
<svg id="Layer_2" data-name="Layer 2" xmlns="http://www.w3.org/2000/svg" viewBox="0 0 64.02 95.93">
  <g id="Cards">
    <g id="Clubs">
      <g id="SixOfClubs">
        <path d="M5.11,1.96l-1.46.16c-.04-.3-.13-.52-.28-.67-.15-.14-.35-.21-.59-.21-.32,0-.59.14-.81.43-.22.29-.36.88-.42,1.79.38-.44.84-.67,1.4-.67.63,0,1.17.24,1.62.72.45.48.67,1.1.67,1.86,0,.81-.24,1.45-.71,1.94-.47.49-1.08.73-1.82.73-.79,0-1.45-.31-1.96-.93-.51-.62-.77-1.63-.77-3.04S.27,1.59.8.96s1.23-.96,2.08-.96c.6,0,1.09.17,1.48.5.39.33.64.82.75,1.46ZM1.69,5.25c0,.49.11.87.34,1.14s.48.4.77.4.51-.11.7-.33c.19-.22.28-.58.28-1.07s-.1-.89-.3-1.12-.45-.36-.75-.36-.54.11-.74.34-.3.56-.3,1.01Z" fill="#3b920f"/>
        <path d="M58.9,93.97l1.46-.16c.04.3.13.52.28.67.15.14.35.21.59.21.32,0,.59-.14.81-.43.22-.29.36-.88.42-1.79-.38.44-.84.67-1.4.67-.63,0-1.17-.24-1.62-.72-.45-.48-.67-1.1-.67-1.86,0-.81.24-1.45.71-1.94.47-.49,1.08-.73,1.82-.73.79,0,1.45.31,1.96.93.51.62.77,1.63.77,3.04s-.27,2.48-.8,3.12-1.23.96-2.08.96c-.6,0-1.09-.17-1.48-.5-.39-.33-.64-.82-.75-1.46ZM62.32,90.67c0-.49-.11-.87-.34-1.14s-.48-.4-.77-.4-.51.11-.7.33c-.19.22-.28.58-.28,1.07s.1.89.3,1.12.45.36.75.36.54-.11.74-.34.3-.56.3-1.01Z" fill="#3b920f"/>
        <g>
          <path d="M29.15,19.33c.55-.04.41.64.06.96.03.47-.2,1.05-.7,1.75l.37.81c-1.1,3.64-1.64,7.31-1.63,11.01l-.45.73.54.45c-.29,2.17,1.94,4.13,3.93,4.59l.3-.56c3-.72,4.38-4.44,4.89-7.19l.66-.25c-.3-.65.17-.85.76-.79-.01.09.14.36.09.65-.84,4.81-5.57,12.9-10.51,6.92-3.82-4.62.11-14.11,1.23-19.34.43-.57.62-.42.46.27Z" fill="#aa3b30"/>
          <path d="M34.21,10.56c-.09.69-.3.88-.63.56-.52-.09-.63-.3-.5-.75-1.88-.61-.36-2.49.94-2.68l-.3-.53c.86-.16.96-1.01.77-1.35-.45.3-.96,0-1.54-.93.1.49-.03.84-.38,1.05.5.68.28.91-.53.92l.3.67c-.62,2.81-1.22,5.62-1.81,8.44,1.2.96.8,2.96.16,4.18-.37.71-1.39,2.24-2.19,1.89.18-.81.24-.98.7-1.75.47-1.08.45-1.4-.06-.96l-.46-.27c.93-4.31,2.16-9.23,2.81-13.52.16-1.05-.15-2.02.26-2.99.53-.26.47-.04.76.17.56.42,2.44,2.39,2.66,3.01.5,1.39-.85,3.28-.97,4.84Z" fill="#ad382e"/>
          <path d="M37.77,26.77c-.48.24-.78-.18-.56-.63-1.03-.03-1.73-2.72-.88-3.27-.7-.75-.71-1.27-.03-1.55-.51-.31-.71-.94-.58-1.89-.35-.56-.52-1.07-.53-1.51-.12-.17-.36-.31-.69-.4-.62-.47-.57-.77.07-1.19-.89-.9-1.48-3.62-.9-4.83-.5.11-.55-.1-.1-.36l.63-.56c-.06.79.76,5.33,1.11,6.04.6,1.24,1.61,1.64,1.73,3.44.06.84-.27,1.33-.26,2.02.03,1.32,1.37,3.27.98,4.71Z" fill="#a63f31"/>
          <path d="M37.21,26.14c.02.05.26-.01.56.63.1.22.13.49.19.73.05.57-.03.74-.5.33-.85,0-.68,2.06.12,1.92,0-.58.15-.9.5-.33-.02.33-.14,1.03-.2,1.42,0,.41-.74.74-.76.79-1.65.26-2.35-3.14-1.85-4.45.33-.87,1.28-1.93,1.94-1.04Z" fill="#b03313"/>
          <path d="M38.09,29.41c-.26-.07-.37.14-.5.33-.86-.17-.86-1.54-.12-1.92l.5-.33c.33,1.13.2.87.12,1.92Z" fill="#9e4d37"/>
          <path d="M34.02,7.69c-.49.86-.36.49-.96,1.15-1.11,1.23.36.81.54,1.2.08.17-.1.73-.03,1.08.03.12.08.24.1.36-.26.76-.37,1.53-.33,2.32-1.02.94-.96,1.42.16,1.46.29.45.64.8,1.07,1.05.02.4.13.79-.07,1.19l.1.36c-1.53,1.41-.3,3.77,1.49,4.15l.23.85c.12,1.06.43,2.31.88,3.27-2.52.46-1.62,4.27-.09,5.48-.31.6-.39,2.04-.74,2.83-.97,2.21-2.44,5.09-5.11,5.17-.64-.07-1.02-.29-1.15-.67-1.2-1.25-1.88-2.56-2.03-3.94-.52.67-1.16.42-1.29-.44-.6-3.93.85-8.57,1.71-12.55,1.17-1.49,1.79-1.58,2.16-3.6.24-1.33.22-1.29-.74-2.34,1.03-2.72.96-6.67,2.12-9.24.59-.14,1.25.14,1.98.83Z" fill="#ef6230"/>
          <path d="M28.08,35.02c.12,1.37.8,2.68,2.03,3.94.37.24.78.43,1.15.67-2.08.07-3.7-1.71-4.36-3.61-.22-.65-.04-.97-.12-1.43.31.26,1.05.25,1.29.44Z" fill="#e8543c"/>
          <path d="M29.21,20.29c0-.27-.12-.73-.06-.96.14-.56.62-1.4.84-1.98.38-.16-.06,2.2-.23,2.53s-.52.38-.54.41Z" fill="#e05d48"/>
          <path d="M34.49,5.81c.42,1.87-1.98,2.09-1.92.12-.14-.29-.41-2.02.01-2.15.13-.04,1.65,1.74,1.91,2.02Z" fill="#e85536"/>
          <path d="M34.49,5.81c.09.1.44.17.45.26.02.14-.73,1.29-.92,1.62-.95.31-1.24-.4-1.98-.83.14-.32.38-.61.53-.92.29.59.94.86,1.48,1.16l.43-1.29Z" fill="#ca3112"/>
          <path d="M33.67,11.49c.26,1.54.84,3.34.9,4.83-.99.86-1.25-.8-1.38-.79-.09,0-.16.6-.62.26-.34-.25-.69-1.26-.42-1.58.13-.15.55-.16.64-.31.13-.2-.36-1.96.88-2.41Z" fill="#c73526"/>
          <path d="M36.31,21.31c-.1,1.26-1.16.43-1.74-.25-.91-1.08-1.03-3.22.63-3.15,1.46.74,1.01,2.19,1.11,3.41Z" fill="#ec9f43"/>
          <path d="M34.51,17.5c.59-.38,1.65-.35.69.4-.73.57-1.18,1.09-.88,2.09.19.64,1.17,2.02,1.99,1.32.03.43-.02,1.19.03,1.55-.26-.56-.88-.51-1.33-.89-1.3-1.11-2.2-3.37-.49-4.47Z" fill="#b9370f"/>
          <path d="M37.47,27.82c.16.55-.11,1.34.12,1.92-.18.26-.33.85-.65.86-.46-.65-.89-3.44-.13-3.76.15.3.58.74.65.99Z" fill="#f0954f"/>
          <path d="M31,26.57c.68.26.31,4.04.56,5.08.28,1.19,2.83,4.62.74,4.91-1.91.27-3.05-2.27-3.33-3.82-.33-1.83-.21-5.74,2.03-6.16Z" fill="#f6c92f"/>
          <path d="M34.64,25.27c-.51.53-.83.77-.82-.08,0-1.73,1-.83,1.18-1.1.03-.04-.37-.98,0-1.07,1.02-.23.4,1.51.4,1.74,0,.18.37,2.78-.63,2.12-.3-.2.3-1.29-.14-1.61Z" fill="#c62e18"/>
          <path d="M28.08,35.02c.23.18.47,1.49,1.11,1.75l.92,2.19c-.77-.49-3.44-3.02-2.03-3.94Z" fill="#c52d14"/>
          <path d="M34.89,34.95s-.72-.29-.64-.54l.8-2.13c.82.3.02,2.63-.16,2.67Z" fill="#c53219"/>
          <path d="M33.73,6.6c-.23.05-.78-.52-.72-.88.16-.98,1.44.71.72.88Z" fill="#fd9151"/>
        </g>
        <g>
          <path d="M15.67,23.14c.34-.9-.05-1.29.04-1.98.29-2.3,1.79-4.53,1.91-7.28.18-4.07-3.07-13.66-8.53-10.75-3.37,1.8-3.87,5.51-3.7,8.95.41,8.02,3.25,16.98,3.78,25.1.05.83-.57,3.2.4,3.16.22-.01,3.05-2.65,3.22-3,.57-1.16-.29-2.7-.44-3.83-.23-1.76.53-5.4,1.37-6.96.56-1.05,1.87-1.9,1.82-3.2-.57,1.1-1.35,1.86-2.36,2.26v.81c-.58-.41-.87-.1-.62.54-.57-.12-.93,1.11-1.11,1.73l-.39.36c-.77,1.32-.67,2.36.28,3.12l-.04.57c-2.06-1.05-1.17,2.26.21,2.2-.11.49.13.93.73,1.31l-.51.23c-.37.79-1.07,1.57-2.01,1.58-.17-.1.24-1.41.61-1.91-.08-.21-.24-.33-.48-.38.1-.22.18-.43.23-.66.19-.81-.71-6.6-1.14-7.29-.12-.19-.27-.36-.43-.53-.07-1.72-.28-3.42-.61-5.1l.35-.64c-.98-3.68-1.68-7.51-1.54-11.34l-.47-.55c.42-1.46,1.03-3.57,2.07-4.76,1.46-1.66,3.99-1.84,5.46-.08l-.04.73c1.54,1.71,2.27,3.83,2.1,6.12l.48.54c-.32.42-.4.76.19.7-.2.73-.26,2.12.31,2.55-.93.73-1.15,1.29-.68,1.68-.89.17-1.86,2.9-1.13,3.5-.84.54-.6.83.15,1.27-.71.28-.67.72.06.92-.16.68-.09.72.44.26Z" fill="#81944f"/>
          <path d="M13.17,26.44c.66-.88,1.24-1.16,1.42-1.39.29-.37.75-1.24.95-1.69.03-.08.1-.14.13-.22l-.44-.26-.54.07c-1.6,4.02-2.08-.52.48-.99.01-.2-.27-.76-.15-1.27-.53-.87-2.13.48-2.6,1.08-1.25,1.62-.75,3.48.76,4.67Z" fill="#939c36"/>
          <path d="M11.51,34.97c-.21-.21-1-1.69-.98-1.9.11-.48.41-.18.76-.3l-.08-.55c-1.13-.83-.72-2.08-.16-3.15l.22-.29c-.57-.77-.39-1.08.54-.92.14-.6.39-.9.75-.88.02-.04.37-.23.61-.54.03-.91-.77-1.51-.92-2.29-.34-1.74,1.27-3,2.76-3.46.22-.97.8-2.44,1.13-3.5l-.13-.63c-.97-1.09-.86-2.52.31-4.3.23-3.07-.4-5.02-2.55-7.4-.85-1.05-3.05-1.91-3.75-.69-.94.78-1.53,1.63-1.76,2.54-.03.51-.15,1.22-.77.91-.82.37-1.38,1.14-1.25,2.07-.36,3.49.64,9.15,1.66,12.52.37,1.69.58,3.39.61,5.1.41,2.68.85,5.68,1.33,8.47.3.6,1.78-.27,1.66-.82Z" fill="#97b43d"/>
          <path d="M8.26,6.72c-.26-.05-.27-.07-.16-.22.61-.83,1.25-1.56,1.92-2.32,1.62-.48,2.33-.37,3.75.69-.83-.92-.93-1.35-2.38-1.52-3.06-.36-4.9,3.22-5.33,5.75-.05.28.18.55.17.6.17-1.63,2.76-1.46,2.02-2.98Z" fill="#92af53"/>
          <path d="M15.22,22.89c.02-.08-.08-.62-.06-.92-1.53-1.08-3.11,2.36-1.91,3.05,1.04.6,1.82-1.35,1.97-2.13Z" fill="#d3bb3b"/>
          <path d="M16.14,17.19c.18-.59.48-.83.68-1.68l-.65-.07c.16-.82.28-1.65.34-2.48-.06-.17-.2-.57-.19-.7-1.39.93-2.13,4.28-.18,4.93Z" fill="#8a9b2b"/>
          <path d="M9.71,38.08l.34.11c.54-1.21,1.27-1.85,2.18-1.91-.04-.22-.37-.49-.25-.59.28-.18.51.38.64-.07-.3-.25-.85-.4-1.11-.64l-1.66.82c.12.7-.31.81-.45,1.31-.05.18.49.66-.03,1.08.13.1.32-.11.34-.1Z" fill="#7f9a34"/>
          <path d="M16.82,15.51c.32-1.44.06-1.45-.31-2.55-.95.79-1.43,4.63.31,2.55Z" fill="#c3be49"/>
          <path d="M8.52,27.31c.47-.51.31-1.6.23-2.22-.13-1.14-.58-2-.85-2.88-.38.46-.22.78-.15,1.26.19,1.22.57,2.56.76,3.84Z" fill="#9fb355"/>
          <path d="M11.3,32.77c1.5-.49-.42-1.64-.45-1.76-.05-.22.87-.78.21-1.94-1.29-.34-1.54,3.4.24,3.69Z" fill="#bfd38e"/>
          <path d="M12.23,36.28c-1.5-1.2-1.79.76-2.52,1.8.3.2.2.78.93.34.59-.35,1.72-1.39,1.59-2.14Z" fill="#a0b54a"/>
          <path d="M11.06,29.08c.2.05.57.4.67.38.13-.03.49-1.87.84-2.48-.54-1.22-.88.61-.96.63l-.76-.73c-.16.05-.48,1.28-.44,1.54s.42.24.66.66Z" fill="#7e9a36"/>
          <path d="M8.53,9.84c-1.07,2.02-.64,1.25-.63,2.99,0,.28-.33.58-.3.83.11,1.12.57,2.44,1.67,2.82,2.09.72,1.84-1.79,2.04-3.3s.54-1.35.88-2.5c.05-.16-.64-.54.21-1.37.18-.18.57.31.84-.43.59-1.66-1.08-3.51-2.6-2.61-.98.58-2.03,1.88-2.3,2.97-.08.34.18.5.19.6l.65-.13c1.69-3.58,5.17-3.67,1.41.74l-.4,2.03c-.09,7-2.1.26-1.12-2.26l-.55-.37Z" fill="#abb733"/>
          <path d="M14.25,19.95c.29-.09.9-3.94-.24-3.69-.5.11.5,1.54-.52,1.18-.64-.23-.81.51-.65,1.12.13.51.59.33.82.55.27.26.13.71.6.84Z" fill="#7e9f36"/>
          <path d="M10.02,4.18c-1.75.52-1.76,1.73-2.72,3.17.64.58.65-.28.96-.63.59-.67,1.8-1.66,1.76-2.54Z" fill="#7d9f3b"/>
          <path d="M14.34,10.82c.81.53.94-2.1.48-2.38-.92-.56-.67,2.25-.48,2.38Z" fill="#7e9d38"/>
          <path d="M8.53,9.84c.13.99-.13.91-.18,1.65-.08,1.21-.1,3.16.71,4.13,1.81,2.17,1.51-2.25,1.65-3.07.07-.41.28-1.7.39-1.99.36-.97,3.14-3.3,1.02-3.86-1.77-.47-2.94,1.93-3.59,3.14Z" fill="#eacc30"/>
        </g>
        <g>
          <path d="M56.59,23.14c.34-.9-.05-1.29.04-1.98.29-2.3,1.79-4.53,1.91-7.28.18-4.07-3.07-13.66-8.53-10.75-3.37,1.8-3.87,5.51-3.7,8.95.41,8.02,3.25,16.98,3.78,25.1.05.83-.57,3.2.4,3.16.22-.01,3.05-2.65,3.22-3,.57-1.16-.29-2.7-.44-3.83-.23-1.76.53-5.4,1.37-6.96.56-1.05,1.87-1.9,1.82-3.2-.57,1.1-1.35,1.86-2.36,2.26v.81c-.58-.41-.87-.1-.62.54-.57-.12-.93,1.11-1.11,1.73l-.39.36c-.77,1.32-.67,2.36.28,3.12l-.04.57c-2.06-1.05-1.17,2.26.21,2.2-.11.49.13.93.73,1.31l-.51.23c-.37.79-1.07,1.57-2.01,1.58-.17-.1.24-1.41.61-1.91-.08-.21-.24-.33-.48-.38.1-.22.18-.43.23-.66.19-.81-.71-6.6-1.14-7.29-.12-.19-.27-.36-.43-.53-.07-1.72-.28-3.42-.61-5.1l.35-.64c-.98-3.68-1.68-7.51-1.54-11.34l-.47-.55c.42-1.46,1.03-3.57,2.07-4.76,1.46-1.66,3.99-1.84,5.46-.08l-.04.73c1.54,1.71,2.27,3.83,2.1,6.12l.48.54c-.32.42-.4.76.19.7-.2.73-.26,2.12.31,2.55-.93.73-1.15,1.29-.68,1.68-.89.17-1.86,2.9-1.13,3.5-.84.54-.6.83.15,1.27-.71.28-.67.72.06.92-.16.68-.09.72.44.26Z" fill="#81944f"/>
          <path d="M54.09,26.44c.66-.88,1.24-1.16,1.42-1.39.29-.37.75-1.24.95-1.69.03-.08.1-.14.13-.22l-.44-.26-.54.07c-1.6,4.02-2.08-.52.48-.99.01-.2-.27-.76-.15-1.27-.53-.87-2.13.48-2.6,1.08-1.25,1.62-.75,3.48.76,4.67Z" fill="#939c36"/>
          <path d="M52.43,34.97c-.21-.21-1-1.69-.98-1.9.11-.48.41-.18.76-.3l-.08-.55c-1.13-.83-.72-2.08-.16-3.15l.22-.29c-.57-.77-.39-1.08.54-.92.14-.6.39-.9.75-.88.02-.04.37-.23.61-.54.03-.91-.77-1.51-.92-2.29-.34-1.74,1.27-3,2.76-3.46.22-.97.8-2.44,1.13-3.5l-.13-.63c-.97-1.09-.86-2.52.31-4.3.23-3.07-.4-5.02-2.55-7.4-.85-1.05-3.05-1.91-3.75-.69-.94.78-1.53,1.63-1.76,2.54-.03.51-.15,1.22-.77.91-.82.37-1.38,1.14-1.25,2.07-.36,3.49.64,9.15,1.66,12.52.37,1.69.58,3.39.61,5.1.41,2.68.85,5.68,1.33,8.47.3.6,1.78-.27,1.66-.82Z" fill="#97b43d"/>
          <path d="M49.18,6.72c-.26-.05-.27-.07-.16-.22.61-.83,1.25-1.56,1.92-2.32,1.62-.48,2.33-.37,3.75.69-.83-.92-.93-1.35-2.38-1.52-3.06-.36-4.9,3.22-5.33,5.75-.05.28.18.55.17.6.17-1.63,2.76-1.46,2.02-2.98Z" fill="#92af53"/>
          <path d="M56.15,22.89c.02-.08-.08-.62-.06-.92-1.53-1.08-3.11,2.36-1.91,3.05,1.04.6,1.82-1.35,1.97-2.13Z" fill="#d3bb3b"/>
          <path d="M57.06,17.19c.18-.59.48-.83.68-1.68l-.65-.07c.16-.82.28-1.65.34-2.48-.06-.17-.2-.57-.19-.7-1.39.93-2.13,4.28-.18,4.93Z" fill="#8a9b2b"/>
          <path d="M50.64,38.08l.34.11c.54-1.21,1.27-1.85,2.18-1.91-.04-.22-.37-.49-.25-.59.28-.18.51.38.64-.07-.3-.25-.85-.4-1.11-.64l-1.66.82c.12.7-.31.81-.45,1.31-.05.18.49.66-.03,1.08.13.1.32-.11.34-.1Z" fill="#7f9a34"/>
          <path d="M57.74,15.51c.32-1.44.06-1.45-.31-2.55-.95.79-1.43,4.63.31,2.55Z" fill="#c3be49"/>
          <path d="M49.44,27.31c.47-.51.31-1.6.23-2.22-.13-1.14-.58-2-.85-2.88-.38.46-.22.78-.15,1.26.19,1.22.57,2.56.76,3.84Z" fill="#9fb355"/>
          <path d="M52.22,32.77c1.5-.49-.42-1.64-.45-1.76-.05-.22.87-.78.21-1.94-1.29-.34-1.54,3.4.24,3.69Z" fill="#bfd38e"/>
          <path d="M53.16,36.28c-1.5-1.2-1.79.76-2.52,1.8.3.2.2.78.93.34.59-.35,1.72-1.39,1.59-2.14Z" fill="#a0b54a"/>
          <path d="M51.98,29.08c.2.05.57.4.67.38.13-.03.49-1.87.84-2.48-.54-1.22-.88.61-.96.63l-.76-.73c-.16.05-.48,1.28-.44,1.54s.42.24.66.66Z" fill="#7e9a36"/>
          <path d="M49.46,9.84c-1.07,2.02-.64,1.25-.63,2.99,0,.28-.33.58-.3.83.11,1.12.57,2.44,1.67,2.82,2.09.72,1.84-1.79,2.04-3.3s.54-1.35.88-2.5c.05-.16-.64-.54.21-1.37.18-.18.57.31.84-.43.59-1.66-1.08-3.51-2.6-2.61-.98.58-2.03,1.88-2.3,2.97-.08.34.18.5.19.6l.65-.13c1.69-3.58,5.17-3.67,1.41.74l-.4,2.03c-.09,7-2.1.26-1.12-2.26l-.55-.37Z" fill="#abb733"/>
          <path d="M55.17,19.95c.29-.09.9-3.94-.24-3.69-.5.11.5,1.54-.52,1.18-.64-.23-.81.51-.65,1.12.13.51.59.33.82.55.27.26.13.71.6.84Z" fill="#7e9f36"/>
          <path d="M50.95,4.18c-1.75.52-1.76,1.73-2.72,3.17.64.58.65-.28.96-.63.59-.67,1.8-1.66,1.76-2.54Z" fill="#7d9f3b"/>
          <path d="M55.26,10.82c.81.53.94-2.1.48-2.38-.92-.56-.67,2.25-.48,2.38Z" fill="#7e9d38"/>
          <path d="M49.46,9.84c.13.99-.13.91-.18,1.65-.08,1.21-.1,3.16.71,4.13,1.81,2.17,1.51-2.25,1.65-3.07.07-.41.28-1.7.39-1.99.36-.97,3.14-3.3,1.02-3.86-1.77-.47-2.94,1.93-3.59,3.14Z" fill="#eacc30"/>
        </g>
        <g>
          <path d="M14.35,72.2c-.55-.04-.41.64-.06.96-.03.47.2,1.05.7,1.75l-.37.81c1.1,3.64,1.64,7.31,1.63,11.01l.45.73-.54.45c.29,2.17-1.94,4.13-3.93,4.59l-.3-.56c-3-.72-4.38-4.44-4.89-7.19l-.66-.25c.3-.65-.17-.85-.76-.79.01.09-.14.36-.09.65.84,4.81,5.57,12.9,10.51,6.92,3.82-4.62-.11-14.11-1.23-19.34-.43-.57-.62-.42-.46.27Z" fill="#aa3b30"/>
          <path d="M9.29,63.44c.09.69.3.88.63.56.52-.09.63-.3.5-.75,1.88-.61.36-2.49-.94-2.68l.3-.53c-.86-.16-.96-1.01-.77-1.35.45.3.96,0,1.54-.93-.1.49.03.84.38,1.05-.5.68-.28.91.53.92l-.3.67c.62,2.81,1.22,5.62,1.81,8.44-1.2.96-.8,2.96-.16,4.18.37.71,1.39,2.24,2.19,1.89-.18-.81-.24-.98-.7-1.75-.47-1.08-.45-1.4.06-.96l.46-.27c-.93-4.31-2.16-9.23-2.81-13.52-.16-1.05.15-2.02-.26-2.99-.53-.26-.47-.04-.76.17-.56.42-2.44,2.39-2.66,3.01-.5,1.39.85,3.28.97,4.84Z" fill="#ad382e"/>
          <path d="M5.72,79.64c.48.24.78-.18.56-.63,1.03-.03,1.73-2.72.88-3.27.7-.75.71-1.27.03-1.55.51-.31.71-.94.58-1.89.35-.56.52-1.07.53-1.51.12-.17.36-.31.69-.4.62-.47.57-.77-.07-1.19.89-.9,1.48-3.62.9-4.83.5.11.55-.1.1-.36l-.63-.56c.06.79-.76,5.33-1.11,6.04-.6,1.24-1.61,1.64-1.73,3.44-.06.84.27,1.33.26,2.02-.03,1.32-1.37,3.27-.98,4.71Z" fill="#a63f31"/>
          <path d="M6.28,79.01c-.02.05-.26-.01-.56.63-.1.22-.13.49-.19.73-.05.57.03.74.5.33.85,0,.68,2.06-.12,1.92,0-.58-.15-.9-.5-.33.02.33.14,1.03.2,1.42,0,.41.74.74.76.79,1.65.26,2.35-3.14,1.85-4.45-.33-.87-1.28-1.93-1.94-1.04Z" fill="#b03313"/>
          <path d="M5.41,82.29c.26-.07.37.14.5.33.86-.17.86-1.54.12-1.92l-.5-.33c-.33,1.13-.2.87-.12,1.92Z" fill="#9e4d37"/>
          <path d="M9.47,60.56c.49.86.36.49.96,1.15,1.11,1.23-.36.81-.54,1.2-.08.17.1.73.03,1.08-.03.12-.08.24-.1.36.26.76.37,1.53.33,2.32,1.02.94.96,1.42-.16,1.46-.29.45-.64.8-1.07,1.05-.02.4-.13.79.07,1.19l-.1.36c1.53,1.41.3,3.77-1.49,4.15l-.23.85c-.12,1.06-.43,2.31-.88,3.27,2.52.46,1.62,4.27.09,5.48.31.6.39,2.04.74,2.83.97,2.21,2.44,5.09,5.11,5.17.64-.07,1.02-.29,1.15-.67,1.2-1.25,1.88-2.56,2.03-3.94.52.67,1.16.42,1.29-.44.6-3.93-.85-8.57-1.71-12.55-1.17-1.49-1.79-1.58-2.16-3.6-.24-1.33-.22-1.29.74-2.34-1.03-2.72-.96-6.67-2.12-9.24-.59-.14-1.25.14-1.98.83Z" fill="#ef6230"/>
          <path d="M15.41,87.89c-.12,1.37-.8,2.68-2.03,3.94-.37.24-.78.43-1.15.67,2.08.07,3.7-1.71,4.36-3.61.22-.65.04-.97.12-1.43-.31.26-1.05.25-1.29.44Z" fill="#e8543c"/>
          <path d="M14.28,73.16c0-.27.12-.73.06-.96-.14-.56-.62-1.4-.84-1.98-.38-.16.06,2.2.23,2.53s.52.38.54.41Z" fill="#e05d48"/>
          <path d="M9,58.68c-.42,1.87,1.98,2.09,1.92.12.14-.29.41-2.02-.01-2.15-.13-.04-1.65,1.74-1.91,2.02Z" fill="#e85536"/>
          <path d="M9,58.68c-.09.1-.44.17-.45.26-.02.14.73,1.29.92,1.62.95.31,1.24-.4,1.98-.83-.14-.32-.38-.61-.53-.92-.29.59-.94.86-1.48,1.16l-.43-1.29Z" fill="#ca3112"/>
          <path d="M9.82,64.36c-.26,1.54-.84,3.34-.9,4.83.99.86,1.25-.8,1.38-.79.09,0,.16.6.62.26.34-.25.69-1.26.42-1.58-.13-.15-.55-.16-.64-.31-.13-.2.36-1.96-.88-2.41Z" fill="#c73526"/>
          <path d="M7.19,74.19c.1,1.26,1.16.43,1.74-.25.91-1.08,1.03-3.22-.63-3.15-1.46.74-1.01,2.19-1.11,3.41Z" fill="#ec9f43"/>
          <path d="M8.99,70.38c-.59-.38-1.65-.35-.69.4.73.57,1.18,1.09.88,2.09-.19.64-1.17,2.02-1.99,1.32-.03.43.02,1.19-.03,1.55.26-.56.88-.51,1.33-.89,1.3-1.11,2.2-3.37.49-4.47Z" fill="#b9370f"/>
          <path d="M6.03,80.7c-.16.55.11,1.34-.12,1.92.18.26.33.85.65.86.46-.65.89-3.44.13-3.76-.15.3-.58.74-.65.99Z" fill="#f0954f"/>
          <path d="M12.49,79.44c-.68.26-.31,4.04-.56,5.08-.28,1.19-2.83,4.62-.74,4.91,1.91.27,3.05-2.27,3.33-3.82.33-1.83.21-5.74-2.03-6.16Z" fill="#f6c92f"/>
          <path d="M8.85,78.15c.51.53.83.77.82-.08,0-1.73-1-.83-1.18-1.1-.03-.04.37-.98,0-1.07-1.02-.23-.4,1.51-.4,1.74,0,.18-.37,2.78.63,2.12.3-.2-.3-1.29.14-1.61Z" fill="#c62e18"/>
          <path d="M15.41,87.89c-.23.18-.47,1.49-1.11,1.75l-.92,2.19c.77-.49,3.44-3.02,2.03-3.94Z" fill="#c52d14"/>
          <path d="M8.6,87.82s.72-.29.64-.54l-.8-2.13c-.82.3-.02,2.63.16,2.67Z" fill="#c53219"/>
          <path d="M9.76,59.47c.23.05.78-.52.72-.88-.16-.98-1.44.71-.72.88Z" fill="#fd9151"/>
        </g>
        <g>
          <path d="M36.18,76.02c.34-.9-.05-1.29.04-1.98.29-2.3,1.79-4.53,1.91-7.28.18-4.07-3.07-13.66-8.53-10.75-3.37,1.8-3.87,5.51-3.7,8.95.41,8.02,3.25,16.98,3.78,25.1.05.83-.57,3.2.4,3.16.22-.01,3.05-2.65,3.22-3,.57-1.16-.29-2.7-.44-3.83-.23-1.76.53-5.4,1.37-6.96.56-1.05,1.87-1.9,1.82-3.2-.57,1.1-1.35,1.86-2.36,2.26v.81c-.58-.41-.87-.1-.62.54-.57-.12-.93,1.11-1.11,1.73l-.39.36c-.77,1.32-.67,2.36.28,3.12l-.04.57c-2.06-1.05-1.17,2.26.21,2.2-.11.49.13.93.73,1.31l-.51.23c-.37.79-1.07,1.57-2.01,1.58-.17-.1.24-1.41.61-1.91-.08-.21-.24-.33-.48-.38.1-.22.18-.43.23-.66.19-.81-.71-6.6-1.14-7.29-.12-.19-.27-.36-.43-.53-.07-1.72-.28-3.42-.61-5.1l.35-.64c-.98-3.68-1.68-7.51-1.54-11.34l-.47-.55c.42-1.46,1.03-3.57,2.07-4.76,1.46-1.66,3.99-1.84,5.46-.08l-.04.73c1.54,1.71,2.27,3.83,2.1,6.12l.48.54c-.32.42-.4.76.19.7-.2.73-.26,2.12.31,2.55-.93.73-1.15,1.29-.68,1.68-.89.17-1.86,2.9-1.13,3.5-.84.54-.6.83.15,1.27-.71.28-.67.72.06.92-.16.68-.09.72.44.26Z" fill="#81944f"/>
          <path d="M33.68,79.32c.66-.88,1.24-1.16,1.42-1.39.29-.37.75-1.24.95-1.69.03-.08.1-.14.13-.22l-.44-.26-.54.07c-1.6,4.02-2.08-.52.48-.99.01-.2-.27-.76-.15-1.27-.53-.87-2.13.48-2.6,1.08-1.25,1.62-.75,3.48.76,4.67Z" fill="#939c36"/>
          <path d="M32.02,87.84c-.21-.21-1-1.69-.98-1.9.11-.48.41-.18.76-.3l-.08-.55c-1.13-.83-.72-2.08-.16-3.15l.22-.29c-.57-.77-.39-1.08.54-.92.14-.6.39-.9.75-.88.02-.04.37-.23.61-.54.03-.91-.77-1.51-.92-2.29-.34-1.74,1.27-3,2.76-3.46.22-.97.8-2.44,1.13-3.5l-.13-.63c-.97-1.09-.86-2.52.31-4.3.23-3.07-.4-5.02-2.55-7.4-.85-1.05-3.05-1.91-3.75-.69-.94.78-1.53,1.63-1.76,2.54-.03.51-.15,1.22-.77.91-.82.37-1.38,1.14-1.25,2.07-.36,3.49.64,9.15,1.66,12.52.37,1.69.58,3.39.61,5.1.41,2.68.85,5.68,1.33,8.47.3.6,1.78-.27,1.66-.82Z" fill="#97b43d"/>
          <path d="M28.77,59.59c-.26-.05-.27-.07-.16-.22.61-.83,1.25-1.56,1.92-2.32,1.62-.48,2.33-.37,3.75.69-.83-.92-.93-1.35-2.38-1.52-3.06-.36-4.9,3.22-5.33,5.75-.05.28.18.55.17.6.17-1.63,2.76-1.46,2.02-2.98Z" fill="#92af53"/>
          <path d="M35.73,75.76c.02-.08-.08-.62-.06-.92-1.53-1.08-3.11,2.36-1.91,3.05,1.04.6,1.82-1.35,1.97-2.13Z" fill="#d3bb3b"/>
          <path d="M36.65,70.07c.18-.59.48-.83.68-1.68l-.65-.07c.16-.82.28-1.65.34-2.48-.06-.17-.2-.57-.19-.7-1.39.93-2.13,4.28-.18,4.93Z" fill="#8a9b2b"/>
          <path d="M30.22,90.96l.34.11c.54-1.21,1.27-1.85,2.18-1.91-.04-.22-.37-.49-.25-.59.28-.18.51.38.64-.07-.3-.25-.85-.4-1.11-.64l-1.66.82c.12.7-.31.81-.45,1.31-.05.18.49.66-.03,1.08.13.1.32-.11.34-.1Z" fill="#7f9a34"/>
          <path d="M37.32,68.39c.32-1.44.06-1.45-.31-2.55-.95.79-1.43,4.63.31,2.55Z" fill="#c3be49"/>
          <path d="M29.03,80.19c.47-.51.31-1.6.23-2.22-.13-1.14-.58-2-.85-2.88-.38.46-.22.78-.15,1.26.19,1.22.57,2.56.76,3.84Z" fill="#9fb355"/>
          <path d="M31.8,85.65c1.5-.49-.42-1.64-.45-1.76-.05-.22.87-.78.21-1.94-1.29-.34-1.54,3.4.24,3.69Z" fill="#bfd38e"/>
          <path d="M32.74,89.15c-1.5-1.2-1.79.76-2.52,1.8.3.2.2.78.93.34.59-.35,1.72-1.39,1.59-2.14Z" fill="#a0b54a"/>
          <path d="M31.57,81.95c.2.05.57.4.67.38.13-.03.49-1.87.84-2.48-.54-1.22-.88.61-.96.63l-.76-.73c-.16.05-.48,1.28-.44,1.54s.42.24.66.66Z" fill="#7e9a36"/>
          <path d="M29.04,62.72c-1.07,2.02-.64,1.25-.63,2.99,0,.28-.33.58-.3.83.11,1.12.57,2.44,1.67,2.82,2.09.72,1.84-1.79,2.04-3.3s.54-1.35.88-2.5c.05-.16-.64-.54.21-1.37.18-.18.57.31.84-.43.59-1.66-1.08-3.51-2.6-2.61-.98.58-2.03,1.88-2.3,2.97-.08.34.18.5.19.6l.65-.13c1.69-3.58,5.17-3.67,1.41.74l-.4,2.03c-.09,7-2.1.26-1.12-2.26l-.55-.37Z" fill="#abb733"/>
          <path d="M34.76,72.83c.29-.09.9-3.94-.24-3.69-.5.11.5,1.54-.52,1.18-.64-.23-.81.51-.65,1.12.13.51.59.33.82.55.27.26.13.71.6.84Z" fill="#7e9f36"/>
          <path d="M30.53,57.06c-1.75.52-1.76,1.73-2.72,3.17.64.58.65-.28.96-.63.59-.67,1.8-1.66,1.76-2.54Z" fill="#7d9f3b"/>
          <path d="M34.85,63.69c.81.53.94-2.1.48-2.38-.92-.56-.67,2.25-.48,2.38Z" fill="#7e9d38"/>
          <path d="M29.04,62.72c.13.99-.13.91-.18,1.65-.08,1.21-.1,3.16.71,4.13,1.81,2.17,1.51-2.25,1.65-3.07.07-.41.28-1.7.39-1.99.36-.97,3.14-3.3,1.02-3.86-1.77-.47-2.94,1.93-3.59,3.14Z" fill="#eacc30"/>
        </g>
        <g>
          <path d="M55.27,72.2c-.55-.04-.41.64-.06.96-.03.47.2,1.05.7,1.75l-.37.81c1.1,3.64,1.64,7.31,1.63,11.01l.45.73-.54.45c.29,2.17-1.94,4.13-3.93,4.59l-.3-.56c-3-.72-4.38-4.44-4.89-7.19l-.66-.25c.3-.65-.17-.85-.76-.79.01.09-.14.36-.09.65.84,4.81,5.57,12.9,10.51,6.92,3.82-4.62-.11-14.11-1.23-19.34-.43-.57-.62-.42-.46.27Z" fill="#aa3b30"/>
          <path d="M50.21,63.44c.09.69.3.88.63.56.52-.09.63-.3.5-.75,1.88-.61.36-2.49-.94-2.68l.3-.53c-.86-.16-.96-1.01-.77-1.35.45.3.96,0,1.54-.93-.1.49.03.84.38,1.05-.5.68-.28.91.53.92l-.3.67c.62,2.81,1.22,5.62,1.81,8.44-1.2.96-.8,2.96-.16,4.18.37.71,1.39,2.24,2.19,1.89-.18-.81-.24-.98-.7-1.75-.47-1.08-.45-1.4.06-.96l.46-.27c-.93-4.31-2.16-9.23-2.81-13.52-.16-1.05.15-2.02-.26-2.99-.53-.26-.47-.04-.76.17-.56.42-2.44,2.39-2.66,3.01-.5,1.39.85,3.28.97,4.84Z" fill="#ad382e"/>
          <path d="M46.65,79.64c.48.24.78-.18.56-.63,1.03-.03,1.73-2.72.88-3.27.7-.75.71-1.27.03-1.55.51-.31.71-.94.58-1.89.35-.56.52-1.07.53-1.51.12-.17.36-.31.69-.4.62-.47.57-.77-.07-1.19.89-.9,1.48-3.62.9-4.83.5.11.55-.1.1-.36l-.63-.56c.06.79-.76,5.33-1.11,6.04-.6,1.24-1.61,1.64-1.73,3.44-.06.84.27,1.33.26,2.02-.03,1.32-1.37,3.27-.98,4.71Z" fill="#a63f31"/>
          <path d="M47.21,79.01c-.02.05-.26-.01-.56.63-.1.22-.13.49-.19.73-.05.57.03.74.5.33.85,0,.68,2.06-.12,1.92,0-.58-.15-.9-.5-.33.02.33.14,1.03.2,1.42,0,.41.74.74.76.79,1.65.26,2.35-3.14,1.85-4.45-.33-.87-1.28-1.93-1.94-1.04Z" fill="#b03313"/>
          <path d="M46.33,82.29c.26-.07.37.14.5.33.86-.17.86-1.54.12-1.92l-.5-.33c-.33,1.13-.2.87-.12,1.92Z" fill="#9e4d37"/>
          <path d="M50.39,60.56c.49.86.36.49.96,1.15,1.11,1.23-.36.81-.54,1.2-.08.17.1.73.03,1.08-.03.12-.08.24-.1.36.26.76.37,1.53.33,2.32,1.02.94.96,1.42-.16,1.46-.29.45-.64.8-1.07,1.05-.02.4-.13.79.07,1.19l-.1.36c1.53,1.41.3,3.77-1.49,4.15l-.23.85c-.12,1.06-.43,2.31-.88,3.27,2.52.46,1.62,4.27.09,5.48.31.6.39,2.04.74,2.83.97,2.21,2.44,5.09,5.11,5.17.64-.07,1.02-.29,1.15-.67,1.2-1.25,1.88-2.56,2.03-3.94.52.67,1.16.42,1.29-.44.6-3.93-.85-8.57-1.71-12.55-1.17-1.49-1.79-1.58-2.16-3.6-.24-1.33-.22-1.29.74-2.34-1.03-2.72-.96-6.67-2.12-9.24-.59-.14-1.25.14-1.98.83Z" fill="#ef6230"/>
          <path d="M56.33,87.89c-.12,1.37-.8,2.68-2.03,3.94-.37.24-.78.43-1.15.67,2.08.07,3.7-1.71,4.36-3.61.22-.65.04-.97.12-1.43-.31.26-1.05.25-1.29.44Z" fill="#e8543c"/>
          <path d="M55.21,73.16c0-.27.12-.73.06-.96-.14-.56-.62-1.4-.84-1.98-.38-.16.06,2.2.23,2.53s.52.38.54.41Z" fill="#e05d48"/>
          <path d="M49.92,58.68c-.42,1.87,1.98,2.09,1.92.12.14-.29.41-2.02-.01-2.15-.13-.04-1.65,1.74-1.91,2.02Z" fill="#e85536"/>
          <path d="M49.92,58.68c-.09.1-.44.17-.45.26-.02.14.73,1.29.92,1.62.95.31,1.24-.4,1.98-.83-.14-.32-.38-.61-.53-.92-.29.59-.94.86-1.48,1.16l-.43-1.29Z" fill="#ca3112"/>
          <path d="M50.74,64.36c-.26,1.54-.84,3.34-.9,4.83.99.86,1.25-.8,1.38-.79.09,0,.16.6.62.26.34-.25.69-1.26.42-1.58-.13-.15-.55-.16-.64-.31-.13-.2.36-1.96-.88-2.41Z" fill="#c73526"/>
          <path d="M48.11,74.19c.1,1.26,1.16.43,1.74-.25.91-1.08,1.03-3.22-.63-3.15-1.46.74-1.01,2.19-1.11,3.41Z" fill="#ec9f43"/>
          <path d="M49.91,70.38c-.59-.38-1.65-.35-.69.4.73.57,1.18,1.09.88,2.09-.19.64-1.17,2.02-1.99,1.32-.03.43.02,1.19-.03,1.55.26-.56.88-.51,1.33-.89,1.3-1.11,2.2-3.37.49-4.47Z" fill="#b9370f"/>
          <path d="M46.95,80.7c-.16.55.11,1.34-.12,1.92.18.26.33.85.65.86.46-.65.89-3.44.13-3.76-.15.3-.58.74-.65.99Z" fill="#f0954f"/>
          <path d="M53.42,79.44c-.68.26-.31,4.04-.56,5.08-.28,1.19-2.83,4.62-.74,4.91,1.91.27,3.05-2.27,3.33-3.82.33-1.83.21-5.74-2.03-6.16Z" fill="#f6c92f"/>
          <path d="M49.77,78.15c.51.53.83.77.82-.08,0-1.73-1-.83-1.18-1.1-.03-.04.37-.98,0-1.07-1.02-.23-.4,1.51-.4,1.74,0,.18-.37,2.78.63,2.12.3-.2-.3-1.29.14-1.61Z" fill="#c62e18"/>
          <path d="M56.33,87.89c-.23.18-.47,1.49-1.11,1.75l-.92,2.19c.77-.49,3.44-3.02,2.03-3.94Z" fill="#c52d14"/>
          <path d="M49.53,87.82s.72-.29.64-.54l-.8-2.13c-.82.3-.02,2.63.16,2.67Z" fill="#c53219"/>
          <path d="M50.69,59.47c.23.05.78-.52.72-.88-.16-.98-1.44.71-.72.88Z" fill="#fd9151"/>
        </g>
      </g>
    </g>
  </g>
</svg>