<?xml version="1.0" encoding="UTF-8"?>
<svg id="Layer_2" data-name="Layer 2" xmlns="http://www.w3.org/2000/svg" viewBox="0 0 64 96">
  <g id="Cards">
    <g id="Clubs">
      <g id="TenOfClubs">
        <g>
          <path d="M3.46,7.91h-1.51V2.22c-.55.52-1.2.9-1.95,1.14v-1.37c.39-.13.82-.37,1.28-.73.46-.36.78-.78.95-1.26h1.22v7.91Z" fill="#3b920f"/>
          <path d="M6.63,0c.76,0,1.36.27,1.79.82.51.64.77,1.71.77,3.21s-.26,2.56-.77,3.21c-.43.54-1.02.81-1.78.81s-1.38-.29-1.85-.88-.7-1.64-.7-3.15.26-2.55.77-3.2c.43-.54,1.02-.81,1.78-.81ZM6.63,1.25c-.18,0-.35.06-.49.17s-.25.33-.33.63c-.1.39-.16,1.05-.16,1.97s.05,1.56.14,1.9.21.58.35.69c.14.11.3.17.49.17s.35-.06.49-.17.25-.33.33-.63c.1-.39.16-1.04.16-1.96s-.05-1.56-.14-1.9-.21-.58-.35-.69c-.14-.12-.3-.17-.49-.17Z" fill="#3b920f"/>
        </g>
        <g>
          <path d="M60.54,88.09h1.51v5.69c.55-.52,1.2-.9,1.95-1.14v1.37c-.39.13-.82.37-1.28.73-.46.36-.78.78-.95,1.26h-1.22v-7.91Z" fill="#3b920f"/>
          <path d="M57.37,96c-.76,0-1.36-.27-1.79-.82-.51-.64-.77-1.71-.77-3.21s.26-2.56.77-3.21c.43-.54,1.02-.81,1.78-.81s1.38.29,1.85.88.7,1.64.7,3.15-.26,2.55-.77,3.2c-.43.54-1.02.81-1.78.81ZM57.37,94.75c.18,0,.35-.06.49-.17s.25-.33.33-.63c.1-.39.16-1.05.16-1.97s-.05-1.56-.14-1.9-.21-.58-.35-.69c-.14-.11-.3-.17-.49-.17s-.35.06-.49.17-.25.33-.33.63c-.1.39-.16,1.04-.16,1.96s.05,1.56.14,1.9.21.58.35.69c.14.12.3.17.49.17Z" fill="#3b920f"/>
        </g>
        <g>
          <path d="M42.4,19.53c2.68.71,3.53,4.6,4.05,7,.87,4.01-.08,7.87,1.82,11.53.87,1.69,2.67,3.23,2.89,5.21.11,1.04-.23,3.74-.98,4.5-1.36,1.38-3.04-.09-4.61.21-.3.06-.95.83-1.2,1.1-.06.33-.43.43-.66.22-.73,0-.41-.89.22-.66.08-.23.22-.45.44-.66.15-1.03.92-1.09,1.84-1.06,6.98,1.75,2.8-6.62.7-9.31-.65-1.23-1.03-2.58-1.07-3.98.09-2.91-.11-5.78-.6-8.62l-.31-.14c-.46-1.75-1.08-3.74-2.76-4.68-.37-.07-.66-.21-.88-.44-1.01-.68.49-.55,1.09-.22Z" fill="#485d30"/>
          <path d="M24.89,14.94c.39.86.32,1.59-.22,2.19.73.33.64,2.36-.22,2.63-.12.42-.31.42-.44,0-.1-3.27-.24-6.56-.44-9.85-.2-.02-.19-.1,0-.22-.44-.27-.78-.69-1-1.25-.83-1-1.81-1.82-2.93-2.47-.12.36-.45.59-.97.66-2.5,1.45-2.92,5.45-3.17,8.09l-.45.22c.53.27.58.63,0,.88.45.74,1.12,2.58.66,3.28.63.01.71.27.22.66.62-.14,1.69,3.09,1.66,3.31-.02.18-.19.31-.35.41.62.25.6.61,0,.88.11.02.22.04.3.1.11.08.3,2.16.14,2.53.13.3.13.52,0,.66-1.36-1.94-.68-1.9-.98-3.72-.32-1.95-2.06-4.46-2.3-6.89-.39-3.89,1.92-15.67,7.76-10.61,2.2,1.91,2.77,5.77,2.74,8.53Z" fill="#7d954b"/>
          <path d="M39.77,55.2l.21.26c-.26.84-.24,1.6.07,2.27-.35,1.75-.85,3.43-1.48,5.06-.25,2.3-.07,4.58.55,6.85.17,1.43.72,2.96.85,4.29.45,4.51-1.07,9.18-1.51,13.65-.06.19-.14.19-.22,0-.3.53-.56.36-.44-.22l-.33-.82c1.45-6.74,1.92-13.07-.02-19.71-.39-3.38.24-5.74,1.2-8.89-.03-.93.13-1.7.46-2.31-.21.73-2.94.67-3.28,0,.61,3.63.6,7.31,0,10.94-.17-.02-.43-.07-.44-.19-.08-1.3-.52-10.06-.21-10.48l.43-.27c.81-.81,3.09-.72,4.16-.44Z" fill="#d2ae3f"/>
          <path d="M24.68,56.07c0,.44-.22.47-.6.4,1.05,4.04,2.24,8.02,3.58,11.95.22,5.16.75,10.37,1.57,15.62l-.17.91c-.12.38-.3.37-.44,0-.26.26-.4.11-.44-.44.28-2.49-1-7.82-1.31-10.61-.24-2.17.08-4.76-.72-6.72-.3-.75-.89-1.46-1.19-2.31-.93-2.58-.83-6.48-2.03-8.8-.38-.89,2.15-.97,1.75,0Z" fill="#a93429"/>
          <path d="M28.61,84.96c.58.03.56.26,0,.44.16.06.33.16.35.31.04.29-1.99,4.18-2.33,4.56-.49.55-1.4.99-2.09,1.26-1.41.55.58.16,1.22-.03,2.08-1.09,4.21-1.72,6.39-1.89-.12-.65-.27-1.3-.45-1.94l.4-.31c-.55-.47-.55-.76,0-.88.19-.17.34.05.44.66.3.59,1,2.56.84,3.12-.27.95-2.39.51-3.3.65-2.08.32-5.53,3.11-7.81,1.58-1.8-1.22,1.9-1.88,2.55-2.24,1.11-.62,3.22-4.59,3.35-5.73.24,0,.41.43.44.44Z" fill="#79924b"/>
          <path d="M16.8,35.07c.24.3.14.67-.3,1.11l-.13.82c.81,2.73,1.03,3.9-1.81,5.45-1.66,1.32.23,3.15,1.88,2.7,1.78-.57,3.45-.53,5,.1-.07-.87.13-1.42.61-1.65.67.04.22,3.27.03,3.25-.17-.02-.33-.09-.47-.19-2.72-2.18-5.48,1.23-7.99-1.31-.8-.81-1.04-2.13-.52-3.15.47-.9,2.33-1.31,2.56-2.04.32-1.03-.57-2.4-.39-3.66.11-.74.84-1.95,1.52-2.31.63.08.6.68,0,.88Z" fill="#4d6336"/>
          <path d="M24.68,42.95c.58.07.56.27,0,.44-.13.38-.62.54-1.45.46-.2,1.35-.3,2.72-.29,4.1l-.45.26-.44,6.13c.44.05.42.27,0,.44.33.32,1.26.43,2.1.14l.52.29c1-.59,2.06-.6,3.06,0,.2-.42.46-.42.66,0,.65-.43,1.32-.43,1.97,0,.33-.12.62-.12.88,0,.58.07.56.27,0,.44-.07.53-.42.56-1.06.11l-.69.11c-.29.54-.98.81-1.31.22-.86.7-2.61.64-3.5,0-.69-.79-1.09-.38-1.75,0-.19-.37-1.55-.46-1.53-1.21.13-2.56.39-5.11.44-7.67,0-.33-.23-.5-.23-.53,0-.09.4-.16.45-.54.09-.69-.02-1.76-.02-2.52-.63-.01-.6-.51,0-.66.87-.13,1.74-.13,2.63,0Z" fill="#2e4279"/>
          <path d="M38.46,87.58c.79,2.09,4.71,5.99,4.17,8.17-.21.84-3.27-.71-3.81-.98-2.27-1.14-4.24-2.68-4.06-5.52.03-.52.38-1.14.42-1.46.27.1.41.32.44.66.59.08.57.28,0,.44l.39.43c.18,2.71,2.01,4.52,5.5,5.43-.92-2.09-2.15-4.09-3.68-5.99l.2-.53c-.38-.27-.22-.66.22-.66h.22Z" fill="#7b934d"/>
          <path d="M17.24,23.47c.41-.82,1.59.14,2.05.63,1.35,1.47,1.09,2.94.29,4.56.51-.21.95-.15,1.2.36,1.27-.44,2.03,2.02.79,2.4.33.4.35.73.05,1.01-.11.9-.92.96-1.31,0l-.56-.25c-.03-.53-.13-.89-.32-1.06-.24.03-.39-.12-.44-.44-.19-.23-.34-.52-.44-.88.43-1.39-.39-1.23-.81-1.82-.1-.14-.04-.33-.06-.37l-.17-.55.17-.1.25-.14c.23.31.69.57,1.07.36-.05-.61-.19-1.28-.58-1.91l.15-.28c-.54.06-1-.24-1.31-.66-.03-.28.05-.62,0-.88Z" fill="#85993e"/>
          <path d="M18.55,29.82c.61-.11.63.4.44.88.22.52.05,1.12-.53,1.8-1.43,1.29.97,4.12,1.89,3.54.39-.25-.74-2.26-1.05-2.62-.33-.47-.29-.79.13-.97.14-.95.53-.39.88.22.78.31,1,.68.66,1.09.77-.13,1.41,2.15.66,2.41.54.32.62,1.01-.22,1.09-.13.62-.89.61-1.09,0-.19.46-.61.49-1.25.08-1.11-.47-2.44-1.22-2.25-2.27.07-.22-.06-.64,0-.88.48-1.78,1.3-2.93,1.75-4.38Z" fill="#a53220"/>
          <path d="M38.24,13.85c.84,1.09.29,1.19.26,2.3-.01.38.35,1.08.15,1.4-1.07.31-2.21.03-3.26.68-.42.29-.58-.14-.22-.44.04-.67.35-1.39.92-2.15.28-.82.63-1.49,1.05-2.01.24-1.3.61-1.23,1.09.22Z" fill="#d39b37"/>
          <path d="M28.61,18.22c.29-.11.64-.17.66.22l.65-.05c1.37.73,2.95.84,4.74.32.22.36.61.42,1.17.16.11-.18.48-.25,1.09-.22,1.38.27,2.65.06,3.94.44l-.26.28c-.9-.08-1.69.05-2.36.38-.02.2-.1.19-.22,0-.2.42-.56.51-.66,0l-.4-.05c-2.93,1.36-5.95,1.05-8.79-.38-.34.19-.71.05-1.09-.44-.04.19-.11.18-.22,0-.53-.85,1.58-1.63,1.75-.66Z" fill="#d6a539"/>
          <path d="M29.27,5.53c-.61-1.76-.84-3.66-1.09-5.47.5-.52,2.68,2.41,3.39,2.41.47,0,1.65-1.64,2.18-1.54.58.11.21,3.34.11,3.94.07.24-.08.24-.44,0-.31.25-.43.13-.22-.22-.42-.4-.46-1.11-.13-2.13-.41.65-1.41,1.65-1.84.6-.4.26-.91.04-1.54-.66.24.98.17,1.71-.21,2.19.18,0,.37.05.44.22.45.16.2.47-.22.44.03.27-.25.44-.44.22Z" fill="#d3b14e"/>
          <path d="M33.43,77.3c.28.32.38.69.22,1.09l-.44-.33c-1.74,3.05-.85,5.81-.66,9.08-.09-.17-.31-.56-.44-.66-.43.37-1.45-.16-1.31-.66.06-.25.21-.42.45-.53-.41-2.91-.31-5.31,1.04-7.98.05-.73.28-1.25.7-1.56.56-.08.82,1.25.44,1.53Z" fill="#d2af46"/>
          <path d="M33.43,77.3l.22-.22c.38,1.34.53,1.63.44.88l.54.47c1.02,3.16,1.42,6.36,1.21,9.6.69.23.43.7-.22.44-.04-.05-.66.13-.44-.66.24-2.11-1.06-7.09-1.53-9.41-.07-.37-.14-.73-.22-1.09Z" fill="#a83628"/>
          <path d="M44.37,49.07s.08.28-.04.39c-.15.14-.68,0-.82.4-.16.44.45,1.71.31,2.3-.09.41-.7.76-.71.95-.01.18,1.52,1.98-.33,1.61-.91-.18-1.55-1.48-1.47-2.37-.15-.38-.3-.82-.44-1.31-.37-.1-.33-1.1,0-1.31.17-.46.78-.22.88.22.19.06.37.18.37.37-.55,3.55,1.51,1.99.28-.37-.31-.44,1.01-1.23,1.31-.66.22-.07.46-.08.66-.22Z" fill="#ae8e78"/>
          <path d="M27.96,10.56c.56-.04.58,0,.22.44,1.1.68.14,2.13-.66,2.78-.14,1.04-.68,1.88-1.62,2.53.53-.03.93.09,1.18.39.51,1.09-.68.88-1.31.44-.28.16-.64.16-1.09,0,.03-.69.21-1.73.22-2.19l.22.77c1.3-.63,2.37-3.73,2.58-5.08.15-.99.01-1.63.27-2.68.28.74.28,1.62,0,2.63Z" fill="#d79c52"/>
          <path d="M40.43,55.2c-.59.44-.61,1.6-.44,2.26.05.21.56.04.41.44-.64,1.76-.88,2.67-1.29,4.59-.04.18-.4.06-.45.46-.1.75-.1,3.21,0,3.97.05.41.41.29.45.46.14.62-.08,1.57,0,2.26-.58-1.75-1.04-3.95-.87-5.8.14-1.55.96-3.29,1.25-4.88.24-1.32.29-2.43.28-3.76.21-.32.45-.32.66,0Z" fill="#f6f0c8"/>
          <path d="M37.15,8.81c.53,1.5.76,3.41,0,4.81-.62,1.34-.99,2.86-1.97,4.16.08.59-.04.66-.44.22-.58-.15-.57-.28,0-.44-.87-.28-.8-.5.22-.66l-.17-.52c1.33-1.58,1.7-3.18,1.38-5.17-.82-.24-.74-.84.23-1.8l-.13-.39c.19-.41.41-.85.66-1.31.21.55.16.56.22,1.09Z" fill="#aa783e"/>
          <path d="M40.43,55.2c-.22,0-.44,0-.66,0-1.62,0-2.79.36-4.16.44-.79.73-2.68.68-3.5,0-.3.09-.6.17-.88,0v-.44l.58-.3c1.37.23,2.34.18,2.92-.14.2-.42.46-.42.66,0,.5-.43,1.03-.43,1.53,0,1.2-.29,2.45-.39,3.77-.29-.3.15-.1-.66.17-.8.06-.19.14-.19.22,0-.03.37.09.82-.03,1.17-.14.42-.52.28-.63.36Z" fill="#3f4d78"/>
          <path d="M33.86,4.87c1.09.34,2.64,1.76,3.06,2.84.16,1.2-.03.87-.66,1.31.69,1.33-1.98,1.01-1.75-.22.15-.11.44-.18.88-.22.06-.54.26-.51.44,0,.35-1.05-.32-2-1.99-2.83l.02-.45c-.4-.1-.54-.25-.44-.44.14.02.32-.03.44,0Z" fill="#b74e38"/>
          <path d="M38.24,13.85c-.16-.21-.57-.29-.44-.88-.21.06-.58.49-.65.66-.03-1.6.17-3.22,0-4.81,1.23,1.38.61,3.4,1.09,5.03Z" fill="#c79951"/>
          <path d="M29.93,5.53c-.07.55-.32,1.16-.75,1.81-.15,1.12-.48,2.05-1,2.78.43.29.27.61-.22.44-.05-.87.03-1.76,0-2.63.24-.96.63-1.69,1.31-2.41.08-.09.32-.13.44-.22.31-.29.42-.17.22.22Z" fill="#bf5c46"/>
          <path d="M40.87,19.1c.53.03,1.13.01,1.53.44-.3-.08-.74.04-1.09-.22,0,.14,0,.29,0,.44,1.31.07.71.32.88.44.19.06.19.14,0,.22-.33.62-1.7-.34-.88-.66-.2.51-.96.32-1.31,0-.56.41-1.34.72-1.75,0-.01-.25-.16-.43-.22-.65.94.04,1.9-.06,2.84,0Z" fill="#774b35"/>
          <path d="M35.4,18.22c.2.12,1.22.38,1.53.44l-.15.18c-.28.13-.72-.02-.94.04-1.02.44-2.12,0-1.09-.88.11-.09.38-.14.44-.22-.01.21.04.32.22.44Z" fill="#a67b55"/>
          <path d="M41.3,52.36c-.01.18-.18.85-.22,1.31h-.22c-.38-.07-.36-.25,0-.44-.27-.7-.44-1.58,0-2.19.55.18.47.82.44,1.31Z" fill="#e1af8e"/>
          <path d="M44.37,47.98c-.33-.76-.38-2.13,0-2.84-.46-.39-.3-2.26.44-2.3l-.43-.2c0-3.89,0-7.79,0-11.68l.44-.26c.07-.97.11-1.94.15-2.89l.29-.18c-.32-.59-.41-2.11,0-2.63,1.47,2.92.79,6.28,1.09,9.3.48,4.84,5.46,7.05,3.79,12.11-.91,2.76-4.12-.26-5.76,1.57Z" fill="#597437"/>
          <path d="M41.3,19.75c.02.8.49.4.88.66,2.48.93,2.89,5.06,2.91,6.84l.15.38c0,.74.15,2.37,0,2.92-.06.23-.44.12-.44.14v12.14c0,.12-.41,1.39-.44,2.3-.05.39-.13.48-.24.27.13,1.15.06,2.23-.2,3.23-.28.19-.26.3-.22.66-.48.15-.98.22-1.31.66-.19.59-.45.59-.66,0-.29-.03-.58-.17-.88-.22-.2-.04-.19-.11,0-.22-.38-.52-.36-1.43,0-1.97.5-.09.73.33.7,1.25.66.41,1.32-.26,1.36-1.01.6-5.11.73-10.26.37-15.46-.08-.81.12-1.28.62-1.41-.22-.28-.08-.5.44-.66l-.37-.3c.18-3.29-.19-7.58-3.49-9.25l-.29-.51c-.59.04-.67-.1-.22-.44.44.01.88-.02,1.31,0Z" fill="#a82d1f"/>
          <path d="M45.24,25c.08.81,0,1.79,0,2.63-.66.12-.42-.33-.44-.76-.06-1.89-.2-2.15-.8-3.69-.43-1.1-.78-2.07-1.83-2.77v-.22c.06.04.47-.02.77.21,1.32,1.04,2.14,2.97,2.3,4.61Z" fill="#726137"/>
          <path d="M44.37,45.13c-.03.94.06,1.91,0,2.84-.07,1.06-.15.46-.44.66.03-.91-.04-1.83,0-2.74.02-.42-.23-.88.44-.76Z" fill="#824a31"/>
          <path d="M19.64,5.97c.56.16.85.42.84,1,.82.57,1.52,1.35,2.08,2.32.62-.3.75-.2,1.02.4,0,.07,0,.15,0,.22.3,3.81.37,7.6.22,11.38.39.97.58,2.63-.59,3.33-.39.66-.74,3.03.21,3.28.23.63.37,4.42-.09,4.76-.07.05-1.68-.04-1.72-.21l-.65-1.2c.14-.36.83-.29.87-.33.06-.06-.38-1.49-.44-1.53-.11-.08-.55.24-.75.2-.42-.08-.07-1.23-1.21-.2-.8-1.18.29-1.52.39-2.57.14-1.52-1.02-3.16-2.58-3.34-.12-.68-1.01-2.78-1.31-3.72,1.39-1.63.32-3.38-.88-4.81.13-2.7,1.01-8.89,4.59-8.97Z" fill="#97b63e"/>
          <path d="M24.46,19.75c.05-.15.12-.14.22,0,.46.32.31.62-.22.44l.06,2.91c.08.86-.13,1.4-.55,2.1-.04,2.47-.03,4.96.14,7.43l-.31.25c-.24.36-.73.49-1.48.36-.54.46-1,.63-1.37.51-.16-.36-.64-.61-.66-1.09-.09-.07-.09-.14,0-.22.01.02.21-.01.35.09.1.07.09.35.19.34.2-.02.58-.38.77-.43.69-.19,1.46.05,1.53,0,.23-.15.34-3.55.23-4.01-.06-.26-.69-.25-.84-.74-.12-.4-.1-1.9-.04-2.37.16-1.37,1.11-1.29,1.28-1.78.18-.53-.02-1.61.04-2.26-.02-.55.05-1.06.22-1.53.15,0,.29,0,.44,0Z" fill="#8c8b3c"/>
          <path d="M25.77,17.13c1.06.56,1.42.61,1.57-.61,1.75-.46,2.39-.04,1.93,1.27.1.43-.27.55-.66.44-.72-.09-1.28.1-1.75.66-.39.36-1.72,1.34-2.19.88-.06.01-.15,0-.22,0,.34-.86.18-1.74.22-2.63.37-.79.55-.33,1.09,0Z" fill="#f9f1e0"/>
          <path d="M23.58,9.69c-1.42-.86-.55,2.09-.66,2.19-.52.48-1.16-.84-1.09-1.41.04-.34.46-.6.42-.85-.02-.13-1.25-1.65-1.51-2.01-.13-.18-.5-.23-.6-.38-.18-.27-.08-.95-.5-1.25,1.62-.04,3.75,2.21,3.94,3.72Z" fill="#8aaa45"/>
          <path d="M24.02,19.75c-.04.58-.18,1.13-.22,1.53-.09-1.09.13-2.34,0-3.4-.07-.61-.38-1.02-.46-1.73-.21-2.07.18-4.22.23-6.25,1.02,3.17.68,6.58.44,9.85Z" fill="#8aaa45"/>
          <path d="M15.05,14.94c.61-.12.53.05.8.4.72.95,1.81,4.05.08,4.41-.07-.22-.16-.44-.22-.66.32-1.08.1-2.17-.66-3.28,0-.29-.01-.59,0-.88Z" fill="#849730"/>
          <path d="M18.55,25c-.07.9.12,1.43.58,1.6l-.14.59c-.07.12.16.73-.72.44-.04-.01-.5-.55-.59-.66-.72-.9-.34-1.58-.44-2.63.82-.14.9.18,1.31.66Z" fill="#d6c64a"/>
          <path d="M15.7,19.1c-.45-1.53-.62-1.4-.66-3.28.92.04,2.03,3.15.66,3.28Z" fill="#c4be49"/>
          <path d="M35.83,66.58c0-3.64,0-7.3,0-10.94h3.28c.5,2.54-1.02,5.03-1.3,7.35-.44,3.76.77,6.37,1.27,9.85.7,4.89-.67,9.71-1.29,14.52.46.91-1.84,1.83-1.75.66-.53-6.24-.6-12.5-.64-18.76,0-.45.06-.89.13-1.34s.17-.9.29-1.34Z" fill="#f2ca2c"/>
          <path d="M35.62,55.64l.22,10.94c.02,7.15.29,14.29.22,21.44-.06.19-.14.19-.22,0,.26-3.36-1.16-6.82-1.75-10.06-1.28-3.33-1.49-7.26-.97-10.8l-.1-1.61c-.83-3.17-1.56-6.36-2.2-9.55.35-.2.79-.32,1.3-.35,1.15,0,2.36.07,3.5,0Z" fill="#ee632c"/>
          <path d="M38.24,87.58c-.04.2-.08.51-.22.66.51.96-2.26,1.62-2.41.66.01-.1.01-.42,0-.44.21-.06.2-.25.22-.44h.22c.63.57,1.34-.09,1.75-.66l.44.22Z" fill="#8a9231"/>
          <path d="M24.68,56.07c1.16-.04,2.34.04,3.5,0,.68,2.2.83,4.48.94,6.76.59,7.34,1.14,14.77,1.02,22.12-.11.65-.94.54-1.09,0-.59-4.32-1.32-8.68-1.75-13.02-.16-1.63.26-2.99-.4-4.64-1.29-3.28-1.58-4.21-2.33-7.73-.24-1.1-.74-2.19-.97-3.19-.12-.52.71-.29,1.07-.3Z" fill="#f0622c"/>
          <path d="M29.05,84.96c.36.04.73-.03,1.09,0,.46.01.86.41.66.88.52.37.92.36,1.31.66.02.29-.02.59,0,.88l-.54.2c-.88-.64-1.8-1.19-2.77-1.65l-.2-.52c.04-.11-.02-.3,0-.44.12.03.3-.02.44,0Z" fill="#899030"/>
          <path d="M32.11,87.36c.08.96.65,1.81.44,2.85-2.89-.7-5.23,1.71-7.79,1.95-.36.03-1.89-.05-2.05-.2-.47-.45,1.43-.73,1.68-.83.56-.24,1.39-.62,1.82-1.03s2.19-4,2.41-4.7c1.28.33,2.35,1.34,3.5,1.97Z" fill="#96b442"/>
          <path d="M16.8,35.07c.71-.11.32.58.48.83.08.13.76.27,1,.42.82.49.95.8,2.02.94l.41.46c-.29,1.1,0,2.12.86,3.06l-.4.42c.44.3.43.57,0,.88.23.36.53.65.88.88v.66l-.22,2.19c-.9.06-1.4-.64-2.29-.68-1.61-.06-4.33,1.4-5.59-.36-1.92-2.67,2.33-3.09,2.59-4.8.17-1.1-1.04-2.36-.44-3.94.12-.33.66-.81.7-.94Z" fill="#577537"/>
          <path d="M29.49,55.86c1.17-.5,1.74.28,1.7,2.34l1.11,4.41-.19.47c-.14.92-.03,2.12.32,3.61-.02.17-.14.27-.32.32l.33.7c-.46,2.44-.14,4.9.24,7.3,0,.03-.19-.56.08-.56.61-.36.81,1.27.22,1.31-.04,2.1-1.28,3.52-1.51,5.39-.19,1.55.31,2.94.2,4.36-.05.62-.54.23-.88.32-.35-.24-.66-.37-.66-.88-.77-9.63-1.17-19.26-1.97-28.88.25,0,.66-.26,1.31-.22Z" fill="#f1c92d"/>
          <path d="M29.49,39.01c.37-.8,1.67,1.65,1.53,2.19l.31.15c.17,3.67.43,7.36.77,11.08.17,1.87-.41,2.79-1.74,2.77-.65,0-1.31,0-1.97,0-.24-.56-.37-1.14-.39-1.75-.09-3.5-.13-7-.15-10.5,0-.62,0-1.2.32-1.76-.51-.03-.5-.31,0-.44.5-.59.94-1.18,1.31-1.75Z" fill="#1973ba"/>
          <path d="M26.43,42.07c.35-.33.68-.5.88,0l.48-.06c.11,3.95.2,7.98.24,11.97,0,.43-.06.84-.29,1.22-1.02,0-2.04,0-3.06,0l-.41-.25c.47-4.07.9-8.15,1.28-12.23l.44-.22c-.94-.15-.01-1.33.44-.44Z" fill="#1b72b9"/>
          <path d="M24.68,43.38c.17-.49.57-.51.84.03l-1.26,11.36c-.32.47-1.83.39-2.21,0,0-.14,0-.29,0-.44l.44-6.13c.05-.83.06-4.2.41-4.69.16-.22,1.44-.17,1.77-.13Z" fill="#1a72b9"/>
          <path d="M31.24,55.64c.29,0,.58,0,.88,0-.75.48-.96-.17-.87.98.22,2.96,1.89,6.4,2.16,9.44.16,1.84-.25,3.6-.19,5.44.07,1.95.52,4.5.87,6.46-.05.37.18.95-.22.87-.02-.56.19-1.31-.44-1.53-.1-.5-.22-1.07-.44-1.53,0-.41.14-1.08-.22-1.31-.66-1.92-.75-4.84-.3-6.9.01-.05.14-.08.3-.1-.47-1.17-.92-3.17-.66-4.38-.51-2.28-1.24-4.53-1.57-6.85-.15-.5-.67-.34-1.05-.37.36-.39,1.2-.21,1.75-.22Z" fill="#b13510"/>
          <path d="M31.02,41.2c-.23-.86-.01-.86.66,0,.35.39.57.66,0,.88.44.41.59,1.09.44,2.04.71,3.42.89,6.81.56,10.17l-.34.25c.79-.38,1.68-.27,2.4.24,0,.15.01.29,0,.44-1.16.01-2.34-.01-3.5,0-.29,0-.58,0-.88,0,1.22-.31,1.23-.9,1.32-2.07.23-3-.38-5.64-.66-8.54-.11-1.08.14-2.35,0-3.39Z" fill="#184895"/>
          <path d="M28.18,41.2c0,4.67.28,9.33.22,14-.22,0-.44,0-.66,0-.39-4.18-.16-8.4-.21-12.6,0-.29-.22-.47-.23-.53-.72-.25.61-1.49.88-.88Z" fill="#134997"/>
          <path d="M25.99,42.51l-1.31,12.69c-.87,0-1.75,0-2.63,0-.01-.14.01-.29,0-.44l1.74.21,1.35-11.27c.01-.41-.21-.29-.46-.32v-.44c.1-.18.25-.32.44-.44.14-.64.59-.58.88,0Z" fill="#164a98"/>
          <path d="M22.05,54.32c-.1-2.01-.04-4.18.44-6.13-.05.9.05,1.82,0,2.73l-.44,3.39Z" fill="#164a98"/>
          <path d="M25.11,42.51c.06.59-.02.4-.44.44-.63.06-2.03.09-2.63,0-.71-.11-.67-.3-.88-.88l.47-.15c.96.58,2.02.64,3.18.19l.29.4Z" fill="#7e9139"/>
          <path d="M38.02,88.24c.94,1.74,3.18,4.16,3.82,5.92.69,1.9-1.15.72-2.21.25-2.54-1.14-4.46-2.48-4.01-5.51.84.08,1.8,0,2.41-.66Z" fill="#95b444"/>
          <path d="M18.99,30.69c.56-.15.38.37.44.44.36.26.5,1.12,0,1.31.13.93.88,1.46,1.2,2.41.09.26.39,1.68.33,1.75-2.14-.39-3.71-1.02-3.18-3.51.2-.95.92-1.64,1.22-2.39Z" fill="#ef5f32"/>
          <path d="M18.55,25c.72.84,1.04,1.21.44,2.19.21-.83-.75.11-.86-.56-.06-.36.54-.95-.34-1.41l.77-.22Z" fill="#c8af32"/>
          <path d="M19.42,31.13s.3-.07.38.05c.07.09.18.94.49,1.26v.22c-.32-.2-.53-.53-.88-.22-.06-.41.04-.89,0-1.31Z" fill="#a47b38"/>
          <path d="M23.8,32.88c.05-.44.27-.42.44,0,1.18-.71,1.82.66,1.31,1.53-.36.73-1.11,1.22-2.24,1.46,0,.55-.43.66-.82.29-.53.54-.82.54-.88,0-.05-.72-.36-1.75-.66-2.41,1.16-1.21,1.29-1,2.84-.88Z" fill="#dfae88"/>
          <path d="M25.77,34.63c.42.17.35.32-.22.44.18.54-.17.76-.66.44-.17.61-.39.69-.66.22-.4.64-.53,1.13-.19,1.97l-.25.44c.19.36.2.82.04,1.39.24,1.09.22,2.08-.05,2.96-.94-.11-1.81-.54-2.61-1.29-.02-.91-.44-.78-.75-1.33-.57-1.01-.12-1.57-.13-2.61.34.04.78-.06,1.09,0,.3-.37.68-.31,1.14.19l.09-.39c-1.02-.04-1.13-.81-.13-.9.98-.62,2.21-.84,3.06-1.75.32-.27.44-.13.22.22Z" fill="#7e9139"/>
          <path d="M22.49,36.16c-.18.11-.48.2-.44.44,1.74-.19.8.26.87,1.53-.62-.02-.91-.75-1.53-.87.21-.34.25-.71.22-1.09h.88Z" fill="#9ba14d"/>
          <path d="M38.02,19.75c.07,0,.15,0,.22,0,.49.31.55.94.17,1.88.17,3.07.3,6.14.37,9.21-.07.72-.41,1.17-.97,1.6.42.51-.21,1.7-.88,1.75l-.35.29-2.85-.22c-2.41-.67-5.18-.44-7.54.07-.42-.6-.78-1.24-1.08-1.9-1.63-.52-.49-1.24.68-1.34l.86-.41c-.16-.35,1.72-2.02,1.86-2.05.44-.1.67-.15,1.05.2,1.53,1.28,2.76,2.22,4.67,2.81.74.23,1.59.37,2.26-.09-.6-.08-.55-.47,0-.66-.66-.7-1.32-.84-2-.43-.68-1.55-1.03-1.92-1.07-1.1.69,1.53-.17,1.59-1.31.88-.62.46-2.5-1.08-2.19-1.75-.63-.41-.49-.85.44-1.31-.37-.37.04-.74.44-.44.27-.09.86-1.09.83-1.16-.44-.22-1.17-1.61-.18-1.47-.56-.84-2.04-.77-2.89.19l-.39-.19c-.6.64-.78,1.07-.52,1.26l.3,1.53c1.7.75-1.12,2.94-1.32,1.15-.05.19-.13.18-.22,0-.63-.23-1.22-.3-1.8-.19-.22,0-.38-2.7.05-2.87-.42-.13-.47-.57-.17-1.32-.1-1.06-.04-2.01.17-2.84-.1-.89,1.91-2,2.63-1.53l.31-.02c2.64,2.63,7.54,2.55,10.41.46Z" fill="#ee4c29"/>
          <path d="M34.52,8.81c.27.1.64.61,1.22.66.41.04.36-.32.53-.45.64-.18.51.65.44.94-.07.26-.84.38-.88.81l.87-.22c-.26,1,.12,1.91-.02,2.93-.16,1.24-1.02,2.44-1.73,3.41-.42.18-.6.4-.22.66,0,.14-.02.31,0,.44.18.91-.22,1.21,1.09.88-1.49.45-3.45.68-5.16.45-.28-.04-.74-.85-1.63-.46l.22-.44c-.2-.35.28-.86.66-.88,0-.76.04-1.59.09-2.47.81-.76,1.22-1.83,1.22-3.22-.21-.38-.07-.88.43-1.51-.13-.78-.05-1.37.23-1.77.36-.62,2.2-.39,2.63.22Z" fill="#e3b28a"/>
          <path d="M27.08,18.88c.53.02.63.16,1.09.44,2.9,1.42,5.93,1.79,8.91.31l.28.12c.05.04.48-.01.66,0,0,.44-.25.62-.58.84-2.24,1.49-8.86,1.42-10.14-1.28-.44.06-.53-.12-.22-.44Z" fill="#e59a2d"/>
          <path d="M28.18,19.32l4.26.88c.85.56,4.71-1,4.9-.84.08.07,0,.37.03.39-1.43,1.11-4.27,1.34-6.03,1.1-1.25-.17-2.24-.99-3.16-1.54Z" fill="#f1c239"/>
          <path d="M26.86,18.88c.07,0,.15,0,.22,0,.07.15.15.29.22.44-1.19.21-1.77.77-2.63,1.53-.35.25-.3-.31-.22-.66.05-.11.25-.23.22-.44.8-.18,1-.77,2.19-.88Z" fill="#a53127"/>
          <path d="M29.49,16.91c.42-.99.75-.1.44.66-.17.32-.49.55-.66.88-.27.11-.56-.21-.66-.22.16-.16.54-.29.66-.44.07-.34.14-.63.22-.88Z" fill="#ab8359"/>
          <path d="M31.24,3.12s.52.07.81-.06c.24-.11,1.09-1.68,1.59-1.25l-.44,2.84-.14.26c-.96-.17-1.95-.18-2.88.16l-.26-.2c-.21.02-.37.03-.44-.22-.04-.45.39-.68,1.3-.71-.06-.46.09-.73.45-.82Z" fill="#efbe36"/>
          <path d="M29.49,4.66c-.23-.87-.11-2.32-.44-3.28l2.19,1.75c-.06.05.17.94-.21,1.21-.28.2-1.15.11-1.54.32Z" fill="#f1c735"/>
          <path d="M33.21,4.66c.1.03.16.18.22.22.15.1.28.33.44.44-.08.17-.19.34-.34.32-.99-.14-2.16-.24-3.15.15l-.45-.26-.22-.22c.09-.07.15-.4.22-.44.71-.39,2.52-.47,3.28-.22Z" fill="#c04f0e"/>
          <path d="M42.4,49.95c.7.14.82.75.86,1.45.08,1.33-.78,1.21-.85,1.51-.1.41.65.83.54,1.19-1.45-.51-1.49-2.9-1.2-4.16.21.02.47-.04.66,0Z" fill="#e1af8e"/>
          <path d="M39.55,45.13c.69-.76.77.43.65,1.13-.04-.34.03-.28.22.19.13.99.27,2.01.44,3.06,0,.07,0,.15,0,.22,0,.33,0,.96,0,1.31,0,.73.02,1.46,0,2.19-.41.13-.62-.34-.61-1.4.12-.99.04-1.62-.27-1.88l-.46-.28c-.16-1.4-.3-2.79-.43-4.19l.45-.35Z" fill="#3f4d78"/>
          <path d="M31.24,11.88l-.19.71c.08,1.35-.42,2.96-1.87,2.21l-.57.58c1.16.71.18,1.31-.98,1.05l-.56.27c-.23.24-1.47.05-1.53,0-.59-.64,1.11-1.52,1.24-1.8.14-.33.08-.73.27-1.17.5-1.16,1.23-.19,1.11-2.71-.01-.12,0-.24.04-.34.09-.2,3.25-2.49,3.68-2.07.49,1.8.29,1.97-.66,3.28Z" fill="#e6a42d"/>
          <path d="M35.4,8.59c.01.13.02.27-.02.4l-.85-.19c-.66-.23-1.96-.34-2.63-.22-1.03.19-2.73,1.89-3.72,2.41,0-.04-.21-.24-.22-.44.12-.12.2-.27.22-.44,1.62-1.96,5.09-3.87,7.22-1.53Z" fill="#c64b1a"/>
          <path d="M28.61,15.38c1.26-1.77,2.05.69.88,1.53-.07.35.13.44-.22.88.49-1.28-1.76-1.32-1.97-1.1-.16.17.55,1.33-1.17.83-.28-.08-.31-.36-.36-.39l1.31.22c.04-.2-.05-.49,0-.66.22-.75,1.4-.31,1.53-.44.05-.05-.03-.66,0-.88Z" fill="#eac67d"/>
          <path d="M34.96,16.91c-.08.11-.37.19-.4.26-.07.14.17.32.18.4-1.18-.05-2.39-.95-3.31-1.62-.11-.08-.81-.25-.41-.56.48-.39,2.98,2.14,3.94,1.53Z" fill="#a67b55"/>
          <path d="M34.3,43.38c.49,0,1.08.15,1.75.44.32.16.9.54,1.01.88.47,1.44,1.18,7.36,1.16,9.02.25.69-.19,1.03-1.3,1.04-.51,0-1.02,0-1.53,0l-.28-.55c-.22-3.43-.56-6.85-1.01-10.24l.2-.59Z" fill="#1b72b9"/>
          <path d="M38.68,44.7c-.12.33-.39.5-.8.5-.13.42.95,8.3,1.19,8.66.03.04.86.07.86-.06-.35-1.39-.33-2.67.06-3.85.59-.39.42-.21.44.33.03.87-.33,2.43.44,2.96,0,.15,0,.29,0,.44-.02.36.02.73,0,1.1-1.31,0-2.63-.01-3.94,0,.11-.36.84-.07.89-.34.07-.39.02-1.29-.02-1.73-.17-2.12-.66-5.8-1.14-7.84-.03-.11-.56-.99-.6-1.03-.04-.53,2.57.4,2.65.53.05.09.02.21-.02.35Z" fill="#154796"/>
          <path d="M33.43,42.95c.34-.14.82.06.88.44.65,3.76,1.19,7.53,1.09,11.38-.22,0-.44,0-.66,0l-.42-.71c-.28-3.49-.71-6.96-1.29-10.41l.4-.69Z" fill="#144796"/>
          <path d="M33.86,5.31c.64.46,3.87,2.72,1.97,3.28-.18-.14-.31-.2-.44,0-.74-.05-1.47-.59-2.33-.64-2.21-.11-3.03,1.58-4.89,2.17.13-1.32.49-3.86,1.75-4.59s2.6-.39,3.94-.22Z" fill="#f0612f"/>
          <path d="M35.83,8.59c-.09.03-.31,0-.44,0-.13-1.35-1.43-1.59-2.26-2.23-.2-.15-.63-.37-.25-.62,1.27.48,2.8,1.36,2.95,2.85Z" fill="#ce3a1b"/>
          <path d="M39.99,19.75l.22.44c-1.29.85-1.26,2-1.08,3.47.43,2.15.48,4.39.48,6.55l4.41-.37.35.41c-.15.49-.43.62-.44.66l-.26.47-2.81.33c.46,2.83.47,5.68.03,8.55l-.46.28-.45-.6c.51-2.35.45-5.07.13-7.45-.23-.3-.42-.61-.56-.92-.13.68-.42.82-.88.44-.2.48-.45.89-.88.44,1.36-3.12.4-5.28.21-8.42-.09-1.46.3-3.01.23-4.28.58.02,1.17-.01,1.75,0Z" fill="#bc2418"/>
          <path d="M43.93,30.91c-.58,2.31.17,8.79,0,11.72-.07,1.31-.29,3.24-.47,4.56-.11.79-.23,1.93-1.19,2.1-1.65.3-.91-.82-1.41-1.75-.3-.32-.37-.83-.22-1.53-.61-1.8-.68-3.63-.22-5.47l.46-5.36c-.26-1.3-.18-2.59-.67-3.83l3.72-.44Z" fill="#ee602d"/>
          <path d="M40.21,20.19c1.38.12,3.02,2.22,3.46,3.44.53,1.46,1.14,5.22.7,6.63l-5.25.44c-.08-1.33.1-2.74,0-4.06-.11-1.54-1.59-6.68,1.09-6.45Z" fill="#ec4c2a"/>
          <path d="M39.99,44.7c.42-1.29.78,1.1.44,1.75l.22-.44c.02.33.21.91.22,1.53.01.65-.01,1.31,0,1.97-.12-.02-.41.04-.44,0-.09-.12.01-2.56,0-3.06-.14.02-.29,0-.44,0-.09-.61.31-1.49-.44-1.31-.42-.12-.42-.31,0-.44.05-.32.24-.23.44,0Z" fill="#94323c"/>
          <path d="M21.27,10.91c1.01,1.71,1.68,5.15.66,7.07-1.36,2.57-1.53-2.4-1.64-2.93-.44-2.16-1.47-2.56-2.01-3.9-1.03-2.56,1.57-2.65,2.99-.25Z" fill="#ebcc2f"/>
          <path d="M17.89,19.1v1.09c.93-.67,1.11,1.03.85,1.3-.17.17-.91-.42-.63,1.11-.6.72-1-2.64-.84-3.13.09-.29.32-.43.62-.37Z" fill="#7c9d3c"/>
          <path d="M17.02,11.22l-.11,2.4c-.53-.06-.64-2.31-.55-2.4.05-.05.48.02.65,0Z" fill="#7b9b36"/>
          <path d="M24.68,20.85c.17,1.16-.02,2.9,0,4.16-.34.87-.37,2.11-.08,3.7-.3.6-.3,1,0,1.21-.2.55-.18,1.12.06,1.7-.41.25-.33.52.24.83.26.18.04.33-.66.44-.14,0-.29.01-.44,0,.26-2.55-.34-5.75-.02-8.22.05-.41.41-.29.45-.46.29-1.26-.33-2.75.22-4.01-.11.26.21.56.22.66Z" fill="#b56931"/>
          <path d="M23.36,27.41c-.54.67-.47-1.41-.44-1.65.06-.45.16-1.02.66-1.2l-.22,2.85Z" fill="#a1b154"/>
          <path d="M35.39,68.11c.64.75-1.34.21-1.31-.44.22-.07,1.26.38,1.31.44Z" fill="#cd3d11"/>
          <path d="M27.08,63.73c-.5-.02-1.31-.12-1.53-.65.64-.07,1.27-.02,1.53.65Z" fill="#a93429"/>
          <path d="M32.77,36.38c.57.14,1.08.28,1.53.44.74-.22,2.11.29,2.84.66.9.35,2.67,1.63,2.41,2.63l.48.11c.17.3.31,3.83-.26,4.05-.09.64-1.86.17-1.09-.44.51-.55.51-.79.4-1.6-.5-3.61-5.11-4.84-8.15-4.82.48.85.59,1.53.31,2.04.06.42-.16.42-.66,0-.41.14-.5-.14-.22-.44-.4-.82-.84-.82-1.31,0,.53.34-.36,1.42-.88,1.31-.2.71-1.07,1.46-1.75,1.75-.34.05-.51-.05-.44.44-.29.02-.59-.04-.88,0-1.31.17-2.9.69-3.94-.44-.27-.73,0-.58,0-.88,1.25-.34,1.42.88,2.41,1.09.19-1.26-.64-3.08.22-4.16-.09-.6.17-.89.66-.44.07-.49.14-.69.37-.26.52-.21,1.05-.42,1.6-.62l.47-.48c1.75-.23,3.5-.37,5.27-.4l.6.45Z" fill="#c6aa42"/>
          <path d="M32.11,67.02c.39-.1.64.06.66.44-.06.79-.44,1.49-.44,2.08,0,1.53.49,3.18.44,4.93,0,.28.18,1.11-.22,1.09.2-.75-.36-1.21-.45-1.85-.28-1.98.21-4.61.01-6.69Z" fill="#fbbd47"/>
          <path d="M32.11,63.08c.36,1.6.8,2.63.66,4.38-.36.08-.49-.16-.66-.44-.11-1.2-.48-1.8-.44-3.18.01-.42-.22-.88.44-.75Z" fill="#eec49e"/>
          <path d="M29.49,39.01c-.46-1.07.45-1.07.88,0,.09.11.13.31.22.44.57.2,1.58,1.31,1.09,1.75-.05-.03-.24.08-.39-.06-.06-.05-.21-.95-.27.06-.12-.91-.83-1.01-1.01-1.37-.03-.05-.06-1.46-.52-.82-.04.05.07.52-.06.82-.03.07-1.01.97-1.25.93-.18-.06-.18-.21,0-.44.27-.3.79-.99.88-1.31.17-.56.27-.56.44,0Z" fill="#3c6f85"/>
          <path d="M28.18,40.76v.44c-.41,0-.92.51-.88.88-.28.03-.6-.04-.88,0,.32-.68,1.12-1.05,1.75-1.75,0,.15,0,.29,0,.44Z" fill="#4c7377"/>
          <path d="M31.68,42.07c.25-.93,1.38.43,1.75.88.16,3.7,1.52,7.81,1.31,11.82-.87,0-1.75,0-2.62,0,.94-3.52-.1-7.08-.44-10.61-.06-.68.03-1.39,0-2.08Z" fill="#1b72b9"/>
          <path d="M31.68,41.2c.47-.32,1.84.78,1.75,1.31.23.2.31.27,0,.44-.05-.03-.21.03-.37-.07-.39-.24-.46-1.14-1.38-.81-.01-.28.05-.63,0-.88Z" fill="#376b91"/>
          <path d="M25.11,32.44c.14.1.63.22.8.51.2.33.05,1.21,1.05,1.25.14,0,0-.41.42-.47,1.05-.14,4.65-.13,5.72,0,.42.05.21.42.63.47.96.12,2.18-.12,3.19-.02.25.25.12.39-.22.44.19.06.19.14,0,.22l-.37.28c-3.3-.9-7.09-1.13-10.43-.28l-.14-.22c-.07-.02-.16-.15-.22-.22-.29-.35-.4-1.46-.45-1.52-.07-.08-.64,0-.86-.01l.66-.44h.22Z" fill="#ce5b3f"/>
          <path d="M25.55,35.07c2.38-.85,5.67-1.04,8.37-.34,1.2-.14,4.02.3,3.23,2.04-.4.89-2.25,0-2.85-.39-.32.35-1.14.3-1.53,0-2.47-.08-4.26.26-6.35.44-.33.17-1.66.8-1.93.56-.11-.1-.06-1.88.4-1.87.12-.04.34-.38.66-.44Z" fill="#d0cac8"/>
          <path d="M36.71,34.85c.64-.26.86-.12.66.44.67.36.71,2.26-.22,2.19-.03-.02-.32.22-.65.12-.74-.23-1.38-.61-2.19-.77-.58-.07-.56-.27,0-.44,1.03.09,1.62.51,2.63.44.1-1.74.06-1.03-.71-1.32-.22-.08-.09-.39-.48-.45-.65-.09-1.56.16-2.16.01-.17-.04-.13-.39-.3-.43-.62-.15-5.11-.12-5.88-.02-.41.05-.28.41-.46.45-.42.1-.96-.07-1.38,0l.22-.44c.55.13,1.83-.39,2.52-.43,2-.12,6.59.01,8.42.65Z" fill="#c8b8aa"/>
          <path d="M22.05,38.57c.83.85.93,1.37.87,2.63-1.04-.84-2.53-1.47-2.19-3.06.36.05.85-.09,1.18,0,.26.06.1.41.14.45q-.31.56,0,0Z" fill="#99b145"/>
          <path d="M24.89,35.51l-.22,1.75c.55.26.35-.39.58-.44.34-.08.79.04,1.17,0,.06.68-1.48.64-1.97.88-.7.35-.94-1.78-.22-1.97.22-.09.43-.15.66-.22Z" fill="#c1bb9a"/>
          <path d="M24.24,35.73c.08.62-.24,1.52.22,1.97-.04.02-.63.41-.66.44l-.18-.15c.15-.35-.32-1.96-.26-2.04.03-.04.69-.14.88-.22Z" fill="#677239"/>
          <path d="M28.18,24.13l.27.34c-.46,1.5-.24,3.09,1.68,2.49l.23.23s.02.2-.08.36-.62.21-.36.95c-.32.1-.73.09-1.22-.03-.71.76-1.49,1.38-2.36,1.86l.3.35c-.48.75-1.39.93-2.19,1.1.05.19.49.53.65.65h-.22c-.77.03-.6.14-.66-.54-.14-1.84-.06-4.27,0-6.15.01-.42-.22-.88.44-.76,0,.54-.12,2.11.1,2.42.39.56,1.75-.29,1.65.64.05.12.07.22.04.26-.76.82-.6.13.18-.26.46.08,1.11.94,1.49-.16.28-.79-.3-.64-.38-.88-.14-.39,0-1.04-.44-1.44-.26-.24-.66-.06-.67-.25-.02-.42,1.16-.98,1.53-1.2Z" fill="#dd5923"/>
          <path d="M29.93,28.51c.92.76.96,1.03,2.19,1.75,1.27.59,2.61.9,4,.93l.38.38c-.19,1.01-1.79.56-2.63.33-1.91-.51-3.37-1.85-4.92-2.97-.41,0-1.6,1.51-2.3,1.76-.31.11-2.05.34-2.19.22.03-.79,1.28-.72,2.08-1.09,1.66-.76,1.63-2.77,3.39-1.32Z" fill="#f38b3a"/>
          <path d="M28.18,24.13c1.25-.75,1.53-1.26,3.27-.64.05.06.04.49.02.64-.54.35-.42.99.17,1.21.18.3-.46,1.28-.83,1.42-.19.17-.26.23-.44.44-2.46.84-2.81-1.1-2.19-3.06Z" fill="#f08b35"/>
          <path d="M31.46,24.13c-.03.19-.37.64-.21.86.24.35,1.99-.13-.08,1.69-.12.11-.34.04-.37.07.62-1,.64-2.3-.77-2.43-.84-.07-1.48,1.57-.32,1.55-.34-1.33.99-1.09.88-.12-.07.69-1.46,1.32-1.78.87-.71-2.3.44-3.22,2.65-2.5Z" fill="#dd641f"/>
          <path d="M33.43,29.38c-.11-.13-.54-.17-.44-.54,1.29-1.2,1.44,1.1,1.53,1.2.36.42.48-.44.55-.45.62-.08,1.31.75,1.42,1.32-1.34.63-3.27.42-3.06-1.53Z" fill="#ef8b36"/>
          <path d="M36.49,30.91c.03.14.03.51,0,.66-1.26.06-2.76-.3-3.89-.83-.31-.14-.4-.43-.49-.48.98.11,1.42.44,1.31-.88.37.47.59,1.29.87,1.43.47.24,1.55-.27,2.19.1Z" fill="#d96a1d"/>
          <path d="M26.43,28.07c.07,0,.15-.01.22,0,.27.63-1.51,1.69-1.86,1.75-.9.17.25-.86.28-1.01.05-.27-.24-.64-.17-.96.4-.11.51.31.8.38.26.06.58-.18.73-.16Z" fill="#ef8b37"/>
          <path d="M38.68,32.01c.84.28-.12,2.27-.88,2.19-.46.73-.82.88-1.09.44.07-.15.14-.29.22-.44.32-.61.59-1.11.88-1.75.3-.12.59-.29.88-.44Z" fill="#a12e1f"/>
          <path d="M28.73,30.91c.88-.26,1.01,1.13.43,1.31-.88.26-1.01-1.13-.43-1.31Z" fill="#f6833b"/>
          <path d="M29.93,17.57c0-.52.15-.76-.44-.66.16-.74.35-1.19,0-1.97l-.87.44c.31-2.01,1.79.42,2.18-1.65.18-.98-.26-.88.45-1.85-.06.59.1,1.3,0,1.86-.09.45-.56.72-.73,1.24-.29.91-.07,1.6-.58,2.59Z" fill="#d9a24a"/>
          <path d="M34.74,13.19h.88c.29-.29-.7-1.94.1-1.97.37.33.65,2.16.46,2.42-.32.44-1.58.3-1.44-.45Z" fill="#b07f5d"/>
          <path d="M35.18,11c-.09.1-1.78-.89-2.51-.21-.47-.59,1.14-.94,1.69-.84.43.08,1.17.68.82,1.05Z" fill="#b3825e"/>
          <path d="M38.68,44.7c.09-.4.58-.2.88,0,0,.15,0,.29,0,.44,0,.42-.08,1.02,0,1.38.35,1.44.32,1.82.43,3.43.1,1.45.25,2.93.44,4.37h-1.74s-1.32-9.63-1.32-9.63c.44-.02.88.02,1.31,0Z" fill="#1c71b7"/>
          <path d="M36.05,43.82c-.37-.05-.81.08-1.16,0-.04,0-.18-.26-.59-.43-.29-.13-.6-.28-.88-.44,0-.15,0-.29,0-.44.27-.4,2.55.77,2.7.99.04.06,0,.18-.07.32Z" fill="#455f6f"/>
          <path d="M31.24,39.45l.55.08c1.59,2.12,4.2,3.32,6.75,3.79l.13.51c.06.03.19.93,1.09.44.51-.11.57.06.22.44h-.44c-.29,0-.59-.02-.88,0-.22-.37-.81-.13-1.16-.27-.63-.25-.39-.47-1.47-.61-.79-.72-1.86-.85-2.63-1.31-.54-.33-1.14-.95-1.75-1.31-.09-.49-.77-1.31-1.09-1.75h.66Z" fill="#bba44e"/>
          <path d="M39.55,31.57c1.07,1.06,1.01,7.49.49,8.45l-.49.09c-.29-.61-1.62-1.62-2.18-2.1-.23-.19-.21-.51-.23-.53.46-.61.06-1.61.22-2.19-.34-.26-.2-.63.44-1.09.32-.91.91-1.37.88-2.19.31-.16.62-.44.88-.44Z" fill="#617038"/>
          <path d="M39.55,31.57c.62,0,.82.87.88,1.42.25,2.29-.08,5.17,0,7.55.06,1.82.13,3.65.22,5.47,0,.4.1.4-.22.44-.01-.47.1-1.23,0-1.61-.06-.25-.43-.12-.44-.14s-.21-.41-.22-.44c-.23-1.17.32-3.02-.22-4.16-.11-.5.4-.31.45-.75.16-1.37.16-5.21,0-6.59-.04-.35-.76-.45-.45-1.19Z" fill="#b1330c"/>
          <path d="M43.05,26.97c-.15.31-.38.36-.69.13l.26.74c-.08.31.16.52-.22.88-.64-.05-1.3-.12-1.97-.22-.04-.03.04-.18,0-.22-.39-.27-.28-.62.33-1.04-.43-.1-.61-.34-.55-.71.11-.34-.29-.79.44-.66.51-.23.36-.45-.44-.66-.43-.88.58-1.58,1.31-1.21.57.29.31,1.02.55,1.42s1.29.44.98,1.54Z" fill="#ef8e35"/>
          <path d="M40.21,26.54l1.09.44c.07.58-.66.78-.88,1.31-.14-.16-.55-.23-.61-.57-.06-.3.29-.85.4-1.18Z" fill="#e16722"/>
          <path d="M40.21,25.22l1.09-.66c-.08.88.35,2.52-.66,1.31-.14-.16-.34-.47-.44-.66Z" fill="#d76c1c"/>
          <path d="M42.4,28.72c-.58.55-1.44.2-1.97-.22,1.06-.2,1.06-.74,1.97.22Z" fill="#e16722"/>
          <path d="M42.62,27.85c-.95-.17-.64-.76-.66-1.53l1.09.66c-.01.05-.27.23-.44.88Z" fill="#d36819"/>
          <path d="M31.24,39.45c-.18-.34-1.01-2.5-.87-2.62,2.56.13,6.43.81,8.09,2.95.89,1.15,1.19,2.31,1.1,3.73-.04.62-.54.23-.88.32-.39-.17-1.6-.34-2.02-.49-1.85-.7-4.46-2.02-5.42-3.88Z" fill="#f1ca2c"/>
          <path d="M29.27,36.82c-.25.98-1.28,3.24-2.04,3.87-.18.15-.58.18-.83.36-.51.37-1.68,1.56-2.35,1-.09-.07-.43-2.03-.42-2.29.02-1.48,4.34-2.79,5.65-2.94Z" fill="#f0ca2e"/>
          <path d="M29.05,39.01c.11-.42-.05-1.16.76-1.32l.55,1.32c-.89-1.09-.78-.09-.88,0-.05.04-.31-.03-.44,0Z" fill="#90905a"/>
          <path d="M34.3,36.38v.44c-.49-.1-1.31.26-1.53-.44.51.02,1.03-.04,1.53,0Z" fill="#c9b278"/>
          <path d="M37.8,34.19c-.11.32-.42,1.03-.44,1.09-.22-.1-.45-.37-.66-.44v-.22c.5.11.59-.05.8-.43h.29Z" fill="#815434"/>
          <path d="M22.05,38.57c.63.43-.37,2.15-.87,0,.22.04.78-.07.87,0Z" fill="#c8cd4c"/>
        </g>
      </g>
    </g>
  </g>
</svg>