<?xml version="1.0" encoding="UTF-8"?>
<svg id="Layer_2" data-name="Layer 2" xmlns="http://www.w3.org/2000/svg" viewBox="0 0 64.05 96.06">
  <g id="Cards">
    <g id="Clubs">
      <g id="TwoOfClubs">
        <path d="M58.76,89.56v-1.4h5.29c-.06.53-.23,1.03-.52,1.51s-.85,1.1-1.7,1.89c-.68.63-1.1,1.06-1.25,1.29-.21.31-.31.62-.31.92,0,.34.09.6.27.78.18.18.43.27.75.27s.57-.09.75-.28.29-.5.32-.95l1.5.15c-.09.83-.37,1.43-.84,1.79-.47.36-1.06.54-1.77.54-.78,0-1.39-.21-1.83-.63-.44-.42-.67-.94-.67-1.56,0-.35.06-.69.19-1.01.13-.32.33-.66.6-1.01.18-.23.51-.57.99-1,.48-.44.78-.73.91-.87.13-.14.23-.28.31-.42h-3Z" fill="#3b920f"/>
        <path d="M5.29,6.5v1.4H0c.06-.53.23-1.03.52-1.51s.85-1.1,1.7-1.89c.68-.63,1.1-1.06,1.25-1.29.21-.31.31-.62.31-.92,0-.34-.09-.6-.27-.78-.18-.18-.43-.27-.75-.27s-.57.09-.75.28-.29.5-.32.95l-1.5-.15c.09-.83.37-1.43.84-1.79.47-.36,1.06-.54,1.77-.54.78,0,1.39.21,1.83.63.44.42.67.94.67,1.56,0,.35-.06.69-.19,1.01-.13.32-.33.66-.6,1.01-.18.23-.51.57-.99,1-.48.44-.78.73-.91.87-.13.14-.23.28-.31.42h3Z" fill="#3b920f"/>
        <path d="M22.41,59.13c-.06.61-.27,1.03-.63,1.25.33.5.7,1.2,0,1.46l.03.99c.23.44.22.81-.03,1.1-.48,3.71-1.04,7.53-1.67,11.27-.12,1.08-.75,3.57-.63,4.48.05.41.79.99.96,1.77.27,1.23.31,3.86.05,5.08-.17.8-.99,1.39-1.64.68l-4.12-6.95c-.43-9.98-2.45-19.87-3.18-29.81-.1-1.38.37-4.14-.42-5.11.26-.66.33-1.42.21-2.26l.42-.24c.25-.97.46-2.27.66-3.9l.39-.69c-.24-.21-.17-.55.21-1.04-.54-.46-.04-1.46.63-1.25.12-.02.24-.03.35-.01.79.12.41,2.81.28,3.45-1.12,4.27-1.45,8.5-.85,12.93,1.14,8.54,2.19,17.09,2.87,25.75l1.64.39,2.35-19.43.44-1.36c1.05-1.66,1.8-3.34,2.25-5.04-1.99-1.95-2.38-3.1-2.34-5.85.43-5,1.33-9.94,2.71-14.81.78-3.26.73-6.72.52-10-.28-.68.54-2.13,1.25-2.3.23,2.94,1.01,5.63.83,8.66-.25,4.35-2.14,8.32-2.87,12.58-.29,1.73-.9,5.44-.89,7.05.03,2.52,2.8,2.69,2.51,5.43-.16,1.48-1.88,3.34-2.35,4.76-.13.39-.23.61.05.98Z" fill="#729145"/>
        <path d="M44.57,16.12c-.32-.64-.6-1.2-.83-1.67-.38-1.53-.32-3.45,0-5.01.23-.88,1.24-.82,1.67,0,.45.43,3.52,5.4,3.71,6,.45,1.45.7,5.67.88,7.47.68,6.52,1.79,13.94,2.09,20.35.2.79.2,1.48,0,2.09.12.92.42,4.51-.05,5.12-.14.17-.78.47-.78.1l-.37-.65c-.24-7.2-.99-14.37-2.27-21.5l-.9-10.56c-.01-.09-1.55-.26-1.75-.08l-2.34,19.74c-.85,1.81-1.72,3.6-2.61,5.37.41,1.07,1.07,2.09,1.96,3.07.84,1.94.05,8.77-.64,10.83l-.48.25c-1.18,1.15-.99-.52-.87-1.4.23-1.71.46-3.48.81-5.13.42-2.24,0-4.08-1.24-5.52-1.23-.53-1.15-2.46-.61-3.52,1.33-1.75,2.1-3.66,2.33-5.73-.29-1.31-.22-2.42.21-3.34-.32-.32-.3-.61.05-.88l.48-3.96c.34-2.88.73-5.94,1.19-8.83l.16-.11c.04.74.11.12.21-1.88-.3-.1-.24-.45,0-.63Z" fill="#b81d23"/>
        <path d="M24.91,17.38c.47,1.23.12,1.16.21,2.3-.36.87-.75,1.52-1.25,2.3.4.58-1.31,2.77-1.78,3.05-.14.08-.36-.03-.52-.12-.18.78-1.62,1.33-1.88.42l-.12-.26c.21-.06,5.24-6.55,4.21-6.39-1.71.27-9.53,12.43-10.63,14.51-.9,1.69-2.09,4.11-.33,1,1.85-2.31,3.53-4.72,5.06-7.24l.56.04c.43.31.31.88,0,1.25.42-.02.28.17,0,.42.07.72-.13,1.07-.63,1.04.17.54.22.75-.42.63-.28,1.44-1.14,3.18-2.5,3.76-.12.7-.46,1.96-1.25,1.88-.21.43-.42.47-.63,1.25l-.83,1.67c.11.09.2.18.19.26-.04.85-.25,2.66-.39,3.5-.01.08-.1.14-.22.2-.01.41.08,2.41,0,2.51-.04.04-.47-.03-.63,0-.17-.21-.56-.52-.83-.84-.58.11-.59.01-.21-.42l-.22-.16c.07-.53,0-.89-.2-1.1-1.08,0-1.25-2.86-.42-3.34.25-2.6,1.65-4.82,2.71-7.1-.09-.98.12-1.46.63-1.46l.6-1.46c1.98-2.83,4-5.61,6.08-8.35l-.04-.54c.62-.81,1.8-2.14,2.57-2.77.84-.68,1.02-.76,2.06-.66.3-.67.73-.3,1.04.21Z" fill="#b0241c"/>
        <path d="M52.08,64.14c.06,1.15.61,2.72.64,4.06.03,1.66-.47,2.75-.61,4.21-.28,2.84,1.36,5.31,1.02,8.74-.5,4.99-5.4,8.7-10.16,6.2-2.93-1.54-2.39-5.33-3.41-7.97-.62-.9.58-1.35,1.04-.63l.5.1c.44,2.32,1.13,4.48,2.07,6.47,4.78,3.6,9.26-2.31,8.22-7.15-1.12-3.24-1.52-5.78-.36-9.08-.2-1.31-.2-2.55.01-3.7-.37-.5-.25-.8.42-.84-.14-.57.39-1.02.63-.42Z" fill="#b81e23"/>
        <path d="M23.87,14.25c.06.71.08,1.8-.63,2.09l-.49-.12-1.06-3.54c-.73-2.56-2.48-3.57-5.1-2.85-5.58,2.02-4.01,8.58-2.93,13.03-.36,2.22-.65,4.43-.85,6.63.32.21.25.7-.21,1.46-.17.58-.35.87-.63,1.46-.51-2.09-.84-4.42-.62-6.57.11-1.13.7-2.13.63-3.33s-.78-2.61-.99-3.82c-.96-5.51,1.9-11.74,8.35-10.65,3.6.61,3.7,3.42,4.54,6.21Z" fill="#729145"/>
        <path d="M42.27,35.75c-.02.66.33,1.3.1,1.99-.55,1.67-2.42,3.34-2.53,5.24-.01.19.12,1.44.16,1.51.08.12.51.1.67.22.09.07,1.3,1.73,1.33,1.85.17.55-.22,1.02.47,1.2l-.42.1c-.1.89.13,1.98.01,2.83-.05.39-.39.27-.43.44-.18.78.13,2.05,0,2.89-.13.93-.54,1.19-.43,2.51.05.64-.11.54.63.51.59.35.21,1.19-.42,1.25-.64.47-.78,1.09-.42,1.88l.18.22c-.43.46-.53.91-.29,1.35-1.06,3.76-1.51,7.74-.7,11.6l-.24.82c.52.57-.86,2.9-1.25,1.46-.15-1.5-.53-2.99-.62-4.49-.43-6.55,1.93-10.81,2.89-16.94.31-2,1.04-6.12.24-7.79l-1.25-1.46c-1.73-2.93.17-3.84,1.29-6.33.23-.52.23-.96.38-1.4-.02-.94.19-1.43.63-1.46Z" fill="#b72226"/>
        <path d="M51.67,62.26c.87.31.08,1.69-.16,2.09-.03.06-.04.13-.05.2-.16.25-.26.58-.42.84l-.21,1.12c-2.17,3.01-4.25,6.05-6.26,9.1l-.41.22c-.15.18-.43.32-.83.42.39.49.18.83-.42.63-.06.33-.19.54-.42.63-.2.73-1.16,1.73-1.88,1.25-.32.16-1.2-.08-1.04.63-.18-.46-.75-.93-.83-1.36-.13-.69.07-1.65,0-2.4l.41.21c.22-.5.54-1.24.84-1.67.12-1.21,1.45-2.84,2.5-3.34.2-.35.88-.17,1.25,0,.04-.19.11-.18.21,0l.15.53c-.33.36-4.63,5.59-3.83,5.85,1.12.36,9.59-12.15,10.51-14.3.24-.28.54-.49.88-.63Z" fill="#dd8b26"/>
        <path d="M22.41,59.13c.07,0,.17-.02.21,0l1.15,1.63c.32.18.35.33.1.45.64.37.72.76.83,1.46.27-.3.4-.17.21.21.94.17,1.07,2.06.63,2.69l.21,2.95c.1.46.19.94.41,1.37.37.72,1.9,1.63,1.38,2.4-.73,1.07-2.55-1.73-2.83-2.31-.81-.96-1.29-2.15-1.46-3.55-.75-.07-1.87-1.82-1.46-2.51-.35-.77-.68-1.34,0-2.09h.45c1.71,3.34,1.99,3.64.86.9-.51-.76-.95-1.55-1.31-2.36.04-.6-.08-1.24.63-1.25Z" fill="#af2325"/>
        <path d="M9.26,39.51c-.09.92-.17,2.67.42,3.34l.22.16c-.07.55,0,.91.2,1.1.09.1.12.32.21.42-.62-.04-.58.77-.93,1.26-1.06,1.47-1.62,1.28-2.62,0-.48-.56-.61-1.13-.39-1.69.78-.6.56-1.01-.66-1.23-.52-.37-.81-.57-.59-1.31.04-.12,1.45-1.77,1.62-1.93,1.01-.92,1.39-.19,2.51-.1Z" fill="#749047"/>
        <path d="M38.31,30.53c.32.04.3.52,0,.63.07.15.11.38,0,.44-1.13.54-1.07.66.21.8l.21.44c.16-.58,1.32.51,1.41.71.21.46.23,2.15-.16,2.42-.69.72-3.46,2.22-3.75.73-.33-1.67,1.11-2.62,1.04-2.91-.02-.1-1.16-.81-1.46-1.36-1.38-1.9.09-2.49,1.94-2.15.26-.39.41-.16.56.27Z" fill="#759147"/>
        <path d="M38.72,31.16l-.31-4.73c.57-.53.95-.27,1.14.77l.34.03c.35.69.66,1.37.91,2.05.53.08,1.12,1.43.83,1.88.44.34.72.8.83,1.25-.11,1.09-.17,2.24-.21,3.34-.18.43-.49,1.05-.63,1.46v-.21c-.24-.63-.59-1.18-1.04-1.67-.59.09-.57-1.62-.21-1.88.5-.18.93.23,1.28,1.24-.2-1.11-.66-2.12-1.39-3.05.43.72.47,1.25.11,1.61l-.11.27c-.89-.38-1.41-1.17-1.56-2.36Z" fill="#d4902a"/>
        <path d="M55.21,51.2c.25.74.43.92.56.52l.49.1c1.06-.53.81.46.53,1.22,1,.04,1.8.78.51.87-.17.39-.1.6.21.63.37-.75,1.3.01.63.63-.86,1.1-1.32,2.04-2.92,1.46-.13-.03-.22-.06-.21-.21l-.21-.24c.12-1.16-.03-2.28-.63-3.31-.83-.3-.45-1.2,0-1.67.01-.1.16-.29.21-.42.62-.78,1.39-.59.83.42Z" fill="#7a9546"/>
        <path d="M21.78,63.93c.36.79,1.08,1.71,1.46,2.51.18.61.25,1.04-.42.63l-.02.48c-1.28.58-1.54,3.18-.24,3.87l.05.45c-1.11.64-.75-.28-1.25-.54-1.22-.62-.52,3.43-1.26,3.88.39-3.58.61-7.43,1.26-10.96.08-.44-.23-.73.41-.32Z" fill="#f8f1ec"/>
        <path d="M54.38,50.78c.27-.67.27-.33.64-.72.44-.45.86-1.51,1.67-.65.19.2,1.03,1.67,1.04,1.91.04.73-.81,1.06-.84,1.76,1.13-.15,2.64.13,1.85,1.54-.18.32-.49.4-.6.55.12-.59-.55-.54-.63-.63-.58.22-.7-.28-.21-.63,0-.03.33-.36.21-.63h-.84c.02-.67.39-1.14-.42-1.46l-.26-.39c.2-.47-.06-.55-.78-.23-.02-.6-.37-.79-.83-.42Z" fill="#849a5e"/>
        <path d="M52.08,43.26l.17.14c-.15.55.25,1.5.25,1.85v5.01c0,.1,1.18,1.11,1.36,1.36l.31-.42c-.06.44-.04,1.22,0,1.67.48.86.99,2.36.42,3.13-.24.26-.52.12-.83-.42-.38-.18-.49-.74-.33-1.68l-.3.22c-.03.6-.48.57-.63,0-.14-.04-.25-.08-.26-.14-.08-.5-.04-1.86.23-2.25-.36-.42-.49-.81-.39-1.17.26-1.57.24-3.53,0-5.22,0-.69.03-1.4,0-2.09Z" fill="#cd9641"/>
        <path d="M22.82,67.06c.5-.35.98.73.63,1.04-.34.48-1.37,1.99-.25,1.11l.46.14c.42-.23.73.26.63.63-.52.56-1.01,1.5-1.67,1.88-1.71-.4-1.56-3.2-.63-4.28.38-.44.58-.34.84-.52Z" fill="#79944f"/>
        <path d="M42.48,25.1c.59,1.03.59,1.86,0,2.51.3.79-.97,2.33-1.67,1.67-.33-.31-.66-1.07,0-1.25.57-1.41.6-1.86.07-1.35l-.49-.11c-.28.57-.8.41-.83-.21-.55-.09-.53-.25,0-.42.07-.11,1.7-1.62,1.82-1.65.44-.11.95.43,1.11.81Z" fill="#79914d"/>
        <path d="M54.59,56c.18.05.18.12,0,.21-.21,1.47-.48,3.18-1.25,4.59-.33.96-1.29,2.54-1.25,3.34-.36-.08-.46.16-.63.42-.51-.91.16-.8.21-.98.1-.39-.06-.92,0-1.32-.61-.16-.4-1.07.21-1.04l-.19-.27c.86-1.58,1.41-3.24,1.66-5l.41-.37.41-.21.42.62Z" fill="#cf8e2f"/>
        <path d="M37.05,25.31c-1.08-1.47-.81-2.4.84-1.15.72.54.89,1.52,1.67,1.78-.04.07.03.29,0,.42.52.15.4.59,0,.84-.05-.09-.66-.86-.83-.63,0,1.53,0,3.06,0,4.59-.06.4-.23.37-.42,0,.02-.2-.03-.43,0-.63l-.24-.25c.32-1.89.03-3.44-1.01-4.97Z" fill="#cc8f40"/>
        <path d="M25.96,62.68c.08-.43.36-.36.83.21.9.39,1.44,1.55,1.25,2.51-.5.24-2.13-.43-2.41,0-.08.13.28,2.63.11,3.13-.35-1.64-.13-4.07-.83-5.64-.06-.73.55-.61,1.04-.21Z" fill="#9db355"/>
        <path d="M27.21,60.8c-.17.55-.76,1.32-1.25,1.25-.67.48-1.09.48-1.25,0-.22-.09-.36-.3-.42-.63-.28-.26-.28-.68,0-1.25.25-.26,2.49-1.12,2.79-1.03.61.18.25,1.21.13,1.66Z" fill="#96b34c"/>
        <path d="M44.57,16.12c.02.21,0,.42,0,.63-.08.64-.15,1.27-.21,1.88l-.6,3.68c-.14,3.39-.95,6.76-1.28,10.1-.55.14-.6-.82-.83-1.25.1-.21.25-.32.48-.29l.23-2.37c.29-.63.33-.92.13-.89.17-.79.32-1.73,0-2.51l.62,1.25c.04-2.88.88-5.84,1.04-8.66.03-.48.08-1.35,0-1.77.06-.33.2-.26.42.21Z" fill="#e5c8bf"/>
        <path d="M45.4,9.44s-.69-.43-.73-.44c-.18-.01-.94.38-.94.44v5.01s.28-.06.36.05c.1.14.45,1.34.47,1.62l-.42-.21c-.11-.58-.7-1.29-.81-2.22s-.23-4.74.74-5.06c.73-.24,1.12.14,1.32.81Z" fill="#8d292e"/>
        <path d="M38.72,31.16c.7.03.28.39.61,1.18.09.22.71.95,1.06.91.18.07.18.14,0,.21.08.38-.08.89,0,1.31.02.1,1.1,1.13,1.24,1.56.07.21,0,.46,0,.68-.48-.12-.91-1.35-1.05-1.46-.33-.27-.47.26-.62.42-.08-.65.15-1.56-.04-2.16-.09-.28-.92-.9-1.22-.98-.64-.08-.61-1.53,0-1.67Z" fill="#c89331"/>
        <path d="M38.31,30.53c-1.79-.39-3.82-.52-2.5,1.88-1.77-2.02.15-2.6,2.09-2.3v-3.55c0-.08-1.28-.42-.83-1.25,1.26,1.72,1.6,3.01,1.25,5.22Z" fill="#f4e8c8"/>
        <path d="M24.91,17.38c-.33-.14-.7-.14-1.04-.21-1.06.44-1.54-.25-.63-.84,0-1.16.45-1.13.63-2.09.36,1.19.6,1.97,1.04,3.13Z" fill="#c7cdb4"/>
        <path d="M24.7,69.99c-.13-.02-.31.03-.42,0-.19-.06-.47-.47-.63-.63-.31-.31-.64-.91-.21-1.25-.16-.41.08-.6-.63-1.04.26-.18.5-.27.42-.63.56,1.16.91,2.41,1.46,3.55Z" fill="#8c864a"/>
        <path d="M54.59,56.21c.23-.32.38-.15.42.21.08.05.15.19.21.21-.52-.1-.45.23-.56.58-.39,1.2-.5,2.56-1.32,3.6.16-.48.76-2.25.82-2.62.19-1.16-.35-1.1.43-1.97Z" fill="#cd9641"/>
        <path d="M27.21,60.8c-.05.17.02.37-.11.61-.26.5-1.32.82-.31,1.19v.28s-.79-.2-.84-.21c-1.04-.16-.99-.47,0-.63.47-.39.89-.74,1.25-1.25Z" fill="#eaf2d3"/>
        <path d="M22.62,59.13c.51.2,1.35,1.84,1.46,1.67,0-.24.03-.44.21-.63v1.25c-.12.08-.26.01-.42-.21-.42-.71-.99-1.3-1.25-2.09Z" fill="#ead7c6"/>
        <path d="M5.71,42.85l1.46.21c.01.59-.72.83-.8,1.4-.07.49.36.84.39,1.31-.31-.4-.62-.36-.63-1.15-.02-1,.65-.72.63-1.35-.42-.03-.71-.18-1.04-.42Z" fill="#ddebcb"/>
        <path d="M41.23,46.4c-.7-.35-.91-.89-1.25-1.46.67.39.94.81,1.25,1.46Z" fill="#be8484"/>
        <path d="M23.87,21.97c.65-.12.38.33.41.72.67,8-1.14,10.48-2.4,17.64-.44,2.52-1.48,7.94-.26,10.08.49.86,1.86,1.48,1.82,2.54s-2.2,4.08-2.64,5.72c-.37,1.35-.3,2.61-.48,3.9-.76,5.46-1.42,10.93-2.09,16.39l-2.31-.55c-.55-4.36-.77-8.76-1.24-13.13-.67-6.19-2.34-14.19-1.88-20.26.19-2.49,1.22-5.14,1.27-7.72,0-.47-.08-1.01-.42-1.35.52-1.07.68-1.05,1.25-1.88.5.89.71,1.91.61,3.04l.03,12.96c.02.36,1.28.45,1.56.16l-.1-18.45.41-1.46c.13-.23.34-.47.42-.63l.47-.02,1.02,1.49c1.17,1.77,1.84.99,2.02-2.32l.44-.38c2-.23,1.31-1.32.1-2.3l-.09-.45c-1.04-.04-.92-.23-.21-.84.63-.39,1.85-2.23,2.3-2.92Z" fill="#97b63f"/>
        <path d="M21.78,60.38c1.81,1.35,2.31,3.88,2.93,5.95-.23.35-.45-.05-.6-.24-.29-.39-2.27-3.96-2.33-4.25-.07-.31-.02-1.09,0-1.46Z" fill="#e44734"/>
        <path d="M17.4,82.1c-.12-.2-1.48-1.89-1.25-2.09.95-.34,3.13,1.1,3.13,1.98v3.03c-.79-.58-1.16-1.68-1.67-2.51.24-.29.49-.3.81-.28-.1-.66-.44-.7-1.02-.14Z" fill="#99b244"/>
        <path d="M12.8,38.25c-.25,1.18-.44,2.64-.63,3.87-.06.39.26.85-.41.73.04-1.47.02-2.52.42-3.97.18-.51.38-.72.63-.63Z" fill="#cfac8f"/>
        <path d="M17.4,82.1c.51-2.49,2.82,1.34.21.42-.05-.09-.11-.25-.21-.42Z" fill="#d8cf44"/>
        <path d="M12.8,38.25l-.63.63c.16-.59.27-1.32.83-1.67-.06.25-.14.71-.21,1.04Z" fill="#97663f"/>
        <path d="M51.25,50.57c.05.57.11,1.17.18,1.81-.66,2.63-1,5.23-1.02,7.8.63.59-.81,2.42-1.44,1.63v-15.27s-.23-.76-.23-.76c-.47.28-.63.07-.42-.42-.45-.47-1.96-.13-1.98.54.06,6.51.03,13.01-.11,19.5-.07.55-.26.53-.42,0-.61-.31-1.03-.73-1.25-1.25-.55.34-.81.09-.42-.42-.39-.3-.58-.26-1.25,0-.29.57-.83,1.67-.62,2.97l-.63.37c-.13.19-.37.33-.72.44-.6.59-.37,1.41-.11,1.65l.41.69c.63.25,1.05.58,1.26.98-.68,1.22-1.71,2.21-2.5,3.34-1.09-4.23-.58-8.72.63-12.84l-.83.31c-.29-.39,1.05-1.16,1.25-1.46-.34-.54-.2-1.62.42-1.88.09-.36.32-.77.42-1.25.5-2.44,1.33-7.58,1.05-9.92-.24-1.94-2.35-2.66-2.31-4.16s2.59-4.06,2.67-5.91l2.36-19.88c.56.16,2.31.05,2.48.55.42,3.31.51,6.67.86,9.99.68,6.47,2.84,16.75,2.3,22.86Z" fill="#ef4c29"/>
        <path d="M52.08,50.57l.03.5c-.58.32-.11.85.22,1.21-.03,1.72-.35,3.43-.82,5.08-.02.06-.13.08-.27.1.59.62.1,2.8-.83,2.71-.57.37-.4.2-.42-.31-.14-3.32.97-6.16,1.25-9.29.23-.08.78-.09.84-.35.2-.85,0-3.76,0-4.87.35.22.21.79.21,1.15,0,.87.17,3.55-.21,4.07Z" fill="#b92325"/>
        <path d="M46.45,13.83c-.13.14-.29.23-.47.19-.88-.2.13.6.26.28.02-.06.07-.1.13-.14.09-.05.19-.09.29-.12.23.24,1.41,1.95,1.25,2.09-2.82.18-4.03-2.95-3.02-5.22l1.56,2.92Z" fill="#e54a2d"/>
        <path d="M46.45,13.83c.08.06.14.14.21.21-.07.33.27.86-.32.84-1.44-.05-1.6-2.29.11-1.05Z" fill="#f8a846"/>
        <path d="M44.57,16.75c.04.97-.03,1.95,0,2.92-.38.01-.2-.78-.21-1.04-.01-.57-.15-1.48.21-1.88Z" fill="#8d292e"/>
        <path d="M23.24,16.33c0,.19-.04.8,0,.84.04.05.46-.03.63,0-2.13.61-3.05,2.54-4.59,3.97-2.08,2.76-4.1,5.54-6.08,8.34h-.39c-.89-2.24.52-4.56.43-6.78-.07-1.57-.86-3.13-1.03-4.61-.42-3.86.8-8.39,5.29-8.85s4.51,3.98,5.74,7.1Z" fill="#97b53f"/>
        <path d="M14.89,34.08c.85-1.22,1.77-2.46,2.5-3.76l.11,20.04c-.33.67-2.34.67-2.4-.32-.15-5.31.27-10.7-.21-15.97Z" fill="#edcb2d"/>
        <path d="M18.44,26.98c-1.29,1.12-1.89,2.99-2.84,4.37s-2.17,2.45-2.98,3.91c-1.21,2.17-1.83,4.9-1.91,7.38-.55.05-.35.03-.41-.31-.84-4.52,3.14-10.73,5.58-14.45,1.03-1.57,6.49-9.43,7.9-9.64.72-.11.41.95.27,1.33-.4,1.16-3.36,4.99-4.37,5.75.32.55-.53.78-.83.42-.13.31-.27.66-.42,1.04.19.04.18.11,0,.21Z" fill="#f05f34"/>
        <path d="M21.78,25.73c.72.05,1.74,1.48,1.68,2.18-.09.95-1.48.64-1.78,1.15-.27.45,0,1.52-.14,2.15-.1.43-.89,1.41-1.31,1.41-.49,0-2.1-2.35-2.4-2.93.4-.78-.14-.75.63-1.04.65-.63.87-1.54.66-2.72.74-.08,1.46-.24,2.16-.47l.52.27Z" fill="#74933e"/>
        <path d="M19.28,21.13l-6.68,9.81c.12-.41.1-1.15.21-1.46.09-.26,2.35-2.99,2.7-3.5,1.36-1.95,1.96-3.18,3.77-4.85Z" fill="#a69d4e"/>
        <path d="M21.57,24.89c-.17.57-.34.54.21.84-.54-.04-.75.33-1.16.41-.32.06-1.29-.05-1.35,0-.34.34.76,1.89-.83,2.51v-.42c.17-.53.31-1.01.42-1.46-.33-.15-.34-.87,0-1.04.2-.03.7-.31.83-.42.85.11,1.2,0,1.88-.42Z" fill="#898543"/>
        <path d="M18.86,26.77c.06.6.39,1.04-.42,1.46,0-.42-.01-.84,0-1.25,0-.07,0-.14,0-.21.07-.55.26-.53.42,0Z" fill="#913d20"/>
        <path d="M9.67,42.85s.36-.1.42.14c.08.31-.05.77,0,1.11-.03-.03-.36.12-.43-.13-.08-.3.06-.78,0-1.12Z" fill="#955933"/>
        <path d="M40.6,78.76c.68-.34,1.23-.87,1.88-1.25l.2.13c-.31,1.33,1,2.82,2.34,2.58l.17.22.26.08c.64-.03.76.57.37,1.8l.33.38c-.32,1.24.16,1.66,1.35,1.21l.41.29c1.36-1.96,2.55-6.81,1.36-8.64-.9-1.39-2.49-.19-3.04,1.04l-.61-.13c-.06.18-.13.18-.21,0-.43-.25-.84-.46-1.25-.63-.06-.42.16-.67.37-.99,1.99-3.17,4.49-6.13,6.52-9.45.02,1.04.44,2.21.44,3.23-.01,1.47-.85,3.21-.83,4.57.02,1.63,1.03,3.65,1.21,5.26.44,3.95-1.59,8.47-6.1,8.35s-3.73-4.94-5.15-8.06Z" fill="#ee4c29"/>
        <path d="M41.44,58.3c-.15.6-.08,1.37-.42,1.88-.91-.74-.82-.9-.2-1.77.19-.27,0-.75.62-.11Z" fill="#b81d23"/>
        <path d="M51.87,61.22c-.06.16-.17.81-.21,1.04-2.72,4.36-5.45,9.3-8.87,13.16-.35.4-2.56,2.78-3.03,2.29.07-2.77,2.8-4.68,4.17-6.89-.06-.38.26-.71.96-.99.03-.4.2-.63.5-.68-.2-.05-.29-.15-.19-.3,1.62-2.72,3.41-5.33,5.49-7.75l.55-.09c.29-.54.64-.37.63.21Z" fill="#f3c730"/>
        <path d="M44.15,63.72c.17.27.19.25.42.42.24.45.42.72.89.97l-.05.29c.87.15.72,1.19.42,1.88.16.41,0,.87-.47,1.38l.05.5c-.08.19.11.54-.19.96-.13.18-1.04.67-1.27.71-.07.01-.14,0-.21,0-1.37-.11-2.34-.67-2.92-1.67-.66-.78-.12-2.01,1.04-1.88-.28-.02-.21-.09.21-.21.22-.62.29-1.31.2-2.05.23-.29.44-.58.64-.87.09-.62.89-.98,1.25-.42Z" fill="#7d913d"/>
        <path d="M43.32,76.25c.72-.36,1.51-.39,2.09.21.07-.02.16.02.21,0,.31-.1.39-.08.21.21.09.52.35.92.78,1.22.19.66-.27,3.45-1.19,2.54-1.57-.21-3.46-1.19-2.5-3.55.26-.33.25-.36.42-.63Z" fill="#828b3d"/>
        <path d="M42.9,76.88c.07.57-.14,1.29.06,1.83.03.08,1.16,1.21,1.24,1.24.5.19,1.32-.27,1.2.48-.05.19-.12.18-.21,0-.37.03-.98.06-1.31,0-.09-.02-1.31-1.21-1.34-1.3-.12-.32-.12-1.25-.06-1.62.09-.56.25-.42.42-.63Z" fill="#be6732"/>
        <path d="M41.65,67.06c.16-.28.32-.31.42,0-.02.02.07.28-.05.37-.15.11-.49,0-.72.12-.59.31-.51,1.03-.48,1.6.64.27.64.62.9.77.1.05.83.42.93.47.33.14.86-.02,1.09.44-.3.04-.94.04-1.25,0-.55-.07-.31-.28-.59-.4-.83-.37-1.02-.04-1.08-1.27-.09-.04-.36.09-.42-.14-.31-1.17.08-1.96,1.25-1.95Z" fill="#b67236"/>
        <path d="M44.15,75.83c.73-.09,1.49-.2,1.25.63-.07.02-.19.28-.5.22-.15-.03-.1-.39-.27-.43-.38-.1-.91.05-1.32,0,.31-.48.31-.35.83-.42Z" fill="#b37136"/>
        <path d="M25.96,62.05c-.41.35-.71.21,0,.63-.37-.03-.73.01-1.04.21-.03-.06-.17-.12-.21-.21-.13-.26-.13-.47,0-.63h1.25Z" fill="#bec589"/>
        <path d="M24.29,61.43c.27.08.4-.02.42,0,.04.06,0,.46,0,.63,0,.21,0,.42,0,.63-.12-.25-.64-1.12-.83-1.46.14.05.28.17.42.21Z" fill="#b38852"/>
        <path d="M8.84,40.55c.2.95-2.52,1.99-2.5,1.15,0-.1,1.36-1.43,1.45-1.47.27-.12.71.37,1.05.32Z" fill="#92b14c"/>
        <path d="M8.84,43.27c.06.84.07,2.13-1.04,2.29-.71-1.16-.12-1.85,1.04-2.29Z" fill="#a6bb4b"/>
        <path d="M38.72,31.16v1.67c-.27-.07-.62.08-1.04-.11-.33-.15-.72-.8-1.05-1.04l1.67-.52c.14,0,.28,0,.42,0Z" fill="#96b147"/>
        <path d="M39.11,35.51c-.05.08-1.77.73-1.84.66-.2-.74,1.52-2.57,1.84-1.53.07.21.1.7,0,.87Z" fill="#90b14b"/>
        <path d="M40.39,33.24c-.21-.92-.86-2.12-1.03-3.04-.06-.3-.13-.6.3-.51.82,1.92,2.74,3.5,2.4,5.74.02.18-.39.12-.41.1-.22-.19-.81-1.8-1.26-2.09-.01-.07.01-.14,0-.21Z" fill="#f2ba38"/>
        <path d="M42.48,27.61c.13-.17.18-.46.42-.42l-.42,4.38-.83-.42c-.5-.63-.69-1.1-.83-1.88,1.02-.47,1.07-.86,1.67-1.67Z" fill="#f8f2e8"/>
        <path d="M40.39,26.56c.37.53.51,1.01.42,1.46.09.31-.07.89,0,1.25-.12.05-.39.26-.42.21.27-.72-.33-.79-.4-.99-.18-.45-.02-.65-.43-1.3-.11-.33-.07-.52,0-.84l.83.21Z" fill="#8e8d35"/>
        <path d="M57.51,54.54c-.45.05-1.08,1.25-1.18,1.27-.26.04-1.07-.32-1.12-.54-.14-.59,1.64-1.27,2.09-1.35,0,.03.19.6.21.63Z" fill="#92b54b"/>
        <path d="M55.21,51.2c.67-1.33,1.66-.32,1.04.63l-1.04,1.04c-.09-.7-.34-.99,0-1.67Z" fill="#a6b963"/>
        <path d="M54.17,52.87c1.17.96.81,2.17.83,3.55-.1-.06-.33-.03-.42-.21.02-.03-.01-.13,0-.21.19-1.15-.32-2.05-.42-3.13Z" fill="#a0913e"/>
        <path d="M48.33,45.35c-.44.44-1.06.62-1.88.52l.42.14v18.51l-.42,1.08c.45-1.1,1.07-2.16,1.84-3.19.05-4.88.11-9.85.18-14.91l.28-1.73c.17.28.5.45.42.93v14.93c.35.4,1.15-1.28,1.25-1.46.69-1.25.59-1.44.83-2.71.51-.88.82-1.91.93-3.08l.32-.26h.63c.77,2.04-.37,4.53-1.31,6.46-.12.25-.26.42-.57.43-.6,1.05-1.64,1.93-2.26,2.85-.56.84-3.4,4.84-3.58,5.29-1.08-.16-.09-.85-.07-.9.24-.57,0-.4.49-.98.28-.56.23-1.1.14-1.69l.28-.19c.21-6.49-.16-13.02,0-19.52.14-.71,1.08-1.1,1.74-.91.26.08.28.34.35.38Z" fill="#d99027"/>
        <path d="M53.13,54.12c0-.19-.11-1.55.41-1.04.27.26.23,2.02.21,2.5-.08,2.81-.99,3.47-1.88,5.64l-.63-.21c1.23-2.15,1.76-4.46,1.88-6.89Z" fill="#f4bb46"/>
        <path d="M52.08,50.57c.33.18.78.86.79,1.18.01.29-.34.51-.37.81-.05.52.06,1.09,0,1.56-.18,1.23-.53,2.45-.83,3.65l-.42-.31c.19-.98.91-3.96.84-4.7-.05-.51-.75-.61-.64-1.45.08-.56.49-.55.63-.74Z" fill="#f09e79"/>
        <path d="M23.45,68.11c.2.51.54.79.21,1.25-.14.2-.77.52-.94.83-.97.22-.25-2.4.73-2.09Z" fill="#a7bb4a"/>
        <path d="M40.39,26.56c.08-.11,1.11-1,1.25-.83.04.97.18,1.82-.83,2.3-.1-.36-1.01-.64-.42-1.46Z" fill="#a8ba49"/>
        <path d="M48.33,45.35c.2.14.28.2.42.42,0,2.89,0,5.78,0,8.67,0,.98.01,1.92,0,2.91-.02,1.46.22,3.68,0,5.01-.16.97-1.69,2.41-2.29,3.25v-19.73c0-.51,1.45-.62,1.88-.52Z" fill="#f5c730"/>
        <path d="M42.9,63.72c.35.09.27.21,0,.42.01,1.05-.36.78-.41.98-.13.53.13,1.31,0,1.8-.06.23-.39.11-.42.14-.14,0-.28,0-.42,0-.15-.42.38-.39.41-.56.12-.54-.12-1.27,0-1.8.03-.13.28-.11.4-.32.07-.13-.05-.45.07-.62.08-.12.34-.03.37-.05Z" fill="#bf6833"/>
        <path d="M45.82,65.39h.42c-.03.97.23,1.11-.42,1.88.05-.7.07-1.35-.42-1.88-.02-.42.23-.33.42,0Z" fill="#aa7f30"/>
        <path d="M44.57,64.14c.36.26,1.23.66,1.25,1.25h-.42c-.27-.29-1.16-.31-.83-1.25Z" fill="#af7239"/>
        <path d="M42.9,63.72c.06-.06-.19-.36.3-.43,1.17-.18.78.16.95.43-.7-.22-.73.29-1.25.42,0-.14,0-.28,0-.42Z" fill="#af7239"/>
        <path d="M16.73,20.67c-.33.19-1.59.11-1.86-.25-.2-.26-.42-1.9-.41-2.32,0-1.61.56-3.99,1.23-5.47.62-1.37,2.04-1.6,2.65-.26.25.55-.97,3.15-1.1,4.11-.12.91.21,3.78-.51,4.18Z" fill="#eecb2e"/>
        <path d="M20.94,18.63c-.85.19-.55-.47-1.04-1.15-.28-.39-.72-.82-1.25-.73l.21,2.29c-1.06.22-1.23-1.41-1.26-2.2-.09-2.97,4.18-.32,3.34,1.79Z" fill="#7b993e"/>
        <path d="M18.86,25.73c.02.34-.03.7,0,1.04h-.42c.03-.84-.28-.92.42-1.04Z" fill="#b87333"/>
        <path d="M19.61,28.66c.9-.15,1.25,2.5.6,2.49-.26,0-1.96-2.26-.6-2.49Z" fill="#a9bc4a"/>
        <path d="M20.98,27.99c-.07-.04-.94-1.15-.97-1.22-.38-.88,2.06-.1,2.19.53.09.42-.91.87-1.22.69Z" fill="#a9bb4a"/>
        <path d="M47.91,84.18c-1.79.77-2.65.06-2.09-1.88,0-.99.22-1.93.65-2.8.1-1.17.23-2.33.39-3.47-.32-.66,1.23-1.35,1.81-1.06,2.2,1.13.53,7.59-.77,9.2Z" fill="#f3c82d"/>
        <path d="M45.61,76.46c.8-.36.97-1.02,1.53-1.4.17-.11.46-.01.6-.08.27-.13.18-.67.96-.34.05.02.79.79.82.84.1.16.04.46.14.7.03.07.31.08.34.22.09.36.08,2.25.02,2.68-.07.47-.34.68-.42,1.04-.28,1.26-.32,1.73-.77,2.88-.29.75.01.79-.91,1.18,1.05-2.29,1.86-5.28,1.45-7.82-.24-1.48-1.88-1.61-2.49-.33.06,1.62-.52,2.47-1.04.63-.09-.02-.17-.12-.21-.21Z" fill="#dd611a"/>
        <path d="M45.82,82.3c-.06-.42.09-.97.01-1.35-.05-.25-.87.11-.64-.53.07,0,.14,0,.21,0,1-.14,1.02-1.54.83-2.36-.02-.08-.79-.57-.41-1.4.81.21.26.45.42.63.43.49.42-.81.63-1.25.41,2.47-.41,4.11-1.04,6.26Z" fill="#cb6721"/>
        <path d="M43.53,64.98c1.01.28,2,1.7.93,2.5-1.1-.34-.97-1.61-.93-2.5Z" fill="#a5be4e"/>
        <path d="M43.94,69.57c-.61.24-2.6-.5-2.08-1.25.59-.85,2.39.99,2.08,1.25Z" fill="#a7bd4c"/>
        <path d="M45.19,79.17c-1.06.04-1.59-1.14-1.46-2.09,1.38-.08,1.31,1.04,1.46,2.09Z" fill="#a7bc4c"/>
        <g opacity=".26">
          <path d="M31.91,56.15s-.06-.02-.09-.02c-.04,0-.07.02-.09.06s-.04.11-.05.2c0,.04-.03.05-.08.05-.01,0-.03,0-.04,0,0,0-.02,0-.03,0,0,0,0-.03,0-.06,0-.03,0-.07,0-.12,0-.05,0-.1,0-.15s0-.1,0-.15c0-.1,0-.19,0-.27,0-.08-.01-.13-.01-.14,0,0,.02,0,.03,0,0,0,.02,0,.02,0,0,0,.01,0,.02,0,.05,0,.07.02.08.05,0,.09.02.16.04.21s.06.08.12.1l2.64,1.1s0,.01,0,.02,0,.01,0,.02c0,.03-.02.06-.08.08l-2.6,1.05s-.07.05-.09.09-.04.12-.05.22c0,.03-.03.05-.08.05-.02,0-.05,0-.07,0,0-.09.01-.19.02-.29,0-.1,0-.19,0-.27s0-.16,0-.27c0-.11,0-.21-.02-.3.03,0,.05,0,.07,0,.04,0,.07.02.08.05.02.17.07.26.14.26.02,0,.04,0,.06,0l1.94-.76-1.91-.78Z" fill="#fdc11f"/>
          <path d="M34.14,54.56c.06,0,.1-.02.12-.06s.05-.12.07-.23c0-.03.03-.04.07-.04.02,0,.04,0,.07,0,0,.09-.01.18-.02.28,0,.09,0,.18,0,.26s0,.17,0,.26,0,.19.02.27c-.03,0-.05,0-.07,0-.04,0-.07-.01-.07-.04-.02-.11-.04-.19-.07-.23s-.07-.06-.12-.06h-2.27c-.06,0-.1.02-.13.06-.02.04-.05.12-.06.23,0,.02-.01.03-.03.04-.01,0-.03,0-.05,0s-.04,0-.07,0c0-.09.01-.18.02-.28s0-.18,0-.26,0-.16,0-.26,0-.19-.02-.28c.03,0,.05,0,.07,0,.04,0,.07.01.08.04.02.11.04.19.06.23.03.04.07.06.13.06h2.27Z" fill="#fdc11f"/>
          <path d="M34.5,52.32c0,.25-.04.47-.12.65s-.18.34-.32.47c-.14.12-.29.22-.48.28s-.38.09-.59.09c-.18,0-.35-.03-.53-.09-.18-.06-.34-.15-.48-.28s-.26-.28-.35-.47c-.09-.19-.14-.41-.14-.65,0-.1,0-.19,0-.27,0-.08.01-.16.02-.23s.02-.15.04-.22.03-.15.06-.22c.08,0,.18-.01.29-.03.12-.02.23-.04.35-.07.01.02.02.05.02.07s0,.05,0,.06c0,.02-.02.03-.05.04-.2.05-.34.14-.42.25-.08.12-.12.28-.12.5,0,.18.03.35.09.49.06.14.14.26.25.36.11.1.23.17.38.22s.32.07.5.07c.2,0,.39-.03.57-.09.17-.06.32-.15.45-.25.12-.11.22-.23.29-.37s.1-.29.1-.45c0-.13-.01-.24-.04-.32-.03-.09-.06-.16-.11-.22s-.11-.11-.18-.15c-.07-.04-.15-.08-.24-.11-.04-.02-.07-.06-.07-.11,0-.01,0-.03,0-.05,0-.02,0-.03.02-.04.1.04.22.07.34.11s.25.07.37.09c.02.15.04.29.06.45.01.15.02.32.02.5Z" fill="#fdc11f"/>
          <path d="M31.74,49.38h2.38c.07,0,.12-.03.14-.08.03-.06.05-.15.06-.28,0-.03.02-.05.07-.05.02,0,.05,0,.08,0,0,.1-.01.2-.02.3,0,.11,0,.21,0,.32s0,.21,0,.32,0,.21.02.3c-.03,0-.05,0-.08,0-.04,0-.07-.01-.07-.04-.02-.13-.04-.23-.07-.29-.03-.06-.07-.09-.14-.09h-2.38v.46c0,.09,0,.16.03.22s.04.11.08.16c.04.04.08.08.14.12.06.03.12.07.2.1.01,0,.03.02.03.03,0,.01,0,.03,0,.04,0,.03,0,.06-.03.08-.11-.03-.2-.05-.29-.07-.08-.01-.15-.03-.21-.04-.05-.01-.1-.02-.13-.04-.03-.01-.04-.04-.04-.06,0-.02,0-.05,0-.09,0-.04,0-.08,0-.12,0-.04,0-.09,0-.13,0-.04,0-.09,0-.12v-1.49s0-.08,0-.12c0-.04,0-.09,0-.13,0-.04,0-.09,0-.12,0-.04,0-.07,0-.09,0-.03.02-.05.05-.06.03-.01.07-.03.13-.04.06-.01.13-.02.21-.04s.17-.04.28-.07c0,.01.01.03.02.04,0,.01,0,.03,0,.05,0,.01,0,.03,0,.04,0,.01-.02.03-.03.03-.07.03-.14.07-.2.1-.06.03-.1.07-.14.11-.04.04-.06.1-.08.16s-.03.14-.03.22v.46Z" fill="#fdc11f"/>
          <path d="M33,48.04c-.2,0-.4-.04-.58-.11s-.34-.17-.48-.3c-.14-.13-.24-.28-.32-.45-.08-.17-.12-.35-.12-.53,0-.26.04-.48.12-.68s.19-.35.33-.48.3-.22.48-.28c.18-.06.37-.09.57-.09.23,0,.44.04.63.12.19.08.34.18.47.32.13.14.23.29.3.48.07.18.1.38.1.59s-.04.4-.11.58c-.07.18-.17.33-.3.45-.13.13-.29.22-.47.29-.18.07-.39.1-.61.1ZM34.29,46.51c0-.14-.03-.27-.08-.38-.05-.12-.13-.22-.22-.3s-.21-.15-.34-.19c-.13-.05-.27-.07-.43-.07-.21,0-.41.02-.59.07-.18.04-.34.11-.48.2-.14.09-.24.2-.32.34s-.12.3-.12.48c0,.12.02.24.07.35.05.11.11.21.2.29s.2.15.32.2c.13.05.27.08.44.08.22,0,.42-.02.61-.07s.35-.12.49-.21.25-.2.32-.34c.08-.13.12-.29.12-.46Z" fill="#fdc11f"/>
          <path d="M33.15,43.59v.33h.98c.07,0,.11-.03.13-.09.02-.06.04-.15.06-.28,0-.04.03-.05.08-.05.02,0,.05,0,.08,0,0,.08-.01.18-.02.29,0,.11,0,.23,0,.34,0,.08,0,.17,0,.27,0,.1,0,.2.02.28-.03,0-.05,0-.07,0-.04,0-.07-.02-.07-.05-.02-.11-.04-.19-.06-.24-.02-.05-.07-.07-.13-.07h-2.27c-.06,0-.1.02-.13.06-.03.04-.05.13-.06.25,0,.03-.03.04-.08.04-.02,0-.04,0-.07,0,0-.09.01-.18.02-.28,0-.1,0-.19,0-.27v-.6c0-.32.07-.56.21-.73.14-.16.33-.24.57-.24.07,0,.13.01.2.03s.14.06.21.1c.07.05.13.11.19.18.06.07.1.16.14.26l1.03-.74c.08-.06.13-.12.16-.19.03-.07.05-.13.07-.19,0-.03.03-.04.06-.04.02,0,.05,0,.08,0,0,.07-.01.15-.02.25s0,.19,0,.27c0,.06-.03.13-.08.19s-.12.12-.2.18l-1.03.71ZM32.96,43.69c0-.21-.04-.37-.13-.48-.09-.11-.24-.17-.46-.17-.09,0-.18.01-.25.04-.08.02-.14.06-.2.11s-.1.12-.13.2c-.03.08-.05.19-.05.31v.22h1.23v-.24Z" fill="#fdc11f"/>
          <path d="M34.14,41.06c.06,0,.1-.02.12-.06s.05-.12.07-.23c0-.03.03-.04.07-.04.02,0,.04,0,.07,0,0,.09-.01.18-.02.28,0,.09,0,.18,0,.26s0,.17,0,.26,0,.19.02.27c-.03,0-.05,0-.07,0-.04,0-.07-.01-.07-.04-.02-.11-.04-.19-.07-.23s-.07-.06-.12-.06h-2.27c-.06,0-.1.02-.13.06-.02.04-.05.12-.06.23,0,.02-.01.03-.03.04-.01,0-.03,0-.05,0s-.04,0-.07,0c0-.09.01-.18.02-.28s0-.18,0-.26,0-.16,0-.26,0-.19-.02-.28c.03,0,.05,0,.07,0,.04,0,.07.01.08.04.02.11.04.19.06.23.03.04.07.06.13.06h2.27Z" fill="#fdc11f"/>
          <path d="M33.39,38.6v.99l.72.28s.07.02.09.02c.06,0,.11-.09.13-.27,0-.02.01-.03.02-.04.01,0,.03-.01.05-.01s.04,0,.07,0c0,.08-.01.16-.02.25s0,.18,0,.26c0,.06,0,.12,0,.18,0,.06,0,.13.02.2-.02,0-.05,0-.07,0-.02,0-.04,0-.05-.01-.02,0-.02-.02-.03-.05-.01-.09-.03-.16-.06-.21-.02-.05-.06-.08-.1-.1l-2.58-1.07c-.05-.02-.08-.05-.08-.08,0-.01,0-.03,0-.05l2.66-1.08s.07-.06.1-.12c.02-.06.04-.12.05-.18,0-.02.01-.03.02-.04.01-.01.03-.02.06-.02.02,0,.04,0,.07,0,0,.1-.01.19-.02.28,0,.09,0,.18,0,.26s0,.18,0,.29,0,.2.02.29c-.03,0-.05,0-.07,0-.03,0-.05,0-.06-.02-.01-.01-.02-.02-.02-.03-.01-.08-.03-.14-.05-.19-.02-.05-.05-.07-.09-.07-.02,0-.04,0-.07.02l-.73.28ZM33.2,38.67l-1.09.41,1.09.43v-.85Z" fill="#fdc11f"/>
        </g>
      </g>
    </g>
  </g>
</svg>