<?xml version="1.0" encoding="UTF-8"?>
<svg id="Layer_2" data-name="Layer 2" xmlns="http://www.w3.org/2000/svg" viewBox="0 0 64 96">
  <g id="Cards">
    <g id="Swords">
      <g id="ElevenOfSwords">
        <g>
          <path d="M3.46,7.91h-1.51V2.22c-.55.52-1.2.9-1.95,1.14v-1.37c.39-.13.82-.37,1.28-.73C1.75.9,2.06.48,2.23,0h1.22v7.91Z" fill="#2a2b2c"/>
          <path d="M7.29,7.91h-1.51V2.22c-.55.52-1.2.9-1.95,1.14v-1.37c.39-.13.82-.37,1.28-.73C5.58.9,5.9.48,6.07,0h1.22v7.91Z" fill="#2a2b2c"/>
        </g>
        <g>
          <path d="M60.54,88.09h1.51v5.69c.55-.52,1.2-.9,1.95-1.14v1.37c-.39.13-.82.37-1.28.73-.46.36-.78.78-.95,1.26h-1.22v-7.91Z" fill="#2a2b2c"/>
          <path d="M56.71,88.09h1.51v5.69c.55-.52,1.2-.9,1.95-1.14v1.37c-.39.13-.82.37-1.28.73-.46.36-.78.78-.95,1.26h-1.22v-7.91Z" fill="#2a2b2c"/>
        </g>
        <g>
          <path d="M13.34,41.78c.19-.05.42-.05.5.11.14.29-1.09,1.71-1.42,1.98-.14.92-.42,1.7-.85,2.34-.17.47-.38,1.18-.62,2.12l-.03,3.38-.23.24.22.22c-.17.61-.09,1.13.23,1.55.82.07,1.79,2.26,2.01,3.08.1,2.11.63,4.12,1.58,6.05l-.05,1.04c.79,1.79.78,3.41.6,5.33-.02,1.01.1,1.66,1.26,1.51l.12.24c-1.7.26-.62,1.26-.89,1.55-.49.11-1.07-.8-1.44-.22-.4,2.26-1.22,4.45-1.43,6.75-.23,2.47-.29,9.45.32,11.6.27.95,1.84,3.49,1.68,4.28-.14.7-2.35.14-2.78.15-.26,0-.42.19-.55.21-.82.08-1.3.11-1.49-.78-.13-.61.1-2.87.6-3.19.06-.32.58-.79.88-.44.05-.5.28-.48.68-.46-.18-.35-.18-.64-.02-.86l-.47-.15c-.49-5.78-.19-11.49,1.48-17.14l.54-.61c-1.16-1.08-2.25-2.24-3.26-3.49l-.28-.71-.28.07c-.53-.9-1.03-1.81-1.49-2.72-.62.49-1.15-.57-.44-.88-.17-.58-.62-.8-1.33-.66-.44.61-1.61-1.01-1.91-1.53-1.5-2.58-1.75-5.01-1.51-7.94.58-7.12,3.43-9.56,9.75-12.08.07-.03.18.03.3.12Z" fill="#6d523e"/>
          <path d="M52.45,67.86c-.19,1.73-1.21,3.65-1.12,5.41.09,1.69,2.09,4.01,2.38,6.03.22,1.55-.15,3.34.05,4.81.08.62.51.99.62,1.59.66,3.51-1.17,2.61-3.7,2.6l2.87,7.18c-.61.07-1.29.45-1.89.46-.65,0-1.01-.44-1.27-.42-.74.07-2.28,1.14-2.97-.17.32-1.96.66-3.96.83-5.94.47-5.69-.68-9.24-1.1-14.59-.09-1.15.23-3.24,0-4.16-.05-.21-.73-.33-1.01-.58-.56-.5-.74-1.23-1.49-1.6-1.09-.53-2.81-.6-3.91-1.06-1.22.46-.8-1.08,0-.66.7-.31,2.46.11,3.28.4,1.32.46,1.97.8,2.74,2.04l1.05.58c2.18,3.64,3.86,8.77,2.61,13.03l2.52.76.19.64-.44-.54v-4.34l.44-.32c-.16.01-.37.02-.45-.1-.25-.37-2.51-5.35-2.48-5.65.02-.22.12-.4.28-.54-.22-.76-.07-1.57.44-.66l.79-5.93.53-.26c.12-.05.23-.09.31-.05.13.05.06,1.73-.09,2.04Z" fill="#624a38"/>
          <path d="M27.04,65.65l.42.55c-.16,1.01-.35,1.79-.86,2.55-.22.99-.69,1.84-.68,2.98.02,5.37,7.8,5.63,8.93,10.32.43,1.77-.04,3.27-.08,4.92-.02.92.91,2.89-.77,3.21-2.45.47-4.88-1.49-4.52-4.06.12-.81.73-1.01,1.05-1.62,1.29-2.44-.26-2.23-1.72-3.48-3.42-2.93-4.44-5.19-6.67-8.8-.51-.83-1.33-1.45-1.73-2.36-.08-.59,0-.62.44-.22.81.05,1.45.65,1.93,1.79,1.88,4.12,4.78,7.88,8.72,10.17.75.7.77,1.73.08,3.07,1.29.19,2.2.7,2.76,1.55-.35-.17-.38-.3-.44-.62-.13-.65-.14-3.23.44-3.47h-.49c-1.28-2.11-3.16-3.75-5.64-4.93-1.96-1.31-3.25-3.01-3.32-5.42-.02-.85.88-4.86,1.23-5.62.11-.23.29-.35.49-.49,0-.52.3-.5.44,0Z" fill="#624a39"/>
          <path d="M30.79,5.98l.21-.2c1.07.18,2.1.32,3.11.42.02.88.79,1.24,1.16,2.05.48,1.06.74,2.36,1.05,3.48,1.3.87,1.45,1.46.44,1.77-.08.66-1.62.99-1.99.44-.77,0-1.29-.14-1.55-.44-.2.43-.46.43-.66,0-.51-.25-.74-.89-.68-1.91-.79-.69-.74-1.38-.48-2.32l-.91-1.28c-.46-.7-.76-1.92.3-2Z" fill="#d89c2f"/>
          <path d="M60.85,21.67c-.7.06-1.14-.09-1.33-.44-.25.05-.54-.03-.87-.24-.49,1.24-1.2,1.19-2.13-.17-.95.75-2.62,1.6-3.63.86.09.58-.01.62-.44.22.07.6-.15.82-.66.44-.13.58-.29.57-.44,0-.69-.7.28-1.29,1-1.52,1.78-.04,2.74-.64,2.86-1.78,1.98-.84.31-.79-.87-.6-2.07.76-4.17,1.33-6.31,1.71l-.44-.23c-.65.34-.59-.1.02-.44l1.75-.67c.55-.11,1.12.18,1.54-.55-.93-.76-1.09-1.57-.71-2.7.93-2.78,2.7,1.65,3.51,1.91.32.1,1.22-.2,1.73-.22.45-.02,1.04.24,1.3.19.42-.08,1.17-1.7,1.35-2.16.13-.34.04-1.47.66-1.33.91.7,1.31,1.85,1.23,2.98-.04.49-.42,1.13-.35,1.47.16.69,2.22,2.27,1.22,3.29Z" fill="#634a38"/>
          <path d="M54.88,45.98c-.76-.58.45-1.82.66-.22.06.93.26,1.86.23,2.77-.07,2.35-1.28,3.89-.13,6.3,1.28,2.68,2.97,3.79,2.32,7.38-.32,1.74-1.87,1.24-2.99,1.65-.51.19-1.44.98-2.08,1.34-.21.82-.43.97-.66.44-.75.89-2.39-.16-3.09-.88-.43.32-1.57-.35-1.55-.88-1.42-.43-2.53-1.09-3.31-1.99-.44.49-.62.31-.88-.22-.16.24-.4.46-.74.65l-1.36,4.29-.56.14c-.08.16-.43.14-.44.33,0,.07.36.29.44.33l-3.54,1.99c-.42.31-.57.31-.44-.22-.19-.06-.19-.14,0-.22l.07-.5c1.27-.56,2.68-1.35,3.11-2.76l1.18-3.62c1.03-2.27,3.59-1.2,5.23-.26,1.76,1.37,3.64,2.22,5.62,2.54,1.45-.93,3.02-1.58,4.7-1.93,1.24-2.13-.31-4.68-1.7-6.39l.12-.56c-.32.31-.47.17-.22-.22-.66-.22-.93-.88-.82-1.98.3-2.45.57-4.88.82-7.3Z" fill="#aa3226"/>
          <path d="M29.47,2.23C30.2.44,33.61-.01,35.33,0c1.04,0,4.27.56,4.53,1.68s-.6.76-1.17,1.2c-.35.27-.39.83-1.04,1.02s-.94-.14-1.46-.14c-.3,0-.51.23-.54.23-.25.37-.53.19-.44-.22-1.59-.56-3.24-1.02-4.94-1.07l-.14-.25-.66-.22Z" fill="#efc833"/>
          <path d="M14.22,40.9c.4.45-.37,1.31-.88.88-3.29,1.92-7.58,2.91-8.83,7.2-1.17,4.01-1.77,9.74.98,13.14.27.34.77,1.1,1.22,1.1.51.14.29.73-.22.66-4.57-3.24-4.08-10.4-2.44-15.14,1.54-4.46,6.14-6.18,10.17-7.84Z" fill="#5f4c3d"/>
          <path d="M60.85,21.67c-.26.26-.29.14-.66,0-.03.77.04,1.55,0,2.32-.06,1.12-.25,2.6-.17,3.7.12,1.58,1.84,3.98.27,5.68-1.1,1.2-3.58.38-3.75.66l-.55,5.98c-.12.45-.76.25-.66-.22l-.39-.48c.47-2.91.94-6.28-.27-9.03l.22-.44c.03-.59.23-.55.44,0,.68-.54,1,.3,1.16.94-.29,3.2,4.13,3.23,3.28.02l-.66-2.81.42-.35-.39-.29c.22-.56.23-1.11.17-1.7-.05-.2.02-.27.22-.22.17-1.34.17-2.52,0-3.54-.59-.21-.58-.43,0-.66.21.1,1.02-.04,1.33.44Z" fill="#684c39"/>
          <path d="M42.51,36.48l.45-.24c3.07,1.48,6.35,2.41,9.85,2.8l.52.53c.1-.62.45-.58.66,0,.52-.53,1.01-.44,1.33.22.08.01.41.16.66.22,1.3.3,2.78.36,3.21,1.98.69,2.56-1.77,2.36-3.43,2.44-.36.6-.65.6-.88,0-.19-.06-.19-.14,0-.22.52-.09,1.1-.16,1.77-.22l.1-.29c2.86-.39,1.1-2.74-1.02-2.7-4.77-.3-9.12-1.4-13.5-3.48l-.38-.6c-.26.23-1.32.32-1.55,0-.71-.95,2.07-1.42,2.21-.44Z" fill="#af3126"/>
          <path d="M6.71,63.22c.36-.71,1.73-.33,1.33.66-.06.21-.2.29-.39.31l-2.4,9.68c0,.23,1.33-.67,1.63-.89l.5.18c-.23-.4.01-.63.44-.44,1.31-.95,2.85-1.6,4.63-1.95l.46.18c.37-.4.91.41.44.66-.13,1.29-2.83,1.65-3.76,1.1-.07.62-.19.54-.44,0,.02.21-.2.36-.66.44-1.21.66-4.75,3.73-4.37.61.33-2.67,1.62-7.18,2.38-9.89.03-.1.21-.63.22-.66Z" fill="#ae332e"/>
          <path d="M22.18,38.91c.94-.27.92.87.44,1.33-.14.58-.27.57-.44,0-4.97-.85-8.99,1.69-9.9,6.77-.17,2.16-.43,4.28-.8,6.37l-.36.33s-.32-.08-.4-.37c-.13-.43-.03-.95-.04-1.4l.15-.4c-.11-1.76.13-3.54.73-5.35.33-.64.32-1.79.45-2.49.06-.31,1.79-1.1,1.32-1.93.39-.23.79-.8.88-.88,1.06-.96,1.77-1.03,3.09-1.33.38-.62.67-.7.88-.22.2-.68,1.78-.8,2.52-.82.85-.23,1.33-.1,1.46.38Z" fill="#ab3727"/>
          <path d="M14.66,63.88c.59-.14,1.18.81.88,1.33.6.07.57.25,0,.44l.48.54-.05,3.9c.84-.22,1.65-.37,2.44-.47.1-.62.48-.66.88-.22l.16-.55c1.22-1.03,6.6-5.05,7.98-4.5.21.08.37.22.48.42.45-.12.46.33.22.66-.06.2-.27.1-.44,0,.05.61-.23.66-.66.22-.13.03-.32-.04-.44,0l-.28.56c-1.82.82-3.45,1.99-4.88,3.51l-.59-.1s-.39.2-.44.22c-.79.31-2.99,1.08-3.76,1.1-2.59.07-1.27-2.87-1.54-4.76-.1-.73-.74-1.38-.45-2.31Z" fill="#ae3427"/>
          <path d="M16.43,4.22c.6.39.79.66,0,.44-.07.19-.15.19-.22,0-.82-.52-.23,1.97-.09,2.22,2.14,3.63,4.17,7.32,6.2,11.02.18.34.31.71.43,1.08s.22.76.31,1.15c-.16.3-.45.15-.88-.44-.63.2-1.36-.83-.88-1.33-.59-.15-.73-.37-.44-.66-1-1.81-5.56-9.5-5.75-10.83-.2-.52-.4-3.02.2-3.13.08-.01.16,0,.24.04.42.3.57.28.88.44Z" fill="#2d73a1"/>
          <path d="M9.58,72.72c.96.87,1.09,3.1,1.15,4.46-.49,4.24-.28,8.38.6,12.41.02.59-.13,1.84-.86,1.25-.29-.71-.44-1.52-.44-2.43-.79-4.61-.09-7.68-.44-12.15l-.37-2.91c-.33-.35-.36-.56-.07-.62.13-.03.32.03.44,0Z" fill="#6d523e"/>
          <path d="M38.31,13.28c.08.06.27-.05.19.29-1.25,1.55-.66,1.03.13,2.16,2.35,3.36,1.32,6.45,2.96,9.64.17.33.43,1.05.92.96.11.38-.63.87-.88.44l-.62-.13c-1.04-2.26-1.67-4.68-1.89-7.27-.32-1.24-1.11-3.66-2.44-3.71l-.34-.38c-.81-.64.16-1.47.88-1.77,0-.44.36-.51,1.1-.22Z" fill="#799448"/>
          <path d="M18.2,24.99c.49-.34.71-.06.44.44.39,1.04.35,2.21-.13,3.51.07,3.3.14,6.6.22,9.91l-.53.51c-.3.05-.59.15-.88.22,1.03-2.14.13-4.39,0-6.52-.16-2.78.12-5.39.88-8.06Z" fill="#829a52"/>
          <path d="M30.13,66.54c.59.09.56.26,0,.44.26.88.51,1.75.75,2.63-.38.27-.38-.14.13.02l.39.41c-.7,3.63,2.83.71,3.92-.47l.55.06c.33-.8.62-.95.88-.44.02,0,.29.25.44.22-.94.95-4.34,3.8-5.6,3.71-2.02-.16-.77-3.06-1.53-3.87-.25-.26-2.07-.77-2.59-.94-.38-.17-.41-.34,0-.44.15-.52.9-.79,1.33-.44l.62.46c-.19-.61-.1-1.06.26-1.35.09-.42.23-.35.44,0Z" fill="#ceaa42"/>
          <path d="M25.93,5.98c-.53,1.07-.66,2.26-.39,3.59-.33,1.45-.63,2.86-.61,4.34.69-.49,1.95-.63,1.66.47,1.2.38-.8.86-1.55.66-.03.34-.32.26-.88-.22-.19.45-.48.57-.66,0-.6.13-1.09-.42-.66-.88l.66.33c-.24-.8-.8-2.47-.34-3.22.18-.3,1.07,0,1.2-.23.1-.17-.08-.61.08-.81.09-.11.39-.03.39-.05v-3.31s.3.08.43-.17c.29-.56.56-1.17.46-1.82.06-.19.14-.19.22,0,.03.43.13.83.3,1.19l-.3.14Z" fill="#f1f2ea"/>
          <path d="M20.85,17.7c.08.15.26.34.44.66l-.4.41c-4.29-.16-2.57,5.07-.48,6.86l-.23.47c.48-.04.7.32.66,1.1.61.1.57.44,0,.66-.38,1.31-1.24.08-1.35-.84-.49-.47-.76-.9-.86-1.59-.21-.25-.42-.41-.44-.44-.3-.49-1.02-2.42-1.08-3.01-.12-1.19.31-3.41,1.53-3.95.69-.31,1.53.11,2.21-.34Z" fill="#caa93b"/>
          <path d="M21.29,11.07c.22.55.47,1.11.88,1.55.24.45.38.83.66,1.33.18.31.18.66.66.88,0,.36-.08.42-.44.44-.06.19-.14.19-.22,0-.14.13-.3.16-.46.08l-5.03-9.2c-.66-.5-.97-1-.92-1.49l.21-.11-.21-.33c.53.28.81.26,1.29.81.98,1.12,2.7,4.54,3.57,6.04Z" fill="#59819d"/>
          <path d="M35.21,3.77c.12.02.32.21.44.22.29,1.17-.82,1.52-1.55,2.21-.12.12-.21.44-.36.45-.38.01-2.09-.6-2.95-.67-.74.62-2.82.66-3.54,0l-.58-.06c-.8.75-.75-.62-.52-1.26-.19-.06-.19-.14,0-.22.34-.18.64,0,.91.53,1.86.18,3.75.26,5.65.23.24-.56.91-.78,2.02-.65-.29-.25-.39-.41-.18-.78.01-.25.23-.25.66,0Z" fill="#c04c23"/>
          <path d="M49.36,18.8c-.46.48-1.48.38-1.88.88-.07.09.12.21.11.22v.68c-1.45,2.48-3.14,4.76-5.06,6.85l-.69-.02c-.21.15-.46.06-.44-.22-.55-.39-.42-.65.22-.44.25-.17.56-.16.88-.44,2.82-2.48,2.02-6.54,6.85-7.51Z" fill="#655343"/>
          <path d="M55.77,44.44c-.51.45-.26.78-.22,1.33-.24-.32-.18-.56-.66-.44-.05.18.06.56,0,.66l-.16,1c-.23.42-4.42,4.97-4.76,4.91-.18-.03-.3-.22-.39-.39-.34-.17.16-.51.44-.66l-.16-.58c1.7-1.77,3.2-3.64,4.48-5.61l.54-.22c.29,0,.59.01.88,0Z" fill="#e7962d"/>
          <path d="M10.46,90.84c.58-.12.65.02.22.44.06,1.16-1.01,3.85.88,3.98-.64.12-1.23.51-1.99,0-.3-1.37-.23-2.96.44-4.2.04-.85.02-1.74,0-2.65.14.82.35,1.59.44,2.43Z" fill="#b2a397"/>
          <path d="M29.47,2.23c.24,0,.56-.07.66.22l-.06.24c-.46-.03-.56-.04-.82.2-1.01.46-2.16.61-3.44.46.43.37.55.73.34,1.08v.22c-.06.19-.14.19-.22,0-.07-.02-.18.03-.22,0-.14-.08-1.04-.91-1.08-1.04-.56-1.86,3.74-1.43,4.83-1.39Z" fill="#bc5f4c"/>
          <path d="M9.58,95.26c-.73-.49-.76-3.82.44-4.2-.07,1.43-.27,2.79-.44,4.2Z" fill="#ebe8e4"/>
          <path d="M27.7,65.43l.44.22c.58.32-.08,2.04-.66,2.21,0,.15,0,.29,0,.44-.22-.07-.45-.11-.66-.22l-.22.66c.22-.99.42-2.07.44-3.09.2-.05.44-.15.66-.22Z" fill="#ead6b3"/>
          <path d="M36.32,11.73c.76.03.99.83,1.41,1.25.1.1.38.14.58.3-.36.13-.73.17-1.1.22-.18.33-.4.41-.44,0-.22-.52.77-.37.44-.88-.07-.12-.65-.09-.88-.89Z" fill="#bd9e55"/>
          <path d="M9.14,72.72c.36,1.11.35,2.38.44,3.54-.41-.73-.36-1.74-.45-2.55-.07-.65.18-.59-.66-.55.15-.08.07-.29.66-.44Z" fill="#92674e"/>
          <path d="M15.55,3.77c-.66.37-.54,2.37-.44,3.09-.27-.76-.71-2.69,0-3.21.41-.3.34.04.45.12Z" fill="#59819d"/>
          <path d="M52.45,67.86c.07-.58.12-1.52-.22-1.99-.19-.06-.19-.14,0-.22.53-.03.48-.34.66-.44-.18.84-.07,1.95-.44,2.65Z" fill="#6e4b36"/>
          <path d="M22.18,12.61c-.53-.29-.76-.98-.88-1.55.29.5.6,1,.88,1.55Z" fill="#f1f2ea"/>
          <path d="M11.13,53.72c-.41-1.06.26-2.06.41-3.23.45-3.38-.17-4.27,1.83-7.23,1.13-1.67,2.03-2.8,4.1-3.19,1-.19,2.9-.41,3.94-.49,1.29-.1.55.35.76.66.11.07.2.15.21.23.08.77-1.21,3.33-1.97,3.53-.3.63-.59,1.36-.66,1.99.39.22.23.53-.22.44-.91,2.3-1.69,4.65-2.35,7.03l-.3.26c-.33,1.19-.77,2.34-1.5,3.35l-.27-.03c-.19.22-.52,1.04.22,1.32,3.96-.36,7.47.26,11.34,1.02.13.07.86,2.67.37,2.75l-.24.18c-.7-.91.39.85.9.7.46.18.74,1.49.22,1.77-3.67.06-5.63,3.11-8.62,4.64-.3-.14-.6-.07-.88.22-.03.01-.14.31-.38.39-.82.28-1.6.61-2.5.5-.1-1.58.14-3.31,0-4.86.2-.17.21-.32,0-.44-.33-.38-.59-.63-.88-1.33-.49-1.15-.93-2.34-1.4-3.46-.53-1.29-.21-1.64-.42-3-.13-.87-1.26-2.79-1.72-3.7Z" fill="#ef4b29"/>
          <path d="M13.78,71.62c-.33,2.51-1.27,4.89-1.54,7.41-.23,2.09-.35,8.6,0,10.49-.12.6-.34,1.04-.66,1.33-.31.11-.58.32-.88.44,0-.11-.21-.32-.22-.44.64.13.46-.36.45-.77-.05-1.82-.9-3.86-.91-5.75-.02-2.75.49-5.26.21-8.15-.11-1.11-.46-2.34-.63-3.45.99-.28,1.89-.27,2.72-.45.06-.01.49-.51,1.04-.66.11-.43.31-.43.44,0Z" fill="#92674e"/>
          <path d="M7.37,73.17c-.43.33-1.66,1.16-2.14,1.28-.33.09-.59.17-.51-.29l2.66-10.72.66.44c.04.4.12.63.44.88.53,1.05,1.12,2.08,1.77,3.09.74,1.07,1.65,2,2.73,2.79l-.08.3c-.81.81-2.15.69-3.1.99-.65.2-1.21.84-1.98.78-.19-.42-.34-.27-.44.44Z" fill="#eb4a2f"/>
          <path d="M13.78,71.62c-.14.02-.32-.03-.44,0,.03-.44-.2-.47-.44-.66-.96-.78-2.44-1.81-2.65-3.09-.34-.08-.39-.4,0-.44.41.57,1.26,1.58,1.76,2.11.62.66,1.84,1.01,1.78,2.09Z" fill="#7e3e29"/>
          <path d="M8.47,64.77c.72.58.17.29.49.83.07.13.49.16.64.36.18.25.35,1.05.65,1.46.02.14-.02.3,0,.44-.48.1-.48-.26-.66-.55-.47-.78-1.14-1.6-1.11-2.54Z" fill="#874027"/>
          <path d="M11.57,46.2c-.06.51.11,1.14,0,1.62-.04.18-.4.06-.45.47-.11.83.05,1.99.02,2.9-.01.43.23.89-.44.76-.07-1.73.04-3.98.44-5.6.06-.23.44-.12.45-.14Z" fill="#ab362a"/>
          <path d="M12.23,89.52c.02.1.59.46.43.97s-.85.26-1.09.35c-.04-.62-.13-1.34.66-1.33Z" fill="#9a7e6a"/>
          <path d="M43.39,61.67l.48.32c-.15.86.83,1.43,1.57,1.64,1.41.32,3.71.88,4.2,2.46.56,2.15.75,4.46.83,6.63.42,1.49,2.65,5.41,2.65,6.3v5.19c-.45-.53-3.26-.93-3.32-1.22.81-1.79.77-3.8.42-5.71-.2-1.06-1.79-6-2.3-6.76-.42-.62-.99-.59-1.44-.99-.52-.45-.58-1.06-1.38-1.5-1.34-.74-3-.63-4.35-1.28.59-1.13.84-2.77,1.25-3.83.34-.88.18-1.3,1.4-1.25Z" fill="#92674d"/>
          <path d="M53.78,87.75c-1.75.17-4.15-.05-4.59-2.15-.52-2.52,1.64-1.85,3.16-1.17,1.84.83,1.44,1.45,1.43,3.32Z" fill="#6f5340"/>
          <path d="M48.03,95.26c.18-.5.55-3.39.69-3.5.1-.08,2.51-.45,2.62-.38.28.17,1.42,3.42,1.23,3.67-.43.57-1.68-.02-2.23-.01-.7.01-1.53.41-2.32.22Z" fill="#6f533f"/>
          <path d="M48.03,72.28c.22.22,1.71,5.43,1.77,6.08.13,1.41.2,3.4-.77,4.53-.59-3.25-1.11-6.54-1.43-9.84-.02-.23-.04-1.24.44-.77Z" fill="#8f674f"/>
          <path d="M52.23,65.65v.22c-.45,1.26-.46,5.39-1.33,6.19l-.33-.1c-.23-1.98-.54-3.94-.94-5.88-.39-.49-.55-.93-.5-1.32.71.29,2.43.92,3.09.88Z" fill="#90674e"/>
          <path d="M44.27,61.9c.83.89,1.93,1.55,3.31,1.99.51.34,1,.66,1.55.88,1.77,2.02,1.05,4.88,1.77,7.29-.08.07-.64-.25-.44.66-.64-2.26-.51-4.32-1.09-6.53-1.37-2.92-5.54-1.16-5.98-4.52.53.02.51.09.88.22Z" fill="#6e4b36"/>
          <path d="M50.9,90.84l-2.21.22.22-4.2c1.8.45,1.22,2.63,1.99,3.97Z" fill="#8e6750"/>
          <path d="M26.6,65.65c-.18,2.96-2.14,5.28-.83,8.23,1.48,3.31,5.83,4.06,7.77,6.81.13.18.79,1.34.79,1.42v4.09c-1.12-.32-2.08-1.25-3.32-1.11-.24-.23.96-2.06.56-2.87-.1-.21-2.48-1.65-3-2.1-1.29-1.13-3.67-3.93-4.56-5.38-1.02-1.68-1.59-3.68-3.17-5.12,2.08-1.6,2.84-3.06,5.75-3.98Z" fill="#92684d"/>
          <path d="M30.49,85.56c1.07-.33,3.68.91,3.84,2.3.22,1.96-.66,1.98-2.31,1.43s-2.72-3.36-1.53-3.73Z" fill="#6f543f"/>
          <path d="M27.26,5.98c1.12-.02,2.44-.08,3.54,0-.95,1.4.92,2.41,1.04,3.24.05.34-.24.8-.17,1.29s.53.62.63.94c.16.55.05,1.26.26,2.06.36.16.78.91.88,1.33.3-.32.43-.18.22.22.58-.1.63,0,.22.44.55.06.4,1.7.04,1.9l-3.2.03c-.35.58-1.59.42-2.15.05-.14.79-2.1.17-2.3-.26-.23-.52.15-1.24.75-1.06-.03-.32.11-.53.44-.66.04-.38.56-.66.88-.44l.43.44c-.03,1.51.45-.41-.43-.66-.25-.14-.31-.46-.18-.95-1.09-.7-1.63-2.03-1.88-3.27-.1-.5-.34-2.42-.35-2.89,0-.23.19-.39.36-.5-.66-.94-.17-1.59.95-1.23Z" fill="#e3b38a"/>
          <path d="M36.76,13.5c.14-.02.3.02.44,0,0,.56-1.22,1.39-.88,1.77-.41.07-.87-.01-1.36-.24-.5.09-.93.1-1.29.02-.06-.09-.16-.14-.22-.22-.3-.43-.35-.51.22-.44-.24-.63.75-.82,1.1-.44.57-.19,1.38-.34,1.99-.44Z" fill="#96963f"/>
          <path d="M33.23,13.5c.64,0,1.76-.25,1.55.44-.22.07-.98.35-1.1.44-.49.31-1.08-.74-.44-.88Z" fill="#ecdea6"/>
          <path d="M33.23,13.5c-.04.39.04.77.44.88-.08.05-.13.33-.22.44-.51-.63-.58-.18-.88-1.33.22,0,.44,0,.66,0Z" fill="#b99469"/>
          <path d="M47.59,19.91c.94-.72,2.17-.48,3.15-.72s2.59-1.03,3.65-1.22c.46-.08,1.71-.17,2.06.05.43.27-.12.91-.01,1,.04.03.61-.04,1.01.21.34.22.34.59-.01.67-.74.17-1.29-.6-1.87-.88.34,2.9-3.82,1.19-4.2,3.31.41.11.47.75,0,.88.26.43.22.74-.1.94l-2.48,1.68c.09,2.39-.94,4.32-3.11,5.81l-.24.57c-.24,1.6-1.15,4.21-2.9,4.25-.46-.11-2.04-.16-2.21.44-.46.36-1.72.32-2.21,0,0,.26-.14.41-.44.44-.36.16-.69.34-.99.52l-.55-.3c-.71.15-1.84-.61-1.99-1.33-.26-.15-.28-.32,0-.44l.13-.26c.61.35,1.15.36,1.64.04.01-1.25.33-1.82.95-1.72l.38-.49c-.6.32-.99-.62-.88-1.1-.39-.05-.42-.36,0-.44-.3-.29-.3-.44,0-.44.39-.16.8.03,1.22.56-.62-.71-1.1-1.41-1.44-2.11-.2-.06-.19-.14,0-.22-.22-.45.41-.55.66-.22l.43-.08c.54.85.84,1.02.89.52.1-.33.39-.33.88,0,.74-1.48,1.7-2.29,2.87-2.43,2.93-2.25,3.31-4.72,5.75-7.51Z" fill="#6f533f"/>
          <path d="M52.89,21.67c.75-.21,1.4-.13,2-.32.86-.27,1.66-2.1,2.64.1.67.22.57-.88.78-.9,1.11-.11,1.13.64,1.2.68-.04.2.05.51,0,.66.19,1.14.19,2.32,0,3.54-.06.08-.14.15-.22.22l-.39.41c-.37.15-3.47.71-3.66.61-.38-.21-1.96-2.51-1.25-2.79.1-.65.66-.59.88,0,.94-1.16-.36-1.75-1.33-1.1-.48.37-1.01-.8-.66-1.1Z" fill="#93674d"/>
          <path d="M53.56,22.78l.32.11c-.12.36-.07.62.12.78.19.07.19.15,0,.22.05.68.86,2.22,1.48,2.4.5.15,2.71-.86,3.82-.64.94.19.23,1.65.22,1.99l-.12.49c-1.47.2-2.67.77-3.58,1.71h-.5c-.1-.03-.31.03-.44,0-.56.39-1.59-.45-1.33-1.1-.3-.45-.3-.67,0-.66-.15-.84-.45-1.73-.88-2.65-.26.02-.4-.13-.44-.44-.49-.39-1.23-1.14-.88-1.77-.04-.13-.03-.72,0-.88.13-.03.36.04.44,0,.27.19.5.05.66-.44.14-.06.31-.18.44-.22.05.39.58.87.66,1.1Z" fill="#b02d24"/>
          <path d="M59.08,15.05c.87,2.07.63,3.08-1.76,2.87l1.3-2.55.46-.32Z" fill="#765844"/>
          <path d="M53.11,17.92c-.47-.09-1.01.26-1.43.22-1.39-.13-1.15-2.88-.67-2.87.17,0,2.3,2.46,2.1,2.65Z" fill="#84634b"/>
          <path d="M52.45,21.9c.25.6.37,1.34.62,1.92.19.43,1.93,3.03,1.81,3.16-.23.24-.84-.5-.98-.68-.82-1.05-1.55-2.73-2.11-3.96.13-.07.23-.25.66-.44Z" fill="#de473b"/>
          <path d="M37.2,42.23l.31.06c1.85,4.33,5.72,7.2,9.5,9.54l-.06.46c-4.54,6.05,7.05,5.49,2.25-.25-.14-.27.08-.43.37-.53.5.02.59-.31.84-.59,1.1-1.24,3.79-3.7,4.46-4.93,1.01,2.98-1.22,6.48,0,9.28-3.2,5.78-6.74,5.02-12.19,2.52-3.75-.89-4.63.86-6.08,3.88-.52.97-1.83,1.5-2.73.9l-.29-.41c.3-3.67.79-7.31,1.49-10.94l.34-.36c.75-2.76.97-5.72.66-8.88.19-.45,1.14-.32,1.11.26Z" fill="#ee4b29"/>
          <path d="M36.76,68.97l-.29-.03c-.17-1.06-.95-1.59-2.32-1.58-.4-.33-.72-4.08-.55-4.21.08-.07.18-.11.29-.14l.21-.25c1.17.23,2.04-.19,2.63-1.25,1.57-3.62,2.83-4.66,6.91-3.42,2.48,1.43,4.9,1.89,7.28,1.38,1.55-1.18,2.95-2.5,4.19-3.97,1.38,1.76,2.73,3.55,2.41,6.06-.25,1.95-1.47,1.32-2.79,1.85-2.02.82-1.91,2.15-4.85.97-2.08-.84-5.18-3.74-7.43-3.08-1.33.39-1.66,4.22-2.49,5.47-.62.93-2.15,1.87-3.19,2.22Z" fill="#ed4c2c"/>
          <path d="M34.55,45.98c.51.09.47.44,0,.66l.45.11c.42-.41.71-.45.87-.11.14.07.25.15.26.23.1,1.36-.22,2.75-.7,3.96-.47,3.75-1.5,8.02-1.55,11.71.42.12.42.32,0,.44,0,.53.2,3.83.32,3.99.27.38,1.18.08,1.67.31.34.16.95,1.23.88,1.66v.22c-.35.03-.63.23-.88.44-.22-.24-.32-.62-.3-1.15-2.28-.23-2.39-.94-2.42-3.05-.29-.99-.49-2.05-.38-3.09.33-3.25.73-6.5,1.33-9.72.68-2.34.44-4.3-.7-5.9l.04-.51c-.03-.29.42-.33.66-.22.03-.6.25-.57.44,0Z" fill="#e4a02c"/>
          <path d="M54.88,55.27c.05.11.17.15.22.22-1.44,1.79-2.67,4.32-5.21,4.62-3.49.42-6.53-3-10.04-2.09-2.8.73-2.18,5.86-5.96,4.98,0-.15,0-.29,0-.44.65-.36.95.2,1.67-.21,1.65-.94,1.49-3.91,3.81-4.81,4.28-1.65,8.55,4.14,12.42.93l3.09-3.21Z" fill="#c22616"/>
          <path d="M44.27,61.9c1.34.45,2.19,1.23,3.31,1.99-.9-.33-2.63-.4-3.2-1.11-.14-.17-.55-.77-.12-.88Z" fill="#9e5947"/>
          <path d="M30.13,2.45c1.5-.07,3.97.26,5.08,1.33-.21-.03-.46.03-.66,0l-.44.37c-1.48-.38-2.97-.65-4.49-.8l-.38-.46c-.14-.66.33-.42.88-.44Z" fill="#c05215"/>
          <path d="M51.35,23.22c.16.58.99.7.88,1.77l.19.22c-.17,1.22.21,2.4,1.14,3.53.38.4,1.1.85,1.33,1.1,1.16,1.32,1.01,5.2.88,6.96-.07.94-.34,2.03-.44,2.99-.44-.07-.89-.15-1.33-.22-.23-.36-.45-.36-.66,0-3.86-.63-5.93-.98-9.65-2.39-.36-.14-1.09-.68-1.18-.7.88-.73,1.65-1.59,2.08-2.67.27-.67.27-1.81.7-2.4.84-1.15,2.52-1.69,2.92-3.71.13-.67-.1-1.45.16-2.05.29-.64,2.68-1.35,2.98-2.43Z" fill="#93674c"/>
          <path d="M59.52,27.64c-.05,1.7,2.47,5.84-1.24,5.94-3.01.09-1.44-3.14-2.96-3.73.63-1.45,2.81-1.81,4.2-2.21Z" fill="#92674e"/>
          <path d="M59.52,21.9c.65-.13.45.34.44.77,0,.68-.06,2.26-.44,2.77.24-.92-.39-2.03-.38-2.81,0-.37.31-.5.38-.72Z" fill="#634a38"/>
          <path d="M56.65,43.99c-4.99.18-11.9-1.34-16.26-3.84-.84-.48-2.61-1.85-2.3-2.79l.37-.24c1.23.13,2.36.06,3.38-.21,3.16,1.06,5.15,2.39,8.79,3.04,1.73.31,6.75.35,7.67,1.61.49.67.44,1.95-.33,2.32-.41.2-.89.11-1.33.11Z" fill="#ed4a2a"/>
          <path d="M38.09,36.92c.59.06.56.28,0,.44,1.51,4,14.65,6.64,18.56,6.63-.37.39-1.21.22-1.77.22-.68.05-1.36.16-2.03.31l-.18-.31c-.32.34-.53.34-.93.33-2.78-.05-8.47-2.26-11.03-3.4l-.63-.69c-.56.09-.93-.41-1.1-.88-.52.21-1.87-1.58-1.33-1.99-.19-.06-.19-.14,0-.22.09-.06-.27-.37.44-.44Z" fill="#b03120"/>
          <path d="M40.08,40.46l.74.61c.1,2.01,5.24,7.46,6.98,7.54.73.04,3.68-3.53,4.29-4.27l.59-.13c.69.06,1.5,0,2.21,0v.22c-.28.41-.77.56-1.49.45l-2.68,3.17c-2.47,2.48-2.87,2.49-5.71.52-3.08-2.15-4.4-4.53-6.17-7.8l.13-.54c-.42-.14-.34-.47,0-.66.12.13.83.25,1.1.88Z" fill="#d2a235"/>
          <path d="M54,39.58c-.21-.03-.46.03-.66,0l-.77-4.64c.59.06.68.92.83,1.38.32,1.03.57,2.18.61,3.26Z" fill="#704a33"/>
          <path d="M41.84,36.92c.12.67-.34.43-.76.44-1,.03-2-.02-2.99,0-.04-.1.03-.31,0-.44.68-.07,1.5.01,2.21,0s.57-.33,1.55,0Z" fill="#d15236"/>
          <path d="M7.37,73.17c-.79-.69.21-1.13.39-1.93.1-.46.04-.93.05-1.39.56-.18.66.58.64.97-.02.4-.53,1.75-.64,1.9-.19.26-.2.25-.44.44Z" fill="#c82517"/>
          <path d="M18.64,25.43c.2.24.99,1,1.25,1.4.1.15.18,1.04.56,1.21.15.07.28-.15.4-.18.45.09.45.51,0,.66.23.29.41.55,0,.66-.19.24-.22.33,0,.22.17-.34.47-.2.88.44.65-.27,2.17,2.77,2.04,2.91-.07.08-.17.13-.27.18l.22.15c-.3,2.02-.59,4.05-.88,6.07l-.67-.25c-.59-.12-3.21.3-3.98.44.62-3.21-.42-6.41-.23-9.62.09-1.46.66-2.84.67-4.3Z" fill="#96b542"/>
          <path d="M23.94,32.95c.55.16.56.64,0,.88.5.4.46.48,0,.88.27.17.35.43.33.74-1.22,4.34-1.04,8.8,2.93,11.6l-.17.48c.68-.07.8.31.22.66-.05.18-.16.43-.29.41-1.92-.24-4.89-4.25-4.35-6.38-.22-.08-.22-.37,0-.88-.53-.08-.35-.91,0-1.1-.02-.44.17-1.2-.44-1.33.67.12.42-.34.44-.76s-.06-.9.01-1.32c.21-1.28,1.02-2.5.87-3.88.07-.59.27-.56.44,0Z" fill="#3c7b8b"/>
          <path d="M22.62,40.24c.02.36-.04.75,0,1.1-.07.55-1.36,3.92-1.66,3.98-.11.02-.22.01-.33,0-.25.41-.31-.04-.22-.15.12-.14.02.97-.44.59-.29-.15.15-1.56.44-1.77.12-.08.13-.55.24-.7.64-.91,1.35-1.86,1.53-3.06.02.03.32-.02.44,0Z" fill="#d3a342"/>
          <path d="M16.87,54.38c.49.17.04,1.54-.44,1.55.31.32.18.73-.38,1.24,3.35-.05,6.64.29,9.89,1.03.26-.14.55-.3.87-.5-.32-.41-.11-1.02.44-1.1l.42.5c-.08,2.39.91,4.55,1.92,6.62l-.34.39c1.25.42-.35,2.74-1.1,1.55-.19,0-.36-.03-.44-.22.12-.04.34.04.44,0l.08-.69c-.08-.73-1.41-5.39-1.7-5.44-3.72-.69-7.41-1.25-11.17-.94-.57-.09-.69-1.07-.25-1.33.73-.83,1.03-2.44,1.77-3.31.35,0,.15.4,0,.66Z" fill="#e6942b"/>
          <path d="M15.55,65.21c.63-.43,1.47-.47,2.1-.88,1.17-.76,1.68-2.64,3.27-3.36.39-.18,2.74-.7,2.81-.28.17.95-1.1.45-1.83.6-2.53.53-3.22,4.52-6.35,4.37-.01-.13.03-.41,0-.44Z" fill="#c72515"/>
          <path d="M18.42,69.63c0-.64.22-1.21.23-1.87.01-.54-.33-2.68-.23-2.77.05-.04.48.03.66,0l.22,4.42c-.46.24-.69.14-.88.22Z" fill="#ca2718"/>
          <path d="M15.1,57.03c.06.27-.15,1.06.13,1.11,1.07.17,2.5-.26,3.74-.22,2.44.07,5.14,1.08,7.63,1.21l.32.34c.09,1.35,1.93,4.42,1.57,5.53-.06.18-.17.35-.35.43.02-.22-.21-.51-.22-.66-.07-.76.07-.97-.22-1.77-.46.06-.86-.48-.66-.88l-.44-2.65c-.39-.03-.83.07-1.2,0-1.09-.24-2.96-.75-3.98-.88-1.66-.22-4.75.38-6.15-.03-.37-.11-.52-.39-.59-.74-.21-1.04.39-.71.44-.76Z" fill="#df5e25"/>
          <path d="M21.29,18.36c.26.46.65.9.88,1.33,1.13,1.21,2.19,3.04,2.43,4.64.04.1.06.2.05.3-.03.23-4.01,1.77-4.22,1.69-.1-.04-.17-.12-.25-.22-.45-.8-1.28-1.33-1.74-2.35-1.25-2.78-.85-5.84,2.84-5.39Z" fill="#efca2d"/>
          <path d="M16.21,4.66c-.23.48-.25.53-.06.15,2.09,3.83,4.18,7.65,6.28,11.47l-.03.54c.68.17.97.69.88,1.55.18-.08.43-.13.51.01,2.02,3.37,4.08,6.81,5.78,10.36l-.33.46c.2.07.2.15,0,.22-1.32,1.34-2.58-1.79-2.65-2.87-1.48-1.49-2.59-3.78-3.5-5.74-.09-.19-.08-.42-.04-.67-2.46-4.35-4.81-8.78-7.34-13.1l-.17-2.81c.07-.09.55.37.66.44Z" fill="#6ab0dd"/>
          <path d="M16.21,4.66c.05.03.17-.03.22,0,.34.23,1.04.9,1.29,1.25l5.12,9.36c.43.6.6,1.88-.44,1.55-2.05-3.66-4.74-7.83-6.45-11.56-.2-.43-.42-.67.26-.59Z" fill="#b5d5eb"/>
          <path d="M22.18,19.69l.88.44c1.19,2.11,2.31,4.33,3.54,6.41.25.57-.05.67-.44.22-.48-.02-.72-.4-.66-.88-.33.27-.45.15-.22-.22-.63.08-.86-.16-.44-.66-.63.12-.66-.29-.22-.66-.87-1.51-1.59-3.13-2.43-4.64Z" fill="#417b88"/>
          <path d="M41.62,26.76c-.18.12-.24.22-.22.44-.18.54-.86.61-1.1,0-.37.5-1.29.18-.88-.44l-.44-.31c.11-1.97-.45-4.11-1.32-5.87-.12.42-.32.42-.44,0-.08-.32-.05-.73.07-1.23-.51-1.2-1.16-2.8-.95-4.07.07.08.53-.26.88-.12.18.07.81.8.98,1.02,2.33,2.96,1.16,7.49,3.44,10.59Z" fill="#95b249"/>
          <path d="M33.45,46.2c1.46.89,1.5,2.98,1.34,4.54-.37,3.67-1.33,7.53-1.56,11.26-.06,1.02.11,4.62.56,5.4.54.94,3.08-.22,2.09,2.22-.28.23-.48.68-.9.98-2.1,1.5-4.6,3.23-3.96-.98-.09-.37.27-.69,1.07-.95.82-2.42.88-5.05-2.44-4.23l-.4-.34c-.09-.51-1.01-2.09-1.25-2.84-.54-1.63-.86-2.93-.74-4.68l-.28-.21c.31-1.61.68-3.21,1.11-4.8-1-.96-1.05-2.39-.17-3.39-.48-.49-.16-.84.44-.66,1.19-1.36,3.39-1.76,5.08-1.33Z" fill="#f1cb2b"/>
          <path d="M31.02,69.63c-.18.1-.14.52-.44.44-.41-1.07-.32-2.03-.44-3.09l.52.13c.8,2.37,1.1-.3.49-1.28-.49-.77-.93.26-1.01.71-.15,0-.3-.01-.44,0-.12.71-.42,1-.88.88-.16.16-1,.61-1.33.44.03-.96.42-1.34.66-2.21.99.01,1.26-.64,1.1-1.55,2.04-.66,3.9-.07,3.76,2.31-.02.31-.46,2.39-.56,2.55-.19.32-.99.41-1.43.66Z" fill="#d5a428"/>
          <path d="M30.13,66.98c-.02-.14.02-.3,0-.44-.06-.42-.35-.6-.44-.98,3.4-2.34,2.32,6.61.44,1.42Z" fill="#f1c731"/>
          <path d="M29.69,66.54c-.11.38.38,1.58.22,1.77-.21.24-1.39-.09-1.1-.88.51-.52.17-.81.88-.88Z" fill="#f4e19f"/>
          <path d="M27.7,14.82c-.45-.12-.81-.27-1.1-.44-.72-.93-1.3.03-1.63-.02-.89-.13-.34-1.26-.36-1.64-.09-1.91.09-1.13.4-2.48s-.18-3.2.93-4.27l.21.13c-.14,1.39-.12,2.89.14,4.33.22,1.19.69,2.61,1.84,3.34.24.41.09,1.43-.42,1.05Z" fill="#d2a354"/>
          <path d="M26.15,4.66c-.04,1.11-.22,1.16.95,1.15l.15.18c-1.8.03-.69.74,0,1.66l-.89-.11c.19,1.45-.15,2.71.44,4.2.49-.39.89-.54,1.54-.44,0,.87-.77.74-1.32.44.88,3.31,2.67.93,4.64.44-.66.74-1.64,1.32-2.5,1.81-.73.42-.71-.25-.81.84.19.07.19.15,0,.22-.28.22-.51.4-.88.44-.06.64-.93.27-1.1-.22.01-.59.88-.93,1.33-.44.79-.35-.54-1.41-.75-1.79-1.11-2-.76-2.48-1.02-4.5-.04-.33-.41-.59-.43-.89,0-.22.37-1.03.43-1.66.04-.43-.03-.89,0-1.33h.22Z" fill="#b48656"/>
          <path d="M23.5,14.82c.19-.02.47-.02.66,0l.79.36c-.64.37-.83.84-.56,1.41.59-.16,1.16.8.88,1.33.09.02.17.05.21.11.3.44,1.12,1.66,1.3,2.06.07.15-.07.34-.19.48.41.02.54.16.22.44.02.55-.2.55-.66,0-1.05-.46-2.16-2.19-1.99-3.31-1-.33-1.2-1.39-1.1-2.43-.06-.54.09-.4.44-.44Z" fill="#6c8275"/>
          <path d="M25.05,15.05c.56-.08,1-.01,1.33.22.19.03.95.24,1.1.22.05.98-.36.57-.44.66l-.24.28c-.82-.38-1.68-.59-2.42.17-.3-.63-1.08-1.45.22-1.33v-.22s-.44-.22-.44-.22c.4.04.62.18.88.22Z" fill="#bfa44f"/>
          <path d="M26.6,14.38c.25-.15,1.43-.1,1.1.44-.32.14-1.02-.01-1.33.44-.46-.07-.91-.15-1.33-.22.4-.1,1.04-.08,1.39-.23.25-.11.14-.42.16-.43Z" fill="#e8cea1"/>
          <path d="M24.83,24.99v.31c-1.34.56-2.67,1.19-3.98,1.9-.74-.09-.33-.52-.66-1.1l4.42-1.77c.17.3.18.59.22.66Z" fill="#d8ab21"/>
          <path d="M25.49,25.87c.33.55.25.77-.22.66-.72.81-2.96,1.77-3.98,1.33-.11.43-.31.43-.44,0,.02-.21-.04-.47,0-.66,1.27-.66,2.59-1.25,3.94-1.77l.48.23c.05.08.17.14.22.22Z" fill="#e7992d"/>
          <path d="M24.16,17.7l-.88.66c-.29-.52-.59-1.03-.88-1.55.51-.35.46-1.01.44-1.55h.22c.34.73.73,1.75,1.1,2.43Z" fill="#9fbdcf"/>
          <path d="M29.25,2.89c2.39.08,3.2.54,5.3.88,1.76,1.37-.34,1.48-1.55,1.11l.88,1.1c-2.12-.84-4.63-.1-6.69-.5-.59-.11-.64-.53-1.04-1.05-.37-.47-.97-.88-.88-1.55,1.32.03,2.66-.04,3.98,0Z" fill="#f0612f"/>
          <path d="M41.4,27.2c.19.01.38,0,.44.22-.46.35-1.28.74-1.7,1.17s-.17,1.09-1.17,1.26c-.19-.06-.19-.14,0-.22-.86-.41.39-1.95,1.1-1.55-.37-.41-.28-.66.22-.88.34.05.75-.02,1.1,0Z" fill="#794026"/>
          <path d="M38.97,40.24c1.16,1.33,2,3.87,3.42,5.53.68.79,4.04,3.51,4.91,3.71.35.08.66.08,1.01,0,1.19-.26,3.89-3.96,4.85-4.99.56-.12,1.15-.03,1.72-.05-.75,2.54-3.53,4.12-4.86,6.41-1.02,1.5-2.03,1.83-3.52.52-3.86-2.06-8.24-5.77-9.16-10.18l.96-.28c-.37-.21-.2-.56.22-.44-.07-.53.08-.6.44-.22Z" fill="#f1c82f"/>
          <path d="M38.31,40.9c-.32.3-.68.06-.68.54,0,1.9,3.65,5.85,5.09,7.09,1.09.93,4.69,3.58,6.03,3.16.45-.14.66-.87,1.26-.84-.11.19-.42.52-.44.66-.16.94,1.67,1.58,1.27,3.36-.81,3.61-6.79,2.52-5.19-1.43.27-.65,1.23-1.23.84-1.78-.13-.18-3.1-1.83-3.71-2.3-1.97-1.52-4.76-4.79-5.58-7.14-.67-.08-.71-.96-.22-1.33.13-.38,1.32-.5,1.33,0Z" fill="#e89c2c"/>
          <path d="M20.63,45.32c.06.17.11.33.12.5.02.16.02.31-.02.45-1,3.24-2.11,6.52-3.31,9.59.21.33.04.59-.33.73-.42.19-.64-.03-.66-.66.16-.36.35-1.13.44-1.55.78-2.7,1.66-5.35,2.65-7.96.1-.16.18-.39.22-.44-.18-.26-.07-.37.22-.22.16-.18.49-.26.45-.66l.22.22Z" fill="#e0c044"/>
          <path d="M19.52,46.43c.03.71-.22,1.6-.47,2.25-.47,1.26-1,2.5-1.42,3.93-.17.56-.29,1.45-.77,1.78.04-.2-.04-.47,0-.66.6-2.55,1.24-5.08,2.65-7.29Z" fill="#e5942d"/>
          <path d="M21.95,62.56c-.34.55.56,2.96.44,3.09-.61.68-1.49-2.72-1.1-3.09h.66Z" fill="#cb2818"/>
          <path d="M16.87,69.41c-.86.07-.74-1.55-.78-2.21,0-.2-.19-.9.23-.88.67.03.59,2.58.55,3.09Z" fill="#cd2a1b"/>
          <path d="M27.04,62.12c.36.32.48.4.66.88l-.33.88c-.52-.88-.65-1.59-1.66-2.1,0-.87,1.09.13,1.32.33Z" fill="#c72714"/>
          <path d="M20.41,43.99l-.44,1.77c-.07.08-.16.14-.22.22-.57-.22.07-.74.16-1.06.09-.3.01-.86.06-.93.04-.06.37.05.44,0Z" fill="#e17025"/>
          <path d="M12.89,72.72c.27.24,0,2.4-.55,2.65-.54-.36-.22-.45-.15-.81.12-.58.18-.9.26-1.51.04-.31.09-.64.44-.33Z" fill="#6c4a31"/>
          <path d="M9.8,68.31c.12.64-.19.35-.49.5-.42.21-2.84,1.27-3.05,1.05-.05-.05.03-.48,0-.66l3.54-.88Z" fill="#ca2717"/>
          <path d="M6.71,70.51c.02.78-.09,1.69-.34,2.43-.13.38-.01.53-.54.44.13-.75-.15-2.77.88-2.87Z" fill="#c92719"/>
          <path d="M10.46,69.41c.08.06.47,1.98-.1,1.98-.28,0-.63-1.91-.55-1.98.02-.02.63-.02.65,0Z" fill="#c92918"/>
          <path d="M52.01,83.11c-2.69-.33-.53-3.24-.45-4.54.04-.66-.59-1.36-.44-2.08.93.04.94,1.87.87,2.52-.16,1.38-1.49,2.79.02,4.11Z" fill="#6c4a33"/>
          <path d="M47.81,66.1l-.55,2.43c-.75-.28.07-2.98.55-2.43Z" fill="#704b34"/>
          <path d="M32.78,81.34c-.08.07-.7.09-.73-.27l-1.92-1.71c.8-.51,3.06,1.62,2.65,1.99Z" fill="#6d4a32"/>
          <path d="M35.44,15.49c.13-.14.31-.23.42-.13.28.27,1.49,4.24,1.43,4.48-.1.38-.33.85-.64.51l-.04.29c-2.85.06-5.69.08-8.54.06l-.26-.35-.2.24c-.92-.64-1.7-1.53-2.34-2.67-.47-.53-.58-.69-.88-1.33.09-.34-.3-.84.32-.89.46-.03,1.34-.08,1.73,0,.19.04.15.59.59.44-.07.09-.47.84-.44.88.74.34,1.21.38,1.99.45l.65.26c1.62-.18,3.31-.35,4.93-.49-.15-1.61.27-2.2,1.27-1.76Z" fill="#eec831"/>
          <path d="M33.67,15.05c.86-.27,1.97-.46,2.65.22.55.56.32,1.07.44,1.62.09.4.3,1.14.44,1.77.04.16.39.13.43.3.24.93-.2,1.02-.44,1.62.34,0,.25.34.14.66-3.3.04-6.6.03-9.89-.03l-.86-.64c-.45-.87-1.08-1.67-1.33-2.65.02.03.29-.05.38.05.42.48,1.55,2.38,2.16,2.38h8.84c.13,0,.31-.32.3-.51-.02-.26-.96-3.42-1.12-3.76-.12-.26-.14-.39-.39-.59-.42-.22-.84-.23-1.07.23l-.48-.23c-.01-.09-.16-.34-.22-.44Z" fill="#bfab2f"/>
          <path d="M35.44,15.49c-1.63-.52-.56,1.89-.88,2.21-.07.07-1.7-.03-2.1,0-1.12.1-3.32.93-3.87-.22.17.01,1.48.03,1.62,0,.17-.04.05-.41.47-.46.52-.07,3.11.13,3.22.02-.05-.49.07-1.08,0-1.55.54-.28,1.04-.39,1.55,0Z" fill="#d8a82d"/>
          <path d="M27.26,9.96h.88c.13.69-.9.92-1.23.45-.35-.5.28-1.61.12-2.22,1.33-.05,0,1.57.22,1.77Z" fill="#ba8c68"/>
          <path d="M28.36,14.82c1.32-.68,1.32,2.23,0,1.99.02-.59-.03-1.18,0-1.77,0-.07,0-.15,0-.22Z" fill="#e1c4af"/>
          <path d="M30.35,7.75c-.13.12-.95-.23-1.23-.23-.3,0-1.44.5-1.2-.09.5-1.21,2.93-.12,2.43.33Z" fill="#b88863"/>
          <path d="M36.1,37.59c.49-.03.75.15.78.54,1.17,1.52,2.41,3.36-.48,2.16-.87.27-1.49.25-1.85-.05-.07.51-.36.43-.88-.22-.33.25-.63-.04-.88-.88-.52.11-.55-.08-.22-.44-.88-.41.26-1.13.88-1.33-.32-.2.05-1.04.44-.88-.06-.34.01-.42.22-.22.75.31,1.41.76,1.99,1.33Z" fill="#ddae88"/>
          <path d="M30.79,28.53c.5-.26,1.24-.17,2.2.27.58-.18,1.1-.27,1.56-.27.67-.31,1.46.65,1.55,1.1.04.03-.04.19,0,.22.23.29.11.41-.22.22.27.63-.65,1.07-1.1.66-.05.2-.13.19-.22,0-.36-.33-.97-.3-1.33,0l.08.26c-.6.35-.92,1-.96,1.95.42.12.42.32,0,.44-.61.56-.8.3-.57-.79-.3-.78-.26-1.25.12-1.42-.17-.4.11-.75.84-1.04.84-.27,1.07-.51.71-.73-.88.45-1.4.45-1.55,0-1.06.26-2.14.77-3.26,1.55l-.28-.22c-.02.64-.52.6-.66,0-.22-.06-.25-.35,0-.44.36-.69.5-.86,1.32-.61l.23-.27c0-.07,0-.15,0-.22.05-.67.72-.67,1.1-.22-.03-.41.02-.64.44-.44Z" fill="#c69446"/>
          <path d="M37.64,37.37v.22l-.17.47,1.26,1.82c.04.25.07.48-.2.59-.09.1-.13.35-.22.44-.38-.07-1,.09-1.33,0-.39.25-.82.15-1.1-.22-.07.62-.5.65-.88.22-.14,1.04-1.27-.48-.44-.66.66,0,1.27-.29,1.88-.24.56.05.86.54,1.43.46.36-.37-1.41-2.53-1.77-2.87.29-.12,1.44-.15,1.55-.22Z" fill="#b48340"/>
          <path d="M39.41,26.76c.14.05.08.34.88.44.07.42.02.56-.22.88-1.23-.13-1.91.4-1.1,1.55v.22c-.27.04-.6-.03-.88,0-.48.29-1.05-.44-.66-.88-.69-.67.49-2.41,1.33-1.99-.1-.68.38-.85.66-.22Z" fill="#a6372b"/>
          <path d="M36.32,31.4c-.64-.04-.97-.85-.44-1.33.05-.02.06-.24.22-.22.81.73,2.74,1.86,1.44,2.87l-1.22-1.32Z" fill="#9c97b8"/>
          <path d="M32.78,33.83c.38-.52.78-.06.88.44.32-.29.46-.15.22.22.47-.04.8,1.23.22,1.33,0,.14.03.34,0,.44-.02.09-.2.16-.22.22l-.32-.04c-.36-.88-1.01-1.57-1.97-2.08l.07-.31c-.47-.57.87-.76,1.1-.22Z" fill="#df9e4c"/>
          <path d="M34.99,31.18c.06-.66.75-.51.89.17-.44.05-.48,1.08-.23.71.51-.34.52.17.44.66.34.21.71.43,1.1.66.09.68-.68.72-.83.94-.06.1-.35.93-.5,1.27-.15.02-.15-.13,0-.44-.55-.26-.55-.42,0-.66-.63-.8-.81-2.01-.88-2.87-.31-.13-.31-.29,0-.44Z" fill="#764b66"/>
          <path d="M36.76,28.97c.54.03.51.26,0,.44l-.66.22c-.36-.32-1.16-.65-1.55-1.1-.47-.14-.43-.5.11-1.06-.35-.44-.18-.49.33-.27.83-.71,1.09.62,1.14,1.34.35-.07.49.05.63.43Z" fill="#964539"/>
          <path d="M33.89,34.49c-.22-.78.6-.86,1.04-.25.07.75.15,1.05.95.91v.44c-.11.24-.15.61-.22.88l-1.54-.66c0-.23-.15-1.17-.22-1.33Z" fill="#82a2bf"/>
          <path d="M35.88,30.07c.07.48.36.84.44,1.33.02.13,0,.3,0,.44-.12.12-.34.19-.66.22-.03,0-.11.2-.22.22-.06-.28.1-.93-.03-1.1-.07-.08-.35.03-.42-.01-.39.11-.72-.29-.22-.44.13-.04.78-.49,1.1-.66Z" fill="#923b45"/>
          <path d="M37.42,28.97s.5.68.66.88.77,1.13.11,1.1c-.11,0-1.34-1.31-1.44-1.54-.04-.1.03-.31,0-.44.11-.62.45-.6.66,0Z" fill="#b28ea7"/>
          <path d="M37.2,33.39c-.33.17-.49.53-.88.44-.04-.36-.1-.77-.22-1.1-.16-.51-.09-.66.22-.44.12.39.84.78.88,1.1Z" fill="#a392a9"/>
          <path d="M36.32,31.84c0,.14.02.31,0,.44-.01.08-.24.27-.22.44-.05-.14-.28-.68-.44-.66v-.66s.66.44.66.44Z" fill="#af627a"/>
          <path d="M54.88,23.88c-.24-.56-.54-.64-.88-.22-.77.17-.29-.48-.44-.88.97-1.85,2.97.8,1.33,1.1Z" fill="#7b4c38"/>
          <path d="M54.88,23.88c-.26.05-.6-.03-.88,0,0-.07,0-.15,0-.22.15-1.6,1.36-.68.88.22Z" fill="#4a2d18"/>
          <path d="M59.52,26.32c-.03.18.05.59,0,.65-.08.1-1.99.59-2.42.78-.51.23-2.68,1.78-2.88.88-.24-1.14,4.23-2.96,5.3-2.32Z" fill="#ea4a34"/>
          <path d="M52.23,24.99c.63-.14.36.31.44.44.23.77.55,1.49.97,2.17l-.09.48c-.06.07.04.49,0,.66-.93-.97-1.64-1.67-1.56-3.21.01-.29.23-.49.24-.54Z" fill="#754532"/>
          <path d="M52.67,25.43c.41.67,1.52,1.75,1.34,2.51-.05.23-.44.12-.45.14-.71-.76-1-1.6-.88-2.65Z" fill="#a15c4b"/>
          <path d="M52.01,17.26c-.61-.47-.37.27-.55.22-.43-.31-.35-.85-.33-1.32.47-.18,1.04.9.88,1.11Z" fill="#634a38"/>
          <path d="M35.88,40.68c1.32-.35.74.11,1.1.22.22.37.12,1.03.22,1.33l-.89-.11c-.22,2.2.3,4.96.02,7.09-.05.4-.36.26-.45.48-.13.34.17.99-.46,1.16.2-1.56.38-2.54.44-4.2-.39-.82-.27-2.19,0-3.09-.63-.36-.71-2.54,0-2.87Z" fill="#de6924"/>
          <path d="M38.53,55.71c.06-.97.47-2.01.46-2.98,0-1.07-.59-2.17-.57-3.21.78.21.94,1.42,1,2.09.03.35.03,5.14-.89,4.1Z" fill="#c82516"/>
          <path d="M38.97,60.35c.23.21-.78,2.66-1.01,3.08s-1.77,2.7-2.31,2.22c-.24-.21,1.96-2.27,1.92-2.83.44-.37.63-2.39.73-2.48.02-.02.64-.02.66,0Z" fill="#c72715"/>
          <path d="M54.88,57.48c.16.14.87,4.01.67,4.2h-.66c.13-1.41-.36-2.74-.67-4.09,0-.2.63-.14.66-.11Z" fill="#ca2916"/>
          <path d="M51.57,63.44s-.64.02-.66,0c-.1-.09.46-2.18.22-2.65,1.07-.26.55,2.55.44,2.65Z" fill="#cb2a18"/>
          <path d="M23.94,34.71l.24-.55c1.08,1.45,2.65,2.35,4.69,2.7l2.45,1.68c.73.23,1.22.57,1.45,1.04,1.17,1.39,2.61,4.1,2.24,6.04l-.47.37c-.14.02-.33-.04-.44,0-.19-.06-.19-.14,0-.22-1.1-.28-2.94-.56-3.77.2-.52-.01-.88.07-1.09.25.59.35-.21,1.08-.44.44l-.59.42c-.46.79-.85.95-1.18.46-.85-1.05-1.79-1.23-2.69-2.95-2.12-4.05-.97-5.9-.4-9.87Z" fill="#65b1e1"/>
          <path d="M33.67,40.02c.91.56,1.14,1.63,1.33,2.65.61-.14.79.78.44,1.1.57.64.39,3.83-.88,2.87-.01-.21-.02-.46,0-.66.36-3.31-.84-3.66-1.77-6.41-.37-.3-.37-.45,0-.44l.88.88Z" fill="#497c85"/>
          <path d="M34.11,45.76v.22c-.21.06-.26.19-.66.22-1.22.08-2.46.21-3.6.45-.09.02-.97.98-1.48.88-.57-.23-.03-.85.44-.88.1-.12.3.32.44-.44,1.43-.71,3.33-.97,4.86-.44Z" fill="#beaa53"/>
          <path d="M35.88,46.65h-.29c-.31.62-.99.79-1.03,0,1.16.34.98-2.09.88-2.87-.2-.59.02-.67.44-.22,0,1.03.04,2.07,0,3.09Z" fill="#c7a75f"/>
          <path d="M50.24,29.63c.5.77-1.86,4.99-2.43,4.42.42-1.04,1.15-1.9,1.59-2.93.23-.55,0-1.53.83-1.48Z" fill="#6d4831"/>
          <path d="M46.93,31.62c.26.28-.8,1.88-1.1,1.54-.26-.28.8-1.88,1.1-1.54Z" fill="#6d4930"/>
          <path d="M57.75,32.06c-.28.33-1.31-1.14-1.1-1.54,1-.1,1.21.7,1.1,1.54Z" fill="#6c4830"/>
          <path d="M58.86,32.06c-.11-.41.21-1.66.77-1.54.76.16-.16,1.73-.77,1.54Z" fill="#6e4d38"/>
          <path d="M52.67,44.22c-.59.95-3.98,4.95-4.92,4.83-.86-.11-4.11-2.7-4.79-3.46-1.55-1.73-2.04-3.16-2.89-5.13,2.36.8,4.62,1.92,7.03,2.59,1.62.45,3.94,1.03,5.57,1.17Z" fill="#93674b"/>
          <path d="M37.64,37.59c.2.73.82,1.45,1.33,1.99.23.2-.02.64,0,.66-.08.16-.39.17-.44.22-.12-.96-1.05-1.66-1.44-2.43-.32-.65.17-.43.55-.44Z" fill="#f0b850"/>
          <path d="M20.85,29.19c.19.05.19.13,0,.22-.06.61-.42,1-.45,1.87s.65,5.19.45,5.42c-.33.06-.5-.07-.62-.38-.26-.67-.56-4.66-.5-5.49.04-.59.22-1.89,1.12-1.65Z" fill="#799b37"/>
          <path d="M21.29,27.86c.55.01.94.33,1.19.94.69.96,1.72,2.6,1.68,3.7.16.37.22.6-.22.44h-.44c-.12-1.08-1.2-2.17-1.77-3.09-.49-.35-.7-.78-.88-1.33.02-.22-.02-.44,0-.66.14-.03.32.03.44,0Z" fill="#a73616"/>
          <path d="M21.95,36.48s-.64.02-.66,0c-.14-.14.46-3.4.22-3.98,1.14-.19.6,3.83.44,3.98Z" fill="#7a9c39"/>
          <path d="M21.73,29.85l-.88-.44c0-.07,0-.15,0-.22.03-.21-.02-.45,0-.66.59.24.64.94.88,1.33Z" fill="#caa93b"/>
          <path d="M22.62,42.23c.06.47,1.13,3.04,1.4,3.47.09.14,2.16,2.2,2.3,2.28.36.18.57.18.94.22.07-.19.15-.19.22,0l.23.12c-.37.76-.46,1.52-.28,2.27.93,1.48.43,2.92-.41,4.3.09.74-.05,1.31-.43,1.72l-.27.2c-2.89-.58-5.79-.79-8.68-.62l-.15-.26c1.44-4.6,3.07-9.13,4.87-13.61l.25-.07Z" fill="#97b63f"/>
          <path d="M22.62,42.23l-4.86,13.7c3.03-.73,5.86.42,8.84.66.32-.05.38.15.18.59l-2.83-.37-.64.34c-2.01-.43-3.97-.47-5.89-.12l-.32-.43c-.22-1.32.7-2.25,1.11-3.42.91-2.58,1.43-5.3,2.43-7.85l1.99-3.98c.03.29-.04.6,0,.88Z" fill="#8a982b"/>
          <path d="M24.16,32.5l.59.07c1.15,1.69,2.85,2.82,5.11,3.38l1.79,1.36c.46-.09.83-.07,1.13.05.38-.4.6-.4.66,0-.31.49-.86.76-.88,1.33-.18.27-.45.3-.8.08-1.47-1.19-3.07-2.03-4.8-2.52-.89-.25-1.44-.6-2.09-1.24-.32-.32-.69-.83-.93-1.18.02-.29-.04-.6,0-.88,0-.07.24-.28.22-.44Z" fill="#a53535"/>
          <path d="M23.94,33.83c.85.14,1.39,1.49,2.05,1.83,1,.53,2.32.69,3.38,1.23,1.34.68,1.46,1.25,3.18,1.8.16.05.18.3.22.44.04.12-.04.33,0,.44-.41-.28-.88-.34-1.25-.52-.58-.29-2.7-2.08-2.89-2.12-1.17-.25-1.56-.42-2.56-.82-.75-.3-1.8-.68-1.69-1.73l-.44.33c.04-.27-.02-.6,0-.88Z" fill="#899dc4"/>
          <path d="M28.81,46.65c-.1.11-.35.71-.44.88-.1.2-.35.33-.44.66-.12.42-.32.42-.44,0-.07,0-.15,0-.22,0-.04-.22-.08-.49-.22-.66.78-.06.74-1.22,1.77-.88Z" fill="#8ba89b"/>
          <path d="M16.43,55.93c.59-.23.35.56.66.66.24.08.86-.21,1.22-.22,2.09-.08,3.61.07,5.63.44l2.52.33c.44-.54.44-.02.35.55-.08.21-.13.78-.25.85-.65.4-4.57-.7-5.63-.83-1.87-.22-3.52-.11-5.39-.03-.2-.76.68-1.3.88-1.77Z" fill="#edc835"/>
          <path d="M27.92,48.19c-.15.55-.32,1.55-.22,2.09.12.63.81.75.83,1.28.03,1.42-1.15,3.32-1.27,5.03-.17.36-.29.74-.44,1.1-.12-.15-.17-.38-.39-.43-.77-.18-1.69-.31-2.48-.45l2.65.22c.01-.15,0-.29,0-.44.03-.56-.11-1.35,0-1.84.03-.13.8-1.36.89-2.02.18-1.35-.92-2.36-.44-3.7.07-.21.66-.25.43-.84.15,0,.29,0,.44,0Z" fill="#bfad2c"/>
          <path d="M24.16,17.7c.59,1.08,1.37,2.21,1.99,3.31.61.48,1.08,1.19,1.41,2.12.46.57.73.91.8,1.64.13,0,.24,0,.27.05.38.61,1.95,3.37,1.89,3.82-.02.13-.07.24-.18.33-.33.13-.75.18-1.1.22-.16-1.14-5.01-9.11-5.97-10.83-.07-.67.26-1.14.88-.66Z" fill="#b5d5eb"/>
          <path d="M29.25,29.41c-.05.83-.26.23-.71.45-.25.12-.21.65-.83.43-.78-.47-1.52-2.52-1.55-3.54l.44-.22c.37.63,1.36,2.37,1.77,2.77.36.35.46.24.88.1Z" fill="#557797"/>
          <path d="M24.83,24.99c.09.16.28.39.44.66-1.1.49-3.29,1.69-4.42,1.55.22-1.1,2.87-1.84,3.98-2.21Z" fill="#efc439"/>
          <path d="M25.49,25.87c.24.39.38.35.66.88.46.86.62,1.81,1.05,2.82.13.3.44.58.49.72.04.1-.03.31,0,.44-.06.19-.14.19-.22,0-1.18-.67-2.02-2.88-2.21-4.2-.01-.07.26-.47.22-.66Z" fill="#a4383a"/>
          <path d="M26.6,20.57c.75-.3.85.42,1.2.46,2.9.33,6.44-.28,9.41-.02.03-.14-.04-.34,0-.44.14.01.3-.02.44,0,.44.29.56.69,0,.88-.2.73-2.53.56-2.87,0l-.26.44c-2.33-.01-4.67-.01-7,0l-.47-.44c-.41.11-.56-.19-.22-.44-.08-.14-.14-.3-.22-.44Z" fill="#82acb2"/>
          <path d="M37.64,20.57c1.18.15,1.2,2.2,1.38,3.15.06.3.32.58.38.95.1.67-.04,1.41.01,2.09-.16-.06-.5.13-.66.22-.68.07-.82-.31-.22-.66-.41-.73-.6-1.61-.54-2.64-.56-.83-.67-1.57-.34-2.23-.07-.21.05-.63,0-.88Z" fill="#418285"/>
          <path d="M26.82,21.01c.08.14.14.3.22.44.78.18,1.3,1.47,1.55,2.21.2.02.19.1,0,.22,0,.41-.07.71-.22.88-.94-1.07-1.52-2.52-2.21-3.76h.66Z" fill="#4686ae"/>
          <path d="M25.27,26.54c.02.13.35.19.39.28.51,1.36,1.27,2.74,1.82,3.92.47,0,.6.1.48.53.28.17.56.5.4.8,1.2,1,2.48,1.91,3.83,2.72,1.03.64,2.1,1.96.59,2.59-.36.11-.47.58-1.16.41-.56-.14-1.27-1.04-1.68-1.27-3.21-1.78-3.27-.32-5.78-4-1.02-1.49-1.75-3.22-2.87-4.64,1.32-.37,2.61-1.07,3.98-1.33Z" fill="#ee4b2a"/>
          <path d="M40.08,28.08c-.29.4-1.09.8-1.1,1.55-1.96-.34.03-3.06,1.1-1.55Z" fill="#df613d"/>
          <path d="M46.56,56.29c-1.53-.69-.52-4.75,2.59-3.79,2.63.81.91,5.38-2.59,3.79Z" fill="#f3ca2f"/>
          <path d="M35.65,17.92c.05.06.28,1.49.22,1.55h-1.99c-.25-.85,1.15-.26,1.33-.44.05-.05-.15-1.74.44-1.11Z" fill="#daae1b"/>
          <path d="M30.13,32.95c.57-.38,1.01,0,.88.66.6-.25.82-.1.66.44.88.66,1.94,1.26,2.21,2.43-.06.15-.36.75-.44.88-.2.03-.5-.05-.66,0,.22-.29.49-.58.45-.98-.12-1.45-4.53-2.64-4.87-4.32.66-.41,1.66.12,1.77.88Z" fill="#b62e0b"/>
          <path d="M34.55,40.24c-.24.77.41.62.44.66.72-.1.62,1.6,0,1.77l-1.33-2.65c.28.03.63.22.88.22Z" fill="#8c9355"/>
          <path d="M33.45,29.41c.18.32-.15.61-.97.88-.63.28-.82.58-.57.89.11.12-.12,2.05,0,2.21.03.04.31-.02.44,0,.33-.57,1.25.13.44.44-.47-.14-.7-.35-1.1.22-.19-.14-.45-.29-.66-.44.7-.83-.58-2.89-.47-.97l-.42.31c-.44-.29-1.32-.6-1.77-.88-1.34-.86-.55-.61-.88-1.33h.88c.21-.08.36,0,.52.11l2.47-1.46c.18-.1.36-.08.55.03.26.09,1.15,0,1.55,0Z" fill="#d69129"/>
          <path d="M29.25,25.43c.85.52,1.14.96.88,1.33.65-.05,1.2.9.66,1.33.58.13.57.29,0,.44-.03,0-.1.3-.44.44-.26-1.31-1.76-2.98-1.99-4.2-.05-.25-.07-.76.22-.88.38.27.6.79.66,1.55Z" fill="#607a77"/>
          <path d="M31.9,29.41c-1.01.87-2.3,1.31-3.42,1.99l-.11-.67c.85-.21,2.35-1.62,3.03-1.74.36-.06.46.4.51.41Z" fill="#f3bc41"/>
          <path d="M33.45,29.41c.65.01,1.74-.57,1.55.66-1.22-.14-2.32.08-3.1,1.11-.06-.06-.9.19-.66-.33.19-.39,1.8-1.08,2.21-1.44Z" fill="#efb843"/>
          <path d="M35.44,22.78l.4.35c-.44.62-.43,1.47.06,1.98l-.47.32c.64.26.23,1.8-.44,1.77-.01.05-.27.21-.34.43-.1.32-.05.77-.1.89-.01.03-.56.43-.6.43-.35.07-1.36.07-1.74.02-.34-.04-.43-.78-1.42-.46-.03-.13.04-.36,0-.44.28-.61.96-.52,1.55-.38.56.69.99.53,1.44-.15-.17-.81-.39-2.4.77-1.9.12-.72.26-1.39.44-1.99-.59-.36-.44-1.03.22-1.1.36-.28.49-.16.22.22Z" fill="#89a3b2"/>
          <path d="M33.23,30.74c.29-.37,1.03-.35,1.33,0,.08-.01.16.02.22,0-.03.25,0,.33.22.44.02.14-.03.31,0,.44.02.42-.18.26-.44,0-.76-.32-1.35.13-1.77,1.33-.13.33-.31.33-.44,0,0-.5-.08-1.16,0-1.61.06-.28.76-.51.87-.6Z" fill="#8da7aa"/>
          <path d="M33.23,30.74c.06-.05-.21-.38.32-.46s1.19-.11,1.01.46c-.4.06-.91-.04-1.33,0Z" fill="#ad9366"/>
          <path d="M35.88,40.68v2.87l-.44.22c-.02-.18-.39-.77-.44-1.1-.07-.39.1-1.62,0-1.77.27-.21.61-.15.88-.22Z" fill="#e2b748"/>
          <path d="M38.09,26.32c.11-.42.31-.42.44,0,0,.23.11.47.22.66-.62.35-1.17,1.29-1.33,1.99-.06-.05-.48.03-.66,0-.26-.04-.66.09-.9-.09-.37-.29-.02-1.49-.87-1.67.07-.25.43-1.67.44-1.77.68-.76,2.05.13,2.65.88Z" fill="#ddad89"/>
          <path d="M32.78,32.95c-.52-1.07.92-2.38,1.77-1.77.05.04-.05.33,0,.44.5.41.78,1.09.83,2.02l.5.86c.03.19,0,.45,0,.66-.27.69-.89.53-1.21,0-.27-.46.2-1.31-.78-.66,0-.02-.16-.15-.22-.22-.38-.4-.67-.85-.88-1.33Z" fill="#6cafd9"/>
          <path d="M32.78,32.95c.64.08,1.05.73.88,1.33-.03-.04-.76-.41-.88-.44.05-.54-.1-.39-.44-.44,0-.15,0-.29,0-.44.14.01.3-.02.44,0Z" fill="#98a292"/>
          <path d="M34.99,31.62c.21.93.73,1.87.88,2.87-1.23-.72-.67-1.32-.89-2.28,0-.04-.26-.15-.44-.59h.44Z" fill="#82a2bf"/>
          <path d="M29.25,46.2c.15-.81.13-.22.71-.45.22-.09.09-.4.49-.45,1.1-.15,2.52.14,3.66.02v.44c-.87.09-1.94-.13-2.78-.02-.41.05-.29.41-.47.45-.47.11-1.11-.06-1.62,0Z" fill="#87aba7"/>
          <path d="M30.79,42.01l-1.46,2.19c-1.81,1.6.18-2.53,1.46-2.19Z" fill="#2b7db8"/>
          <path d="M27.04,40.24c-.13.72-.18,2.54-1.1,2.65-.02-.82.05-2.48,1.1-2.65Z" fill="#2c80ba"/>
          <path d="M33.44,43.99c-.68.06-.72-.56-.66-1.1.68-.06.72.56.66,1.1Z" fill="#2d7db4"/>
          <path d="M34.77,21.45c.51,0,.78.45.44.88.2.07.2.15,0,.22,0,.2-.19.69-.22,1.1-.19.57-.34,1.24-.44,1.99-.32.37-.53.15-.46,1,.06.81.37.47.44.56.3.41-.21.41-.32.52-.54.57-.58.96-1.54.81-.42-.07-.29-.41-.48-.46-.41-.1-.95.05-1.39,0-.24-.45-.48-.99-.66-1.33.01-.52.38-.81.88-.88.29-.26.4-1.46,0-1.77-.29.26-.37.14-.22-.22-.2-.37-.42-.74-.66-1.1-.42-.4-.86-.36-1.33.44.29.28.18.44-.22.44-.76-.1-1.19-1.54-1.55-2.21h7.73Z" fill="#68b0dc"/>
          <path d="M37.64,21.45c.61,1.92.96,2.74.88,4.86-.14-.02-.33.03-.44,0-.53-.35-.67-.65-.44-.88-.17-.49-.32-1.08-.44-1.77-.46-.8-1.13-1.24-1.99-1.33-.02-.1-.55-.51-.44-.88h2.87Z" fill="#6cadd4"/>
          <path d="M30.13,22.78c.44.41.65.64,0,.88-.4.37-.56.85-.49,1.46l-.4.31c-.22-.46-.61-.97-.66-1.55,0-.07,0-.15,0-.22,0-.43.21-.42.22-.44.19-.69.94-1.1,1.33-.44Z" fill="#afa768"/>
          <path d="M31.02,33.61c-.31-.22-.65-.51-.88-.66-.07-.66-.1-1.94.89-1.44.58.29,1.19,2.07,0,2.1Z" fill="#f5c23a"/>
          <path d="M31.02,24.11c.39.24.35,1.47,0,1.77-.18.21-.34,1.02-.88.88-.21-.39-.56-.66-.88-1.33.16-.3.46-.31.88-.05-.15-.78,0-1.28.44-1.5.05-.19.13-.19.22,0,.06.03.13.17.22.22Z" fill="#afa460"/>
          <path d="M35.44,22.78c.3-.62,1.62-.11.88.44l-.24,1.23c.62-.02.99.16,1.13.54.24.08.4.21.44.44.08.09.45.72.44.88-.86-.26-1.6-1.12-2.65-.88.1-.83-.07-1.8,0-2.65Z" fill="#ba9c46"/>
          <path d="M35.21,22.34c1.29-.47,1.91.18,1.99,1.33-.37.58-1.1.19-.88-.44-.34-.31.45-.26-.88-.44-.02,0-.08-.23-.22-.22,0-.07.02-.16,0-.22Z" fill="#97ac8f"/>
          <path d="M34.99,23.66c-.08,1.01.28,1.15-.44,1.99.13-.69-.39-2.18.44-1.99Z" fill="#82acb2"/>
          <path d="M33.67,26.98c-.95.01-.58-1.13-.76-1.78-.14-.49-1.35-3.38-1.23-3.52.46-.52,1.58,2.4,1.65,2.66.24.86.39,1.75.34,2.64Z" fill="#287cb7"/>
          <path d="M31.02,24.11c.09.05.39-.14.45.13.05.22.03,1.49-.06,1.6s-.37.01-.39.04v-1.77Z" fill="#91aa99"/>
          <path d="M28.81,23.22c.16-.63-.34-1.27,1.18-.89.25.06.12.42.15.45-.43-.4-.97.45-1.33.44Z" fill="#82adb2"/>
          <path d="M30.13,22.78c.28.23,1.12.35.88.98l-.21.12c-.06-.02-.15.02-.22,0-.33.48-.5.33-.44-.22-.04-.2.05-.84,0-.88Z" fill="#88aca9"/>
          <path d="M37.2,23.66c.1.02.41-.04.44,0,.1.14-.07,1.41,0,1.77-.09-.1-.36.29-.44-.44-.67-.1-.63-1.18,0-1.33Z" fill="#ddad89"/>
          <path d="M30.13,23.66c.26.03.37.2.44.22v1.99c-.24.22-1.3-.38-1.33-.44-.13-.32.09-1.32,0-1.77.29.02.6-.03.88,0Z" fill="#dcbd48"/>
          <path d="M36.32,23.22c.08.08.7.41.88.44.03.43-.05.9,0,1.33-.31.04-1.41-.07-1.52-.25-.14-.22-.06-1.72.64-1.52Z" fill="#e2bb44"/>
        </g>
      </g>
    </g>
  </g>
</svg>