<?xml version="1.0" encoding="UTF-8"?>
<svg id="Layer_2" data-name="Layer 2" xmlns="http://www.w3.org/2000/svg" viewBox="0 0 64.02 96">
  <g id="Cards">
    <g id="Swords">
      <g id="FiveOfSwrods">
        <path d="M0,5.74l1.5-.16c.04.34.17.61.38.81.21.2.45.3.73.3.31,0,.58-.13.8-.38s.33-.64.33-1.16c0-.48-.11-.85-.33-1.09-.22-.24-.5-.36-.85-.36-.43,0-.82.19-1.17.58l-1.22-.18L.96,0h3.99v1.41h-2.85l-.24,1.34c.34-.17.68-.25,1.03-.25.67,0,1.24.24,1.7.73.47.49.7,1.12.7,1.9,0,.65-.19,1.23-.56,1.73-.51.7-1.22,1.04-2.13,1.04-.73,0-1.32-.2-1.78-.59s-.73-.92-.82-1.57Z" fill="#2a2b2c"/>
        <path d="M64.02,90.26l-1.5.16c-.04-.34-.17-.61-.38-.81-.21-.2-.45-.3-.73-.3-.31,0-.58.13-.8.38s-.33.64-.33,1.16c0,.48.11.85.33,1.09.22.24.5.36.85.36.43,0,.82-.19,1.17-.58l1.22.18-.77,4.1h-3.99v-1.41h2.85l.24-1.34c-.34.17-.68.25-1.03.25-.67,0-1.24-.24-1.7-.73-.47-.49-.7-1.12-.7-1.9,0-.65.19-1.23.56-1.73.51-.7,1.22-1.04,2.13-1.04.73,0,1.32.2,1.78.59s.73.92.82,1.57Z" fill="#2a2b2c"/>
        <g>
          <path d="M8.64,16.12l-.32-.28c-.55.46-.9.37-1.05-.26-1.33-.45-2.2-1.06-1.91-2.6.1-.56.44-.52.54-.68.44-.36,1.17-.36,2.18,0,.33-.6.69-1.15,1.09-1.64-.35-.67.09-.86.55-.27.05-1.18,2.68-1.13,2.73,0,.45.47.54.83.27,1.09-.36.49-.27.58.27.27.13-1.05.96-.21,1.13.6.52-.02.87.14,1.06.49.49.77.1,1.07-1.14.9l-.49.2-.21.64c-1.48.43-2.5.77-3.07,1,.47.91-1.49,1.61-1.64.55Z" fill="#f0bb2d"/>
          <path d="M10.82,39.33c-.21-.64-.21-1.18,0-1.64-.17-.45-.15-.55.27-.27l.3-.27c.56-5.8,1.15-11.55,1.77-17.25.06-1.35.1-2.61.11-3.78-1.32-.17-.7-1.3.27-.82.08-.24.17-.23.27,0h.27c.72,2.51.72,5.15,0,7.92-.21,2.68-.52,5.62-.85,8.29-.15,1.18-1.05,8.74-1.74,8.91s-.59-.85-.68-1.09Z" fill="#3d77a2"/>
          <path d="M10.27,36.88c-.73-4.33-1.55-8.65-2.15-13.01-.37-2.75-.77-5.53-.86-8.29.27.09.83-.11,1.18,0,.3.09.16.54.19.55.34,3.68.77,7.41,1.3,11.17l-.21.85c.32,1.26.52,2.54.62,3.84l.53.11c.28,1.67.29,3.37.21,5.06.24.07.23.16,0,.27-.04.09-.21.17-.27.27-.26-.05-.45-.33-.55-.82Z" fill="#497595"/>
          <path d="M13,7.11c-.27.13-.54-.05-.82-.55-.03.25-.12.23-.27,0l-.55-.3c.44-2.98-1.08-2.97-1.08-.19l-.56.48c-.12.55-.3.73-.55.55.12-1.25-.18-4.7,1.77-4.67,1.84.03,1.29,1.2,1.51,2.06.31,1.15.38,1.34.53,2.61Z" fill="#e1bb54"/>
          <path d="M11.09,15.58c-.25.53-.57.53-.82,0,.03-.03-.08-.38.05-.49s2.14-.21,3.23-1.15l.12-.27c1.24.24,1.75-.04,1.52-.83-.74-.1-.7-.32,0-.55.12.06.41-.05.55,0,.78.42,1.17,1.22.55,1.91-.05.07-.2.22-.27.27-.83.14-1.65.32-2.46.55-.01.12-.2.18-.55.19-.13.79-1.41.78-1.9.36Z" fill="#d8c66e"/>
          <path d="M13.55,13.94s-.13-.51.18-.57c.58-.11,1.47.73,1.46-.52-2.47.32-1.27-.52-1.68-1.06-.1-.13-.43.01-.51-.03-.41.36-.57.19-.27-.27-.23-.34-.25-.7-.27-1.09.35-.25.62-.61.82-1.09.38,1.6.27,2.23,1.91,3,.03.15-.05.5,0,.55.13.13.83-.22.55,1.09h-2.19Z" fill="#e2bf43"/>
          <path d="M12.46,10.39c-.85-.52-.82-3.06-.27-3.82.51-.02.57.13.82.55.1.78.26,1.3.27,2.18,0,.54,0,1.09,0,1.64-.07.11-.6-.47-.82-.55Z" fill="#be5b3e"/>
          <path d="M14.1,15.31c.26.06.37.23.49.45.53,1.02.14,4.07.02,5.38-.06.64-.21,1.51-.51,2.08.2-2.62.59-5.34,0-7.92Z" fill="#eff3e0"/>
          <path d="M9.18,10.66c-.35.36-.36.21-.27-.27-.2-1.1.17-2.21.27-3.28.14-.14.39-.53.55-.55.79,1.05.83,2.81,0,3.82-.1.05-.53.24-.55.27Z" fill="#c06041"/>
          <path d="M5.91,12.3c.05-.07-.16-.48.17-.56.54-.13,1.4.1,2.01.01.44-.11.44.07,0,.55-.14.09-.28.57-.43.56-.4-.02-1.06-.86-1.75-.56Z" fill="#faf1ce"/>
          <path d="M13.55,15.03s-.11-.47.18-.55c.6-.16,1.6.11,2.28,0-.07.05-.09.4-.45.5-.56.15-1.26-.16-1.74.32h-.27c-.24-.08-.23-.17,0-.27Z" fill="#eff3e0"/>
          <path d="M8.09,12.3c.03-.17-.04-.4,0-.55.12-.4.72-.87.82-1.37.01.06.22.17.27.27-.46,1.09.44.65-1.09,1.64Z" fill="#dac05e"/>
          <path d="M15.74,12.3c.71.27,1.34.45,1.06,1.46-.09.33-.45.37-.51.45.1-.74-.04-1.36-.55-1.91Z" fill="#f6f4d5"/>
          <path d="M10.27,36.88c.12.22.51.64.55.82.08.49-.06,1.12,0,1.64-.43-1.1-.37-1.4-.55-2.46Z" fill="#4e7ca4"/>
          <path d="M11.09,16.12c-.22,4.51-.13,9.04.29,13.58.35,2.51-1.08,4.15-1.18.79l-.48-2.36c-.69-3.63-1.28-7.42-1.6-11.1-.05-.53-.31-1.06.51-.92.34.22,1.33-.28,1.64-.55.27,0,.55,0,.82,0,.73.09.69.34,0,.55Z" fill="#c0d2e4"/>
          <path d="M9.73,10.39c.03-1.27-.04-2.55,0-3.82.45-.54,1.17-.54,2.18,0,.09,0,.18,0,.27,0,.38,1.29.2,2.54.27,3.82-.88-.32-1.86-.39-2.73,0Z" fill="#ed652a"/>
          <path d="M12.19,12.85c.53,3.12-3.55,1.23-1.93.12.42-.29,1.39-.07,1.93-.12Z" fill="#e58412"/>
          <path d="M13,11.76c.15.83-.42.53-.94.55-.78.03-1.56-.02-2.33,0,.15-1.41,2.01-1.14,3-.82.09.03.18.22.27.27Z" fill="#d89119"/>
          <path d="M13.28,16.12c.14.28.51.36.54.96.1,2.28-.56,6.78-.81,9.27-.39,3.83-1.15,7.62-1.36,11.47l-.55-.41c.03-.07-.03-.18,0-.27.16-6.73.11-13.49-.16-20.3l.16-.72c.31-.43,1.88-.79,2.18,0Z" fill="#6bb0de"/>
          <path d="M11.09,16.12v-.55c1.57.02.97-.23,1.58-.54.25-.12.75.06.88,0v.27c-.85-.08-.56.25-.27.82-.6.11-1.69-.16-2.18,0Z" fill="#80a7a6"/>
          <path d="M9.73,28.14c.23,1.18.9,2.37.55,3.82.52.08.73-.21.82-.68.29-1.6-.25-3.33-.28-4.9-.06-2.79-.33-7.25,0-9.86.04-.28,0-.31.28-.4,0,5.08,1.2,16.91,0,21.03l-1.37-9.01Z" fill="#9dcbef"/>
          <path d="M9.73,6.57c.06-1.77-.08-3.41,2.19-3v3c-.05,0-.29.29-.67.3-.54.02-1.21-.34-1.51-.3Z" fill="#f4c52a"/>
        </g>
        <g>
          <path d="M50.46,16.12l-.32-.28c-.55.46-.9.37-1.05-.26-1.33-.45-2.2-1.06-1.91-2.6.1-.56.44-.52.54-.68.44-.36,1.17-.36,2.18,0,.33-.6.69-1.15,1.09-1.64-.35-.67.09-.86.55-.27.05-1.18,2.68-1.13,2.73,0,.45.47.54.83.27,1.09-.36.49-.27.58.27.27.13-1.05.96-.21,1.13.6.52-.02.87.14,1.06.49.49.77.1,1.07-1.14.9l-.49.2-.21.64c-1.48.43-2.5.77-3.07,1,.47.91-1.49,1.61-1.64.55Z" fill="#f0bb2d"/>
          <path d="M52.65,39.33c-.21-.64-.21-1.18,0-1.64-.17-.45-.15-.55.27-.27l.3-.27c.56-5.8,1.15-11.55,1.77-17.25.06-1.35.1-2.61.11-3.78-1.32-.17-.7-1.3.27-.82.08-.24.17-.23.27,0h.27c.72,2.51.72,5.15,0,7.92-.21,2.68-.52,5.62-.85,8.29-.15,1.18-1.05,8.74-1.74,8.91s-.59-.85-.68-1.09Z" fill="#3d77a2"/>
          <path d="M52.1,36.88c-.73-4.33-1.55-8.65-2.15-13.01-.37-2.75-.77-5.53-.86-8.29.27.09.83-.11,1.18,0,.3.09.16.54.19.55.34,3.68.77,7.41,1.3,11.17l-.21.85c.32,1.26.52,2.54.62,3.84l.53.11c.28,1.67.29,3.37.21,5.06.24.07.23.16,0,.27-.04.09-.21.17-.27.27-.26-.05-.45-.33-.55-.82Z" fill="#497595"/>
          <path d="M54.83,7.11c-.27.13-.54-.05-.82-.55-.03.25-.12.23-.27,0l-.55-.3c.44-2.98-1.08-2.97-1.08-.19l-.56.48c-.12.55-.3.73-.55.55.12-1.25-.18-4.7,1.77-4.67,1.84.03,1.29,1.2,1.51,2.06.31,1.15.38,1.34.53,2.61Z" fill="#e1bb54"/>
          <path d="M52.92,15.58c-.25.53-.57.53-.82,0,.03-.03-.08-.38.05-.49s2.14-.21,3.23-1.15l.12-.27c1.24.24,1.75-.04,1.52-.83-.74-.1-.7-.32,0-.55.12.06.41-.05.55,0,.78.42,1.17,1.22.55,1.91-.05.07-.2.22-.27.27-.83.14-1.65.32-2.46.55-.01.12-.2.18-.55.19-.13.79-1.41.78-1.9.36Z" fill="#d8c66e"/>
          <path d="M55.38,13.94s-.13-.51.18-.57c.58-.11,1.47.73,1.46-.52-2.47.32-1.27-.52-1.68-1.06-.1-.13-.43.01-.51-.03-.41.36-.57.19-.27-.27-.23-.34-.25-.7-.27-1.09.35-.25.62-.61.82-1.09.38,1.6.27,2.23,1.91,3,.03.15-.05.5,0,.55.13.13.83-.22.55,1.09h-2.19Z" fill="#e2bf43"/>
          <path d="M54.29,10.39c-.85-.52-.82-3.06-.27-3.82.51-.02.57.13.82.55.1.78.26,1.3.27,2.18,0,.54,0,1.09,0,1.64-.07.11-.6-.47-.82-.55Z" fill="#be5b3e"/>
          <path d="M55.92,15.31c.26.06.37.23.49.45.53,1.02.14,4.07.02,5.38-.06.64-.21,1.51-.51,2.08.2-2.62.59-5.34,0-7.92Z" fill="#eff3e0"/>
          <path d="M51.01,10.66c-.35.36-.36.21-.27-.27-.2-1.1.17-2.21.27-3.28.14-.14.39-.53.55-.55.79,1.05.83,2.81,0,3.82-.1.05-.53.24-.55.27Z" fill="#c06041"/>
          <path d="M47.73,12.3c.05-.07-.16-.48.17-.56.54-.13,1.4.1,2.01.01.44-.11.44.07,0,.55-.14.09-.28.57-.43.56-.4-.02-1.06-.86-1.75-.56Z" fill="#faf1ce"/>
          <path d="M55.38,15.03s-.11-.47.18-.55c.6-.16,1.6.11,2.28,0-.07.05-.09.4-.45.5-.56.15-1.26-.16-1.74.32h-.27c-.24-.08-.23-.17,0-.27Z" fill="#eff3e0"/>
          <path d="M49.92,12.3c.03-.17-.04-.4,0-.55.12-.4.72-.87.82-1.37.01.06.22.17.27.27-.46,1.09.44.65-1.09,1.64Z" fill="#dac05e"/>
          <path d="M57.56,12.3c.71.27,1.34.45,1.06,1.46-.09.33-.45.37-.51.45.1-.74-.04-1.36-.55-1.91Z" fill="#f6f4d5"/>
          <path d="M52.1,36.88c.12.22.51.64.55.82.08.49-.06,1.12,0,1.64-.43-1.1-.37-1.4-.55-2.46Z" fill="#4e7ca4"/>
          <path d="M52.92,16.12c-.22,4.51-.13,9.04.29,13.58.35,2.51-1.08,4.15-1.18.79l-.48-2.36c-.69-3.63-1.28-7.42-1.6-11.1-.05-.53-.31-1.06.51-.92.34.22,1.33-.28,1.64-.55.27,0,.55,0,.82,0,.73.09.69.34,0,.55Z" fill="#c0d2e4"/>
          <path d="M51.56,10.39c.03-1.27-.04-2.55,0-3.82.45-.54,1.17-.54,2.18,0,.09,0,.18,0,.27,0,.38,1.29.2,2.54.27,3.82-.88-.32-1.86-.39-2.73,0Z" fill="#ed652a"/>
          <path d="M54.01,12.85c.53,3.12-3.55,1.23-1.93.12.42-.29,1.39-.07,1.93-.12Z" fill="#e58412"/>
          <path d="M54.83,11.76c.15.83-.42.53-.94.55-.78.03-1.56-.02-2.33,0,.15-1.41,2.01-1.14,3-.82.09.03.18.22.27.27Z" fill="#d89119"/>
          <path d="M55.11,16.12c.14.28.51.36.54.96.1,2.28-.56,6.78-.81,9.27-.39,3.83-1.15,7.62-1.36,11.47l-.55-.41c.03-.07-.03-.18,0-.27.16-6.73.11-13.49-.16-20.3l.16-.72c.31-.43,1.88-.79,2.18,0Z" fill="#6bb0de"/>
          <path d="M52.92,16.12v-.55c1.57.02.97-.23,1.58-.54.25-.12.75.06.88,0v.27c-.85-.08-.56.25-.27.82-.6.11-1.69-.16-2.18,0Z" fill="#80a7a6"/>
          <path d="M51.56,28.14c.23,1.18.9,2.37.55,3.82.52.08.73-.21.82-.68.29-1.6-.25-3.33-.28-4.9-.06-2.79-.33-7.25,0-9.86.04-.28,0-.31.28-.4,0,5.08,1.2,16.91,0,21.03l-1.37-9.01Z" fill="#9dcbef"/>
          <path d="M51.56,6.57c.06-1.77-.08-3.41,2.19-3v3c-.05,0-.29.29-.67.3-.54.02-1.21-.34-1.51-.3Z" fill="#f4c52a"/>
        </g>
        <g>
          <path d="M55.36,79.75l.32.28c.55-.46.9-.37,1.05.26,1.33.45,2.2,1.06,1.91,2.6-.1.56-.44.52-.54.68-.44.36-1.17.36-2.18,0-.33.6-.69,1.15-1.09,1.64.35.67-.09.86-.55.27-.05,1.18-2.68,1.13-2.73,0-.45-.47-.54-.83-.27-1.09.36-.49.27-.58-.27-.27-.13,1.05-.96.21-1.13-.6-.52.02-.87-.14-1.06-.49-.49-.77-.1-1.07,1.14-.9l.49-.2.21-.64c1.48-.43,2.5-.77,3.07-1-.47-.91,1.49-1.61,1.64-.55Z" fill="#f0bb2d"/>
          <path d="M53.18,56.54c.21.64.21,1.18,0,1.64.17.45.15.55-.27.27l-.3.27c-.56,5.8-1.15,11.55-1.77,17.25-.06,1.35-.1,2.61-.11,3.78,1.32.17.7,1.3-.27.82-.08.24-.17.23-.27,0h-.27c-.72-2.51-.72-5.15,0-7.92.21-2.68.52-5.62.85-8.29.15-1.18,1.05-8.74,1.74-8.91s.59.85.68,1.09Z" fill="#3d77a2"/>
          <path d="M53.72,59c.73,4.33,1.55,8.65,2.15,13.01.37,2.75.77,5.53.86,8.29-.27-.09-.83.11-1.18,0-.3-.09-.16-.54-.19-.55-.34-3.68-.77-7.41-1.3-11.17l.21-.85c-.32-1.26-.52-2.54-.62-3.84l-.53-.11c-.28-1.67-.29-3.37-.21-5.06-.24-.07-.23-.16,0-.27.04-.09.21-.17.27-.27.26.05.45.33.55.82Z" fill="#497595"/>
          <path d="M50.99,88.76c.27-.13.54.05.82.55.03-.25.12-.23.27,0l.55.3c-.44,2.98,1.08,2.97,1.08.19l.56-.48c.12-.55.3-.73.55-.55-.12,1.25.18,4.7-1.77,4.67-1.84-.03-1.29-1.2-1.51-2.06-.31-1.15-.38-1.34-.53-2.61Z" fill="#e1bb54"/>
          <path d="M52.9,80.3c.25-.53.57-.53.82,0-.03.03.08.38-.05.49s-2.14.21-3.23,1.15l-.12.27c-1.24-.24-1.75.04-1.52.83.74.1.7.32,0,.55-.12-.06-.41.05-.55,0-.78-.42-1.17-1.22-.55-1.91.05-.07.2-.22.27-.27.83-.14,1.65-.32,2.46-.55.01-.12.2-.18.55-.19.13-.79,1.41-.78,1.9-.36Z" fill="#d8c66e"/>
          <path d="M50.45,81.94s.13.51-.18.57c-.58.11-1.47-.73-1.46.52,2.47-.32,1.27.52,1.68,1.06.1.13.43-.01.51.03.41-.36.57-.19.27.27.23.34.25.7.27,1.09-.35.25-.62.61-.82,1.09-.38-1.6-.27-2.23-1.91-3-.03-.15.05-.5,0-.55-.13-.13-.83.22-.55-1.09h2.19Z" fill="#e2bf43"/>
          <path d="M51.54,85.49c.85.52.82,3.06.27,3.82-.51.02-.57-.13-.82-.55-.1-.78-.26-1.3-.27-2.18,0-.54,0-1.09,0-1.64.07-.11.6.47.82.55Z" fill="#be5b3e"/>
          <path d="M49.9,80.57c-.26-.06-.37-.23-.49-.45-.53-1.02-.14-4.07-.02-5.38.06-.64.21-1.51.51-2.08-.2,2.62-.59,5.34,0,7.92Z" fill="#eff3e0"/>
          <path d="M54.82,85.21c.35-.36.36-.21.27.27.2,1.1-.17,2.21-.27,3.28-.14.14-.39.53-.55.55-.79-1.05-.83-2.81,0-3.82.1-.05.53-.24.55-.27Z" fill="#c06041"/>
          <path d="M58.09,83.57c-.05.07.16.48-.17.56-.54.13-1.4-.1-2.01-.01-.44.11-.44-.07,0-.55.14-.09.28-.57.43-.56.4.02,1.06.86,1.75.56Z" fill="#faf1ce"/>
          <path d="M50.45,80.84s.11.47-.18.55c-.6.16-1.6-.11-2.28,0,.07-.05.09-.4.45-.5.56-.15,1.26.16,1.74-.32h.27c.24.08.23.17,0,.27Z" fill="#eff3e0"/>
          <path d="M55.91,83.57c-.03.17.04.4,0,.55-.12.4-.72.87-.82,1.37-.01-.06-.22-.17-.27-.27.46-1.09-.44-.65,1.09-1.64Z" fill="#dac05e"/>
          <path d="M48.26,83.57c-.71-.27-1.34-.45-1.06-1.46.09-.33.45-.37.51-.45-.1.74.04,1.36.55,1.91Z" fill="#f6f4d5"/>
          <path d="M53.72,59c-.12-.22-.51-.64-.55-.82-.08-.49.06-1.12,0-1.64.43,1.1.37,1.4.55,2.46Z" fill="#4e7ca4"/>
          <path d="M52.9,79.75c.22-4.51.13-9.04-.29-13.58-.35-2.51,1.08-4.15,1.18-.79l.48,2.36c.69,3.63,1.28,7.42,1.6,11.1.05.53.31,1.06-.51.92-.34-.22-1.33.28-1.64.55-.27,0-.55,0-.82,0-.73-.09-.69-.34,0-.55Z" fill="#c0d2e4"/>
          <path d="M54.27,85.49c-.03,1.27.04,2.55,0,3.82-.45.54-1.17.54-2.18,0-.09,0-.18,0-.27,0-.38-1.29-.2-2.54-.27-3.82.88.32,1.86.39,2.73,0Z" fill="#ed652a"/>
          <path d="M51.81,83.03c-.53-3.12,3.55-1.23,1.93-.12-.42.29-1.39.07-1.93.12Z" fill="#e58412"/>
          <path d="M50.99,84.12c-.15-.83.42-.53.94-.55.78-.03,1.56.02,2.33,0-.15,1.41-2.01,1.14-3,.82-.09-.03-.18-.22-.27-.27Z" fill="#d89119"/>
          <path d="M50.72,79.75c-.14-.28-.51-.36-.54-.96-.1-2.28.56-6.78.81-9.27.39-3.83,1.15-7.62,1.36-11.47l.55.41c-.03.07.03.18,0,.27-.16,6.73-.11,13.49.16,20.3l-.16.72c-.31.43-1.88.79-2.18,0Z" fill="#6bb0de"/>
          <path d="M52.9,79.75v.55c-1.57-.02-.97.23-1.58.54-.25.12-.75-.06-.88,0v-.27c.85.08.56-.25.27-.82.6-.11,1.69.16,2.18,0Z" fill="#80a7a6"/>
          <path d="M54.27,67.74c-.23-1.18-.9-2.37-.55-3.82-.52-.08-.73.21-.82.68-.29,1.6.25,3.33.28,4.9.06,2.79.33,7.25,0,9.86-.04.28,0,.31-.28.4,0-5.08-1.2-16.91,0-21.03l1.37,9.01Z" fill="#9dcbef"/>
          <path d="M54.27,89.31c-.06,1.77.08,3.41-2.19,3v-3c.05,0,.29-.29.67-.3.54-.02,1.21.34,1.51.3Z" fill="#f4c52a"/>
        </g>
        <g>
          <path d="M13.53,79.75l.32.28c.55-.46.9-.37,1.05.26,1.33.45,2.2,1.06,1.91,2.6-.1.56-.44.52-.54.68-.44.36-1.17.36-2.18,0-.33.6-.69,1.15-1.09,1.64.35.67-.09.86-.55.27-.05,1.18-2.68,1.13-2.73,0-.45-.47-.54-.83-.27-1.09.36-.49.27-.58-.27-.27-.13,1.05-.96.21-1.13-.6-.52.02-.87-.14-1.06-.49-.49-.77-.1-1.07,1.14-.9l.49-.2.21-.64c1.48-.43,2.5-.77,3.07-1-.47-.91,1.49-1.61,1.64-.55Z" fill="#f0bb2d"/>
          <path d="M11.35,56.54c.21.64.21,1.18,0,1.64.17.45.15.55-.27.27l-.3.27c-.56,5.8-1.15,11.55-1.77,17.25-.06,1.35-.1,2.61-.11,3.78,1.32.17.7,1.3-.27.82-.08.24-.17.23-.27,0h-.27c-.72-2.51-.72-5.15,0-7.92.21-2.68.52-5.62.85-8.29.15-1.18,1.05-8.74,1.74-8.91s.59.85.68,1.09Z" fill="#3d77a2"/>
          <path d="M11.9,59c.73,4.33,1.55,8.65,2.15,13.01.37,2.75.77,5.53.86,8.29-.27-.09-.83.11-1.18,0-.3-.09-.16-.54-.19-.55-.34-3.68-.77-7.41-1.3-11.17l.21-.85c-.32-1.26-.52-2.54-.62-3.84l-.53-.11c-.28-1.67-.29-3.37-.21-5.06-.24-.07-.23-.16,0-.27.04-.09.21-.17.27-.27.26.05.45.33.55.82Z" fill="#497595"/>
          <path d="M9.17,88.76c.27-.13.54.05.82.55.03-.25.12-.23.27,0l.55.3c-.44,2.98,1.08,2.97,1.08.19l.56-.48c.12-.55.3-.73.55-.55-.12,1.25.18,4.7-1.77,4.67-1.84-.03-1.29-1.2-1.51-2.06-.31-1.15-.38-1.34-.53-2.61Z" fill="#e1bb54"/>
          <path d="M11.08,80.3c.25-.53.57-.53.82,0-.03.03.08.38-.05.49s-2.14.21-3.23,1.15l-.12.27c-1.24-.24-1.75.04-1.52.83.74.1.7.32,0,.55-.12-.06-.41.05-.55,0-.78-.42-1.17-1.22-.55-1.91.05-.07.2-.22.27-.27.83-.14,1.65-.32,2.46-.55.01-.12.2-.18.55-.19.13-.79,1.41-.78,1.9-.36Z" fill="#d8c66e"/>
          <path d="M8.62,81.94s.13.51-.18.57c-.58.11-1.47-.73-1.46.52,2.47-.32,1.27.52,1.68,1.06.1.13.43-.01.51.03.41-.36.57-.19.27.27.23.34.25.7.27,1.09-.35.25-.62.61-.82,1.09-.38-1.6-.27-2.23-1.91-3-.03-.15.05-.5,0-.55-.13-.13-.83.22-.55-1.09h2.19Z" fill="#e2bf43"/>
          <path d="M9.71,85.49c.85.52.82,3.06.27,3.82-.51.02-.57-.13-.82-.55-.1-.78-.26-1.3-.27-2.18,0-.54,0-1.09,0-1.64.07-.11.6.47.82.55Z" fill="#be5b3e"/>
          <path d="M8.07,80.57c-.26-.06-.37-.23-.49-.45-.53-1.02-.14-4.07-.02-5.38.06-.64.21-1.51.51-2.08-.2,2.62-.59,5.34,0,7.92Z" fill="#eff3e0"/>
          <path d="M12.99,85.21c.35-.36.36-.21.27.27.2,1.1-.17,2.21-.27,3.28-.14.14-.39.53-.55.55-.79-1.05-.83-2.81,0-3.82.1-.05.53-.24.55-.27Z" fill="#c06041"/>
          <path d="M16.26,83.57c-.05.07.16.48-.17.56-.54.13-1.4-.1-2.01-.01-.44.11-.44-.07,0-.55.14-.09.28-.57.43-.56.4.02,1.06.86,1.75.56Z" fill="#faf1ce"/>
          <path d="M8.62,80.84s.11.47-.18.55c-.6.16-1.6-.11-2.28,0,.07-.05.09-.4.45-.5.56-.15,1.26.16,1.74-.32h.27c.24.08.23.17,0,.27Z" fill="#eff3e0"/>
          <path d="M14.08,83.57c-.03.17.04.4,0,.55-.12.4-.72.87-.82,1.37-.01-.06-.22-.17-.27-.27.46-1.09-.44-.65,1.09-1.64Z" fill="#dac05e"/>
          <path d="M6.43,83.57c-.71-.27-1.34-.45-1.06-1.46.09-.33.45-.37.51-.45-.1.74.04,1.36.55,1.91Z" fill="#f6f4d5"/>
          <path d="M11.9,59c-.12-.22-.51-.64-.55-.82-.08-.49.06-1.12,0-1.64.43,1.1.37,1.4.55,2.46Z" fill="#4e7ca4"/>
          <path d="M11.08,79.75c.22-4.51.13-9.04-.29-13.58-.35-2.51,1.08-4.15,1.18-.79l.48,2.36c.69,3.63,1.28,7.42,1.6,11.1.05.53.31,1.06-.51.92-.34-.22-1.33.28-1.64.55-.27,0-.55,0-.82,0-.73-.09-.69-.34,0-.55Z" fill="#c0d2e4"/>
          <path d="M12.44,85.49c-.03,1.27.04,2.55,0,3.82-.45.54-1.17.54-2.18,0-.09,0-.18,0-.27,0-.38-1.29-.2-2.54-.27-3.82.88.32,1.86.39,2.73,0Z" fill="#ed652a"/>
          <path d="M9.98,83.03c-.53-3.12,3.55-1.23,1.93-.12-.42.29-1.39.07-1.93.12Z" fill="#e58412"/>
          <path d="M9.17,84.12c-.15-.83.42-.53.94-.55.78-.03,1.56.02,2.33,0-.15,1.41-2.01,1.14-3,.82-.09-.03-.18-.22-.27-.27Z" fill="#d89119"/>
          <path d="M8.89,79.75c-.14-.28-.51-.36-.54-.96-.1-2.28.56-6.78.81-9.27.39-3.83,1.15-7.62,1.36-11.47l.55.41c-.03.07.03.18,0,.27-.16,6.73-.11,13.49.16,20.3l-.16.72c-.31.43-1.88.79-2.18,0Z" fill="#6bb0de"/>
          <path d="M11.08,79.75v.55c-1.57-.02-.97.23-1.58.54-.25.12-.75-.06-.88,0v-.27c.85.08.56-.25.27-.82.6-.11,1.69.16,2.18,0Z" fill="#80a7a6"/>
          <path d="M12.44,67.74c-.23-1.18-.9-2.37-.55-3.82-.52-.08-.73.21-.82.68-.29,1.6.25,3.33.28,4.9.06,2.79.33,7.25,0,9.86-.04.28,0,.31-.28.4,0-5.08-1.2-16.91,0-21.03l1.37,9.01Z" fill="#9dcbef"/>
          <path d="M12.44,89.31c-.06,1.77.08,3.41-2.19,3v-3c.05,0,.29-.29.67-.3.54-.02,1.21.34,1.51.3Z" fill="#f4c52a"/>
        </g>
        <g>
          <path d="M26.68,50.45l-.28.32c.46.55.37.9-.26,1.05-.45,1.33-1.06,2.2-2.6,1.91-.56-.1-.52-.44-.68-.54-.36-.44-.36-1.17,0-2.18-.6-.33-1.15-.69-1.64-1.09-.67.35-.86-.09-.27-.55-1.18-.05-1.13-2.68,0-2.73.47-.45.83-.54,1.09-.27.49.36.58.27.27-.27-1.05-.13-.21-.96.6-1.13-.02-.52.14-.87.49-1.06.77-.49,1.07-.1.9,1.14l.2.49.64.21c.43,1.48.77,2.5,1,3.07.91-.47,1.61,1.49.55,1.64Z" fill="#f0bb2d"/>
          <path d="M49.89,48.26c-.64.21-1.18.21-1.64,0-.45.17-.55.15-.27-.27l-.27-.3c-5.8-.56-11.55-1.15-17.25-1.77-1.35-.06-2.61-.1-3.78-.11-.17,1.32-1.3.7-.82-.27-.24-.08-.23-.17,0-.27v-.27c2.51-.72,5.15-.72,7.92,0,2.68.21,5.62.52,8.29.85,1.18.15,8.74,1.05,8.91,1.74s-.85.59-1.09.68Z" fill="#3d77a2"/>
          <path d="M47.43,48.81c-4.33.73-8.65,1.55-13.01,2.15-2.75.37-5.53.77-8.29.86.09-.27-.11-.83,0-1.18.09-.3.54-.16.55-.19,3.68-.34,7.41-.77,11.17-1.3l.85.21c1.26-.32,2.54-.52,3.84-.62l.11-.53c1.67-.28,3.37-.29,5.06-.21.07-.24.16-.23.27,0,.09.04.17.21.27.27-.05.26-.33.45-.82.55Z" fill="#497595"/>
          <path d="M17.67,46.08c.13.27-.05.54-.55.82.25.03.23.12,0,.27l-.3.55c-2.98-.44-2.97,1.08-.19,1.08l.48.56c.55.12.73.3.55.55-1.25-.12-4.7.18-4.67-1.77.03-1.84,1.2-1.29,2.06-1.51,1.15-.31,1.34-.38,2.61-.53Z" fill="#e1bb54"/>
          <path d="M26.13,47.99c.53.25.53.57,0,.82-.03-.03-.38.08-.49-.05s-.21-2.14-1.15-3.23l-.27-.12c.24-1.24-.04-1.75-.83-1.52-.1.74-.32.7-.55,0,.06-.12-.05-.41,0-.55.42-.78,1.22-1.17,1.91-.55.07.05.22.2.27.27.14.83.32,1.65.55,2.46.12.01.18.2.19.55.79.13.78,1.41.36,1.9Z" fill="#d8c66e"/>
          <path d="M24.5,45.53s-.51.13-.57-.18c-.11-.58.73-1.47-.52-1.46.32,2.47-.52,1.27-1.06,1.68-.13.1.01.43-.03.51.36.41.19.57-.27.27-.34.23-.7.25-1.09.27-.25-.35-.61-.62-1.09-.82,1.6-.38,2.23-.27,3-1.91.15-.03.5.05.55,0,.13-.13-.22-.83,1.09-.55v2.19Z" fill="#e2bf43"/>
          <path d="M20.95,46.63c-.52.85-3.06.82-3.82.27-.02-.51.13-.57.55-.82.78-.1,1.3-.26,2.18-.27.54,0,1.09,0,1.64,0,.11.07-.47.6-.55.82Z" fill="#be5b3e"/>
          <path d="M25.86,44.99c.06-.26.23-.37.45-.49,1.02-.53,4.07-.14,5.38-.02.64.06,1.51.21,2.08.51-2.62-.2-5.34-.59-7.92,0Z" fill="#eff3e0"/>
          <path d="M21.22,49.9c.36.35.21.36-.27.27-1.1.2-2.21-.17-3.28-.27-.14-.14-.53-.39-.55-.55,1.05-.79,2.81-.83,3.82,0,.05.1.24.53.27.55Z" fill="#c06041"/>
          <path d="M22.86,53.18c-.07-.05-.48.16-.56-.17-.13-.54.1-1.4.01-2.01-.11-.44.07-.44.55,0,.09.14.57.28.56.43-.02.4-.86,1.06-.56,1.75Z" fill="#faf1ce"/>
          <path d="M25.59,45.53s-.47.11-.55-.18c-.16-.6.11-1.6,0-2.28.05.07.4.09.5.45.15.56-.16,1.26.32,1.74v.27c-.08.24-.17.23-.27,0Z" fill="#eff3e0"/>
          <path d="M22.86,51c-.17-.03-.4.04-.55,0-.4-.12-.87-.72-1.37-.82.06-.01.17-.22.27-.27,1.09.46.65-.44,1.64,1.09Z" fill="#dac05e"/>
          <path d="M22.86,43.35c.27-.71.45-1.34,1.46-1.06.33.09.37.45.45.51-.74-.1-1.36.04-1.91.55Z" fill="#f6f4d5"/>
          <path d="M47.43,48.81c.22-.12.64-.51.82-.55.49-.08,1.12.06,1.64,0-1.1.43-1.4.37-2.46.55Z" fill="#4e7ca4"/>
          <path d="M26.68,47.99c4.51.22,9.04.13,13.58-.29,2.51-.35,4.15,1.08.79,1.18l-2.36.48c-3.63.69-7.42,1.28-11.1,1.6-.53.05-1.06.31-.92-.51.22-.34-.28-1.33-.55-1.64,0-.27,0-.55,0-.82.09-.73.34-.69.55,0Z" fill="#c0d2e4"/>
          <path d="M20.95,49.36c-1.27-.03-2.55.04-3.82,0-.54-.45-.54-1.17,0-2.18,0-.09,0-.18,0-.27,1.29-.38,2.54-.2,3.82-.27-.32.88-.39,1.86,0,2.73Z" fill="#ed652a"/>
          <path d="M23.4,46.9c3.12-.53,1.23,3.55.12,1.93-.29-.42-.07-1.39-.12-1.93Z" fill="#e58412"/>
          <path d="M22.31,46.08c.83-.15.53.42.55.94.03.78-.02,1.56,0,2.33-1.41-.15-1.14-2.01-.82-3,.03-.09.22-.18.27-.27Z" fill="#d89119"/>
          <path d="M26.68,45.81c.28-.14.36-.51.96-.54,2.28-.1,6.78.56,9.27.81,3.83.39,7.62,1.15,11.47,1.36l-.41.55c-.07-.03-.18.03-.27,0-6.73-.16-13.49-.11-20.3.16l-.72-.16c-.43-.31-.79-1.88,0-2.18Z" fill="#6bb0de"/>
          <path d="M26.68,47.99h-.55c.02-1.57-.23-.97-.54-1.58-.12-.25.06-.75,0-.88h.27c-.08.85.25.56.82.27.11.6-.16,1.69,0,2.18Z" fill="#80a7a6"/>
          <path d="M38.69,49.36c1.18-.23,2.37-.9,3.82-.55.08-.52-.21-.73-.68-.82-1.6-.29-3.33.25-4.9.28-2.79.06-7.25.33-9.86,0-.28-.04-.31,0-.4-.28,5.08,0,16.91-1.2,21.03,0l-9.01,1.37Z" fill="#9dcbef"/>
          <path d="M17.12,49.36c-1.77-.06-3.41.08-3-2.19h3c0,.05.29.29.3.67.02.54-.34,1.21-.3,1.51Z" fill="#f4c52a"/>
        </g>
      </g>
    </g>
  </g>
</svg>