<?xml version="1.0" encoding="UTF-8"?>
<svg id="Layer_2" data-name="Layer 2" xmlns="http://www.w3.org/2000/svg" viewBox="0 0 64 96">
  <g id="Cards">
    <g id="Swords">
      <g id="FourOfSwrods">
        <path d="M60.78,88.09v1.58h3.22v1.32l-3.42,5h-1.27v-5h-.98v-1.33h.98v-1.58h1.46ZM60.78,91v2.69l1.81-2.69h-1.81Z" fill="#2a2b2c"/>
        <path d="M3.22,7.91v-1.58H0v-1.32L3.42,0h1.27v5h.98v1.33h-.98v1.58h-1.46ZM3.22,5v-2.69l-1.81,2.69h1.81Z" fill="#2a2b2c"/>
        <g>
          <path d="M11.04,21.31l-.46-.09c-.27.73-.64.84-1.13.32-1.5.31-2.65.2-3.21-1.41-.21-.58.13-.73.14-.94.22-.58.91-.98,2.06-1.19-.02-.75.03-1.46.14-2.14-.69-.44-.38-.86.37-.55-.59-1.14,1.91-2.52,2.57-1.49.68.19.96.49.85.88-.07.65.06.69.41.11-.45-1.06.8-.72,1.39-.04.48-.3.9-.34,1.26-.12.88.46.68.95-.59,1.47l-.36.45.15.72c-1.16,1.22-1.94,2.08-2.35,2.61.94.6-.53,2.32-1.25,1.41Z" fill="#f0bb2d"/>
          <path d="M25.73,42c-.55-.48-.85-1-.89-1.54-.4-.33-.44-.44.11-.41l.13-.42c-2.63-5.77-5.2-11.51-7.72-17.22-.68-1.3-1.32-2.51-1.95-3.62-1.34.56-1.36-.84-.19-.92-.06-.27.03-.31.26-.15l.26-.15c2.05,1.98,3.48,4.46,4.31,7.46,1.26,2.64,2.57,5.58,3.71,8.28.5,1.19,3.77,8.81,3.2,9.35s-1.01-.48-1.23-.66Z" fill="#3d77a2"/>
          <path d="M23.88,39.98c-3.04-3.69-6.17-7.31-9.1-11.1-1.85-2.39-3.74-4.79-5.32-7.35.3-.06.72-.55,1.11-.65.33-.08.44.42.48.42,2.32,3.29,4.76,6.56,7.31,9.82l.26.91c.99,1.02,1.88,2.11,2.67,3.28l.56-.18c1.18,1.42,2.11,3.02,2.96,4.66.26-.07.3.02.15.26,0,.11-.1.27-.11.41-.28.09-.6-.07-.96-.47Z" fill="#497595"/>
          <path d="M10.25,10.44c-.18.27-.54.25-1.07-.07.11.25.01.29-.26.15l-.68.02c-1.2-3.05-2.63-2.21-1.12.41l-.26.76c.19.58.11.85-.22.81-.57-1.24-2.73-4.34-.87-5.37,1.75-.97,1.87.43,2.55,1.12.92.92,1.09,1.06,1.92,2.17Z" fill="#e1bb54"/>
          <path d="M13.06,19.46c.05.63-.25.81-.77.45.02-.05-.29-.31-.22-.48s1.9-1.36,2.42-2.84l-.03-.32c1.3-.45,1.63-.99.98-1.6-.75.31-.83.08-.3-.51.14-.01.35-.27.51-.3.96-.03,1.76.51,1.56,1.5,0,.1-.07.32-.11.41-.7.58-1.38,1.2-2.02,1.85.06.12-.08.28-.42.48.31.82-.91,1.51-1.6,1.38Z" fill="#d8c66e"/>
          <path d="M14.48,16.58s-.4-.41-.14-.63c.48-.42,1.78-.11,1.09-1.29-2.16,1.64-1.48.2-2.16-.09-.16-.07-.4.24-.5.25-.19.56-.43.48-.41-.11-.4-.19-.62-.52-.85-.88.2-.42.26-.92.18-1.48,1.23,1.3,1.47,1.95,3.44,1.79.11.13.23.5.3.51.19.05.66-.66,1.11.73l-2.06,1.19Z" fill="#e2bf43"/>
          <path d="M11.52,13.83c-1.08-.03-2.43-2.44-2.34-3.46.47-.29.61-.18,1.07.07.52.68.95,1.08,1.45,1.91.3.51.59,1.03.89,1.55-.01.14-.82-.11-1.07-.07Z" fill="#be5b3e"/>
          <path d="M15.74,17.57c.28-.09.48.01.71.16,1.05.68,2.35,3.76,2.95,5.06.29.63.63,1.54.65,2.24-1.23-2.57-2.35-5.35-4.31-7.46Z" fill="#eff3e0"/>
          <path d="M8.58,15.87c-.14.53-.23.39-.41-.11-.78-.93-1.04-2.18-1.53-3.24.06-.21.08-.71.22-.81,1.32.56,2.32,2.2,2.08,3.6-.07.1-.37.52-.37.55Z" fill="#c06041"/>
          <path d="M6.38,19.2c0-.09-.41-.37-.14-.62.44-.42,1.38-.67,1.9-1.09.36-.35.46-.18.3.51-.08.16.05.69-.1.77-.39.2-1.47-.23-1.96.42Z" fill="#faf1ce"/>
          <path d="M15.08,17.61s-.36-.39-.13-.62c.48-.48,1.57-.77,2.15-1.24-.04.09.13.43-.15.71-.45.45-1.27.54-1.46,1.25l-.26.15c-.27.06-.31-.03-.15-.26Z" fill="#eff3e0"/>
          <path d="M8.44,18.01c-.07-.18-.26-.36-.3-.51-.1-.44.2-1.21.03-1.73.04.05.3.04.41.11.16,1.28.77.38-.14,2.14Z" fill="#dac05e"/>
          <path d="M15.65,13.85c.82-.13,1.51-.31,1.79.8.09.37-.23.59-.24.7-.31-.75-.78-1.26-1.56-1.5Z" fill="#f6f4d5"/>
          <path d="M23.88,39.98c.23.14.83.32.96.47.34.41.56,1.09.89,1.54-1-.8-1.11-1.12-1.85-2.02Z" fill="#4e7ca4"/>
          <path d="M13.35,19.98c2.24,4.37,4.8,8.59,7.67,12.64,1.69,2.18,1.24,4.51-.68,1.39l-1.74-1.96c-2.63-3.04-5.25-6.29-7.55-9.59-.33-.47-.87-.83-.01-1.14.45.02,1.1-.98,1.25-1.41.26-.15.51-.3.77-.45.73-.31.84-.06.3.51Z" fill="#c0d2e4"/>
          <path d="M8.94,15.31c-.66-1.21-1.43-2.39-2.08-3.6.12-.75.81-1.15,2.06-1.19.08-.06.17-.1.26-.15,1.06,1,1.57,2.28,2.34,3.46-1,.18-1.97.65-2.57,1.49Z" fill="#ed652a"/>
          <path d="M12.6,16.29c2.2,2.65-2.67,3.09-1.75,1.16.24-.5,1.28-.82,1.75-1.16Z" fill="#e58412"/>
          <path d="M12.78,14.82c.59.7-.11.72-.59,1.03-.71.45-1.48.83-2.2,1.27-.62-1.41,1.28-2.17,2.39-2.4.1-.02.29.11.41.11Z" fill="#d89119"/>
          <path d="M15.41,18.79c.29.18.68.06,1.03.61,1.34,2.09,3.16,6.69,4.28,9.19,1.72,3.82,3.06,7.81,4.96,11.55l-.74-.09c0-.08-.12-.16-.15-.26-3.51-6.43-7.24-12.78-11.2-19.05l-.25-.77c.06-.57,1.34-1.77,2.06-1.19Z" fill="#6bb0de"/>
          <path d="M13.35,19.98l-.3-.51c1.49-.83.79-.74,1.19-1.36.16-.25.74-.35.82-.49l.15.26c-.84.39-.4.54.19.92-.51.43-1.68.77-2.06,1.19Z" fill="#80a7a6"/>
          <path d="M18.6,32.04c.85.99,2.14,1.74,2.6,3.3.54-.21.57-.6.4-1.09-.6-1.67-2.05-3-2.94-4.46-1.57-2.6-4.25-6.66-5.36-9.3-.12-.28-.16-.29.05-.53,2.77,4.79,10.33,15.29,11.44,19.82l-6.19-7.75Z" fill="#9dcbef"/>
          <path d="M6.86,11.71c-.91-1.69-1.94-3.17.43-4.02l1.63,2.83s-.12.43-.47.65c-.5.31-1.32.34-1.59.54Z" fill="#f4c52a"/>
        </g>
        <g>
          <path d="M48.08,18.57l-.14-.44c-.76.13-1.04-.14-.84-.81-1-1.13-1.48-2.17-.38-3.46.4-.47.69-.25.87-.34.61-.1,1.29.29,2.04,1.18.63-.39,1.27-.7,1.9-.94.03-.81.55-.75.66.04.68-1.07,3.11.39,2.55,1.47.17.68.06,1.07-.33,1.17-.6.26-.56.39.11.4.69-.91,1.01.33.73,1.17.5.26.74.61.73,1.03.04.98-.48,1.05-1.55.22l-.57-.08-.54.49c-1.62-.39-2.75-.63-3.4-.72-.05,1.1-2.26.7-1.83-.37Z" fill="#f0bb2d"/>
          <path d="M37.6,41.43c.14-.71.44-1.22.88-1.53.08-.51.16-.59.4-.11l.43-.09c3.65-5.12,7.3-10.17,10.96-15.16.78-1.23,1.5-2.38,2.14-3.47-1.14-.88.05-1.59.7-.62.2-.18.28-.13.26.15l.26.15c-.68,2.73-2.11,5.2-4.27,7.4-1.64,2.39-3.52,4.98-5.27,7.29-.78,1.02-5.7,7.6-6.44,7.38s-.09-1.11-.05-1.39Z" fill="#3d77a2"/>
          <path d="M38.41,38.84c1.66-4.44,3.22-8.92,5.01-13.31,1.13-2.77,2.26-5.58,3.67-8.21.2.23.83.35,1.1.63.23.25-.14.59-.12.62-1.67,3.62-3.28,7.33-4.81,11.14l-.65.68c-.38,1.35-.88,2.66-1.49,3.92l.44.39c-.64,1.72-1.55,3.31-2.53,4.85.18.19.13.27-.15.26-.09.06-.29.05-.4.11-.22-.19-.24-.55-.07-1.06Z" fill="#497595"/>
          <path d="M57.02,12.5c-.32-.03-.48-.34-.47-.95-.16.22-.24.15-.26-.15l-.35-.57c2.02-2.55.59-3.36-.91-.76l-.78.15c-.41.45-.68.52-.8.22.78-1.11,2.37-4.49,4.18-3.41,1.7,1.02.55,1.82.3,2.74-.34,1.24-.37,1.46-.91,2.73Z" fill="#e1bb54"/>
          <path d="M50.67,19.38c-.52.36-.82.19-.77-.44.05,0,.13-.4.31-.43s2.11.95,3.64.67l.26-.18c1.03.89,1.65.91,1.86.05-.64-.49-.48-.67.29-.51.08.12.41.17.51.29.5.81.43,1.77-.52,2.08-.09.04-.31.1-.4.11-.85-.32-1.71-.59-2.59-.82-.08.11-.28.07-.62-.13-.55.67-1.74-.03-1.97-.69Z" fill="#d8c66e"/>
          <path d="M53.85,19.18s.16-.54.47-.43c.6.21.97,1.48,1.65.3-2.48-1.04-.91-1.17-.99-1.9-.02-.17-.41-.22-.46-.3-.57.12-.63-.13-.11-.4-.03-.44.14-.79.33-1.17.46-.04.91-.23,1.35-.58-.51,1.7-.95,2.23.17,3.84-.05.16-.32.44-.29.51.06.19.9.24-.08,1.31l-2.04-1.18Z" fill="#e2bf43"/>
          <path d="M54.74,15.27c-.51-.94.89-3.3,1.81-3.72.48.26.46.43.47.95-.33.78-.46,1.35-.92,2.19-.29.51-.59,1.02-.89,1.53-.13.06-.31-.76-.47-.95Z" fill="#be5b3e"/>
          <path d="M53.62,20.75c.21.2.22.42.21.69-.06,1.24-2.06,3.88-2.88,5.04-.4.56-1.01,1.3-1.6,1.67,1.6-2.34,3.43-4.67,4.27-7.4Z" fill="#eff3e0"/>
          <path d="M51.54,13.76c-.52.14-.45,0-.11-.4.41-1.13,1.35-1.97,2.02-2.91.21-.05.65-.28.8-.22.18,1.41-.74,3.08-2.06,3.57-.12-.01-.63-.06-.66-.04Z" fill="#c06041"/>
          <path d="M47.59,13.52c.08-.04.11-.53.46-.43.58.17,1.26.86,1.87,1.1.48.13.38.3-.29.51-.18,0-.57.38-.71.29-.36-.23-.53-1.38-1.33-1.47Z" fill="#faf1ce"/>
          <path d="M53.26,20.2s.15-.5.46-.42c.65.18,1.44.96,2.13,1.23-.1,0-.3.32-.69.22-.61-.16-1.1-.83-1.8-.64l-.26-.15c-.18-.2-.13-.28.15-.26Z" fill="#eff3e0"/>
          <path d="M49.63,14.7c.12-.14.18-.4.29-.51.33-.3,1.14-.43,1.5-.83-.02.06.12.28.11.4-1.02.77.06.84-1.9.94Z" fill="#dac05e"/>
          <path d="M56.78,18.82c.52.64,1.02,1.14.2,1.94-.27.26-.62.1-.72.14.49-.64.7-1.3.52-2.08Z" fill="#f6f4d5"/>
          <path d="M38.41,38.84c0,.27.14.87.07,1.06-.18.5-.66,1.02-.88,1.53.19-1.25.41-1.51.82-2.59Z" fill="#4e7ca4"/>
          <path d="M50.38,19.89c-2.64,4.09-4.99,8.38-7.05,12.85-1.03,2.53-3.25,3.3-1.53.11l.83-2.46c1.31-3.76,2.8-7.62,4.49-11.24.24-.52.28-1.16.97-.58.2.39,1.39.46,1.83.37.25.15.51.29.77.44.63.47.47.69-.29.51Z" fill="#c0d2e4"/>
          <path d="M52.19,13.8c.71-1.17,1.34-2.41,2.06-3.57.71-.27,1.39.13,2.04,1.18.09.04.17.1.26.15-.34,1.41-1.18,2.48-1.81,3.72-.65-.77-1.53-1.37-2.55-1.47Z" fill="#ed652a"/>
          <path d="M53.17,17.42c-1.19,3.2-3.98-.76-1.87-.92.55-.04,1.34.69,1.87.92Z" fill="#e58412"/>
          <path d="M54.52,16.84c-.3.86-.67.27-1.18,0-.74-.39-1.45-.86-2.18-1.26.9-1.23,2.49.02,3.25.86.07.07.04.3.11.4Z" fill="#d89119"/>
          <path d="M52.42,21.07c-.02.34.28.62-.02,1.19-1.13,2.18-4.18,6.03-5.76,8.23-2.43,3.37-5.19,6.5-7.46,9.98l-.29-.68c.07-.04.07-.18.15-.26,3.78-6.2,7.38-12.55,10.81-19.05l.54-.59c.52-.23,2.18.28,2.04,1.18Z" fill="#6bb0de"/>
          <path d="M50.38,19.89l.29-.51c1.45.87,1.03.31,1.76.35.3.02.67.46.83.47l-.15.26c-.75-.53-.66-.07-.7.62-.62-.22-1.5-1.06-2.04-1.18Z" fill="#80a7a6"/>
          <path d="M42.62,30.38c-.43,1.22-.43,2.7-1.55,3.87.44.36.8.19,1.13-.2,1.14-1.34,1.56-3.25,2.38-4.73,1.45-2.64,3.6-6.95,5.32-9.21.18-.24.17-.28.48-.22-2.74,4.75-8.01,16.45-11.34,19.65l3.59-9.16Z" fill="#9dcbef"/>
          <path d="M54.26,10.23c1-1.62,1.76-3.23,3.66-1.63l-1.62,2.81c-.05-.02-.43.11-.79-.08-.51-.28-.95-.97-1.25-1.1Z" fill="#f4c52a"/>
        </g>
        <g>
          <path d="M52.91,74.83l.46.09c.27-.73.64-.84,1.13-.32,1.5-.31,2.65-.2,3.21,1.41.21.58-.13.73-.14.94-.22.58-.91.98-2.06,1.19.02.75-.03,1.46-.14,2.14.69.44.38.86-.37.55.59,1.14-1.91,2.52-2.57,1.49-.68-.19-.96-.49-.85-.88.07-.65-.06-.69-.41-.11.45,1.06-.8.72-1.39.04-.48.3-.9.34-1.26.12-.88-.46-.68-.95.59-1.47l.36-.45-.15-.72c1.16-1.22,1.94-2.08,2.35-2.61-.94-.6.53-2.32,1.25-1.41Z" fill="#f0bb2d"/>
          <path d="M38.22,54.14c.55.48.85,1,.89,1.54.4.33.44.44-.11.41l-.13.42c2.63,5.77,5.2,11.51,7.72,17.22.68,1.3,1.32,2.51,1.95,3.62,1.34-.56,1.36.84.19.92.06.27-.03.31-.26.15l-.26.15c-2.05-1.98-3.48-4.46-4.31-7.46-1.26-2.64-2.57-5.58-3.71-8.28-.5-1.19-3.77-8.81-3.2-9.35s1.01.48,1.23.66Z" fill="#3d77a2"/>
          <path d="M40.07,56.16c3.04,3.69,6.17,7.31,9.1,11.1,1.85,2.39,3.74,4.79,5.32,7.35-.3.06-.72.55-1.11.65-.33.08-.44-.42-.48-.42-2.32-3.29-4.76-6.56-7.31-9.82l-.26-.91c-.99-1.02-1.88-2.11-2.67-3.28l-.56.18c-1.18-1.42-2.11-3.02-2.96-4.66-.26.07-.3-.02-.15-.26,0-.11.1-.27.11-.41.28-.09.6.07.96.47Z" fill="#497595"/>
          <path d="M53.69,85.71c.18-.27.54-.25,1.07.07-.11-.25-.01-.29.26-.15l.68-.02c1.2,3.05,2.63,2.21,1.12-.41l.26-.76c-.19-.58-.11-.85.22-.81.57,1.24,2.73,4.34.87,5.37-1.75.97-1.87-.43-2.55-1.12-.92-.92-1.09-1.06-1.92-2.17Z" fill="#e1bb54"/>
          <path d="M50.89,76.69c-.05-.63.25-.81.77-.45-.02.05.29.31.22.48s-1.9,1.36-2.42,2.84l.03.32c-1.3.45-1.63.99-.98,1.6.75-.31.83-.08.3.51-.14.01-.35.27-.51.3-.96.03-1.76-.51-1.56-1.5,0-.1.07-.32.11-.41.7-.58,1.38-1.2,2.02-1.85-.06-.12.08-.28.42-.48-.31-.82.91-1.51,1.6-1.38Z" fill="#d8c66e"/>
          <path d="M49.46,79.57s.4.41.14.63c-.48.42-1.78.11-1.09,1.29,2.16-1.64,1.48-.2,2.16.09.16.07.4-.24.5-.25.19-.56.43-.48.41.11.4.19.62.52.85.88-.2.42-.26.92-.18,1.48-1.23-1.3-1.47-1.95-3.44-1.79-.11-.13-.23-.5-.3-.51-.19-.05-.66.66-1.11-.73l2.06-1.19Z" fill="#e2bf43"/>
          <path d="M52.42,82.32c1.08.03,2.43,2.44,2.34,3.46-.47.29-.61.18-1.07-.07-.52-.68-.95-1.08-1.45-1.91-.3-.51-.59-1.03-.89-1.55.01-.14.82.11,1.07.07Z" fill="#be5b3e"/>
          <path d="M48.21,78.58c-.28.09-.48-.01-.71-.16-1.05-.68-2.35-3.76-2.95-5.06-.29-.63-.63-1.54-.65-2.24,1.23,2.57,2.35,5.35,4.31,7.46Z" fill="#eff3e0"/>
          <path d="M55.36,80.28c.14-.53.23-.39.41.11.78.93,1.04,2.18,1.53,3.24-.06.21-.08.71-.22.81-1.32-.56-2.32-2.2-2.08-3.6.07-.1.37-.52.37-.55Z" fill="#c06041"/>
          <path d="M57.56,76.95c0,.09.41.37.14.62-.44.42-1.38.67-1.9,1.09-.36.35-.46.18-.3-.51.08-.16-.05-.69.1-.77.39-.2,1.47.23,1.96-.42Z" fill="#faf1ce"/>
          <path d="M48.87,78.54s.36.39.13.62c-.48.48-1.57.77-2.15,1.24.04-.09-.13-.43.15-.71.45-.45,1.27-.54,1.46-1.25l.26-.15c.27-.06.31.03.15.26Z" fill="#eff3e0"/>
          <path d="M55.5,78.14c.07.18.26.36.3.51.1.44-.2,1.21-.03,1.73-.04-.05-.3-.04-.41-.11-.16-1.28-.77-.38.14-2.14Z" fill="#dac05e"/>
          <path d="M48.3,82.3c-.82.13-1.51.31-1.79-.8-.09-.37.23-.59.24-.7.31.75.78,1.26,1.56,1.5Z" fill="#f6f4d5"/>
          <path d="M40.07,56.16c-.23-.14-.83-.32-.96-.47-.34-.41-.56-1.09-.89-1.54,1,.8,1.11,1.12,1.85,2.02Z" fill="#4e7ca4"/>
          <path d="M50.59,76.17c-2.24-4.37-4.8-8.59-7.67-12.64-1.69-2.18-1.24-4.51.68-1.39l1.74,1.96c2.63,3.04,5.25,6.29,7.55,9.59.33.47.87.83.01,1.14-.45-.02-1.1.98-1.25,1.41-.26.15-.51.3-.77.45-.73.31-.84.06-.3-.51Z" fill="#c0d2e4"/>
          <path d="M55,80.83c.66,1.21,1.43,2.39,2.08,3.6-.12.75-.81,1.15-2.06,1.19-.08.06-.17.1-.26.15-1.06-1-1.57-2.28-2.34-3.46,1-.18,1.97-.65,2.57-1.49Z" fill="#ed652a"/>
          <path d="M51.34,79.86c-2.2-2.65,2.67-3.09,1.75-1.16-.24.5-1.28.82-1.75,1.16Z" fill="#e58412"/>
          <path d="M51.17,81.33c-.59-.7.11-.72.59-1.03.71-.45,1.48-.83,2.2-1.27.62,1.41-1.28,2.17-2.39,2.4-.1.02-.29-.11-.41-.11Z" fill="#d89119"/>
          <path d="M48.53,77.36c-.29-.18-.68-.06-1.03-.61-1.34-2.09-3.16-6.69-4.28-9.19-1.72-3.82-3.06-7.81-4.96-11.55l.74.09c0,.08.12.16.15.26,3.51,6.43,7.24,12.78,11.2,19.05l.25.77c-.06.57-1.34,1.77-2.06,1.19Z" fill="#6bb0de"/>
          <path d="M50.59,76.17l.3.51c-1.49.83-.79.74-1.19,1.36-.16.25-.74.35-.82.49l-.15-.26c.84-.39.4-.54-.19-.92.51-.43,1.68-.77,2.06-1.19Z" fill="#80a7a6"/>
          <path d="M45.34,64.1c-.85-.99-2.14-1.74-2.6-3.3-.54.21-.57.6-.4,1.09.6,1.67,2.05,3,2.94,4.46,1.57,2.6,4.25,6.66,5.36,9.3.12.28.16.29-.05.53-2.77-4.79-10.33-15.29-11.44-19.82l6.19,7.75Z" fill="#9dcbef"/>
          <path d="M57.08,84.44c.91,1.69,1.94,3.17-.43,4.02l-1.63-2.83s.12-.43.47-.65c.5-.31,1.32-.34,1.59-.54Z" fill="#f4c52a"/>
        </g>
        <g>
          <path d="M15.86,77.58l.14.44c.76-.13,1.04.14.84.81,1,1.13,1.48,2.17.38,3.46-.4.47-.69.25-.87.34-.61.1-1.29-.29-2.04-1.18-.63.39-1.27.7-1.9.94-.03.81-.55.75-.66-.04-.68,1.07-3.11-.39-2.55-1.47-.17-.68-.06-1.07.33-1.17.6-.26.56-.39-.11-.4-.69.91-1.01-.33-.73-1.17-.5-.26-.74-.61-.73-1.03-.04-.98.48-1.05,1.55-.22l.57.08.54-.49c1.62.39,2.75.63,3.4.72.05-1.1,2.26-.7,1.83.37Z" fill="#f0bb2d"/>
          <path d="M26.34,54.71c-.14.71-.44,1.22-.88,1.53-.08.51-.16.59-.4.11l-.43.09c-3.65,5.12-7.3,10.17-10.96,15.16-.78,1.23-1.5,2.38-2.14,3.47,1.14.88-.05,1.59-.7.62-.2.18-.28.13-.26-.15l-.26-.15c.68-2.73,2.11-5.2,4.27-7.4,1.64-2.39,3.52-4.98,5.27-7.29.78-1.02,5.7-7.6,6.44-7.38s.09,1.11.05,1.39Z" fill="#3d77a2"/>
          <path d="M25.53,57.31c-1.66,4.44-3.22,8.92-5.01,13.31-1.13,2.77-2.26,5.58-3.67,8.21-.2-.23-.83-.35-1.1-.63-.23-.25.14-.59.12-.62,1.67-3.62,3.28-7.33,4.81-11.14l.65-.68c.38-1.35.88-2.66,1.49-3.92l-.44-.39c.64-1.72,1.55-3.31,2.53-4.85-.18-.19-.13-.27.15-.26.09-.06.29-.05.4-.11.22.19.24.55.07,1.06Z" fill="#497595"/>
          <path d="M6.92,83.64c.32.03.48.34.47.95.16-.22.24-.15.26.15l.35.57c-2.02,2.55-.59,3.36.91.76l.78-.15c.41-.45.68-.52.8-.22-.78,1.11-2.37,4.49-4.18,3.41-1.7-1.02-.55-1.82-.3-2.74.34-1.24.37-1.46.91-2.73Z" fill="#e1bb54"/>
          <path d="M13.27,76.76c.52-.36.82-.19.77.44-.05,0-.13.4-.31.43s-2.11-.95-3.64-.67l-.26.18c-1.03-.89-1.65-.91-1.86-.05.64.49.48.67-.29.51-.08-.12-.41-.17-.51-.29-.5-.81-.43-1.77.52-2.08.09-.04.31-.1.4-.11.85.32,1.71.59,2.59.82.08-.11.28-.07.62.13.55-.67,1.74.03,1.97.69Z" fill="#d8c66e"/>
          <path d="M10.09,76.97s-.16.54-.47.43c-.6-.21-.97-1.48-1.65-.3,2.48,1.04.91,1.17.99,1.9.02.17.41.22.46.3.57-.12.63.13.11.4.03.44-.14.79-.33,1.17-.46.04-.91.23-1.35.58.51-1.7.95-2.23-.17-3.84.05-.16.32-.44.29-.51-.06-.19-.9-.24.08-1.31l2.04,1.18Z" fill="#e2bf43"/>
          <path d="M9.2,80.88c.51.94-.89,3.3-1.81,3.72-.48-.26-.46-.43-.47-.95.33-.78.46-1.35.92-2.19.29-.51.59-1.02.89-1.53.13-.06.31.76.47.95Z" fill="#be5b3e"/>
          <path d="M10.32,75.4c-.21-.2-.22-.42-.21-.69.06-1.24,2.06-3.88,2.88-5.04.4-.56,1.01-1.3,1.6-1.67-1.6,2.34-3.43,4.67-4.27,7.4Z" fill="#eff3e0"/>
          <path d="M12.41,82.39c.52-.14.45,0,.11.4-.41,1.13-1.35,1.97-2.02,2.91-.21.05-.65.28-.8.22-.18-1.41.74-3.08,2.06-3.57.12.01.63.06.66.04Z" fill="#c06041"/>
          <path d="M16.35,82.63c-.08.04-.11.53-.46.43-.58-.17-1.26-.86-1.87-1.1-.48-.13-.38-.3.29-.51.18,0,.57-.38.71-.29.36.23.53,1.38,1.33,1.47Z" fill="#faf1ce"/>
          <path d="M10.68,75.95s-.15.5-.46.42c-.65-.18-1.44-.96-2.13-1.23.1,0,.3-.32.69-.22.61.16,1.1.83,1.8.64l.26.15c.18.2.13.28-.15.26Z" fill="#eff3e0"/>
          <path d="M14.31,81.45c-.12.14-.18.4-.29.51-.33.3-1.14.43-1.5.83.02-.06-.12-.28-.11-.4,1.02-.77-.06-.84,1.9-.94Z" fill="#dac05e"/>
          <path d="M7.17,77.32c-.52-.64-1.02-1.14-.2-1.94.27-.26.62-.1.72-.14-.49.64-.7,1.3-.52,2.08Z" fill="#f6f4d5"/>
          <path d="M25.53,57.31c0-.27-.14-.87-.07-1.06.18-.5.66-1.02.88-1.53-.19,1.25-.41,1.51-.82,2.59Z" fill="#4e7ca4"/>
          <path d="M13.57,76.25c2.64-4.09,4.99-8.38,7.05-12.85,1.03-2.53,3.25-3.3,1.53-.11l-.83,2.46c-1.31,3.76-2.8,7.62-4.49,11.24-.24.52-.28,1.16-.97.58-.2-.39-1.39-.46-1.83-.37-.25-.15-.51-.29-.77-.44-.63-.47-.47-.69.29-.51Z" fill="#c0d2e4"/>
          <path d="M11.75,82.35c-.71,1.17-1.34,2.41-2.06,3.57-.71.27-1.39-.13-2.04-1.18-.09-.04-.17-.1-.26-.15.34-1.41,1.18-2.48,1.81-3.72.65.77,1.53,1.37,2.55,1.47Z" fill="#ed652a"/>
          <path d="M10.78,78.73c1.19-3.2,3.98.76,1.87.92-.55.04-1.34-.69-1.87-.92Z" fill="#e58412"/>
          <path d="M9.42,79.31c.3-.86.67-.27,1.18,0,.74.39,1.45.86,2.18,1.26-.9,1.23-2.49-.02-3.25-.86-.07-.07-.04-.3-.11-.4Z" fill="#d89119"/>
          <path d="M11.53,75.08c.02-.34-.28-.62.02-1.19,1.13-2.18,4.18-6.03,5.76-8.23,2.43-3.37,5.19-6.5,7.46-9.98l.29.68c-.07.04-.07.18-.15.26-3.78,6.2-7.38,12.55-10.81,19.05l-.54.59c-.52.23-2.18-.28-2.04-1.18Z" fill="#6bb0de"/>
          <path d="M13.57,76.25l-.29.51c-1.45-.87-1.03-.31-1.76-.35-.3-.02-.67-.46-.83-.47l.15-.26c.75.53.66.07.7-.62.62.22,1.5,1.06,2.04,1.18Z" fill="#80a7a6"/>
          <path d="M21.33,65.76c.43-1.22.43-2.7,1.55-3.87-.44-.36-.8-.19-1.13.2-1.14,1.34-1.56,3.25-2.38,4.73-1.45,2.64-3.6,6.95-5.32,9.21-.18.24-.17.28-.48.22,2.74-4.75,8.01-16.45,11.34-19.65l-3.59,9.16Z" fill="#9dcbef"/>
          <path d="M9.69,85.92c-1,1.62-1.76,3.23-3.66,1.63l1.62-2.81c.05.02.43-.11.79.08.51.28.95.97,1.25,1.1Z" fill="#f4c52a"/>
        </g>
      </g>
    </g>
  </g>
</svg>