<?xml version="1.0" encoding="UTF-8"?>
<svg id="Layer_2" data-name="Layer 2" xmlns="http://www.w3.org/2000/svg" viewBox="0 0 64.02 95.93">
  <g id="Cards">
    <g id="Swords">
      <g id="SixOfSwrods">
        <path d="M5.11,1.96l-1.46.16c-.04-.3-.13-.52-.28-.67-.15-.14-.35-.21-.59-.21-.32,0-.59.14-.81.43-.22.29-.36.88-.42,1.79.38-.44.84-.67,1.4-.67.63,0,1.17.24,1.62.72.45.48.67,1.1.67,1.86,0,.81-.24,1.45-.71,1.94-.47.49-1.08.73-1.82.73-.79,0-1.45-.31-1.96-.93-.51-.62-.77-1.63-.77-3.04S.27,1.59.8.96s1.23-.96,2.08-.96c.6,0,1.09.17,1.48.5.39.33.64.82.75,1.46ZM1.69,5.25c0,.49.11.87.34,1.14s.48.4.77.4.51-.11.7-.33c.19-.22.28-.58.28-1.07s-.1-.89-.3-1.12-.45-.36-.75-.36-.54.11-.74.34-.3.56-.3,1.01Z" fill="#2a2b2c"/>
        <path d="M58.9,93.97l1.46-.16c.04.3.13.52.28.67.15.14.35.21.59.21.32,0,.59-.14.81-.43.22-.29.36-.88.42-1.79-.38.44-.84.67-1.4.67-.63,0-1.17-.24-1.62-.72-.45-.48-.67-1.1-.67-1.86,0-.81.24-1.45.71-1.94.47-.49,1.08-.73,1.82-.73.79,0,1.45.31,1.96.93.51.62.77,1.63.77,3.04s-.27,2.48-.8,3.12-1.23.96-2.08.96c-.6,0-1.09-.17-1.48-.5-.39-.33-.64-.82-.75-1.46ZM62.32,90.67c0-.49-.11-.87-.34-1.14s-.48-.4-.77-.4-.51.11-.7.33c-.19.22-.28.58-.28,1.07s.1.89.3,1.12.45.36.75.36.54-.11.74-.34.3-.56.3-1.01Z" fill="#2a2b2c"/>
        <g>
          <path d="M8.59,16.43l-.32-.28c-.55.46-.9.37-1.05-.26-1.33-.45-2.2-1.06-1.91-2.6.1-.56.44-.52.54-.68.44-.36,1.17-.36,2.18,0,.33-.6.69-1.15,1.09-1.64-.35-.67.09-.86.55-.27.05-1.18,2.68-1.13,2.73,0,.45.47.54.83.27,1.09-.36.49-.27.58.27.27.13-1.05.96-.21,1.13.6.52-.02.87.14,1.06.49.49.77.1,1.07-1.14.9l-.49.2-.21.64c-1.48.43-2.5.77-3.07,1,.47.91-1.49,1.61-1.64.55Z" fill="#f0bb2d"/>
          <path d="M10.78,39.64c-.21-.64-.21-1.18,0-1.64-.17-.45-.15-.55.27-.27l.3-.27c.56-5.8,1.15-11.55,1.77-17.25.06-1.35.1-2.61.11-3.78-1.32-.17-.7-1.3.27-.82.08-.24.17-.23.27,0h.27c.72,2.51.72,5.15,0,7.92-.21,2.68-.52,5.62-.85,8.29-.15,1.18-1.05,8.74-1.74,8.91s-.59-.85-.68-1.09Z" fill="#3d77a2"/>
          <path d="M10.23,37.18c-.73-4.33-1.55-8.65-2.15-13.01-.37-2.75-.77-5.53-.86-8.29.27.09.83-.11,1.18,0,.3.09.16.54.19.55.34,3.68.77,7.41,1.3,11.17l-.21.85c.32,1.26.52,2.54.62,3.84l.53.11c.28,1.67.29,3.37.21,5.06.24.07.23.16,0,.27-.04.09-.21.17-.27.27-.26-.05-.45-.33-.55-.82Z" fill="#497595"/>
          <path d="M12.96,7.42c-.27.13-.54-.05-.82-.55-.03.25-.12.23-.27,0l-.55-.3c.44-2.98-1.08-2.97-1.08-.19l-.56.48c-.12.55-.3.73-.55.55.12-1.25-.18-4.7,1.77-4.67,1.84.03,1.29,1.2,1.51,2.06.31,1.15.38,1.34.53,2.61Z" fill="#e1bb54"/>
          <path d="M11.05,15.88c-.25.53-.57.53-.82,0,.03-.03-.08-.38.05-.49s2.14-.21,3.23-1.15l.12-.27c1.24.24,1.75-.04,1.52-.83-.74-.1-.7-.32,0-.55.12.06.41-.05.55,0,.78.42,1.17,1.22.55,1.91-.05.07-.2.22-.27.27-.83.14-1.65.32-2.46.55-.01.12-.2.18-.55.19-.13.79-1.41.78-1.9.36Z" fill="#d8c66e"/>
          <path d="M13.51,14.25s-.13-.51.18-.57c.58-.11,1.47.73,1.46-.52-2.47.32-1.27-.52-1.68-1.06-.1-.13-.43.01-.51-.03-.41.36-.57.19-.27-.27-.23-.34-.25-.7-.27-1.09.35-.25.62-.61.82-1.09.38,1.6.27,2.23,1.91,3,.03.15-.05.5,0,.55.13.13.83-.22.55,1.09h-2.19Z" fill="#e2bf43"/>
          <path d="M12.42,10.7c-.85-.52-.82-3.06-.27-3.82.51-.02.57.13.82.55.1.78.26,1.3.27,2.18,0,.54,0,1.09,0,1.64-.07.11-.6-.47-.82-.55Z" fill="#be5b3e"/>
          <path d="M14.05,15.61c.26.06.37.23.49.45.53,1.02.14,4.07.02,5.38-.06.64-.21,1.51-.51,2.08.2-2.62.59-5.34,0-7.92Z" fill="#eff3e0"/>
          <path d="M9.14,10.97c-.35.36-.36.21-.27-.27-.2-1.1.17-2.21.27-3.28.14-.14.39-.53.55-.55.79,1.05.83,2.81,0,3.82-.1.05-.53.24-.55.27Z" fill="#c06041"/>
          <path d="M5.86,12.61c.05-.07-.16-.48.17-.56.54-.13,1.4.1,2.01.01.44-.11.44.07,0,.55-.14.09-.28.57-.43.56-.4-.02-1.06-.86-1.75-.56Z" fill="#faf1ce"/>
          <path d="M13.51,15.34s-.11-.47.18-.55c.6-.16,1.6.11,2.28,0-.07.05-.09.4-.45.5-.56.15-1.26-.16-1.74.32h-.27c-.24-.08-.23-.17,0-.27Z" fill="#eff3e0"/>
          <path d="M8.05,12.61c.03-.17-.04-.4,0-.55.12-.4.72-.87.82-1.37.01.06.22.17.27.27-.46,1.09.44.65-1.09,1.64Z" fill="#dac05e"/>
          <path d="M15.69,12.61c.71.27,1.34.45,1.06,1.46-.09.33-.45.37-.51.45.1-.74-.04-1.36-.55-1.91Z" fill="#f6f4d5"/>
          <path d="M10.23,37.18c.12.22.51.64.55.82.08.49-.06,1.12,0,1.64-.43-1.1-.37-1.4-.55-2.46Z" fill="#4e7ca4"/>
          <path d="M11.05,16.43c-.22,4.51-.13,9.04.29,13.58.35,2.51-1.08,4.15-1.18.79l-.48-2.36c-.69-3.63-1.28-7.42-1.6-11.1-.05-.53-.31-1.06.51-.92.34.22,1.33-.28,1.64-.55.27,0,.55,0,.82,0,.73.09.69.34,0,.55Z" fill="#c0d2e4"/>
          <path d="M9.69,10.7c.03-1.27-.04-2.55,0-3.82.45-.54,1.17-.54,2.18,0,.09,0,.18,0,.27,0,.38,1.29.2,2.54.27,3.82-.88-.32-1.86-.39-2.73,0Z" fill="#ed652a"/>
          <path d="M12.14,13.15c.53,3.12-3.55,1.23-1.93.12.42-.29,1.39-.07,1.93-.12Z" fill="#e58412"/>
          <path d="M12.96,12.06c.15.83-.42.53-.94.55-.78.03-1.56-.02-2.33,0,.15-1.41,2.01-1.14,3-.82.09.03.18.22.27.27Z" fill="#d89119"/>
          <path d="M13.24,16.43c.14.28.51.36.54.96.1,2.28-.56,6.78-.81,9.27-.39,3.83-1.15,7.62-1.36,11.47l-.55-.41c.03-.07-.03-.18,0-.27.16-6.73.11-13.49-.16-20.3l.16-.72c.31-.43,1.88-.79,2.18,0Z" fill="#6bb0de"/>
          <path d="M11.05,16.43v-.55c1.57.02.97-.23,1.58-.54.25-.12.75.06.88,0v.27c-.85-.08-.56.25-.27.82-.6.11-1.69-.16-2.18,0Z" fill="#80a7a6"/>
          <path d="M9.69,28.44c.23,1.18.9,2.37.55,3.82.52.08.73-.21.82-.68.29-1.6-.25-3.33-.28-4.9-.06-2.79-.33-7.25,0-9.86.04-.28,0-.31.28-.4,0,5.08,1.2,16.91,0,21.03l-1.37-9.01Z" fill="#9dcbef"/>
          <path d="M9.69,6.87c.06-1.77-.08-3.41,2.19-3v3c-.05,0-.29.29-.67.3-.54.02-1.21-.34-1.51-.3Z" fill="#f4c52a"/>
        </g>
        <g>
          <path d="M29.55,16.43l-.32-.28c-.55.46-.9.37-1.05-.26-1.33-.45-2.2-1.06-1.91-2.6.1-.56.44-.52.54-.68.44-.36,1.17-.36,2.18,0,.33-.6.69-1.15,1.09-1.64-.35-.67.09-.86.55-.27.05-1.18,2.68-1.13,2.73,0,.45.47.54.83.27,1.09-.36.49-.27.58.27.27.13-1.05.96-.21,1.13.6.52-.02.87.14,1.06.49.49.77.1,1.07-1.14.9l-.49.2-.21.64c-1.48.43-2.5.77-3.07,1,.47.91-1.49,1.61-1.64.55Z" fill="#f0bb2d"/>
          <path d="M31.74,39.64c-.21-.64-.21-1.18,0-1.64-.17-.45-.15-.55.27-.27l.3-.27c.56-5.8,1.15-11.55,1.77-17.25.06-1.35.1-2.61.11-3.78-1.32-.17-.7-1.3.27-.82.08-.24.17-.23.27,0h.27c.72,2.51.72,5.15,0,7.92-.21,2.68-.52,5.62-.85,8.29-.15,1.18-1.05,8.74-1.74,8.91s-.59-.85-.68-1.09Z" fill="#3d77a2"/>
          <path d="M31.19,37.18c-.73-4.33-1.55-8.65-2.15-13.01-.37-2.75-.77-5.53-.86-8.29.27.09.83-.11,1.18,0,.3.09.16.54.19.55.34,3.68.77,7.41,1.3,11.17l-.21.85c.32,1.26.52,2.54.62,3.84l.53.11c.28,1.67.29,3.37.21,5.06.24.07.23.16,0,.27-.04.09-.21.17-.27.27-.26-.05-.45-.33-.55-.82Z" fill="#497595"/>
          <path d="M33.92,7.42c-.27.13-.54-.05-.82-.55-.03.25-.12.23-.27,0l-.55-.3c.44-2.98-1.08-2.97-1.08-.19l-.56.48c-.12.55-.3.73-.55.55.12-1.25-.18-4.7,1.77-4.67,1.84.03,1.29,1.2,1.51,2.06.31,1.15.38,1.34.53,2.61Z" fill="#e1bb54"/>
          <path d="M32.01,15.88c-.25.53-.57.53-.82,0,.03-.03-.08-.38.05-.49s2.14-.21,3.23-1.15l.12-.27c1.24.24,1.75-.04,1.52-.83-.74-.1-.7-.32,0-.55.12.06.41-.05.55,0,.78.42,1.17,1.22.55,1.91-.05.07-.2.22-.27.27-.83.14-1.65.32-2.46.55-.01.12-.2.18-.55.19-.13.79-1.41.78-1.9.36Z" fill="#d8c66e"/>
          <path d="M34.47,14.25s-.13-.51.18-.57c.58-.11,1.47.73,1.46-.52-2.47.32-1.27-.52-1.68-1.06-.1-.13-.43.01-.51-.03-.41.36-.57.19-.27-.27-.23-.34-.25-.7-.27-1.09.35-.25.62-.61.82-1.09.38,1.6.27,2.23,1.91,3,.03.15-.05.5,0,.55.13.13.83-.22.55,1.09h-2.19Z" fill="#e2bf43"/>
          <path d="M33.37,10.7c-.85-.52-.82-3.06-.27-3.82.51-.02.57.13.82.55.1.78.26,1.3.27,2.18,0,.54,0,1.09,0,1.64-.07.11-.6-.47-.82-.55Z" fill="#be5b3e"/>
          <path d="M35.01,15.61c.26.06.37.23.49.45.53,1.02.14,4.07.02,5.38-.06.64-.21,1.51-.51,2.08.2-2.62.59-5.34,0-7.92Z" fill="#eff3e0"/>
          <path d="M30.1,10.97c-.35.36-.36.21-.27-.27-.2-1.1.17-2.21.27-3.28.14-.14.39-.53.55-.55.79,1.05.83,2.81,0,3.82-.1.05-.53.24-.55.27Z" fill="#c06041"/>
          <path d="M26.82,12.61c.05-.07-.16-.48.17-.56.54-.13,1.4.1,2.01.01.44-.11.44.07,0,.55-.14.09-.28.57-.43.56-.4-.02-1.06-.86-1.75-.56Z" fill="#faf1ce"/>
          <path d="M34.47,15.34s-.11-.47.18-.55c.6-.16,1.6.11,2.28,0-.07.05-.09.4-.45.5-.56.15-1.26-.16-1.74.32h-.27c-.24-.08-.23-.17,0-.27Z" fill="#eff3e0"/>
          <path d="M29,12.61c.03-.17-.04-.4,0-.55.12-.4.72-.87.82-1.37.01.06.22.17.27.27-.46,1.09.44.65-1.09,1.64Z" fill="#dac05e"/>
          <path d="M36.65,12.61c.71.27,1.34.45,1.06,1.46-.09.33-.45.37-.51.45.1-.74-.04-1.36-.55-1.91Z" fill="#f6f4d5"/>
          <path d="M31.19,37.18c.12.22.51.64.55.82.08.49-.06,1.12,0,1.64-.43-1.1-.37-1.4-.55-2.46Z" fill="#4e7ca4"/>
          <path d="M32.01,16.43c-.22,4.51-.13,9.04.29,13.58.35,2.51-1.08,4.15-1.18.79l-.48-2.36c-.69-3.63-1.28-7.42-1.6-11.1-.05-.53-.31-1.06.51-.92.34.22,1.33-.28,1.64-.55.27,0,.55,0,.82,0,.73.09.69.34,0,.55Z" fill="#c0d2e4"/>
          <path d="M30.64,10.7c.03-1.27-.04-2.55,0-3.82.45-.54,1.17-.54,2.18,0,.09,0,.18,0,.27,0,.38,1.29.2,2.54.27,3.82-.88-.32-1.86-.39-2.73,0Z" fill="#ed652a"/>
          <path d="M33.1,13.15c.53,3.12-3.55,1.23-1.93.12.42-.29,1.39-.07,1.93-.12Z" fill="#e58412"/>
          <path d="M33.92,12.06c.15.83-.42.53-.94.55-.78.03-1.56-.02-2.33,0,.15-1.41,2.01-1.14,3-.82.09.03.18.22.27.27Z" fill="#d89119"/>
          <path d="M34.19,16.43c.14.28.51.36.54.96.1,2.28-.56,6.78-.81,9.27-.39,3.83-1.15,7.62-1.36,11.47l-.55-.41c.03-.07-.03-.18,0-.27.16-6.73.11-13.49-.16-20.3l.16-.72c.31-.43,1.88-.79,2.18,0Z" fill="#6bb0de"/>
          <path d="M32.01,16.43v-.55c1.57.02.97-.23,1.58-.54.25-.12.75.06.88,0v.27c-.85-.08-.56.25-.27.82-.6.11-1.69-.16-2.18,0Z" fill="#80a7a6"/>
          <path d="M30.64,28.44c.23,1.18.9,2.37.55,3.82.52.08.73-.21.82-.68.29-1.6-.25-3.33-.28-4.9-.06-2.79-.33-7.25,0-9.86.04-.28,0-.31.28-.4,0,5.08,1.2,16.91,0,21.03l-1.37-9.01Z" fill="#9dcbef"/>
          <path d="M30.64,6.87c.06-1.77-.08-3.41,2.19-3v3c-.05,0-.29.29-.67.3-.54.02-1.21-.34-1.51-.3Z" fill="#f4c52a"/>
        </g>
        <g>
          <path d="M50.49,16.43l-.32-.28c-.55.46-.9.37-1.05-.26-1.33-.45-2.2-1.06-1.91-2.6.1-.56.44-.52.54-.68.44-.36,1.17-.36,2.18,0,.33-.6.69-1.15,1.09-1.64-.35-.67.09-.86.55-.27.05-1.18,2.68-1.13,2.73,0,.45.47.54.83.27,1.09-.36.49-.27.58.27.27.13-1.05.96-.21,1.13.6.52-.02.87.14,1.06.49.49.77.1,1.07-1.14.9l-.49.2-.21.64c-1.48.43-2.5.77-3.07,1,.47.91-1.49,1.61-1.64.55Z" fill="#f0bb2d"/>
          <path d="M52.68,39.64c-.21-.64-.21-1.18,0-1.64-.17-.45-.15-.55.27-.27l.3-.27c.56-5.8,1.15-11.55,1.77-17.25.06-1.35.1-2.61.11-3.78-1.32-.17-.7-1.3.27-.82.08-.24.17-.23.27,0h.27c.72,2.51.72,5.15,0,7.92-.21,2.68-.52,5.62-.85,8.29-.15,1.18-1.05,8.74-1.74,8.91s-.59-.85-.68-1.09Z" fill="#3d77a2"/>
          <path d="M52.13,37.18c-.73-4.33-1.55-8.65-2.15-13.01-.37-2.75-.77-5.53-.86-8.29.27.09.83-.11,1.18,0,.3.09.16.54.19.55.34,3.68.77,7.41,1.3,11.17l-.21.85c.32,1.26.52,2.54.62,3.84l.53.11c.28,1.67.29,3.37.21,5.06.24.07.23.16,0,.27-.04.09-.21.17-.27.27-.26-.05-.45-.33-.55-.82Z" fill="#497595"/>
          <path d="M54.86,7.42c-.27.13-.54-.05-.82-.55-.03.25-.12.23-.27,0l-.55-.3c.44-2.98-1.08-2.97-1.08-.19l-.56.48c-.12.55-.3.73-.55.55.12-1.25-.18-4.7,1.77-4.67,1.84.03,1.29,1.2,1.51,2.06.31,1.15.38,1.34.53,2.61Z" fill="#e1bb54"/>
          <path d="M52.95,15.88c-.25.53-.57.53-.82,0,.03-.03-.08-.38.05-.49s2.14-.21,3.23-1.15l.12-.27c1.24.24,1.75-.04,1.52-.83-.74-.1-.7-.32,0-.55.12.06.41-.05.55,0,.78.42,1.17,1.22.55,1.91-.05.07-.2.22-.27.27-.83.14-1.65.32-2.46.55-.01.12-.2.18-.55.19-.13.79-1.41.78-1.9.36Z" fill="#d8c66e"/>
          <path d="M55.41,14.25s-.13-.51.18-.57c.58-.11,1.47.73,1.46-.52-2.47.32-1.27-.52-1.68-1.06-.1-.13-.43.01-.51-.03-.41.36-.57.19-.27-.27-.23-.34-.25-.7-.27-1.09.35-.25.62-.61.82-1.09.38,1.6.27,2.23,1.91,3,.03.15-.05.5,0,.55.13.13.83-.22.55,1.09h-2.19Z" fill="#e2bf43"/>
          <path d="M54.32,10.7c-.85-.52-.82-3.06-.27-3.82.51-.02.57.13.82.55.1.78.26,1.3.27,2.18,0,.54,0,1.09,0,1.64-.07.11-.6-.47-.82-.55Z" fill="#be5b3e"/>
          <path d="M55.95,15.61c.26.06.37.23.49.45.53,1.02.14,4.07.02,5.38-.06.64-.21,1.51-.51,2.08.2-2.62.59-5.34,0-7.92Z" fill="#eff3e0"/>
          <path d="M51.04,10.97c-.35.36-.36.21-.27-.27-.2-1.1.17-2.21.27-3.28.14-.14.39-.53.55-.55.79,1.05.83,2.81,0,3.82-.1.05-.53.24-.55.27Z" fill="#c06041"/>
          <path d="M47.76,12.61c.05-.07-.16-.48.17-.56.54-.13,1.4.1,2.01.01.44-.11.44.07,0,.55-.14.09-.28.57-.43.56-.4-.02-1.06-.86-1.75-.56Z" fill="#faf1ce"/>
          <path d="M55.41,15.34s-.11-.47.18-.55c.6-.16,1.6.11,2.28,0-.07.05-.09.4-.45.5-.56.15-1.26-.16-1.74.32h-.27c-.24-.08-.23-.17,0-.27Z" fill="#eff3e0"/>
          <path d="M49.95,12.61c.03-.17-.04-.4,0-.55.12-.4.72-.87.82-1.37.01.06.22.17.27.27-.46,1.09.44.65-1.09,1.64Z" fill="#dac05e"/>
          <path d="M57.59,12.61c.71.27,1.34.45,1.06,1.46-.09.33-.45.37-.51.45.1-.74-.04-1.36-.55-1.91Z" fill="#f6f4d5"/>
          <path d="M52.13,37.18c.12.22.51.64.55.82.08.49-.06,1.12,0,1.64-.43-1.1-.37-1.4-.55-2.46Z" fill="#4e7ca4"/>
          <path d="M52.95,16.43c-.22,4.51-.13,9.04.29,13.58.35,2.51-1.08,4.15-1.18.79l-.48-2.36c-.69-3.63-1.28-7.42-1.6-11.1-.05-.53-.31-1.06.51-.92.34.22,1.33-.28,1.64-.55.27,0,.55,0,.82,0,.73.09.69.34,0,.55Z" fill="#c0d2e4"/>
          <path d="M51.59,10.7c.03-1.27-.04-2.55,0-3.82.45-.54,1.17-.54,2.18,0,.09,0,.18,0,.27,0,.38,1.29.2,2.54.27,3.82-.88-.32-1.86-.39-2.73,0Z" fill="#ed652a"/>
          <path d="M54.04,13.15c.53,3.12-3.55,1.23-1.93.12.42-.29,1.39-.07,1.93-.12Z" fill="#e58412"/>
          <path d="M54.86,12.06c.15.83-.42.53-.94.55-.78.03-1.56-.02-2.33,0,.15-1.41,2.01-1.14,3-.82.09.03.18.22.27.27Z" fill="#d89119"/>
          <path d="M55.14,16.43c.14.28.51.36.54.96.1,2.28-.56,6.78-.81,9.27-.39,3.83-1.15,7.62-1.36,11.47l-.55-.41c.03-.07-.03-.18,0-.27.16-6.73.11-13.49-.16-20.3l.16-.72c.31-.43,1.88-.79,2.18,0Z" fill="#6bb0de"/>
          <path d="M52.95,16.43v-.55c1.57.02.97-.23,1.58-.54.25-.12.75.06.88,0v.27c-.85-.08-.56.25-.27.82-.6.11-1.69-.16-2.18,0Z" fill="#80a7a6"/>
          <path d="M51.59,28.44c.23,1.18.9,2.37.55,3.82.52.08.73-.21.82-.68.29-1.6-.25-3.33-.28-4.9-.06-2.79-.33-7.25,0-9.86.04-.28,0-.31.28-.4,0,5.08,1.2,16.91,0,21.03l-1.37-9.01Z" fill="#9dcbef"/>
          <path d="M51.59,6.87c.06-1.77-.08-3.41,2.19-3v3c-.05,0-.29.29-.67.3-.54.02-1.21-.34-1.51-.3Z" fill="#f4c52a"/>
        </g>
        <g>
          <path d="M55.39,79.47l.32.28c.55-.46.9-.37,1.05.26,1.33.45,2.2,1.06,1.91,2.6-.1.56-.44.52-.54.68-.44.36-1.17.36-2.18,0-.33.6-.69,1.15-1.09,1.64.35.67-.09.86-.55.27-.05,1.18-2.68,1.13-2.73,0-.45-.47-.54-.83-.27-1.09.36-.49.27-.58-.27-.27-.13,1.05-.96.21-1.13-.6-.52.02-.87-.14-1.06-.49-.49-.77-.1-1.07,1.14-.9l.49-.2.21-.64c1.48-.43,2.5-.77,3.07-1-.47-.91,1.49-1.61,1.64-.55Z" fill="#f0bb2d"/>
          <path d="M53.21,56.26c.21.64.21,1.18,0,1.64.17.45.15.55-.27.27l-.3.27c-.56,5.8-1.15,11.55-1.77,17.25-.06,1.35-.1,2.61-.11,3.78,1.32.17.7,1.3-.27.82-.08.24-.17.23-.27,0h-.27c-.72-2.51-.72-5.15,0-7.92.21-2.68.52-5.62.85-8.29.15-1.18,1.05-8.74,1.74-8.91s.59.85.68,1.09Z" fill="#3d77a2"/>
          <path d="M53.75,58.72c.73,4.33,1.55,8.65,2.15,13.01.37,2.75.77,5.53.86,8.29-.27-.09-.83.11-1.18,0-.3-.09-.16-.54-.19-.55-.34-3.68-.77-7.41-1.3-11.17l.21-.85c-.32-1.26-.52-2.54-.62-3.84l-.53-.11c-.28-1.67-.29-3.37-.21-5.06-.24-.07-.23-.16,0-.27.04-.09.21-.17.27-.27.26.05.45.33.55.82Z" fill="#497595"/>
          <path d="M51.02,88.48c.27-.13.54.05.82.55.03-.25.12-.23.27,0l.55.3c-.44,2.98,1.08,2.97,1.08.19l.56-.48c.12-.55.3-.73.55-.55-.12,1.25.18,4.7-1.77,4.67-1.84-.03-1.29-1.2-1.51-2.06-.31-1.15-.38-1.34-.53-2.61Z" fill="#e1bb54"/>
          <path d="M52.93,80.02c.25-.53.57-.53.82,0-.03.03.08.38-.05.49s-2.14.21-3.23,1.15l-.12.27c-1.24-.24-1.75.04-1.52.83.74.1.7.32,0,.55-.12-.06-.41.05-.55,0-.78-.42-1.17-1.22-.55-1.91.05-.07.2-.22.27-.27.83-.14,1.65-.32,2.46-.55.01-.12.2-.18.55-.19.13-.79,1.41-.78,1.9-.36Z" fill="#d8c66e"/>
          <path d="M50.48,81.65s.13.51-.18.57c-.58.11-1.47-.73-1.46.52,2.47-.32,1.27.52,1.68,1.06.1.13.43-.01.51.03.41-.36.57-.19.27.27.23.34.25.7.27,1.09-.35.25-.62.61-.82,1.09-.38-1.6-.27-2.23-1.91-3-.03-.15.05-.5,0-.55-.13-.13-.83.22-.55-1.09h2.19Z" fill="#e2bf43"/>
          <path d="M51.57,85.2c.85.52.82,3.06.27,3.82-.51.02-.57-.13-.82-.55-.1-.78-.26-1.3-.27-2.18,0-.54,0-1.09,0-1.64.07-.11.6.47.82.55Z" fill="#be5b3e"/>
          <path d="M49.93,80.29c-.26-.06-.37-.23-.49-.45-.53-1.02-.14-4.07-.02-5.38.06-.64.21-1.51.51-2.08-.2,2.62-.59,5.34,0,7.92Z" fill="#eff3e0"/>
          <path d="M54.85,84.93c.35-.36.36-.21.27.27.2,1.1-.17,2.21-.27,3.28-.14.14-.39.53-.55.55-.79-1.05-.83-2.81,0-3.82.1-.05.53-.24.55-.27Z" fill="#c06041"/>
          <path d="M58.12,83.29c-.05.07.16.48-.17.56-.54.13-1.4-.1-2.01-.01-.44.11-.44-.07,0-.55.14-.09.28-.57.43-.56.4.02,1.06.86,1.75.56Z" fill="#faf1ce"/>
          <path d="M50.48,80.56s.11.47-.18.55c-.6.16-1.6-.11-2.28,0,.07-.05.09-.4.45-.5.56-.15,1.26.16,1.74-.32h.27c.24.08.23.17,0,.27Z" fill="#eff3e0"/>
          <path d="M55.94,83.29c-.03.17.04.4,0,.55-.12.4-.72.87-.82,1.37-.01-.06-.22-.17-.27-.27.46-1.09-.44-.65,1.09-1.64Z" fill="#dac05e"/>
          <path d="M48.29,83.29c-.71-.27-1.34-.45-1.06-1.46.09-.33.45-.37.51-.45-.1.74.04,1.36.55,1.91Z" fill="#f6f4d5"/>
          <path d="M53.75,58.72c-.12-.22-.51-.64-.55-.82-.08-.49.06-1.12,0-1.64.43,1.1.37,1.4.55,2.46Z" fill="#4e7ca4"/>
          <path d="M52.93,79.47c.22-4.51.13-9.04-.29-13.58-.35-2.51,1.08-4.15,1.18-.79l.48,2.36c.69,3.63,1.28,7.42,1.6,11.1.05.53.31,1.06-.51.92-.34-.22-1.33.28-1.64.55-.27,0-.55,0-.82,0-.73-.09-.69-.34,0-.55Z" fill="#c0d2e4"/>
          <path d="M54.3,85.2c-.03,1.27.04,2.55,0,3.82-.45.54-1.17.54-2.18,0-.09,0-.18,0-.27,0-.38-1.29-.2-2.54-.27-3.82.88.32,1.86.39,2.73,0Z" fill="#ed652a"/>
          <path d="M51.84,82.75c-.53-3.12,3.55-1.23,1.93-.12-.42.29-1.39.07-1.93.12Z" fill="#e58412"/>
          <path d="M51.02,83.84c-.15-.83.42-.53.94-.55.78-.03,1.56.02,2.33,0-.15,1.41-2.01,1.14-3,.82-.09-.03-.18-.22-.27-.27Z" fill="#d89119"/>
          <path d="M50.75,79.47c-.14-.28-.51-.36-.54-.96-.1-2.28.56-6.78.81-9.27.39-3.83,1.15-7.62,1.36-11.47l.55.41c-.03.07.03.18,0,.27-.16,6.73-.11,13.49.16,20.3l-.16.72c-.31.43-1.88.79-2.18,0Z" fill="#6bb0de"/>
          <path d="M52.93,79.47v.55c-1.57-.02-.97.23-1.58.54-.25.12-.75-.06-.88,0v-.27c.85.08.56-.25.27-.82.6-.11,1.69.16,2.18,0Z" fill="#80a7a6"/>
          <path d="M54.3,67.45c-.23-1.18-.9-2.37-.55-3.82-.52-.08-.73.21-.82.68-.29,1.6.25,3.33.28,4.9.06,2.79.33,7.25,0,9.86-.04.28,0,.31-.28.4,0-5.08-1.2-16.91,0-21.03l1.37,9.01Z" fill="#9dcbef"/>
          <path d="M54.3,89.03c-.06,1.77.08,3.41-2.19,3v-3c.05,0,.29-.29.67-.3.54-.02,1.21.34,1.51.3Z" fill="#f4c52a"/>
        </g>
        <g>
          <path d="M35.18,80.81l.32.28c.55-.46.9-.37,1.05.26,1.33.45,2.2,1.06,1.91,2.6-.1.56-.44.52-.54.68-.44.36-1.17.36-2.18,0-.33.6-.69,1.15-1.09,1.64.35.67-.09.86-.55.27-.05,1.18-2.68,1.13-2.73,0-.45-.47-.54-.83-.27-1.09.36-.49.27-.58-.27-.27-.13,1.05-.96.21-1.13-.6-.52.02-.87-.14-1.06-.49-.49-.77-.1-1.07,1.14-.9l.49-.2.21-.64c1.48-.43,2.5-.77,3.07-1-.47-.91,1.49-1.61,1.64-.55Z" fill="#f0bb2d"/>
          <path d="M33,57.6c.21.64.21,1.18,0,1.64.17.45.15.55-.27.27l-.3.27c-.56,5.8-1.15,11.55-1.77,17.25-.06,1.35-.1,2.61-.11,3.78,1.32.17.7,1.3-.27.82-.08.24-.17.23-.27,0h-.27c-.72-2.51-.72-5.15,0-7.92.21-2.68.52-5.62.85-8.29.15-1.18,1.05-8.74,1.74-8.91s.59.85.68,1.09Z" fill="#3d77a2"/>
          <path d="M33.54,60.05c.73,4.33,1.55,8.65,2.15,13.01.37,2.75.77,5.53.86,8.29-.27-.09-.83.11-1.18,0-.3-.09-.16-.54-.19-.55-.34-3.68-.77-7.41-1.3-11.17l.21-.85c-.32-1.26-.52-2.54-.62-3.84l-.53-.11c-.28-1.67-.29-3.37-.21-5.06-.24-.07-.23-.16,0-.27.04-.09.21-.17.27-.27.26.05.45.33.55.82Z" fill="#497595"/>
          <path d="M30.81,89.82c.27-.13.54.05.82.55.03-.25.12-.23.27,0l.55.3c-.44,2.98,1.08,2.97,1.08.19l.56-.48c.12-.55.3-.73.55-.55-.12,1.25.18,4.7-1.77,4.67-1.84-.03-1.29-1.2-1.51-2.06-.31-1.15-.38-1.34-.53-2.61Z" fill="#e1bb54"/>
          <path d="M32.72,81.35c.25-.53.57-.53.82,0-.03.03.08.38-.05.49s-2.14.21-3.23,1.15l-.12.27c-1.24-.24-1.75.04-1.52.83.74.1.7.32,0,.55-.12-.06-.41.05-.55,0-.78-.42-1.17-1.22-.55-1.91.05-.07.2-.22.27-.27.83-.14,1.65-.32,2.46-.55.01-.12.2-.18.55-.19.13-.79,1.41-.78,1.9-.36Z" fill="#d8c66e"/>
          <path d="M30.27,82.99s.13.51-.18.57c-.58.11-1.47-.73-1.46.52,2.47-.32,1.27.52,1.68,1.06.1.13.43-.01.51.03.41-.36.57-.19.27.27.23.34.25.7.27,1.09-.35.25-.62.61-.82,1.09-.38-1.6-.27-2.23-1.91-3-.03-.15.05-.5,0-.55-.13-.13-.83.22-.55-1.09h2.19Z" fill="#e2bf43"/>
          <path d="M31.36,86.54c.85.52.82,3.06.27,3.82-.51.02-.57-.13-.82-.55-.1-.78-.26-1.3-.27-2.18,0-.54,0-1.09,0-1.64.07-.11.6.47.82.55Z" fill="#be5b3e"/>
          <path d="M29.72,81.63c-.26-.06-.37-.23-.49-.45-.53-1.02-.14-4.07-.02-5.38.06-.64.21-1.51.51-2.08-.2,2.62-.59,5.34,0,7.92Z" fill="#eff3e0"/>
          <path d="M34.64,86.27c.35-.36.36-.21.27.27.2,1.1-.17,2.21-.27,3.28-.14.14-.39.53-.55.55-.79-1.05-.83-2.81,0-3.82.1-.05.53-.24.55-.27Z" fill="#c06041"/>
          <path d="M37.91,84.63c-.05.07.16.48-.17.56-.54.13-1.4-.1-2.01-.01-.44.11-.44-.07,0-.55.14-.09.28-.57.43-.56.4.02,1.06.86,1.75.56Z" fill="#faf1ce"/>
          <path d="M30.27,81.9s.11.47-.18.55c-.6.16-1.6-.11-2.28,0,.07-.05.09-.4.45-.5.56-.15,1.26.16,1.74-.32h.27c.24.08.23.17,0,.27Z" fill="#eff3e0"/>
          <path d="M35.73,84.63c-.03.17.04.4,0,.55-.12.4-.72.87-.82,1.37-.01-.06-.22-.17-.27-.27.46-1.09-.44-.65,1.09-1.64Z" fill="#dac05e"/>
          <path d="M28.08,84.63c-.71-.27-1.34-.45-1.06-1.46.09-.33.45-.37.51-.45-.1.74.04,1.36.55,1.91Z" fill="#f6f4d5"/>
          <path d="M33.54,60.05c-.12-.22-.51-.64-.55-.82-.08-.49.06-1.12,0-1.64.43,1.1.37,1.4.55,2.46Z" fill="#4e7ca4"/>
          <path d="M32.72,80.81c.22-4.51.13-9.04-.29-13.58-.35-2.51,1.08-4.15,1.18-.79l.48,2.36c.69,3.63,1.28,7.42,1.6,11.1.05.53.31,1.06-.51.92-.34-.22-1.33.28-1.64.55-.27,0-.55,0-.82,0-.73-.09-.69-.34,0-.55Z" fill="#c0d2e4"/>
          <path d="M34.09,86.54c-.03,1.27.04,2.55,0,3.82-.45.54-1.17.54-2.18,0-.09,0-.18,0-.27,0-.38-1.29-.2-2.54-.27-3.82.88.32,1.86.39,2.73,0Z" fill="#ed652a"/>
          <path d="M31.63,84.08c-.53-3.12,3.55-1.23,1.93-.12-.42.29-1.39.07-1.93.12Z" fill="#e58412"/>
          <path d="M30.81,85.17c-.15-.83.42-.53.94-.55.78-.03,1.56.02,2.33,0-.15,1.41-2.01,1.14-3,.82-.09-.03-.18-.22-.27-.27Z" fill="#d89119"/>
          <path d="M30.54,80.81c-.14-.28-.51-.36-.54-.96-.1-2.28.56-6.78.81-9.27.39-3.83,1.15-7.62,1.36-11.47l.55.41c-.03.07.03.18,0,.27-.16,6.73-.11,13.49.16,20.3l-.16.72c-.31.43-1.88.79-2.18,0Z" fill="#6bb0de"/>
          <path d="M32.72,80.81v.55c-1.57-.02-.97.23-1.58.54-.25.12-.75-.06-.88,0v-.27c.85.08.56-.25.27-.82.6-.11,1.69.16,2.18,0Z" fill="#80a7a6"/>
          <path d="M34.09,68.79c-.23-1.18-.9-2.37-.55-3.82-.52-.08-.73.21-.82.68-.29,1.6.25,3.33.28,4.9.06,2.79.33,7.25,0,9.86-.04.28,0,.31-.28.4,0-5.08-1.2-16.91,0-21.03l1.37,9.01Z" fill="#9dcbef"/>
          <path d="M34.09,90.36c-.06,1.77.08,3.41-2.19,3v-3c.05,0,.29-.29.67-.3.54-.02,1.21.34,1.51.3Z" fill="#f4c52a"/>
        </g>
        <g>
          <path d="M13.49,80.81l.32.28c.55-.46.9-.37,1.05.26,1.33.45,2.2,1.06,1.91,2.6-.1.56-.44.52-.54.68-.44.36-1.17.36-2.18,0-.33.6-.69,1.15-1.09,1.64.35.67-.09.86-.55.27-.05,1.18-2.68,1.13-2.73,0-.45-.47-.54-.83-.27-1.09.36-.49.27-.58-.27-.27-.13,1.05-.96.21-1.13-.6-.52.02-.87-.14-1.06-.49-.49-.77-.1-1.07,1.14-.9l.49-.2.21-.64c1.48-.43,2.5-.77,3.07-1-.47-.91,1.49-1.61,1.64-.55Z" fill="#f0bb2d"/>
          <path d="M11.31,57.6c.21.64.21,1.18,0,1.64.17.45.15.55-.27.27l-.3.27c-.56,5.8-1.15,11.55-1.77,17.25-.06,1.35-.1,2.61-.11,3.78,1.32.17.7,1.3-.27.82-.08.24-.17.23-.27,0h-.27c-.72-2.51-.72-5.15,0-7.92.21-2.68.52-5.62.85-8.29.15-1.18,1.05-8.74,1.74-8.91s.59.85.68,1.09Z" fill="#3d77a2"/>
          <path d="M11.85,60.05c.73,4.33,1.55,8.65,2.15,13.01.37,2.75.77,5.53.86,8.29-.27-.09-.83.11-1.18,0-.3-.09-.16-.54-.19-.55-.34-3.68-.77-7.41-1.3-11.17l.21-.85c-.32-1.26-.52-2.54-.62-3.84l-.53-.11c-.28-1.67-.29-3.37-.21-5.06-.24-.07-.23-.16,0-.27.04-.09.21-.17.27-.27.26.05.45.33.55.82Z" fill="#497595"/>
          <path d="M9.12,89.82c.27-.13.54.05.82.55.03-.25.12-.23.27,0l.55.3c-.44,2.98,1.08,2.97,1.08.19l.56-.48c.12-.55.3-.73.55-.55-.12,1.25.18,4.7-1.77,4.67-1.84-.03-1.29-1.2-1.51-2.06-.31-1.15-.38-1.34-.53-2.61Z" fill="#e1bb54"/>
          <path d="M11.03,81.35c.25-.53.57-.53.82,0-.03.03.08.38-.05.49s-2.14.21-3.23,1.15l-.12.27c-1.24-.24-1.75.04-1.52.83.74.1.7.32,0,.55-.12-.06-.41.05-.55,0-.78-.42-1.17-1.22-.55-1.91.05-.07.2-.22.27-.27.83-.14,1.65-.32,2.46-.55.01-.12.2-.18.55-.19.13-.79,1.41-.78,1.9-.36Z" fill="#d8c66e"/>
          <path d="M8.58,82.99s.13.51-.18.57c-.58.11-1.47-.73-1.46.52,2.47-.32,1.27.52,1.68,1.06.1.13.43-.01.51.03.41-.36.57-.19.27.27.23.34.25.7.27,1.09-.35.25-.62.61-.82,1.09-.38-1.6-.27-2.23-1.91-3-.03-.15.05-.5,0-.55-.13-.13-.83.22-.55-1.09h2.19Z" fill="#e2bf43"/>
          <path d="M9.67,86.54c.85.52.82,3.06.27,3.82-.51.02-.57-.13-.82-.55-.1-.78-.26-1.3-.27-2.18,0-.54,0-1.09,0-1.64.07-.11.6.47.82.55Z" fill="#be5b3e"/>
          <path d="M8.03,81.63c-.26-.06-.37-.23-.49-.45-.53-1.02-.14-4.07-.02-5.38.06-.64.21-1.51.51-2.08-.2,2.62-.59,5.34,0,7.92Z" fill="#eff3e0"/>
          <path d="M12.95,86.27c.35-.36.36-.21.27.27.2,1.1-.17,2.21-.27,3.28-.14.14-.39.53-.55.55-.79-1.05-.83-2.81,0-3.82.1-.05.53-.24.55-.27Z" fill="#c06041"/>
          <path d="M16.22,84.63c-.05.07.16.48-.17.56-.54.13-1.4-.1-2.01-.01-.44.11-.44-.07,0-.55.14-.09.28-.57.43-.56.4.02,1.06.86,1.75.56Z" fill="#faf1ce"/>
          <path d="M8.58,81.9s.11.47-.18.55c-.6.16-1.6-.11-2.28,0,.07-.05.09-.4.45-.5.56-.15,1.26.16,1.74-.32h.27c.24.08.23.17,0,.27Z" fill="#eff3e0"/>
          <path d="M14.04,84.63c-.03.17.04.4,0,.55-.12.4-.72.87-.82,1.37-.01-.06-.22-.17-.27-.27.46-1.09-.44-.65,1.09-1.64Z" fill="#dac05e"/>
          <path d="M6.39,84.63c-.71-.27-1.34-.45-1.06-1.46.09-.33.45-.37.51-.45-.1.74.04,1.36.55,1.91Z" fill="#f6f4d5"/>
          <path d="M11.85,60.05c-.12-.22-.51-.64-.55-.82-.08-.49.06-1.12,0-1.64.43,1.1.37,1.4.55,2.46Z" fill="#4e7ca4"/>
          <path d="M11.03,80.81c.22-4.51.13-9.04-.29-13.58-.35-2.51,1.08-4.15,1.18-.79l.48,2.36c.69,3.63,1.28,7.42,1.6,11.1.05.53.31,1.06-.51.92-.34-.22-1.33.28-1.64.55-.27,0-.55,0-.82,0-.73-.09-.69-.34,0-.55Z" fill="#c0d2e4"/>
          <path d="M12.4,86.54c-.03,1.27.04,2.55,0,3.82-.45.54-1.17.54-2.18,0-.09,0-.18,0-.27,0-.38-1.29-.2-2.54-.27-3.82.88.32,1.86.39,2.73,0Z" fill="#ed652a"/>
          <path d="M9.94,84.08c-.53-3.12,3.55-1.23,1.93-.12-.42.29-1.39.07-1.93.12Z" fill="#e58412"/>
          <path d="M9.12,85.17c-.15-.83.42-.53.94-.55.78-.03,1.56.02,2.33,0-.15,1.41-2.01,1.14-3,.82-.09-.03-.18-.22-.27-.27Z" fill="#d89119"/>
          <path d="M8.85,80.81c-.14-.28-.51-.36-.54-.96-.1-2.28.56-6.78.81-9.27.39-3.83,1.15-7.62,1.36-11.47l.55.41c-.03.07.03.18,0,.27-.16,6.73-.11,13.49.16,20.3l-.16.72c-.31.43-1.88.79-2.18,0Z" fill="#6bb0de"/>
          <path d="M11.03,80.81v.55c-1.57-.02-.97.23-1.58.54-.25.12-.75-.06-.88,0v-.27c.85.08.56-.25.27-.82.6-.11,1.69.16,2.18,0Z" fill="#80a7a6"/>
          <path d="M12.4,68.79c-.23-1.18-.9-2.37-.55-3.82-.52-.08-.73.21-.82.68-.29,1.6.25,3.33.28,4.9.06,2.79.33,7.25,0,9.86-.04.28,0,.31-.28.4,0-5.08-1.2-16.91,0-21.03l1.37,9.01Z" fill="#9dcbef"/>
          <path d="M12.4,90.36c-.06,1.77.08,3.41-2.19,3v-3c.05,0,.29-.29.67-.3.54-.02,1.21.34,1.51.3Z" fill="#f4c52a"/>
        </g>
      </g>
    </g>
  </g>
</svg>