<?xml version="1.0" encoding="UTF-8"?>
<svg id="Layer_2" data-name="Layer 2" xmlns="http://www.w3.org/2000/svg" viewBox="0 0 64 96">
  <g id="Cards">
    <g id="Swords">
      <g id="TenOfSwords">
        <g>
          <path d="M3.46,7.91h-1.51V2.22c-.55.52-1.2.9-1.95,1.14v-1.37c.39-.13.82-.37,1.28-.73.46-.36.78-.78.95-1.26h1.22v7.91Z" fill="#2a2b2c"/>
          <path d="M6.63,0c.76,0,1.36.27,1.79.82.51.64.77,1.71.77,3.21s-.26,2.56-.77,3.21c-.43.54-1.02.81-1.78.81s-1.38-.29-1.85-.88-.7-1.64-.7-3.15.26-2.55.77-3.2c.43-.54,1.02-.81,1.78-.81ZM6.63,1.25c-.18,0-.35.06-.49.17s-.25.33-.33.63c-.1.39-.16,1.05-.16,1.97s.05,1.56.14,1.9.21.58.35.69c.14.11.3.17.49.17s.35-.06.49-.17.25-.33.33-.63c.1-.39.16-1.04.16-1.96s-.05-1.56-.14-1.9-.21-.58-.35-.69c-.14-.12-.3-.17-.49-.17Z" fill="#2a2b2c"/>
        </g>
        <g>
          <path d="M60.54,88.09h1.51v5.69c.55-.52,1.2-.9,1.95-1.14v1.37c-.39.13-.82.37-1.28.73-.46.36-.78.78-.95,1.26h-1.22v-7.91Z" fill="#2a2b2c"/>
          <path d="M57.37,96c-.76,0-1.36-.27-1.79-.82-.51-.64-.77-1.71-.77-3.21s.26-2.56.77-3.21c.43-.54,1.02-.81,1.78-.81s1.38.29,1.85.88.7,1.64.7,3.15-.26,2.55-.77,3.2c-.43.54-1.02.81-1.78.81ZM57.37,94.75c.18,0,.35-.06.49-.17s.25-.33.33-.63c.1-.39.16-1.05.16-1.97s-.05-1.56-.14-1.9-.21-.58-.35-.69c-.14-.11-.3-.17-.49-.17s-.35.06-.49.17-.25.33-.33.63c-.1.39-.16,1.04-.16,1.96s.05,1.56.14,1.9.21.58.35.69c.14.12.3.17.49.17Z" fill="#2a2b2c"/>
        </g>
        <g>
          <path d="M33.92,81.69c-.08.74.29,1.19,1.12,1.34.35.19.53.99.41,1.41-.28,1-1.48.67-1.87,1.05-.42.41-.61,2.15-.5,2.75.15.84,1.33,2.33.79,3.26-.21.36-1.91.96-2.4,1.29-1.85,1.27-2.18,2.49-4.89,2.95-.68.12-3.18.41-3.54-.17s.45-2.19.9-2.7c.62-.7,1.68-1.06,2.37-1.66,1.56-1.36,3.93-3.71,3.1-6.03-.09-.26-.72-.42-1.09-.81-.23-.4-.39-.77.11-.85.6.22,5.85.95,5.92.58-.53-.18-.83-.46-.88-.85-.4-.44-.36-.56.22-.67-.32-.25-.24-.95.22-.9Z" fill="#768e48"/>
          <path d="M44.45,81.24c.84.25,1.67.37,1.57,1.43-.12,1.25-1.11.85-1.65,1.53-2.23,2.83,2.88,4.38,4.55,5.68,1.47,1.15.11,1.98-1.25,2.09-1.57.13-6.39-.66-7.93-1.21-2.16-.77-.77-1.74-.38-3.08.26-.89.85-3.23.49-3.98-.25-.53-.92-.45-.78-1.57.22-.38.57-.92.9-.45.74-.52,1.17.18.22.45l-.25.35c-.14.25,6.97.42,4.26-.1l-.2-.47c-.22-.35.14-.59.45-.67Z" fill="#768e48"/>
          <path d="M19.58,3.5c.38,1.26-.18,2.26-.45.45-.48-.26-.78-.86-.9-1.79-.45.23-.73,2.1-.78,3.03.13,6.37.17,13.09.11,19.75-.02,1.9-.23,3.78-.45,5.67-.04.52-.54.5-.67,0-.56.14-.63-.16-.22-.9V4.07c.46-1.06.7-2.58,1.91-3.05.61,0,1.31,1.91,1.45,2.48Z" fill="#437fa4"/>
          <path d="M38.18,58.39c.17.76.21,1.59.13,2.51.44,2.38.72,4.27.53,6.71-1.22,4.95-.79,9.01,1.63,13.42l-.27.21c.56.45.42.45-.22.45-.12.11-.72.18-.9.45.07-.52.54-.77.45-1.43-.1-.72-1.02-2.03-1.27-2.78-1.57-4.68-.33-7.02-.06-11.57.09-1.58-.27-2.56-.46-4.04-.04-.31.2-.67-.32-.56-.14.03-.49.22-.56.39-.25.57-.81,3.78-.84,4.48-.05,1.14.39,2.84.37,3.95-.05,2.49-.79,5.87-1.33,8.3-.15.68-.98,3.11-.9,3.57.04.25.8.22.91.58-.69-.36-1.38.3-1.12-1.34l-.22-.38c1.26-4.98,2.13-9.75,1.75-14.9-.14-1.02,1.04-7.46,1.5-7.58.1-.03.21-.01.33,0-.7-.64.64-1.21.9-.45Z" fill="#fce6ec"/>
          <path d="M36.61,58.39v.22c-.13.23-.28.39-.47.46l-5.54.19c.65,2.94,1.08,4.96.64,8.07-1.41,5.09-1.74,9.59-.47,14.71l-.44.54c-.25.58-.64.1-.67-.45-.15-.26-.22-.56-.22-.9-1.12-6.26-.25-7.99.61-13.84.47-3.21.08-5.48-.83-8.56.62-.62,6.99-1.12,7.26-.77.07.09.1.2.13.33Z" fill="#a73b2f"/>
          <path d="M35.26,35.98c.2.61-.39.84-1.75.69.21.19.11.4-.04.66.57.11.86.29.67.9-1.14.93-1.1,2-.24,3.2l-.21.38c.5.38.65.68.45.9-1.06,1.02-2.93-2.34-1.79-2.91-.52-.34-.65-.45,0-.67l-.38-.39c.75-1.49.21-2.1-1.64-1.85-.16.52-.6.59-1.34.22l-.02.56c-1.46.71-2.69,1.88-3.69,3.53l-.31-.06c.35.26.2.63-.45,1.12.08.32-.08.64-.5.98.58.56.82,1.05.73,1.49.9.27,1.2.65.9,1.12l.37.55c-.05,2.65-.11,5.08-1,7.58.93-.13,1.58,0,1.98.38.69.76.07,1.7-.89,1.17-.34.38-1.02.64-1.35.18-.26,1.06-1.12,1.49-1.37.15.79-3.34,1.18-6.71,1.18-10.12-1.96-1.19-3-2.78-.61-4.19.18-1.08.74-2.04,1.69-2.87.18-.15.37-.39.45-.45.94-1.16,2.29-1.91,4.03-2.24.07,0,.15,0,.22,0,1.49-.36,3.48-.44,4.93,0Z" fill="#caa43e"/>
          <path d="M45.12,38.45c.03.1,1.07,1.31,1.3,1.72.4.74.81,1.49,1.06,2.3.32,4.34,1.48,9.04,1.67,13.34.09,2.09-.03,2.12-2.01,2.13-.95.14-1.9.15-2.86.02l-.28-.46c-.19-.4-.07-.56.34-.6l3.69-.18c-.49-4.32-1.01-8.64-1.55-12.95-.41-1.9-1.11-3.14-2.03-4.64-.8-.64-.03-.81.67-.67Z" fill="#22457e"/>
          <path d="M20.03,27.69c.1.4-.03.9-.4,1.5.05.64-.04,1.11-.27,1.41-.06.2-.14.19-.22,0l-.45-.16V4.22l.45-.27c.09.22.27.4.23.67h.22s0-1.12,0-1.12c.05.2.2.31.24.76.64,6.69-.09,15.27-.02,22.21,0,.38-.14,1,.23,1.23Z" fill="#6589a1"/>
          <path d="M45.57,58.39c-.14,2.19-.04,4.47-.72,6.56-.56,1.69-.76,1.44-.85,3.52.05,4.29.13,8.6.22,12.9-.28.3-.55.27-.67-.13l-.31-.88c0-4.48-.11-8.89-.37-13.21.11-1.08.72-3.08,1.58-3.6-.6-.19-.61-.47,0-.67-.13-.1-.28-.22-.3-.37-.03-.3.2-3.27.28-3.69l.47-.42c.09-.53.45-.48.67,0Z" fill="#a6372b"/>
          <path d="M40.64,35.54c4.34-.91,6.05-.49,5.14,1.26l.02.53c-.51.12-.66.17-.67.9l-.75.47c-.31.02-2.88-.44-2.95-.91-.14.66-.81.54-1.28.21-.99.14-2,.22-3.05.24-.19-.35-.57-.36-.72,0l-.33-.45c.08.71-1.49.73-1.9.45-.44-.2-.48-.55-.67-.9l.85-.46c3.09-.35,6.12-.3,9.1.14.61.02.93-.17,1-.8l-7.19.18c-.46-.05-.89-.18-1.3-.41-.25.04-.54-.24-.44-.32.58-.51,4.3-.34,5.15-.13Z" fill="#ceaf48"/>
          <path d="M36.38,27.47c.3-.88,1.35-.16,1.77.44.51,1.05,1.26,1.88,2.07,2.7l1.51.05c1.8,1.7,5.21.16,6.2-2,.47-.7.95-.94,1.44-.73.5-.28.8-.28.9,0,.02.14-.04.33,0,.45.05.23-.1.37-.45.45-.54.43-.97,1.01-1.31,1.75l-.48.04c-.2.38-.42.6-.67.67-.18.4-.93,1.05-1.34.67-.12.64-.34.79-.67.45l-.1.46c-.38.14-3.3.24-3.26-.46-.25.3-.55.15-.9-.45-.84.89-2.59-.83-2.91-1.79-.11.01-.2.01-.24-.03-.18-.21-1.06-1.31-1.17-1.48-.04-.05,0-.16.07-.28-.85-.13-1.15-.43-.9-.9.1-.39.22-.3.45,0Z" fill="#8b374b"/>
          <path d="M44,57.49c1.43.05,1.95.45,3.14.45-.31.16-1.28.42-1.57.45-.22.02-.45-.01-.67,0-.07.11-.14.22-.23.31-.26.26-4.25.27-4.7-.31l-1.14.18c-.33,1-.62.79-.65-.18-.45-.14-.7.09-.9.45-.51.8-.65.31-.67-.45-.64-.16-4.19-.07-5.04,0s-1.65.55-2.36.44c-.55-.08-1.27-.41-2.02-.22l.11-.33c1.47.02,2.7-.1,3.7-.35.49-.68,3.01-.96,3.47-.22-.05-.65,3.34-.56,3.49-.45s.27.25.31.45c.73-.54,4.28-.92,5.03-.68.27.09.5.23.68.46Z" fill="#463d66"/>
          <path d="M29.66,14.03c0-.6.84-.73.91-1.23.19-1.43-1-1.12-.93-2.01.05-.61,1.28-.52.91-1.98-.05-.18-.4-.06-.46-.47-.07-.49-.05-3.02,0-3.61.07-.99,1.06-2.64,1.89-3.17.15-.1,1.89-.84,2.12-.91.31-.09,1.94-.47,2.19-.5.88-.11,3.05-.17,3.63.5.11.12.03.35.06.38l-.32.19c-1.88-.57-3.87-.48-5.95.26v.24c-1.36.71-3.61,2.3-2.31,3.92-.07.71-.19,1.44-.38,2.19.7,1.26.55,2-.24,3.12,1.46,1.05.52,2.86-.88,3.08h-.22Z" fill="#faf2d9"/>
          <path d="M45.12,38.22c0,.07-.02.17,0,.22-.44-.02-.69.22-.67.67-.45.38-1.18.09-1.34-.45-.21.6-.46.6-.67,0-.73.61-1.52.61-2.24,0-.36-.34-.05-.3-.06-.28-.21.34-.46.35-.84.28-.46.55-1.92.78-2.24,0-.24-.09-.45-.15-.67,0,.04.73-1.66.66-1.79,0-.91.99-.4,2.31.45,3.14.69-.97,1.84.84.9,1.34.7-1.12,1.13,1.56.34,1.88-.46-.06-.87.11-1.24.36-.36.53-.71.72-.9,0-.31-.2-.61.1-.9.9.39.33.1,1-.45.9-.77,1.02-1.95,1.36-2.46,0-.43-.12-.43-.32,0-.45l.17-.27c.84.25,1.6.04,2.3-.62-.39-1.03.39-1.56,2.35-1.6.23-.44.49-.81.78-1.09l-.4.28c-.69-.46-1.31-1-1.84-1.63-.24-.41-.33-.85-.52-1.27-.05-.12-.43.07-.37-.59.1-1.11.4-1.46,1.34-1.72.36-.1,1.69-.45,1.9-.45h5.38c.93,0,2.53.8,3.7.45Z" fill="#456c7a"/>
          <path d="M25.63,38.67c.08.87-1.14,1.4-1.3,1.95-.11.37.05.94-.08,1.15-.11.19-1.55.29-1.51,1.72.03,1.28,2.12,1.65,2.22,2.06.14.56-.22,1.34-.24,1.96-.08,2.83-.27,3.13-.84,5.66-.2.92-.2,2.24-.27,3.2.65-.13.46-.4,1.12-.67.59.07.57.28,0,.45.31.46.31,1.13,0,2.02-.3-1.42-.28-.83-1.01-1.33-1.14-.78-.43-1.74-.32-2.57.2-1.55.59-2.19.88-3.42.14-.6.07-4.75-.21-5.13-.15-.21-1.53-1.18-1.57-1.38-.08-.37-.07-1.36-.02-1.75.06-.43,1.19-1.07,1.29-1.29.19-.45.09-.81.45-1.45.27-.49,1.11-.92,1.41-1.18Z" fill="#f7efcb"/>
          <path d="M50.28,28.37c.11.35.62.49.86.82,2.16,2.95,1.21,4.83-1.76,6.35-.35.13-.65.13-.9,0-.4-.55-.87-1.04-1.42-1.47l.07-.55c-.55-.06-.7-.21-.45-.45-.5.14-.48-.66,0-.67-.11-.4.29-1,.67-1.12.18-.35.16-.73.67-.67.4.56.46,1.31.17,2.23.18.4,1.06,1.54,1.59,1.26,2.32-1.23,1.36-3.3-.11-4.77l.14-.5-.23-.45h.67Z" fill="#263e73"/>
          <path d="M29.66,82.14c.22.29.36.52.42.69,1.09.05,2.18.09,3.27.12l.11.31c.71.1,2.21.92.97,1.31-.87.27-4.49-.25-5.5-.48-.41-.09-.71-.45-.62.29-1.71-1.78,1.01-1.68,1.12-1.79.07-.07-.05-1.07,0-1.34.04.24.18.42.22.9Z" fill="#92ae4e"/>
          <path d="M17.12,30.61c.2-.64.69-.63.9,0,.02-.67,1-.62,1.12,0h.22c.2.06.19.13,0,.22,1-.04,1.44.18,1.34.67.67.42-.41,1.65-.9.9-.42.47-.78.09-.45-.45.77-.38-1.18-.35-1.79-.32-.6-.09-1.05.02-1.34.32,1.32.3,1.23,1.83,0,2.24l-.14.49c-1.13.55-2.28,1.86-2.62,3.08l-.37.02c-.72.96-.47,2.73.41,3.91l-.18.57c.13-.05.24-.08.32-.04,1.09.62,2.86,1.86,2.96,3.08l.31.09c.27-.64.35-.55.67,0,.16-.44.59-.66,1.29-.66-.04-.61.13-.99.5-1.13-.19-.07-.19-.15,0-.22-.13-.61.03-.66.45-.22.31.67.35,1.36,0,2.02-.79,1.11-1.6.65-2.69,1.12-1.14.67-2.18-.13-1.91-1.42l-.24-.46c-1.09-.22-1.96-1.12-2.32-2.15-.11-.32-.17-.77-.22-.9-.26-1.71-.27-3.63.67-5.15.23-.34.4-.78.67-1.12l.05-.24c1.48-.81,2.08-1.46,1.81-1.96-1.01-1.02-.5-2.79.83-2.28.19-.04.45.02.67,0Z" fill="#c6a04b"/>
          <path d="M46.91,18.73l.21.04c.15.75.35,1.44.91,1.98.27.36.82.86.95,1.18.23.56.06,1.11.38,1.64.48.83,1.92.53,2.21,1.83.25,1.1-.15,2.26-1.3,2.53-.25.06-.62-.04-.9,0l.03-.58c.78-.31,1.55-1.31.9-2-1.79-.12-2.23-1.36-2.31-2.99-1.18-.74-1.76-2.1-2.11-3.41l.35-.44c-.39-.42-.39-.64,0-.67.36-.37.58-.07.67.9Z" fill="#a63a34"/>
          <path d="M29.66,14.03h.22c.18.8-.4,1.25-1.12,1.57-.03.37-1.06.91-1.34.67l-.32.5c-2.95.18-4.02,2.35-3.93,4.98l-.23.12c-.18,1.02-.33,1.99-.45,2.91.14.57-.01.6-.45.22.26-.6-.4-.67-.44-.83-.34-1.44.8-1.42.88-1.8.17-.84-.12-2.02,0-2.88.05-.41.41-.28.46-.48.07-.27-.06-.58.07-.9.03-.09,1.27-1.28,1.35-1.33.74-.5,1.86-.37,2.61-.64.1-.03,1.66-1,1.73-1.07.35-.32.33-1.11.96-1.05Z" fill="#f7ecc6"/>
          <path d="M42.66,3.72s.39-.09.45.15c.15.56-.1,1.57-.02,2.22.05.42.42.29.46.48.31,1.32-.27,1.99.48,3.69.39.89.22.7.43,1.63.26,1.13,1.8,2.63,2.2,3.67.67,1.77.34,3.5,1.37,5.19-.11-.14-.43-.24-.64-.59-.28-.47-.3-.99-.48-1.43l-.45-1.55c-1.61-2.79-2.86-5.79-3.91-8.77.5-.99.47-2.19-.1-3.62l.21-.17c-.22-.48-.22-.78,0-.9Z" fill="#f6ebc6"/>
          <path d="M31.9,22.54c.6-.19.7.03.22.45.35.47-1.04,1.98-1.57,2.24.1.09.18.17.18.26,0,.36-1.99,2.48-2.42,2.43.07.65-.31.76-.67.22-.12.04-.31-.02-.45,0-.37-.37-.52-.75-.45-1.12-.64-.5-1.29-1.04-1.93-1.62l.37-.4c.25-.42.52-.34.91-.15l1.68,1.76.55-.05c-.24-.51.06-.8.9-.9-.19-.3-.04-.55.45-.75.18-.77.62-1.41,1.34-1.94.19-.75.49-.9.9-.45Z" fill="#a8a05e"/>
          <path d="M44.45,81.24c.06.45-.1.46-.45.67-.66.64-3.14.89-3.81.22.29-.46.37-.49-.22-.45.04-.04.23-.41.22-.45.25-.43.37-.4.67,0,.55-.7,2.1-.65,2.69,0,.15,0,.3.01.45,0,.13-4.24-.17-8.53,0-12.77.37.23.22.85.23,1.23.05,3.81-.26,7.83.22,11.54Z" fill="#91863f"/>
          <path d="M28.32,27.92c.28.62.43,1.37.45,2.24l.53.29c.35,1.48.76,3.04,1.93,4.09l-.22.55c.44.11.43.32,0,.45.02.34-.59.32-.67,0-.15-.51-.97-1.42-1.24-2.01-.76-1.64-1.34-3.56-1.45-5.39.12-.04.64-.2.67-.22Z" fill="#234277"/>
          <path d="M45.79,34.64c.51.17.84.65.99,1.44.68-.72,1.24-.9,1.7-.55.25-.06.62.04.9,0-.43.22-.83.19-1.11.35-1.15.63-.51.98-2.48,1.45-1.01-.46,0-1.1,0-1.79-1.71,0-3.44,0-5.15,0-.59-.07-.57-.28,0-.45,1.31-.31,2.99-.54,4.26-.22-.03-.5.52-.5.9-.45.11.05.1.12,0,.22Z" fill="#b09d5b"/>
          <path d="M27.2,28.14c-.81,1.58-3.43,3.22-4.03,4.48-.28.84-1.27.17-1.12-.45-.2-.06-.19-.14,0-.22.09-.35.41-.61.95-.78.53-.85,1.04-1.19,1.51-1.01-.14-.17-.16-.36-.07-.55.98-.75,1.67-1.62,2.08-2.58.07-.1.14-.09.22,0,.14.17.55.23.63.6.04.21-.1.36-.19.53Z" fill="#2d4a78"/>
          <path d="M23.17,24.78c.48.14.56.29.22.45-.2.6-.65,1.18-1.36,1.72-1.21,1.1-1.8,2.32-1.77,3.66.12.43-.53.33-.9.22-.02-.05.01-.14,0-.22-.18-1.15.09-1.99.67-2.91.26-.42,1.75-2.45,2.02-2.69.08-.07.33-.18.45-.22-.08-.72.64-.73.67,0Z" fill="#284e84"/>
          <path d="M40.64,35.09v.45c-1.3,0-2.63-.05-3.93,0-.43.02-.9-.23-.77.45-.25.57-.42.57-.67,0-1.64.04-3.29-.07-4.93,0-.02-.14.04-.33,0-.45h.67c3.2-.56,6.41-.71,9.63-.45Z" fill="#a6a066"/>
          <path d="M25.63,56.6c.28.14.39.43.33.88.51-.09.85.07,1.01.46,1.19-.63,2.87-.65,4.03,0,.12.68-.34.43-.77.45-1.19.05-1.86-.02-3.03.22-.14.03-.24.27-.76.24-.37-.02-1.19-.25-1.48-.46-.27-.53-.23-1.81.45-1.79-.64-1.08.77-.95.22,0Z" fill="#263e79"/>
          <path d="M22.05,32.17c.15.04.63.65,1.12.45-.47.99-.16,1.44-1.12,2.46-.7.38-1.36.76-1.98,1.15l-.26-.26c-.31-.24-.44-.4,0-.45v-.48c.49-.13,2.32-1.09,2.31-1.5,0-.17-.3-.66-.29-.26-.74.82-1.32.08-.9-.9-.3-.58.08-.65,1.12-.22Z" fill="#cbab5a"/>
          <path d="M22.05,35.09c-.61.65-.92.83-1.81,1.02-.22,1.22.49,1.94.47,2.88-.02,1.16-.51,2.67-.6,3.86-.04.52.25,1.1.14,1.76-.08.49-.36.44-.45.56,0-.67,0-1.35,0-2.02-.45-.19-.48-.72,0-.9-.08-.77.04-1.43.36-1.98v-.86c-.48-.13-.46-.89-.13-1.2-.39,0-.39-.16,0-.45-.63-.04-.7-.25-.22-.67-.2-.05-.19-.13,0-.22-.44-.16-.51-.82,0-.9.64-.05,1.53-.83,2.24-.9Z" fill="#f3e3c7"/>
          <path d="M16.45,30.61c-.87.17-1.49.63-1.01,1.58.24.47,1.24.27.68,1.34-.15.28-1.91,1.33-2.35,1.57-.48-.17.66-1.25.73-1.28.6-.26,1.03.32.82-.84-.06-.34-.36-.58-.43-.92-.29-1.57.68-1.27,1.33-2.34l.22.9Z" fill="#f8f2d8"/>
          <path d="M12.64,42.26c.51.37.72.93,1.23,1.34.31.25,1.61.85,1.66.93.24.42-1.01,2.1,1.59,1.76-.38.16-.38.86-1.47.23s-.69-1.95-.77-2.03c-.04-.04-.55.06-.83-.07-.09-.04-1.3-1.26-1.34-1.34-.14-.34-.01-.66-.07-.83Z" fill="#f8eecb"/>
          <path d="M30.11,35.98c-.53.74-1.62.63-2.44,1.03-.6.29-1.06.82-1.59,1.21.08-.63.79-1.22,1.33-1.47.73-.34,1.97-.74,2.7-.77Z" fill="#ecdead"/>
          <path d="M12.41,41.36c-.02-.06-.21-.43-.22-.45-.39-.54-.39-1.69,0-2.24.1-1.49.11-1.29.9-2.46-.71,1.76-.78,3.26-.67,5.15Z" fill="#f5e8c4"/>
          <path d="M12.19,38.67c-.05.74.03,1.5,0,2.24-.03-.03-.31.07-.4-.04-.1-.12-.3-2.65.4-2.2Z" fill="#f8eecb"/>
          <path d="M24.73,56.15c.4-.69.76-.37.67.45-.32.63-.63.95-.45,1.79-.09-.07-.2-.1-.22-.22-.1-.46,0-1.46,0-2.02Z" fill="#97977c"/>
          <path d="M41.31,2.38c.09.09,1.18.3,1.31.49.15.22-.03.73.04.85-.53.06-1.4-.81-1.34-1.34Z" fill="#f9efd3"/>
          <path d="M39.97,1.03c.21.06.64-.11.85.04.19.13.4,1.22.49,1.31-.5-.02-1.34-.86-1.34-1.34Z" fill="#f8eed1"/>
          <path d="M32.57,85.28c.15.16-.26,2.21-.22,2.79.08.99.75,1.64.86,2.3.24,1.37-1.13,1.08-1.9,1.48-.69.36-1.64,1.85-2.49,2.33-1.36.76-3.45,1.07-4.98.95-.12-1.78,1.69-2.22,2.62-2.98.66-.54,2.85-2.89,3.21-3.62.62-1.29.27-2.16.7-3.45.19-.12,2.12.12,2.2.2Z" fill="#94b143"/>
          <path d="M36.61,58.39c.1.03.29.61.67.45-.42.77-1.44,5.59-1.54,6.64-.23,2.52.27,4.95-.03,7.59s-1.15,6.01-1.79,8.63c-.08.31-.15.47-.22.9-.15.4-.36.45-.45,0-.47-.75-.5-1.7-.08-2.86,1.47-4.64,1.68-9.26,1.64-14.09.09-2.2.4-4.4,1.13-6.49l.68-.53v-.22Z" fill="#a2362b"/>
          <path d="M29.66,82.14c.21.4.27.41.67.45.47-.62,2.49-.68,2.91,0h.45c-.04.24-.09.47-.22.67-.51-.07-3.67-.09-3.81-.22-.02-.3.03-.6,0-.9Z" fill="#93732f"/>
          <path d="M40.42,86.84c.65-2.72-.82-3.47,3.14-3.14.12.51-.36.81-.44,1.24-.45,2.51,1.35,2.87,2.9,4.25l-1.12.56c.39-.16,1.16.63,1.34.45.04-.04-.46-.95.3-.87.49.05,3.02,1.58,1.16,1.78-1.99.22-4.02-.28-5.95-.68-1.18-.44-1.29-2.45-1.34-3.58Z" fill="#95b342"/>
          <path d="M44,81.91c1.65.1,1.67,1.2.55,1.35-.46.06-.9-.22-1.33-.23-.59-.01-4.34.32-3.47-.9.15,0,.3,0,.45,0,1.2-.05,2.71-.29,3.81-.22Z" fill="#94b14e"/>
          <path d="M41.76,90.43c-.63-.13-2.26-.06-2.44-.83-.05-.23.97-2.2,1.1-2.76.8,1.17.62,2.37,1.34,3.58Z" fill="#84a647"/>
          <path d="M19.13,3.95v26.66h-1.12l-.45-.16s.07-9.04.21-27.13c.05-.39.14-1,.46-1.17.63.49.61,1.12.9,1.79Z" fill="#afd6f0"/>
          <path d="M18.24,2.15l-.22,28.45c-.3,0-.6-.02-.9,0,.01-6.61-.02-13.22,0-19.84,0-1.98-.31-4.99,0-6.92.11-.67.72-1.19.66-1.92.42-.12.36.16.45.22Z" fill="#70b0dd"/>
          <path d="M38.18,58.39c.2.06.15.45.34.45.21,0,0-.39.26-.46.33-.09.83.06,1.2,0l-.06.31c-.87.32-1.13,1.2-.79,2.62.78,3.47.74,7.01-.14,10.6-.27,3.6.62,5.55,2.18,8.72l-.29.59c-.16,0-.4.28-.67,0-.04-.75-1.34-2.82-1.67-3.82-1.52-4.5-.15-6.83.11-11.07.16-2.68-1.19-5.25-.46-7.96Z" fill="#a13b2f"/>
          <path d="M36.61,58.61c-1.93,4.86-1.18,9.54-1.57,14.45-.25,3.15-1.71,6.36-1.79,9.53-.92,0-2.03.09-2.91,0,.03-2.06-.76-4.17-.89-6.16-.28-4.3,1.92-8.57,1.57-12.78-.13-1.59-.94-3.17-.91-4.81l6.5-.22Z" fill="#ed6130"/>
          <path d="M32.35,39.79c.06,1.16.5,2.55,1.79,2.91.64-.22,1.86.89,1.09,1.54-1.66-.07-2.54.42-2.64,1.47l-.24.13c-.08.94-1.91.99-2.24.22-.53-.59-1.29-.81-2.06-.9-1.29.49-2.21.42-3.32-.44-.74-.81-2.09-1.5-.22-2.46.4-.5,1.08-.87,2.05-1.1,1.38-.07,2.23-.59,3.06-1.68.67-.61,2.36-.47,2.73.31Z" fill="#eec432"/>
          <path d="M25.63,45.84c.02-.17.06-.4.21-.44s2.6-.14,2.71-.05c.31.28.03.73-.23.94.82.65-.4,2.48-1.05,3.16-.19,1.55-.19,3.11-.03,4.7l-.27.2-2.47.22c-.03-1.37.73-2.57.87-3.95.16-1.57-.04-3.21.25-4.79Z" fill="#f1c633"/>
          <path d="M24.96,41.14c.63-1.03,1.96-2.99,3.01-3.6.33-.19.75-.16,1.02-.44,1.83-.15.81,2.34-.16,3.24-.29.27-3.62,1.49-3.77,1.36-.14-.12-.12-.36-.1-.56Z" fill="#eec436"/>
          <path d="M30.11,46.07c.4.06.78.27,1.23.24.55-.03.67-.33,1.01-.47.09-.6.28-.58.45,0-.6,1.11-1.15,1.1-2.46.9-.18.39-.69.19-.86-.16l-.49.16c.31.81-.33,2.44-1.12,2.69-.16.2-.26.48-.3.84l-.12,5.29c-.1.78-.63,1.13-1.6,1.04-.06.2-.14.19-.22,0l-.11-.45c-.24,0-.05.32-.11.45-.17-.28-.3-.53-.67-.45v-.45c.67-.28,1.53-.53,2.24-.45,0-.3,0-.6,0-.9.03-1.41-.17-3.25.01-4.58s1.4-1.6,1.33-3.49c.05-.47.1-.55.15-.23.11-1.03,1.26-.71,1.64,0Z" fill="#a69e5b"/>
          <path d="M30.34,36.88c.42.15.58.64.48,1.45.86.04,1.38.3,1.54.79-.03.19-.01.47,0,.67-2.5-1.06-2.62.65-3.82,1.22-.93.44-3.12.77-4.02,1.24l-.22-.11c.29-.29.46-.67.67-1.01.78.63,1.04-.27,1.5-.4.39-.12.86.01,1.25-.09,1.18-.31,2.75-3.2,1.28-3.54-.19-.04-.46.03-.67,0v-.22c.57-.1,1.52.14,2.01,0Z" fill="#d3a31f"/>
          <path d="M24.73,44.72c.67-.05,1.28.47,1.91.46.56,0,.9-.41,1.36-.46s2.4.48,2.11,1.34c-.64-.09-1.19-.6-1.49.22h-.3c0-.22.01-.44,0-.67l-2.69.22c-.19-.5-.57-.76-.9-1.12Z" fill="#d3a425"/>
          <path d="M37.06,38.67c.37-.05.86.09,1.2,0,.23-.06.06-.41.26-.45.55-.11.15.59.78.45.17.19.46.19.9,0,.74,0,1.5-.01,2.24,0,.19.53.42.53.67,0,.74.05.79.1,1.34.45.24.15.39-.02.76.47,2.24,2.93,1.98,7.1,2.39,10.61.06.48.35.9.41,1.38.21,1.71.15,3.6.48,5.34-.18.67-3.85.05-4.5.58-1.91-.06-3.89.22-5.71.22h-3.81c-.94,0-2.34.21-3.47.22-1.33.02-2.7.05-4.03,0-.54-.45-.24-.9.9-1.34-.19-.05-.19-.13,0-.22.05-.4.13-.49.24-.28-.14-1.96-.07-3.89.2-5.77-.48-.3.54-2.98.9-1.79l.39.34c-.07-.9.17-1.46.73-1.68.93.1.61.38.82.45.81.24.73-.75,1.65-.45l.37.28c-.29,1.55-.52,3.21.08,4.71l.44-.06c-.56-2.26-.05-4.35.81-6.5l.54-.23c3.18-1.94,1.53,3.28.9,4.93.46.56,1.02-1.36,1.15-1.89.3-1.19.44-2.29.28-3.54-.23-1.87-.44-3.74-.63-5.62-.03-.26.09-.46.32-.6Z" fill="#1974b8"/>
          <path d="M44.9,58.39c-.09,1.22-.05,2.75-.21,3.94-.04.29-.22.48-.23.54-.25.29-.25.52,0,.67-.25,1.29-1.01,2.34-1.12,3.47-.1,1.03.22,1.79.23,2.68.07,3.85-.09,7.71,0,11.55-.89.04-1.8-.04-2.69,0-.46-1.74-1.68-3.43-2.13-5.15-.85-3.3.36-6.72.57-9.96.14-2.2-.86-4.13-.68-6.28.09-1.11.2-1.32,1.34-1.46,1.49-.19,3.37.08,4.93,0Z" fill="#ec6230"/>
          <path d="M44.45,62.87c-.03.21.04.47,0,.67l-1.12.11c.05-.56.62-.84,1.12-.78Z" fill="#ce3e1c"/>
          <path d="M35.94,35.98c2.99-.08,5.97-.29,8.96-.22.02,2.69-2.37,1.39-4.13,1.33-2.45-.08-4.85.24-7.29.23-.16-.28-.79-.66-.23-1.01.53-.34,1.6.2,2.02-.33.22,0,.45,0,.67,0Z" fill="#efc839"/>
          <path d="M46.24,18.51c.32,1.28.6,2.02,1.42,3.06.15.19.59.26.71.52.3.64-.06,1.83.88,2.49.75.52,1.92-.14,1.69,1.64-.13,1.03-.91,1.15-1.56,1.7-1.45,1.22-1.27,1.31-2.32,2.61-.87,1.08-3.81,1.54-5.03,1.04-.26-.1-.24-.48-.42-.52-.51-.11-1.08.14-1.58-.07-.09-.04-1.23-1.25-1.39-1.45-.72-.87-.77-2.1-2.25-2.07-1.35-.85-2.49-2.35-3.19-3.76-.13-.25-.15-.49.06-.72-1.83-.24-2.43-4.83-.86-5.41,1.02.23,1.84-.21,2.47-1.31,1.55.99,3.4.84,5.02.14,2.07.28,4.18.62,6.1,1.47l.26.64Z" fill="#eb4b2b"/>
          <path d="M49.83,28.81c1.62,1.62,2.91,3.88.46,5.5-1.66,1.1-1.25-.62-2.61-1.25.24-.72.2-1.87.35-2.46.12-.48.32-.39.42-.64.29-.67.21-1.34,1.37-1.15Z" fill="#1c6eb1"/>
          <path d="M45.35,32.4c.68.22.37,2.48-.45,1.79.02.52-.53.47-.67,0-.55.05-1.05.17-1.34.45-.1.3-.49.26-.67,0-.99-.05-.93-1.5-.22-2.24.25.07,3.09.07,3.36,0Z" fill="#2b6aa9"/>
          <path d="M33.25,22.99c.48.79.85,1.77,1.35,2.52.44.65,1.57,1.14,1.79,1.96-.15,0-.3,0-.45,0-.74.32-1.54-.67-1.79-1.34-.32-.29-.79-.98-.45-1.34-.45-.08-.69-.52-.9-.9-.61-.28-.61-.62,0-.9-.08-.37.07-.37.45,0Z" fill="#8b3546"/>
          <path d="M41.09,31.95c.81.15.79.42.9.45.11.77-.7,1.61.22,1.94v.3c-.39.31-1.22.35-1.56,0-.11.01-.22,0-.3-.04-.21-.12.73-1.74.97-1.98-.44-.29-.52-.52-.22-.67Z" fill="#285580"/>
          <path d="M38.18,30.16c.08.1,1.73,1.68,1.85,1.72.41.15.73,0,1.06.07.11.2.21.44.22.67-1.07.86-2.92-.4-3.14-1.57-.36.03-.28-.73,0-.9Z" fill="#456199"/>
          <path d="M33.7,24.78c.17.32.43.57.44.61.07.24-.03.52,0,.73.57.38,1.21.91,1.79,1.34.06.05.83.85.9.9-.09.4-.24.34-.45,0-.56,1.48-3.68-1.64-2.24-2.24-.78.87-2.02-.98-.9-1.34,0-.46.19-.33.45,0Z" fill="#4d5a8c"/>
          <path d="M46.02,31.95c.59.07.57.28,0,.45.5.14.46.68,0,.9.29.22.22.59-.22,1.12-.25.54-.43.41-.9.45-.62-.12-.63-.52,0-.67.01-.03.32-.11.4-.37.13-.44.02-.96.05-1.42.04,0,.39-.3.67-.45Z" fill="#2a4274"/>
          <path d="M47.36,31.28c-.04.08,0,.4-.12.66-.12.28-.54.41-.56.46,0,.54-.57.56-.67,0v-.45c.46-.25.71-.79,1.34-.67Z" fill="#c3afd2"/>
          <path d="M36.83,28.37c1.21.89.63.95,1.34,1.79v.9c-.07.42-.25.4-.45,0-.54.02-.28-.84,0-1.12-.65.27-2.23-1.11-1.34-1.57.15,0,.3,0,.45,0Z" fill="#435f99"/>
          <path d="M33.7,1.48c.41-.16.71-.16.9,0l.13.27c-1.26.63-5.11,4.14-1.3,2.89.8-.25,1.27-.11,1.4.42l-.12.48c-.96.2-1.69.39-2.35,1.09-.31.03-.44.5-.41.77.11.84.45,2.38.86,3.04.45.05.43.27,0,.45.43.55.73,1.15.9,1.79.21-.07.28,0,.22.22.6-.67,2.02.68,1.12,1.12.09.07.17.14.21.22.11.28.56,1.63.52,1.72-.07.17-.31.24-.51.29-.24.27-.46.19-.67-.22-.48.09-1.24-.9-.45-1.12.28-.5.21-.5-.22,0-.04.2-.12.19-.22,0l-.4-.31c.06-1.26-1.66-2.2-1.9-.54l-1.28,1.29c-.05.44-1.12.59-1.34.22.35-.53.7-1.09,1.12-1.57.26-.3.66-.47.9-.78,1.12-1.49-.38-1.37-.46-2.26-.06-.65.66-.8.71-1.55.04-.71-.44-1.1-.47-1.59-.04-.54.44-.96.47-1.56.04-.79-.55-1.2-.43-1.95.2-1.23,2.03-2.38,3.1-2.86Z" fill="#cb9647"/>
          <path d="M39.97,1.03c.46.53.94.9,1.34,1.34.27.3,1.31,1.26,1.34,1.34.06.16-.03.64,0,.9-.43.06-.78-.52-.9-.9l-.45.1c-1.6-2.67-3.56-2.76-6.36-1.93l-.36-.41c-.3.02-.6-.01-.9,0,2.18-.99,3.96-1.11,6.27-.45Z" fill="#cba55e"/>
          <path d="M36.38,38.67s-.05-.4.11-.45c.51-.17.54.04.56.45.12,2.75.92,5.86.68,8.41-.13,1.44-1.15,2.96-1.15,4.25,0,1.18,1.04,2.33.93,3.36-.04.34-.33.76-.58.34-.08-.14-.9-2.79-.95-3.08-.1-.52-.07-1.1-.05-1.63.91-1.86,1.12-3.62.63-5.27l.08-1.53c-.38-.83-.96-3.63-.71-4.41.06-.2.27-.33.46-.44Z" fill="#0f5199"/>
          <path d="M43.11,38.67c-.25,3.12,1.73,5.74,2.4,8.69.14.6,1.04,6.78.62,6.77-.54,0-.5-.4-.56-.78-.27-1.57-.2-3.29-.5-4.88-.65-3.41-2.76-6.31-2.63-9.8.22,0,.45-.01.67,0Z" fill="#0e519b"/>
          <path d="M36.38,38.67c-.15,3.97,1.86,7.91-.45,11.65.06-1.37.94-3.01.85-4.09-.12-1.44-.79-.88-1.74-.84-.5,1.23-1.12,2.36-1.29,3.75-.13,1.03.22,2.13-.05,2.97-.2.02-.44.02-.53-.13-.83-1.35,0-5.51.97-6.59.04.03.71,0,.9,0,.04-.09-.07-.38.01-.43.07-.05,1.18-.02,1.32-.63.32-1.4-.4-1.11-.44-1.18-.19-.37.2-1.15-.9-1.34-.65-.36-1.16-2.62-.45-3.14.37-.02,1.67.07,1.79,0Z" fill="#246fb4"/>
          <path d="M39.3,38.67c.1-.48.72-.52,1.12-.45.06.04-.17.31-.22.45-.11.27-.24.2-.21.74.12,2.08,1.61,4.59,1.76,6.8.02.28.01.98-.32.97-.4,0-.91-3.71-1.06-4.31-.32-1.26-1.34-2.79-1.06-4.2Z" fill="#10539d"/>
          <path d="M33.7,41.81l2.24,1.34c.36,1.99-2.21,1.31-2.86,1.85-.21.18-.17.63-.28.84-.14.03-.35-.04-.45,0-.31-1.57,1.48-1.98,2.69-1.79.16-.77-.49-.79-.9-1.34-.11-.15-.35-.73-.45-.9Z" fill="#b9a950"/>
          <path d="M34.59,38.67l.45,3.14s-.28.26-.45.13c-.23-.17-.29-.6-.45-.86-.09-.15-.4-.14-.44-.32-.09-.4-.02-1.63.2-1.95.17-.25.46-.12.7-.13Z" fill="#165291"/>
          <path d="M47.14,33.52c.54.6,1.58.92,1.34,2.02-.89.21-1.29,1.19-2.24,1.12.21-.77-.38-1.37-.45-2.02.25-1.15.7-1.53,1.34-1.12Z" fill="#ccaa94"/>
          <path d="M47.14,33.52c-.9-.16-.85.64-1.34,1.12,0-.07,0-.15,0-.22,0-.27.19-.74.22-1.12.09-.58.29-.71.67-.22.01.03.32.31.45.45Z" fill="#6f6991"/>
          <path d="M46.69,32.4s-.02.61,0,.67l-.67.22c.03-.29,0-.6,0-.9h.67Z" fill="#868dc1"/>
          <path d="M21.82,33.3c0-.08-.17-.23-.22-.34-.08-.41,1.1.29.79.79-.05.08-1.23,1.22-1.31,1.26-.06.04-1.21.5-1.28.52l-.05.23c-.68-.11-1.36.35-2.02.83l-.4-.38c-.7-.38-.98-.29-1.74-.02l-.27-.2c-.2.46-.56.88-1.08,1.27.11.94-.01,1.77-.38,2.48.3.63.61,1.33-.25,1.61-1.05.34-1.21-3.19-.53-3.57.8-1.11,1.33-3.3,3.14-3.58l.5-.5c1.4.1,2.81.19,4.2.28.18-.3.48-.52.9-.67Z" fill="#f4c23f"/>
          <path d="M15.33,38.22c.38.64.37.94-.45.9-.31-.02-.18.18.41.58-.29.65-.41,2.78.56,2.19l.37.37c.17-.54.2-.53.45,0,.13-.43.33-.43.45,0,.54.07.44.18,0,.45.15.28.05.38-.22.22.05.43-.53,1.02-1.01.98-.81-.64-1.67-1.19-2.57-1.65-.66-.88-.93-3.33-.68-4.34.06-.26.44-.11.46-.14-.09.94-.89,3.28.67,3.14.17-.47-.46-.88-.41-1.19.03-.19.37-.42.4-.73.22-1.97-.57-2.03,1.58-3.02.51.03.58.28.23.75,0,.58-.08,1.07-.23,1.49Z" fill="#d7a436"/>
          <path d="M19.36,31.95l.45.45c.47.36.35.6-.22.67-.19.19-.19.41,0,.67.06-.19.13-.19.22,0l.85.14c.08-.26.17-.21.27.08-1.64.48-3.16-.02-4.7.22-.02-.6.44-.24.47-1s-.22-.65-.47-1.24c.76-.52,2.36-.46,3.14,0Z" fill="#d79929"/>
          <path d="M16.22,31.95s-.34-.06-.22-.45c1.49-.38,2.77-.11,4.26,0,.15.7-.47.42-.9.45-1.04.06-2.1-.04-3.14,0Z" fill="#edb94e"/>
          <path d="M21.15,31.5c.49-.06.79.09.9.45v.22c-.37-.1-.85-.05-1.12.22l-.12.9c.91.49-.35.74-1,.45-.07-.02-.16.02-.22,0-.55-.13-.51-.44,0-.67.02-.19.1-.56.22-.67.22-.18.96-.13.9-.9,0-.43.21-.3.45,0Z" fill="#766c3a"/>
          <path d="M20.25,30.61c.5-.66,1.52.28.9.9-.13-.03-.37.04-.45,0-.05-.03-.09-.28-.23-.33-.34-.12-.95-.02-1.11-.34l.9-.22Z" fill="#6589a1"/>
          <path d="M31.46,15.15c.5-.45,3.15.08,2.19.47-.41-.18-.84-.19-1.3-.02l-.34.53c-4.43.43-4.85.89-1.24,1.36.64-.78,1.17-.96,1.58-.54.54.12.97.02,1.27-.32l.52.1c.02-.61.16-.83.45-.67.13-.21.25-.41.23-.67h.22c.02.31-.12.69.23.89.4-.22.94-.23,1.59-.02.81-.18,1.4-.1,1.77.25-.03-.53.34-.68,1.12-.45,1.1-.14,2.1,0,3,.38,1.45-.05,2.61.34,3.49,1.18.2.04.19.12,0,.22.04.2-.05.48,0,.67-.4-.28-.67-.58-1.16-.75-.89-.3-3.94-1-4.81-1.03-.81-.03-1.57.54-2.46.57s-2.72-.66-3.07-.6c-.19.03-.37.83-.82,1.02-.76.34-1.67-.19-1.96,1.17-.5,2.28.36,2.56,1.3,4.1h-.45c-.07.62-.44.57-.67,0,.02-.21-.15-.32-.22-.45-.36.22-.88-1.02-.96-1.32.05-2.06-.11-2.41-2.19-2.67-.45-.19-1.91-1-1.55-1.38-.56-.15-.48-.45.22-.9.48-.22.65-.46,1.34-.67.49-.15.87-.15,1.34-.22.06-.68,1.15-.91,1.34-.22Z" fill="#b33312"/>
          <path d="M42.66,4.62c.12,1.12.65,2.16.67,2.59.03.54-.4.88-.45,1.35-.11.95.55,1.2.79,1.88.26.76.24,1.41.66,2.26.93,1.88,2.93,3.66,2.59,6.04-.12-.3-.36-.75-.67-.9-.02-.07.01-.15,0-.22-.97-.53-1.26-.98-.9-1.34l-.64-.51c-.78-2.31-1.71-4.52-2.81-6.63l-.08-.92c.65-.48.27-2.33.01-3.07-.54-.48-.87-1.18-.06-1.41.58,0,.62.51.9.9Z" fill="#cc9d4b"/>
          <path d="M13.31,42.26l.34-.45c.66.94,1.58,1.18,2.47,1.79l.15-.61.63-.06c.99-.39.56.6.23,1.18-.04.48-.11.91-.23,1.28-.05.02-.37.69-.9.45.77-1.78-1.75-2.33-2.69-3.58Z" fill="#f1b740"/>
          <path d="M19.36,43.6c.14,2.03-.39,1.48-1.79,1.79-1.57-.97.63-3.82,1.79-1.79Z" fill="#f7bf3b"/>
          <path d="M19.13,42.03c.43.12.53,1.05.22,1.34,0,.07,0,.15,0,.22-1.58-.66-2.52.19-1.79,1.79-.2.04-.5-.05-.67,0-.49-.95.15-1.35.23-1.93.05-.31-.23-.49-.23-.54-.03-.24.14-.18.22-.22.28-.54,1.62-1.16,2.02-.67Z" fill="#d4881c"/>
          <path d="M19.81,42.26c.01.3,0,.6,0,.9l-.45.22c-.02-.29-.34-.66-.22-1.34-.32.02-.25-.13.22-.45.16-1.15.92-.41.45.67Z" fill="#a0521e"/>
          <path d="M32.35,39.12c-.32-.05-1.93-.39-1.99-.47-.15-.17.05-1.39-.02-1.77.14-.04.11-.57,1-.47,2.22.25,1.19,1.56,1.02,2.71Z" fill="#f1c738"/>
          <path d="M27.2,17.16l-.14.27c-.46-.08-.94-.02-1.43.18-.27.35-.59.72-.96,1.09-.12.73-.4,1.11-.83,1.15-.42.34-.49,2.19-.32,2.86.63.41-.25.77-.57.28-.17-.26-.17-.63,0-1.12.04-1.83.17-4.28,2.3-4.98.87-.29,1.22-.17,2.18-.62l-.22.9Z" fill="#c8a446"/>
          <path d="M22.94,22.99c.42.13.42.32,0,.45l.64.29c.78.1,2.72.49,1.6,1.28-.44.39-1.11.31-2.02-.22-.21-.01-.26-.16-.67,0-.89-1.27.16-1.61.45-2.91,0,.37-.02.75,0,1.12Z" fill="#cbb054"/>
          <path d="M25.63,17.61c1.03-.35,2.1-.03,3.2.98l1.85.38c.22.21.5,2.25-.12,2.23-1.03.85-1.03.93,0,.22.48-1.08,1.32,1.19.45,1.57-.08,1.38-.37.75-.82,1.42-.13.19-.02.54-.15.75-.16.27-.79.48-.82.52l-.76.47c-1.37-1.61-2.81-3.17-5.1-3.13-.15-.08.24-2.97.48-3.17.18-.83.35-1.61,1.14-2.12.23-.15.52-.06.66-.12Z" fill="#f1c532"/>
          <path d="M23.84,19.85c-.22,1.01-.3,1.87-.22,2.91,2.31-.14,3.48,1.4,4.87,2.86.37.39.22.16.73.05-.43.48-.33.42-.9.9l-.55.03c-1.32-1.77-2.74-2.68-4.83-3.16-.02-.14,0-.3,0-.45.68.12.43-.34.45-.77.02-.53-.02-1.06,0-1.59.01-.43-.23-.9.45-.77Z" fill="#d5a521"/>
          <path d="M27.2,17.16s.16.32.36.41c1.15.54,2.34,1.35,3.67.93-.08,1.66-.12,2.57.67,4.03l-.9.45c.04-.62.23-1.8-.45-1.57-.19-.05-.19-.13,0-.22.05-.55.12-1.69-.31-2.04-.47-.37-1.09-.08-1.56-.24-.11-.04-1.31-1.05-1.78-1.24-.42-.17-.85-.05-1.28-.07.43-.19.81-.7,1.57-.45Z" fill="#f3b143"/>
          <path d="M28.32,26.57s.21.68-.74.44c-.11-.03-1.31-1.48-1.59-1.7-.22-.17-.62-.16-.81-.31-.03-.02.04-.41-.21-.56-.58-.35-1.89-.07-2.03-1.01,2.52-.32,3.92,1.42,5.38,3.14Z" fill="#efc23b"/>
          <path d="M31.01,25.23c.61.04.51.55.33,1.02l-2.17,2.01c.21.99.08,1.62-.4,1.89-.17-.74-.39-1.47-.45-2.24.23-.16,1.93-2.3,2.24-2.69.31-.31.46-.31.45,0Z" fill="#316d89"/>
          <path d="M25.18,25.01s.03.37.21.56c.48.5.9.91,1.36,1.45h-.22c-.07.59-.28.57-.45,0-.43.05-.83-.25-1.18-.89-.62-.06-1.13-.37-1.51-.9l-.22-.45c.32.02,1.9.14,2.02.22Z" fill="#697e69"/>
          <path d="M32.8,22.99c0,.3,0,.6,0,.9-.06.28-.29.46-.69.54-.13.73-.59,1.79-1.1.81h-.45c.33-.42,1.28-2.14,1.57-2.24.12-.04.48,0,.67,0Z" fill="#585e69"/>
          <path d="M32.8,23.89c.28.21.43.51.45.9.05.1-.09.51.07.83s.68.42.83.52c.04.26-.07.49.07.83.03.09,1.25,1.31,1.34,1.34.31.12.53.07.83.07-.05.56,1.17,1.14,1.34,1.57-.65,1.28-.35,2.45.47,3.57.21.64,0,1.04-.69,1.14-.89.52-2.03.53-2.91,0-.56-.03-.78.12-.67.45-.85.33-2.08.36-2.91,0-.15-.51-.69-.77-.87-1.08-.77-1.33-1.02-2.37-1.37-3.85.07-.65-.12-1.46,0-2.08.03-.17,2.07-1.8,2.16-2.02.14-.32.02-.74.07-.83,0-.02.29.06.39-.06.34-.43-.08-1.43,1.41-1.29Z" fill="#1974b9"/>
          <path d="M44.9,34.19c-.06.13.04.48,0,.67-1.41.11-2.84.16-4.26.22-3.21.15-6.42.45-9.63.45-.02-.14.03-.33,0-.45.97-.02,1.95.03,2.91,0,.03-.38.53-.43.7-.2.03.04-.49.19-.03-.24.97,0,1.94,0,2.91,0,.39-.28.66-.46.9,0,.77-.56,1.47-.55,2.24,0,.49,0,1.01.03,1.57,0,.22-.01.45.02.67,0,.49-.39.94-.54,1.34-.45.13-.06.48.04.67,0Z" fill="#3d6a7d"/>
          <path d="M23.39,25.23c1.01-.1.8.3.97.37.26.11.58.04.75.15.16.1.94,1.02.97,1.27.36.75-.23,1.52-1.77,2.31.26.3.32.57.2.82-.92.89-1.1,1.74-2.46,1.79-.22,0-.56.06-.74,0-.25-.08-.11-.34-.16-.45-.33-.86-.62-.6-.9-.9-.44-.47-.56-.94-.32-1.56.1-.26,1.4-1.98,1.68-2.3.35-.41,1.36-1.47,1.78-1.52Z" fill="#1770b4"/>
          <path d="M26.53,27.02c.22,1.38-1.16,2.3-2.02,3.14-1.33-.85-.35-1.39.59-1.99.73-.47,1.11.17.98-1.15h.45Z" fill="#205ba1"/>
          <path d="M27.42,56.6c.07-.43.24-.4.45,0-.1.76-.87.64-.9,1.34-1.29-.05-1.79.24-1.34-1.34h.22c.32-.35.46-.35.81-.05.41-.32.67-.3.76.05Z" fill="#336b95"/>
          <path d="M19.81,35.54v.45c-.36.18-.36.48,0,.9,0,.07,0,.15,0,.22-.27.52-1.7,1.09-2.24.9-.23-.42-.54-1.41-.22-1.79.49.04.7-.52,1.06-.63.47-.14,1.06.05,1.41-.05Z" fill="#da7628"/>
          <path d="M20.93,32.4v.9s.9,0,.9,0c.01.79-.45.54-.9.67-.47.19-.83-.16-1.12-.22h.9c.02-.51-.16-.95.22-1.34Z" fill="#bb9736"/>
          <path d="M19.81,42.26c-.01-.3.01-.6,0-.9-.04-.06-.31.17-.45.22-.62.8-1.18.29-.45-.45-.59-.58-.22-.8,1.12-.67-.22-.33-.45-.63-.67-.9-.18.78-1.52,1.88-2.24,1.34-.36.78-.99-.5-.22-.45.17-1.13,2.12-2.11,3.14-2.24,0,.04.21.24.23.54.08,1.1.04,2.49-.46,3.49Z" fill="#f7a851"/>
          <path d="M20.03,37.78c.02.15-.01.3,0,.45l-3.14,2.24c-.39-.09-.81-1.21-.22-1.18.11-.69.33-.9.66-.62.42-.66,2.08-1.4,2.69-.9Z" fill="#c97628"/>
          <path d="M19.81,37.1c.02.16.19.41.22.67-.75.44-2.02.6-2.69.9-.43-.13-.42-.33,0-.45-.05-.2.03-.27.22-.22.63-.49,1.41-.97,2.24-.9Z" fill="#ec9a4a"/>
          <path d="M19.81,35.98c0,.29-.03.61,0,.9-.57,0-.67-.26-.68-.78-.01-.73.43-.09.68-.11Z" fill="#a14f17"/>
          <path d="M32.58,65.56c.27.24-.85,1.39-1.34,1.12-.27-.24.85-1.39,1.34-1.12Z" fill="#cd441d"/>
          <path d="M34.37,67.13c.19.52-1.15,1.3-1.34,1.12-.19-.52,1.15-1.3,1.34-1.12Z" fill="#d54618"/>
          <path d="M28.99,46.74c.29-.6,1.38.2.45.45.52.33.38,1.19-.22,1.34-.75-.16-.29.38-.46.72-.18.38-.37.94-.44,1.07-.14.2-.21.37-.23.49l.02,5.38-.24.17c0,.07.01.15,0,.22-.15,0-.3,0-.45,0-.41-.02-.4-.42.05-1.18l.1-5.16c-.04-.42.06-.7.3-.83.52-.87.84-1.73,1.12-2.69Z" fill="#386e86"/>
          <path d="M27.87,49.43l-.45,7.17c-.54.03-1.27.37-1.57,0,.37-1.85.51-.23.78-.23.06,0,.77-.77.78-.83.34-1.56-.37-4.54,0-5.97.06-.25.44-.13.45-.15Z" fill="#97977c"/>
          <path d="M30.34,46.74c-.02.14.03.32,0,.45-.21.61-.72.66-.9,0-.07-.06.23-.62-.45-.45.05-.16-.12-.43.11-.45.57-.04.89.4,1.23.45Z" fill="#2a5569"/>
          <path d="M30.34,47.19c-.71,2.75-.16,2.79,0,5.26.1,1.51-.26,2.89-.23,4.38-1.51-.38-.19-2.4-.21-3.47-.03-1.57-.78-2.84-.69-4.82.02-.47.07-.9.22-1.34.07.05.67-.02.9,0Z" fill="#0e519a"/>
          <path d="M34.14,45.39c-.46,2.1-1.66,4.68-.45,6.72-.08.24-.02.49-.34.67-1.14.01-.73-4.77-.56-5.6.04-.2.36-.79.45-.9.41-1,.71-1.3.9-.9Z" fill="#135197"/>
          <path d="M28.32,50.32c-.04,1.75.06,3.52,0,5.28-.01.43.23.9-.45.77.06-.89-.14-5.78.06-6,.09-.1.38-.03.39-.05Z" fill="#336b95"/>
          <path d="M41.54,68.47c-.34.37-1.15-1.06-.89-1.34.34-.37,1.15,1.06.89,1.34Z" fill="#cd4215"/>
          <path d="M47.81,24.33c.64-.11.37.14.48.52.23.84.49,2.3-.48,2.73-.61.27-1.27,0-1.85.16-.55.16-.95,1.26-1.83,1.28s-1.63-.97-2.29-1.05c-.53-.06-.91.31-1.64.09-1.52-.47-1.42-2.41-2.07-3.2-.45-.55-1.77-.73-2.41-1.06-1.45-.73-1.06-1.67-1.54-2.94-.2-.53-.82-.76-.69-1.44,1.81.32,1.19,2.56,2.01,3.48s2.49.47,3.41,2.19c.35.64.45,2.12,1.23,2.36.72.22,1.32-.29,1.91-.15.66.16,1.29,1.31,2.25,1.05.45-.12.86-1.02,1.49-1.21,2.06-.64,2.21.65,2.03-2.79Z" fill="#c52312"/>
          <path d="M46.69,25.23c.47.42-1.25,1.03-1.51,1.07-.63.1-1.78,0-2.35-.23-.4-.16-2.1-1.77-1.74-2.18.23-.27,1.44,1.57,2.17,1.74,1.11.25,3.3-.51,3.42-.4Z" fill="#c52210"/>
          <path d="M45.96,21.47c.33.53-.04.84-.62.52-.76-.42-.56-1.91-1.21-2.37s-1.61.16-1.7-.54c.64-.78,2.21-.18,2.57.57.2.44.09.96.37,1.43.14.24.54.31.59.4Z" fill="#c72815"/>
          <path d="M46.24,28.82c.36.4-1.79,2.55-2.68,2.13-.3-.14-2.48-2.13-1.11-1.59.45.18,1.41,1.03,1.62,1,.46-.07,1.92-1.82,2.17-1.54Z" fill="#c62112"/>
          <path d="M43.78,24.11c-.11.12-2.97-1.18-2.24-2.01l1.91,1.11c.28.12.44.78.33.9Z" fill="#c72513"/>
          <path d="M41.58,19.58c.04.07,1.53.54,1.07.94-.25.22-1.55-.62-1.68-.89-.19-.37-.1-1.14.23-1.12.35.02.27.9.38,1.07Z" fill="#c52314"/>
          <path d="M42.88,34.64c-.17-.69.51-.3.69-.58.15-.22.17-.7.21-.99l.45,1.12c-.63.29-.14.33-1.34.45Z" fill="#285580"/>
          <path d="M32.8,23.89c.66.06.7.52.9.9h-.45c-.07-.13-.4.43-.45-.9Z" fill="#5a537c"/>
          <path d="M38.18,31.05c.52.03,1.25,1.17,1.74,1.33.38.13,1-.1,1.4.24.03.73.05,1.36-.67,1.72v.3c-.75,0-1.5,0-2.25,0-.13-.3-.2-.68-.22-1.16-.82-1.01-.97-1.82-.46-2.43.15,0,.3,0,.45,0Z" fill="#1d71b4"/>
          <path d="M37.73,29.93c.18.44-.03.91,0,1.12.05.37-.03.69.11,1.12.28.89,1.21,1.3.57,2.46-.3,0-.6,0-.9,0,1.06-.98-.18-1.63-.39-2.41-.11-.42-.22-2.36.62-2.3Z" fill="#125098"/>
          <path d="M34.59,1.48c1.36-.1,2.83-.81,4.32-.44.15.04.15.33.23.37.26.11.59.04.75.15.27.18,1.76,1.87,1.86,2.17.05.16-.07.49,0,.73.05.18.4.15.44.32.14.63.57,2.79.45,3.28-.04.17-.42.14-.45.29-.13.65,1.03,2.13,1.29,2.94.56,1.75,1.34,3.33,1.85,4.98l-.26.43c-1.91-.24-3.8-.54-5.68-.92l-.11-.4c-.14,0-.25-.02-.3-.09-.23-.31.36-4.01.82-4.54,1.2-.83,1.96-2.95.02-3.1l-.09-.33-.28.17c-.71-.8-1.51-1.45-2.41-1.96-.14.72-2.17.23-2.24-.45-1.3-.28-2.18.44-3.36.45-.38-1.74.56-2.14,1.62-3.21l1.52-.82Z" fill="#d7992a"/>
          <path d="M37.06,5.51c1.06.52,2.08,1.5,2.69,2.46.69-.95,1.63.47,1.16,1.52-1.88,1.6-2.05,4.34-1.83,6.62l-.45.37c-1.07.25-2.37.37-3.36-.22.27-.69-.4-1.25-.46-1.71-.04-.31.23-.48.23-.54-.06-.84.88-.49,1.34-.22.16-.24.16-.39,0-.45-1.04,1-1.97-.77-1.12-1.57-.22-.22-.07-.36.15-.44.45-.15-.6.2-.7.25-.17.09-.28.23-.35.41.85.14.36,1.35-.45.9-.08-.07-.15-.17-.22-.22-.32-.57-.62-1.17-.9-1.79,0-.15.01-.3,0-.45-.35-.21-.96-3.28-.89-3.45.13-.32.67-.17.98-.06.03.01-.61,0-.54-.3-.04-.47.08-.74.46-1,.17-.11,1.86-.57,2.01-.57.12,0,1.75.37,2.24.45Z" fill="#e1af86"/>
          <path d="M33.7,14.92l-.1.3c-.54-.37-1.47-.22-2.14-.07-.53.03-.88.15-1.34.22-.28-.94.59-1.06.97-1.62.48-.7.1-1.28,1.1-1.01,1.12.3,1.77.96,1.52,2.18Z" fill="#d69638"/>
          <path d="M32.8,10.44c-.55.11-.49-.25-.6-.62-.27-.87-.63-2.64-.73-3.54-.05-.47.32-.43.55-.33.2.09.06.58.33.68s.84-.17,1.12.34c-.27.62-1.03,0-1.11.11-.4.51.31.87.89.67.21.75-.61.26-.68.56-.08.33.19,1.58.23,2.13Z" fill="#b68246"/>
          <path d="M35.26,11.79c.36.98-.21,1.84,1.12,1.57.44.04.36.23,0,.45-.33.1-.96,0-1.34.22.07-.7-.71-.78-1.12-1.12.55-.06.4-.84.45-.9-.08-.49.68-.61.9-.22Z" fill="#cfa275"/>
          <path d="M33.7,14.92c.07,0,.15,0,.22,0,.06-.2.14-.19.22,0-.14.17.26.93.45,1.12-.13.21-.3.5-.45.67l-.72-.57c-.55-.02-.91-.2-1.08-.55.28-.06.64-.41,1.12-.23v-.22c-.67.02-1.35-.04-2.02,0,.51-.41,1.54-.23,2.24-.22Z" fill="#ba671c"/>
          <path d="M32.8,10.89c.78.73,1.11.32.9,1.79-.16-.12-.25-.43-.45-.53s-.44.1-.45.08c-.07-.11.01-1.04,0-1.34Z" fill="#cfa275"/>
          <path d="M33.92,14.92c.16-.45.04-1.06.67-.9.24,1.19-.38.82-.45.9h-.22Z" fill="#dbab6c"/>
          <path d="M15.33,35.98c.86-.4,1.58-1.06,2.02.22.17.49.21,1.26.22,1.79-.08.06-.14.16-.22.22l-.29-.06c.04-.52-.01-1.02-.16-1.51-.35.45-.74.3-.9-.22-.2.8-.19,1.64.03,2.51-.69.28-.81-.1-.7-.72,0-.08-.2-.29-.19-.54.03-.54.31-1.11.19-1.7Z" fill="#b77e31"/>
          <path d="M14.88,39.12c1.66-.99,2.31,2.2,1.34,3.14-.24.02-.5.2-.78.18-1.31-.05-.53-.6-.63-1.16-.04-.21-.39-.4-.35-.66.08-.46.86-.64-.04-1.5.13-.04.4.04.45,0Z" fill="#f9f0d4"/>
          <path d="M16,36.43c.37.17.52.59.44,1.24-.04-.51.11-.85.45-1.02.26.47.29,1.03.45,1.57.04.12-.02.31,0,.45-.88.39-.51,1.23-.45,1.79,0,.06-.28.33-.18.41.1.09.37,0,.41.03.6.1.57.27,0,.45,0,.5-.16.8-.45.9-.13.03-.3-.01-.45,0,.42-1.21.29-3.09-1.34-3.14.04-.03.45-.72.45-.9l.23.45h.22c.21-.45-.32-1.82.23-2.24Z" fill="#c18c58"/>
          <path d="M18.91,41.14v.67c.05.06.31-.17.45-.22.02.17-.21.37-.22.45-.59.26-1.49.42-2.02.67v-.45c-.29-.33-.16-.46.22-.22-.06-.61,1.08-1.31,1.57-.9Z" fill="#f6a648"/>
          <path d="M17.12,41.36c.67-.25.9.33.22.67-.08.03-.16.21-.22.22-.12.04-.31-.03-.45,0,.03-.56-.22-1.04.45-.9Z" fill="#a9571f"/>
          <path d="M19.58,33.07c-.03.22.02.45,0,.67-.64-.2-1.05.16-.67-.9l.67.22Z" fill="#e6ba52"/>
          <path d="M32.35,15.6c.34.39.31.94,0,1.34-.8.1-1.05,1.06-1.92,1.11-.35.02-2.54-.87-2.57-1-.08-.36.01-.61.38-.74,1.28-.44,2.79-.42,4.1-.72Z" fill="#e24a31"/>
          <path d="M39.3,15.37l.45.67c-.27.23-.77.37-1.12.45-.01-1.64.13-4.13.73-5.66.22-.56,1.67-1.37,1.23-1.92-.08-.09-1.13-.14.06-.6-.2-.41-.72-.24-.9-.34-.28-.31-.51-.58,0-.67.34.14.93-.16,1.36.55.99,1.65-.45,2.14-1.01,3.06s-.87,3.4-.8,4.46Z" fill="#b5813c"/>
          <path d="M39.3,15.37c.59.95,2.26.22,3.21.45.17.04.14.4.31.44.69.16,1.78-.1,2.53,0,.24.78.77.63.9,1.34-2.02-.82-4.35-1.17-6.5-1.57-.13-.03-.3.03-.45,0-.02-.22.01-.45,0-.67Z" fill="#e18b3a"/>
          <path d="M34.14,16.72c-.53.6-1.13,1.13-1.79.22-.32-.43-.29-.91,0-1.34.85-.06,1.92.08,1.79,1.12Z" fill="#f3963c"/>
          <path d="M28.99,19.85c.19.17-1.69,2.84-2.01,2.46-.2-1.47.46-2.46,2.01-2.46Z" fill="#dbae23"/>
          <path d="M30.56,21.2c0,.07.01.15,0,.22-.08.43-1.08,1.56-1.46,2.02-.49-1.38.15-1.99,1.46-2.24Z" fill="#d8ab1e"/>
          <path d="M26.53,18.96c.26.25-1.68,3.21-1.56,1.25.05-.78.81-1.33,1.56-1.25Z" fill="#d0a720"/>
          <path d="M34.59,34.64l.23.45c-.3.01-.6,0-.9,0-1.51-1.73-1.86-3.56-2.02-5.82.48-.09.54.22.67.56.61,1.58.26,3.58,2.02,4.81Z" fill="#0f519a"/>
          <path d="M19.36,39.57c.25.22.48.52.67.9-.11.32-.65.18-.88.35-.16.12-.2.3-.24.32-.59.41-.86.62-1.57.9.09-.31-.15-.48-.22-.67-.05-.11.05-.4,0-.45.78-.34,1.5-.97,2.24-1.34Z" fill="#d87b22"/>
          <path d="M19.36,39.57c.17-.09.28-.36.67-.22-.06.32.09.87,0,1.12-.87.12-.69-.12-.67-.9Z" fill="#9d5724"/>
          <path d="M33.25,46.29c0-.34.42-1.69.88-1.32.07.06-.02.4.01.43h-.45c.26,1.06-.4.84-.45.9Z" fill="#2a5569"/>
          <path d="M39.75,7.31v.67c-1.05-.57-1.71-1.74-2.69-2.46,1.54.23,2.05,1.53,2.69,1.79Z" fill="#cf9a4b"/>
          <path d="M34.14,7.98v2.02c.8.21.61-.4,1.12-.67v1.12c-.37-.18-1.17.05-1.41-.04-1.24-.46-.17-2.97.29-2.42Z" fill="#ba8d6a"/>
          <path d="M34.37,6.86c-.13-1.14,2.67-1.1,2.68-.56.01.44-2.27.37-2.68.56Z" fill="#b28157"/>
          <path d="M36.38,13.36c.14-.24,1.55-.87,1.68-1.57.33-.06.4,0,.34.34-.13.71-1.36,1.47-2.02,1.68.03-.13-.04-.37,0-.45Z" fill="#b28660"/>
          <path d="M34.37,12.01c-.82-.93.87-.75,1.34-.9.08.41-.15.5-.45.67-.32.19-.87.19-.9.22Z" fill="#b0825a"/>
          <path d="M16.89,36.66c.22.55-.24,2.05-.33,2.69-.67-.23-.67-2.8-.56-2.91.09-.09.84.08.9.22Z" fill="#e5b083"/>
        </g>
      </g>
    </g>
  </g>
</svg>