<?xml version="1.0" encoding="UTF-8"?>
<svg id="Layer_2" data-name="Layer 2" xmlns="http://www.w3.org/2000/svg" viewBox="0 0 64 96">
  <g id="Cards">
    <g id="Swords">
      <g id="ThreeOfSwrods">
        <path d="M0,5.82l1.46-.18c.05.37.17.66.38.85.2.2.45.29.74.29.31,0,.57-.12.79-.35.21-.24.32-.55.32-.96,0-.38-.1-.68-.31-.9s-.45-.33-.75-.33c-.19,0-.42.04-.69.11l.17-1.23c.41.01.72-.08.93-.27.21-.19.32-.44.32-.75,0-.27-.08-.48-.24-.63-.16-.16-.37-.24-.63-.24s-.48.09-.66.27c-.18.18-.29.44-.33.78l-1.39-.24c.1-.48.24-.86.44-1.14.2-.29.47-.51.82-.67.35-.16.74-.24,1.17-.24.74,0,1.34.24,1.78.71.37.39.55.82.55,1.31,0,.69-.38,1.24-1.13,1.65.45.1.81.31,1.08.65.27.34.41.74.41,1.22,0,.69-.25,1.28-.76,1.77-.5.49-1.13.73-1.89.73-.71,0-1.3-.21-1.77-.62s-.74-.95-.82-1.61Z" fill="#2a2b2c"/>
        <path d="M64,90.18l-1.46.18c-.05-.37-.17-.66-.38-.85-.2-.2-.45-.29-.74-.29-.31,0-.57.12-.79.35-.21.24-.32.55-.32.96,0,.38.1.68.31.9s.45.33.75.33c.19,0,.42-.04.69-.11l-.17,1.23c-.41-.01-.72.08-.93.27-.21.19-.32.44-.32.75,0,.27.08.48.24.63.16.16.37.24.63.24s.48-.09.66-.27c.18-.18.29-.44.33-.78l1.39.24c-.1.48-.24.86-.44,1.14-.2.29-.47.51-.82.67-.35.16-.74.24-1.17.24-.74,0-1.34-.24-1.78-.71-.37-.39-.55-.82-.55-1.31,0-.69.38-1.24,1.13-1.65-.45-.1-.81-.31-1.08-.65-.27-.34-.41-.74-.41-1.22,0-.69.25-1.28.76-1.77.5-.49,1.13-.73,1.89-.73.71,0,1.3.21,1.77.62s.74.95.82,1.61Z" fill="#2a2b2c"/>
        <g>
          <path d="M14.68,34.95c.31-.42,1.6-.36,1.06.16l.09.76v53.29c-.09.82-2.15,5.3-2.7,5.65-1.21.77-2.23-1.72-2.6-2.55-.45-.56-.79-1.25-.92-1.96-.2-6.92-.2-14.18,0-21.06.37-.42.6-.29.65.23l.02,19.86.25.63c.93.32,1.55,1.33,1.38,2.3.51-.04.56.04.74.43,1.4-2.02,1.79-4.36,1.86-6.84.18-13.19.08-26.39-.32-39.61-.17-3.81,0-7.58.48-11.31Z" fill="#206ea8"/>
          <path d="M10.31,35.41l.46.16s.08,18.04.23,54.11l-.46.29c-.05-.1-.62-.28-.47-.79v-19.59s-.45-.34-.45-.34v21.06c0,.11.79,1.66.92,1.96-.71-.44-.86-1.55-1.15-2.3-.1-18.21-.1-36.4,0-54.56-.42-1.08,1.53-.94.92,0Z" fill="#2d70a2"/>
          <path d="M21.59,10.09c.35.41,1.1,1.39,1.38,1.84.35,1.06.66,2.13.92,3.22.71,5.86-1.3,9.78-5.75,13.35-.53.33-1.07.64-1.61.92-1.58,1.92-.53,1.74.92,2.3.34.02.33.38,0,.46-.51,1.22-2.64.09-2.78-1.05-.08-.64.69-2.09,1.28-2.52.68-.1.87-.22.58-.35l.23-.59c5.47-2.77,7.99-11.47,4.32-16.51l.06-.62c-.69-.76-.32-1.04.46-.46Z" fill="#cd9331"/>
          <path d="M14.45,4.1c.83-.3,1.83-.71,2.66-.24,1.79,1.02-.06,2.66.38,3.42.08.14,2.32,1.12,2.79,1.46.58.41.87.84,1.3,1.34-.49-.06-.52-.03-.46.46-.09.07-.18.13-.28.15-.24.06-3.99-2.23-4.23-2.51-.42-.49-1.11-2.22-.51-2.65.72-.52.25-.61-1.43-.29-.05.49-.28.49-.69.37-.72-.52-1.71-.76-2.53-.37-.11.55-.53,1.1-1.26,1.65.1.8-.02,1.33-.35,1.58.3.81.22,1.2-.23,1.15.38.46.14.9-.46.69-.11-2.73-1.12-3.07.92-5.29,1.17-.73,2.63-1.04,4.37-.92Z" fill="#ce9532"/>
          <path d="M7.32,32.88c.36.32.35,1.29,0,1.61.7.24,1.46.33,2.29.28l-.22.64v54.56l-.23-54.56c-2.86.75-2.09-2.55-2.3-2.76-.11-.12-1.73.29-2.76-.46.32-.31.83-.36,1.54-.16.54-.26.95-.29,1.22-.07.54-.42.69-.12.46.92Z" fill="#f0deba"/>
          <path d="M9.62,24.82c.69,0,.61.5-.07.63-.58-.02-.94.07-1.08.29.12.16.16.33.08.51-1.55.59-5.86,2.27-4.13,4.47.82,1.04,1.78.34,1.98-.6-2.03-1.94,4.54-2.31,3.22.23-.08.28-.23.21-.46-.23l-.53.16c-.99-1.13-1.19-.8-.84.6l-.48.39c.6.26.05.88-.46.69-1.06.73-1.61.33-2.76.23-.26-.19-.66-.68-.92-.92-.88-.85-.73-2.23,0-3.22.54-.68,2-1.96,2.76-2.3,1.12-.4,2.19-.86,3.22-1.38.43-.5.79-.09.46.46Z" fill="#cd9434"/>
          <path d="M15.6,16.3c-.38.39-.77.47-1.15.23l-.35.74c-1.18.76-2.41,1.43-3.68,2.02-.15.4-.57.4-1.26,0-.28.46-.62.28-.46-.23-.03-.12-.05-.21-.02-.24,2.35-1.79,2.04-1.32.02.24.02.48-.21.37-.46,0-.53-.09-.31-.8,0-1.15.01-.09.21-.35.25-.78.09-1.14-.71-2.67.21-3.36.44-.07.52.16.23.69.33-.02.56.15.69.46.2.07.2.14,0,.23.22.38-.09.53-.92.46l.4.25c-.09.68.09,1.06.52,1.14l.24-.76c1.38-.95,2.79-1.84,4.25-2.66l.57.2c-.06-.6.21-.61.69-.46,1.4-.06,1.57,2.68.23,2.99Z" fill="#df8c29"/>
          <path d="M13.3,9.4c.39-.31.66-.16.92.23l.48.06c.37.63,1.09,1.15,1.82,1.32,1.05.42-.29.85-1.08.71-.22.32-.47.47-.76.44.48.45.16.89-.46.69l-.03.31c-1.32.6-2.66,1.36-4.01,2.26l-.57-.27v-.23c-.1-.54.91-1.35,1.38-1.7,4.74-2.45,2.35-2.02-.57.32-.47.65-.97.96-1.5.92-.11-.27-.2-.28-.23-.69-.04-.53-.14-1.49.23-1.84l.92.46c.07-.2.14-.2.23,0l.67-.85c2.09-.89,2.02-1.22-.21-.98l-.23-.47c-.07.2-.14.2-.23,0-.56.18-.55.08-.46-.46.04-.18.23-1.09.23-1.15,1.02.75,1.86.69,3.12.46l.33.46Z" fill="#dc8c25"/>
          <path d="M17.45,31.73c.12.05.41-.14.47.14-.14.87.42,2.95-.63,3.27s-1.66-.84-1.45.73l-.25-.9c-.3-.07-.6,0-.9-.02-.48.64-1.6.65-2.07,0-.01.18-.05.42-.2.46-.37.11-1.63.04-2.1,0-.36-.7-.6-.59-.92,0,.23-1.03-1.83.09-2.07-.92.07-.61.29-.58.46,0,3.15-.37,6.32-.6,9.48-.3-.27-.68-.19-1.36.19-2v-.46Z" fill="#c2924f"/>
          <path d="M8.24,19.07c.52.21.72.75.61,1.64.37.89.47,1.81.32,2.74.66.16.6.63,0,.92-.11,1.01-2.38,1-3.22,1.38-.16-.5.83-.66,1.18-.78,1.23-.41,1.92.19,1.58-1.86-.16-.98-.16-1.02-.23-2.05-.07-.95-.66-1.39-.69-1.63-.06-.47-.11-1.31.48-1.51-.08.66-.22.44,0,1.15Z" fill="#f8ebcd"/>
          <path d="M10.08,10.09c.46.61.1,1.69-.23,2.3-.13.37-.74.41-.69.92h-.23c.01-.46-.03-.92,0-1.38.03-.54.12-1.09.23-1.61.04-.18.42-.52.46-.69.2.08.42.24.46.46Z" fill="#a93b2c"/>
          <path d="M14.45,4.1c-1.53.56-1.06.12-2.39.24-.68.06-1.31.58-1.99.68.03-.03-.07-.29.06-.39,1.02-.84,3.05-.44,4.31-.53Z" fill="#f4e3c1"/>
          <path d="M3.17,31.27s-.3.08-.41-.05c-.05-.07-.53-1.57-.52-1.66.04-.5.62-1.14.93-1.52-.42,1.22-.53,2.01,0,3.22Z" fill="#f8ebcc"/>
          <path d="M23.89,15.15c-.65-.59-.64-2.26-.92-3.22.82,1.31.75,1.8.92,3.22Z" fill="#ca9c53"/>
          <path d="M18.14,28.5c-.57.45-.71,1.17-1.61.92.47-.57.75-.97,1.61-.92Z" fill="#f8ecc9"/>
          <path d="M12.61,34.95c.18,0,.46.05.46.16.15,18.87.02,38.39-.13,57.23-.4.43-.72.43-1.02-.07-.48-.75-.96-1.52-1.38-2.3l-.23-54.56c.12-.6,1.64-.44,2.3-.46Z" fill="#b8d3e7"/>
          <path d="M14.68,34.95c.05,5.18-.07,10.37,0,15.55.13,11.68.91,24.67.25,36.37-.14,2.55-.7,4.48-2.2,6.55-.54-.27-.59-.81-.81-1.15l.69-.11v-57.21c.67-.02,1.41-.04,2.07,0Z" fill="#67b0e0"/>
          <path d="M14.68,5.25c.05-.01.28-.53.86-.65.88-.18,1.51.16,1.44,1.11l-.92.34c.56.44.43,1.2.81,1.73.41.57,3.3,1.76,4.26,2.77,4.44,4.63,1.46,15.53-4.6,17.73l-.56.43-7.56-.11c-1.43-.32-5.35,1.83-2.12,1.17l.11.35c.02.3.46.47.02,1.05-1.11,1.46-3.5-.46-2.66-2.43.08-.19,1.25-1.3,1.51-1.48.85-.62,2.77-1.13,3.21-1.51,1.12-.5,2.44-.79,3.76-1.06l.62.37c.38-.38.75-.36,1.15,0,1.06.79,3.63-.44,4.11-1.53.15-.35.53-2.33.49-2.45-3.71-2.02.48-3.8,2.08-1.07l-.04-1.78c-1.13-1.35-1.54-3.08.6-1.66l-.41-1.19c-1.39-1.15-1.41-2.87.6-1.38.28.21-2.27-2.71-2.9-3.06-.46-.26-2.21-.98-1.77-.22l-.23.3c-.34.85-1.76-.49-2.08-.81-.19-.19-.2-.55-.22-.57-.38-.7.34-1.53.91-1.97-.95-1.2-1.1-2-.45-2.4Z" fill="#f3c830"/>
          <path d="M16.52,28.27c.23.01.53-.13.46.23-.29.05-1.2.83-1.31,1s-.04.5-.15.77c-.03.08-.33.08-.37.24-.36,1.24,1.19,1.99,2.29,1.68,0,.77,0,1.54,0,2.3-3.22,0-6.45,0-9.67,0-.44-.22-.31-2.36.14-2.56.61.1,1.02.03,1.24-.2.27-.32.43-.78.46-1.38-.03-.18-.62-1.23-.68-1.27-.44-.31-1.92,0-2.55-.11.01.38-.02.77,0,1.15-.49-.31-1.59.92-1.83.1-.43-1.46,2.6-1.88,3.55-1.95,2.42-.18,5.98-.14,8.41,0Z" fill="#d59221"/>
          <path d="M13.3,9.4c-.83-.12-3.09.86-3.45-.92.05-.62-.41-.95-.06-1.78.16-.39,1.34-1.36,1.67-1.44,2.21-.7,3.62.68,3.04,2.99-.12.47-.65,1.53-1.2,1.15Z" fill="#f2c92d"/>
          <path d="M14.68,5.25c-.15,1.36,1.03,1.9,1.15,2.99-1.18-.29-.98.67-1.61,1.38-.02-.02-.27.18-.49.1s-.41-.33-.43-.33c1.66-1.7.95-4.81-1.84-4.14.58-.71,2.93.07,3.22,0Z" fill="#d7951c"/>
          <path d="M9.16,31.73s.1.4-.15.46c-.31.08-1.15-.09-1.23,0s.06,1.91,0,2.3h-.46c-.1-.41.04-1.12,0-1.61-.25-1.25.36-1.63,1.84-1.15Z" fill="#cd9434"/>
          <path d="M9.62,30.35c.04.27.06,1,0,1.23-.07.26-.44.13-.46.16-1.19.07-1.79-.47-1.66.99l-.19.16c-.04-.42.03-.77-.46-.92.38-.27.41-.22.46-.69.41-.24.95-.32,1.62-.25-.19-.4-.11-.7.22-.9.14.09.32.14.46.23Z" fill="#c2924f"/>
          <path d="M15.6,22.29c-.48.98-1.62,2.5-2.76,2.76-1.45.19-2.9.62-4.37.69.03-.03-.08-.34.03-.42.2-.15.69.04.97-.03s.11-.41.15-.47c.06-.21.13-.2.23,0,.66-.55,1.44-.99,2.35-1.32l1.94-1.81.55.13c-.23-.53.15-.86.69-.69.07-.2.14-.2.23,0,.55.11.55.49,0,1.15Z" fill="#de8c29"/>
          <path d="M7.32,31.27c.08-.73-.1-.93-.23-1.5-.03-.14-.43-.41.13-.56,1.19-.3,1.31.47,1.94.91.09.39.43,1,.01,1.28-.6.21-1.3.18-1.85-.12Z" fill="#f9efd5"/>
          <path d="M9.16,22.98c1.45-.71,2.28,1.46.69,1.84-.08.02-.21-.03-.23,0l-.46-.46c.03-.3-.03-.62,0-.92-.11-.2-.11-.35,0-.46Z" fill="#a92e21"/>
          <path d="M17.91,11.01c.27-.66,2.21,1.21,2.25,1.35.18.66-.32,1.22-.87.72-.39.36-.25,1.05.41,2.07-.76.31-1.33.68-1.08,1.57.31.24.89.85.55,1.16-.11.1-2.69.62-2.65.04l-.46-.46c-.51.44-.77.1-.46-.46-.64-.07-.64-.55,0-.69.12-.5.48-1.19.48-1.49,0-.6-.52-1.03-.71-1.5-.62-.11-.58-.26,0-.46-.53-.9-.09-1.31,1.34-1.23.15-.6.61-.73,1.19-.61Z" fill="#fcfbf7"/>
          <path d="M15.14,17.92c.36-.32.49-.18.23.23.02.17,0,.35-.15.45-3.67,2.21-3.8,2.29-.4.27l.55-.02c.59-.19.67.02.23.46-.02.3-.21.38-.46.46.22.55-.15.87-.69.69l-.32.66-3.59,1.72c-.37.18-.83.23-1.39.15-.01.15.02.31,0,.46-.73-.97-.31-2.25-.47-3.33-.05-.31-.33-.67-.45-1.05.14.03.34-.04.46,0,.1.03.15.21.46.23.2.07.2.14,0,.23.12.61.35.99.69,1.15l.27-.7,2.48-1.21c.89-.96,1.74-1.25,2.55-.85Z" fill="#e08a2a"/>
          <path d="M14.22,12.85c.62-.28.96.51.46.92-1.41.83-3.67,2.11-5.06,3.22l-.44-.26c.06-.43-.1-.8-.48-1.12.05-.15.71-.38.92-.46,1.52-.54,2.49-1.61,3.86-2.29.21-.11.6.05.74,0Z" fill="#e66c27"/>
          <path d="M8.7,19.07c-.15-.39-.31-.21,0-.58.35-.43,4.21-2.98,4.91-3.38,1.96-1.1,2.56-.58.79.81-.57.45-5.38,3.24-5.7,3.15Z" fill="#f8c138"/>
          <path d="M14.45,16.53c.31.15.54.53.69,1.15.2.07.2.14,0,.23-.84-.19-1.65.9-2.39,1.29-1.08.56-1.89.82-2.91,1.47-.31-.15-.54-.53-.69-1.15v-.23c1.04.07.78-.27,1-.37,1.54-.69,2.94-1.61,4.29-2.39Z" fill="#e46e26"/>
          <path d="M9.62,14.92c-.87.14-.56-.15-.69-.46.99-1.34,2.9-2.69,4.45-3.28.6-.23,1.27.16.85.63-.56.63-1.98,1.1-2.75,1.62-.6.41-1.1,1.18-1.86,1.48Z" fill="#f8c238"/>
          <path d="M9.62,16.99c-.5.4-.36.81-.92.69.11-.54-.15-1.64,0-2.07,1-.12.99.57.92,1.38Z" fill="#ac4734"/>
          <path d="M15.6,16.3c-.05.19.05.49,0,.69.44.54.19.84-.46.69-1,.18-.66-.33-.69-1.15.41-.24.65-.66,1.15-.23Z" fill="#b2411f"/>
          <path d="M14.68,12.16c.44-.58.67-.35.69.69.05.11-.05.35,0,.46-.08.43-.49.34-.69.46l-.46-.92c.07-.03.32-.55.46-.69Z" fill="#ad4427"/>
          <path d="M10.31,10.09c.99.06,2.11-.24,2.99.34-.95.91-2.23,1.45-3.22,1.96.1-.75.17-1.52.23-2.3Z" fill="#e57027"/>
          <path d="M17.91,11.01c-.68-.12-.82.86-1.08.93-.86.2-1.7-.59-1.45.92-.14-.33-.24-.83-.69-.69.16-.15.58-.68.62-.69.35-.07.97.12,1.18-.06.1-.09.01-.38.04-.41-.2-.9,1.39-.72,1.38,0Z" fill="#d18f3d"/>
          <path d="M10.08,12.39h-.23c.12-.33.3-1.95.23-2.3h.23c.54.77-.1,1.51-.23,2.3Z" fill="#dd522f"/>
          <path d="M16.52,11.01c.13-.32-1.58-1.03-.57-1.61.88.62,2.02.81,2.89,1.25.36.19,3.16,3.02,3.21,3.24.07.31-.27.58-.58.58-.53,0-.68-.8-1.26-.7-.06.67.79.91,1.02,1.39.06.12.56,1.58.59,1.71.23,1.11-1.75-.68-1.84-.57.17.84.97,1.04,1.11,2.02.07.5.07,3.12-.01,3.57-.11.59-1.24,2.31-1.78,1.78-.38-.36,2.54-3.07.08-4.34s-2.46,1.51.14,1.12c.11.53-.53.66-.64,1.08-.13.47.02,1.02-.1,1.51-.34,1.45-1.79,2.33-3.16,2.6-.57.11-1.92.52-1.62-.59l-.2-.42c.61-.81,1.32-1.53,2.09-2.2l-.28-.15c.06-.27-.09-1.01,0-1.15-.18-.3-.03-.46.46-.46-.39-.54.33-1.41.69-1.84l.02-.59c.88-.15,1.71-.29,2.47-.42-.89-1.47-.9-1.71.26-2.98-.52-.8-.59-1.39-.23-1.77.28-.18.56-.25.45-.68-.68-.33-1.1-1.01-1.83-1.39-.33-.17-1.13-.21-1.38,0Z" fill="#d59226"/>
          <path d="M15.6,22.29c.15-.13,2.31-2.14,1.84-1.04-.14.32-1.98,1.97-2.42,2.42-.32.34-.74,1.18-1.03,1.38-.62.44-.98-.02-1.15,0,.81-1,1.81-1.91,2.76-2.76Z" fill="#f6bd3e"/>
          <path d="M16.75,32.42c.07.06.4,1.61-.12,1.61h-8.4v-1.61c1.09.21,8.19-.28,8.52,0Z" fill="#f4c531"/>
          <path d="M11.46,29.2c-.24.6-.44,1.17-.63,1.79-.1.31.09.61-.4.51l-1.04-2.53,2.07.23Z" fill="#f2b937"/>
          <path d="M13.53,31.5h-1.84c.22-2.63,1.56-2.7,1.84,0Z" fill="#f4c035"/>
          <polygon points="15.37 29.2 14.57 31.49 13.76 29.2 15.37 29.2" fill="#f6bd38"/>
          <path d="M14.68,21.83c-2.18,1.86-1.7,2.29-4.83,2.99.86-.29.25-2.12-.69-1.84l5.29-2.53c.68,0,.51.98.23,1.38Z" fill="#ea642a"/>
          <path d="M15.37,21.14c-.12.38-.45.48-.69.69-.41-.26-.2-.95-.23-1.38.1-.38.49-.49.69-.69.33-.42.68,1.34.23,1.38Z" fill="#ac3219"/>
          <path d="M16.06,17.45c.77.54.48,3.13-.46,1.84.36.22.52.68.46,1.38-.35.62-.44.43-.46.46h-.23c-.03-.43.18-1.12-.23-1.38.16-.17-.37-.18.46-.46-.02-.21-.22-.4-.23-.46-.25-.18-.23-.48,0-.69-.06-.07-.09-.2-.23-.23v-.23c.09-.22.41-.5.46-.69.15.14.29.36.46.46Z" fill="#d99942"/>
          <path d="M19.29,13.08c-.2.99.45,1.56.92,2.3-.63.14-1.49.19-1.39,1.03s1.76,1.43,1.39,2.43c-.95-.79-2.56-1.01-3.45,0-.41.09-.37-.61-.23-.92.55-.07,2.05.25,2.3-.35s-.41-.55-.45-.73c-.34-1.48.91-1.6.93-1.83.04-.46-.51-.84-.49-1.58.01-.61.32-.24.48-.34Z" fill="#f9f4dd"/>
          <path d="M16.06,17.45c.28.17.31-.34.46.46.05.27.23.87.23.92.09,1.21-.25,1.05-.69,1.84-.76.19-.4-.73-.46-1.38.1-.03.3.07.42-.03.3-.24.38-1.45.04-1.81Z" fill="#f1d1a7"/>
          <path d="M15.37,18.84c-1.62,1.01-3.23,2.11-4.91,3.03-.25.14-.83.62-1.07.31,1.3-1.95,4.15-2.59,5.99-4.03.38.42-.03.49,0,.69Z" fill="#f8bd3c"/>
          <path d="M9.16,19.53c1-.18.66.33.69,1.15-.18.12-.54.46-.58.46-.38,0-.54-1.31-.12-1.61Z" fill="#be3d17"/>
          <path d="M18.13,22.29c.47.52-1.68,2.9-2.53,2.53-.27-.25,2.28-2.8,2.53-2.53Z" fill="#f5d691"/>
        </g>
        <g>
          <path d="M30.46,63.66c-.31.42-1.6.36-1.06-.16l-.09-.76V9.45c.09-.82,2.15-5.3,2.7-5.65,1.21-.77,2.23,1.72,2.6,2.55.45.56.79,1.25.92,1.96.2,6.92.2,14.18,0,21.06-.37.42-.6.29-.65-.23l-.02-19.86-.25-.63c-.93-.32-1.55-1.33-1.38-2.3-.51.04-.56-.04-.74-.43-1.4,2.02-1.79,4.36-1.86,6.84-.18,13.19-.08,26.39.32,39.61.17,3.81,0,7.58-.48,11.31Z" fill="#206ea8"/>
          <path d="M34.83,63.2l-.46-.16s-.08-18.04-.23-54.11l.46-.29c.05.1.62.28.47.79v19.59s.45.34.45.34V8.3c0-.11-.79-1.66-.92-1.96.71.44.86,1.55,1.15,2.3.1,18.21.1,36.4,0,54.56.42,1.08-1.53.94-.92,0Z" fill="#2d70a2"/>
          <path d="M23.55,88.52c-.35-.41-1.1-1.39-1.38-1.84-.35-1.06-.66-2.13-.92-3.22-.71-5.86,1.3-9.78,5.75-13.35.53-.33,1.07-.64,1.61-.92,1.58-1.92.53-1.74-.92-2.3-.34-.02-.33-.38,0-.46.51-1.22,2.64-.09,2.78,1.05.08.64-.69,2.09-1.28,2.52-.68.1-.87.22-.58.35l-.23.59c-5.47,2.77-7.99,11.47-4.32,16.51l-.06.62c.69.76.32,1.04-.46.46Z" fill="#cd9331"/>
          <path d="M30.69,94.51c-.83.3-1.83.71-2.66.24-1.79-1.02.06-2.66-.38-3.42-.08-.14-2.32-1.12-2.79-1.46-.58-.41-.87-.84-1.3-1.34.49.06.52.03.46-.46.09-.07.18-.13.28-.15.24-.06,3.99,2.23,4.23,2.51.42.49,1.11,2.22.51,2.65-.72.52-.25.61,1.43.29.05-.49.28-.49.69-.37.72.52,1.71.76,2.53.37.11-.55.53-1.1,1.26-1.65-.1-.8.02-1.33.35-1.58-.3-.81-.22-1.2.23-1.15-.38-.46-.14-.9.46-.69.11,2.73,1.12,3.07-.92,5.29-1.17.73-2.63,1.04-4.37.92Z" fill="#ce9532"/>
          <path d="M37.82,65.73c-.36-.32-.35-1.29,0-1.61-.7-.24-1.46-.33-2.29-.28l.22-.64V8.64l.23,54.56c2.86-.75,2.09,2.55,2.3,2.76.11.12,1.73-.29,2.76.46-.32.31-.83.36-1.54.16-.54.26-.95.29-1.22.07-.54.42-.69.12-.46-.92Z" fill="#f0deba"/>
          <path d="M35.52,73.79c-.69,0-.61-.5.07-.63.58.02.94-.07,1.08-.29-.12-.16-.16-.33-.08-.51,1.55-.59,5.86-2.27,4.13-4.47-.82-1.04-1.78-.34-1.98.6,2.03,1.94-4.54,2.31-3.22-.23.08-.28.23-.21.46.23l.53-.16c.99,1.13,1.19.8.84-.6l.48-.39c-.6-.26-.05-.88.46-.69,1.06-.73,1.61-.33,2.76-.23.26.19.66.68.92.92.88.85.73,2.23,0,3.22-.54.68-2,1.96-2.76,2.3-1.12.4-2.19.86-3.22,1.38-.43.5-.79.09-.46-.46Z" fill="#cd9434"/>
          <path d="M29.53,82.31c.38-.39.77-.47,1.15-.23l.35-.74c1.18-.76,2.41-1.43,3.68-2.02.15-.4.57-.4,1.26,0,.28-.46.62-.28.46.23.03.12.05.21.02.24-2.35,1.79-2.04,1.32-.02-.24-.02-.48.21-.37.46,0,.53.09.31.8,0,1.15-.01.09-.21.35-.25.78-.09,1.14.71,2.67-.21,3.36-.44.07-.52-.16-.23-.69-.33.02-.56-.15-.69-.46-.2-.07-.2-.14,0-.23-.22-.38.09-.53.92-.46l-.4-.25c.09-.68-.09-1.06-.52-1.14l-.24.76c-1.38.95-2.79,1.84-4.25,2.66l-.57-.2c.06.6-.21.61-.69.46-1.4.06-1.57-2.68-.23-2.99Z" fill="#df8c29"/>
          <path d="M31.84,89.21c-.39.31-.66.16-.92-.23l-.48-.06c-.37-.63-1.09-1.15-1.82-1.32-1.05-.42.29-.85,1.08-.71.22-.32.47-.47.76-.44-.48-.45-.16-.89.46-.69l.03-.31c1.32-.6,2.66-1.36,4.01-2.26l.57.27v.23c.1.54-.91,1.35-1.38,1.7-4.74,2.45-2.35,2.02.57-.32.47-.65.97-.96,1.5-.92.11.27.2.28.23.69.04.53.14,1.49-.23,1.84l-.92-.46c-.07.2-.14.2-.23,0l-.67.85c-2.09.89-2.02,1.22.21.98l.23.47c.07-.2.14-.2.23,0,.56-.18.55-.08.46.46-.04.18-.23,1.09-.23,1.15-1.02-.75-1.86-.69-3.12-.46l-.33-.46Z" fill="#dc8c25"/>
          <path d="M27.69,66.88c-.12-.05-.41.14-.47-.14.14-.87-.42-2.95.63-3.27s1.66.84,1.45-.73l.25.9c.3.07.6,0,.9.02.48-.64,1.6-.65,2.07,0,.01-.18.05-.42.2-.46.37-.11,1.63-.04,2.1,0,.36.7.6.59.92,0-.23,1.03,1.83-.09,2.07.92-.07.61-.29.58-.46,0-3.15.37-6.32.6-9.48.3.27.68.19,1.36-.19,2v.46Z" fill="#c2924f"/>
          <path d="M36.9,79.54c-.52-.21-.72-.75-.61-1.64-.37-.89-.47-1.81-.32-2.74-.66-.16-.6-.63,0-.92.11-1.01,2.38-1,3.22-1.38.16.5-.83.66-1.18.78-1.23.41-1.92-.19-1.58,1.86.16.98.16,1.02.23,2.05.07.95.66,1.39.69,1.63.06.47.11,1.31-.48,1.51.08-.66.22-.44,0-1.15Z" fill="#f8ebcd"/>
          <path d="M35.06,88.52c-.46-.61-.1-1.69.23-2.3.13-.37.74-.41.69-.92h.23c-.01.46.03.92,0,1.38-.03.54-.12,1.09-.23,1.61-.04.18-.42.52-.46.69-.2-.08-.42-.24-.46-.46Z" fill="#a93b2c"/>
          <path d="M30.69,94.51c1.53-.56,1.06-.12,2.39-.24.68-.06,1.31-.58,1.99-.68-.03.03.07.29-.06.39-1.02.84-3.05.44-4.31.53Z" fill="#f4e3c1"/>
          <path d="M41.96,67.34s.3-.08.41.05c.05.07.53,1.57.52,1.66-.04.5-.62,1.14-.93,1.52.42-1.22.53-2.01,0-3.22Z" fill="#f8ebcc"/>
          <path d="M21.25,83.46c.65.59.64,2.26.92,3.22-.82-1.31-.75-1.8-.92-3.22Z" fill="#ca9c53"/>
          <path d="M27,70.11c.57-.45.71-1.17,1.61-.92-.47.57-.75.97-1.61.92Z" fill="#f8ecc9"/>
          <path d="M32.53,63.66c-.18,0-.46-.05-.46-.16-.15-18.87-.02-38.39.13-57.23.4-.43.72-.43,1.02.07.48.75.96,1.52,1.38,2.3l.23,54.56c-.12.6-1.64.44-2.3.46Z" fill="#b8d3e7"/>
          <path d="M30.46,63.66c-.05-5.18.07-10.37,0-15.55-.13-11.68-.91-24.67-.25-36.37.14-2.55.7-4.48,2.2-6.55.54.27.59.81.81,1.15l-.69.11v57.21c-.67.02-1.41.04-2.07,0Z" fill="#67b0e0"/>
          <path d="M30.46,93.36c-.05.01-.28.53-.86.65-.88.18-1.51-.16-1.44-1.11l.92-.34c-.56-.44-.43-1.2-.81-1.73-.41-.57-3.3-1.76-4.26-2.77-4.44-4.63-1.46-15.53,4.6-17.73l.56-.43,7.56.11c1.43.32,5.35-1.83,2.12-1.17l-.11-.35c-.02-.3-.46-.47-.02-1.05,1.11-1.46,3.5.46,2.66,2.43-.08.19-1.25,1.3-1.51,1.48-.85.62-2.77,1.13-3.21,1.51-1.12.5-2.44.79-3.76,1.06l-.62-.37c-.38.38-.75.36-1.15,0-1.06-.79-3.63.44-4.11,1.53-.15.35-.53,2.33-.49,2.45,3.71,2.02-.48,3.8-2.08,1.07l.04,1.78c1.13,1.35,1.54,3.08-.6,1.66l.41,1.19c1.39,1.15,1.41,2.87-.6,1.38-.28-.21,2.27,2.71,2.9,3.06.46.26,2.21.98,1.77.22l.23-.3c.34-.85,1.76.49,2.08.81.19.19.2.55.22.57.38.7-.34,1.53-.91,1.97.95,1.2,1.1,2,.45,2.4Z" fill="#f3c830"/>
          <path d="M28.61,70.34c-.23-.01-.53.13-.46-.23.29-.05,1.2-.83,1.31-1s.04-.5.15-.77c.03-.08.33-.08.37-.24.36-1.24-1.19-1.99-2.29-1.68,0-.77,0-1.54,0-2.3,3.22,0,6.45,0,9.67,0,.44.22.31,2.36-.14,2.56-.61-.1-1.02-.03-1.24.2-.27.32-.43.78-.46,1.38.03.18.62,1.23.68,1.27.44.31,1.92,0,2.55.11-.01-.38.02-.77,0-1.15.49.31,1.59-.92,1.83-.1.43,1.46-2.6,1.88-3.55,1.95-2.42.18-5.98.14-8.41,0Z" fill="#d59221"/>
          <path d="M31.84,89.21c.83.12,3.09-.86,3.45.92-.05.62.41.95.06,1.78-.16.39-1.34,1.36-1.67,1.44-2.21.7-3.62-.68-3.04-2.99.12-.47.65-1.53,1.2-1.15Z" fill="#f2c92d"/>
          <path d="M30.46,93.36c.15-1.36-1.03-1.9-1.15-2.99,1.18.29.98-.67,1.61-1.38.02.02.27-.18.49-.1s.41.33.43.33c-1.66,1.7-.95,4.81,1.84,4.14-.58.71-2.93-.07-3.22,0Z" fill="#d7951c"/>
          <path d="M35.98,66.88s-.1-.4.15-.46c.31-.08,1.15.09,1.23,0s-.06-1.91,0-2.3h.46c.1.41-.04,1.12,0,1.61.25,1.25-.36,1.63-1.84,1.15Z" fill="#cd9434"/>
          <path d="M35.52,68.26c-.04-.27-.06-1,0-1.23.07-.26.44-.13.46-.16,1.19-.07,1.79.47,1.66-.99l.19-.16c.04.42-.03.77.46.92-.38.27-.41.22-.46.69-.41.24-.95.32-1.62.25.19.4.11.7-.22.9-.14-.09-.32-.14-.46-.23Z" fill="#c2924f"/>
          <path d="M29.53,76.32c.48-.98,1.62-2.5,2.76-2.76,1.45-.19,2.9-.62,4.37-.69-.03.03.08.34-.03.42-.2.15-.69-.04-.97.03s-.11.41-.15.47c-.06.21-.13.2-.23,0-.66.55-1.44.99-2.35,1.32l-1.94,1.81-.55-.13c.23.53-.15.86-.69.69-.07.2-.14.2-.23,0-.55-.11-.55-.49,0-1.15Z" fill="#de8c29"/>
          <path d="M37.82,67.34c-.08.73.1.93.23,1.5.03.14.43.41-.13.56-1.19.3-1.31-.47-1.94-.91-.09-.39-.43-1-.01-1.28.6-.21,1.3-.18,1.85.12Z" fill="#f9efd5"/>
          <path d="M35.98,75.63c-1.45.71-2.28-1.46-.69-1.84.08-.02.21.03.23,0l.46.46c-.03.3.03.62,0,.92.11.2.11.35,0,.46Z" fill="#a92e21"/>
          <path d="M27.23,87.6c-.27.66-2.21-1.21-2.25-1.35-.18-.66.32-1.22.87-.72.39-.36.25-1.05-.41-2.07.76-.31,1.33-.68,1.08-1.57-.31-.24-.89-.85-.55-1.16.11-.1,2.69-.62,2.65-.04l.46.46c.51-.44.77-.1.46.46.64.07.64.55,0,.69-.12.5-.48,1.19-.48,1.49,0,.6.52,1.03.71,1.5.62.11.58.26,0,.46.53.9.09,1.31-1.34,1.23-.15.6-.61.73-1.19.61Z" fill="#fcfbf7"/>
          <path d="M29.99,80.69c-.36.32-.49.18-.23-.23-.02-.17,0-.35.15-.45,3.67-2.21,3.8-2.29.4-.27l-.55.02c-.59.19-.67-.02-.23-.46.02-.3.21-.38.46-.46-.22-.55.15-.87.69-.69l.32-.66,3.59-1.72c.37-.18.83-.23,1.39-.15.01-.15-.02-.31,0-.46.73.97.31,2.25.47,3.33.05.31.33.67.45,1.05-.14-.03-.34.04-.46,0-.1-.03-.15-.21-.46-.23-.2-.07-.2-.14,0-.23-.12-.61-.35-.99-.69-1.15l-.27.7-2.48,1.21c-.89.96-1.74,1.25-2.55.85Z" fill="#e08a2a"/>
          <path d="M30.92,85.76c-.62.28-.96-.51-.46-.92,1.41-.83,3.67-2.11,5.06-3.22l.44.26c-.06.43.1.8.48,1.12-.05.15-.71.38-.92.46-1.52.54-2.49,1.61-3.86,2.29-.21.11-.6-.05-.74,0Z" fill="#e66c27"/>
          <path d="M36.44,79.54c.15.39.31.21,0,.58-.35.43-4.21,2.98-4.91,3.38-1.96,1.1-2.56.58-.79-.81.57-.45,5.38-3.24,5.7-3.15Z" fill="#f8c138"/>
          <path d="M30.69,82.08c-.31-.15-.54-.53-.69-1.15-.2-.07-.2-.14,0-.23.84.19,1.65-.9,2.39-1.29,1.08-.56,1.89-.82,2.91-1.47.31.15.54.53.69,1.15v.23c-1.04-.07-.78.27-1,.37-1.54.69-2.94,1.61-4.29,2.39Z" fill="#e46e26"/>
          <path d="M35.52,83.69c.87-.14.56.15.69.46-.99,1.34-2.9,2.69-4.45,3.28-.6.23-1.27-.16-.85-.63.56-.63,1.98-1.1,2.75-1.62.6-.41,1.1-1.18,1.86-1.48Z" fill="#f8c238"/>
          <path d="M35.52,81.62c.5-.4.36-.81.92-.69-.11.54.15,1.64,0,2.07-1,.12-.99-.57-.92-1.38Z" fill="#ac4734"/>
          <path d="M29.53,82.31c.05-.19-.05-.49,0-.69-.44-.54-.19-.84.46-.69,1-.18.66.33.69,1.15-.41.24-.65.66-1.15.23Z" fill="#b2411f"/>
          <path d="M30.46,86.45c-.44.58-.67.35-.69-.69-.05-.11.05-.35,0-.46.08-.43.49-.34.69-.46l.46.92c-.07.03-.32.55-.46.69Z" fill="#ad4427"/>
          <path d="M34.83,88.52c-.99-.06-2.11.24-2.99-.34.95-.91,2.23-1.45,3.22-1.96-.1.75-.17,1.52-.23,2.3Z" fill="#e57027"/>
          <path d="M27.23,87.6c.68.12.82-.86,1.08-.93.86-.2,1.7.59,1.45-.92.14.33.24.83.69.69-.16.15-.58.68-.62.69-.35.07-.97-.12-1.18.06-.1.09-.01.38-.04.41.2.9-1.39.72-1.38,0Z" fill="#d18f3d"/>
          <path d="M35.06,86.22h.23c-.12.33-.3,1.95-.23,2.3h-.23c-.54-.77.1-1.51.23-2.3Z" fill="#dd522f"/>
          <path d="M28.61,87.6c-.13.32,1.58,1.03.57,1.61-.88-.62-2.02-.81-2.89-1.25-.36-.19-3.16-3.02-3.21-3.24-.07-.31.27-.58.58-.58.53,0,.68.8,1.26.7.06-.67-.79-.91-1.02-1.39-.06-.12-.56-1.58-.59-1.71-.23-1.11,1.75.68,1.84.57-.17-.84-.97-1.04-1.11-2.02-.07-.5-.07-3.12.01-3.57.11-.59,1.24-2.31,1.78-1.78.38.36-2.54,3.07-.08,4.34s2.46-1.51-.14-1.12c-.11-.53.53-.66.64-1.08.13-.47-.02-1.02.1-1.51.34-1.45,1.79-2.33,3.16-2.6.57-.11,1.92-.52,1.62.59l.2.42c-.61.81-1.32,1.53-2.09,2.2l.28.15c-.06.27.09,1.01,0,1.15.18.3.03.46-.46.46.39.54-.33,1.41-.69,1.84l-.02.59c-.88.15-1.71.29-2.47.42.89,1.47.9,1.71-.26,2.98.52.8.59,1.39.23,1.77-.28.18-.56.25-.45.68.68.33,1.1,1.01,1.83,1.39.33.17,1.13.21,1.38,0Z" fill="#d59226"/>
          <path d="M29.53,76.32c-.15.13-2.31,2.14-1.84,1.04.14-.32,1.98-1.97,2.42-2.42.32-.34.74-1.18,1.03-1.38.62-.44.98.02,1.15,0-.81,1-1.81,1.91-2.76,2.76Z" fill="#f6bd3e"/>
          <path d="M28.38,66.19c-.07-.06-.4-1.61.12-1.61h8.4v1.61c-1.09-.21-8.19.28-8.52,0Z" fill="#f4c531"/>
          <path d="M33.68,69.41c.24-.6.44-1.17.63-1.79.1-.31-.09-.61.4-.51l1.04,2.53-2.07-.23Z" fill="#f2b937"/>
          <path d="M31.61,67.11h1.84c-.22,2.63-1.56,2.7-1.84,0Z" fill="#f4c035"/>
          <polygon points="29.77 69.41 30.57 67.12 31.37 69.41 29.77 69.41" fill="#f6bd38"/>
          <path d="M30.46,76.78c2.18-1.86,1.7-2.29,4.83-2.99-.86.29-.25,2.12.69,1.84l-5.29,2.53c-.68,0-.51-.98-.23-1.38Z" fill="#ea642a"/>
          <path d="M29.76,77.47c.12-.38.45-.48.69-.69.41.26.2.95.23,1.38-.1.38-.49.49-.69.69-.33.42-.68-1.34-.23-1.38Z" fill="#ac3219"/>
          <path d="M29.07,81.16c-.77-.54-.48-3.13.46-1.84-.36-.22-.52-.68-.46-1.38.35-.62.44-.43.46-.46h.23c.03.43-.18,1.12.23,1.38-.16.17.37.18-.46.46.02.21.22.4.23.46.25.18.23.48,0,.69.06.07.09.2.23.23v.23c-.09.22-.41.5-.46.69-.15-.14-.29-.36-.46-.46Z" fill="#d99942"/>
          <path d="M25.85,85.53c.2-.99-.45-1.56-.92-2.3.63-.14,1.49-.19,1.39-1.03s-1.76-1.43-1.39-2.43c.95.79,2.56,1.01,3.45,0,.41-.09.37.61.23.92-.55.07-2.05-.25-2.3.35s.41.55.45.73c.34,1.48-.91,1.6-.93,1.83-.04.46.51.84.49,1.58-.01.61-.32.24-.48.34Z" fill="#f9f4dd"/>
          <path d="M29.07,81.16c-.28-.17-.31.34-.46-.46-.05-.27-.23-.87-.23-.92-.09-1.21.25-1.05.69-1.84.76-.19.4.73.46,1.38-.1.03-.3-.07-.42.03-.3.24-.38,1.45-.04,1.81Z" fill="#f1d1a7"/>
          <path d="M29.76,79.77c1.62-1.01,3.23-2.11,4.91-3.03.25-.14.83-.62,1.07-.31-1.3,1.95-4.15,2.59-5.99,4.03-.38-.42.03-.49,0-.69Z" fill="#f8bd3c"/>
          <path d="M35.98,79.08c-1,.18-.66-.33-.69-1.15.18-.12.54-.46.58-.46.38,0,.54,1.31.12,1.61Z" fill="#be3d17"/>
          <path d="M27,76.32c-.47-.52,1.68-2.9,2.53-2.53.27.25-2.28,2.8-2.53,2.53Z" fill="#f5d691"/>
        </g>
        <g>
          <path d="M52.77,34.95c.31-.42,1.6-.36,1.06.16l.09.76v53.29c-.09.82-2.15,5.3-2.7,5.65-1.21.77-2.23-1.72-2.6-2.55-.45-.56-.79-1.25-.92-1.96-.2-6.92-.2-14.18,0-21.06.37-.42.6-.29.65.23l.02,19.86.25.63c.93.32,1.55,1.33,1.38,2.3.51-.04.56.04.74.43,1.4-2.02,1.79-4.36,1.86-6.84.18-13.19.08-26.39-.32-39.61-.17-3.81,0-7.58.48-11.31Z" fill="#206ea8"/>
          <path d="M48.4,35.41l.46.16s.08,18.04.23,54.11l-.46.29c-.05-.1-.62-.28-.47-.79v-19.59s-.45-.34-.45-.34v21.06c0,.11.79,1.66.92,1.96-.71-.44-.86-1.55-1.15-2.3-.1-18.21-.1-36.4,0-54.56-.42-1.08,1.53-.94.92,0Z" fill="#2d70a2"/>
          <path d="M59.67,10.09c.35.41,1.1,1.39,1.38,1.84.35,1.06.66,2.13.92,3.22.71,5.86-1.3,9.78-5.75,13.35-.53.33-1.07.64-1.61.92-1.58,1.92-.53,1.74.92,2.3.34.02.33.38,0,.46-.51,1.22-2.64.09-2.78-1.05-.08-.64.69-2.09,1.28-2.52.68-.1.87-.22.58-.35l.23-.59c5.47-2.77,7.99-11.47,4.32-16.51l.06-.62c-.69-.76-.32-1.04.46-.46Z" fill="#cd9331"/>
          <path d="M52.54,4.1c.83-.3,1.83-.71,2.66-.24,1.79,1.02-.06,2.66.38,3.42.08.14,2.32,1.12,2.79,1.46.58.41.87.84,1.3,1.34-.49-.06-.52-.03-.46.46-.09.07-.18.13-.28.15-.24.06-3.99-2.23-4.23-2.51-.42-.49-1.11-2.22-.51-2.65.72-.52.25-.61-1.43-.29-.05.49-.28.49-.69.37-.72-.52-1.71-.76-2.53-.37-.11.55-.53,1.1-1.26,1.65.1.8-.02,1.33-.35,1.58.3.81.22,1.2-.23,1.15.38.46.14.9-.46.69-.11-2.73-1.12-3.07.92-5.29,1.17-.73,2.63-1.04,4.37-.92Z" fill="#ce9532"/>
          <path d="M45.4,32.88c.36.32.35,1.29,0,1.61.7.24,1.46.33,2.29.28l-.22.64v54.56l-.23-54.56c-2.86.75-2.09-2.55-2.3-2.76-.11-.12-1.73.29-2.76-.46.32-.31.83-.36,1.54-.16.54-.26.95-.29,1.22-.07.54-.42.69-.12.46.92Z" fill="#f0deba"/>
          <path d="M47.7,24.82c.69,0,.61.5-.07.63-.58-.02-.94.07-1.08.29.12.16.16.33.08.51-1.55.59-5.86,2.27-4.13,4.47.82,1.04,1.78.34,1.98-.6-2.03-1.94,4.54-2.31,3.22.23-.08.28-.23.21-.46-.23l-.53.16c-.99-1.13-1.19-.8-.84.6l-.48.39c.6.26.05.88-.46.69-1.06.73-1.61.33-2.76.23-.26-.19-.66-.68-.92-.92-.88-.85-.73-2.23,0-3.22.54-.68,2-1.96,2.76-2.3,1.12-.4,2.19-.86,3.22-1.38.43-.5.79-.09.46.46Z" fill="#cd9434"/>
          <path d="M53.69,16.3c-.38.39-.77.47-1.15.23l-.35.74c-1.18.76-2.41,1.43-3.68,2.02-.15.4-.57.4-1.26,0-.28.46-.62.28-.46-.23-.03-.12-.05-.21-.02-.24,2.35-1.79,2.04-1.32.02.24.02.48-.21.37-.46,0-.53-.09-.31-.8,0-1.15.01-.09.21-.35.25-.78.09-1.14-.71-2.67.21-3.36.44-.07.52.16.23.69.33-.02.56.15.69.46.2.07.2.14,0,.23.22.38-.09.53-.92.46l.4.25c-.09.68.09,1.06.52,1.14l.24-.76c1.38-.95,2.79-1.84,4.25-2.66l.57.2c-.06-.6.21-.61.69-.46,1.4-.06,1.57,2.68.23,2.99Z" fill="#df8c29"/>
          <path d="M51.39,9.4c.39-.31.66-.16.92.23l.48.06c.37.63,1.09,1.15,1.82,1.32,1.05.42-.29.85-1.08.71-.22.32-.47.47-.76.44.48.45.16.89-.46.69l-.03.31c-1.32.6-2.66,1.36-4.01,2.26l-.57-.27v-.23c-.1-.54.91-1.35,1.38-1.7,4.74-2.45,2.35-2.02-.57.32-.47.65-.97.96-1.5.92-.11-.27-.2-.28-.23-.69-.04-.53-.14-1.49.23-1.84l.92.46c.07-.2.14-.2.23,0l.67-.85c2.09-.89,2.02-1.22-.21-.98l-.23-.47c-.07.2-.14.2-.23,0-.56.18-.55.08-.46-.46.04-.18.23-1.09.23-1.15,1.02.75,1.86.69,3.12.46l.33.46Z" fill="#dc8c25"/>
          <path d="M55.53,31.73c.12.05.41-.14.47.14-.14.87.42,2.95-.63,3.27s-1.66-.84-1.45.73l-.25-.9c-.3-.07-.6,0-.9-.02-.48.64-1.6.65-2.07,0-.01.18-.05.42-.2.46-.37.11-1.63.04-2.1,0-.36-.7-.6-.59-.92,0,.23-1.03-1.83.09-2.07-.92.07-.61.29-.58.46,0,3.15-.37,6.32-.6,9.48-.3-.27-.68-.19-1.36.19-2v-.46Z" fill="#c2924f"/>
          <path d="M46.32,19.07c.52.21.72.75.61,1.64.37.89.47,1.81.32,2.74.66.16.6.63,0,.92-.11,1.01-2.38,1-3.22,1.38-.16-.5.83-.66,1.18-.78,1.23-.41,1.92.19,1.58-1.86-.16-.98-.16-1.02-.23-2.05-.07-.95-.66-1.39-.69-1.63-.06-.47-.11-1.31.48-1.51-.08.66-.22.44,0,1.15Z" fill="#f8ebcd"/>
          <path d="M48.16,10.09c.46.61.1,1.69-.23,2.3-.13.37-.74.41-.69.92h-.23c.01-.46-.03-.92,0-1.38.03-.54.12-1.09.23-1.61.04-.18.42-.52.46-.69.2.08.42.24.46.46Z" fill="#a93b2c"/>
          <path d="M52.54,4.1c-1.53.56-1.06.12-2.39.24-.68.06-1.31.58-1.99.68.03-.03-.07-.29.06-.39,1.02-.84,3.05-.44,4.31-.53Z" fill="#f4e3c1"/>
          <path d="M41.26,31.27s-.3.08-.41-.05c-.05-.07-.53-1.57-.52-1.66.04-.5.62-1.14.93-1.52-.42,1.22-.53,2.01,0,3.22Z" fill="#f8ebcc"/>
          <path d="M61.98,15.15c-.65-.59-.64-2.26-.92-3.22.82,1.31.75,1.8.92,3.22Z" fill="#ca9c53"/>
          <path d="M56.22,28.5c-.57.45-.71,1.17-1.61.92.47-.57.75-.97,1.61-.92Z" fill="#f8ecc9"/>
          <path d="M50.7,34.95c.18,0,.46.05.46.16.15,18.87.02,38.39-.13,57.23-.4.43-.72.43-1.02-.07-.48-.75-.96-1.52-1.38-2.3l-.23-54.56c.12-.6,1.64-.44,2.3-.46Z" fill="#b8d3e7"/>
          <path d="M52.77,34.95c.05,5.18-.07,10.37,0,15.55.13,11.68.91,24.67.25,36.37-.14,2.55-.7,4.48-2.2,6.55-.54-.27-.59-.81-.81-1.15l.69-.11v-57.21c.67-.02,1.41-.04,2.07,0Z" fill="#67b0e0"/>
          <path d="M52.77,5.25c.05-.01.28-.53.86-.65.88-.18,1.51.16,1.44,1.11l-.92.34c.56.44.43,1.2.81,1.73.41.57,3.3,1.76,4.26,2.77,4.44,4.63,1.46,15.53-4.6,17.73l-.56.43-7.56-.11c-1.43-.32-5.35,1.83-2.12,1.17l.11.35c.02.3.46.47.02,1.05-1.11,1.46-3.5-.46-2.66-2.43.08-.19,1.25-1.3,1.51-1.48.85-.62,2.77-1.13,3.21-1.51,1.12-.5,2.44-.79,3.76-1.06l.62.37c.38-.38.75-.36,1.15,0,1.06.79,3.63-.44,4.11-1.53.15-.35.53-2.33.49-2.45-3.71-2.02.48-3.8,2.08-1.07l-.04-1.78c-1.13-1.35-1.54-3.08.6-1.66l-.41-1.19c-1.39-1.15-1.41-2.87.6-1.38.28.21-2.27-2.71-2.9-3.06-.46-.26-2.21-.98-1.77-.22l-.23.3c-.34.85-1.76-.49-2.08-.81-.19-.19-.2-.55-.22-.57-.38-.7.34-1.53.91-1.97-.95-1.2-1.1-2-.45-2.4Z" fill="#f3c830"/>
          <path d="M54.61,28.27c.23.01.53-.13.46.23-.29.05-1.2.83-1.31,1s-.04.5-.15.77c-.03.08-.33.08-.37.24-.36,1.24,1.19,1.99,2.29,1.68,0,.77,0,1.54,0,2.3-3.22,0-6.45,0-9.67,0-.44-.22-.31-2.36.14-2.56.61.1,1.02.03,1.24-.2.27-.32.43-.78.46-1.38-.03-.18-.62-1.23-.68-1.27-.44-.31-1.92,0-2.55-.11.01.38-.02.77,0,1.15-.49-.31-1.59.92-1.83.1-.43-1.46,2.6-1.88,3.55-1.95,2.42-.18,5.98-.14,8.41,0Z" fill="#d59221"/>
          <path d="M51.39,9.4c-.83-.12-3.09.86-3.45-.92.05-.62-.41-.95-.06-1.78.16-.39,1.34-1.36,1.67-1.44,2.21-.7,3.62.68,3.04,2.99-.12.47-.65,1.53-1.2,1.15Z" fill="#f2c92d"/>
          <path d="M52.77,5.25c-.15,1.36,1.03,1.9,1.15,2.99-1.18-.29-.98.67-1.61,1.38-.02-.02-.27.18-.49.1s-.41-.33-.43-.33c1.66-1.7.95-4.81-1.84-4.14.58-.71,2.93.07,3.22,0Z" fill="#d7951c"/>
          <path d="M47.24,31.73s.1.4-.15.46c-.31.08-1.15-.09-1.23,0s.06,1.91,0,2.3h-.46c-.1-.41.04-1.12,0-1.61-.25-1.25.36-1.63,1.84-1.15Z" fill="#cd9434"/>
          <path d="M47.7,30.35c.04.27.06,1,0,1.23-.07.26-.44.13-.46.16-1.19.07-1.79-.47-1.66.99l-.19.16c-.04-.42.03-.77-.46-.92.38-.27.41-.22.46-.69.41-.24.95-.32,1.62-.25-.19-.4-.11-.7.22-.9.14.09.32.14.46.23Z" fill="#c2924f"/>
          <path d="M53.69,22.29c-.48.98-1.62,2.5-2.76,2.76-1.45.19-2.9.62-4.37.69.03-.03-.08-.34.03-.42.2-.15.69.04.97-.03s.11-.41.15-.47c.06-.21.13-.2.23,0,.66-.55,1.44-.99,2.35-1.32l1.94-1.81.55.13c-.23-.53.15-.86.69-.69.07-.2.14-.2.23,0,.55.11.55.49,0,1.15Z" fill="#de8c29"/>
          <path d="M45.4,31.27c.08-.73-.1-.93-.23-1.5-.03-.14-.43-.41.13-.56,1.19-.3,1.31.47,1.94.91.09.39.43,1,.01,1.28-.6.21-1.3.18-1.85-.12Z" fill="#f9efd5"/>
          <path d="M47.24,22.98c1.45-.71,2.28,1.46.69,1.84-.08.02-.21-.03-.23,0l-.46-.46c.03-.3-.03-.62,0-.92-.11-.2-.11-.35,0-.46Z" fill="#a92e21"/>
          <path d="M55.99,11.01c.27-.66,2.21,1.21,2.25,1.35.18.66-.32,1.22-.87.72-.39.36-.25,1.05.41,2.07-.76.31-1.33.68-1.08,1.57.31.24.89.85.55,1.16-.11.1-2.69.62-2.65.04l-.46-.46c-.51.44-.77.1-.46-.46-.64-.07-.64-.55,0-.69.12-.5.48-1.19.48-1.49,0-.6-.52-1.03-.71-1.5-.62-.11-.58-.26,0-.46-.53-.9-.09-1.31,1.34-1.23.15-.6.61-.73,1.19-.61Z" fill="#fcfbf7"/>
          <path d="M53.23,17.92c.36-.32.49-.18.23.23.02.17,0,.35-.15.45-3.67,2.21-3.8,2.29-.4.27l.55-.02c.59-.19.67.02.23.46-.02.3-.21.38-.46.46.22.55-.15.87-.69.69l-.32.66-3.59,1.72c-.37.18-.83.23-1.39.15-.01.15.02.31,0,.46-.73-.97-.31-2.25-.47-3.33-.05-.31-.33-.67-.45-1.05.14.03.34-.04.46,0,.1.03.15.21.46.23.2.07.2.14,0,.23.12.61.35.99.69,1.15l.27-.7,2.48-1.21c.89-.96,1.74-1.25,2.55-.85Z" fill="#e08a2a"/>
          <path d="M52.31,12.85c.62-.28.96.51.46.92-1.41.83-3.67,2.11-5.06,3.22l-.44-.26c.06-.43-.1-.8-.48-1.12.05-.15.71-.38.92-.46,1.52-.54,2.49-1.61,3.86-2.29.21-.11.6.05.74,0Z" fill="#e66c27"/>
          <path d="M46.78,19.07c-.15-.39-.31-.21,0-.58.35-.43,4.21-2.98,4.91-3.38,1.96-1.1,2.56-.58.79.81-.57.45-5.38,3.24-5.7,3.15Z" fill="#f8c138"/>
          <path d="M52.54,16.53c.31.15.54.53.69,1.15.2.07.2.14,0,.23-.84-.19-1.65.9-2.39,1.29-1.08.56-1.89.82-2.91,1.47-.31-.15-.54-.53-.69-1.15v-.23c1.04.07.78-.27,1-.37,1.54-.69,2.94-1.61,4.29-2.39Z" fill="#e46e26"/>
          <path d="M47.7,14.92c-.87.14-.56-.15-.69-.46.99-1.34,2.9-2.69,4.45-3.28.6-.23,1.27.16.85.63-.56.63-1.98,1.1-2.75,1.62-.6.41-1.1,1.18-1.86,1.48Z" fill="#f8c238"/>
          <path d="M47.7,16.99c-.5.4-.36.81-.92.69.11-.54-.15-1.64,0-2.07,1-.12.99.57.92,1.38Z" fill="#ac4734"/>
          <path d="M53.69,16.3c-.05.19.05.49,0,.69.44.54.19.84-.46.69-1,.18-.66-.33-.69-1.15.41-.24.65-.66,1.15-.23Z" fill="#b2411f"/>
          <path d="M52.77,12.16c.44-.58.67-.35.69.69.05.11-.05.35,0,.46-.08.43-.49.34-.69.46l-.46-.92c.07-.03.32-.55.46-.69Z" fill="#ad4427"/>
          <path d="M48.4,10.09c.99.06,2.11-.24,2.99.34-.95.91-2.23,1.45-3.22,1.96.1-.75.17-1.52.23-2.3Z" fill="#e57027"/>
          <path d="M55.99,11.01c-.68-.12-.82.86-1.08.93-.86.2-1.7-.59-1.45.92-.14-.33-.24-.83-.69-.69.16-.15.58-.68.62-.69.35-.07.97.12,1.18-.06.1-.09.01-.38.04-.41-.2-.9,1.39-.72,1.38,0Z" fill="#d18f3d"/>
          <path d="M48.16,12.39h-.23c.12-.33.3-1.95.23-2.3h.23c.54.77-.1,1.51-.23,2.3Z" fill="#dd522f"/>
          <path d="M54.61,11.01c.13-.32-1.58-1.03-.57-1.61.88.62,2.02.81,2.89,1.25.36.19,3.16,3.02,3.21,3.24.07.31-.27.58-.58.58-.53,0-.68-.8-1.26-.7-.06.67.79.91,1.02,1.39.06.12.56,1.58.59,1.71.23,1.11-1.75-.68-1.84-.57.17.84.97,1.04,1.11,2.02.07.5.07,3.12-.01,3.57-.11.59-1.24,2.31-1.78,1.78-.38-.36,2.54-3.07.08-4.34s-2.46,1.51.14,1.12c.11.53-.53.66-.64,1.08-.13.47.02,1.02-.1,1.51-.34,1.45-1.79,2.33-3.16,2.6-.57.11-1.92.52-1.62-.59l-.2-.42c.61-.81,1.32-1.53,2.09-2.2l-.28-.15c.06-.27-.09-1.01,0-1.15-.18-.3-.03-.46.46-.46-.39-.54.33-1.41.69-1.84l.02-.59c.88-.15,1.71-.29,2.47-.42-.89-1.47-.9-1.71.26-2.98-.52-.8-.59-1.39-.23-1.77.28-.18.56-.25.45-.68-.68-.33-1.1-1.01-1.83-1.39-.33-.17-1.13-.21-1.38,0Z" fill="#d59226"/>
          <path d="M53.69,22.29c.15-.13,2.31-2.14,1.84-1.04-.14.32-1.98,1.97-2.42,2.42-.32.34-.74,1.18-1.03,1.38-.62.44-.98-.02-1.15,0,.81-1,1.81-1.91,2.76-2.76Z" fill="#f6bd3e"/>
          <path d="M54.84,32.42c.07.06.4,1.61-.12,1.61h-8.4v-1.61c1.09.21,8.19-.28,8.52,0Z" fill="#f4c531"/>
          <path d="M49.54,29.2c-.24.6-.44,1.17-.63,1.79-.1.31.09.61-.4.51l-1.04-2.53,2.07.23Z" fill="#f2b937"/>
          <path d="M51.62,31.5h-1.84c.22-2.63,1.56-2.7,1.84,0Z" fill="#f4c035"/>
          <polygon points="53.46 29.2 52.66 31.49 51.85 29.2 53.46 29.2" fill="#f6bd38"/>
          <path d="M52.77,21.83c-2.18,1.86-1.7,2.29-4.83,2.99.86-.29.25-2.12-.69-1.84l5.29-2.53c.68,0,.51.98.23,1.38Z" fill="#ea642a"/>
          <path d="M53.46,21.14c-.12.38-.45.48-.69.69-.41-.26-.2-.95-.23-1.38.1-.38.49-.49.69-.69.33-.42.68,1.34.23,1.38Z" fill="#ac3219"/>
          <path d="M54.15,17.45c.77.54.48,3.13-.46,1.84.36.22.52.68.46,1.38-.35.62-.44.43-.46.46h-.23c-.03-.43.18-1.12-.23-1.38.16-.17-.37-.18.46-.46-.02-.21-.22-.4-.23-.46-.25-.18-.23-.48,0-.69-.06-.07-.09-.2-.23-.23v-.23c.09-.22.41-.5.46-.69.15.14.29.36.46.46Z" fill="#d99942"/>
          <path d="M57.37,13.08c-.2.99.45,1.56.92,2.3-.63.14-1.49.19-1.39,1.03s1.76,1.43,1.39,2.43c-.95-.79-2.56-1.01-3.45,0-.41.09-.37-.61-.23-.92.55-.07,2.05.25,2.3-.35s-.41-.55-.45-.73c-.34-1.48.91-1.6.93-1.83.04-.46-.51-.84-.49-1.58.01-.61.32-.24.48-.34Z" fill="#f9f4dd"/>
          <path d="M54.15,17.45c.28.17.31-.34.46.46.05.27.23.87.23.92.09,1.21-.25,1.05-.69,1.84-.76.19-.4-.73-.46-1.38.1-.03.3.07.42-.03.3-.24.38-1.45.04-1.81Z" fill="#f1d1a7"/>
          <path d="M53.46,18.84c-1.62,1.01-3.23,2.11-4.91,3.03-.25.14-.83.62-1.07.31,1.3-1.95,4.15-2.59,5.99-4.03.38.42-.03.49,0,.69Z" fill="#f8bd3c"/>
          <path d="M47.24,19.53c1-.18.66.33.69,1.15-.18.12-.54.46-.58.46-.38,0-.54-1.31-.12-1.61Z" fill="#be3d17"/>
          <path d="M56.22,22.29c.47.52-1.68,2.9-2.53,2.53-.27-.25,2.28-2.8,2.53-2.53Z" fill="#f5d691"/>
        </g>
      </g>
    </g>
  </g>
</svg>